G04 #@! TF.GenerationSoftware,KiCad,Pcbnew,8.0.8+1*
G04 #@! TF.CreationDate,2025-03-02T13:35:21+00:00*
G04 #@! TF.ProjectId,zeph_wireless_autorouted,7a657068-5f77-4697-9265-6c6573735f61,0.2*
G04 #@! TF.SameCoordinates,Original*
G04 #@! TF.FileFunction,Copper,L2,Bot*
G04 #@! TF.FilePolarity,Positive*
%FSLAX46Y46*%
G04 Gerber Fmt 4.6, Leading zero omitted, Abs format (unit mm)*
G04 Created by KiCad (PCBNEW 8.0.8+1) date 2025-03-02 13:35:21*
%MOMM*%
%LPD*%
G01*
G04 APERTURE LIST*
G04 #@! TA.AperFunction,ComponentPad*
%ADD10O,1.700000X1.700000*%
G04 #@! TD*
G04 #@! TA.AperFunction,ComponentPad*
%ADD11C,1.700000*%
G04 #@! TD*
G04 #@! TA.AperFunction,SMDPad,CuDef*
%ADD12R,1.200000X0.600000*%
G04 #@! TD*
G04 #@! TA.AperFunction,SMDPad,CuDef*
%ADD13R,1.550000X1.000000*%
G04 #@! TD*
G04 #@! TA.AperFunction,SMDPad,CuDef*
%ADD14R,0.800000X1.000000*%
G04 #@! TD*
G04 #@! TA.AperFunction,SMDPad,CuDef*
%ADD15R,1.500000X0.700000*%
G04 #@! TD*
G04 #@! TA.AperFunction,SMDPad,CuDef*
%ADD16R,0.600000X1.200000*%
G04 #@! TD*
G04 #@! TA.AperFunction,ComponentPad*
%ADD17C,0.800000*%
G04 #@! TD*
G04 #@! TA.AperFunction,ComponentPad*
%ADD18O,1.750000X1.200000*%
G04 #@! TD*
G04 #@! TA.AperFunction,SMDPad,CuDef*
%ADD19R,1.550000X2.000000*%
G04 #@! TD*
G04 #@! TA.AperFunction,SMDPad,CuDef*
%ADD20R,2.000000X2.000000*%
G04 #@! TD*
G04 #@! TA.AperFunction,SMDPad,CuDef*
%ADD21R,0.900000X1.200000*%
G04 #@! TD*
G04 #@! TA.AperFunction,ViaPad*
%ADD22C,0.600000*%
G04 #@! TD*
G04 #@! TA.AperFunction,Conductor*
%ADD23C,0.200000*%
G04 #@! TD*
G04 #@! TA.AperFunction,Conductor*
%ADD24C,0.250000*%
G04 #@! TD*
G04 APERTURE END LIST*
D10*
X206817000Y-91200000D03*
X209357000Y-91200000D03*
X211897000Y-91200000D03*
X214437000Y-91200000D03*
D11*
X216977000Y-91200000D03*
D12*
X216977000Y-93850000D03*
X214437000Y-93850000D03*
X209357000Y-93850000D03*
X206817000Y-93850000D03*
X216977000Y-92950000D03*
X214437000Y-92950000D03*
X209357000Y-92950000D03*
X206817000Y-92950000D03*
D13*
X209579000Y-55497500D03*
X209579000Y-57197500D03*
X214829000Y-55497500D03*
X214829000Y-57197500D03*
D14*
X218665000Y-96600000D03*
X218665000Y-103900000D03*
X220875000Y-96600000D03*
X220875000Y-103900000D03*
D15*
X218015000Y-98000000D03*
X218015000Y-101000000D03*
X218015000Y-102500000D03*
D16*
X217684000Y-59420000D03*
D11*
X219824000Y-59420000D03*
D16*
X217684000Y-61960000D03*
D11*
X219824000Y-61960000D03*
D16*
X217684000Y-64500000D03*
D11*
X219824000Y-64500000D03*
D16*
X217684000Y-67040000D03*
D11*
X219824000Y-67040000D03*
D16*
X217684000Y-69580000D03*
D11*
X219824000Y-69580000D03*
D16*
X217684000Y-72120000D03*
D11*
X219824000Y-72120000D03*
D16*
X217684000Y-74660000D03*
D11*
X219824000Y-74660000D03*
D16*
X217684000Y-77200000D03*
D11*
X219824000Y-77200000D03*
D16*
X217684000Y-79740000D03*
D11*
X219824000Y-79740000D03*
D16*
X217684000Y-82280000D03*
D11*
X219824000Y-82280000D03*
D16*
X217684000Y-84820000D03*
D11*
X219824000Y-84820000D03*
D16*
X217684000Y-87360000D03*
D11*
X219824000Y-87360000D03*
X204584000Y-87360000D03*
D16*
X206724000Y-87360000D03*
D11*
X204584000Y-84820000D03*
D16*
X206724000Y-84820000D03*
D11*
X204584000Y-82280000D03*
D16*
X206724000Y-82280000D03*
D11*
X204584000Y-79740000D03*
D16*
X206724000Y-79740000D03*
D11*
X204584000Y-77200000D03*
D16*
X206724000Y-77200000D03*
D11*
X204584000Y-74660000D03*
D16*
X206724000Y-74660000D03*
D11*
X204584000Y-72120000D03*
D16*
X206724000Y-72120000D03*
D11*
X204584000Y-69580000D03*
D16*
X206724000Y-69580000D03*
D11*
X204584000Y-67040000D03*
D16*
X206724000Y-67040000D03*
D11*
X204584000Y-64500000D03*
D16*
X206724000Y-64500000D03*
D11*
X204584000Y-61960000D03*
D16*
X206724000Y-61960000D03*
D11*
X204584000Y-59420000D03*
D16*
X206724000Y-59420000D03*
X207624000Y-59420000D03*
D17*
X215604000Y-59420000D03*
D16*
X207624000Y-61960000D03*
D17*
X215604000Y-61960000D03*
D16*
X207624000Y-64500000D03*
D17*
X215604000Y-64500000D03*
D16*
X207624000Y-67040000D03*
D17*
X215604000Y-67040000D03*
D16*
X207624000Y-69580000D03*
D17*
X215604000Y-69580000D03*
D16*
X207624000Y-72120000D03*
D17*
X215604000Y-72120000D03*
D16*
X207624000Y-74660000D03*
D17*
X215604000Y-74660000D03*
D16*
X207624000Y-77200000D03*
D17*
X215604000Y-77200000D03*
D16*
X207624000Y-79740000D03*
D17*
X215604000Y-79740000D03*
D16*
X207624000Y-82280000D03*
D17*
X215604000Y-82280000D03*
D16*
X207624000Y-84820000D03*
D17*
X215604000Y-84820000D03*
D16*
X207624000Y-87360000D03*
D17*
X215604000Y-87360000D03*
X208804000Y-87360000D03*
D16*
X216784000Y-87360000D03*
D17*
X208804000Y-84820000D03*
D16*
X216784000Y-84820000D03*
D17*
X208804000Y-82280000D03*
D16*
X216784000Y-82280000D03*
D17*
X208804000Y-79740000D03*
D16*
X216784000Y-79740000D03*
D17*
X208804000Y-77200000D03*
D16*
X216784000Y-77200000D03*
D17*
X208804000Y-74660000D03*
D16*
X216784000Y-74660000D03*
D17*
X208804000Y-72120000D03*
D16*
X216784000Y-72120000D03*
D17*
X208804000Y-69580000D03*
D16*
X216784000Y-69580000D03*
D17*
X208804000Y-67040000D03*
D16*
X216784000Y-67040000D03*
D17*
X208804000Y-64500000D03*
D16*
X216784000Y-64500000D03*
D17*
X208804000Y-61960000D03*
D16*
X216784000Y-61960000D03*
D17*
X208804000Y-59420000D03*
D16*
X216784000Y-59420000D03*
G04 #@! TA.AperFunction,SMDPad,CuDef*
G36*
X210816000Y-98600000D02*
G01*
X211416000Y-98000000D01*
X210816000Y-97400000D01*
X212066000Y-97400000D01*
X212066000Y-98600000D01*
X210816000Y-98600000D01*
G37*
G04 #@! TD.AperFunction*
G04 #@! TA.AperFunction,SMDPad,CuDef*
G36*
X210816000Y-100600000D02*
G01*
X211416000Y-100000000D01*
X210816000Y-99400000D01*
X212066000Y-99400000D01*
X212066000Y-100600000D01*
X210816000Y-100600000D01*
G37*
G04 #@! TD.AperFunction*
D18*
X209000000Y-100000000D03*
X209000000Y-98000000D03*
G04 #@! TA.AperFunction,SMDPad,CuDef*
G36*
X210600000Y-100600000D02*
G01*
X210400000Y-100600000D01*
X210400000Y-99400000D01*
X210600000Y-99400000D01*
X211200000Y-100000000D01*
X210600000Y-100600000D01*
G37*
G04 #@! TD.AperFunction*
G04 #@! TA.AperFunction,SMDPad,CuDef*
G36*
X210600000Y-98600000D02*
G01*
X210400000Y-98600000D01*
X210400000Y-97400000D01*
X210600000Y-97400000D01*
X211200000Y-98000000D01*
X210600000Y-98600000D01*
G37*
G04 #@! TD.AperFunction*
D19*
X158000000Y-58712500D03*
X153000000Y-58712500D03*
D20*
X149150000Y-50062500D03*
X149150000Y-62062500D03*
X161850000Y-50062500D03*
X161850000Y-62062500D03*
D19*
X176500000Y-79525000D03*
X171500000Y-79525000D03*
D20*
X167650000Y-70875000D03*
X167650000Y-82875000D03*
X180350000Y-70875000D03*
X180350000Y-82875000D03*
D19*
X102500000Y-84150000D03*
X97500000Y-84150000D03*
D20*
X93650000Y-75500000D03*
X93650000Y-87500000D03*
X106350000Y-75500000D03*
X106350000Y-87500000D03*
G04 #@! TA.AperFunction,SMDPad,CuDef*
G36*
X185971532Y-121284592D02*
G01*
X186489171Y-119352740D01*
X187986356Y-119753910D01*
X187468717Y-121685762D01*
X185971532Y-121284592D01*
G37*
G04 #@! TD.AperFunction*
G04 #@! TA.AperFunction,SMDPad,CuDef*
G36*
X181141903Y-119990497D02*
G01*
X181659542Y-118058645D01*
X183156727Y-118459815D01*
X182639088Y-120391667D01*
X181141903Y-119990497D01*
G37*
G04 #@! TD.AperFunction*
G04 #@! TA.AperFunction,SMDPad,CuDef*
G36*
X179444540Y-110580551D02*
G01*
X179962178Y-108648699D01*
X181894030Y-109166337D01*
X181376392Y-111098189D01*
X179444540Y-110580551D01*
G37*
G04 #@! TD.AperFunction*
G04 #@! TA.AperFunction,SMDPad,CuDef*
G36*
X176338712Y-122171661D02*
G01*
X176856350Y-120239809D01*
X178788202Y-120757447D01*
X178270564Y-122689299D01*
X176338712Y-122171661D01*
G37*
G04 #@! TD.AperFunction*
G04 #@! TA.AperFunction,SMDPad,CuDef*
G36*
X191711798Y-113867553D02*
G01*
X192229436Y-111935701D01*
X194161288Y-112453339D01*
X193643650Y-114385191D01*
X191711798Y-113867553D01*
G37*
G04 #@! TD.AperFunction*
G04 #@! TA.AperFunction,SMDPad,CuDef*
G36*
X188605970Y-125458663D02*
G01*
X189123608Y-123526811D01*
X191055460Y-124044449D01*
X190537822Y-125976301D01*
X188605970Y-125458663D01*
G37*
G04 #@! TD.AperFunction*
D21*
X190350000Y-58187500D03*
X193650000Y-58187500D03*
D19*
X158000000Y-95712500D03*
X153000000Y-95712500D03*
D20*
X149150000Y-87062500D03*
X149150000Y-99062500D03*
X161850000Y-87062500D03*
X161850000Y-99062500D03*
D19*
X139500000Y-42525000D03*
X134500000Y-42525000D03*
D20*
X130650000Y-33875000D03*
X130650000Y-45875000D03*
X143350000Y-33875000D03*
X143350000Y-45875000D03*
D19*
X139500000Y-98025000D03*
X134500000Y-98025000D03*
D20*
X130650000Y-89375000D03*
X130650000Y-101375000D03*
X143350000Y-89375000D03*
X143350000Y-101375000D03*
D21*
X97850000Y-60500000D03*
X101150000Y-60500000D03*
X116350000Y-60500000D03*
X119650000Y-60500000D03*
D19*
X158000000Y-40212500D03*
X153000000Y-40212500D03*
D20*
X149150000Y-31562500D03*
X149150000Y-43562500D03*
X161850000Y-31562500D03*
X161850000Y-43562500D03*
D21*
X153350000Y-53562500D03*
X156650000Y-53562500D03*
D19*
X176500000Y-42525000D03*
X171500000Y-42525000D03*
D20*
X167650000Y-33875000D03*
X167650000Y-45875000D03*
X180350000Y-33875000D03*
X180350000Y-45875000D03*
D19*
X121000000Y-102650000D03*
X116000000Y-102650000D03*
D20*
X112150000Y-94000000D03*
X112150000Y-106000000D03*
X124850000Y-94000000D03*
X124850000Y-106000000D03*
D21*
X190350000Y-39687500D03*
X193650000Y-39687500D03*
X171850000Y-74375000D03*
X175150000Y-74375000D03*
G04 #@! TA.AperFunction,SMDPad,CuDef*
G36*
X204068415Y-122248953D02*
G01*
X203029185Y-121648953D01*
X203479185Y-120869531D01*
X204518415Y-121469531D01*
X204068415Y-122248953D01*
G37*
G04 #@! TD.AperFunction*
G04 #@! TA.AperFunction,SMDPad,CuDef*
G36*
X205718415Y-119391069D02*
G01*
X204679185Y-118791069D01*
X205129185Y-118011647D01*
X206168415Y-118611647D01*
X205718415Y-119391069D01*
G37*
G04 #@! TD.AperFunction*
D19*
X102500000Y-47150000D03*
X97500000Y-47150000D03*
D20*
X93650000Y-38500000D03*
X93650000Y-50500000D03*
X106350000Y-38500000D03*
X106350000Y-50500000D03*
D21*
X153350000Y-72062500D03*
X156650000Y-72062500D03*
X153350000Y-35062500D03*
X156650000Y-35062500D03*
D19*
X121000000Y-47150000D03*
X116000000Y-47150000D03*
D20*
X112150000Y-38500000D03*
X112150000Y-50500000D03*
X124850000Y-38500000D03*
X124850000Y-50500000D03*
D21*
X97850000Y-79000000D03*
X101150000Y-79000000D03*
D19*
X195000000Y-81837500D03*
X190000000Y-81837500D03*
D20*
X186150000Y-73187500D03*
X186150000Y-85187500D03*
X198850000Y-73187500D03*
X198850000Y-85187500D03*
D19*
X176500000Y-61025000D03*
X171500000Y-61025000D03*
D20*
X167650000Y-52375000D03*
X167650000Y-64375000D03*
X180350000Y-52375000D03*
X180350000Y-64375000D03*
D19*
X158000000Y-77212500D03*
X153000000Y-77212500D03*
D20*
X149150000Y-68562500D03*
X149150000Y-80562500D03*
X161850000Y-68562500D03*
X161850000Y-80562500D03*
D19*
X195000000Y-44837500D03*
X190000000Y-44837500D03*
D20*
X186150000Y-36187500D03*
X186150000Y-48187500D03*
X198850000Y-36187500D03*
X198850000Y-48187500D03*
D19*
X167250000Y-117212500D03*
X162250000Y-117212500D03*
D20*
X158400000Y-108562500D03*
X158400000Y-120562500D03*
X171100000Y-108562500D03*
X171100000Y-120562500D03*
D21*
X97850000Y-42000000D03*
X101150000Y-42000000D03*
X171850000Y-37375000D03*
X175150000Y-37375000D03*
D19*
X139500000Y-79525000D03*
X134500000Y-79525000D03*
D20*
X130650000Y-70875000D03*
X130650000Y-82875000D03*
X143350000Y-70875000D03*
X143350000Y-82875000D03*
D21*
X97850000Y-97500000D03*
X101150000Y-97500000D03*
D19*
X195000000Y-100337500D03*
X190000000Y-100337500D03*
D20*
X186150000Y-91687500D03*
X186150000Y-103687500D03*
X198850000Y-91687500D03*
X198850000Y-103687500D03*
D19*
X176500000Y-98025000D03*
X171500000Y-98025000D03*
D20*
X167650000Y-89375000D03*
X167650000Y-101375000D03*
X180350000Y-89375000D03*
X180350000Y-101375000D03*
D19*
X102500000Y-102650000D03*
X97500000Y-102650000D03*
D20*
X93650000Y-94000000D03*
X93650000Y-106000000D03*
X106350000Y-94000000D03*
X106350000Y-106000000D03*
G04 #@! TA.AperFunction,SMDPad,CuDef*
G36*
X183230364Y-114804337D02*
G01*
X183540947Y-113645226D01*
X184410280Y-113878163D01*
X184099697Y-115037274D01*
X183230364Y-114804337D01*
G37*
G04 #@! TD.AperFunction*
G04 #@! TA.AperFunction,SMDPad,CuDef*
G36*
X186417920Y-115658437D02*
G01*
X186728503Y-114499326D01*
X187597836Y-114732263D01*
X187287253Y-115891374D01*
X186417920Y-115658437D01*
G37*
G04 #@! TD.AperFunction*
D21*
X134850000Y-37375000D03*
X138150000Y-37375000D03*
X134850000Y-55875000D03*
X138150000Y-55875000D03*
X134850000Y-74375000D03*
X138150000Y-74375000D03*
X153350000Y-90562500D03*
X156650000Y-90562500D03*
X116350000Y-97500000D03*
X119650000Y-97500000D03*
X162600000Y-112062500D03*
X165900000Y-112062500D03*
X171850000Y-55875000D03*
X175150000Y-55875000D03*
X190350000Y-76687500D03*
X193650000Y-76687500D03*
X190350000Y-95187500D03*
X193650000Y-95187500D03*
D19*
X139500000Y-61025000D03*
X134500000Y-61025000D03*
D20*
X130650000Y-52375000D03*
X130650000Y-64375000D03*
X143350000Y-52375000D03*
X143350000Y-64375000D03*
D21*
X134850000Y-92875000D03*
X138150000Y-92875000D03*
G04 #@! TA.AperFunction,SMDPad,CuDef*
G36*
X211037291Y-121278306D02*
G01*
X209305241Y-120278306D01*
X210080241Y-118935966D01*
X211812291Y-119935966D01*
X211037291Y-121278306D01*
G37*
G04 #@! TD.AperFunction*
G04 #@! TA.AperFunction,SMDPad,CuDef*
G36*
X208537292Y-125608434D02*
G01*
X206805242Y-124608434D01*
X207580242Y-123266094D01*
X209312292Y-124266094D01*
X208537292Y-125608434D01*
G37*
G04 #@! TD.AperFunction*
G04 #@! TA.AperFunction,SMDPad,CuDef*
G36*
X199008673Y-124812486D02*
G01*
X197276623Y-123812486D01*
X198276623Y-122080436D01*
X200008673Y-123080436D01*
X199008673Y-124812486D01*
G37*
G04 #@! TD.AperFunction*
G04 #@! TA.AperFunction,SMDPad,CuDef*
G36*
X209400977Y-130812486D02*
G01*
X207668927Y-129812486D01*
X208668927Y-128080436D01*
X210400977Y-129080436D01*
X209400977Y-130812486D01*
G37*
G04 #@! TD.AperFunction*
G04 #@! TA.AperFunction,SMDPad,CuDef*
G36*
X205358673Y-113813964D02*
G01*
X203626623Y-112813964D01*
X204626623Y-111081914D01*
X206358673Y-112081914D01*
X205358673Y-113813964D01*
G37*
G04 #@! TD.AperFunction*
G04 #@! TA.AperFunction,SMDPad,CuDef*
G36*
X215750977Y-119813964D02*
G01*
X214018927Y-118813964D01*
X215018927Y-117081914D01*
X216750977Y-118081914D01*
X215750977Y-119813964D01*
G37*
G04 #@! TD.AperFunction*
X116350000Y-42000000D03*
X119650000Y-42000000D03*
X171850000Y-92875000D03*
X175150000Y-92875000D03*
D19*
X102500000Y-65650000D03*
X97500000Y-65650000D03*
D20*
X93650000Y-57000000D03*
X93650000Y-69000000D03*
X106350000Y-57000000D03*
X106350000Y-69000000D03*
D19*
X195000000Y-63337500D03*
X190000000Y-63337500D03*
D20*
X186150000Y-54687500D03*
X186150000Y-66687500D03*
X198850000Y-54687500D03*
X198850000Y-66687500D03*
D19*
X121000000Y-65650000D03*
X116000000Y-65650000D03*
D20*
X112150000Y-57000000D03*
X112150000Y-69000000D03*
X124850000Y-57000000D03*
X124850000Y-69000000D03*
D19*
X121000000Y-84150000D03*
X116000000Y-84150000D03*
D20*
X112150000Y-75500000D03*
X112150000Y-87500000D03*
X124850000Y-75500000D03*
X124850000Y-87500000D03*
D21*
X116350000Y-79000000D03*
X119650000Y-79000000D03*
D22*
X97500000Y-48706500D03*
X96273900Y-85451700D03*
X98877500Y-65335100D03*
X98896300Y-103323700D03*
X117304600Y-83739700D03*
X117659300Y-102368700D03*
X117337100Y-66273100D03*
X117337100Y-48256500D03*
X137065800Y-97733800D03*
X134448000Y-63416400D03*
X136131500Y-80079800D03*
X134500000Y-41010700D03*
X154076700Y-60332100D03*
X202394500Y-84101300D03*
X157925300Y-97228800D03*
X151719700Y-78514200D03*
X162250000Y-118804100D03*
X153000000Y-38393300D03*
X170002200Y-80826700D03*
X197240300Y-65010300D03*
X172614800Y-62412900D03*
X175714700Y-99658500D03*
X182932400Y-120856900D03*
X171500000Y-41010700D03*
X191398300Y-101150000D03*
X190000000Y-61633900D03*
X191277700Y-82122300D03*
X191277700Y-45639100D03*
X208854900Y-121341700D03*
X154350000Y-91679200D03*
X134603700Y-91766300D03*
X96898000Y-97479300D03*
X191460800Y-94073300D03*
X172726600Y-91764700D03*
X118315200Y-97479300D03*
X98854900Y-80103900D03*
X116241800Y-80108200D03*
X192338200Y-76533300D03*
X172726600Y-73264400D03*
X135098300Y-73271900D03*
X152467000Y-71179500D03*
X172916100Y-54617900D03*
X154530200Y-54696200D03*
X98850000Y-59377000D03*
X135098300Y-56977300D03*
X191725900Y-59319000D03*
X116241800Y-59391800D03*
X196759500Y-78546700D03*
X96888200Y-41957500D03*
X172749800Y-36270200D03*
X118309200Y-41957500D03*
X190210700Y-38563000D03*
X196530500Y-70952900D03*
X155310300Y-35389200D03*
X134603700Y-36255400D03*
X164575900Y-112090300D03*
X205525400Y-120856900D03*
X184050300Y-115665600D03*
X216668100Y-101000000D03*
X209666000Y-95435500D03*
X211270100Y-94150800D03*
X209074700Y-68375000D03*
X205049100Y-94557100D03*
X213319900Y-93549100D03*
X208087000Y-94752900D03*
X210802400Y-75385000D03*
X216708000Y-98803400D03*
D23*
X182712500Y-65676700D02*
X185025000Y-67989200D01*
X121703300Y-59598300D02*
X124517900Y-62412900D01*
D24*
X216629000Y-69580000D02*
X215904000Y-68855000D01*
D23*
X165168000Y-64319700D02*
X166525000Y-65676700D01*
D24*
X215304000Y-68855000D02*
X214799000Y-69360000D01*
D23*
X101108400Y-65335100D02*
X98877500Y-65335100D01*
X101423300Y-102650000D02*
X100749600Y-103323700D01*
X148236200Y-59272600D02*
X149209500Y-60245900D01*
X101423300Y-65650000D02*
X101108400Y-65335100D01*
X102500000Y-47150000D02*
X101423300Y-47150000D01*
X209024000Y-69360000D02*
X208804000Y-69580000D01*
X151447900Y-60245900D02*
X155521600Y-64319600D01*
X149209500Y-60245900D02*
X151447900Y-60245900D01*
X138375900Y-59272600D02*
X148236200Y-59272600D01*
X101961700Y-65650000D02*
X102500000Y-65650000D01*
X135335600Y-62412900D02*
X138075700Y-59672800D01*
X119065400Y-59598300D02*
X121703300Y-59598300D01*
D24*
X214799000Y-69360000D02*
X209208900Y-69360000D01*
D23*
X99866800Y-48706500D02*
X97500000Y-48706500D01*
D24*
X215904000Y-68855000D02*
X215304000Y-68855000D01*
D23*
X102500000Y-65650000D02*
X103576700Y-65650000D01*
X104653400Y-64573300D02*
X114090400Y-64573300D01*
X165168000Y-64319600D02*
X165168000Y-64319700D01*
X185025000Y-67989200D02*
X199713100Y-67989200D01*
X166525000Y-65676700D02*
X182712500Y-65676700D01*
X155521600Y-64319600D02*
X165168000Y-64319600D01*
X124517900Y-62412900D02*
X135335600Y-62412900D01*
X100121600Y-85451700D02*
X96273900Y-85451700D01*
X102500000Y-84150000D02*
X101423300Y-84150000D01*
X114090400Y-64573300D02*
X119065400Y-59598300D01*
X101423300Y-47150000D02*
X99866800Y-48706500D01*
X101423300Y-84150000D02*
X100121600Y-85451700D01*
D24*
X209208900Y-69360000D02*
X209024000Y-69360000D01*
D23*
X102500000Y-102650000D02*
X101423300Y-102650000D01*
X103576700Y-65650000D02*
X104653400Y-64573300D01*
X101961700Y-65650000D02*
X101423300Y-65650000D01*
X138075700Y-59672800D02*
X138075700Y-59572800D01*
X208234700Y-68385800D02*
X209208900Y-69360000D01*
X199713100Y-67989200D02*
X200109700Y-68385800D01*
D24*
X216784000Y-69580000D02*
X216629000Y-69580000D01*
D23*
X100749600Y-103323700D02*
X98896300Y-103323700D01*
X200109700Y-68385800D02*
X208234700Y-68385800D01*
D24*
X216979000Y-69580000D02*
X216784000Y-69580000D01*
D23*
X138075700Y-59572800D02*
X138375900Y-59272600D01*
X97500000Y-102650000D02*
X98576700Y-102650000D01*
X100398300Y-100828400D02*
X98576700Y-102650000D01*
X101150000Y-97500000D02*
X100398300Y-97500000D01*
X100398300Y-97500000D02*
X100398300Y-100828400D01*
X100398300Y-79000000D02*
X100398300Y-82328400D01*
X97500000Y-84150000D02*
X98576700Y-84150000D01*
X101150000Y-79000000D02*
X100398300Y-79000000D01*
X100398300Y-82328400D02*
X98576700Y-84150000D01*
X100398300Y-62751700D02*
X97500000Y-65650000D01*
X101150000Y-60500000D02*
X100398300Y-60500000D01*
X100398300Y-60500000D02*
X100398300Y-62751700D01*
X97500000Y-47150000D02*
X98576700Y-47150000D01*
X101150000Y-42000000D02*
X100398300Y-42000000D01*
X100398300Y-45328400D02*
X98576700Y-47150000D01*
X100398300Y-42000000D02*
X100398300Y-45328400D01*
X119513000Y-83739700D02*
X117304600Y-83739700D01*
X185826400Y-69358600D02*
X201082500Y-69358600D01*
X201082500Y-69358600D02*
X202650500Y-70926600D01*
D24*
X216979000Y-72120000D02*
X216784000Y-72120000D01*
D23*
X202650500Y-70926600D02*
X208050600Y-70926600D01*
X121000000Y-47150000D02*
X118443600Y-47150000D01*
D24*
X214799000Y-71900000D02*
X209024000Y-71900000D01*
D23*
X146001200Y-59721800D02*
X146927000Y-60647600D01*
D24*
X216629000Y-72120000D02*
X215904000Y-71395000D01*
D23*
X121000000Y-65650000D02*
X122076700Y-65650000D01*
X118443600Y-47150000D02*
X117337100Y-48256500D01*
X119923300Y-84150000D02*
X119513000Y-83739700D01*
X208050600Y-70926600D02*
X209024000Y-71900000D01*
X117960200Y-65650000D02*
X121000000Y-65650000D01*
X182546200Y-66078400D02*
X185826400Y-69358600D01*
X119642000Y-102368700D02*
X119923300Y-102650000D01*
X117659300Y-102368700D02*
X119642000Y-102368700D01*
X135501900Y-62814600D02*
X138594700Y-59721800D01*
D24*
X215904000Y-71395000D02*
X215304000Y-71395000D01*
D23*
X124912100Y-62814600D02*
X135501900Y-62814600D01*
X117337100Y-66273100D02*
X117960200Y-65650000D01*
X138594700Y-59721800D02*
X146001200Y-59721800D01*
X146927000Y-60647600D02*
X151199000Y-60647600D01*
D24*
X216784000Y-72120000D02*
X216629000Y-72120000D01*
D23*
X209024000Y-71900000D02*
X208804000Y-72120000D01*
X121000000Y-84150000D02*
X119923300Y-84150000D01*
X122076700Y-65650000D02*
X124912100Y-62814600D01*
X151199000Y-60647600D02*
X156629800Y-66078400D01*
D24*
X215304000Y-71395000D02*
X214799000Y-71900000D01*
D23*
X121000000Y-102650000D02*
X119923300Y-102650000D01*
X156629800Y-66078400D02*
X182546200Y-66078400D01*
X119650000Y-97500000D02*
X119650000Y-99527200D01*
X117057600Y-102119600D02*
X117057600Y-102617800D01*
X116000000Y-102650000D02*
X117076700Y-102650000D01*
X117083200Y-102643500D02*
X117076700Y-102650000D01*
X117083200Y-102643400D02*
X117083200Y-102643500D01*
X119650000Y-99527200D02*
X117057600Y-102119600D01*
X117057600Y-102617800D02*
X117083200Y-102643400D01*
X118898300Y-81251700D02*
X116000000Y-84150000D01*
X118898300Y-79000000D02*
X118898300Y-81251700D01*
X119650000Y-79000000D02*
X118898300Y-79000000D01*
X119650000Y-60500000D02*
X119650000Y-63076700D01*
X119650000Y-63076700D02*
X117076700Y-65650000D01*
X116000000Y-65650000D02*
X117076700Y-65650000D01*
X119650000Y-42000000D02*
X119650000Y-44576700D01*
X119650000Y-44576700D02*
X117076700Y-47150000D01*
X116000000Y-47150000D02*
X117076700Y-47150000D01*
X181038200Y-67162900D02*
X183851800Y-69976500D01*
X140038400Y-61025000D02*
X139500000Y-61025000D01*
X136909000Y-41010700D02*
X134500000Y-41010700D01*
X140038400Y-61025000D02*
X140576700Y-61025000D01*
D24*
X216784000Y-74660000D02*
X216629000Y-74660000D01*
D23*
X140576700Y-61025000D02*
X142306700Y-62755000D01*
X150352200Y-67162900D02*
X181038200Y-67162900D01*
X138423300Y-98025000D02*
X138132100Y-97733800D01*
D24*
X215304000Y-73935000D02*
X214799000Y-74440000D01*
D23*
X139500000Y-98025000D02*
X138423300Y-98025000D01*
X134448000Y-63416400D02*
X136031900Y-63416400D01*
X138132100Y-97733800D02*
X137065800Y-97733800D01*
X183851800Y-69976500D02*
X199881200Y-69976500D01*
D24*
X214799000Y-74440000D02*
X209497700Y-74440000D01*
D23*
X199881200Y-69976500D02*
X203294700Y-73390000D01*
X139500000Y-61025000D02*
X138423300Y-61025000D01*
D24*
X215904000Y-73935000D02*
X215304000Y-73935000D01*
D23*
X139500000Y-79525000D02*
X136686300Y-79525000D01*
X208447700Y-73390000D02*
X209497700Y-74440000D01*
X136686300Y-79525000D02*
X136131500Y-80079800D01*
X145944300Y-62755000D02*
X150352200Y-67162900D01*
D24*
X216629000Y-74660000D02*
X215904000Y-73935000D01*
D23*
X136031900Y-63416400D02*
X138423300Y-61025000D01*
X209024000Y-74440000D02*
X208804000Y-74660000D01*
X138423300Y-42525000D02*
X136909000Y-41010700D01*
D24*
X209497700Y-74440000D02*
X209024000Y-74440000D01*
D23*
X203294700Y-73390000D02*
X208447700Y-73390000D01*
X139500000Y-42525000D02*
X138423300Y-42525000D01*
D24*
X216979000Y-74660000D02*
X216784000Y-74660000D01*
D23*
X142306700Y-62755000D02*
X145944300Y-62755000D01*
X134500000Y-98025000D02*
X135576700Y-98025000D01*
X138150000Y-92875000D02*
X138150000Y-95451700D01*
X138150000Y-95451700D02*
X135576700Y-98025000D01*
X134500000Y-79525000D02*
X135576700Y-79525000D01*
X138150000Y-74375000D02*
X138150000Y-76951700D01*
X138150000Y-76951700D02*
X135576700Y-79525000D01*
X138150000Y-55875000D02*
X137398300Y-55875000D01*
X137398300Y-59203400D02*
X135576700Y-61025000D01*
X134500000Y-61025000D02*
X135576700Y-61025000D01*
X137398300Y-55875000D02*
X137398300Y-59203400D01*
X133849300Y-41874300D02*
X134500000Y-42525000D01*
X137249100Y-37375000D02*
X133849300Y-40774800D01*
X138150000Y-37375000D02*
X137249100Y-37375000D01*
X133849300Y-40774800D02*
X133849300Y-41874300D01*
X158000000Y-58712500D02*
X156923300Y-58712500D01*
D24*
X216629000Y-77200000D02*
X215904000Y-76475000D01*
D23*
X157461700Y-77212500D02*
X158000000Y-77212500D01*
X156923300Y-40212500D02*
X155104100Y-38393300D01*
X168540100Y-81266600D02*
X166487700Y-81266600D01*
X158000000Y-95712500D02*
X158000000Y-97154100D01*
X164163600Y-78942500D02*
X160806700Y-78942500D01*
D24*
X216979000Y-77200000D02*
X216784000Y-77200000D01*
D23*
X156923300Y-77212500D02*
X155621600Y-78514200D01*
X155104100Y-38393300D02*
X153000000Y-38393300D01*
X199964700Y-86531100D02*
X173804600Y-86531100D01*
X164581700Y-118804100D02*
X162250000Y-118804100D01*
X202394500Y-84101300D02*
X199964700Y-86531100D01*
X158000000Y-77212500D02*
X159076700Y-77212500D01*
D24*
X215304000Y-76475000D02*
X214799000Y-76980000D01*
D23*
X167250000Y-117212500D02*
X166173300Y-117212500D01*
D24*
X214799000Y-76980000D02*
X209024000Y-76980000D01*
D23*
X155621600Y-78514200D02*
X151719700Y-78514200D01*
X155303700Y-60332100D02*
X154076700Y-60332100D01*
X158000000Y-97154100D02*
X157925300Y-97228800D01*
X158000000Y-40212500D02*
X156923300Y-40212500D01*
D24*
X216784000Y-77200000D02*
X216629000Y-77200000D01*
D23*
X156923300Y-58712500D02*
X155303700Y-60332100D01*
X166487700Y-81266600D02*
X164163600Y-78942500D01*
X166173300Y-117212500D02*
X164581700Y-118804100D01*
X157461700Y-77212500D02*
X156923300Y-77212500D01*
X160806700Y-78942500D02*
X159076700Y-77212500D01*
X209024000Y-76980000D02*
X208804000Y-77200000D01*
X173804600Y-86531100D02*
X168540100Y-81266600D01*
D24*
X215904000Y-76475000D02*
X215304000Y-76475000D01*
D23*
X153000000Y-95712500D02*
X154076700Y-95712500D01*
X155898300Y-90562500D02*
X155898300Y-93890900D01*
X155898300Y-93890900D02*
X154076700Y-95712500D01*
X156650000Y-90562500D02*
X155898300Y-90562500D01*
X153000000Y-77212500D02*
X154076700Y-77212500D01*
X155898300Y-72062500D02*
X155898300Y-75390900D01*
X155898300Y-75390900D02*
X154076700Y-77212500D01*
X156650000Y-72062500D02*
X155898300Y-72062500D01*
X155898300Y-56890900D02*
X154076700Y-58712500D01*
X153000000Y-58712500D02*
X154076700Y-58712500D01*
X155898300Y-53562500D02*
X155898300Y-56890900D01*
X156650000Y-53562500D02*
X155898300Y-53562500D01*
X154103100Y-37609400D02*
X152882700Y-37609400D01*
X152385500Y-39598000D02*
X153000000Y-40212500D01*
X152882700Y-37609400D02*
X152385500Y-38106600D01*
X152385500Y-38106600D02*
X152385500Y-39598000D01*
X156650000Y-35062500D02*
X154103100Y-37609400D01*
X185602000Y-120150400D02*
X184895500Y-120856900D01*
X175423300Y-61025000D02*
X174035400Y-62412900D01*
X176500000Y-79525000D02*
X175423300Y-79525000D01*
X174035400Y-62412900D02*
X172614800Y-62412900D01*
X175423300Y-42525000D02*
X173909000Y-41010700D01*
X176500000Y-61025000D02*
X177576700Y-61025000D01*
D24*
X216784000Y-79740000D02*
X216629000Y-79740000D01*
X215904000Y-79015000D02*
X215304000Y-79015000D01*
D23*
X184918900Y-65010300D02*
X197240300Y-65010300D01*
D24*
X216629000Y-79740000D02*
X215904000Y-79015000D01*
D23*
X182663600Y-62755000D02*
X184918900Y-65010300D01*
X176500000Y-42525000D02*
X175423300Y-42525000D01*
X176500000Y-98025000D02*
X176500000Y-99326700D01*
D24*
X215304000Y-79015000D02*
X214799000Y-79520000D01*
D23*
X176046500Y-99326700D02*
X175714700Y-99658500D01*
X179306700Y-62755000D02*
X182663600Y-62755000D01*
X173909000Y-41010700D02*
X171500000Y-41010700D01*
X184895500Y-120856900D02*
X182932400Y-120856900D01*
D24*
X216979000Y-79740000D02*
X216784000Y-79740000D01*
X214799000Y-79520000D02*
X209024000Y-79520000D01*
D23*
X209024000Y-79520000D02*
X208804000Y-79740000D01*
X186978900Y-120519300D02*
X185602000Y-120150400D01*
X177576700Y-61025000D02*
X179306700Y-62755000D01*
X176500000Y-99326700D02*
X176046500Y-99326700D01*
X175423300Y-79525000D02*
X174121600Y-80826700D01*
X174121600Y-80826700D02*
X170002200Y-80826700D01*
X176500000Y-61025000D02*
X175423300Y-61025000D01*
X175150000Y-95451700D02*
X172576700Y-98025000D01*
X171500000Y-98025000D02*
X172576700Y-98025000D01*
X175150000Y-92875000D02*
X175150000Y-95451700D01*
X175150000Y-74375000D02*
X174398300Y-74375000D01*
X171500000Y-79525000D02*
X172576700Y-79525000D01*
X174398300Y-74375000D02*
X174398300Y-77703400D01*
X174398300Y-77703400D02*
X172576700Y-79525000D01*
X174398300Y-55875000D02*
X174398300Y-59203400D01*
X174398300Y-59203400D02*
X172576700Y-61025000D01*
X171500000Y-61025000D02*
X172576700Y-61025000D01*
X175150000Y-55875000D02*
X174398300Y-55875000D01*
X170876400Y-40751000D02*
X170876400Y-41901400D01*
X170876400Y-41901400D02*
X171500000Y-42525000D01*
X174252400Y-37375000D02*
X170876400Y-40751000D01*
X175150000Y-37375000D02*
X174252400Y-37375000D01*
D24*
X214799000Y-82060000D02*
X209024000Y-82060000D01*
D23*
X193638500Y-82122300D02*
X191277700Y-82122300D01*
D24*
X216979000Y-82280000D02*
X216784000Y-82280000D01*
D23*
X195000000Y-63337500D02*
X193923300Y-63337500D01*
D24*
X215904000Y-81555000D02*
X215304000Y-81555000D01*
D23*
X207825100Y-81114700D02*
X208804000Y-82093600D01*
X208804000Y-82093600D02*
X208804000Y-82280000D01*
X195000000Y-44837500D02*
X192079300Y-44837500D01*
X192210800Y-100337500D02*
X191398300Y-101150000D01*
X195467600Y-80831600D02*
X201456700Y-80831600D01*
X201739800Y-81114700D02*
X207825100Y-81114700D01*
D24*
X216784000Y-82280000D02*
X216629000Y-82280000D01*
D23*
X193923300Y-81837500D02*
X193638500Y-82122300D01*
D24*
X215304000Y-81555000D02*
X214799000Y-82060000D01*
D23*
X195000000Y-100337500D02*
X192210800Y-100337500D01*
X192079300Y-44837500D02*
X191277700Y-45639100D01*
X201456700Y-80831600D02*
X201739800Y-81114700D01*
X210558800Y-120107100D02*
X209846000Y-121341800D01*
X192219700Y-61633900D02*
X190000000Y-61633900D01*
X209846000Y-121341800D02*
X209845900Y-121341700D01*
X195000000Y-81837500D02*
X194461700Y-81837500D01*
X194461700Y-81837500D02*
X195467600Y-80831600D01*
D24*
X216629000Y-82280000D02*
X215904000Y-81555000D01*
D23*
X209024000Y-82060000D02*
X208804000Y-82280000D01*
X209845900Y-121341700D02*
X208854900Y-121341700D01*
X193923300Y-63337500D02*
X192219700Y-61633900D01*
X194461700Y-81837500D02*
X193923300Y-81837500D01*
X190000000Y-100337500D02*
X191076700Y-100337500D01*
X192898300Y-98515900D02*
X191076700Y-100337500D01*
X192898300Y-95187500D02*
X192898300Y-98515900D01*
X193650000Y-95187500D02*
X192898300Y-95187500D01*
X193650000Y-76687500D02*
X190000000Y-80337500D01*
X190000000Y-80337500D02*
X190000000Y-81837500D01*
X193650000Y-59089200D02*
X191954700Y-60784500D01*
X189365000Y-61384600D02*
X189365000Y-62702500D01*
X189365000Y-62702500D02*
X190000000Y-63337500D01*
X193650000Y-58187500D02*
X193650000Y-59089200D01*
X191954700Y-60784500D02*
X189965100Y-60784500D01*
X189965100Y-60784500D02*
X189365000Y-61384600D01*
X193650000Y-39687500D02*
X193650000Y-42264200D01*
X193650000Y-42264200D02*
X191076700Y-44837500D01*
X190000000Y-44837500D02*
X191076700Y-44837500D01*
X162250000Y-115712500D02*
X162250000Y-117212500D01*
X165900000Y-112062500D02*
X162250000Y-115712500D01*
X182149300Y-119225200D02*
X183526200Y-119594100D01*
X186722400Y-116260900D02*
X183526200Y-119457100D01*
X187007900Y-115195400D02*
X186722400Y-116260900D01*
X183526200Y-119457100D02*
X183526200Y-119594100D01*
X205423800Y-118701400D02*
X206379200Y-119253000D01*
X206379100Y-119253100D02*
X206379100Y-119656700D01*
X206379200Y-119253000D02*
X206379100Y-119253100D01*
X208058800Y-122489900D02*
X208771600Y-123202700D01*
X208058800Y-124437300D02*
X208771600Y-123202700D01*
X208058800Y-121336400D02*
X208058800Y-122489900D01*
X206379100Y-119656700D02*
X208058800Y-121336400D01*
X215374000Y-85050000D02*
X215604000Y-84820000D01*
X143406500Y-91474800D02*
X154101700Y-91474800D01*
X134810700Y-91973300D02*
X134850000Y-91973300D01*
X100057900Y-96043800D02*
X98601700Y-97500000D01*
X191101700Y-94432400D02*
X191460800Y-94073300D01*
X173038300Y-91453000D02*
X172726600Y-91764700D01*
X120069100Y-95558400D02*
X118315200Y-97312300D01*
X154101700Y-91474800D02*
X154101700Y-90562500D01*
D24*
X207429000Y-84820000D02*
X207624000Y-84820000D01*
D23*
X117122400Y-97479300D02*
X117101700Y-97500000D01*
X201115100Y-86090000D02*
X208259000Y-86090000D01*
X134850000Y-92424100D02*
X134850000Y-91973300D01*
D24*
X208504000Y-85545000D02*
X208804000Y-85545000D01*
D23*
X154101700Y-90562500D02*
X155557900Y-89106300D01*
X116350000Y-97500000D02*
X115598300Y-97500000D01*
X116725900Y-97500000D02*
X117101700Y-97500000D01*
X170798600Y-90921900D02*
X171850000Y-91973300D01*
X180384700Y-91453000D02*
X173038300Y-91453000D01*
X171850000Y-91973300D02*
X172518000Y-91973300D01*
X116725900Y-97500000D02*
X116350000Y-97500000D01*
D24*
X207779000Y-84820000D02*
X208504000Y-85545000D01*
D23*
X171850000Y-92875000D02*
X171850000Y-91973300D01*
X96898000Y-97479300D02*
X97077600Y-97479300D01*
X191460800Y-94073300D02*
X190708300Y-93320800D01*
X165296600Y-90921900D02*
X170798600Y-90921900D01*
X182252500Y-93320800D02*
X180384700Y-91453000D01*
X154101700Y-91474800D02*
X154145600Y-91474800D01*
X191101700Y-95187500D02*
X192017600Y-95187500D01*
X134850000Y-92875000D02*
X134850000Y-92424100D01*
X134962900Y-91407100D02*
X143338800Y-91407100D01*
X208259000Y-86090000D02*
X208804000Y-85545000D01*
X192017600Y-95187500D02*
X201115100Y-86090000D01*
X190708300Y-93320800D02*
X182252500Y-93320800D01*
D24*
X209104000Y-85545000D02*
X209599000Y-85050000D01*
D23*
X190350000Y-95187500D02*
X191101700Y-95187500D01*
X134603700Y-91766300D02*
X134810700Y-91973300D01*
D24*
X207624000Y-84820000D02*
X207779000Y-84820000D01*
D23*
X191101700Y-95187500D02*
X191101700Y-94432400D01*
X97077600Y-97479300D02*
X97098300Y-97500000D01*
X154145600Y-91474800D02*
X154350000Y-91679200D01*
X118315200Y-97312300D02*
X118315200Y-97479300D01*
X131715700Y-95558400D02*
X120069100Y-95558400D01*
X97850000Y-97500000D02*
X97098300Y-97500000D01*
X134850000Y-92424100D02*
X131715700Y-95558400D01*
X114142100Y-96043800D02*
X100057900Y-96043800D01*
X115598300Y-97500000D02*
X114142100Y-96043800D01*
X163481000Y-89106300D02*
X165296600Y-90921900D01*
X172518000Y-91973300D02*
X172726600Y-91764700D01*
D24*
X209599000Y-85050000D02*
X215374000Y-85050000D01*
X208804000Y-85545000D02*
X209104000Y-85545000D01*
D23*
X143338800Y-91407100D02*
X143406500Y-91474800D01*
X97850000Y-97500000D02*
X98601700Y-97500000D01*
X155557900Y-89106300D02*
X163481000Y-89106300D01*
X134603700Y-91766300D02*
X134962900Y-91407100D01*
X118315200Y-97479300D02*
X117122400Y-97479300D01*
X153350000Y-90562500D02*
X154101700Y-90562500D01*
X134896900Y-73473300D02*
X135098300Y-73271900D01*
X116350000Y-79000000D02*
X116350000Y-80000000D01*
X190725900Y-76687500D02*
X191101700Y-76687500D01*
X191255900Y-76533300D02*
X191101700Y-76687500D01*
X151939800Y-72974800D02*
X143406500Y-72974800D01*
X119158000Y-76943700D02*
X131529600Y-76943700D01*
X188682500Y-77603300D02*
X181191400Y-77603300D01*
X172517700Y-73473300D02*
X172726600Y-73264400D01*
X152467000Y-71179500D02*
X152598300Y-71310800D01*
X152598300Y-71310800D02*
X152598300Y-72062500D01*
D24*
X207779000Y-82280000D02*
X208504000Y-83005000D01*
D23*
X116350000Y-80000000D02*
X116241800Y-80108200D01*
X104474600Y-80108200D02*
X102456300Y-78089900D01*
X165296600Y-72421900D02*
X170798600Y-72421900D01*
X97850000Y-79000000D02*
X98601700Y-79000000D01*
X171850000Y-74375000D02*
X171850000Y-73473300D01*
X98652700Y-79901700D02*
X98854900Y-80103900D01*
X97850000Y-79000000D02*
X97850000Y-79901700D01*
X134850000Y-73473300D02*
X134896900Y-73473300D01*
D24*
X208504000Y-83005000D02*
X208504200Y-83005000D01*
D23*
X208027300Y-83481900D02*
X189407800Y-83481900D01*
X131529600Y-76943700D02*
X134098300Y-74375000D01*
X170798600Y-72421900D02*
X171850000Y-73473300D01*
D24*
X207624000Y-82280000D02*
X207779000Y-82280000D01*
D23*
X189598300Y-76687500D02*
X188682500Y-77603300D01*
X171850000Y-73473300D02*
X172517700Y-73473300D01*
X143338800Y-72907100D02*
X135463100Y-72907100D01*
X190350000Y-76687500D02*
X189598300Y-76687500D01*
X192338200Y-76533300D02*
X191255900Y-76533300D01*
X181191400Y-77603300D02*
X176852500Y-73264400D01*
X99511800Y-78089900D02*
X98601700Y-79000000D01*
X152467000Y-71179500D02*
X152996300Y-70650200D01*
X116241800Y-80108200D02*
X104474600Y-80108200D01*
D24*
X209104000Y-83005000D02*
X209599000Y-82510000D01*
D23*
X135463100Y-72907100D02*
X135098300Y-73271900D01*
D24*
X207429000Y-82280000D02*
X207624000Y-82280000D01*
D23*
X134850000Y-74375000D02*
X134098300Y-74375000D01*
X117101700Y-79000000D02*
X119158000Y-76943700D01*
X97850000Y-79901700D02*
X98652700Y-79901700D01*
X143406500Y-72974800D02*
X143338800Y-72907100D01*
X152852100Y-72062500D02*
X151939800Y-72974800D01*
X190725900Y-76687500D02*
X190350000Y-76687500D01*
D24*
X208504200Y-83005000D02*
X209104000Y-83005000D01*
D23*
X152996300Y-70650200D02*
X163524900Y-70650200D01*
X116350000Y-79000000D02*
X117101700Y-79000000D01*
X134850000Y-74375000D02*
X134850000Y-73473300D01*
X153350000Y-72062500D02*
X152974200Y-72062500D01*
X163524900Y-70650200D02*
X165296600Y-72421900D01*
X102456300Y-78089900D02*
X99511800Y-78089900D01*
X152852100Y-72062500D02*
X152598300Y-72062500D01*
X189407800Y-83481900D02*
X188682500Y-82756600D01*
X215374000Y-82510000D02*
X215604000Y-82280000D01*
X152974200Y-72062500D02*
X152852100Y-72062500D01*
D24*
X209599000Y-82510000D02*
X215374000Y-82510000D01*
D23*
X188682500Y-82756600D02*
X188682500Y-77603300D01*
X208504200Y-83005000D02*
X208027300Y-83481900D01*
X176852500Y-73264400D02*
X172726600Y-73264400D01*
X98628700Y-59598300D02*
X98850000Y-59377000D01*
X99209400Y-59017600D02*
X115867600Y-59017600D01*
X116350000Y-60500000D02*
X116350000Y-59500000D01*
X171850000Y-55875000D02*
X172601700Y-55875000D01*
X163481000Y-52106300D02*
X165296600Y-53921900D01*
D24*
X209599000Y-79970000D02*
X215374000Y-79970000D01*
D23*
X154430400Y-52106300D02*
X163481000Y-52106300D01*
X153350000Y-53562500D02*
X152974200Y-53562500D01*
D24*
X208504000Y-80465000D02*
X209104000Y-80465000D01*
D23*
X152598300Y-53562500D02*
X153732000Y-54696200D01*
X172916100Y-54617900D02*
X172916100Y-55560600D01*
X134897700Y-56776700D02*
X135098300Y-56977300D01*
X191101700Y-58187500D02*
X191101700Y-58694800D01*
X151668100Y-54492700D02*
X152598300Y-53562500D01*
X97850000Y-60500000D02*
X97850000Y-59598300D01*
D24*
X209104000Y-80465000D02*
X209599000Y-79970000D01*
D23*
X215374000Y-79970000D02*
X215604000Y-79740000D01*
X172220100Y-53921900D02*
X172916100Y-54617900D01*
X191101700Y-58694800D02*
X191725900Y-59319000D01*
X190350000Y-58187500D02*
X190350000Y-56455600D01*
X137037000Y-54439700D02*
X149177700Y-54439700D01*
X190725900Y-58187500D02*
X191101700Y-58187500D01*
X152974200Y-53562500D02*
X154430400Y-52106300D01*
X165296600Y-53921900D02*
X172220100Y-53921900D01*
X206861000Y-78546700D02*
X196759500Y-78546700D01*
D24*
X207429000Y-79740000D02*
X207526500Y-79740000D01*
D23*
X117075200Y-58558400D02*
X116241800Y-59391800D01*
X183005900Y-53933400D02*
X173600600Y-53933400D01*
D24*
X207526500Y-79740000D02*
X207624000Y-79740000D01*
D23*
X149177700Y-54439700D02*
X149230700Y-54492700D01*
X98850000Y-59377000D02*
X99209400Y-59017600D01*
X207526500Y-79740000D02*
X207526500Y-79212200D01*
X173600600Y-53933400D02*
X172916100Y-54617900D01*
X152974200Y-53562500D02*
X152598300Y-53562500D01*
X190725900Y-58187500D02*
X190350000Y-58187500D01*
X183553500Y-53385800D02*
X183005900Y-53933400D01*
D24*
X207779000Y-79740000D02*
X208504000Y-80465000D01*
D23*
X153732000Y-54696200D02*
X154530200Y-54696200D01*
X149230700Y-54492700D02*
X151668100Y-54492700D01*
X115867600Y-59017600D02*
X116241800Y-59391800D01*
X134850000Y-55875000D02*
X135601700Y-55875000D01*
D24*
X207624000Y-79740000D02*
X207779000Y-79740000D01*
D23*
X187280200Y-53385800D02*
X183553500Y-53385800D01*
X190350000Y-56455600D02*
X187280200Y-53385800D01*
X134850000Y-56776700D02*
X134897700Y-56776700D01*
X97850000Y-59598300D02*
X98628700Y-59598300D01*
X134850000Y-56325800D02*
X134850000Y-55875000D01*
X172916100Y-55560600D02*
X172601700Y-55875000D01*
X116350000Y-59500000D02*
X116241800Y-59391800D01*
X135601700Y-55875000D02*
X137037000Y-54439700D01*
X207526500Y-79212200D02*
X206861000Y-78546700D01*
X133068300Y-58558400D02*
X117075200Y-58558400D01*
X134850000Y-56776700D02*
X133068300Y-58558400D01*
X134850000Y-56325800D02*
X134850000Y-56776700D01*
X189522500Y-37874800D02*
X183059400Y-37874800D01*
X131414900Y-40058400D02*
X120044700Y-40058400D01*
X154101700Y-35715900D02*
X154101700Y-35389200D01*
X134603700Y-36255400D02*
X134952000Y-35907100D01*
X153350000Y-35062500D02*
X154101700Y-35062500D01*
X163481000Y-33606300D02*
X165296600Y-35421900D01*
X170798600Y-35421900D02*
X171850000Y-36473300D01*
X172546700Y-36473300D02*
X172749800Y-36270200D01*
X171850000Y-36473300D02*
X172546700Y-36473300D01*
X118309200Y-41957500D02*
X117144200Y-41957500D01*
X96888200Y-41957500D02*
X97055800Y-41957500D01*
X173068200Y-35951800D02*
X172749800Y-36270200D01*
X116725900Y-42000000D02*
X115289200Y-40563300D01*
X97055800Y-41957500D02*
X97098300Y-42000000D01*
X134821600Y-36473300D02*
X134850000Y-36473300D01*
X120044700Y-40058400D02*
X118309200Y-41793900D01*
X155557900Y-33606300D02*
X163481000Y-33606300D01*
D24*
X207779000Y-77200000D02*
X208504000Y-77925000D01*
D23*
X154101700Y-35389200D02*
X154101700Y-35062500D01*
D24*
X208504000Y-77925000D02*
X209104000Y-77925000D01*
X209104000Y-77925000D02*
X209599000Y-77430000D01*
D23*
X116350000Y-42000000D02*
X116725900Y-42000000D01*
X207526500Y-77200000D02*
X207526500Y-76612300D01*
X181136400Y-35951800D02*
X173068200Y-35951800D01*
X206762500Y-75848300D02*
X204031500Y-75848300D01*
X118309200Y-41793900D02*
X118309200Y-41957500D01*
X165296600Y-35421900D02*
X170798600Y-35421900D01*
X154101700Y-35389200D02*
X155310300Y-35389200D01*
X199136100Y-70952900D02*
X196530500Y-70952900D01*
D24*
X209599000Y-77430000D02*
X215374000Y-77430000D01*
D23*
X134850000Y-37375000D02*
X134098300Y-37375000D01*
X171850000Y-37375000D02*
X171850000Y-36473300D01*
D24*
X207526500Y-77200000D02*
X207624000Y-77200000D01*
D23*
X215374000Y-77430000D02*
X215604000Y-77200000D01*
X190210700Y-38563000D02*
X189522500Y-37874800D01*
X100038400Y-40563300D02*
X98601700Y-42000000D01*
X115289200Y-40563300D02*
X100038400Y-40563300D01*
X134952000Y-35907100D02*
X143338800Y-35907100D01*
X134098300Y-37375000D02*
X131414900Y-40058400D01*
X134850000Y-37375000D02*
X134850000Y-36473300D01*
X153842800Y-35974800D02*
X154101700Y-35715900D01*
X143338800Y-35907100D02*
X143406500Y-35974800D01*
X183059400Y-37874800D02*
X181136400Y-35951800D01*
X117144200Y-41957500D02*
X117101700Y-42000000D01*
X154101700Y-35062500D02*
X155557900Y-33606300D01*
X204031500Y-75848300D02*
X199136100Y-70952900D01*
X97850000Y-42000000D02*
X98601700Y-42000000D01*
X97850000Y-42000000D02*
X97098300Y-42000000D01*
X134603700Y-36255400D02*
X134821600Y-36473300D01*
D24*
X207429000Y-77200000D02*
X207526500Y-77200000D01*
D23*
X116725900Y-42000000D02*
X117101700Y-42000000D01*
X190350000Y-39687500D02*
X190350000Y-38702300D01*
D24*
X207624000Y-77200000D02*
X207779000Y-77200000D01*
D23*
X207526500Y-76612300D02*
X206762500Y-75848300D01*
X190350000Y-38702300D02*
X190210700Y-38563000D01*
X143406500Y-35974800D02*
X153842800Y-35974800D01*
D24*
X207624000Y-87360000D02*
X207779000Y-87360000D01*
X208504000Y-88085000D02*
X209104000Y-88085000D01*
D23*
X189398500Y-112045700D02*
X198130700Y-120777900D01*
X204349400Y-120777900D02*
X204428400Y-120856900D01*
X197870700Y-102385800D02*
X199749800Y-100506700D01*
X180098700Y-111863200D02*
X182693300Y-111863200D01*
X184050300Y-115665600D02*
X183793600Y-115665600D01*
X199749800Y-96631300D02*
X208296100Y-88085000D01*
X208296100Y-88085000D02*
X208504000Y-88085000D01*
X164575900Y-111866000D02*
X165788800Y-110653100D01*
X198130700Y-120777900D02*
X204224900Y-120777900D01*
D24*
X209104000Y-88085000D02*
X209599000Y-87590000D01*
D23*
X197691000Y-102385800D02*
X197870700Y-102385800D01*
D24*
X207429000Y-87360000D02*
X207624000Y-87360000D01*
D23*
X189398500Y-110678300D02*
X197691000Y-102385800D01*
X189398500Y-112045700D02*
X189398500Y-110678300D01*
X204428400Y-120856900D02*
X205525400Y-120856900D01*
X183820300Y-114341200D02*
X184105800Y-113275700D01*
X182693300Y-111863200D02*
X184105800Y-113275700D01*
X178888600Y-110653100D02*
X180098700Y-111863200D01*
X162600000Y-112062500D02*
X163351700Y-112062500D01*
X199749800Y-100506700D02*
X199749800Y-96631300D01*
X204224900Y-120777900D02*
X204349400Y-120777900D01*
X184105800Y-113275700D02*
X185335800Y-112045700D01*
X203773800Y-121559200D02*
X204224900Y-120777900D01*
X163379500Y-112090300D02*
X163351700Y-112062500D01*
X183793600Y-115665600D02*
X183534800Y-115406800D01*
X164575900Y-112090300D02*
X163379500Y-112090300D01*
X215374000Y-87590000D02*
X215604000Y-87360000D01*
D24*
X207779000Y-87360000D02*
X208504000Y-88085000D01*
D23*
X183820300Y-114341200D02*
X183534800Y-115406800D01*
X185335800Y-112045700D02*
X189398500Y-112045700D01*
D24*
X209599000Y-87590000D02*
X215374000Y-87590000D01*
D23*
X164575900Y-112090300D02*
X164575900Y-111866000D01*
X165788800Y-110653100D02*
X178888600Y-110653100D01*
X218015000Y-101000000D02*
X216668100Y-101000000D01*
X209024000Y-59200000D02*
X208804000Y-59420000D01*
D24*
X215904000Y-58695000D02*
X215304000Y-58695000D01*
X216979000Y-59420000D02*
X216784000Y-59420000D01*
D23*
X209739000Y-59200000D02*
X209719000Y-59200000D01*
D24*
X214799000Y-59200000D02*
X209739000Y-59200000D01*
X215304000Y-58695000D02*
X214799000Y-59200000D01*
X216629000Y-59420000D02*
X215904000Y-58695000D01*
X216784000Y-59420000D02*
X216629000Y-59420000D01*
X209739000Y-59200000D02*
X209719000Y-59200000D01*
X209719000Y-59200000D02*
X209024000Y-59200000D01*
D23*
X207746100Y-98330900D02*
X207746100Y-97355400D01*
D24*
X216979000Y-61960000D02*
X216784000Y-61960000D01*
D23*
X208504100Y-61506800D02*
X208504100Y-61660200D01*
D24*
X209104000Y-67765000D02*
X209599000Y-67270000D01*
D23*
X214136200Y-94150800D02*
X214437000Y-93850000D01*
X209579000Y-55497500D02*
X206856600Y-55497500D01*
X215374000Y-67270000D02*
X215604000Y-67040000D01*
D24*
X207779000Y-67040000D02*
X208504000Y-67765000D01*
X214799000Y-61740000D02*
X209024000Y-61740000D01*
D23*
X206856600Y-55497500D02*
X203420500Y-58933600D01*
X214290700Y-55497500D02*
X214829000Y-55497500D01*
D24*
X207429000Y-67040000D02*
X207624000Y-67040000D01*
D23*
X207746100Y-97355400D02*
X209666000Y-95435500D01*
X213752300Y-55497500D02*
X213296700Y-55953100D01*
D24*
X208504000Y-67765000D02*
X208980100Y-67765000D01*
D23*
X208504100Y-61660200D02*
X208504200Y-61660200D01*
X215374000Y-64730000D02*
X215604000Y-64500000D01*
X204270900Y-60766600D02*
X207763900Y-60766600D01*
D24*
X207624000Y-67040000D02*
X207779000Y-67040000D01*
D23*
X210117400Y-55497500D02*
X209579000Y-55497500D01*
X203420500Y-59916200D02*
X204270900Y-60766600D01*
X211816000Y-99098300D02*
X208513500Y-99098300D01*
D24*
X216784000Y-61960000D02*
X216629000Y-61960000D01*
X216629000Y-61960000D02*
X215904000Y-61235000D01*
D23*
X207763900Y-60766600D02*
X208504100Y-61506800D01*
X208513500Y-99098300D02*
X207746100Y-98330900D01*
X209024000Y-61740000D02*
X208804000Y-61960000D01*
D24*
X207779000Y-64500000D02*
X208504000Y-65225000D01*
D23*
X211816000Y-100000000D02*
X211816000Y-99098300D01*
X211270100Y-94150800D02*
X214136200Y-94150800D01*
D24*
X207624000Y-64500000D02*
X207779000Y-64500000D01*
D23*
X209074700Y-68375000D02*
X208980100Y-68280400D01*
D24*
X209104000Y-65225000D02*
X209599000Y-64730000D01*
D23*
X211111300Y-55953100D02*
X210655700Y-55497500D01*
X214290700Y-55497500D02*
X213752300Y-55497500D01*
X213296700Y-55953100D02*
X211111300Y-55953100D01*
D24*
X207429000Y-64500000D02*
X207624000Y-64500000D01*
X208504000Y-65225000D02*
X209104000Y-65225000D01*
D23*
X208504200Y-61660200D02*
X208804000Y-61960000D01*
D24*
X209599000Y-67270000D02*
X215374000Y-67270000D01*
X209599000Y-64730000D02*
X215374000Y-64730000D01*
D23*
X208980100Y-68280400D02*
X208980100Y-67765000D01*
D24*
X215304000Y-61235000D02*
X214799000Y-61740000D01*
X215904000Y-61235000D02*
X215304000Y-61235000D01*
D23*
X203420500Y-58933600D02*
X203420500Y-59916200D01*
X210117400Y-55497500D02*
X210655700Y-55497500D01*
D24*
X208980100Y-67765000D02*
X209104000Y-67765000D01*
D23*
X209579000Y-57197500D02*
X210655700Y-57197500D01*
D24*
X215304000Y-63775000D02*
X214799000Y-64280000D01*
D23*
X214776900Y-57197500D02*
X213752300Y-57197500D01*
X220223200Y-63230000D02*
X216448800Y-63230000D01*
D24*
X216629000Y-64500000D02*
X215904000Y-63775000D01*
D23*
X215905700Y-57197500D02*
X219235300Y-57197500D01*
X213752300Y-57197500D02*
X213327300Y-56772500D01*
X220975700Y-62477500D02*
X220223200Y-63230000D01*
X209024000Y-64280000D02*
X208804000Y-64500000D01*
X220975700Y-58937900D02*
X220975700Y-62477500D01*
D24*
X215903800Y-63775000D02*
X215304000Y-63775000D01*
D23*
X213327300Y-56772500D02*
X211080700Y-56772500D01*
D24*
X216979000Y-64500000D02*
X216784000Y-64500000D01*
D23*
X216448800Y-63230000D02*
X215903800Y-63775000D01*
D24*
X216784000Y-64500000D02*
X216629000Y-64500000D01*
D23*
X211080700Y-56772500D02*
X210655700Y-57197500D01*
D24*
X215904000Y-63775000D02*
X215903800Y-63775000D01*
D23*
X214829000Y-57197500D02*
X215905700Y-57197500D01*
D24*
X214799000Y-64280000D02*
X209024000Y-64280000D01*
D23*
X219235300Y-57197500D02*
X220975700Y-58937900D01*
X214776900Y-57197500D02*
X214829000Y-57197500D01*
D24*
X215304000Y-66315000D02*
X214799000Y-66820000D01*
X216629000Y-67040000D02*
X215904000Y-66315000D01*
D23*
X209024000Y-66820000D02*
X208804000Y-67040000D01*
D24*
X216784000Y-67040000D02*
X216629000Y-67040000D01*
X216979000Y-67040000D02*
X216784000Y-67040000D01*
X215904000Y-66315000D02*
X215304000Y-66315000D01*
X214799000Y-66820000D02*
X209024000Y-66820000D01*
X216784000Y-84820000D02*
X216629000Y-84820000D01*
X214799000Y-84600000D02*
X209024000Y-84600000D01*
X215904000Y-84095000D02*
X215304000Y-84095000D01*
X216979000Y-84820000D02*
X216784000Y-84820000D01*
D23*
X209024000Y-84600000D02*
X208804000Y-84820000D01*
D24*
X215304000Y-84095000D02*
X214799000Y-84600000D01*
X216629000Y-84820000D02*
X215904000Y-84095000D01*
D23*
X209024000Y-87140000D02*
X208804000Y-87360000D01*
D24*
X216784000Y-87360000D02*
X216629000Y-87360000D01*
X216979000Y-87360000D02*
X216784000Y-87360000D01*
X216629000Y-87360000D02*
X215904000Y-86635000D01*
X215904000Y-86635000D02*
X215304000Y-86635000D01*
X215304000Y-86635000D02*
X214799000Y-87140000D01*
X214799000Y-87140000D02*
X209024000Y-87140000D01*
X207779000Y-59420000D02*
X208504000Y-60145000D01*
X208504000Y-60145000D02*
X209104000Y-60145000D01*
X209104000Y-60145000D02*
X209599000Y-59650000D01*
X207624000Y-59420000D02*
X207779000Y-59420000D01*
D23*
X215374000Y-59650000D02*
X215604000Y-59420000D01*
D24*
X209599000Y-59650000D02*
X215374000Y-59650000D01*
X207429000Y-59420000D02*
X207624000Y-59420000D01*
X207624000Y-61960000D02*
X207779000Y-61960000D01*
X207779000Y-61960000D02*
X208504000Y-62685000D01*
X208504000Y-62685000D02*
X209104000Y-62685000D01*
X209599000Y-62190000D02*
X215374000Y-62190000D01*
X207429000Y-61960000D02*
X207624000Y-61960000D01*
D23*
X215374000Y-62190000D02*
X215604000Y-61960000D01*
D24*
X209104000Y-62685000D02*
X209599000Y-62190000D01*
X209599000Y-69810000D02*
X215374000Y-69810000D01*
X208504000Y-70305000D02*
X209104000Y-70305000D01*
D23*
X215374000Y-69810000D02*
X215604000Y-69580000D01*
D24*
X209104000Y-70305000D02*
X209599000Y-69810000D01*
X207624000Y-69580000D02*
X207779000Y-69580000D01*
X207429000Y-69580000D02*
X207624000Y-69580000D01*
D23*
X205208200Y-94557100D02*
X205915300Y-93850000D01*
X206817000Y-93850000D02*
X205915300Y-93850000D01*
D24*
X207779000Y-69580000D02*
X208504000Y-70305000D01*
D23*
X205049100Y-94557100D02*
X205208200Y-94557100D01*
D24*
X209599000Y-72350000D02*
X215374000Y-72350000D01*
X207779000Y-72120000D02*
X208504000Y-72845000D01*
X207624000Y-72120000D02*
X207779000Y-72120000D01*
D23*
X210720100Y-93850000D02*
X211021000Y-93549100D01*
X215374000Y-72350000D02*
X215604000Y-72120000D01*
D24*
X207429000Y-72120000D02*
X207624000Y-72120000D01*
X209104000Y-72845000D02*
X209599000Y-72350000D01*
D23*
X209357000Y-93850000D02*
X210720100Y-93850000D01*
X211021000Y-93549100D02*
X213319900Y-93549100D01*
D24*
X208504000Y-72845000D02*
X209104000Y-72845000D01*
X207624000Y-74660000D02*
X207779000Y-74660000D01*
D23*
X216075300Y-93850000D02*
X215172400Y-94752900D01*
D24*
X207779000Y-74660000D02*
X208504000Y-75385000D01*
D23*
X216977000Y-93850000D02*
X216075300Y-93850000D01*
D24*
X209599000Y-74890000D02*
X215374000Y-74890000D01*
D23*
X215172400Y-94752900D02*
X208087000Y-94752900D01*
X215374000Y-74890000D02*
X215604000Y-74660000D01*
D24*
X209104000Y-75385000D02*
X209599000Y-74890000D01*
D23*
X209104000Y-75385000D02*
X210802400Y-75385000D01*
D24*
X208504000Y-75385000D02*
X209104000Y-75385000D01*
X207429000Y-74660000D02*
X207624000Y-74660000D01*
X204584000Y-59420000D02*
X206704000Y-59420000D01*
D23*
X206704000Y-59420000D02*
X206724000Y-59420000D01*
X217704000Y-59420000D02*
X217684000Y-59420000D01*
D24*
X219824000Y-59420000D02*
X217704000Y-59420000D01*
X204584000Y-61960000D02*
X206704000Y-61960000D01*
D23*
X206704000Y-61960000D02*
X206724000Y-61960000D01*
X217704000Y-61960000D02*
X217684000Y-61960000D01*
D24*
X219824000Y-61960000D02*
X217704000Y-61960000D01*
X204584000Y-64500000D02*
X206704000Y-64500000D01*
D23*
X206704000Y-64500000D02*
X206724000Y-64500000D01*
D24*
X219824000Y-64500000D02*
X217704000Y-64500000D01*
D23*
X217704000Y-64500000D02*
X217684000Y-64500000D01*
D24*
X204584000Y-67040000D02*
X206704000Y-67040000D01*
D23*
X206704000Y-67040000D02*
X206724000Y-67040000D01*
D24*
X219824000Y-67040000D02*
X217704000Y-67040000D01*
D23*
X217704000Y-67040000D02*
X217684000Y-67040000D01*
D24*
X204584000Y-69580000D02*
X206704000Y-69580000D01*
D23*
X206704000Y-69580000D02*
X206724000Y-69580000D01*
X217704000Y-69580000D02*
X217684000Y-69580000D01*
D24*
X219824000Y-69580000D02*
X217704000Y-69580000D01*
D23*
X206704000Y-72120000D02*
X206724000Y-72120000D01*
D24*
X204584000Y-72120000D02*
X206704000Y-72120000D01*
X219824000Y-72120000D02*
X217704000Y-72120000D01*
D23*
X217704000Y-72120000D02*
X217684000Y-72120000D01*
X206704000Y-74660000D02*
X206724000Y-74660000D01*
D24*
X204584000Y-74660000D02*
X206704000Y-74660000D01*
D23*
X217704000Y-74660000D02*
X217684000Y-74660000D01*
D24*
X219824000Y-74660000D02*
X217704000Y-74660000D01*
D23*
X206704000Y-77200000D02*
X206724000Y-77200000D01*
D24*
X204584000Y-77200000D02*
X206704000Y-77200000D01*
D23*
X217704000Y-77200000D02*
X217684000Y-77200000D01*
D24*
X219824000Y-77200000D02*
X217704000Y-77200000D01*
X204584000Y-79740000D02*
X206704000Y-79740000D01*
D23*
X206704000Y-79740000D02*
X206724000Y-79740000D01*
X217704000Y-79740000D02*
X217684000Y-79740000D01*
D24*
X219824000Y-79740000D02*
X217704000Y-79740000D01*
D23*
X206704000Y-82280000D02*
X206724000Y-82280000D01*
D24*
X204584000Y-82280000D02*
X206704000Y-82280000D01*
D23*
X217704000Y-82280000D02*
X217684000Y-82280000D01*
D24*
X219824000Y-82280000D02*
X217704000Y-82280000D01*
X204584000Y-84820000D02*
X206704000Y-84820000D01*
D23*
X206704000Y-84820000D02*
X206724000Y-84820000D01*
D24*
X219824000Y-84820000D02*
X217704000Y-84820000D01*
D23*
X217704000Y-84820000D02*
X217684000Y-84820000D01*
X206704000Y-87360000D02*
X206724000Y-87360000D01*
D24*
X204584000Y-87360000D02*
X206704000Y-87360000D01*
X219824000Y-87360000D02*
X217704000Y-87360000D01*
D23*
X217704000Y-87360000D02*
X217684000Y-87360000D01*
D24*
X206817000Y-91200000D02*
X206817000Y-92950000D01*
X209357000Y-91200000D02*
X209357000Y-92950000D01*
X214437000Y-91200000D02*
X214437000Y-92950000D01*
X216977000Y-91200000D02*
X216977000Y-92950000D01*
D23*
X220214100Y-97748300D02*
X219318400Y-97748300D01*
X219318400Y-97748300D02*
X219066700Y-98000000D01*
X211816000Y-98000000D02*
X215904600Y-98000000D01*
X220814300Y-98348500D02*
X220214100Y-97748300D01*
X217698300Y-99793700D02*
X220167200Y-99793700D01*
X216708000Y-98803400D02*
X217698300Y-99793700D01*
X220814300Y-99146600D02*
X220814300Y-98348500D01*
X218015000Y-98000000D02*
X219066700Y-98000000D01*
X215904600Y-98000000D02*
X216708000Y-98803400D01*
X220167200Y-99793700D02*
X220814300Y-99146600D01*
D24*
X210800000Y-100000000D02*
X209000000Y-100000000D01*
X210800000Y-98000000D02*
X209000000Y-98000000D01*
M02*
