G04 #@! TF.GenerationSoftware,KiCad,Pcbnew,8.0.8+1*
G04 #@! TF.CreationDate,2025-03-02T13:35:21+00:00*
G04 #@! TF.ProjectId,zeph_wireless_autorouted,7a657068-5f77-4697-9265-6c6573735f61,0.2*
G04 #@! TF.SameCoordinates,Original*
G04 #@! TF.FileFunction,Soldermask,Top*
G04 #@! TF.FilePolarity,Negative*
%FSLAX46Y46*%
G04 Gerber Fmt 4.6, Leading zero omitted, Abs format (unit mm)*
G04 Created by KiCad (PCBNEW 8.0.8+1) date 2025-03-02 13:35:21*
%MOMM*%
%LPD*%
G01*
G04 APERTURE LIST*
%ADD10C,1.100000*%
%ADD11C,1.300000*%
%ADD12O,1.800000X1.800000*%
%ADD13C,1.800000*%
%ADD14C,3.550000*%
%ADD15C,0.850000*%
%ADD16C,1.000000*%
%ADD17C,0.900000*%
%ADD18O,1.850000X1.300000*%
%ADD19C,2.300000*%
G04 APERTURE END LIST*
G36*
G01*
X190850000Y-95787500D02*
X190850000Y-94587500D01*
G75*
G02*
X190900000Y-94537500I50000J0D01*
G01*
X191800000Y-94537500D01*
G75*
G02*
X191850000Y-94587500I0J-50000D01*
G01*
X191850000Y-95787500D01*
G75*
G02*
X191800000Y-95837500I-50000J0D01*
G01*
X190900000Y-95837500D01*
G75*
G02*
X190850000Y-95787500I0J50000D01*
G01*
G37*
G36*
G01*
X194150000Y-95787500D02*
X194150000Y-94587500D01*
G75*
G02*
X194200000Y-94537500I50000J0D01*
G01*
X195100000Y-94537500D01*
G75*
G02*
X195150000Y-94587500I0J-50000D01*
G01*
X195150000Y-95787500D01*
G75*
G02*
X195100000Y-95837500I-50000J0D01*
G01*
X194200000Y-95837500D01*
G75*
G02*
X194150000Y-95787500I0J50000D01*
G01*
G37*
D10*
X168200000Y-61125000D03*
D11*
X168219000Y-55602000D03*
X179800000Y-55625000D03*
D10*
X179819000Y-61102000D03*
G36*
G01*
X170675000Y-62025000D02*
X170675000Y-60025000D01*
G75*
G02*
X170725000Y-59975000I50000J0D01*
G01*
X172275000Y-59975000D01*
G75*
G02*
X172325000Y-60025000I0J-50000D01*
G01*
X172325000Y-62025000D01*
G75*
G02*
X172275000Y-62075000I-50000J0D01*
G01*
X170725000Y-62075000D01*
G75*
G02*
X170675000Y-62025000I0J50000D01*
G01*
G37*
G36*
G01*
X175675000Y-62025000D02*
X175675000Y-60025000D01*
G75*
G02*
X175725000Y-59975000I50000J0D01*
G01*
X177275000Y-59975000D01*
G75*
G02*
X177325000Y-60025000I0J-50000D01*
G01*
X177325000Y-62025000D01*
G75*
G02*
X177275000Y-62075000I-50000J0D01*
G01*
X175725000Y-62075000D01*
G75*
G02*
X175675000Y-62025000I0J50000D01*
G01*
G37*
G36*
G01*
X166600000Y-53375000D02*
X166600000Y-51375000D01*
G75*
G02*
X166650000Y-51325000I50000J0D01*
G01*
X168650000Y-51325000D01*
G75*
G02*
X168700000Y-51375000I0J-50000D01*
G01*
X168700000Y-53375000D01*
G75*
G02*
X168650000Y-53425000I-50000J0D01*
G01*
X166650000Y-53425000D01*
G75*
G02*
X166600000Y-53375000I0J50000D01*
G01*
G37*
G36*
G01*
X166600000Y-65375000D02*
X166600000Y-63375000D01*
G75*
G02*
X166650000Y-63325000I50000J0D01*
G01*
X168650000Y-63325000D01*
G75*
G02*
X168700000Y-63375000I0J-50000D01*
G01*
X168700000Y-65375000D01*
G75*
G02*
X168650000Y-65425000I-50000J0D01*
G01*
X166650000Y-65425000D01*
G75*
G02*
X166600000Y-65375000I0J50000D01*
G01*
G37*
G36*
G01*
X179300000Y-53375000D02*
X179300000Y-51375000D01*
G75*
G02*
X179350000Y-51325000I50000J0D01*
G01*
X181350000Y-51325000D01*
G75*
G02*
X181400000Y-51375000I0J-50000D01*
G01*
X181400000Y-53375000D01*
G75*
G02*
X181350000Y-53425000I-50000J0D01*
G01*
X179350000Y-53425000D01*
G75*
G02*
X179300000Y-53375000I0J50000D01*
G01*
G37*
G36*
G01*
X179300000Y-65375000D02*
X179300000Y-63375000D01*
G75*
G02*
X179350000Y-63325000I50000J0D01*
G01*
X181350000Y-63325000D01*
G75*
G02*
X181400000Y-63375000I0J-50000D01*
G01*
X181400000Y-65375000D01*
G75*
G02*
X181350000Y-65425000I-50000J0D01*
G01*
X179350000Y-65425000D01*
G75*
G02*
X179300000Y-65375000I0J50000D01*
G01*
G37*
G36*
G01*
X172350000Y-74975000D02*
X172350000Y-73775000D01*
G75*
G02*
X172400000Y-73725000I50000J0D01*
G01*
X173300000Y-73725000D01*
G75*
G02*
X173350000Y-73775000I0J-50000D01*
G01*
X173350000Y-74975000D01*
G75*
G02*
X173300000Y-75025000I-50000J0D01*
G01*
X172400000Y-75025000D01*
G75*
G02*
X172350000Y-74975000I0J50000D01*
G01*
G37*
G36*
G01*
X175650000Y-74975000D02*
X175650000Y-73775000D01*
G75*
G02*
X175700000Y-73725000I50000J0D01*
G01*
X176600000Y-73725000D01*
G75*
G02*
X176650000Y-73775000I0J-50000D01*
G01*
X176650000Y-74975000D01*
G75*
G02*
X176600000Y-75025000I-50000J0D01*
G01*
X175700000Y-75025000D01*
G75*
G02*
X175650000Y-74975000I0J50000D01*
G01*
G37*
X186700000Y-81937500D03*
D11*
X186719000Y-76414500D03*
X198300000Y-76437500D03*
D10*
X198319000Y-81914500D03*
G36*
G01*
X189175000Y-82837500D02*
X189175000Y-80837500D01*
G75*
G02*
X189225000Y-80787500I50000J0D01*
G01*
X190775000Y-80787500D01*
G75*
G02*
X190825000Y-80837500I0J-50000D01*
G01*
X190825000Y-82837500D01*
G75*
G02*
X190775000Y-82887500I-50000J0D01*
G01*
X189225000Y-82887500D01*
G75*
G02*
X189175000Y-82837500I0J50000D01*
G01*
G37*
G36*
G01*
X194175000Y-82837500D02*
X194175000Y-80837500D01*
G75*
G02*
X194225000Y-80787500I50000J0D01*
G01*
X195775000Y-80787500D01*
G75*
G02*
X195825000Y-80837500I0J-50000D01*
G01*
X195825000Y-82837500D01*
G75*
G02*
X195775000Y-82887500I-50000J0D01*
G01*
X194225000Y-82887500D01*
G75*
G02*
X194175000Y-82837500I0J50000D01*
G01*
G37*
G36*
G01*
X185100000Y-74187500D02*
X185100000Y-72187500D01*
G75*
G02*
X185150000Y-72137500I50000J0D01*
G01*
X187150000Y-72137500D01*
G75*
G02*
X187200000Y-72187500I0J-50000D01*
G01*
X187200000Y-74187500D01*
G75*
G02*
X187150000Y-74237500I-50000J0D01*
G01*
X185150000Y-74237500D01*
G75*
G02*
X185100000Y-74187500I0J50000D01*
G01*
G37*
G36*
G01*
X185100000Y-86187500D02*
X185100000Y-84187500D01*
G75*
G02*
X185150000Y-84137500I50000J0D01*
G01*
X187150000Y-84137500D01*
G75*
G02*
X187200000Y-84187500I0J-50000D01*
G01*
X187200000Y-86187500D01*
G75*
G02*
X187150000Y-86237500I-50000J0D01*
G01*
X185150000Y-86237500D01*
G75*
G02*
X185100000Y-86187500I0J50000D01*
G01*
G37*
G36*
G01*
X197800000Y-74187500D02*
X197800000Y-72187500D01*
G75*
G02*
X197850000Y-72137500I50000J0D01*
G01*
X199850000Y-72137500D01*
G75*
G02*
X199900000Y-72187500I0J-50000D01*
G01*
X199900000Y-74187500D01*
G75*
G02*
X199850000Y-74237500I-50000J0D01*
G01*
X197850000Y-74237500D01*
G75*
G02*
X197800000Y-74187500I0J50000D01*
G01*
G37*
G36*
G01*
X197800000Y-86187500D02*
X197800000Y-84187500D01*
G75*
G02*
X197850000Y-84137500I50000J0D01*
G01*
X199850000Y-84137500D01*
G75*
G02*
X199900000Y-84187500I0J-50000D01*
G01*
X199900000Y-86187500D01*
G75*
G02*
X199850000Y-86237500I-50000J0D01*
G01*
X197850000Y-86237500D01*
G75*
G02*
X197800000Y-86187500I0J50000D01*
G01*
G37*
X131200000Y-98125000D03*
D11*
X131219000Y-92602000D03*
X142800000Y-92625000D03*
D10*
X142819000Y-98102000D03*
G36*
G01*
X133675000Y-99025000D02*
X133675000Y-97025000D01*
G75*
G02*
X133725000Y-96975000I50000J0D01*
G01*
X135275000Y-96975000D01*
G75*
G02*
X135325000Y-97025000I0J-50000D01*
G01*
X135325000Y-99025000D01*
G75*
G02*
X135275000Y-99075000I-50000J0D01*
G01*
X133725000Y-99075000D01*
G75*
G02*
X133675000Y-99025000I0J50000D01*
G01*
G37*
G36*
G01*
X138675000Y-99025000D02*
X138675000Y-97025000D01*
G75*
G02*
X138725000Y-96975000I50000J0D01*
G01*
X140275000Y-96975000D01*
G75*
G02*
X140325000Y-97025000I0J-50000D01*
G01*
X140325000Y-99025000D01*
G75*
G02*
X140275000Y-99075000I-50000J0D01*
G01*
X138725000Y-99075000D01*
G75*
G02*
X138675000Y-99025000I0J50000D01*
G01*
G37*
G36*
G01*
X129600000Y-90375000D02*
X129600000Y-88375000D01*
G75*
G02*
X129650000Y-88325000I50000J0D01*
G01*
X131650000Y-88325000D01*
G75*
G02*
X131700000Y-88375000I0J-50000D01*
G01*
X131700000Y-90375000D01*
G75*
G02*
X131650000Y-90425000I-50000J0D01*
G01*
X129650000Y-90425000D01*
G75*
G02*
X129600000Y-90375000I0J50000D01*
G01*
G37*
G36*
G01*
X129600000Y-102375000D02*
X129600000Y-100375000D01*
G75*
G02*
X129650000Y-100325000I50000J0D01*
G01*
X131650000Y-100325000D01*
G75*
G02*
X131700000Y-100375000I0J-50000D01*
G01*
X131700000Y-102375000D01*
G75*
G02*
X131650000Y-102425000I-50000J0D01*
G01*
X129650000Y-102425000D01*
G75*
G02*
X129600000Y-102375000I0J50000D01*
G01*
G37*
G36*
G01*
X142300000Y-90375000D02*
X142300000Y-88375000D01*
G75*
G02*
X142350000Y-88325000I50000J0D01*
G01*
X144350000Y-88325000D01*
G75*
G02*
X144400000Y-88375000I0J-50000D01*
G01*
X144400000Y-90375000D01*
G75*
G02*
X144350000Y-90425000I-50000J0D01*
G01*
X142350000Y-90425000D01*
G75*
G02*
X142300000Y-90375000I0J50000D01*
G01*
G37*
G36*
G01*
X142300000Y-102375000D02*
X142300000Y-100375000D01*
G75*
G02*
X142350000Y-100325000I50000J0D01*
G01*
X144350000Y-100325000D01*
G75*
G02*
X144400000Y-100375000I0J-50000D01*
G01*
X144400000Y-102375000D01*
G75*
G02*
X144350000Y-102425000I-50000J0D01*
G01*
X142350000Y-102425000D01*
G75*
G02*
X142300000Y-102375000I0J50000D01*
G01*
G37*
X168200000Y-42625000D03*
D11*
X168219000Y-37102000D03*
X179800000Y-37125000D03*
D10*
X179819000Y-42602000D03*
G36*
G01*
X170675000Y-43525000D02*
X170675000Y-41525000D01*
G75*
G02*
X170725000Y-41475000I50000J0D01*
G01*
X172275000Y-41475000D01*
G75*
G02*
X172325000Y-41525000I0J-50000D01*
G01*
X172325000Y-43525000D01*
G75*
G02*
X172275000Y-43575000I-50000J0D01*
G01*
X170725000Y-43575000D01*
G75*
G02*
X170675000Y-43525000I0J50000D01*
G01*
G37*
G36*
G01*
X175675000Y-43525000D02*
X175675000Y-41525000D01*
G75*
G02*
X175725000Y-41475000I50000J0D01*
G01*
X177275000Y-41475000D01*
G75*
G02*
X177325000Y-41525000I0J-50000D01*
G01*
X177325000Y-43525000D01*
G75*
G02*
X177275000Y-43575000I-50000J0D01*
G01*
X175725000Y-43575000D01*
G75*
G02*
X175675000Y-43525000I0J50000D01*
G01*
G37*
G36*
G01*
X166600000Y-34875000D02*
X166600000Y-32875000D01*
G75*
G02*
X166650000Y-32825000I50000J0D01*
G01*
X168650000Y-32825000D01*
G75*
G02*
X168700000Y-32875000I0J-50000D01*
G01*
X168700000Y-34875000D01*
G75*
G02*
X168650000Y-34925000I-50000J0D01*
G01*
X166650000Y-34925000D01*
G75*
G02*
X166600000Y-34875000I0J50000D01*
G01*
G37*
G36*
G01*
X166600000Y-46875000D02*
X166600000Y-44875000D01*
G75*
G02*
X166650000Y-44825000I50000J0D01*
G01*
X168650000Y-44825000D01*
G75*
G02*
X168700000Y-44875000I0J-50000D01*
G01*
X168700000Y-46875000D01*
G75*
G02*
X168650000Y-46925000I-50000J0D01*
G01*
X166650000Y-46925000D01*
G75*
G02*
X166600000Y-46875000I0J50000D01*
G01*
G37*
G36*
G01*
X179300000Y-34875000D02*
X179300000Y-32875000D01*
G75*
G02*
X179350000Y-32825000I50000J0D01*
G01*
X181350000Y-32825000D01*
G75*
G02*
X181400000Y-32875000I0J-50000D01*
G01*
X181400000Y-34875000D01*
G75*
G02*
X181350000Y-34925000I-50000J0D01*
G01*
X179350000Y-34925000D01*
G75*
G02*
X179300000Y-34875000I0J50000D01*
G01*
G37*
G36*
G01*
X179300000Y-46875000D02*
X179300000Y-44875000D01*
G75*
G02*
X179350000Y-44825000I50000J0D01*
G01*
X181350000Y-44825000D01*
G75*
G02*
X181400000Y-44875000I0J-50000D01*
G01*
X181400000Y-46875000D01*
G75*
G02*
X181350000Y-46925000I-50000J0D01*
G01*
X179350000Y-46925000D01*
G75*
G02*
X179300000Y-46875000I0J50000D01*
G01*
G37*
G36*
G01*
X172350000Y-93475000D02*
X172350000Y-92275000D01*
G75*
G02*
X172400000Y-92225000I50000J0D01*
G01*
X173300000Y-92225000D01*
G75*
G02*
X173350000Y-92275000I0J-50000D01*
G01*
X173350000Y-93475000D01*
G75*
G02*
X173300000Y-93525000I-50000J0D01*
G01*
X172400000Y-93525000D01*
G75*
G02*
X172350000Y-93475000I0J50000D01*
G01*
G37*
G36*
G01*
X175650000Y-93475000D02*
X175650000Y-92275000D01*
G75*
G02*
X175700000Y-92225000I50000J0D01*
G01*
X176600000Y-92225000D01*
G75*
G02*
X176650000Y-92275000I0J-50000D01*
G01*
X176650000Y-93475000D01*
G75*
G02*
X176600000Y-93525000I-50000J0D01*
G01*
X175700000Y-93525000D01*
G75*
G02*
X175650000Y-93475000I0J50000D01*
G01*
G37*
D12*
X206817000Y-91200000D03*
X209357000Y-91200000D03*
X211897000Y-91200000D03*
X214437000Y-91200000D03*
D13*
X216977000Y-91200000D03*
G36*
G01*
X207417000Y-94200000D02*
X206217000Y-94200000D01*
G75*
G02*
X206167000Y-94150000I0J50000D01*
G01*
X206167000Y-93550000D01*
G75*
G02*
X206217000Y-93500000I50000J0D01*
G01*
X207417000Y-93500000D01*
G75*
G02*
X207467000Y-93550000I0J-50000D01*
G01*
X207467000Y-94150000D01*
G75*
G02*
X207417000Y-94200000I-50000J0D01*
G01*
G37*
G36*
G01*
X209957000Y-94200000D02*
X208757000Y-94200000D01*
G75*
G02*
X208707000Y-94150000I0J50000D01*
G01*
X208707000Y-93550000D01*
G75*
G02*
X208757000Y-93500000I50000J0D01*
G01*
X209957000Y-93500000D01*
G75*
G02*
X210007000Y-93550000I0J-50000D01*
G01*
X210007000Y-94150000D01*
G75*
G02*
X209957000Y-94200000I-50000J0D01*
G01*
G37*
G36*
G01*
X215037000Y-94200000D02*
X213837000Y-94200000D01*
G75*
G02*
X213787000Y-94150000I0J50000D01*
G01*
X213787000Y-93550000D01*
G75*
G02*
X213837000Y-93500000I50000J0D01*
G01*
X215037000Y-93500000D01*
G75*
G02*
X215087000Y-93550000I0J-50000D01*
G01*
X215087000Y-94150000D01*
G75*
G02*
X215037000Y-94200000I-50000J0D01*
G01*
G37*
G36*
G01*
X217577000Y-94200000D02*
X216377000Y-94200000D01*
G75*
G02*
X216327000Y-94150000I0J50000D01*
G01*
X216327000Y-93550000D01*
G75*
G02*
X216377000Y-93500000I50000J0D01*
G01*
X217577000Y-93500000D01*
G75*
G02*
X217627000Y-93550000I0J-50000D01*
G01*
X217627000Y-94150000D01*
G75*
G02*
X217577000Y-94200000I-50000J0D01*
G01*
G37*
G36*
G01*
X207417000Y-93300000D02*
X206217000Y-93300000D01*
G75*
G02*
X206167000Y-93250000I0J50000D01*
G01*
X206167000Y-92650000D01*
G75*
G02*
X206217000Y-92600000I50000J0D01*
G01*
X207417000Y-92600000D01*
G75*
G02*
X207467000Y-92650000I0J-50000D01*
G01*
X207467000Y-93250000D01*
G75*
G02*
X207417000Y-93300000I-50000J0D01*
G01*
G37*
G36*
G01*
X209957000Y-93300000D02*
X208757000Y-93300000D01*
G75*
G02*
X208707000Y-93250000I0J50000D01*
G01*
X208707000Y-92650000D01*
G75*
G02*
X208757000Y-92600000I50000J0D01*
G01*
X209957000Y-92600000D01*
G75*
G02*
X210007000Y-92650000I0J-50000D01*
G01*
X210007000Y-93250000D01*
G75*
G02*
X209957000Y-93300000I-50000J0D01*
G01*
G37*
G36*
G01*
X215037000Y-93300000D02*
X213837000Y-93300000D01*
G75*
G02*
X213787000Y-93250000I0J50000D01*
G01*
X213787000Y-92650000D01*
G75*
G02*
X213837000Y-92600000I50000J0D01*
G01*
X215037000Y-92600000D01*
G75*
G02*
X215087000Y-92650000I0J-50000D01*
G01*
X215087000Y-93250000D01*
G75*
G02*
X215037000Y-93300000I-50000J0D01*
G01*
G37*
G36*
G01*
X217577000Y-93300000D02*
X216377000Y-93300000D01*
G75*
G02*
X216327000Y-93250000I0J50000D01*
G01*
X216327000Y-92650000D01*
G75*
G02*
X216377000Y-92600000I50000J0D01*
G01*
X217577000Y-92600000D01*
G75*
G02*
X217627000Y-92650000I0J-50000D01*
G01*
X217627000Y-93250000D01*
G75*
G02*
X217577000Y-93300000I-50000J0D01*
G01*
G37*
G36*
G01*
X153850000Y-35662500D02*
X153850000Y-34462500D01*
G75*
G02*
X153900000Y-34412500I50000J0D01*
G01*
X154800000Y-34412500D01*
G75*
G02*
X154850000Y-34462500I0J-50000D01*
G01*
X154850000Y-35662500D01*
G75*
G02*
X154800000Y-35712500I-50000J0D01*
G01*
X153900000Y-35712500D01*
G75*
G02*
X153850000Y-35662500I0J50000D01*
G01*
G37*
G36*
G01*
X157150000Y-35662500D02*
X157150000Y-34462500D01*
G75*
G02*
X157200000Y-34412500I50000J0D01*
G01*
X158100000Y-34412500D01*
G75*
G02*
X158150000Y-34462500I0J-50000D01*
G01*
X158150000Y-35662500D01*
G75*
G02*
X158100000Y-35712500I-50000J0D01*
G01*
X157200000Y-35712500D01*
G75*
G02*
X157150000Y-35662500I0J50000D01*
G01*
G37*
G36*
G01*
X98350000Y-42600000D02*
X98350000Y-41400000D01*
G75*
G02*
X98400000Y-41350000I50000J0D01*
G01*
X99300000Y-41350000D01*
G75*
G02*
X99350000Y-41400000I0J-50000D01*
G01*
X99350000Y-42600000D01*
G75*
G02*
X99300000Y-42650000I-50000J0D01*
G01*
X98400000Y-42650000D01*
G75*
G02*
X98350000Y-42600000I0J50000D01*
G01*
G37*
G36*
G01*
X101650000Y-42600000D02*
X101650000Y-41400000D01*
G75*
G02*
X101700000Y-41350000I50000J0D01*
G01*
X102600000Y-41350000D01*
G75*
G02*
X102650000Y-41400000I0J-50000D01*
G01*
X102650000Y-42600000D01*
G75*
G02*
X102600000Y-42650000I-50000J0D01*
G01*
X101700000Y-42650000D01*
G75*
G02*
X101650000Y-42600000I0J50000D01*
G01*
G37*
G36*
G01*
X190850000Y-58787500D02*
X190850000Y-57587500D01*
G75*
G02*
X190900000Y-57537500I50000J0D01*
G01*
X191800000Y-57537500D01*
G75*
G02*
X191850000Y-57587500I0J-50000D01*
G01*
X191850000Y-58787500D01*
G75*
G02*
X191800000Y-58837500I-50000J0D01*
G01*
X190900000Y-58837500D01*
G75*
G02*
X190850000Y-58787500I0J50000D01*
G01*
G37*
G36*
G01*
X194150000Y-58787500D02*
X194150000Y-57587500D01*
G75*
G02*
X194200000Y-57537500I50000J0D01*
G01*
X195100000Y-57537500D01*
G75*
G02*
X195150000Y-57587500I0J-50000D01*
G01*
X195150000Y-58787500D01*
G75*
G02*
X195100000Y-58837500I-50000J0D01*
G01*
X194200000Y-58837500D01*
G75*
G02*
X194150000Y-58787500I0J50000D01*
G01*
G37*
G36*
G01*
X172350000Y-37975000D02*
X172350000Y-36775000D01*
G75*
G02*
X172400000Y-36725000I50000J0D01*
G01*
X173300000Y-36725000D01*
G75*
G02*
X173350000Y-36775000I0J-50000D01*
G01*
X173350000Y-37975000D01*
G75*
G02*
X173300000Y-38025000I-50000J0D01*
G01*
X172400000Y-38025000D01*
G75*
G02*
X172350000Y-37975000I0J50000D01*
G01*
G37*
G36*
G01*
X175650000Y-37975000D02*
X175650000Y-36775000D01*
G75*
G02*
X175700000Y-36725000I50000J0D01*
G01*
X176600000Y-36725000D01*
G75*
G02*
X176650000Y-36775000I0J-50000D01*
G01*
X176650000Y-37975000D01*
G75*
G02*
X176600000Y-38025000I-50000J0D01*
G01*
X175700000Y-38025000D01*
G75*
G02*
X175650000Y-37975000I0J50000D01*
G01*
G37*
D14*
X183218000Y-50298500D03*
X196724600Y-115006700D03*
G36*
G01*
X135350000Y-56475000D02*
X135350000Y-55275000D01*
G75*
G02*
X135400000Y-55225000I50000J0D01*
G01*
X136300000Y-55225000D01*
G75*
G02*
X136350000Y-55275000I0J-50000D01*
G01*
X136350000Y-56475000D01*
G75*
G02*
X136300000Y-56525000I-50000J0D01*
G01*
X135400000Y-56525000D01*
G75*
G02*
X135350000Y-56475000I0J50000D01*
G01*
G37*
G36*
G01*
X138650000Y-56475000D02*
X138650000Y-55275000D01*
G75*
G02*
X138700000Y-55225000I50000J0D01*
G01*
X139600000Y-55225000D01*
G75*
G02*
X139650000Y-55275000I0J-50000D01*
G01*
X139650000Y-56475000D01*
G75*
G02*
X139600000Y-56525000I-50000J0D01*
G01*
X138700000Y-56525000D01*
G75*
G02*
X138650000Y-56475000I0J50000D01*
G01*
G37*
D10*
X131200000Y-79625000D03*
D11*
X131219000Y-74102000D03*
X142800000Y-74125000D03*
D10*
X142819000Y-79602000D03*
G36*
G01*
X133675000Y-80525000D02*
X133675000Y-78525000D01*
G75*
G02*
X133725000Y-78475000I50000J0D01*
G01*
X135275000Y-78475000D01*
G75*
G02*
X135325000Y-78525000I0J-50000D01*
G01*
X135325000Y-80525000D01*
G75*
G02*
X135275000Y-80575000I-50000J0D01*
G01*
X133725000Y-80575000D01*
G75*
G02*
X133675000Y-80525000I0J50000D01*
G01*
G37*
G36*
G01*
X138675000Y-80525000D02*
X138675000Y-78525000D01*
G75*
G02*
X138725000Y-78475000I50000J0D01*
G01*
X140275000Y-78475000D01*
G75*
G02*
X140325000Y-78525000I0J-50000D01*
G01*
X140325000Y-80525000D01*
G75*
G02*
X140275000Y-80575000I-50000J0D01*
G01*
X138725000Y-80575000D01*
G75*
G02*
X138675000Y-80525000I0J50000D01*
G01*
G37*
G36*
G01*
X129600000Y-71875000D02*
X129600000Y-69875000D01*
G75*
G02*
X129650000Y-69825000I50000J0D01*
G01*
X131650000Y-69825000D01*
G75*
G02*
X131700000Y-69875000I0J-50000D01*
G01*
X131700000Y-71875000D01*
G75*
G02*
X131650000Y-71925000I-50000J0D01*
G01*
X129650000Y-71925000D01*
G75*
G02*
X129600000Y-71875000I0J50000D01*
G01*
G37*
G36*
G01*
X129600000Y-83875000D02*
X129600000Y-81875000D01*
G75*
G02*
X129650000Y-81825000I50000J0D01*
G01*
X131650000Y-81825000D01*
G75*
G02*
X131700000Y-81875000I0J-50000D01*
G01*
X131700000Y-83875000D01*
G75*
G02*
X131650000Y-83925000I-50000J0D01*
G01*
X129650000Y-83925000D01*
G75*
G02*
X129600000Y-83875000I0J50000D01*
G01*
G37*
G36*
G01*
X142300000Y-71875000D02*
X142300000Y-69875000D01*
G75*
G02*
X142350000Y-69825000I50000J0D01*
G01*
X144350000Y-69825000D01*
G75*
G02*
X144400000Y-69875000I0J-50000D01*
G01*
X144400000Y-71875000D01*
G75*
G02*
X144350000Y-71925000I-50000J0D01*
G01*
X142350000Y-71925000D01*
G75*
G02*
X142300000Y-71875000I0J50000D01*
G01*
G37*
G36*
G01*
X142300000Y-83875000D02*
X142300000Y-81875000D01*
G75*
G02*
X142350000Y-81825000I50000J0D01*
G01*
X144350000Y-81825000D01*
G75*
G02*
X144400000Y-81875000I0J-50000D01*
G01*
X144400000Y-83875000D01*
G75*
G02*
X144350000Y-83925000I-50000J0D01*
G01*
X142350000Y-83925000D01*
G75*
G02*
X142300000Y-83875000I0J50000D01*
G01*
G37*
G36*
G01*
X135350000Y-93475000D02*
X135350000Y-92275000D01*
G75*
G02*
X135400000Y-92225000I50000J0D01*
G01*
X136300000Y-92225000D01*
G75*
G02*
X136350000Y-92275000I0J-50000D01*
G01*
X136350000Y-93475000D01*
G75*
G02*
X136300000Y-93525000I-50000J0D01*
G01*
X135400000Y-93525000D01*
G75*
G02*
X135350000Y-93475000I0J50000D01*
G01*
G37*
G36*
G01*
X138650000Y-93475000D02*
X138650000Y-92275000D01*
G75*
G02*
X138700000Y-92225000I50000J0D01*
G01*
X139600000Y-92225000D01*
G75*
G02*
X139650000Y-92275000I0J-50000D01*
G01*
X139650000Y-93475000D01*
G75*
G02*
X139600000Y-93525000I-50000J0D01*
G01*
X138700000Y-93525000D01*
G75*
G02*
X138650000Y-93475000I0J50000D01*
G01*
G37*
D15*
X212204000Y-54972500D03*
X212204000Y-57722500D03*
G36*
G01*
X215654000Y-54997500D02*
X215654000Y-55997500D01*
G75*
G02*
X215604000Y-56047500I-50000J0D01*
G01*
X214054000Y-56047500D01*
G75*
G02*
X214004000Y-55997500I0J50000D01*
G01*
X214004000Y-54997500D01*
G75*
G02*
X214054000Y-54947500I50000J0D01*
G01*
X215604000Y-54947500D01*
G75*
G02*
X215654000Y-54997500I0J-50000D01*
G01*
G37*
G36*
G01*
X215654000Y-56697500D02*
X215654000Y-57697500D01*
G75*
G02*
X215604000Y-57747500I-50000J0D01*
G01*
X214054000Y-57747500D01*
G75*
G02*
X214004000Y-57697500I0J50000D01*
G01*
X214004000Y-56697500D01*
G75*
G02*
X214054000Y-56647500I50000J0D01*
G01*
X215604000Y-56647500D01*
G75*
G02*
X215654000Y-56697500I0J-50000D01*
G01*
G37*
G36*
G01*
X210404000Y-54997500D02*
X210404000Y-55997500D01*
G75*
G02*
X210354000Y-56047500I-50000J0D01*
G01*
X208804000Y-56047500D01*
G75*
G02*
X208754000Y-55997500I0J50000D01*
G01*
X208754000Y-54997500D01*
G75*
G02*
X208804000Y-54947500I50000J0D01*
G01*
X210354000Y-54947500D01*
G75*
G02*
X210404000Y-54997500I0J-50000D01*
G01*
G37*
G36*
G01*
X210404000Y-56697500D02*
X210404000Y-57697500D01*
G75*
G02*
X210354000Y-57747500I-50000J0D01*
G01*
X208804000Y-57747500D01*
G75*
G02*
X208754000Y-57697500I0J50000D01*
G01*
X208754000Y-56697500D01*
G75*
G02*
X208804000Y-56647500I50000J0D01*
G01*
X210354000Y-56647500D01*
G75*
G02*
X210404000Y-56697500I0J-50000D01*
G01*
G37*
G36*
G01*
X190850000Y-77287500D02*
X190850000Y-76087500D01*
G75*
G02*
X190900000Y-76037500I50000J0D01*
G01*
X191800000Y-76037500D01*
G75*
G02*
X191850000Y-76087500I0J-50000D01*
G01*
X191850000Y-77287500D01*
G75*
G02*
X191800000Y-77337500I-50000J0D01*
G01*
X190900000Y-77337500D01*
G75*
G02*
X190850000Y-77287500I0J50000D01*
G01*
G37*
G36*
G01*
X194150000Y-77287500D02*
X194150000Y-76087500D01*
G75*
G02*
X194200000Y-76037500I50000J0D01*
G01*
X195100000Y-76037500D01*
G75*
G02*
X195150000Y-76087500I0J-50000D01*
G01*
X195150000Y-77287500D01*
G75*
G02*
X195100000Y-77337500I-50000J0D01*
G01*
X194200000Y-77337500D01*
G75*
G02*
X194150000Y-77287500I0J50000D01*
G01*
G37*
G36*
G01*
X219065000Y-97150000D02*
X218265000Y-97150000D01*
G75*
G02*
X218215000Y-97100000I0J50000D01*
G01*
X218215000Y-96100000D01*
G75*
G02*
X218265000Y-96050000I50000J0D01*
G01*
X219065000Y-96050000D01*
G75*
G02*
X219115000Y-96100000I0J-50000D01*
G01*
X219115000Y-97100000D01*
G75*
G02*
X219065000Y-97150000I-50000J0D01*
G01*
G37*
G36*
G01*
X219065000Y-104450000D02*
X218265000Y-104450000D01*
G75*
G02*
X218215000Y-104400000I0J50000D01*
G01*
X218215000Y-103400000D01*
G75*
G02*
X218265000Y-103350000I50000J0D01*
G01*
X219065000Y-103350000D01*
G75*
G02*
X219115000Y-103400000I0J-50000D01*
G01*
X219115000Y-104400000D01*
G75*
G02*
X219065000Y-104450000I-50000J0D01*
G01*
G37*
D16*
X219775000Y-98750000D03*
X219775000Y-101750000D03*
G36*
G01*
X221275000Y-97150000D02*
X220475000Y-97150000D01*
G75*
G02*
X220425000Y-97100000I0J50000D01*
G01*
X220425000Y-96100000D01*
G75*
G02*
X220475000Y-96050000I50000J0D01*
G01*
X221275000Y-96050000D01*
G75*
G02*
X221325000Y-96100000I0J-50000D01*
G01*
X221325000Y-97100000D01*
G75*
G02*
X221275000Y-97150000I-50000J0D01*
G01*
G37*
G36*
G01*
X221275000Y-104450000D02*
X220475000Y-104450000D01*
G75*
G02*
X220425000Y-104400000I0J50000D01*
G01*
X220425000Y-103400000D01*
G75*
G02*
X220475000Y-103350000I50000J0D01*
G01*
X221275000Y-103350000D01*
G75*
G02*
X221325000Y-103400000I0J-50000D01*
G01*
X221325000Y-104400000D01*
G75*
G02*
X221275000Y-104450000I-50000J0D01*
G01*
G37*
G36*
G01*
X218765000Y-102900000D02*
X217265000Y-102900000D01*
G75*
G02*
X217215000Y-102850000I0J50000D01*
G01*
X217215000Y-102150000D01*
G75*
G02*
X217265000Y-102100000I50000J0D01*
G01*
X218765000Y-102100000D01*
G75*
G02*
X218815000Y-102150000I0J-50000D01*
G01*
X218815000Y-102850000D01*
G75*
G02*
X218765000Y-102900000I-50000J0D01*
G01*
G37*
G36*
G01*
X218765000Y-99900000D02*
X217265000Y-99900000D01*
G75*
G02*
X217215000Y-99850000I0J50000D01*
G01*
X217215000Y-99150000D01*
G75*
G02*
X217265000Y-99100000I50000J0D01*
G01*
X218765000Y-99100000D01*
G75*
G02*
X218815000Y-99150000I0J-50000D01*
G01*
X218815000Y-99850000D01*
G75*
G02*
X218765000Y-99900000I-50000J0D01*
G01*
G37*
G36*
G01*
X218765000Y-98400000D02*
X217265000Y-98400000D01*
G75*
G02*
X217215000Y-98350000I0J50000D01*
G01*
X217215000Y-97650000D01*
G75*
G02*
X217265000Y-97600000I50000J0D01*
G01*
X218765000Y-97600000D01*
G75*
G02*
X218815000Y-97650000I0J-50000D01*
G01*
X218815000Y-98350000D01*
G75*
G02*
X218765000Y-98400000I-50000J0D01*
G01*
G37*
D10*
X168200000Y-98125000D03*
D11*
X168219000Y-92602000D03*
X179800000Y-92625000D03*
D10*
X179819000Y-98102000D03*
G36*
G01*
X170675000Y-99025000D02*
X170675000Y-97025000D01*
G75*
G02*
X170725000Y-96975000I50000J0D01*
G01*
X172275000Y-96975000D01*
G75*
G02*
X172325000Y-97025000I0J-50000D01*
G01*
X172325000Y-99025000D01*
G75*
G02*
X172275000Y-99075000I-50000J0D01*
G01*
X170725000Y-99075000D01*
G75*
G02*
X170675000Y-99025000I0J50000D01*
G01*
G37*
G36*
G01*
X175675000Y-99025000D02*
X175675000Y-97025000D01*
G75*
G02*
X175725000Y-96975000I50000J0D01*
G01*
X177275000Y-96975000D01*
G75*
G02*
X177325000Y-97025000I0J-50000D01*
G01*
X177325000Y-99025000D01*
G75*
G02*
X177275000Y-99075000I-50000J0D01*
G01*
X175725000Y-99075000D01*
G75*
G02*
X175675000Y-99025000I0J50000D01*
G01*
G37*
G36*
G01*
X166600000Y-90375000D02*
X166600000Y-88375000D01*
G75*
G02*
X166650000Y-88325000I50000J0D01*
G01*
X168650000Y-88325000D01*
G75*
G02*
X168700000Y-88375000I0J-50000D01*
G01*
X168700000Y-90375000D01*
G75*
G02*
X168650000Y-90425000I-50000J0D01*
G01*
X166650000Y-90425000D01*
G75*
G02*
X166600000Y-90375000I0J50000D01*
G01*
G37*
G36*
G01*
X166600000Y-102375000D02*
X166600000Y-100375000D01*
G75*
G02*
X166650000Y-100325000I50000J0D01*
G01*
X168650000Y-100325000D01*
G75*
G02*
X168700000Y-100375000I0J-50000D01*
G01*
X168700000Y-102375000D01*
G75*
G02*
X168650000Y-102425000I-50000J0D01*
G01*
X166650000Y-102425000D01*
G75*
G02*
X166600000Y-102375000I0J50000D01*
G01*
G37*
G36*
G01*
X179300000Y-90375000D02*
X179300000Y-88375000D01*
G75*
G02*
X179350000Y-88325000I50000J0D01*
G01*
X181350000Y-88325000D01*
G75*
G02*
X181400000Y-88375000I0J-50000D01*
G01*
X181400000Y-90375000D01*
G75*
G02*
X181350000Y-90425000I-50000J0D01*
G01*
X179350000Y-90425000D01*
G75*
G02*
X179300000Y-90375000I0J50000D01*
G01*
G37*
G36*
G01*
X179300000Y-102375000D02*
X179300000Y-100375000D01*
G75*
G02*
X179350000Y-100325000I50000J0D01*
G01*
X181350000Y-100325000D01*
G75*
G02*
X181400000Y-100375000I0J-50000D01*
G01*
X181400000Y-102375000D01*
G75*
G02*
X181350000Y-102425000I-50000J0D01*
G01*
X179350000Y-102425000D01*
G75*
G02*
X179300000Y-102375000I0J50000D01*
G01*
G37*
G36*
G01*
X217334000Y-60020000D02*
X217334000Y-58820000D01*
G75*
G02*
X217384000Y-58770000I50000J0D01*
G01*
X217984000Y-58770000D01*
G75*
G02*
X218034000Y-58820000I0J-50000D01*
G01*
X218034000Y-60020000D01*
G75*
G02*
X217984000Y-60070000I-50000J0D01*
G01*
X217384000Y-60070000D01*
G75*
G02*
X217334000Y-60020000I0J50000D01*
G01*
G37*
D13*
X219824000Y-59420000D03*
G36*
G01*
X217334000Y-62560000D02*
X217334000Y-61360000D01*
G75*
G02*
X217384000Y-61310000I50000J0D01*
G01*
X217984000Y-61310000D01*
G75*
G02*
X218034000Y-61360000I0J-50000D01*
G01*
X218034000Y-62560000D01*
G75*
G02*
X217984000Y-62610000I-50000J0D01*
G01*
X217384000Y-62610000D01*
G75*
G02*
X217334000Y-62560000I0J50000D01*
G01*
G37*
X219824000Y-61960000D03*
G36*
G01*
X217334000Y-65100000D02*
X217334000Y-63900000D01*
G75*
G02*
X217384000Y-63850000I50000J0D01*
G01*
X217984000Y-63850000D01*
G75*
G02*
X218034000Y-63900000I0J-50000D01*
G01*
X218034000Y-65100000D01*
G75*
G02*
X217984000Y-65150000I-50000J0D01*
G01*
X217384000Y-65150000D01*
G75*
G02*
X217334000Y-65100000I0J50000D01*
G01*
G37*
X219824000Y-64500000D03*
G36*
G01*
X217334000Y-67640000D02*
X217334000Y-66440000D01*
G75*
G02*
X217384000Y-66390000I50000J0D01*
G01*
X217984000Y-66390000D01*
G75*
G02*
X218034000Y-66440000I0J-50000D01*
G01*
X218034000Y-67640000D01*
G75*
G02*
X217984000Y-67690000I-50000J0D01*
G01*
X217384000Y-67690000D01*
G75*
G02*
X217334000Y-67640000I0J50000D01*
G01*
G37*
X219824000Y-67040000D03*
G36*
G01*
X217334000Y-70180000D02*
X217334000Y-68980000D01*
G75*
G02*
X217384000Y-68930000I50000J0D01*
G01*
X217984000Y-68930000D01*
G75*
G02*
X218034000Y-68980000I0J-50000D01*
G01*
X218034000Y-70180000D01*
G75*
G02*
X217984000Y-70230000I-50000J0D01*
G01*
X217384000Y-70230000D01*
G75*
G02*
X217334000Y-70180000I0J50000D01*
G01*
G37*
X219824000Y-69580000D03*
G36*
G01*
X217334000Y-72720000D02*
X217334000Y-71520000D01*
G75*
G02*
X217384000Y-71470000I50000J0D01*
G01*
X217984000Y-71470000D01*
G75*
G02*
X218034000Y-71520000I0J-50000D01*
G01*
X218034000Y-72720000D01*
G75*
G02*
X217984000Y-72770000I-50000J0D01*
G01*
X217384000Y-72770000D01*
G75*
G02*
X217334000Y-72720000I0J50000D01*
G01*
G37*
X219824000Y-72120000D03*
G36*
G01*
X217334000Y-75260000D02*
X217334000Y-74060000D01*
G75*
G02*
X217384000Y-74010000I50000J0D01*
G01*
X217984000Y-74010000D01*
G75*
G02*
X218034000Y-74060000I0J-50000D01*
G01*
X218034000Y-75260000D01*
G75*
G02*
X217984000Y-75310000I-50000J0D01*
G01*
X217384000Y-75310000D01*
G75*
G02*
X217334000Y-75260000I0J50000D01*
G01*
G37*
X219824000Y-74660000D03*
G36*
G01*
X217334000Y-77800000D02*
X217334000Y-76600000D01*
G75*
G02*
X217384000Y-76550000I50000J0D01*
G01*
X217984000Y-76550000D01*
G75*
G02*
X218034000Y-76600000I0J-50000D01*
G01*
X218034000Y-77800000D01*
G75*
G02*
X217984000Y-77850000I-50000J0D01*
G01*
X217384000Y-77850000D01*
G75*
G02*
X217334000Y-77800000I0J50000D01*
G01*
G37*
X219824000Y-77200000D03*
G36*
G01*
X217334000Y-80340000D02*
X217334000Y-79140000D01*
G75*
G02*
X217384000Y-79090000I50000J0D01*
G01*
X217984000Y-79090000D01*
G75*
G02*
X218034000Y-79140000I0J-50000D01*
G01*
X218034000Y-80340000D01*
G75*
G02*
X217984000Y-80390000I-50000J0D01*
G01*
X217384000Y-80390000D01*
G75*
G02*
X217334000Y-80340000I0J50000D01*
G01*
G37*
X219824000Y-79740000D03*
G36*
G01*
X217334000Y-82880000D02*
X217334000Y-81680000D01*
G75*
G02*
X217384000Y-81630000I50000J0D01*
G01*
X217984000Y-81630000D01*
G75*
G02*
X218034000Y-81680000I0J-50000D01*
G01*
X218034000Y-82880000D01*
G75*
G02*
X217984000Y-82930000I-50000J0D01*
G01*
X217384000Y-82930000D01*
G75*
G02*
X217334000Y-82880000I0J50000D01*
G01*
G37*
X219824000Y-82280000D03*
G36*
G01*
X217334000Y-85420000D02*
X217334000Y-84220000D01*
G75*
G02*
X217384000Y-84170000I50000J0D01*
G01*
X217984000Y-84170000D01*
G75*
G02*
X218034000Y-84220000I0J-50000D01*
G01*
X218034000Y-85420000D01*
G75*
G02*
X217984000Y-85470000I-50000J0D01*
G01*
X217384000Y-85470000D01*
G75*
G02*
X217334000Y-85420000I0J50000D01*
G01*
G37*
X219824000Y-84820000D03*
G36*
G01*
X217334000Y-87960000D02*
X217334000Y-86760000D01*
G75*
G02*
X217384000Y-86710000I50000J0D01*
G01*
X217984000Y-86710000D01*
G75*
G02*
X218034000Y-86760000I0J-50000D01*
G01*
X218034000Y-87960000D01*
G75*
G02*
X217984000Y-88010000I-50000J0D01*
G01*
X217384000Y-88010000D01*
G75*
G02*
X217334000Y-87960000I0J50000D01*
G01*
G37*
X219824000Y-87360000D03*
X204584000Y-87360000D03*
G36*
G01*
X206374000Y-87960000D02*
X206374000Y-86760000D01*
G75*
G02*
X206424000Y-86710000I50000J0D01*
G01*
X207024000Y-86710000D01*
G75*
G02*
X207074000Y-86760000I0J-50000D01*
G01*
X207074000Y-87960000D01*
G75*
G02*
X207024000Y-88010000I-50000J0D01*
G01*
X206424000Y-88010000D01*
G75*
G02*
X206374000Y-87960000I0J50000D01*
G01*
G37*
X204584000Y-84820000D03*
G36*
G01*
X206374000Y-85420000D02*
X206374000Y-84220000D01*
G75*
G02*
X206424000Y-84170000I50000J0D01*
G01*
X207024000Y-84170000D01*
G75*
G02*
X207074000Y-84220000I0J-50000D01*
G01*
X207074000Y-85420000D01*
G75*
G02*
X207024000Y-85470000I-50000J0D01*
G01*
X206424000Y-85470000D01*
G75*
G02*
X206374000Y-85420000I0J50000D01*
G01*
G37*
X204584000Y-82280000D03*
G36*
G01*
X206374000Y-82880000D02*
X206374000Y-81680000D01*
G75*
G02*
X206424000Y-81630000I50000J0D01*
G01*
X207024000Y-81630000D01*
G75*
G02*
X207074000Y-81680000I0J-50000D01*
G01*
X207074000Y-82880000D01*
G75*
G02*
X207024000Y-82930000I-50000J0D01*
G01*
X206424000Y-82930000D01*
G75*
G02*
X206374000Y-82880000I0J50000D01*
G01*
G37*
X204584000Y-79740000D03*
G36*
G01*
X206374000Y-80340000D02*
X206374000Y-79140000D01*
G75*
G02*
X206424000Y-79090000I50000J0D01*
G01*
X207024000Y-79090000D01*
G75*
G02*
X207074000Y-79140000I0J-50000D01*
G01*
X207074000Y-80340000D01*
G75*
G02*
X207024000Y-80390000I-50000J0D01*
G01*
X206424000Y-80390000D01*
G75*
G02*
X206374000Y-80340000I0J50000D01*
G01*
G37*
X204584000Y-77200000D03*
G36*
G01*
X206374000Y-77800000D02*
X206374000Y-76600000D01*
G75*
G02*
X206424000Y-76550000I50000J0D01*
G01*
X207024000Y-76550000D01*
G75*
G02*
X207074000Y-76600000I0J-50000D01*
G01*
X207074000Y-77800000D01*
G75*
G02*
X207024000Y-77850000I-50000J0D01*
G01*
X206424000Y-77850000D01*
G75*
G02*
X206374000Y-77800000I0J50000D01*
G01*
G37*
X204584000Y-74660000D03*
G36*
G01*
X206374000Y-75260000D02*
X206374000Y-74060000D01*
G75*
G02*
X206424000Y-74010000I50000J0D01*
G01*
X207024000Y-74010000D01*
G75*
G02*
X207074000Y-74060000I0J-50000D01*
G01*
X207074000Y-75260000D01*
G75*
G02*
X207024000Y-75310000I-50000J0D01*
G01*
X206424000Y-75310000D01*
G75*
G02*
X206374000Y-75260000I0J50000D01*
G01*
G37*
X204584000Y-72120000D03*
G36*
G01*
X206374000Y-72720000D02*
X206374000Y-71520000D01*
G75*
G02*
X206424000Y-71470000I50000J0D01*
G01*
X207024000Y-71470000D01*
G75*
G02*
X207074000Y-71520000I0J-50000D01*
G01*
X207074000Y-72720000D01*
G75*
G02*
X207024000Y-72770000I-50000J0D01*
G01*
X206424000Y-72770000D01*
G75*
G02*
X206374000Y-72720000I0J50000D01*
G01*
G37*
X204584000Y-69580000D03*
G36*
G01*
X206374000Y-70180000D02*
X206374000Y-68980000D01*
G75*
G02*
X206424000Y-68930000I50000J0D01*
G01*
X207024000Y-68930000D01*
G75*
G02*
X207074000Y-68980000I0J-50000D01*
G01*
X207074000Y-70180000D01*
G75*
G02*
X207024000Y-70230000I-50000J0D01*
G01*
X206424000Y-70230000D01*
G75*
G02*
X206374000Y-70180000I0J50000D01*
G01*
G37*
X204584000Y-67040000D03*
G36*
G01*
X206374000Y-67640000D02*
X206374000Y-66440000D01*
G75*
G02*
X206424000Y-66390000I50000J0D01*
G01*
X207024000Y-66390000D01*
G75*
G02*
X207074000Y-66440000I0J-50000D01*
G01*
X207074000Y-67640000D01*
G75*
G02*
X207024000Y-67690000I-50000J0D01*
G01*
X206424000Y-67690000D01*
G75*
G02*
X206374000Y-67640000I0J50000D01*
G01*
G37*
X204584000Y-64500000D03*
G36*
G01*
X206374000Y-65100000D02*
X206374000Y-63900000D01*
G75*
G02*
X206424000Y-63850000I50000J0D01*
G01*
X207024000Y-63850000D01*
G75*
G02*
X207074000Y-63900000I0J-50000D01*
G01*
X207074000Y-65100000D01*
G75*
G02*
X207024000Y-65150000I-50000J0D01*
G01*
X206424000Y-65150000D01*
G75*
G02*
X206374000Y-65100000I0J50000D01*
G01*
G37*
X204584000Y-61960000D03*
G36*
G01*
X206374000Y-62560000D02*
X206374000Y-61360000D01*
G75*
G02*
X206424000Y-61310000I50000J0D01*
G01*
X207024000Y-61310000D01*
G75*
G02*
X207074000Y-61360000I0J-50000D01*
G01*
X207074000Y-62560000D01*
G75*
G02*
X207024000Y-62610000I-50000J0D01*
G01*
X206424000Y-62610000D01*
G75*
G02*
X206374000Y-62560000I0J50000D01*
G01*
G37*
X204584000Y-59420000D03*
G36*
G01*
X206374000Y-60020000D02*
X206374000Y-58820000D01*
G75*
G02*
X206424000Y-58770000I50000J0D01*
G01*
X207024000Y-58770000D01*
G75*
G02*
X207074000Y-58820000I0J-50000D01*
G01*
X207074000Y-60020000D01*
G75*
G02*
X207024000Y-60070000I-50000J0D01*
G01*
X206424000Y-60070000D01*
G75*
G02*
X206374000Y-60020000I0J50000D01*
G01*
G37*
D17*
X215604000Y-59420000D03*
G36*
G01*
X216434000Y-60020000D02*
X216434000Y-58820000D01*
G75*
G02*
X216484000Y-58770000I50000J0D01*
G01*
X217084000Y-58770000D01*
G75*
G02*
X217134000Y-58820000I0J-50000D01*
G01*
X217134000Y-60020000D01*
G75*
G02*
X217084000Y-60070000I-50000J0D01*
G01*
X216484000Y-60070000D01*
G75*
G02*
X216434000Y-60020000I0J50000D01*
G01*
G37*
X215604000Y-61960000D03*
G36*
G01*
X216434000Y-62560000D02*
X216434000Y-61360000D01*
G75*
G02*
X216484000Y-61310000I50000J0D01*
G01*
X217084000Y-61310000D01*
G75*
G02*
X217134000Y-61360000I0J-50000D01*
G01*
X217134000Y-62560000D01*
G75*
G02*
X217084000Y-62610000I-50000J0D01*
G01*
X216484000Y-62610000D01*
G75*
G02*
X216434000Y-62560000I0J50000D01*
G01*
G37*
X215604000Y-64500000D03*
G36*
G01*
X216434000Y-65100000D02*
X216434000Y-63900000D01*
G75*
G02*
X216484000Y-63850000I50000J0D01*
G01*
X217084000Y-63850000D01*
G75*
G02*
X217134000Y-63900000I0J-50000D01*
G01*
X217134000Y-65100000D01*
G75*
G02*
X217084000Y-65150000I-50000J0D01*
G01*
X216484000Y-65150000D01*
G75*
G02*
X216434000Y-65100000I0J50000D01*
G01*
G37*
X215604000Y-67040000D03*
G36*
G01*
X216434000Y-67640000D02*
X216434000Y-66440000D01*
G75*
G02*
X216484000Y-66390000I50000J0D01*
G01*
X217084000Y-66390000D01*
G75*
G02*
X217134000Y-66440000I0J-50000D01*
G01*
X217134000Y-67640000D01*
G75*
G02*
X217084000Y-67690000I-50000J0D01*
G01*
X216484000Y-67690000D01*
G75*
G02*
X216434000Y-67640000I0J50000D01*
G01*
G37*
X215604000Y-69580000D03*
G36*
G01*
X216434000Y-70180000D02*
X216434000Y-68980000D01*
G75*
G02*
X216484000Y-68930000I50000J0D01*
G01*
X217084000Y-68930000D01*
G75*
G02*
X217134000Y-68980000I0J-50000D01*
G01*
X217134000Y-70180000D01*
G75*
G02*
X217084000Y-70230000I-50000J0D01*
G01*
X216484000Y-70230000D01*
G75*
G02*
X216434000Y-70180000I0J50000D01*
G01*
G37*
X215604000Y-72120000D03*
G36*
G01*
X216434000Y-72720000D02*
X216434000Y-71520000D01*
G75*
G02*
X216484000Y-71470000I50000J0D01*
G01*
X217084000Y-71470000D01*
G75*
G02*
X217134000Y-71520000I0J-50000D01*
G01*
X217134000Y-72720000D01*
G75*
G02*
X217084000Y-72770000I-50000J0D01*
G01*
X216484000Y-72770000D01*
G75*
G02*
X216434000Y-72720000I0J50000D01*
G01*
G37*
X215604000Y-74660000D03*
G36*
G01*
X216434000Y-75260000D02*
X216434000Y-74060000D01*
G75*
G02*
X216484000Y-74010000I50000J0D01*
G01*
X217084000Y-74010000D01*
G75*
G02*
X217134000Y-74060000I0J-50000D01*
G01*
X217134000Y-75260000D01*
G75*
G02*
X217084000Y-75310000I-50000J0D01*
G01*
X216484000Y-75310000D01*
G75*
G02*
X216434000Y-75260000I0J50000D01*
G01*
G37*
X215604000Y-77200000D03*
G36*
G01*
X216434000Y-77800000D02*
X216434000Y-76600000D01*
G75*
G02*
X216484000Y-76550000I50000J0D01*
G01*
X217084000Y-76550000D01*
G75*
G02*
X217134000Y-76600000I0J-50000D01*
G01*
X217134000Y-77800000D01*
G75*
G02*
X217084000Y-77850000I-50000J0D01*
G01*
X216484000Y-77850000D01*
G75*
G02*
X216434000Y-77800000I0J50000D01*
G01*
G37*
X215604000Y-79740000D03*
G36*
G01*
X216434000Y-80340000D02*
X216434000Y-79140000D01*
G75*
G02*
X216484000Y-79090000I50000J0D01*
G01*
X217084000Y-79090000D01*
G75*
G02*
X217134000Y-79140000I0J-50000D01*
G01*
X217134000Y-80340000D01*
G75*
G02*
X217084000Y-80390000I-50000J0D01*
G01*
X216484000Y-80390000D01*
G75*
G02*
X216434000Y-80340000I0J50000D01*
G01*
G37*
X215604000Y-82280000D03*
G36*
G01*
X216434000Y-82880000D02*
X216434000Y-81680000D01*
G75*
G02*
X216484000Y-81630000I50000J0D01*
G01*
X217084000Y-81630000D01*
G75*
G02*
X217134000Y-81680000I0J-50000D01*
G01*
X217134000Y-82880000D01*
G75*
G02*
X217084000Y-82930000I-50000J0D01*
G01*
X216484000Y-82930000D01*
G75*
G02*
X216434000Y-82880000I0J50000D01*
G01*
G37*
X215604000Y-84820000D03*
G36*
G01*
X216434000Y-85420000D02*
X216434000Y-84220000D01*
G75*
G02*
X216484000Y-84170000I50000J0D01*
G01*
X217084000Y-84170000D01*
G75*
G02*
X217134000Y-84220000I0J-50000D01*
G01*
X217134000Y-85420000D01*
G75*
G02*
X217084000Y-85470000I-50000J0D01*
G01*
X216484000Y-85470000D01*
G75*
G02*
X216434000Y-85420000I0J50000D01*
G01*
G37*
X215604000Y-87360000D03*
G36*
G01*
X216434000Y-87960000D02*
X216434000Y-86760000D01*
G75*
G02*
X216484000Y-86710000I50000J0D01*
G01*
X217084000Y-86710000D01*
G75*
G02*
X217134000Y-86760000I0J-50000D01*
G01*
X217134000Y-87960000D01*
G75*
G02*
X217084000Y-88010000I-50000J0D01*
G01*
X216484000Y-88010000D01*
G75*
G02*
X216434000Y-87960000I0J50000D01*
G01*
G37*
G36*
G01*
X207274000Y-87960000D02*
X207274000Y-86760000D01*
G75*
G02*
X207324000Y-86710000I50000J0D01*
G01*
X207924000Y-86710000D01*
G75*
G02*
X207974000Y-86760000I0J-50000D01*
G01*
X207974000Y-87960000D01*
G75*
G02*
X207924000Y-88010000I-50000J0D01*
G01*
X207324000Y-88010000D01*
G75*
G02*
X207274000Y-87960000I0J50000D01*
G01*
G37*
X208804000Y-87360000D03*
G36*
G01*
X207274000Y-85420000D02*
X207274000Y-84220000D01*
G75*
G02*
X207324000Y-84170000I50000J0D01*
G01*
X207924000Y-84170000D01*
G75*
G02*
X207974000Y-84220000I0J-50000D01*
G01*
X207974000Y-85420000D01*
G75*
G02*
X207924000Y-85470000I-50000J0D01*
G01*
X207324000Y-85470000D01*
G75*
G02*
X207274000Y-85420000I0J50000D01*
G01*
G37*
X208804000Y-84820000D03*
G36*
G01*
X207274000Y-82880000D02*
X207274000Y-81680000D01*
G75*
G02*
X207324000Y-81630000I50000J0D01*
G01*
X207924000Y-81630000D01*
G75*
G02*
X207974000Y-81680000I0J-50000D01*
G01*
X207974000Y-82880000D01*
G75*
G02*
X207924000Y-82930000I-50000J0D01*
G01*
X207324000Y-82930000D01*
G75*
G02*
X207274000Y-82880000I0J50000D01*
G01*
G37*
X208804000Y-82280000D03*
G36*
G01*
X207274000Y-80340000D02*
X207274000Y-79140000D01*
G75*
G02*
X207324000Y-79090000I50000J0D01*
G01*
X207924000Y-79090000D01*
G75*
G02*
X207974000Y-79140000I0J-50000D01*
G01*
X207974000Y-80340000D01*
G75*
G02*
X207924000Y-80390000I-50000J0D01*
G01*
X207324000Y-80390000D01*
G75*
G02*
X207274000Y-80340000I0J50000D01*
G01*
G37*
X208804000Y-79740000D03*
G36*
G01*
X207274000Y-77800000D02*
X207274000Y-76600000D01*
G75*
G02*
X207324000Y-76550000I50000J0D01*
G01*
X207924000Y-76550000D01*
G75*
G02*
X207974000Y-76600000I0J-50000D01*
G01*
X207974000Y-77800000D01*
G75*
G02*
X207924000Y-77850000I-50000J0D01*
G01*
X207324000Y-77850000D01*
G75*
G02*
X207274000Y-77800000I0J50000D01*
G01*
G37*
X208804000Y-77200000D03*
G36*
G01*
X207274000Y-75260000D02*
X207274000Y-74060000D01*
G75*
G02*
X207324000Y-74010000I50000J0D01*
G01*
X207924000Y-74010000D01*
G75*
G02*
X207974000Y-74060000I0J-50000D01*
G01*
X207974000Y-75260000D01*
G75*
G02*
X207924000Y-75310000I-50000J0D01*
G01*
X207324000Y-75310000D01*
G75*
G02*
X207274000Y-75260000I0J50000D01*
G01*
G37*
X208804000Y-74660000D03*
G36*
G01*
X207274000Y-72720000D02*
X207274000Y-71520000D01*
G75*
G02*
X207324000Y-71470000I50000J0D01*
G01*
X207924000Y-71470000D01*
G75*
G02*
X207974000Y-71520000I0J-50000D01*
G01*
X207974000Y-72720000D01*
G75*
G02*
X207924000Y-72770000I-50000J0D01*
G01*
X207324000Y-72770000D01*
G75*
G02*
X207274000Y-72720000I0J50000D01*
G01*
G37*
X208804000Y-72120000D03*
G36*
G01*
X207274000Y-70180000D02*
X207274000Y-68980000D01*
G75*
G02*
X207324000Y-68930000I50000J0D01*
G01*
X207924000Y-68930000D01*
G75*
G02*
X207974000Y-68980000I0J-50000D01*
G01*
X207974000Y-70180000D01*
G75*
G02*
X207924000Y-70230000I-50000J0D01*
G01*
X207324000Y-70230000D01*
G75*
G02*
X207274000Y-70180000I0J50000D01*
G01*
G37*
X208804000Y-69580000D03*
G36*
G01*
X207274000Y-67640000D02*
X207274000Y-66440000D01*
G75*
G02*
X207324000Y-66390000I50000J0D01*
G01*
X207924000Y-66390000D01*
G75*
G02*
X207974000Y-66440000I0J-50000D01*
G01*
X207974000Y-67640000D01*
G75*
G02*
X207924000Y-67690000I-50000J0D01*
G01*
X207324000Y-67690000D01*
G75*
G02*
X207274000Y-67640000I0J50000D01*
G01*
G37*
X208804000Y-67040000D03*
G36*
G01*
X207274000Y-65100000D02*
X207274000Y-63900000D01*
G75*
G02*
X207324000Y-63850000I50000J0D01*
G01*
X207924000Y-63850000D01*
G75*
G02*
X207974000Y-63900000I0J-50000D01*
G01*
X207974000Y-65100000D01*
G75*
G02*
X207924000Y-65150000I-50000J0D01*
G01*
X207324000Y-65150000D01*
G75*
G02*
X207274000Y-65100000I0J50000D01*
G01*
G37*
X208804000Y-64500000D03*
G36*
G01*
X207274000Y-62560000D02*
X207274000Y-61360000D01*
G75*
G02*
X207324000Y-61310000I50000J0D01*
G01*
X207924000Y-61310000D01*
G75*
G02*
X207974000Y-61360000I0J-50000D01*
G01*
X207974000Y-62560000D01*
G75*
G02*
X207924000Y-62610000I-50000J0D01*
G01*
X207324000Y-62610000D01*
G75*
G02*
X207274000Y-62560000I0J50000D01*
G01*
G37*
X208804000Y-61960000D03*
G36*
G01*
X207274000Y-60020000D02*
X207274000Y-58820000D01*
G75*
G02*
X207324000Y-58770000I50000J0D01*
G01*
X207924000Y-58770000D01*
G75*
G02*
X207974000Y-58820000I0J-50000D01*
G01*
X207974000Y-60020000D01*
G75*
G02*
X207924000Y-60070000I-50000J0D01*
G01*
X207324000Y-60070000D01*
G75*
G02*
X207274000Y-60020000I0J50000D01*
G01*
G37*
X208804000Y-59420000D03*
D10*
X158950000Y-117312500D03*
D11*
X158969000Y-111789500D03*
X170550000Y-111812500D03*
D10*
X170569000Y-117289500D03*
G36*
G01*
X161425000Y-118212500D02*
X161425000Y-116212500D01*
G75*
G02*
X161475000Y-116162500I50000J0D01*
G01*
X163025000Y-116162500D01*
G75*
G02*
X163075000Y-116212500I0J-50000D01*
G01*
X163075000Y-118212500D01*
G75*
G02*
X163025000Y-118262500I-50000J0D01*
G01*
X161475000Y-118262500D01*
G75*
G02*
X161425000Y-118212500I0J50000D01*
G01*
G37*
G36*
G01*
X166425000Y-118212500D02*
X166425000Y-116212500D01*
G75*
G02*
X166475000Y-116162500I50000J0D01*
G01*
X168025000Y-116162500D01*
G75*
G02*
X168075000Y-116212500I0J-50000D01*
G01*
X168075000Y-118212500D01*
G75*
G02*
X168025000Y-118262500I-50000J0D01*
G01*
X166475000Y-118262500D01*
G75*
G02*
X166425000Y-118212500I0J50000D01*
G01*
G37*
G36*
G01*
X157350000Y-109562500D02*
X157350000Y-107562500D01*
G75*
G02*
X157400000Y-107512500I50000J0D01*
G01*
X159400000Y-107512500D01*
G75*
G02*
X159450000Y-107562500I0J-50000D01*
G01*
X159450000Y-109562500D01*
G75*
G02*
X159400000Y-109612500I-50000J0D01*
G01*
X157400000Y-109612500D01*
G75*
G02*
X157350000Y-109562500I0J50000D01*
G01*
G37*
G36*
G01*
X157350000Y-121562500D02*
X157350000Y-119562500D01*
G75*
G02*
X157400000Y-119512500I50000J0D01*
G01*
X159400000Y-119512500D01*
G75*
G02*
X159450000Y-119562500I0J-50000D01*
G01*
X159450000Y-121562500D01*
G75*
G02*
X159400000Y-121612500I-50000J0D01*
G01*
X157400000Y-121612500D01*
G75*
G02*
X157350000Y-121562500I0J50000D01*
G01*
G37*
G36*
G01*
X170050000Y-109562500D02*
X170050000Y-107562500D01*
G75*
G02*
X170100000Y-107512500I50000J0D01*
G01*
X172100000Y-107512500D01*
G75*
G02*
X172150000Y-107562500I0J-50000D01*
G01*
X172150000Y-109562500D01*
G75*
G02*
X172100000Y-109612500I-50000J0D01*
G01*
X170100000Y-109612500D01*
G75*
G02*
X170050000Y-109562500I0J50000D01*
G01*
G37*
G36*
G01*
X170050000Y-121562500D02*
X170050000Y-119562500D01*
G75*
G02*
X170100000Y-119512500I50000J0D01*
G01*
X172100000Y-119512500D01*
G75*
G02*
X172150000Y-119562500I0J-50000D01*
G01*
X172150000Y-121562500D01*
G75*
G02*
X172100000Y-121612500I-50000J0D01*
G01*
X170100000Y-121612500D01*
G75*
G02*
X170050000Y-121562500I0J50000D01*
G01*
G37*
G36*
G01*
X116850000Y-61100000D02*
X116850000Y-59900000D01*
G75*
G02*
X116900000Y-59850000I50000J0D01*
G01*
X117800000Y-59850000D01*
G75*
G02*
X117850000Y-59900000I0J-50000D01*
G01*
X117850000Y-61100000D01*
G75*
G02*
X117800000Y-61150000I-50000J0D01*
G01*
X116900000Y-61150000D01*
G75*
G02*
X116850000Y-61100000I0J50000D01*
G01*
G37*
G36*
G01*
X120150000Y-61100000D02*
X120150000Y-59900000D01*
G75*
G02*
X120200000Y-59850000I50000J0D01*
G01*
X121100000Y-59850000D01*
G75*
G02*
X121150000Y-59900000I0J-50000D01*
G01*
X121150000Y-61100000D01*
G75*
G02*
X121100000Y-61150000I-50000J0D01*
G01*
X120200000Y-61150000D01*
G75*
G02*
X120150000Y-61100000I0J50000D01*
G01*
G37*
G36*
G01*
X98350000Y-61100000D02*
X98350000Y-59900000D01*
G75*
G02*
X98400000Y-59850000I50000J0D01*
G01*
X99300000Y-59850000D01*
G75*
G02*
X99350000Y-59900000I0J-50000D01*
G01*
X99350000Y-61100000D01*
G75*
G02*
X99300000Y-61150000I-50000J0D01*
G01*
X98400000Y-61150000D01*
G75*
G02*
X98350000Y-61100000I0J50000D01*
G01*
G37*
G36*
G01*
X101650000Y-61100000D02*
X101650000Y-59900000D01*
G75*
G02*
X101700000Y-59850000I50000J0D01*
G01*
X102600000Y-59850000D01*
G75*
G02*
X102650000Y-59900000I0J-50000D01*
G01*
X102650000Y-61100000D01*
G75*
G02*
X102600000Y-61150000I-50000J0D01*
G01*
X101700000Y-61150000D01*
G75*
G02*
X101650000Y-61100000I0J50000D01*
G01*
G37*
G36*
G01*
X98350000Y-79600000D02*
X98350000Y-78400000D01*
G75*
G02*
X98400000Y-78350000I50000J0D01*
G01*
X99300000Y-78350000D01*
G75*
G02*
X99350000Y-78400000I0J-50000D01*
G01*
X99350000Y-79600000D01*
G75*
G02*
X99300000Y-79650000I-50000J0D01*
G01*
X98400000Y-79650000D01*
G75*
G02*
X98350000Y-79600000I0J50000D01*
G01*
G37*
G36*
G01*
X101650000Y-79600000D02*
X101650000Y-78400000D01*
G75*
G02*
X101700000Y-78350000I50000J0D01*
G01*
X102600000Y-78350000D01*
G75*
G02*
X102650000Y-78400000I0J-50000D01*
G01*
X102650000Y-79600000D01*
G75*
G02*
X102600000Y-79650000I-50000J0D01*
G01*
X101700000Y-79650000D01*
G75*
G02*
X101650000Y-79600000I0J50000D01*
G01*
G37*
G36*
X212101355Y-100635355D02*
G01*
X212066000Y-100650000D01*
X210816000Y-100650000D01*
X210780645Y-100635355D01*
X210766000Y-100600000D01*
X210780645Y-100564645D01*
X211345290Y-100000000D01*
X210780645Y-99435355D01*
X210766000Y-99400000D01*
X210780645Y-99364645D01*
X210816000Y-99350000D01*
X212066000Y-99350000D01*
X212101355Y-99364645D01*
X212116000Y-99400000D01*
X212116000Y-100600000D01*
X212101355Y-100635355D01*
G37*
G36*
X212101355Y-98635355D02*
G01*
X212066000Y-98650000D01*
X210816000Y-98650000D01*
X210780645Y-98635355D01*
X210766000Y-98600000D01*
X210780645Y-98564645D01*
X211345290Y-98000000D01*
X210780645Y-97435355D01*
X210766000Y-97400000D01*
X210780645Y-97364645D01*
X210816000Y-97350000D01*
X212066000Y-97350000D01*
X212101355Y-97364645D01*
X212116000Y-97400000D01*
X212116000Y-98600000D01*
X212101355Y-98635355D01*
G37*
D18*
X209000000Y-100000000D03*
X209000000Y-98000000D03*
G36*
X211235355Y-100035355D02*
G01*
X210635355Y-100635355D01*
X210600000Y-100650000D01*
X210400000Y-100650000D01*
X210364645Y-100635355D01*
X210350000Y-100600000D01*
X210350000Y-99400000D01*
X210364645Y-99364645D01*
X210400000Y-99350000D01*
X210600000Y-99350000D01*
X210635355Y-99364645D01*
X211235355Y-99964645D01*
X211250000Y-100000000D01*
X211235355Y-100035355D01*
G37*
G36*
X211235355Y-98035355D02*
G01*
X210635355Y-98635355D01*
X210600000Y-98650000D01*
X210400000Y-98650000D01*
X210364645Y-98635355D01*
X210350000Y-98600000D01*
X210350000Y-97400000D01*
X210364645Y-97364645D01*
X210400000Y-97350000D01*
X210600000Y-97350000D01*
X210635355Y-97364645D01*
X211235355Y-97964645D01*
X211250000Y-98000000D01*
X211235355Y-98035355D01*
G37*
D10*
X94200000Y-84250000D03*
D11*
X94219000Y-78727000D03*
X105800000Y-78750000D03*
D10*
X105819000Y-84227000D03*
G36*
G01*
X96675000Y-85150000D02*
X96675000Y-83150000D01*
G75*
G02*
X96725000Y-83100000I50000J0D01*
G01*
X98275000Y-83100000D01*
G75*
G02*
X98325000Y-83150000I0J-50000D01*
G01*
X98325000Y-85150000D01*
G75*
G02*
X98275000Y-85200000I-50000J0D01*
G01*
X96725000Y-85200000D01*
G75*
G02*
X96675000Y-85150000I0J50000D01*
G01*
G37*
G36*
G01*
X101675000Y-85150000D02*
X101675000Y-83150000D01*
G75*
G02*
X101725000Y-83100000I50000J0D01*
G01*
X103275000Y-83100000D01*
G75*
G02*
X103325000Y-83150000I0J-50000D01*
G01*
X103325000Y-85150000D01*
G75*
G02*
X103275000Y-85200000I-50000J0D01*
G01*
X101725000Y-85200000D01*
G75*
G02*
X101675000Y-85150000I0J50000D01*
G01*
G37*
G36*
G01*
X92600000Y-76500000D02*
X92600000Y-74500000D01*
G75*
G02*
X92650000Y-74450000I50000J0D01*
G01*
X94650000Y-74450000D01*
G75*
G02*
X94700000Y-74500000I0J-50000D01*
G01*
X94700000Y-76500000D01*
G75*
G02*
X94650000Y-76550000I-50000J0D01*
G01*
X92650000Y-76550000D01*
G75*
G02*
X92600000Y-76500000I0J50000D01*
G01*
G37*
G36*
G01*
X92600000Y-88500000D02*
X92600000Y-86500000D01*
G75*
G02*
X92650000Y-86450000I50000J0D01*
G01*
X94650000Y-86450000D01*
G75*
G02*
X94700000Y-86500000I0J-50000D01*
G01*
X94700000Y-88500000D01*
G75*
G02*
X94650000Y-88550000I-50000J0D01*
G01*
X92650000Y-88550000D01*
G75*
G02*
X92600000Y-88500000I0J50000D01*
G01*
G37*
G36*
G01*
X105300000Y-76500000D02*
X105300000Y-74500000D01*
G75*
G02*
X105350000Y-74450000I50000J0D01*
G01*
X107350000Y-74450000D01*
G75*
G02*
X107400000Y-74500000I0J-50000D01*
G01*
X107400000Y-76500000D01*
G75*
G02*
X107350000Y-76550000I-50000J0D01*
G01*
X105350000Y-76550000D01*
G75*
G02*
X105300000Y-76500000I0J50000D01*
G01*
G37*
G36*
G01*
X105300000Y-88500000D02*
X105300000Y-86500000D01*
G75*
G02*
X105350000Y-86450000I50000J0D01*
G01*
X107350000Y-86450000D01*
G75*
G02*
X107400000Y-86500000I0J-50000D01*
G01*
X107400000Y-88500000D01*
G75*
G02*
X107350000Y-88550000I-50000J0D01*
G01*
X105350000Y-88550000D01*
G75*
G02*
X105300000Y-88500000I0J50000D01*
G01*
G37*
X186700000Y-44937500D03*
D11*
X186719000Y-39414500D03*
X198300000Y-39437500D03*
D10*
X198319000Y-44914500D03*
G36*
G01*
X189175000Y-45837500D02*
X189175000Y-43837500D01*
G75*
G02*
X189225000Y-43787500I50000J0D01*
G01*
X190775000Y-43787500D01*
G75*
G02*
X190825000Y-43837500I0J-50000D01*
G01*
X190825000Y-45837500D01*
G75*
G02*
X190775000Y-45887500I-50000J0D01*
G01*
X189225000Y-45887500D01*
G75*
G02*
X189175000Y-45837500I0J50000D01*
G01*
G37*
G36*
G01*
X194175000Y-45837500D02*
X194175000Y-43837500D01*
G75*
G02*
X194225000Y-43787500I50000J0D01*
G01*
X195775000Y-43787500D01*
G75*
G02*
X195825000Y-43837500I0J-50000D01*
G01*
X195825000Y-45837500D01*
G75*
G02*
X195775000Y-45887500I-50000J0D01*
G01*
X194225000Y-45887500D01*
G75*
G02*
X194175000Y-45837500I0J50000D01*
G01*
G37*
G36*
G01*
X185100000Y-37187500D02*
X185100000Y-35187500D01*
G75*
G02*
X185150000Y-35137500I50000J0D01*
G01*
X187150000Y-35137500D01*
G75*
G02*
X187200000Y-35187500I0J-50000D01*
G01*
X187200000Y-37187500D01*
G75*
G02*
X187150000Y-37237500I-50000J0D01*
G01*
X185150000Y-37237500D01*
G75*
G02*
X185100000Y-37187500I0J50000D01*
G01*
G37*
G36*
G01*
X185100000Y-49187500D02*
X185100000Y-47187500D01*
G75*
G02*
X185150000Y-47137500I50000J0D01*
G01*
X187150000Y-47137500D01*
G75*
G02*
X187200000Y-47187500I0J-50000D01*
G01*
X187200000Y-49187500D01*
G75*
G02*
X187150000Y-49237500I-50000J0D01*
G01*
X185150000Y-49237500D01*
G75*
G02*
X185100000Y-49187500I0J50000D01*
G01*
G37*
G36*
G01*
X197800000Y-37187500D02*
X197800000Y-35187500D01*
G75*
G02*
X197850000Y-35137500I50000J0D01*
G01*
X199850000Y-35137500D01*
G75*
G02*
X199900000Y-35187500I0J-50000D01*
G01*
X199900000Y-37187500D01*
G75*
G02*
X199850000Y-37237500I-50000J0D01*
G01*
X197850000Y-37237500D01*
G75*
G02*
X197800000Y-37187500I0J50000D01*
G01*
G37*
G36*
G01*
X197800000Y-49187500D02*
X197800000Y-47187500D01*
G75*
G02*
X197850000Y-47137500I50000J0D01*
G01*
X199850000Y-47137500D01*
G75*
G02*
X199900000Y-47187500I0J-50000D01*
G01*
X199900000Y-49187500D01*
G75*
G02*
X199850000Y-49237500I-50000J0D01*
G01*
X197850000Y-49237500D01*
G75*
G02*
X197800000Y-49187500I0J50000D01*
G01*
G37*
G36*
G01*
X135350000Y-37975000D02*
X135350000Y-36775000D01*
G75*
G02*
X135400000Y-36725000I50000J0D01*
G01*
X136300000Y-36725000D01*
G75*
G02*
X136350000Y-36775000I0J-50000D01*
G01*
X136350000Y-37975000D01*
G75*
G02*
X136300000Y-38025000I-50000J0D01*
G01*
X135400000Y-38025000D01*
G75*
G02*
X135350000Y-37975000I0J50000D01*
G01*
G37*
G36*
G01*
X138650000Y-37975000D02*
X138650000Y-36775000D01*
G75*
G02*
X138700000Y-36725000I50000J0D01*
G01*
X139600000Y-36725000D01*
G75*
G02*
X139650000Y-36775000I0J-50000D01*
G01*
X139650000Y-37975000D01*
G75*
G02*
X139600000Y-38025000I-50000J0D01*
G01*
X138700000Y-38025000D01*
G75*
G02*
X138650000Y-37975000I0J50000D01*
G01*
G37*
G36*
G01*
X153850000Y-72662500D02*
X153850000Y-71462500D01*
G75*
G02*
X153900000Y-71412500I50000J0D01*
G01*
X154800000Y-71412500D01*
G75*
G02*
X154850000Y-71462500I0J-50000D01*
G01*
X154850000Y-72662500D01*
G75*
G02*
X154800000Y-72712500I-50000J0D01*
G01*
X153900000Y-72712500D01*
G75*
G02*
X153850000Y-72662500I0J50000D01*
G01*
G37*
G36*
G01*
X157150000Y-72662500D02*
X157150000Y-71462500D01*
G75*
G02*
X157200000Y-71412500I50000J0D01*
G01*
X158100000Y-71412500D01*
G75*
G02*
X158150000Y-71462500I0J-50000D01*
G01*
X158150000Y-72662500D01*
G75*
G02*
X158100000Y-72712500I-50000J0D01*
G01*
X157200000Y-72712500D01*
G75*
G02*
X157150000Y-72662500I0J50000D01*
G01*
G37*
X168200000Y-79625000D03*
D11*
X168219000Y-74102000D03*
X179800000Y-74125000D03*
D10*
X179819000Y-79602000D03*
G36*
G01*
X170675000Y-80525000D02*
X170675000Y-78525000D01*
G75*
G02*
X170725000Y-78475000I50000J0D01*
G01*
X172275000Y-78475000D01*
G75*
G02*
X172325000Y-78525000I0J-50000D01*
G01*
X172325000Y-80525000D01*
G75*
G02*
X172275000Y-80575000I-50000J0D01*
G01*
X170725000Y-80575000D01*
G75*
G02*
X170675000Y-80525000I0J50000D01*
G01*
G37*
G36*
G01*
X175675000Y-80525000D02*
X175675000Y-78525000D01*
G75*
G02*
X175725000Y-78475000I50000J0D01*
G01*
X177275000Y-78475000D01*
G75*
G02*
X177325000Y-78525000I0J-50000D01*
G01*
X177325000Y-80525000D01*
G75*
G02*
X177275000Y-80575000I-50000J0D01*
G01*
X175725000Y-80575000D01*
G75*
G02*
X175675000Y-80525000I0J50000D01*
G01*
G37*
G36*
G01*
X166600000Y-71875000D02*
X166600000Y-69875000D01*
G75*
G02*
X166650000Y-69825000I50000J0D01*
G01*
X168650000Y-69825000D01*
G75*
G02*
X168700000Y-69875000I0J-50000D01*
G01*
X168700000Y-71875000D01*
G75*
G02*
X168650000Y-71925000I-50000J0D01*
G01*
X166650000Y-71925000D01*
G75*
G02*
X166600000Y-71875000I0J50000D01*
G01*
G37*
G36*
G01*
X166600000Y-83875000D02*
X166600000Y-81875000D01*
G75*
G02*
X166650000Y-81825000I50000J0D01*
G01*
X168650000Y-81825000D01*
G75*
G02*
X168700000Y-81875000I0J-50000D01*
G01*
X168700000Y-83875000D01*
G75*
G02*
X168650000Y-83925000I-50000J0D01*
G01*
X166650000Y-83925000D01*
G75*
G02*
X166600000Y-83875000I0J50000D01*
G01*
G37*
G36*
G01*
X179300000Y-71875000D02*
X179300000Y-69875000D01*
G75*
G02*
X179350000Y-69825000I50000J0D01*
G01*
X181350000Y-69825000D01*
G75*
G02*
X181400000Y-69875000I0J-50000D01*
G01*
X181400000Y-71875000D01*
G75*
G02*
X181350000Y-71925000I-50000J0D01*
G01*
X179350000Y-71925000D01*
G75*
G02*
X179300000Y-71875000I0J50000D01*
G01*
G37*
G36*
G01*
X179300000Y-83875000D02*
X179300000Y-81875000D01*
G75*
G02*
X179350000Y-81825000I50000J0D01*
G01*
X181350000Y-81825000D01*
G75*
G02*
X181400000Y-81875000I0J-50000D01*
G01*
X181400000Y-83875000D01*
G75*
G02*
X181350000Y-83925000I-50000J0D01*
G01*
X179350000Y-83925000D01*
G75*
G02*
X179300000Y-83875000I0J50000D01*
G01*
G37*
G36*
G01*
X98350000Y-98100000D02*
X98350000Y-96900000D01*
G75*
G02*
X98400000Y-96850000I50000J0D01*
G01*
X99300000Y-96850000D01*
G75*
G02*
X99350000Y-96900000I0J-50000D01*
G01*
X99350000Y-98100000D01*
G75*
G02*
X99300000Y-98150000I-50000J0D01*
G01*
X98400000Y-98150000D01*
G75*
G02*
X98350000Y-98100000I0J50000D01*
G01*
G37*
G36*
G01*
X101650000Y-98100000D02*
X101650000Y-96900000D01*
G75*
G02*
X101700000Y-96850000I50000J0D01*
G01*
X102600000Y-96850000D01*
G75*
G02*
X102650000Y-96900000I0J-50000D01*
G01*
X102650000Y-98100000D01*
G75*
G02*
X102600000Y-98150000I-50000J0D01*
G01*
X101700000Y-98150000D01*
G75*
G02*
X101650000Y-98100000I0J50000D01*
G01*
G37*
X149700000Y-40312500D03*
D11*
X149719000Y-34789500D03*
X161300000Y-34812500D03*
D10*
X161319000Y-40289500D03*
G36*
G01*
X152175000Y-41212500D02*
X152175000Y-39212500D01*
G75*
G02*
X152225000Y-39162500I50000J0D01*
G01*
X153775000Y-39162500D01*
G75*
G02*
X153825000Y-39212500I0J-50000D01*
G01*
X153825000Y-41212500D01*
G75*
G02*
X153775000Y-41262500I-50000J0D01*
G01*
X152225000Y-41262500D01*
G75*
G02*
X152175000Y-41212500I0J50000D01*
G01*
G37*
G36*
G01*
X157175000Y-41212500D02*
X157175000Y-39212500D01*
G75*
G02*
X157225000Y-39162500I50000J0D01*
G01*
X158775000Y-39162500D01*
G75*
G02*
X158825000Y-39212500I0J-50000D01*
G01*
X158825000Y-41212500D01*
G75*
G02*
X158775000Y-41262500I-50000J0D01*
G01*
X157225000Y-41262500D01*
G75*
G02*
X157175000Y-41212500I0J50000D01*
G01*
G37*
G36*
G01*
X148100000Y-32562500D02*
X148100000Y-30562500D01*
G75*
G02*
X148150000Y-30512500I50000J0D01*
G01*
X150150000Y-30512500D01*
G75*
G02*
X150200000Y-30562500I0J-50000D01*
G01*
X150200000Y-32562500D01*
G75*
G02*
X150150000Y-32612500I-50000J0D01*
G01*
X148150000Y-32612500D01*
G75*
G02*
X148100000Y-32562500I0J50000D01*
G01*
G37*
G36*
G01*
X148100000Y-44562500D02*
X148100000Y-42562500D01*
G75*
G02*
X148150000Y-42512500I50000J0D01*
G01*
X150150000Y-42512500D01*
G75*
G02*
X150200000Y-42562500I0J-50000D01*
G01*
X150200000Y-44562500D01*
G75*
G02*
X150150000Y-44612500I-50000J0D01*
G01*
X148150000Y-44612500D01*
G75*
G02*
X148100000Y-44562500I0J50000D01*
G01*
G37*
G36*
G01*
X160800000Y-32562500D02*
X160800000Y-30562500D01*
G75*
G02*
X160850000Y-30512500I50000J0D01*
G01*
X162850000Y-30512500D01*
G75*
G02*
X162900000Y-30562500I0J-50000D01*
G01*
X162900000Y-32562500D01*
G75*
G02*
X162850000Y-32612500I-50000J0D01*
G01*
X160850000Y-32612500D01*
G75*
G02*
X160800000Y-32562500I0J50000D01*
G01*
G37*
G36*
G01*
X160800000Y-44562500D02*
X160800000Y-42562500D01*
G75*
G02*
X160850000Y-42512500I50000J0D01*
G01*
X162850000Y-42512500D01*
G75*
G02*
X162900000Y-42562500I0J-50000D01*
G01*
X162900000Y-44562500D01*
G75*
G02*
X162850000Y-44612500I-50000J0D01*
G01*
X160850000Y-44612500D01*
G75*
G02*
X160800000Y-44562500I0J50000D01*
G01*
G37*
G36*
G01*
X153850000Y-91162500D02*
X153850000Y-89962500D01*
G75*
G02*
X153900000Y-89912500I50000J0D01*
G01*
X154800000Y-89912500D01*
G75*
G02*
X154850000Y-89962500I0J-50000D01*
G01*
X154850000Y-91162500D01*
G75*
G02*
X154800000Y-91212500I-50000J0D01*
G01*
X153900000Y-91212500D01*
G75*
G02*
X153850000Y-91162500I0J50000D01*
G01*
G37*
G36*
G01*
X157150000Y-91162500D02*
X157150000Y-89962500D01*
G75*
G02*
X157200000Y-89912500I50000J0D01*
G01*
X158100000Y-89912500D01*
G75*
G02*
X158150000Y-89962500I0J-50000D01*
G01*
X158150000Y-91162500D01*
G75*
G02*
X158100000Y-91212500I-50000J0D01*
G01*
X157200000Y-91212500D01*
G75*
G02*
X157150000Y-91162500I0J50000D01*
G01*
G37*
G36*
G01*
X116850000Y-98100000D02*
X116850000Y-96900000D01*
G75*
G02*
X116900000Y-96850000I50000J0D01*
G01*
X117800000Y-96850000D01*
G75*
G02*
X117850000Y-96900000I0J-50000D01*
G01*
X117850000Y-98100000D01*
G75*
G02*
X117800000Y-98150000I-50000J0D01*
G01*
X116900000Y-98150000D01*
G75*
G02*
X116850000Y-98100000I0J50000D01*
G01*
G37*
G36*
G01*
X120150000Y-98100000D02*
X120150000Y-96900000D01*
G75*
G02*
X120200000Y-96850000I50000J0D01*
G01*
X121100000Y-96850000D01*
G75*
G02*
X121150000Y-96900000I0J-50000D01*
G01*
X121150000Y-98100000D01*
G75*
G02*
X121100000Y-98150000I-50000J0D01*
G01*
X120200000Y-98150000D01*
G75*
G02*
X120150000Y-98100000I0J50000D01*
G01*
G37*
D14*
X109250000Y-90750000D03*
D10*
X149700000Y-58812500D03*
D11*
X149719000Y-53289500D03*
X161300000Y-53312500D03*
D10*
X161319000Y-58789500D03*
G36*
G01*
X152175000Y-59712500D02*
X152175000Y-57712500D01*
G75*
G02*
X152225000Y-57662500I50000J0D01*
G01*
X153775000Y-57662500D01*
G75*
G02*
X153825000Y-57712500I0J-50000D01*
G01*
X153825000Y-59712500D01*
G75*
G02*
X153775000Y-59762500I-50000J0D01*
G01*
X152225000Y-59762500D01*
G75*
G02*
X152175000Y-59712500I0J50000D01*
G01*
G37*
G36*
G01*
X157175000Y-59712500D02*
X157175000Y-57712500D01*
G75*
G02*
X157225000Y-57662500I50000J0D01*
G01*
X158775000Y-57662500D01*
G75*
G02*
X158825000Y-57712500I0J-50000D01*
G01*
X158825000Y-59712500D01*
G75*
G02*
X158775000Y-59762500I-50000J0D01*
G01*
X157225000Y-59762500D01*
G75*
G02*
X157175000Y-59712500I0J50000D01*
G01*
G37*
G36*
G01*
X148100000Y-51062500D02*
X148100000Y-49062500D01*
G75*
G02*
X148150000Y-49012500I50000J0D01*
G01*
X150150000Y-49012500D01*
G75*
G02*
X150200000Y-49062500I0J-50000D01*
G01*
X150200000Y-51062500D01*
G75*
G02*
X150150000Y-51112500I-50000J0D01*
G01*
X148150000Y-51112500D01*
G75*
G02*
X148100000Y-51062500I0J50000D01*
G01*
G37*
G36*
G01*
X148100000Y-63062500D02*
X148100000Y-61062500D01*
G75*
G02*
X148150000Y-61012500I50000J0D01*
G01*
X150150000Y-61012500D01*
G75*
G02*
X150200000Y-61062500I0J-50000D01*
G01*
X150200000Y-63062500D01*
G75*
G02*
X150150000Y-63112500I-50000J0D01*
G01*
X148150000Y-63112500D01*
G75*
G02*
X148100000Y-63062500I0J50000D01*
G01*
G37*
G36*
G01*
X160800000Y-51062500D02*
X160800000Y-49062500D01*
G75*
G02*
X160850000Y-49012500I50000J0D01*
G01*
X162850000Y-49012500D01*
G75*
G02*
X162900000Y-49062500I0J-50000D01*
G01*
X162900000Y-51062500D01*
G75*
G02*
X162850000Y-51112500I-50000J0D01*
G01*
X160850000Y-51112500D01*
G75*
G02*
X160800000Y-51062500I0J50000D01*
G01*
G37*
G36*
G01*
X160800000Y-63062500D02*
X160800000Y-61062500D01*
G75*
G02*
X160850000Y-61012500I50000J0D01*
G01*
X162850000Y-61012500D01*
G75*
G02*
X162900000Y-61062500I0J-50000D01*
G01*
X162900000Y-63062500D01*
G75*
G02*
X162850000Y-63112500I-50000J0D01*
G01*
X160850000Y-63112500D01*
G75*
G02*
X160800000Y-63062500I0J50000D01*
G01*
G37*
X206495370Y-127345147D03*
D11*
X201721812Y-124567193D03*
X207532230Y-114549253D03*
D10*
X212284951Y-117271298D03*
G36*
G01*
X208512292Y-125651735D02*
X206780242Y-124651735D01*
G75*
G02*
X206761941Y-124583434I25000J43301D01*
G01*
X207536941Y-123241094D01*
G75*
G02*
X207605242Y-123222793I43301J-25000D01*
G01*
X209337292Y-124222793D01*
G75*
G02*
X209355593Y-124291094I-25000J-43301D01*
G01*
X208580593Y-125633434D01*
G75*
G02*
X208512292Y-125651735I-43301J25000D01*
G01*
G37*
G36*
G01*
X211012291Y-121321607D02*
X209280241Y-120321607D01*
G75*
G02*
X209261940Y-120253306I25000J43301D01*
G01*
X210036940Y-118910966D01*
G75*
G02*
X210105241Y-118892665I43301J-25000D01*
G01*
X211837291Y-119892665D01*
G75*
G02*
X211855592Y-119960966I-25000J-43301D01*
G01*
X211080592Y-121303306D01*
G75*
G02*
X211012291Y-121321607I-43301J25000D01*
G01*
G37*
G36*
G01*
X198983673Y-124855787D02*
X197251623Y-123855787D01*
G75*
G02*
X197233322Y-123787486I25000J43301D01*
G01*
X198233322Y-122055436D01*
G75*
G02*
X198301623Y-122037135I43301J-25000D01*
G01*
X200033673Y-123037135D01*
G75*
G02*
X200051974Y-123105436I-25000J-43301D01*
G01*
X199051974Y-124837486D01*
G75*
G02*
X198983673Y-124855787I-43301J25000D01*
G01*
G37*
G36*
G01*
X209375977Y-130855787D02*
X207643927Y-129855787D01*
G75*
G02*
X207625626Y-129787486I25000J43301D01*
G01*
X208625626Y-128055436D01*
G75*
G02*
X208693927Y-128037135I43301J-25000D01*
G01*
X210425977Y-129037135D01*
G75*
G02*
X210444278Y-129105436I-25000J-43301D01*
G01*
X209444278Y-130837486D01*
G75*
G02*
X209375977Y-130855787I-43301J25000D01*
G01*
G37*
G36*
G01*
X205333673Y-113857265D02*
X203601623Y-112857265D01*
G75*
G02*
X203583322Y-112788964I25000J43301D01*
G01*
X204583322Y-111056914D01*
G75*
G02*
X204651623Y-111038613I43301J-25000D01*
G01*
X206383673Y-112038613D01*
G75*
G02*
X206401974Y-112106914I-25000J-43301D01*
G01*
X205401974Y-113838964D01*
G75*
G02*
X205333673Y-113857265I-43301J25000D01*
G01*
G37*
G36*
G01*
X215725977Y-119857265D02*
X213993927Y-118857265D01*
G75*
G02*
X213975626Y-118788964I25000J43301D01*
G01*
X214975626Y-117056914D01*
G75*
G02*
X215043927Y-117038613I43301J-25000D01*
G01*
X216775977Y-118038613D01*
G75*
G02*
X216794278Y-118106914I-25000J-43301D01*
G01*
X215794278Y-119838964D01*
G75*
G02*
X215725977Y-119857265I-43301J25000D01*
G01*
G37*
X178935878Y-118467646D03*
D11*
X180383688Y-113137755D03*
X191564122Y-116157354D03*
D10*
X190164923Y-121452648D03*
G36*
G01*
X181093607Y-119977556D02*
X181611246Y-118045704D01*
G75*
G02*
X181672483Y-118010349I48296J-12941D01*
G01*
X183169668Y-118411519D01*
G75*
G02*
X183205023Y-118472756I-12941J-48296D01*
G01*
X182687384Y-120404608D01*
G75*
G02*
X182626147Y-120439963I-48296J12941D01*
G01*
X181128962Y-120038793D01*
G75*
G02*
X181093607Y-119977556I12941J48296D01*
G01*
G37*
G36*
G01*
X185923236Y-121271651D02*
X186440875Y-119339799D01*
G75*
G02*
X186502112Y-119304444I48296J-12941D01*
G01*
X187999297Y-119705614D01*
G75*
G02*
X188034652Y-119766851I-12941J-48296D01*
G01*
X187517013Y-121698703D01*
G75*
G02*
X187455776Y-121734058I-48296J12941D01*
G01*
X185958591Y-121332888D01*
G75*
G02*
X185923236Y-121271651I12941J48296D01*
G01*
G37*
G36*
G01*
X179396244Y-110567610D02*
X179913882Y-108635758D01*
G75*
G02*
X179975119Y-108600403I48296J-12941D01*
G01*
X181906971Y-109118041D01*
G75*
G02*
X181942326Y-109179278I-12941J-48296D01*
G01*
X181424688Y-111111130D01*
G75*
G02*
X181363451Y-111146485I-48296J12941D01*
G01*
X179431599Y-110628847D01*
G75*
G02*
X179396244Y-110567610I12941J48296D01*
G01*
G37*
G36*
G01*
X176290416Y-122158720D02*
X176808054Y-120226868D01*
G75*
G02*
X176869291Y-120191513I48296J-12941D01*
G01*
X178801143Y-120709151D01*
G75*
G02*
X178836498Y-120770388I-12941J-48296D01*
G01*
X178318860Y-122702240D01*
G75*
G02*
X178257623Y-122737595I-48296J12941D01*
G01*
X176325771Y-122219957D01*
G75*
G02*
X176290416Y-122158720I12941J48296D01*
G01*
G37*
G36*
G01*
X191663502Y-113854612D02*
X192181140Y-111922760D01*
G75*
G02*
X192242377Y-111887405I48296J-12941D01*
G01*
X194174229Y-112405043D01*
G75*
G02*
X194209584Y-112466280I-12941J-48296D01*
G01*
X193691946Y-114398132D01*
G75*
G02*
X193630709Y-114433487I-48296J12941D01*
G01*
X191698857Y-113915849D01*
G75*
G02*
X191663502Y-113854612I12941J48296D01*
G01*
G37*
G36*
G01*
X188557674Y-125445722D02*
X189075312Y-123513870D01*
G75*
G02*
X189136549Y-123478515I48296J-12941D01*
G01*
X191068401Y-123996153D01*
G75*
G02*
X191103756Y-124057390I-12941J-48296D01*
G01*
X190586118Y-125989242D01*
G75*
G02*
X190524881Y-126024597I-48296J12941D01*
G01*
X188593029Y-125506959D01*
G75*
G02*
X188557674Y-125445722I12941J48296D01*
G01*
G37*
X94200000Y-47250000D03*
D11*
X94219000Y-41727000D03*
X105800000Y-41750000D03*
D10*
X105819000Y-47227000D03*
G36*
G01*
X96675000Y-48150000D02*
X96675000Y-46150000D01*
G75*
G02*
X96725000Y-46100000I50000J0D01*
G01*
X98275000Y-46100000D01*
G75*
G02*
X98325000Y-46150000I0J-50000D01*
G01*
X98325000Y-48150000D01*
G75*
G02*
X98275000Y-48200000I-50000J0D01*
G01*
X96725000Y-48200000D01*
G75*
G02*
X96675000Y-48150000I0J50000D01*
G01*
G37*
G36*
G01*
X101675000Y-48150000D02*
X101675000Y-46150000D01*
G75*
G02*
X101725000Y-46100000I50000J0D01*
G01*
X103275000Y-46100000D01*
G75*
G02*
X103325000Y-46150000I0J-50000D01*
G01*
X103325000Y-48150000D01*
G75*
G02*
X103275000Y-48200000I-50000J0D01*
G01*
X101725000Y-48200000D01*
G75*
G02*
X101675000Y-48150000I0J50000D01*
G01*
G37*
G36*
G01*
X92600000Y-39500000D02*
X92600000Y-37500000D01*
G75*
G02*
X92650000Y-37450000I50000J0D01*
G01*
X94650000Y-37450000D01*
G75*
G02*
X94700000Y-37500000I0J-50000D01*
G01*
X94700000Y-39500000D01*
G75*
G02*
X94650000Y-39550000I-50000J0D01*
G01*
X92650000Y-39550000D01*
G75*
G02*
X92600000Y-39500000I0J50000D01*
G01*
G37*
G36*
G01*
X92600000Y-51500000D02*
X92600000Y-49500000D01*
G75*
G02*
X92650000Y-49450000I50000J0D01*
G01*
X94650000Y-49450000D01*
G75*
G02*
X94700000Y-49500000I0J-50000D01*
G01*
X94700000Y-51500000D01*
G75*
G02*
X94650000Y-51550000I-50000J0D01*
G01*
X92650000Y-51550000D01*
G75*
G02*
X92600000Y-51500000I0J50000D01*
G01*
G37*
G36*
G01*
X105300000Y-39500000D02*
X105300000Y-37500000D01*
G75*
G02*
X105350000Y-37450000I50000J0D01*
G01*
X107350000Y-37450000D01*
G75*
G02*
X107400000Y-37500000I0J-50000D01*
G01*
X107400000Y-39500000D01*
G75*
G02*
X107350000Y-39550000I-50000J0D01*
G01*
X105350000Y-39550000D01*
G75*
G02*
X105300000Y-39500000I0J50000D01*
G01*
G37*
G36*
G01*
X105300000Y-51500000D02*
X105300000Y-49500000D01*
G75*
G02*
X105350000Y-49450000I50000J0D01*
G01*
X107350000Y-49450000D01*
G75*
G02*
X107400000Y-49500000I0J-50000D01*
G01*
X107400000Y-51500000D01*
G75*
G02*
X107350000Y-51550000I-50000J0D01*
G01*
X105350000Y-51550000D01*
G75*
G02*
X105300000Y-51500000I0J50000D01*
G01*
G37*
X94200000Y-65750000D03*
D11*
X94219000Y-60227000D03*
X105800000Y-60250000D03*
D10*
X105819000Y-65727000D03*
G36*
G01*
X96675000Y-66650000D02*
X96675000Y-64650000D01*
G75*
G02*
X96725000Y-64600000I50000J0D01*
G01*
X98275000Y-64600000D01*
G75*
G02*
X98325000Y-64650000I0J-50000D01*
G01*
X98325000Y-66650000D01*
G75*
G02*
X98275000Y-66700000I-50000J0D01*
G01*
X96725000Y-66700000D01*
G75*
G02*
X96675000Y-66650000I0J50000D01*
G01*
G37*
G36*
G01*
X101675000Y-66650000D02*
X101675000Y-64650000D01*
G75*
G02*
X101725000Y-64600000I50000J0D01*
G01*
X103275000Y-64600000D01*
G75*
G02*
X103325000Y-64650000I0J-50000D01*
G01*
X103325000Y-66650000D01*
G75*
G02*
X103275000Y-66700000I-50000J0D01*
G01*
X101725000Y-66700000D01*
G75*
G02*
X101675000Y-66650000I0J50000D01*
G01*
G37*
G36*
G01*
X92600000Y-58000000D02*
X92600000Y-56000000D01*
G75*
G02*
X92650000Y-55950000I50000J0D01*
G01*
X94650000Y-55950000D01*
G75*
G02*
X94700000Y-56000000I0J-50000D01*
G01*
X94700000Y-58000000D01*
G75*
G02*
X94650000Y-58050000I-50000J0D01*
G01*
X92650000Y-58050000D01*
G75*
G02*
X92600000Y-58000000I0J50000D01*
G01*
G37*
G36*
G01*
X92600000Y-70000000D02*
X92600000Y-68000000D01*
G75*
G02*
X92650000Y-67950000I50000J0D01*
G01*
X94650000Y-67950000D01*
G75*
G02*
X94700000Y-68000000I0J-50000D01*
G01*
X94700000Y-70000000D01*
G75*
G02*
X94650000Y-70050000I-50000J0D01*
G01*
X92650000Y-70050000D01*
G75*
G02*
X92600000Y-70000000I0J50000D01*
G01*
G37*
G36*
G01*
X105300000Y-58000000D02*
X105300000Y-56000000D01*
G75*
G02*
X105350000Y-55950000I50000J0D01*
G01*
X107350000Y-55950000D01*
G75*
G02*
X107400000Y-56000000I0J-50000D01*
G01*
X107400000Y-58000000D01*
G75*
G02*
X107350000Y-58050000I-50000J0D01*
G01*
X105350000Y-58050000D01*
G75*
G02*
X105300000Y-58000000I0J50000D01*
G01*
G37*
G36*
G01*
X105300000Y-70000000D02*
X105300000Y-68000000D01*
G75*
G02*
X105350000Y-67950000I50000J0D01*
G01*
X107350000Y-67950000D01*
G75*
G02*
X107400000Y-68000000I0J-50000D01*
G01*
X107400000Y-70000000D01*
G75*
G02*
X107350000Y-70050000I-50000J0D01*
G01*
X105350000Y-70050000D01*
G75*
G02*
X105300000Y-70000000I0J50000D01*
G01*
G37*
X186700000Y-63437500D03*
D11*
X186719000Y-57914500D03*
X198300000Y-57937500D03*
D10*
X198319000Y-63414500D03*
G36*
G01*
X189175000Y-64337500D02*
X189175000Y-62337500D01*
G75*
G02*
X189225000Y-62287500I50000J0D01*
G01*
X190775000Y-62287500D01*
G75*
G02*
X190825000Y-62337500I0J-50000D01*
G01*
X190825000Y-64337500D01*
G75*
G02*
X190775000Y-64387500I-50000J0D01*
G01*
X189225000Y-64387500D01*
G75*
G02*
X189175000Y-64337500I0J50000D01*
G01*
G37*
G36*
G01*
X194175000Y-64337500D02*
X194175000Y-62337500D01*
G75*
G02*
X194225000Y-62287500I50000J0D01*
G01*
X195775000Y-62287500D01*
G75*
G02*
X195825000Y-62337500I0J-50000D01*
G01*
X195825000Y-64337500D01*
G75*
G02*
X195775000Y-64387500I-50000J0D01*
G01*
X194225000Y-64387500D01*
G75*
G02*
X194175000Y-64337500I0J50000D01*
G01*
G37*
G36*
G01*
X185100000Y-55687500D02*
X185100000Y-53687500D01*
G75*
G02*
X185150000Y-53637500I50000J0D01*
G01*
X187150000Y-53637500D01*
G75*
G02*
X187200000Y-53687500I0J-50000D01*
G01*
X187200000Y-55687500D01*
G75*
G02*
X187150000Y-55737500I-50000J0D01*
G01*
X185150000Y-55737500D01*
G75*
G02*
X185100000Y-55687500I0J50000D01*
G01*
G37*
G36*
G01*
X185100000Y-67687500D02*
X185100000Y-65687500D01*
G75*
G02*
X185150000Y-65637500I50000J0D01*
G01*
X187150000Y-65637500D01*
G75*
G02*
X187200000Y-65687500I0J-50000D01*
G01*
X187200000Y-67687500D01*
G75*
G02*
X187150000Y-67737500I-50000J0D01*
G01*
X185150000Y-67737500D01*
G75*
G02*
X185100000Y-67687500I0J50000D01*
G01*
G37*
G36*
G01*
X197800000Y-55687500D02*
X197800000Y-53687500D01*
G75*
G02*
X197850000Y-53637500I50000J0D01*
G01*
X199850000Y-53637500D01*
G75*
G02*
X199900000Y-53687500I0J-50000D01*
G01*
X199900000Y-55687500D01*
G75*
G02*
X199850000Y-55737500I-50000J0D01*
G01*
X197850000Y-55737500D01*
G75*
G02*
X197800000Y-55687500I0J50000D01*
G01*
G37*
G36*
G01*
X197800000Y-67687500D02*
X197800000Y-65687500D01*
G75*
G02*
X197850000Y-65637500I50000J0D01*
G01*
X199850000Y-65637500D01*
G75*
G02*
X199900000Y-65687500I0J-50000D01*
G01*
X199900000Y-67687500D01*
G75*
G02*
X199850000Y-67737500I-50000J0D01*
G01*
X197850000Y-67737500D01*
G75*
G02*
X197800000Y-67687500I0J50000D01*
G01*
G37*
X112700000Y-65750000D03*
D11*
X112719000Y-60227000D03*
X124300000Y-60250000D03*
D10*
X124319000Y-65727000D03*
G36*
G01*
X115175000Y-66650000D02*
X115175000Y-64650000D01*
G75*
G02*
X115225000Y-64600000I50000J0D01*
G01*
X116775000Y-64600000D01*
G75*
G02*
X116825000Y-64650000I0J-50000D01*
G01*
X116825000Y-66650000D01*
G75*
G02*
X116775000Y-66700000I-50000J0D01*
G01*
X115225000Y-66700000D01*
G75*
G02*
X115175000Y-66650000I0J50000D01*
G01*
G37*
G36*
G01*
X120175000Y-66650000D02*
X120175000Y-64650000D01*
G75*
G02*
X120225000Y-64600000I50000J0D01*
G01*
X121775000Y-64600000D01*
G75*
G02*
X121825000Y-64650000I0J-50000D01*
G01*
X121825000Y-66650000D01*
G75*
G02*
X121775000Y-66700000I-50000J0D01*
G01*
X120225000Y-66700000D01*
G75*
G02*
X120175000Y-66650000I0J50000D01*
G01*
G37*
G36*
G01*
X111100000Y-58000000D02*
X111100000Y-56000000D01*
G75*
G02*
X111150000Y-55950000I50000J0D01*
G01*
X113150000Y-55950000D01*
G75*
G02*
X113200000Y-56000000I0J-50000D01*
G01*
X113200000Y-58000000D01*
G75*
G02*
X113150000Y-58050000I-50000J0D01*
G01*
X111150000Y-58050000D01*
G75*
G02*
X111100000Y-58000000I0J50000D01*
G01*
G37*
G36*
G01*
X111100000Y-70000000D02*
X111100000Y-68000000D01*
G75*
G02*
X111150000Y-67950000I50000J0D01*
G01*
X113150000Y-67950000D01*
G75*
G02*
X113200000Y-68000000I0J-50000D01*
G01*
X113200000Y-70000000D01*
G75*
G02*
X113150000Y-70050000I-50000J0D01*
G01*
X111150000Y-70050000D01*
G75*
G02*
X111100000Y-70000000I0J50000D01*
G01*
G37*
G36*
G01*
X123800000Y-58000000D02*
X123800000Y-56000000D01*
G75*
G02*
X123850000Y-55950000I50000J0D01*
G01*
X125850000Y-55950000D01*
G75*
G02*
X125900000Y-56000000I0J-50000D01*
G01*
X125900000Y-58000000D01*
G75*
G02*
X125850000Y-58050000I-50000J0D01*
G01*
X123850000Y-58050000D01*
G75*
G02*
X123800000Y-58000000I0J50000D01*
G01*
G37*
G36*
G01*
X123800000Y-70000000D02*
X123800000Y-68000000D01*
G75*
G02*
X123850000Y-67950000I50000J0D01*
G01*
X125850000Y-67950000D01*
G75*
G02*
X125900000Y-68000000I0J-50000D01*
G01*
X125900000Y-70000000D01*
G75*
G02*
X125850000Y-70050000I-50000J0D01*
G01*
X123850000Y-70050000D01*
G75*
G02*
X123800000Y-70000000I0J50000D01*
G01*
G37*
D14*
X109250000Y-53750000D03*
G36*
G01*
X204543415Y-121426154D02*
X203504185Y-120826154D01*
G75*
G02*
X203485884Y-120757853I25000J43301D01*
G01*
X203935884Y-119978431D01*
G75*
G02*
X204004185Y-119960130I43301J-25000D01*
G01*
X205043415Y-120560130D01*
G75*
G02*
X205061716Y-120628431I-25000J-43301D01*
G01*
X204611716Y-121407853D01*
G75*
G02*
X204543415Y-121426154I-43301J25000D01*
G01*
G37*
G36*
G01*
X206193415Y-118568270D02*
X205154185Y-117968270D01*
G75*
G02*
X205135884Y-117899969I25000J43301D01*
G01*
X205585884Y-117120547D01*
G75*
G02*
X205654185Y-117102246I43301J-25000D01*
G01*
X206693415Y-117702246D01*
G75*
G02*
X206711716Y-117770547I-25000J-43301D01*
G01*
X206261716Y-118549969D01*
G75*
G02*
X206193415Y-118568270I-43301J25000D01*
G01*
G37*
D10*
X149700000Y-77312500D03*
D11*
X149719000Y-71789500D03*
X161300000Y-71812500D03*
D10*
X161319000Y-77289500D03*
G36*
G01*
X152175000Y-78212500D02*
X152175000Y-76212500D01*
G75*
G02*
X152225000Y-76162500I50000J0D01*
G01*
X153775000Y-76162500D01*
G75*
G02*
X153825000Y-76212500I0J-50000D01*
G01*
X153825000Y-78212500D01*
G75*
G02*
X153775000Y-78262500I-50000J0D01*
G01*
X152225000Y-78262500D01*
G75*
G02*
X152175000Y-78212500I0J50000D01*
G01*
G37*
G36*
G01*
X157175000Y-78212500D02*
X157175000Y-76212500D01*
G75*
G02*
X157225000Y-76162500I50000J0D01*
G01*
X158775000Y-76162500D01*
G75*
G02*
X158825000Y-76212500I0J-50000D01*
G01*
X158825000Y-78212500D01*
G75*
G02*
X158775000Y-78262500I-50000J0D01*
G01*
X157225000Y-78262500D01*
G75*
G02*
X157175000Y-78212500I0J50000D01*
G01*
G37*
G36*
G01*
X148100000Y-69562500D02*
X148100000Y-67562500D01*
G75*
G02*
X148150000Y-67512500I50000J0D01*
G01*
X150150000Y-67512500D01*
G75*
G02*
X150200000Y-67562500I0J-50000D01*
G01*
X150200000Y-69562500D01*
G75*
G02*
X150150000Y-69612500I-50000J0D01*
G01*
X148150000Y-69612500D01*
G75*
G02*
X148100000Y-69562500I0J50000D01*
G01*
G37*
G36*
G01*
X148100000Y-81562500D02*
X148100000Y-79562500D01*
G75*
G02*
X148150000Y-79512500I50000J0D01*
G01*
X150150000Y-79512500D01*
G75*
G02*
X150200000Y-79562500I0J-50000D01*
G01*
X150200000Y-81562500D01*
G75*
G02*
X150150000Y-81612500I-50000J0D01*
G01*
X148150000Y-81612500D01*
G75*
G02*
X148100000Y-81562500I0J50000D01*
G01*
G37*
G36*
G01*
X160800000Y-69562500D02*
X160800000Y-67562500D01*
G75*
G02*
X160850000Y-67512500I50000J0D01*
G01*
X162850000Y-67512500D01*
G75*
G02*
X162900000Y-67562500I0J-50000D01*
G01*
X162900000Y-69562500D01*
G75*
G02*
X162850000Y-69612500I-50000J0D01*
G01*
X160850000Y-69612500D01*
G75*
G02*
X160800000Y-69562500I0J50000D01*
G01*
G37*
G36*
G01*
X160800000Y-81562500D02*
X160800000Y-79562500D01*
G75*
G02*
X160850000Y-79512500I50000J0D01*
G01*
X162850000Y-79512500D01*
G75*
G02*
X162900000Y-79562500I0J-50000D01*
G01*
X162900000Y-81562500D01*
G75*
G02*
X162850000Y-81612500I-50000J0D01*
G01*
X160850000Y-81612500D01*
G75*
G02*
X160800000Y-81562500I0J50000D01*
G01*
G37*
X131200000Y-42625000D03*
D11*
X131219000Y-37102000D03*
X142800000Y-37125000D03*
D10*
X142819000Y-42602000D03*
G36*
G01*
X133675000Y-43525000D02*
X133675000Y-41525000D01*
G75*
G02*
X133725000Y-41475000I50000J0D01*
G01*
X135275000Y-41475000D01*
G75*
G02*
X135325000Y-41525000I0J-50000D01*
G01*
X135325000Y-43525000D01*
G75*
G02*
X135275000Y-43575000I-50000J0D01*
G01*
X133725000Y-43575000D01*
G75*
G02*
X133675000Y-43525000I0J50000D01*
G01*
G37*
G36*
G01*
X138675000Y-43525000D02*
X138675000Y-41525000D01*
G75*
G02*
X138725000Y-41475000I50000J0D01*
G01*
X140275000Y-41475000D01*
G75*
G02*
X140325000Y-41525000I0J-50000D01*
G01*
X140325000Y-43525000D01*
G75*
G02*
X140275000Y-43575000I-50000J0D01*
G01*
X138725000Y-43575000D01*
G75*
G02*
X138675000Y-43525000I0J50000D01*
G01*
G37*
G36*
G01*
X129600000Y-34875000D02*
X129600000Y-32875000D01*
G75*
G02*
X129650000Y-32825000I50000J0D01*
G01*
X131650000Y-32825000D01*
G75*
G02*
X131700000Y-32875000I0J-50000D01*
G01*
X131700000Y-34875000D01*
G75*
G02*
X131650000Y-34925000I-50000J0D01*
G01*
X129650000Y-34925000D01*
G75*
G02*
X129600000Y-34875000I0J50000D01*
G01*
G37*
G36*
G01*
X129600000Y-46875000D02*
X129600000Y-44875000D01*
G75*
G02*
X129650000Y-44825000I50000J0D01*
G01*
X131650000Y-44825000D01*
G75*
G02*
X131700000Y-44875000I0J-50000D01*
G01*
X131700000Y-46875000D01*
G75*
G02*
X131650000Y-46925000I-50000J0D01*
G01*
X129650000Y-46925000D01*
G75*
G02*
X129600000Y-46875000I0J50000D01*
G01*
G37*
G36*
G01*
X142300000Y-34875000D02*
X142300000Y-32875000D01*
G75*
G02*
X142350000Y-32825000I50000J0D01*
G01*
X144350000Y-32825000D01*
G75*
G02*
X144400000Y-32875000I0J-50000D01*
G01*
X144400000Y-34875000D01*
G75*
G02*
X144350000Y-34925000I-50000J0D01*
G01*
X142350000Y-34925000D01*
G75*
G02*
X142300000Y-34875000I0J50000D01*
G01*
G37*
G36*
G01*
X142300000Y-46875000D02*
X142300000Y-44875000D01*
G75*
G02*
X142350000Y-44825000I50000J0D01*
G01*
X144350000Y-44825000D01*
G75*
G02*
X144400000Y-44875000I0J-50000D01*
G01*
X144400000Y-46875000D01*
G75*
G02*
X144350000Y-46925000I-50000J0D01*
G01*
X142350000Y-46925000D01*
G75*
G02*
X142300000Y-46875000I0J50000D01*
G01*
G37*
G36*
G01*
X163100000Y-112662500D02*
X163100000Y-111462500D01*
G75*
G02*
X163150000Y-111412500I50000J0D01*
G01*
X164050000Y-111412500D01*
G75*
G02*
X164100000Y-111462500I0J-50000D01*
G01*
X164100000Y-112662500D01*
G75*
G02*
X164050000Y-112712500I-50000J0D01*
G01*
X163150000Y-112712500D01*
G75*
G02*
X163100000Y-112662500I0J50000D01*
G01*
G37*
G36*
G01*
X166400000Y-112662500D02*
X166400000Y-111462500D01*
G75*
G02*
X166450000Y-111412500I50000J0D01*
G01*
X167350000Y-111412500D01*
G75*
G02*
X167400000Y-111462500I0J-50000D01*
G01*
X167400000Y-112662500D01*
G75*
G02*
X167350000Y-112712500I-50000J0D01*
G01*
X166450000Y-112712500D01*
G75*
G02*
X166400000Y-112662500I0J50000D01*
G01*
G37*
G36*
G01*
X153850000Y-54162500D02*
X153850000Y-52962500D01*
G75*
G02*
X153900000Y-52912500I50000J0D01*
G01*
X154800000Y-52912500D01*
G75*
G02*
X154850000Y-52962500I0J-50000D01*
G01*
X154850000Y-54162500D01*
G75*
G02*
X154800000Y-54212500I-50000J0D01*
G01*
X153900000Y-54212500D01*
G75*
G02*
X153850000Y-54162500I0J50000D01*
G01*
G37*
G36*
G01*
X157150000Y-54162500D02*
X157150000Y-52962500D01*
G75*
G02*
X157200000Y-52912500I50000J0D01*
G01*
X158100000Y-52912500D01*
G75*
G02*
X158150000Y-52962500I0J-50000D01*
G01*
X158150000Y-54162500D01*
G75*
G02*
X158100000Y-54212500I-50000J0D01*
G01*
X157200000Y-54212500D01*
G75*
G02*
X157150000Y-54162500I0J50000D01*
G01*
G37*
D19*
X218969000Y-108757500D03*
D10*
X112700000Y-47250000D03*
D11*
X112719000Y-41727000D03*
X124300000Y-41750000D03*
D10*
X124319000Y-47227000D03*
G36*
G01*
X115175000Y-48150000D02*
X115175000Y-46150000D01*
G75*
G02*
X115225000Y-46100000I50000J0D01*
G01*
X116775000Y-46100000D01*
G75*
G02*
X116825000Y-46150000I0J-50000D01*
G01*
X116825000Y-48150000D01*
G75*
G02*
X116775000Y-48200000I-50000J0D01*
G01*
X115225000Y-48200000D01*
G75*
G02*
X115175000Y-48150000I0J50000D01*
G01*
G37*
G36*
G01*
X120175000Y-48150000D02*
X120175000Y-46150000D01*
G75*
G02*
X120225000Y-46100000I50000J0D01*
G01*
X121775000Y-46100000D01*
G75*
G02*
X121825000Y-46150000I0J-50000D01*
G01*
X121825000Y-48150000D01*
G75*
G02*
X121775000Y-48200000I-50000J0D01*
G01*
X120225000Y-48200000D01*
G75*
G02*
X120175000Y-48150000I0J50000D01*
G01*
G37*
G36*
G01*
X111100000Y-39500000D02*
X111100000Y-37500000D01*
G75*
G02*
X111150000Y-37450000I50000J0D01*
G01*
X113150000Y-37450000D01*
G75*
G02*
X113200000Y-37500000I0J-50000D01*
G01*
X113200000Y-39500000D01*
G75*
G02*
X113150000Y-39550000I-50000J0D01*
G01*
X111150000Y-39550000D01*
G75*
G02*
X111100000Y-39500000I0J50000D01*
G01*
G37*
G36*
G01*
X111100000Y-51500000D02*
X111100000Y-49500000D01*
G75*
G02*
X111150000Y-49450000I50000J0D01*
G01*
X113150000Y-49450000D01*
G75*
G02*
X113200000Y-49500000I0J-50000D01*
G01*
X113200000Y-51500000D01*
G75*
G02*
X113150000Y-51550000I-50000J0D01*
G01*
X111150000Y-51550000D01*
G75*
G02*
X111100000Y-51500000I0J50000D01*
G01*
G37*
G36*
G01*
X123800000Y-39500000D02*
X123800000Y-37500000D01*
G75*
G02*
X123850000Y-37450000I50000J0D01*
G01*
X125850000Y-37450000D01*
G75*
G02*
X125900000Y-37500000I0J-50000D01*
G01*
X125900000Y-39500000D01*
G75*
G02*
X125850000Y-39550000I-50000J0D01*
G01*
X123850000Y-39550000D01*
G75*
G02*
X123800000Y-39500000I0J50000D01*
G01*
G37*
G36*
G01*
X123800000Y-51500000D02*
X123800000Y-49500000D01*
G75*
G02*
X123850000Y-49450000I50000J0D01*
G01*
X125850000Y-49450000D01*
G75*
G02*
X125900000Y-49500000I0J-50000D01*
G01*
X125900000Y-51500000D01*
G75*
G02*
X125850000Y-51550000I-50000J0D01*
G01*
X123850000Y-51550000D01*
G75*
G02*
X123800000Y-51500000I0J50000D01*
G01*
G37*
G36*
G01*
X190850000Y-40287500D02*
X190850000Y-39087500D01*
G75*
G02*
X190900000Y-39037500I50000J0D01*
G01*
X191800000Y-39037500D01*
G75*
G02*
X191850000Y-39087500I0J-50000D01*
G01*
X191850000Y-40287500D01*
G75*
G02*
X191800000Y-40337500I-50000J0D01*
G01*
X190900000Y-40337500D01*
G75*
G02*
X190850000Y-40287500I0J50000D01*
G01*
G37*
G36*
G01*
X194150000Y-40287500D02*
X194150000Y-39087500D01*
G75*
G02*
X194200000Y-39037500I50000J0D01*
G01*
X195100000Y-39037500D01*
G75*
G02*
X195150000Y-39087500I0J-50000D01*
G01*
X195150000Y-40287500D01*
G75*
G02*
X195100000Y-40337500I-50000J0D01*
G01*
X194200000Y-40337500D01*
G75*
G02*
X194150000Y-40287500I0J50000D01*
G01*
G37*
G36*
G01*
X116850000Y-79600000D02*
X116850000Y-78400000D01*
G75*
G02*
X116900000Y-78350000I50000J0D01*
G01*
X117800000Y-78350000D01*
G75*
G02*
X117850000Y-78400000I0J-50000D01*
G01*
X117850000Y-79600000D01*
G75*
G02*
X117800000Y-79650000I-50000J0D01*
G01*
X116900000Y-79650000D01*
G75*
G02*
X116850000Y-79600000I0J50000D01*
G01*
G37*
G36*
G01*
X120150000Y-79600000D02*
X120150000Y-78400000D01*
G75*
G02*
X120200000Y-78350000I50000J0D01*
G01*
X121100000Y-78350000D01*
G75*
G02*
X121150000Y-78400000I0J-50000D01*
G01*
X121150000Y-79600000D01*
G75*
G02*
X121100000Y-79650000I-50000J0D01*
G01*
X120200000Y-79650000D01*
G75*
G02*
X120150000Y-79600000I0J50000D01*
G01*
G37*
G36*
G01*
X184147968Y-115050196D02*
X184458551Y-113891085D01*
G75*
G02*
X184519788Y-113855730I48296J-12941D01*
G01*
X185389121Y-114088667D01*
G75*
G02*
X185424476Y-114149904I-12941J-48296D01*
G01*
X185113893Y-115309015D01*
G75*
G02*
X185052656Y-115344370I-48296J12941D01*
G01*
X184183323Y-115111433D01*
G75*
G02*
X184147968Y-115050196I12941J48296D01*
G01*
G37*
G36*
G01*
X187335524Y-115904296D02*
X187646107Y-114745185D01*
G75*
G02*
X187707344Y-114709830I48296J-12941D01*
G01*
X188576677Y-114942767D01*
G75*
G02*
X188612032Y-115004004I-12941J-48296D01*
G01*
X188301449Y-116163115D01*
G75*
G02*
X188240212Y-116198470I-48296J12941D01*
G01*
X187370879Y-115965533D01*
G75*
G02*
X187335524Y-115904296I12941J48296D01*
G01*
G37*
X112700000Y-102750000D03*
D11*
X112719000Y-97227000D03*
X124300000Y-97250000D03*
D10*
X124319000Y-102727000D03*
G36*
G01*
X115175000Y-103650000D02*
X115175000Y-101650000D01*
G75*
G02*
X115225000Y-101600000I50000J0D01*
G01*
X116775000Y-101600000D01*
G75*
G02*
X116825000Y-101650000I0J-50000D01*
G01*
X116825000Y-103650000D01*
G75*
G02*
X116775000Y-103700000I-50000J0D01*
G01*
X115225000Y-103700000D01*
G75*
G02*
X115175000Y-103650000I0J50000D01*
G01*
G37*
G36*
G01*
X120175000Y-103650000D02*
X120175000Y-101650000D01*
G75*
G02*
X120225000Y-101600000I50000J0D01*
G01*
X121775000Y-101600000D01*
G75*
G02*
X121825000Y-101650000I0J-50000D01*
G01*
X121825000Y-103650000D01*
G75*
G02*
X121775000Y-103700000I-50000J0D01*
G01*
X120225000Y-103700000D01*
G75*
G02*
X120175000Y-103650000I0J50000D01*
G01*
G37*
G36*
G01*
X111100000Y-95000000D02*
X111100000Y-93000000D01*
G75*
G02*
X111150000Y-92950000I50000J0D01*
G01*
X113150000Y-92950000D01*
G75*
G02*
X113200000Y-93000000I0J-50000D01*
G01*
X113200000Y-95000000D01*
G75*
G02*
X113150000Y-95050000I-50000J0D01*
G01*
X111150000Y-95050000D01*
G75*
G02*
X111100000Y-95000000I0J50000D01*
G01*
G37*
G36*
G01*
X111100000Y-107000000D02*
X111100000Y-105000000D01*
G75*
G02*
X111150000Y-104950000I50000J0D01*
G01*
X113150000Y-104950000D01*
G75*
G02*
X113200000Y-105000000I0J-50000D01*
G01*
X113200000Y-107000000D01*
G75*
G02*
X113150000Y-107050000I-50000J0D01*
G01*
X111150000Y-107050000D01*
G75*
G02*
X111100000Y-107000000I0J50000D01*
G01*
G37*
G36*
G01*
X123800000Y-95000000D02*
X123800000Y-93000000D01*
G75*
G02*
X123850000Y-92950000I50000J0D01*
G01*
X125850000Y-92950000D01*
G75*
G02*
X125900000Y-93000000I0J-50000D01*
G01*
X125900000Y-95000000D01*
G75*
G02*
X125850000Y-95050000I-50000J0D01*
G01*
X123850000Y-95050000D01*
G75*
G02*
X123800000Y-95000000I0J50000D01*
G01*
G37*
G36*
G01*
X123800000Y-107000000D02*
X123800000Y-105000000D01*
G75*
G02*
X123850000Y-104950000I50000J0D01*
G01*
X125850000Y-104950000D01*
G75*
G02*
X125900000Y-105000000I0J-50000D01*
G01*
X125900000Y-107000000D01*
G75*
G02*
X125850000Y-107050000I-50000J0D01*
G01*
X123850000Y-107050000D01*
G75*
G02*
X123800000Y-107000000I0J50000D01*
G01*
G37*
X94200000Y-102750000D03*
D11*
X94219000Y-97227000D03*
X105800000Y-97250000D03*
D10*
X105819000Y-102727000D03*
G36*
G01*
X96675000Y-103650000D02*
X96675000Y-101650000D01*
G75*
G02*
X96725000Y-101600000I50000J0D01*
G01*
X98275000Y-101600000D01*
G75*
G02*
X98325000Y-101650000I0J-50000D01*
G01*
X98325000Y-103650000D01*
G75*
G02*
X98275000Y-103700000I-50000J0D01*
G01*
X96725000Y-103700000D01*
G75*
G02*
X96675000Y-103650000I0J50000D01*
G01*
G37*
G36*
G01*
X101675000Y-103650000D02*
X101675000Y-101650000D01*
G75*
G02*
X101725000Y-101600000I50000J0D01*
G01*
X103275000Y-101600000D01*
G75*
G02*
X103325000Y-101650000I0J-50000D01*
G01*
X103325000Y-103650000D01*
G75*
G02*
X103275000Y-103700000I-50000J0D01*
G01*
X101725000Y-103700000D01*
G75*
G02*
X101675000Y-103650000I0J50000D01*
G01*
G37*
G36*
G01*
X92600000Y-95000000D02*
X92600000Y-93000000D01*
G75*
G02*
X92650000Y-92950000I50000J0D01*
G01*
X94650000Y-92950000D01*
G75*
G02*
X94700000Y-93000000I0J-50000D01*
G01*
X94700000Y-95000000D01*
G75*
G02*
X94650000Y-95050000I-50000J0D01*
G01*
X92650000Y-95050000D01*
G75*
G02*
X92600000Y-95000000I0J50000D01*
G01*
G37*
G36*
G01*
X92600000Y-107000000D02*
X92600000Y-105000000D01*
G75*
G02*
X92650000Y-104950000I50000J0D01*
G01*
X94650000Y-104950000D01*
G75*
G02*
X94700000Y-105000000I0J-50000D01*
G01*
X94700000Y-107000000D01*
G75*
G02*
X94650000Y-107050000I-50000J0D01*
G01*
X92650000Y-107050000D01*
G75*
G02*
X92600000Y-107000000I0J50000D01*
G01*
G37*
G36*
G01*
X105300000Y-95000000D02*
X105300000Y-93000000D01*
G75*
G02*
X105350000Y-92950000I50000J0D01*
G01*
X107350000Y-92950000D01*
G75*
G02*
X107400000Y-93000000I0J-50000D01*
G01*
X107400000Y-95000000D01*
G75*
G02*
X107350000Y-95050000I-50000J0D01*
G01*
X105350000Y-95050000D01*
G75*
G02*
X105300000Y-95000000I0J50000D01*
G01*
G37*
G36*
G01*
X105300000Y-107000000D02*
X105300000Y-105000000D01*
G75*
G02*
X105350000Y-104950000I50000J0D01*
G01*
X107350000Y-104950000D01*
G75*
G02*
X107400000Y-105000000I0J-50000D01*
G01*
X107400000Y-107000000D01*
G75*
G02*
X107350000Y-107050000I-50000J0D01*
G01*
X105350000Y-107050000D01*
G75*
G02*
X105300000Y-107000000I0J50000D01*
G01*
G37*
X149700000Y-95812500D03*
D11*
X149719000Y-90289500D03*
X161300000Y-90312500D03*
D10*
X161319000Y-95789500D03*
G36*
G01*
X152175000Y-96712500D02*
X152175000Y-94712500D01*
G75*
G02*
X152225000Y-94662500I50000J0D01*
G01*
X153775000Y-94662500D01*
G75*
G02*
X153825000Y-94712500I0J-50000D01*
G01*
X153825000Y-96712500D01*
G75*
G02*
X153775000Y-96762500I-50000J0D01*
G01*
X152225000Y-96762500D01*
G75*
G02*
X152175000Y-96712500I0J50000D01*
G01*
G37*
G36*
G01*
X157175000Y-96712500D02*
X157175000Y-94712500D01*
G75*
G02*
X157225000Y-94662500I50000J0D01*
G01*
X158775000Y-94662500D01*
G75*
G02*
X158825000Y-94712500I0J-50000D01*
G01*
X158825000Y-96712500D01*
G75*
G02*
X158775000Y-96762500I-50000J0D01*
G01*
X157225000Y-96762500D01*
G75*
G02*
X157175000Y-96712500I0J50000D01*
G01*
G37*
G36*
G01*
X148100000Y-88062500D02*
X148100000Y-86062500D01*
G75*
G02*
X148150000Y-86012500I50000J0D01*
G01*
X150150000Y-86012500D01*
G75*
G02*
X150200000Y-86062500I0J-50000D01*
G01*
X150200000Y-88062500D01*
G75*
G02*
X150150000Y-88112500I-50000J0D01*
G01*
X148150000Y-88112500D01*
G75*
G02*
X148100000Y-88062500I0J50000D01*
G01*
G37*
G36*
G01*
X148100000Y-100062500D02*
X148100000Y-98062500D01*
G75*
G02*
X148150000Y-98012500I50000J0D01*
G01*
X150150000Y-98012500D01*
G75*
G02*
X150200000Y-98062500I0J-50000D01*
G01*
X150200000Y-100062500D01*
G75*
G02*
X150150000Y-100112500I-50000J0D01*
G01*
X148150000Y-100112500D01*
G75*
G02*
X148100000Y-100062500I0J50000D01*
G01*
G37*
G36*
G01*
X160800000Y-88062500D02*
X160800000Y-86062500D01*
G75*
G02*
X160850000Y-86012500I50000J0D01*
G01*
X162850000Y-86012500D01*
G75*
G02*
X162900000Y-86062500I0J-50000D01*
G01*
X162900000Y-88062500D01*
G75*
G02*
X162850000Y-88112500I-50000J0D01*
G01*
X160850000Y-88112500D01*
G75*
G02*
X160800000Y-88062500I0J50000D01*
G01*
G37*
G36*
G01*
X160800000Y-100062500D02*
X160800000Y-98062500D01*
G75*
G02*
X160850000Y-98012500I50000J0D01*
G01*
X162850000Y-98012500D01*
G75*
G02*
X162900000Y-98062500I0J-50000D01*
G01*
X162900000Y-100062500D01*
G75*
G02*
X162850000Y-100112500I-50000J0D01*
G01*
X160850000Y-100112500D01*
G75*
G02*
X160800000Y-100062500I0J50000D01*
G01*
G37*
G36*
G01*
X116850000Y-42600000D02*
X116850000Y-41400000D01*
G75*
G02*
X116900000Y-41350000I50000J0D01*
G01*
X117800000Y-41350000D01*
G75*
G02*
X117850000Y-41400000I0J-50000D01*
G01*
X117850000Y-42600000D01*
G75*
G02*
X117800000Y-42650000I-50000J0D01*
G01*
X116900000Y-42650000D01*
G75*
G02*
X116850000Y-42600000I0J50000D01*
G01*
G37*
G36*
G01*
X120150000Y-42600000D02*
X120150000Y-41400000D01*
G75*
G02*
X120200000Y-41350000I50000J0D01*
G01*
X121100000Y-41350000D01*
G75*
G02*
X121150000Y-41400000I0J-50000D01*
G01*
X121150000Y-42600000D01*
G75*
G02*
X121100000Y-42650000I-50000J0D01*
G01*
X120200000Y-42650000D01*
G75*
G02*
X120150000Y-42600000I0J50000D01*
G01*
G37*
X131200000Y-61125000D03*
D11*
X131219000Y-55602000D03*
X142800000Y-55625000D03*
D10*
X142819000Y-61102000D03*
G36*
G01*
X133675000Y-62025000D02*
X133675000Y-60025000D01*
G75*
G02*
X133725000Y-59975000I50000J0D01*
G01*
X135275000Y-59975000D01*
G75*
G02*
X135325000Y-60025000I0J-50000D01*
G01*
X135325000Y-62025000D01*
G75*
G02*
X135275000Y-62075000I-50000J0D01*
G01*
X133725000Y-62075000D01*
G75*
G02*
X133675000Y-62025000I0J50000D01*
G01*
G37*
G36*
G01*
X138675000Y-62025000D02*
X138675000Y-60025000D01*
G75*
G02*
X138725000Y-59975000I50000J0D01*
G01*
X140275000Y-59975000D01*
G75*
G02*
X140325000Y-60025000I0J-50000D01*
G01*
X140325000Y-62025000D01*
G75*
G02*
X140275000Y-62075000I-50000J0D01*
G01*
X138725000Y-62075000D01*
G75*
G02*
X138675000Y-62025000I0J50000D01*
G01*
G37*
G36*
G01*
X129600000Y-53375000D02*
X129600000Y-51375000D01*
G75*
G02*
X129650000Y-51325000I50000J0D01*
G01*
X131650000Y-51325000D01*
G75*
G02*
X131700000Y-51375000I0J-50000D01*
G01*
X131700000Y-53375000D01*
G75*
G02*
X131650000Y-53425000I-50000J0D01*
G01*
X129650000Y-53425000D01*
G75*
G02*
X129600000Y-53375000I0J50000D01*
G01*
G37*
G36*
G01*
X129600000Y-65375000D02*
X129600000Y-63375000D01*
G75*
G02*
X129650000Y-63325000I50000J0D01*
G01*
X131650000Y-63325000D01*
G75*
G02*
X131700000Y-63375000I0J-50000D01*
G01*
X131700000Y-65375000D01*
G75*
G02*
X131650000Y-65425000I-50000J0D01*
G01*
X129650000Y-65425000D01*
G75*
G02*
X129600000Y-65375000I0J50000D01*
G01*
G37*
G36*
G01*
X142300000Y-53375000D02*
X142300000Y-51375000D01*
G75*
G02*
X142350000Y-51325000I50000J0D01*
G01*
X144350000Y-51325000D01*
G75*
G02*
X144400000Y-51375000I0J-50000D01*
G01*
X144400000Y-53375000D01*
G75*
G02*
X144350000Y-53425000I-50000J0D01*
G01*
X142350000Y-53425000D01*
G75*
G02*
X142300000Y-53375000I0J50000D01*
G01*
G37*
G36*
G01*
X142300000Y-65375000D02*
X142300000Y-63375000D01*
G75*
G02*
X142350000Y-63325000I50000J0D01*
G01*
X144350000Y-63325000D01*
G75*
G02*
X144400000Y-63375000I0J-50000D01*
G01*
X144400000Y-65375000D01*
G75*
G02*
X144350000Y-65425000I-50000J0D01*
G01*
X142350000Y-65425000D01*
G75*
G02*
X142300000Y-65375000I0J50000D01*
G01*
G37*
G36*
G01*
X172350000Y-56475000D02*
X172350000Y-55275000D01*
G75*
G02*
X172400000Y-55225000I50000J0D01*
G01*
X173300000Y-55225000D01*
G75*
G02*
X173350000Y-55275000I0J-50000D01*
G01*
X173350000Y-56475000D01*
G75*
G02*
X173300000Y-56525000I-50000J0D01*
G01*
X172400000Y-56525000D01*
G75*
G02*
X172350000Y-56475000I0J50000D01*
G01*
G37*
G36*
G01*
X175650000Y-56475000D02*
X175650000Y-55275000D01*
G75*
G02*
X175700000Y-55225000I50000J0D01*
G01*
X176600000Y-55225000D01*
G75*
G02*
X176650000Y-55275000I0J-50000D01*
G01*
X176650000Y-56475000D01*
G75*
G02*
X176600000Y-56525000I-50000J0D01*
G01*
X175700000Y-56525000D01*
G75*
G02*
X175650000Y-56475000I0J50000D01*
G01*
G37*
D14*
X151157000Y-107615000D03*
D19*
X204927000Y-100463500D03*
G36*
G01*
X135350000Y-74975000D02*
X135350000Y-73775000D01*
G75*
G02*
X135400000Y-73725000I50000J0D01*
G01*
X136300000Y-73725000D01*
G75*
G02*
X136350000Y-73775000I0J-50000D01*
G01*
X136350000Y-74975000D01*
G75*
G02*
X136300000Y-75025000I-50000J0D01*
G01*
X135400000Y-75025000D01*
G75*
G02*
X135350000Y-74975000I0J50000D01*
G01*
G37*
G36*
G01*
X138650000Y-74975000D02*
X138650000Y-73775000D01*
G75*
G02*
X138700000Y-73725000I50000J0D01*
G01*
X139600000Y-73725000D01*
G75*
G02*
X139650000Y-73775000I0J-50000D01*
G01*
X139650000Y-74975000D01*
G75*
G02*
X139600000Y-75025000I-50000J0D01*
G01*
X138700000Y-75025000D01*
G75*
G02*
X138650000Y-74975000I0J50000D01*
G01*
G37*
D10*
X186700000Y-100437500D03*
D11*
X186719000Y-94914500D03*
X198300000Y-94937500D03*
D10*
X198319000Y-100414500D03*
G36*
G01*
X189175000Y-101337500D02*
X189175000Y-99337500D01*
G75*
G02*
X189225000Y-99287500I50000J0D01*
G01*
X190775000Y-99287500D01*
G75*
G02*
X190825000Y-99337500I0J-50000D01*
G01*
X190825000Y-101337500D01*
G75*
G02*
X190775000Y-101387500I-50000J0D01*
G01*
X189225000Y-101387500D01*
G75*
G02*
X189175000Y-101337500I0J50000D01*
G01*
G37*
G36*
G01*
X194175000Y-101337500D02*
X194175000Y-99337500D01*
G75*
G02*
X194225000Y-99287500I50000J0D01*
G01*
X195775000Y-99287500D01*
G75*
G02*
X195825000Y-99337500I0J-50000D01*
G01*
X195825000Y-101337500D01*
G75*
G02*
X195775000Y-101387500I-50000J0D01*
G01*
X194225000Y-101387500D01*
G75*
G02*
X194175000Y-101337500I0J50000D01*
G01*
G37*
G36*
G01*
X185100000Y-92687500D02*
X185100000Y-90687500D01*
G75*
G02*
X185150000Y-90637500I50000J0D01*
G01*
X187150000Y-90637500D01*
G75*
G02*
X187200000Y-90687500I0J-50000D01*
G01*
X187200000Y-92687500D01*
G75*
G02*
X187150000Y-92737500I-50000J0D01*
G01*
X185150000Y-92737500D01*
G75*
G02*
X185100000Y-92687500I0J50000D01*
G01*
G37*
G36*
G01*
X185100000Y-104687500D02*
X185100000Y-102687500D01*
G75*
G02*
X185150000Y-102637500I50000J0D01*
G01*
X187150000Y-102637500D01*
G75*
G02*
X187200000Y-102687500I0J-50000D01*
G01*
X187200000Y-104687500D01*
G75*
G02*
X187150000Y-104737500I-50000J0D01*
G01*
X185150000Y-104737500D01*
G75*
G02*
X185100000Y-104687500I0J50000D01*
G01*
G37*
G36*
G01*
X197800000Y-92687500D02*
X197800000Y-90687500D01*
G75*
G02*
X197850000Y-90637500I50000J0D01*
G01*
X199850000Y-90637500D01*
G75*
G02*
X199900000Y-90687500I0J-50000D01*
G01*
X199900000Y-92687500D01*
G75*
G02*
X199850000Y-92737500I-50000J0D01*
G01*
X197850000Y-92737500D01*
G75*
G02*
X197800000Y-92687500I0J50000D01*
G01*
G37*
G36*
G01*
X197800000Y-104687500D02*
X197800000Y-102687500D01*
G75*
G02*
X197850000Y-102637500I50000J0D01*
G01*
X199850000Y-102637500D01*
G75*
G02*
X199900000Y-102687500I0J-50000D01*
G01*
X199900000Y-104687500D01*
G75*
G02*
X199850000Y-104737500I-50000J0D01*
G01*
X197850000Y-104737500D01*
G75*
G02*
X197800000Y-104687500I0J50000D01*
G01*
G37*
X112700000Y-84250000D03*
D11*
X112719000Y-78727000D03*
X124300000Y-78750000D03*
D10*
X124319000Y-84227000D03*
G36*
G01*
X115175000Y-85150000D02*
X115175000Y-83150000D01*
G75*
G02*
X115225000Y-83100000I50000J0D01*
G01*
X116775000Y-83100000D01*
G75*
G02*
X116825000Y-83150000I0J-50000D01*
G01*
X116825000Y-85150000D01*
G75*
G02*
X116775000Y-85200000I-50000J0D01*
G01*
X115225000Y-85200000D01*
G75*
G02*
X115175000Y-85150000I0J50000D01*
G01*
G37*
G36*
G01*
X120175000Y-85150000D02*
X120175000Y-83150000D01*
G75*
G02*
X120225000Y-83100000I50000J0D01*
G01*
X121775000Y-83100000D01*
G75*
G02*
X121825000Y-83150000I0J-50000D01*
G01*
X121825000Y-85150000D01*
G75*
G02*
X121775000Y-85200000I-50000J0D01*
G01*
X120225000Y-85200000D01*
G75*
G02*
X120175000Y-85150000I0J50000D01*
G01*
G37*
G36*
G01*
X111100000Y-76500000D02*
X111100000Y-74500000D01*
G75*
G02*
X111150000Y-74450000I50000J0D01*
G01*
X113150000Y-74450000D01*
G75*
G02*
X113200000Y-74500000I0J-50000D01*
G01*
X113200000Y-76500000D01*
G75*
G02*
X113150000Y-76550000I-50000J0D01*
G01*
X111150000Y-76550000D01*
G75*
G02*
X111100000Y-76500000I0J50000D01*
G01*
G37*
G36*
G01*
X111100000Y-88500000D02*
X111100000Y-86500000D01*
G75*
G02*
X111150000Y-86450000I50000J0D01*
G01*
X113150000Y-86450000D01*
G75*
G02*
X113200000Y-86500000I0J-50000D01*
G01*
X113200000Y-88500000D01*
G75*
G02*
X113150000Y-88550000I-50000J0D01*
G01*
X111150000Y-88550000D01*
G75*
G02*
X111100000Y-88500000I0J50000D01*
G01*
G37*
G36*
G01*
X123800000Y-76500000D02*
X123800000Y-74500000D01*
G75*
G02*
X123850000Y-74450000I50000J0D01*
G01*
X125850000Y-74450000D01*
G75*
G02*
X125900000Y-74500000I0J-50000D01*
G01*
X125900000Y-76500000D01*
G75*
G02*
X125850000Y-76550000I-50000J0D01*
G01*
X123850000Y-76550000D01*
G75*
G02*
X123800000Y-76500000I0J50000D01*
G01*
G37*
G36*
G01*
X123800000Y-88500000D02*
X123800000Y-86500000D01*
G75*
G02*
X123850000Y-86450000I50000J0D01*
G01*
X125850000Y-86450000D01*
G75*
G02*
X125900000Y-86500000I0J-50000D01*
G01*
X125900000Y-88500000D01*
G75*
G02*
X125850000Y-88550000I-50000J0D01*
G01*
X123850000Y-88550000D01*
G75*
G02*
X123800000Y-88500000I0J50000D01*
G01*
G37*
X149700000Y-58812500D03*
D11*
X149719000Y-53289500D03*
X161300000Y-53312500D03*
D10*
X161319000Y-58789500D03*
X168200000Y-79625000D03*
D11*
X168219000Y-74102000D03*
X179800000Y-74125000D03*
D10*
X179819000Y-79602000D03*
X94200000Y-84250000D03*
D11*
X94219000Y-78727000D03*
X105800000Y-78750000D03*
D10*
X105819000Y-84227000D03*
X178935878Y-118467646D03*
D11*
X180383688Y-113137755D03*
X191564122Y-116157354D03*
D10*
X190164923Y-121452648D03*
X149700000Y-95812500D03*
D11*
X149719000Y-90289500D03*
X161300000Y-90312500D03*
D10*
X161319000Y-95789500D03*
X131200000Y-42625000D03*
D11*
X131219000Y-37102000D03*
X142800000Y-37125000D03*
D10*
X142819000Y-42602000D03*
X131200000Y-98125000D03*
D11*
X131219000Y-92602000D03*
X142800000Y-92625000D03*
D10*
X142819000Y-98102000D03*
X149700000Y-40312500D03*
D11*
X149719000Y-34789500D03*
X161300000Y-34812500D03*
D10*
X161319000Y-40289500D03*
X168200000Y-42625000D03*
D11*
X168219000Y-37102000D03*
X179800000Y-37125000D03*
D10*
X179819000Y-42602000D03*
X112700000Y-102750000D03*
D11*
X112719000Y-97227000D03*
X124300000Y-97250000D03*
D10*
X124319000Y-102727000D03*
X94200000Y-47250000D03*
D11*
X94219000Y-41727000D03*
X105800000Y-41750000D03*
D10*
X105819000Y-47227000D03*
X112700000Y-47250000D03*
D11*
X112719000Y-41727000D03*
X124300000Y-41750000D03*
D10*
X124319000Y-47227000D03*
X186700000Y-81937500D03*
D11*
X186719000Y-76414500D03*
X198300000Y-76437500D03*
D10*
X198319000Y-81914500D03*
X168200000Y-61125000D03*
D11*
X168219000Y-55602000D03*
X179800000Y-55625000D03*
D10*
X179819000Y-61102000D03*
X149700000Y-77312500D03*
D11*
X149719000Y-71789500D03*
X161300000Y-71812500D03*
D10*
X161319000Y-77289500D03*
X186700000Y-44937500D03*
D11*
X186719000Y-39414500D03*
X198300000Y-39437500D03*
D10*
X198319000Y-44914500D03*
X158950000Y-117312500D03*
D11*
X158969000Y-111789500D03*
X170550000Y-111812500D03*
D10*
X170569000Y-117289500D03*
X131200000Y-79625000D03*
D11*
X131219000Y-74102000D03*
X142800000Y-74125000D03*
D10*
X142819000Y-79602000D03*
X186700000Y-100437500D03*
D11*
X186719000Y-94914500D03*
X198300000Y-94937500D03*
D10*
X198319000Y-100414500D03*
X168200000Y-98125000D03*
D11*
X168219000Y-92602000D03*
X179800000Y-92625000D03*
D10*
X179819000Y-98102000D03*
X94200000Y-102750000D03*
D11*
X94219000Y-97227000D03*
X105800000Y-97250000D03*
D10*
X105819000Y-102727000D03*
X131200000Y-61125000D03*
D11*
X131219000Y-55602000D03*
X142800000Y-55625000D03*
D10*
X142819000Y-61102000D03*
X206495370Y-127345147D03*
D11*
X201721812Y-124567193D03*
X207532230Y-114549253D03*
D10*
X212284951Y-117271298D03*
X94200000Y-65750000D03*
D11*
X94219000Y-60227000D03*
X105800000Y-60250000D03*
D10*
X105819000Y-65727000D03*
X186700000Y-63437500D03*
D11*
X186719000Y-57914500D03*
X198300000Y-57937500D03*
D10*
X198319000Y-63414500D03*
X112700000Y-65750000D03*
D11*
X112719000Y-60227000D03*
X124300000Y-60250000D03*
D10*
X124319000Y-65727000D03*
X112700000Y-84250000D03*
D11*
X112719000Y-78727000D03*
X124300000Y-78750000D03*
D10*
X124319000Y-84227000D03*
M02*
