G04 #@! TF.GenerationSoftware,KiCad,Pcbnew,8.0.8+1*
G04 #@! TF.CreationDate,2025-03-02T13:35:21+00:00*
G04 #@! TF.ProjectId,zeph_wireless_autorouted,7a657068-5f77-4697-9265-6c6573735f61,0.2*
G04 #@! TF.SameCoordinates,Original*
G04 #@! TF.FileFunction,Profile,NP*
%FSLAX46Y46*%
G04 Gerber Fmt 4.6, Leading zero omitted, Abs format (unit mm)*
G04 Created by KiCad (PCBNEW 8.0.8+1) date 2025-03-02 13:35:21*
%MOMM*%
%LPD*%
G01*
G04 APERTURE LIST*
G04 #@! TA.AperFunction,Profile*
%ADD10C,0.150000*%
G04 #@! TD*
G04 APERTURE END LIST*
D10*
X156258589Y-123427964D02*
G75*
G02*
X155918613Y-123225562I64911J495764D01*
G01*
X147315000Y-28909500D02*
X163843000Y-28909500D01*
X146815000Y-30602500D02*
X146815000Y-29409500D01*
X146815000Y-30602500D02*
G75*
G02*
X146315000Y-31102500I-500000J0D01*
G01*
X182343000Y-31102500D02*
G75*
G02*
X182843000Y-31602500I0J-500000D01*
G01*
X192592389Y-128184877D02*
G75*
G02*
X192777482Y-128247633I-64789J-495423D01*
G01*
X164843000Y-31102500D02*
G75*
G02*
X164343000Y-30602500I0J500000D01*
G01*
X207528025Y-136763864D02*
X192777482Y-128247634D01*
X201818604Y-54227500D02*
X221068000Y-54227500D01*
X163843000Y-28909500D02*
G75*
G02*
X164343000Y-29409500I0J-500000D01*
G01*
X183342959Y-33533041D02*
G75*
G02*
X182843059Y-33033041I41J499941D01*
G01*
X201818604Y-54227500D02*
G75*
G02*
X201318600Y-53726896I-4J500000D01*
G01*
X128315000Y-31602500D02*
G75*
G02*
X128815000Y-31102500I500000J0D01*
G01*
X200842436Y-33534459D02*
G75*
G02*
X201342341Y-34035064I-36J-499941D01*
G01*
X146815000Y-29409500D02*
G75*
G02*
X147315000Y-28909500I500000J0D01*
G01*
X128815000Y-31102500D02*
X146315000Y-31102500D01*
X145352317Y-108995012D02*
G75*
G02*
X145757264Y-109201614I-17J-500188D01*
G01*
X221068000Y-54227500D02*
G75*
G02*
X221568000Y-54727500I0J-500000D01*
G01*
X201342395Y-34035063D02*
X201318605Y-53726896D01*
X221253000Y-113634096D02*
X208212721Y-136577913D01*
X91817009Y-108997477D02*
G75*
G02*
X91316923Y-108497491I-9J500077D01*
G01*
X183342959Y-33533041D02*
X200842436Y-33534459D01*
X221568000Y-112954525D02*
G75*
G02*
X221501025Y-113204532I-500200J25D01*
G01*
X192592389Y-128184877D02*
X156258589Y-123427964D01*
X164843000Y-31102500D02*
X182343000Y-31102500D01*
X91315014Y-36227500D02*
G75*
G02*
X91815000Y-35727514I499986J0D01*
G01*
X155918609Y-123225565D02*
X145757227Y-109201641D01*
X128315000Y-35226514D02*
G75*
G02*
X127815013Y-35726500I-500000J14D01*
G01*
X182843000Y-31602500D02*
X182843000Y-33033041D01*
X164343000Y-29409500D02*
X164343000Y-30602500D01*
X128315000Y-35226514D02*
X128315000Y-31602500D01*
X145352317Y-108995012D02*
X91817009Y-108997477D01*
X208212721Y-136577914D02*
G75*
G02*
X207528017Y-136763878I-434721J247114D01*
G01*
X91316986Y-108497491D02*
X91315014Y-36227500D01*
X221568000Y-54727500D02*
X221568000Y-112954525D01*
X91815000Y-35727486D02*
X127815014Y-35726514D01*
X221501013Y-113204525D02*
X221253000Y-113634096D01*
M02*
