G04 #@! TF.GenerationSoftware,KiCad,Pcbnew,8.0.8+1*
G04 #@! TF.CreationDate,2025-03-02T13:35:21+00:00*
G04 #@! TF.ProjectId,zeph_wireless_autorouted,7a657068-5f77-4697-9265-6c6573735f61,0.2*
G04 #@! TF.SameCoordinates,Original*
G04 #@! TF.FileFunction,Legend,Bot*
G04 #@! TF.FilePolarity,Positive*
%FSLAX46Y46*%
G04 Gerber Fmt 4.6, Leading zero omitted, Abs format (unit mm)*
G04 Created by KiCad (PCBNEW 8.0.8+1) date 2025-03-02 13:35:21*
%MOMM*%
%LPD*%
G01*
G04 APERTURE LIST*
%ADD10C,0.150000*%
%ADD11C,0.120000*%
%ADD12C,0.100000*%
%ADD13C,1.100000*%
%ADD14C,1.300000*%
%ADD15O,1.800000X1.800000*%
%ADD16C,1.800000*%
%ADD17C,3.550000*%
%ADD18C,0.850000*%
%ADD19C,1.000000*%
%ADD20C,0.900000*%
%ADD21O,1.850000X1.300000*%
%ADD22C,2.300000*%
G04 APERTURE END LIST*
D10*
X140619047Y-106854819D02*
X139952381Y-106854819D01*
X139952381Y-106854819D02*
X140619047Y-107854819D01*
X140619047Y-107854819D02*
X139952381Y-107854819D01*
X139190476Y-107807200D02*
X139285714Y-107854819D01*
X139285714Y-107854819D02*
X139476190Y-107854819D01*
X139476190Y-107854819D02*
X139571428Y-107807200D01*
X139571428Y-107807200D02*
X139619047Y-107711961D01*
X139619047Y-107711961D02*
X139619047Y-107331009D01*
X139619047Y-107331009D02*
X139571428Y-107235771D01*
X139571428Y-107235771D02*
X139476190Y-107188152D01*
X139476190Y-107188152D02*
X139285714Y-107188152D01*
X139285714Y-107188152D02*
X139190476Y-107235771D01*
X139190476Y-107235771D02*
X139142857Y-107331009D01*
X139142857Y-107331009D02*
X139142857Y-107426247D01*
X139142857Y-107426247D02*
X139619047Y-107521485D01*
X138714285Y-107188152D02*
X138714285Y-108188152D01*
X138714285Y-107235771D02*
X138619047Y-107188152D01*
X138619047Y-107188152D02*
X138428571Y-107188152D01*
X138428571Y-107188152D02*
X138333333Y-107235771D01*
X138333333Y-107235771D02*
X138285714Y-107283390D01*
X138285714Y-107283390D02*
X138238095Y-107378628D01*
X138238095Y-107378628D02*
X138238095Y-107664342D01*
X138238095Y-107664342D02*
X138285714Y-107759580D01*
X138285714Y-107759580D02*
X138333333Y-107807200D01*
X138333333Y-107807200D02*
X138428571Y-107854819D01*
X138428571Y-107854819D02*
X138619047Y-107854819D01*
X138619047Y-107854819D02*
X138714285Y-107807200D01*
X137809523Y-107854819D02*
X137809523Y-106854819D01*
X137380952Y-107854819D02*
X137380952Y-107331009D01*
X137380952Y-107331009D02*
X137428571Y-107235771D01*
X137428571Y-107235771D02*
X137523809Y-107188152D01*
X137523809Y-107188152D02*
X137666666Y-107188152D01*
X137666666Y-107188152D02*
X137761904Y-107235771D01*
X137761904Y-107235771D02*
X137809523Y-107283390D01*
X136238094Y-107188152D02*
X135999999Y-107854819D01*
X135999999Y-107854819D02*
X135761904Y-107188152D01*
X134857142Y-107854819D02*
X135428570Y-107854819D01*
X135142856Y-107854819D02*
X135142856Y-106854819D01*
X135142856Y-106854819D02*
X135238094Y-106997676D01*
X135238094Y-106997676D02*
X135333332Y-107092914D01*
X135333332Y-107092914D02*
X135428570Y-107140533D01*
X134428570Y-107759580D02*
X134380951Y-107807200D01*
X134380951Y-107807200D02*
X134428570Y-107854819D01*
X134428570Y-107854819D02*
X134476189Y-107807200D01*
X134476189Y-107807200D02*
X134428570Y-107759580D01*
X134428570Y-107759580D02*
X134428570Y-107854819D01*
X133761904Y-106854819D02*
X133666666Y-106854819D01*
X133666666Y-106854819D02*
X133571428Y-106902438D01*
X133571428Y-106902438D02*
X133523809Y-106950057D01*
X133523809Y-106950057D02*
X133476190Y-107045295D01*
X133476190Y-107045295D02*
X133428571Y-107235771D01*
X133428571Y-107235771D02*
X133428571Y-107473866D01*
X133428571Y-107473866D02*
X133476190Y-107664342D01*
X133476190Y-107664342D02*
X133523809Y-107759580D01*
X133523809Y-107759580D02*
X133571428Y-107807200D01*
X133571428Y-107807200D02*
X133666666Y-107854819D01*
X133666666Y-107854819D02*
X133761904Y-107854819D01*
X133761904Y-107854819D02*
X133857142Y-107807200D01*
X133857142Y-107807200D02*
X133904761Y-107759580D01*
X133904761Y-107759580D02*
X133952380Y-107664342D01*
X133952380Y-107664342D02*
X133999999Y-107473866D01*
X133999999Y-107473866D02*
X133999999Y-107235771D01*
X133999999Y-107235771D02*
X133952380Y-107045295D01*
X133952380Y-107045295D02*
X133904761Y-106950057D01*
X133904761Y-106950057D02*
X133857142Y-106902438D01*
X133857142Y-106902438D02*
X133761904Y-106854819D01*
X220702380Y-104704819D02*
X220511904Y-104704819D01*
X220511904Y-104704819D02*
X220416666Y-104752438D01*
X220416666Y-104752438D02*
X220321428Y-104847676D01*
X220321428Y-104847676D02*
X220273809Y-105038152D01*
X220273809Y-105038152D02*
X220273809Y-105371485D01*
X220273809Y-105371485D02*
X220321428Y-105561961D01*
X220321428Y-105561961D02*
X220416666Y-105657200D01*
X220416666Y-105657200D02*
X220511904Y-105704819D01*
X220511904Y-105704819D02*
X220702380Y-105704819D01*
X220702380Y-105704819D02*
X220797618Y-105657200D01*
X220797618Y-105657200D02*
X220892856Y-105561961D01*
X220892856Y-105561961D02*
X220940475Y-105371485D01*
X220940475Y-105371485D02*
X220940475Y-105038152D01*
X220940475Y-105038152D02*
X220892856Y-104847676D01*
X220892856Y-104847676D02*
X220797618Y-104752438D01*
X220797618Y-104752438D02*
X220702380Y-104704819D01*
X219511904Y-105181009D02*
X219845237Y-105181009D01*
X219845237Y-105704819D02*
X219845237Y-104704819D01*
X219845237Y-104704819D02*
X219369047Y-104704819D01*
X218654761Y-105181009D02*
X218988094Y-105181009D01*
X218988094Y-105704819D02*
X218988094Y-104704819D01*
X218988094Y-104704819D02*
X218511904Y-104704819D01*
X220369047Y-94704819D02*
X220178571Y-94704819D01*
X220178571Y-94704819D02*
X220083333Y-94752438D01*
X220083333Y-94752438D02*
X219988095Y-94847676D01*
X219988095Y-94847676D02*
X219940476Y-95038152D01*
X219940476Y-95038152D02*
X219940476Y-95371485D01*
X219940476Y-95371485D02*
X219988095Y-95561961D01*
X219988095Y-95561961D02*
X220083333Y-95657200D01*
X220083333Y-95657200D02*
X220178571Y-95704819D01*
X220178571Y-95704819D02*
X220369047Y-95704819D01*
X220369047Y-95704819D02*
X220464285Y-95657200D01*
X220464285Y-95657200D02*
X220559523Y-95561961D01*
X220559523Y-95561961D02*
X220607142Y-95371485D01*
X220607142Y-95371485D02*
X220607142Y-95038152D01*
X220607142Y-95038152D02*
X220559523Y-94847676D01*
X220559523Y-94847676D02*
X220464285Y-94752438D01*
X220464285Y-94752438D02*
X220369047Y-94704819D01*
X219511904Y-95704819D02*
X219511904Y-94704819D01*
X219511904Y-94704819D02*
X218940476Y-95704819D01*
X218940476Y-95704819D02*
X218940476Y-94704819D01*
X214410666Y-82639580D02*
X214458285Y-82687200D01*
X214458285Y-82687200D02*
X214601142Y-82734819D01*
X214601142Y-82734819D02*
X214696380Y-82734819D01*
X214696380Y-82734819D02*
X214839237Y-82687200D01*
X214839237Y-82687200D02*
X214934475Y-82591961D01*
X214934475Y-82591961D02*
X214982094Y-82496723D01*
X214982094Y-82496723D02*
X215029713Y-82306247D01*
X215029713Y-82306247D02*
X215029713Y-82163390D01*
X215029713Y-82163390D02*
X214982094Y-81972914D01*
X214982094Y-81972914D02*
X214934475Y-81877676D01*
X214934475Y-81877676D02*
X214839237Y-81782438D01*
X214839237Y-81782438D02*
X214696380Y-81734819D01*
X214696380Y-81734819D02*
X214601142Y-81734819D01*
X214601142Y-81734819D02*
X214458285Y-81782438D01*
X214458285Y-81782438D02*
X214410666Y-81830057D01*
X213505904Y-81734819D02*
X213982094Y-81734819D01*
X213982094Y-81734819D02*
X214029713Y-82211009D01*
X214029713Y-82211009D02*
X213982094Y-82163390D01*
X213982094Y-82163390D02*
X213886856Y-82115771D01*
X213886856Y-82115771D02*
X213648761Y-82115771D01*
X213648761Y-82115771D02*
X213553523Y-82163390D01*
X213553523Y-82163390D02*
X213505904Y-82211009D01*
X213505904Y-82211009D02*
X213458285Y-82306247D01*
X213458285Y-82306247D02*
X213458285Y-82544342D01*
X213458285Y-82544342D02*
X213505904Y-82639580D01*
X213505904Y-82639580D02*
X213553523Y-82687200D01*
X213553523Y-82687200D02*
X213648761Y-82734819D01*
X213648761Y-82734819D02*
X213886856Y-82734819D01*
X213886856Y-82734819D02*
X213982094Y-82687200D01*
X213982094Y-82687200D02*
X214029713Y-82639580D01*
X210330666Y-82734819D02*
X210663999Y-82258628D01*
X210902094Y-82734819D02*
X210902094Y-81734819D01*
X210902094Y-81734819D02*
X210521142Y-81734819D01*
X210521142Y-81734819D02*
X210425904Y-81782438D01*
X210425904Y-81782438D02*
X210378285Y-81830057D01*
X210378285Y-81830057D02*
X210330666Y-81925295D01*
X210330666Y-81925295D02*
X210330666Y-82068152D01*
X210330666Y-82068152D02*
X210378285Y-82163390D01*
X210378285Y-82163390D02*
X210425904Y-82211009D01*
X210425904Y-82211009D02*
X210521142Y-82258628D01*
X210521142Y-82258628D02*
X210902094Y-82258628D01*
X209949713Y-81830057D02*
X209902094Y-81782438D01*
X209902094Y-81782438D02*
X209806856Y-81734819D01*
X209806856Y-81734819D02*
X209568761Y-81734819D01*
X209568761Y-81734819D02*
X209473523Y-81782438D01*
X209473523Y-81782438D02*
X209425904Y-81830057D01*
X209425904Y-81830057D02*
X209378285Y-81925295D01*
X209378285Y-81925295D02*
X209378285Y-82020533D01*
X209378285Y-82020533D02*
X209425904Y-82163390D01*
X209425904Y-82163390D02*
X209997332Y-82734819D01*
X209997332Y-82734819D02*
X209378285Y-82734819D01*
X214410666Y-77559580D02*
X214458285Y-77607200D01*
X214458285Y-77607200D02*
X214601142Y-77654819D01*
X214601142Y-77654819D02*
X214696380Y-77654819D01*
X214696380Y-77654819D02*
X214839237Y-77607200D01*
X214839237Y-77607200D02*
X214934475Y-77511961D01*
X214934475Y-77511961D02*
X214982094Y-77416723D01*
X214982094Y-77416723D02*
X215029713Y-77226247D01*
X215029713Y-77226247D02*
X215029713Y-77083390D01*
X215029713Y-77083390D02*
X214982094Y-76892914D01*
X214982094Y-76892914D02*
X214934475Y-76797676D01*
X214934475Y-76797676D02*
X214839237Y-76702438D01*
X214839237Y-76702438D02*
X214696380Y-76654819D01*
X214696380Y-76654819D02*
X214601142Y-76654819D01*
X214601142Y-76654819D02*
X214458285Y-76702438D01*
X214458285Y-76702438D02*
X214410666Y-76750057D01*
X214077332Y-76654819D02*
X213458285Y-76654819D01*
X213458285Y-76654819D02*
X213791618Y-77035771D01*
X213791618Y-77035771D02*
X213648761Y-77035771D01*
X213648761Y-77035771D02*
X213553523Y-77083390D01*
X213553523Y-77083390D02*
X213505904Y-77131009D01*
X213505904Y-77131009D02*
X213458285Y-77226247D01*
X213458285Y-77226247D02*
X213458285Y-77464342D01*
X213458285Y-77464342D02*
X213505904Y-77559580D01*
X213505904Y-77559580D02*
X213553523Y-77607200D01*
X213553523Y-77607200D02*
X213648761Y-77654819D01*
X213648761Y-77654819D02*
X213934475Y-77654819D01*
X213934475Y-77654819D02*
X214029713Y-77607200D01*
X214029713Y-77607200D02*
X214077332Y-77559580D01*
X211968285Y-69987200D02*
X211825428Y-70034819D01*
X211825428Y-70034819D02*
X211587333Y-70034819D01*
X211587333Y-70034819D02*
X211492095Y-69987200D01*
X211492095Y-69987200D02*
X211444476Y-69939580D01*
X211444476Y-69939580D02*
X211396857Y-69844342D01*
X211396857Y-69844342D02*
X211396857Y-69749104D01*
X211396857Y-69749104D02*
X211444476Y-69653866D01*
X211444476Y-69653866D02*
X211492095Y-69606247D01*
X211492095Y-69606247D02*
X211587333Y-69558628D01*
X211587333Y-69558628D02*
X211777809Y-69511009D01*
X211777809Y-69511009D02*
X211873047Y-69463390D01*
X211873047Y-69463390D02*
X211920666Y-69415771D01*
X211920666Y-69415771D02*
X211968285Y-69320533D01*
X211968285Y-69320533D02*
X211968285Y-69225295D01*
X211968285Y-69225295D02*
X211920666Y-69130057D01*
X211920666Y-69130057D02*
X211873047Y-69082438D01*
X211873047Y-69082438D02*
X211777809Y-69034819D01*
X211777809Y-69034819D02*
X211539714Y-69034819D01*
X211539714Y-69034819D02*
X211396857Y-69082438D01*
X210968285Y-70034819D02*
X210968285Y-69034819D01*
X210968285Y-69034819D02*
X210730190Y-69034819D01*
X210730190Y-69034819D02*
X210587333Y-69082438D01*
X210587333Y-69082438D02*
X210492095Y-69177676D01*
X210492095Y-69177676D02*
X210444476Y-69272914D01*
X210444476Y-69272914D02*
X210396857Y-69463390D01*
X210396857Y-69463390D02*
X210396857Y-69606247D01*
X210396857Y-69606247D02*
X210444476Y-69796723D01*
X210444476Y-69796723D02*
X210492095Y-69891961D01*
X210492095Y-69891961D02*
X210587333Y-69987200D01*
X210587333Y-69987200D02*
X210730190Y-70034819D01*
X210730190Y-70034819D02*
X210968285Y-70034819D01*
X210015904Y-69749104D02*
X209539714Y-69749104D01*
X210111142Y-70034819D02*
X209777809Y-69034819D01*
X209777809Y-69034819D02*
X209444476Y-70034819D01*
X214410666Y-72479580D02*
X214458285Y-72527200D01*
X214458285Y-72527200D02*
X214601142Y-72574819D01*
X214601142Y-72574819D02*
X214696380Y-72574819D01*
X214696380Y-72574819D02*
X214839237Y-72527200D01*
X214839237Y-72527200D02*
X214934475Y-72431961D01*
X214934475Y-72431961D02*
X214982094Y-72336723D01*
X214982094Y-72336723D02*
X215029713Y-72146247D01*
X215029713Y-72146247D02*
X215029713Y-72003390D01*
X215029713Y-72003390D02*
X214982094Y-71812914D01*
X214982094Y-71812914D02*
X214934475Y-71717676D01*
X214934475Y-71717676D02*
X214839237Y-71622438D01*
X214839237Y-71622438D02*
X214696380Y-71574819D01*
X214696380Y-71574819D02*
X214601142Y-71574819D01*
X214601142Y-71574819D02*
X214458285Y-71622438D01*
X214458285Y-71622438D02*
X214410666Y-71670057D01*
X213458285Y-72574819D02*
X214029713Y-72574819D01*
X213743999Y-72574819D02*
X213743999Y-71574819D01*
X213743999Y-71574819D02*
X213839237Y-71717676D01*
X213839237Y-71717676D02*
X213934475Y-71812914D01*
X213934475Y-71812914D02*
X214029713Y-71860533D01*
X211825428Y-62414819D02*
X211825428Y-61414819D01*
X211825428Y-61414819D02*
X211587333Y-61414819D01*
X211587333Y-61414819D02*
X211444476Y-61462438D01*
X211444476Y-61462438D02*
X211349238Y-61557676D01*
X211349238Y-61557676D02*
X211301619Y-61652914D01*
X211301619Y-61652914D02*
X211254000Y-61843390D01*
X211254000Y-61843390D02*
X211254000Y-61986247D01*
X211254000Y-61986247D02*
X211301619Y-62176723D01*
X211301619Y-62176723D02*
X211349238Y-62271961D01*
X211349238Y-62271961D02*
X211444476Y-62367200D01*
X211444476Y-62367200D02*
X211587333Y-62414819D01*
X211587333Y-62414819D02*
X211825428Y-62414819D01*
X210873047Y-62129104D02*
X210396857Y-62129104D01*
X210968285Y-62414819D02*
X210634952Y-61414819D01*
X210634952Y-61414819D02*
X210301619Y-62414819D01*
X210111142Y-61414819D02*
X209539714Y-61414819D01*
X209825428Y-62414819D02*
X209825428Y-61414819D01*
X214201619Y-64954819D02*
X214534952Y-64478628D01*
X214773047Y-64954819D02*
X214773047Y-63954819D01*
X214773047Y-63954819D02*
X214392095Y-63954819D01*
X214392095Y-63954819D02*
X214296857Y-64002438D01*
X214296857Y-64002438D02*
X214249238Y-64050057D01*
X214249238Y-64050057D02*
X214201619Y-64145295D01*
X214201619Y-64145295D02*
X214201619Y-64288152D01*
X214201619Y-64288152D02*
X214249238Y-64383390D01*
X214249238Y-64383390D02*
X214296857Y-64431009D01*
X214296857Y-64431009D02*
X214392095Y-64478628D01*
X214392095Y-64478628D02*
X214773047Y-64478628D01*
X213820666Y-64907200D02*
X213677809Y-64954819D01*
X213677809Y-64954819D02*
X213439714Y-64954819D01*
X213439714Y-64954819D02*
X213344476Y-64907200D01*
X213344476Y-64907200D02*
X213296857Y-64859580D01*
X213296857Y-64859580D02*
X213249238Y-64764342D01*
X213249238Y-64764342D02*
X213249238Y-64669104D01*
X213249238Y-64669104D02*
X213296857Y-64573866D01*
X213296857Y-64573866D02*
X213344476Y-64526247D01*
X213344476Y-64526247D02*
X213439714Y-64478628D01*
X213439714Y-64478628D02*
X213630190Y-64431009D01*
X213630190Y-64431009D02*
X213725428Y-64383390D01*
X213725428Y-64383390D02*
X213773047Y-64335771D01*
X213773047Y-64335771D02*
X213820666Y-64240533D01*
X213820666Y-64240533D02*
X213820666Y-64145295D01*
X213820666Y-64145295D02*
X213773047Y-64050057D01*
X213773047Y-64050057D02*
X213725428Y-64002438D01*
X213725428Y-64002438D02*
X213630190Y-63954819D01*
X213630190Y-63954819D02*
X213392095Y-63954819D01*
X213392095Y-63954819D02*
X213249238Y-64002438D01*
X212963523Y-63954819D02*
X212392095Y-63954819D01*
X212677809Y-64954819D02*
X212677809Y-63954819D01*
X210330666Y-87814819D02*
X210663999Y-87338628D01*
X210902094Y-87814819D02*
X210902094Y-86814819D01*
X210902094Y-86814819D02*
X210521142Y-86814819D01*
X210521142Y-86814819D02*
X210425904Y-86862438D01*
X210425904Y-86862438D02*
X210378285Y-86910057D01*
X210378285Y-86910057D02*
X210330666Y-87005295D01*
X210330666Y-87005295D02*
X210330666Y-87148152D01*
X210330666Y-87148152D02*
X210378285Y-87243390D01*
X210378285Y-87243390D02*
X210425904Y-87291009D01*
X210425904Y-87291009D02*
X210521142Y-87338628D01*
X210521142Y-87338628D02*
X210902094Y-87338628D01*
X209473523Y-87148152D02*
X209473523Y-87814819D01*
X209711618Y-86767200D02*
X209949713Y-87481485D01*
X209949713Y-87481485D02*
X209330666Y-87481485D01*
X214410666Y-75019580D02*
X214458285Y-75067200D01*
X214458285Y-75067200D02*
X214601142Y-75114819D01*
X214601142Y-75114819D02*
X214696380Y-75114819D01*
X214696380Y-75114819D02*
X214839237Y-75067200D01*
X214839237Y-75067200D02*
X214934475Y-74971961D01*
X214934475Y-74971961D02*
X214982094Y-74876723D01*
X214982094Y-74876723D02*
X215029713Y-74686247D01*
X215029713Y-74686247D02*
X215029713Y-74543390D01*
X215029713Y-74543390D02*
X214982094Y-74352914D01*
X214982094Y-74352914D02*
X214934475Y-74257676D01*
X214934475Y-74257676D02*
X214839237Y-74162438D01*
X214839237Y-74162438D02*
X214696380Y-74114819D01*
X214696380Y-74114819D02*
X214601142Y-74114819D01*
X214601142Y-74114819D02*
X214458285Y-74162438D01*
X214458285Y-74162438D02*
X214410666Y-74210057D01*
X214029713Y-74210057D02*
X213982094Y-74162438D01*
X213982094Y-74162438D02*
X213886856Y-74114819D01*
X213886856Y-74114819D02*
X213648761Y-74114819D01*
X213648761Y-74114819D02*
X213553523Y-74162438D01*
X213553523Y-74162438D02*
X213505904Y-74210057D01*
X213505904Y-74210057D02*
X213458285Y-74305295D01*
X213458285Y-74305295D02*
X213458285Y-74400533D01*
X213458285Y-74400533D02*
X213505904Y-74543390D01*
X213505904Y-74543390D02*
X214077332Y-75114819D01*
X214077332Y-75114819D02*
X213458285Y-75114819D01*
X210330666Y-80194819D02*
X210663999Y-79718628D01*
X210902094Y-80194819D02*
X210902094Y-79194819D01*
X210902094Y-79194819D02*
X210521142Y-79194819D01*
X210521142Y-79194819D02*
X210425904Y-79242438D01*
X210425904Y-79242438D02*
X210378285Y-79290057D01*
X210378285Y-79290057D02*
X210330666Y-79385295D01*
X210330666Y-79385295D02*
X210330666Y-79528152D01*
X210330666Y-79528152D02*
X210378285Y-79623390D01*
X210378285Y-79623390D02*
X210425904Y-79671009D01*
X210425904Y-79671009D02*
X210521142Y-79718628D01*
X210521142Y-79718628D02*
X210902094Y-79718628D01*
X209378285Y-80194819D02*
X209949713Y-80194819D01*
X209663999Y-80194819D02*
X209663999Y-79194819D01*
X209663999Y-79194819D02*
X209759237Y-79337676D01*
X209759237Y-79337676D02*
X209854475Y-79432914D01*
X209854475Y-79432914D02*
X209949713Y-79480533D01*
X211396857Y-59874819D02*
X211873047Y-59874819D01*
X211873047Y-59874819D02*
X211873047Y-58874819D01*
X211063523Y-59351009D02*
X210730190Y-59351009D01*
X210587333Y-59874819D02*
X211063523Y-59874819D01*
X211063523Y-59874819D02*
X211063523Y-58874819D01*
X211063523Y-58874819D02*
X210587333Y-58874819D01*
X210158761Y-59874819D02*
X210158761Y-58874819D01*
X210158761Y-58874819D02*
X209920666Y-58874819D01*
X209920666Y-58874819D02*
X209777809Y-58922438D01*
X209777809Y-58922438D02*
X209682571Y-59017676D01*
X209682571Y-59017676D02*
X209634952Y-59112914D01*
X209634952Y-59112914D02*
X209587333Y-59303390D01*
X209587333Y-59303390D02*
X209587333Y-59446247D01*
X209587333Y-59446247D02*
X209634952Y-59636723D01*
X209634952Y-59636723D02*
X209682571Y-59731961D01*
X209682571Y-59731961D02*
X209777809Y-59827200D01*
X209777809Y-59827200D02*
X209920666Y-59874819D01*
X209920666Y-59874819D02*
X210158761Y-59874819D01*
X211944475Y-72527200D02*
X211801618Y-72574819D01*
X211801618Y-72574819D02*
X211563523Y-72574819D01*
X211563523Y-72574819D02*
X211468285Y-72527200D01*
X211468285Y-72527200D02*
X211420666Y-72479580D01*
X211420666Y-72479580D02*
X211373047Y-72384342D01*
X211373047Y-72384342D02*
X211373047Y-72289104D01*
X211373047Y-72289104D02*
X211420666Y-72193866D01*
X211420666Y-72193866D02*
X211468285Y-72146247D01*
X211468285Y-72146247D02*
X211563523Y-72098628D01*
X211563523Y-72098628D02*
X211753999Y-72051009D01*
X211753999Y-72051009D02*
X211849237Y-72003390D01*
X211849237Y-72003390D02*
X211896856Y-71955771D01*
X211896856Y-71955771D02*
X211944475Y-71860533D01*
X211944475Y-71860533D02*
X211944475Y-71765295D01*
X211944475Y-71765295D02*
X211896856Y-71670057D01*
X211896856Y-71670057D02*
X211849237Y-71622438D01*
X211849237Y-71622438D02*
X211753999Y-71574819D01*
X211753999Y-71574819D02*
X211515904Y-71574819D01*
X211515904Y-71574819D02*
X211373047Y-71622438D01*
X210373047Y-72479580D02*
X210420666Y-72527200D01*
X210420666Y-72527200D02*
X210563523Y-72574819D01*
X210563523Y-72574819D02*
X210658761Y-72574819D01*
X210658761Y-72574819D02*
X210801618Y-72527200D01*
X210801618Y-72527200D02*
X210896856Y-72431961D01*
X210896856Y-72431961D02*
X210944475Y-72336723D01*
X210944475Y-72336723D02*
X210992094Y-72146247D01*
X210992094Y-72146247D02*
X210992094Y-72003390D01*
X210992094Y-72003390D02*
X210944475Y-71812914D01*
X210944475Y-71812914D02*
X210896856Y-71717676D01*
X210896856Y-71717676D02*
X210801618Y-71622438D01*
X210801618Y-71622438D02*
X210658761Y-71574819D01*
X210658761Y-71574819D02*
X210563523Y-71574819D01*
X210563523Y-71574819D02*
X210420666Y-71622438D01*
X210420666Y-71622438D02*
X210373047Y-71670057D01*
X209468285Y-72574819D02*
X209944475Y-72574819D01*
X209944475Y-72574819D02*
X209944475Y-71574819D01*
X210330666Y-75019580D02*
X210378285Y-75067200D01*
X210378285Y-75067200D02*
X210521142Y-75114819D01*
X210521142Y-75114819D02*
X210616380Y-75114819D01*
X210616380Y-75114819D02*
X210759237Y-75067200D01*
X210759237Y-75067200D02*
X210854475Y-74971961D01*
X210854475Y-74971961D02*
X210902094Y-74876723D01*
X210902094Y-74876723D02*
X210949713Y-74686247D01*
X210949713Y-74686247D02*
X210949713Y-74543390D01*
X210949713Y-74543390D02*
X210902094Y-74352914D01*
X210902094Y-74352914D02*
X210854475Y-74257676D01*
X210854475Y-74257676D02*
X210759237Y-74162438D01*
X210759237Y-74162438D02*
X210616380Y-74114819D01*
X210616380Y-74114819D02*
X210521142Y-74114819D01*
X210521142Y-74114819D02*
X210378285Y-74162438D01*
X210378285Y-74162438D02*
X210330666Y-74210057D01*
X209949713Y-75067200D02*
X209806856Y-75114819D01*
X209806856Y-75114819D02*
X209568761Y-75114819D01*
X209568761Y-75114819D02*
X209473523Y-75067200D01*
X209473523Y-75067200D02*
X209425904Y-75019580D01*
X209425904Y-75019580D02*
X209378285Y-74924342D01*
X209378285Y-74924342D02*
X209378285Y-74829104D01*
X209378285Y-74829104D02*
X209425904Y-74733866D01*
X209425904Y-74733866D02*
X209473523Y-74686247D01*
X209473523Y-74686247D02*
X209568761Y-74638628D01*
X209568761Y-74638628D02*
X209759237Y-74591009D01*
X209759237Y-74591009D02*
X209854475Y-74543390D01*
X209854475Y-74543390D02*
X209902094Y-74495771D01*
X209902094Y-74495771D02*
X209949713Y-74400533D01*
X209949713Y-74400533D02*
X209949713Y-74305295D01*
X209949713Y-74305295D02*
X209902094Y-74210057D01*
X209902094Y-74210057D02*
X209854475Y-74162438D01*
X209854475Y-74162438D02*
X209759237Y-74114819D01*
X209759237Y-74114819D02*
X209521142Y-74114819D01*
X209521142Y-74114819D02*
X209378285Y-74162438D01*
X214410666Y-80099580D02*
X214458285Y-80147200D01*
X214458285Y-80147200D02*
X214601142Y-80194819D01*
X214601142Y-80194819D02*
X214696380Y-80194819D01*
X214696380Y-80194819D02*
X214839237Y-80147200D01*
X214839237Y-80147200D02*
X214934475Y-80051961D01*
X214934475Y-80051961D02*
X214982094Y-79956723D01*
X214982094Y-79956723D02*
X215029713Y-79766247D01*
X215029713Y-79766247D02*
X215029713Y-79623390D01*
X215029713Y-79623390D02*
X214982094Y-79432914D01*
X214982094Y-79432914D02*
X214934475Y-79337676D01*
X214934475Y-79337676D02*
X214839237Y-79242438D01*
X214839237Y-79242438D02*
X214696380Y-79194819D01*
X214696380Y-79194819D02*
X214601142Y-79194819D01*
X214601142Y-79194819D02*
X214458285Y-79242438D01*
X214458285Y-79242438D02*
X214410666Y-79290057D01*
X213553523Y-79528152D02*
X213553523Y-80194819D01*
X213791618Y-79147200D02*
X214029713Y-79861485D01*
X214029713Y-79861485D02*
X213410666Y-79861485D01*
X210330666Y-77654819D02*
X210663999Y-77178628D01*
X210902094Y-77654819D02*
X210902094Y-76654819D01*
X210902094Y-76654819D02*
X210521142Y-76654819D01*
X210521142Y-76654819D02*
X210425904Y-76702438D01*
X210425904Y-76702438D02*
X210378285Y-76750057D01*
X210378285Y-76750057D02*
X210330666Y-76845295D01*
X210330666Y-76845295D02*
X210330666Y-76988152D01*
X210330666Y-76988152D02*
X210378285Y-77083390D01*
X210378285Y-77083390D02*
X210425904Y-77131009D01*
X210425904Y-77131009D02*
X210521142Y-77178628D01*
X210521142Y-77178628D02*
X210902094Y-77178628D01*
X209711618Y-76654819D02*
X209616380Y-76654819D01*
X209616380Y-76654819D02*
X209521142Y-76702438D01*
X209521142Y-76702438D02*
X209473523Y-76750057D01*
X209473523Y-76750057D02*
X209425904Y-76845295D01*
X209425904Y-76845295D02*
X209378285Y-77035771D01*
X209378285Y-77035771D02*
X209378285Y-77273866D01*
X209378285Y-77273866D02*
X209425904Y-77464342D01*
X209425904Y-77464342D02*
X209473523Y-77559580D01*
X209473523Y-77559580D02*
X209521142Y-77607200D01*
X209521142Y-77607200D02*
X209616380Y-77654819D01*
X209616380Y-77654819D02*
X209711618Y-77654819D01*
X209711618Y-77654819D02*
X209806856Y-77607200D01*
X209806856Y-77607200D02*
X209854475Y-77559580D01*
X209854475Y-77559580D02*
X209902094Y-77464342D01*
X209902094Y-77464342D02*
X209949713Y-77273866D01*
X209949713Y-77273866D02*
X209949713Y-77035771D01*
X209949713Y-77035771D02*
X209902094Y-76845295D01*
X209902094Y-76845295D02*
X209854475Y-76750057D01*
X209854475Y-76750057D02*
X209806856Y-76702438D01*
X209806856Y-76702438D02*
X209711618Y-76654819D01*
X211515904Y-64002438D02*
X211611142Y-63954819D01*
X211611142Y-63954819D02*
X211753999Y-63954819D01*
X211753999Y-63954819D02*
X211896856Y-64002438D01*
X211896856Y-64002438D02*
X211992094Y-64097676D01*
X211992094Y-64097676D02*
X212039713Y-64192914D01*
X212039713Y-64192914D02*
X212087332Y-64383390D01*
X212087332Y-64383390D02*
X212087332Y-64526247D01*
X212087332Y-64526247D02*
X212039713Y-64716723D01*
X212039713Y-64716723D02*
X211992094Y-64811961D01*
X211992094Y-64811961D02*
X211896856Y-64907200D01*
X211896856Y-64907200D02*
X211753999Y-64954819D01*
X211753999Y-64954819D02*
X211658761Y-64954819D01*
X211658761Y-64954819D02*
X211515904Y-64907200D01*
X211515904Y-64907200D02*
X211468285Y-64859580D01*
X211468285Y-64859580D02*
X211468285Y-64526247D01*
X211468285Y-64526247D02*
X211658761Y-64526247D01*
X211039713Y-64954819D02*
X211039713Y-63954819D01*
X211039713Y-63954819D02*
X210468285Y-64954819D01*
X210468285Y-64954819D02*
X210468285Y-63954819D01*
X209992094Y-64954819D02*
X209992094Y-63954819D01*
X209992094Y-63954819D02*
X209753999Y-63954819D01*
X209753999Y-63954819D02*
X209611142Y-64002438D01*
X209611142Y-64002438D02*
X209515904Y-64097676D01*
X209515904Y-64097676D02*
X209468285Y-64192914D01*
X209468285Y-64192914D02*
X209420666Y-64383390D01*
X209420666Y-64383390D02*
X209420666Y-64526247D01*
X209420666Y-64526247D02*
X209468285Y-64716723D01*
X209468285Y-64716723D02*
X209515904Y-64811961D01*
X209515904Y-64811961D02*
X209611142Y-64907200D01*
X209611142Y-64907200D02*
X209753999Y-64954819D01*
X209753999Y-64954819D02*
X209992094Y-64954819D01*
X214415904Y-61462438D02*
X214511142Y-61414819D01*
X214511142Y-61414819D02*
X214653999Y-61414819D01*
X214653999Y-61414819D02*
X214796856Y-61462438D01*
X214796856Y-61462438D02*
X214892094Y-61557676D01*
X214892094Y-61557676D02*
X214939713Y-61652914D01*
X214939713Y-61652914D02*
X214987332Y-61843390D01*
X214987332Y-61843390D02*
X214987332Y-61986247D01*
X214987332Y-61986247D02*
X214939713Y-62176723D01*
X214939713Y-62176723D02*
X214892094Y-62271961D01*
X214892094Y-62271961D02*
X214796856Y-62367200D01*
X214796856Y-62367200D02*
X214653999Y-62414819D01*
X214653999Y-62414819D02*
X214558761Y-62414819D01*
X214558761Y-62414819D02*
X214415904Y-62367200D01*
X214415904Y-62367200D02*
X214368285Y-62319580D01*
X214368285Y-62319580D02*
X214368285Y-61986247D01*
X214368285Y-61986247D02*
X214558761Y-61986247D01*
X213939713Y-62414819D02*
X213939713Y-61414819D01*
X213939713Y-61414819D02*
X213368285Y-62414819D01*
X213368285Y-62414819D02*
X213368285Y-61414819D01*
X212892094Y-62414819D02*
X212892094Y-61414819D01*
X212892094Y-61414819D02*
X212653999Y-61414819D01*
X212653999Y-61414819D02*
X212511142Y-61462438D01*
X212511142Y-61462438D02*
X212415904Y-61557676D01*
X212415904Y-61557676D02*
X212368285Y-61652914D01*
X212368285Y-61652914D02*
X212320666Y-61843390D01*
X212320666Y-61843390D02*
X212320666Y-61986247D01*
X212320666Y-61986247D02*
X212368285Y-62176723D01*
X212368285Y-62176723D02*
X212415904Y-62271961D01*
X212415904Y-62271961D02*
X212511142Y-62367200D01*
X212511142Y-62367200D02*
X212653999Y-62414819D01*
X212653999Y-62414819D02*
X212892094Y-62414819D01*
X211515904Y-66542438D02*
X211611142Y-66494819D01*
X211611142Y-66494819D02*
X211753999Y-66494819D01*
X211753999Y-66494819D02*
X211896856Y-66542438D01*
X211896856Y-66542438D02*
X211992094Y-66637676D01*
X211992094Y-66637676D02*
X212039713Y-66732914D01*
X212039713Y-66732914D02*
X212087332Y-66923390D01*
X212087332Y-66923390D02*
X212087332Y-67066247D01*
X212087332Y-67066247D02*
X212039713Y-67256723D01*
X212039713Y-67256723D02*
X211992094Y-67351961D01*
X211992094Y-67351961D02*
X211896856Y-67447200D01*
X211896856Y-67447200D02*
X211753999Y-67494819D01*
X211753999Y-67494819D02*
X211658761Y-67494819D01*
X211658761Y-67494819D02*
X211515904Y-67447200D01*
X211515904Y-67447200D02*
X211468285Y-67399580D01*
X211468285Y-67399580D02*
X211468285Y-67066247D01*
X211468285Y-67066247D02*
X211658761Y-67066247D01*
X211039713Y-67494819D02*
X211039713Y-66494819D01*
X211039713Y-66494819D02*
X210468285Y-67494819D01*
X210468285Y-67494819D02*
X210468285Y-66494819D01*
X209992094Y-67494819D02*
X209992094Y-66494819D01*
X209992094Y-66494819D02*
X209753999Y-66494819D01*
X209753999Y-66494819D02*
X209611142Y-66542438D01*
X209611142Y-66542438D02*
X209515904Y-66637676D01*
X209515904Y-66637676D02*
X209468285Y-66732914D01*
X209468285Y-66732914D02*
X209420666Y-66923390D01*
X209420666Y-66923390D02*
X209420666Y-67066247D01*
X209420666Y-67066247D02*
X209468285Y-67256723D01*
X209468285Y-67256723D02*
X209515904Y-67351961D01*
X209515904Y-67351961D02*
X209611142Y-67447200D01*
X209611142Y-67447200D02*
X209753999Y-67494819D01*
X209753999Y-67494819D02*
X209992094Y-67494819D01*
X214987332Y-66494819D02*
X214653999Y-67494819D01*
X214653999Y-67494819D02*
X214320666Y-66494819D01*
X213415904Y-67399580D02*
X213463523Y-67447200D01*
X213463523Y-67447200D02*
X213606380Y-67494819D01*
X213606380Y-67494819D02*
X213701618Y-67494819D01*
X213701618Y-67494819D02*
X213844475Y-67447200D01*
X213844475Y-67447200D02*
X213939713Y-67351961D01*
X213939713Y-67351961D02*
X213987332Y-67256723D01*
X213987332Y-67256723D02*
X214034951Y-67066247D01*
X214034951Y-67066247D02*
X214034951Y-66923390D01*
X214034951Y-66923390D02*
X213987332Y-66732914D01*
X213987332Y-66732914D02*
X213939713Y-66637676D01*
X213939713Y-66637676D02*
X213844475Y-66542438D01*
X213844475Y-66542438D02*
X213701618Y-66494819D01*
X213701618Y-66494819D02*
X213606380Y-66494819D01*
X213606380Y-66494819D02*
X213463523Y-66542438D01*
X213463523Y-66542438D02*
X213415904Y-66590057D01*
X212415904Y-67399580D02*
X212463523Y-67447200D01*
X212463523Y-67447200D02*
X212606380Y-67494819D01*
X212606380Y-67494819D02*
X212701618Y-67494819D01*
X212701618Y-67494819D02*
X212844475Y-67447200D01*
X212844475Y-67447200D02*
X212939713Y-67351961D01*
X212939713Y-67351961D02*
X212987332Y-67256723D01*
X212987332Y-67256723D02*
X213034951Y-67066247D01*
X213034951Y-67066247D02*
X213034951Y-66923390D01*
X213034951Y-66923390D02*
X212987332Y-66732914D01*
X212987332Y-66732914D02*
X212939713Y-66637676D01*
X212939713Y-66637676D02*
X212844475Y-66542438D01*
X212844475Y-66542438D02*
X212701618Y-66494819D01*
X212701618Y-66494819D02*
X212606380Y-66494819D01*
X212606380Y-66494819D02*
X212463523Y-66542438D01*
X212463523Y-66542438D02*
X212415904Y-66590057D01*
X214410666Y-69939580D02*
X214458285Y-69987200D01*
X214458285Y-69987200D02*
X214601142Y-70034819D01*
X214601142Y-70034819D02*
X214696380Y-70034819D01*
X214696380Y-70034819D02*
X214839237Y-69987200D01*
X214839237Y-69987200D02*
X214934475Y-69891961D01*
X214934475Y-69891961D02*
X214982094Y-69796723D01*
X214982094Y-69796723D02*
X215029713Y-69606247D01*
X215029713Y-69606247D02*
X215029713Y-69463390D01*
X215029713Y-69463390D02*
X214982094Y-69272914D01*
X214982094Y-69272914D02*
X214934475Y-69177676D01*
X214934475Y-69177676D02*
X214839237Y-69082438D01*
X214839237Y-69082438D02*
X214696380Y-69034819D01*
X214696380Y-69034819D02*
X214601142Y-69034819D01*
X214601142Y-69034819D02*
X214458285Y-69082438D01*
X214458285Y-69082438D02*
X214410666Y-69130057D01*
X213791618Y-69034819D02*
X213696380Y-69034819D01*
X213696380Y-69034819D02*
X213601142Y-69082438D01*
X213601142Y-69082438D02*
X213553523Y-69130057D01*
X213553523Y-69130057D02*
X213505904Y-69225295D01*
X213505904Y-69225295D02*
X213458285Y-69415771D01*
X213458285Y-69415771D02*
X213458285Y-69653866D01*
X213458285Y-69653866D02*
X213505904Y-69844342D01*
X213505904Y-69844342D02*
X213553523Y-69939580D01*
X213553523Y-69939580D02*
X213601142Y-69987200D01*
X213601142Y-69987200D02*
X213696380Y-70034819D01*
X213696380Y-70034819D02*
X213791618Y-70034819D01*
X213791618Y-70034819D02*
X213886856Y-69987200D01*
X213886856Y-69987200D02*
X213934475Y-69939580D01*
X213934475Y-69939580D02*
X213982094Y-69844342D01*
X213982094Y-69844342D02*
X214029713Y-69653866D01*
X214029713Y-69653866D02*
X214029713Y-69415771D01*
X214029713Y-69415771D02*
X213982094Y-69225295D01*
X213982094Y-69225295D02*
X213934475Y-69130057D01*
X213934475Y-69130057D02*
X213886856Y-69082438D01*
X213886856Y-69082438D02*
X213791618Y-69034819D01*
X210330666Y-85274819D02*
X210663999Y-84798628D01*
X210902094Y-85274819D02*
X210902094Y-84274819D01*
X210902094Y-84274819D02*
X210521142Y-84274819D01*
X210521142Y-84274819D02*
X210425904Y-84322438D01*
X210425904Y-84322438D02*
X210378285Y-84370057D01*
X210378285Y-84370057D02*
X210330666Y-84465295D01*
X210330666Y-84465295D02*
X210330666Y-84608152D01*
X210330666Y-84608152D02*
X210378285Y-84703390D01*
X210378285Y-84703390D02*
X210425904Y-84751009D01*
X210425904Y-84751009D02*
X210521142Y-84798628D01*
X210521142Y-84798628D02*
X210902094Y-84798628D01*
X209997332Y-84274819D02*
X209378285Y-84274819D01*
X209378285Y-84274819D02*
X209711618Y-84655771D01*
X209711618Y-84655771D02*
X209568761Y-84655771D01*
X209568761Y-84655771D02*
X209473523Y-84703390D01*
X209473523Y-84703390D02*
X209425904Y-84751009D01*
X209425904Y-84751009D02*
X209378285Y-84846247D01*
X209378285Y-84846247D02*
X209378285Y-85084342D01*
X209378285Y-85084342D02*
X209425904Y-85179580D01*
X209425904Y-85179580D02*
X209473523Y-85227200D01*
X209473523Y-85227200D02*
X209568761Y-85274819D01*
X209568761Y-85274819D02*
X209854475Y-85274819D01*
X209854475Y-85274819D02*
X209949713Y-85227200D01*
X209949713Y-85227200D02*
X209997332Y-85179580D01*
X214868285Y-87814819D02*
X214868285Y-86814819D01*
X214868285Y-86814819D02*
X214487333Y-86814819D01*
X214487333Y-86814819D02*
X214392095Y-86862438D01*
X214392095Y-86862438D02*
X214344476Y-86910057D01*
X214344476Y-86910057D02*
X214296857Y-87005295D01*
X214296857Y-87005295D02*
X214296857Y-87148152D01*
X214296857Y-87148152D02*
X214344476Y-87243390D01*
X214344476Y-87243390D02*
X214392095Y-87291009D01*
X214392095Y-87291009D02*
X214487333Y-87338628D01*
X214487333Y-87338628D02*
X214868285Y-87338628D01*
X213344476Y-87814819D02*
X213915904Y-87814819D01*
X213630190Y-87814819D02*
X213630190Y-86814819D01*
X213630190Y-86814819D02*
X213725428Y-86957676D01*
X213725428Y-86957676D02*
X213820666Y-87052914D01*
X213820666Y-87052914D02*
X213915904Y-87100533D01*
X212725428Y-86814819D02*
X212630190Y-86814819D01*
X212630190Y-86814819D02*
X212534952Y-86862438D01*
X212534952Y-86862438D02*
X212487333Y-86910057D01*
X212487333Y-86910057D02*
X212439714Y-87005295D01*
X212439714Y-87005295D02*
X212392095Y-87195771D01*
X212392095Y-87195771D02*
X212392095Y-87433866D01*
X212392095Y-87433866D02*
X212439714Y-87624342D01*
X212439714Y-87624342D02*
X212487333Y-87719580D01*
X212487333Y-87719580D02*
X212534952Y-87767200D01*
X212534952Y-87767200D02*
X212630190Y-87814819D01*
X212630190Y-87814819D02*
X212725428Y-87814819D01*
X212725428Y-87814819D02*
X212820666Y-87767200D01*
X212820666Y-87767200D02*
X212868285Y-87719580D01*
X212868285Y-87719580D02*
X212915904Y-87624342D01*
X212915904Y-87624342D02*
X212963523Y-87433866D01*
X212963523Y-87433866D02*
X212963523Y-87195771D01*
X212963523Y-87195771D02*
X212915904Y-87005295D01*
X212915904Y-87005295D02*
X212868285Y-86910057D01*
X212868285Y-86910057D02*
X212820666Y-86862438D01*
X212820666Y-86862438D02*
X212725428Y-86814819D01*
X214344476Y-59874819D02*
X214677809Y-59398628D01*
X214915904Y-59874819D02*
X214915904Y-58874819D01*
X214915904Y-58874819D02*
X214534952Y-58874819D01*
X214534952Y-58874819D02*
X214439714Y-58922438D01*
X214439714Y-58922438D02*
X214392095Y-58970057D01*
X214392095Y-58970057D02*
X214344476Y-59065295D01*
X214344476Y-59065295D02*
X214344476Y-59208152D01*
X214344476Y-59208152D02*
X214392095Y-59303390D01*
X214392095Y-59303390D02*
X214439714Y-59351009D01*
X214439714Y-59351009D02*
X214534952Y-59398628D01*
X214534952Y-59398628D02*
X214915904Y-59398628D01*
X213963523Y-59589104D02*
X213487333Y-59589104D01*
X214058761Y-59874819D02*
X213725428Y-58874819D01*
X213725428Y-58874819D02*
X213392095Y-59874819D01*
X213153999Y-58874819D02*
X212915904Y-59874819D01*
X212915904Y-59874819D02*
X212725428Y-59160533D01*
X212725428Y-59160533D02*
X212534952Y-59874819D01*
X212534952Y-59874819D02*
X212296857Y-58874819D01*
X214868285Y-85274819D02*
X214868285Y-84274819D01*
X214868285Y-84274819D02*
X214487333Y-84274819D01*
X214487333Y-84274819D02*
X214392095Y-84322438D01*
X214392095Y-84322438D02*
X214344476Y-84370057D01*
X214344476Y-84370057D02*
X214296857Y-84465295D01*
X214296857Y-84465295D02*
X214296857Y-84608152D01*
X214296857Y-84608152D02*
X214344476Y-84703390D01*
X214344476Y-84703390D02*
X214392095Y-84751009D01*
X214392095Y-84751009D02*
X214487333Y-84798628D01*
X214487333Y-84798628D02*
X214868285Y-84798628D01*
X213344476Y-85274819D02*
X213915904Y-85274819D01*
X213630190Y-85274819D02*
X213630190Y-84274819D01*
X213630190Y-84274819D02*
X213725428Y-84417676D01*
X213725428Y-84417676D02*
X213820666Y-84512914D01*
X213820666Y-84512914D02*
X213915904Y-84560533D01*
X212487333Y-84274819D02*
X212677809Y-84274819D01*
X212677809Y-84274819D02*
X212773047Y-84322438D01*
X212773047Y-84322438D02*
X212820666Y-84370057D01*
X212820666Y-84370057D02*
X212915904Y-84512914D01*
X212915904Y-84512914D02*
X212963523Y-84703390D01*
X212963523Y-84703390D02*
X212963523Y-85084342D01*
X212963523Y-85084342D02*
X212915904Y-85179580D01*
X212915904Y-85179580D02*
X212868285Y-85227200D01*
X212868285Y-85227200D02*
X212773047Y-85274819D01*
X212773047Y-85274819D02*
X212582571Y-85274819D01*
X212582571Y-85274819D02*
X212487333Y-85227200D01*
X212487333Y-85227200D02*
X212439714Y-85179580D01*
X212439714Y-85179580D02*
X212392095Y-85084342D01*
X212392095Y-85084342D02*
X212392095Y-84846247D01*
X212392095Y-84846247D02*
X212439714Y-84751009D01*
X212439714Y-84751009D02*
X212487333Y-84703390D01*
X212487333Y-84703390D02*
X212582571Y-84655771D01*
X212582571Y-84655771D02*
X212773047Y-84655771D01*
X212773047Y-84655771D02*
X212868285Y-84703390D01*
X212868285Y-84703390D02*
X212915904Y-84751009D01*
X212915904Y-84751009D02*
X212963523Y-84846247D01*
D11*
X205487000Y-89870000D02*
X205487000Y-92530000D01*
X218307000Y-89870000D02*
X205487000Y-89870000D01*
X218307000Y-89870000D02*
X218307000Y-92530000D01*
X218307000Y-92530000D02*
X205487000Y-92530000D01*
D12*
X209854000Y-54847500D02*
X209854000Y-54597500D01*
X209854000Y-57847500D02*
X209854000Y-58097500D01*
X210104000Y-54597500D02*
X209854000Y-54597500D01*
X210104000Y-58097500D02*
X209854000Y-58097500D01*
X214304000Y-54597500D02*
X214554000Y-54597500D01*
X214304000Y-58097500D02*
X214554000Y-58097500D01*
X214554000Y-54847500D02*
X214554000Y-54597500D01*
X214554000Y-57847500D02*
X214554000Y-58097500D01*
D11*
X218325000Y-98650000D02*
X218325000Y-100350000D01*
X218325000Y-101650000D02*
X218325000Y-101850000D01*
X219375000Y-96800000D02*
X220165000Y-96800000D01*
X220165000Y-103700000D02*
X219375000Y-103700000D01*
X221175000Y-97400000D02*
X221175000Y-103100000D01*
X203254000Y-58090000D02*
X203254000Y-88690000D01*
X203254000Y-60690000D02*
X205914000Y-60690000D01*
X205914000Y-58090000D02*
X203254000Y-58090000D01*
X205914000Y-58090000D02*
X205914000Y-88690000D01*
X205914000Y-88690000D02*
X203254000Y-88690000D01*
X218494000Y-58090000D02*
X218494000Y-88690000D01*
X221154000Y-58090000D02*
X218494000Y-58090000D01*
X221154000Y-58090000D02*
X221154000Y-88690000D01*
X221154000Y-88690000D02*
X218494000Y-88690000D01*
X207540000Y-95940000D02*
X208540000Y-95940000D01*
X207540000Y-96860000D02*
X207540000Y-95940000D01*
X207540000Y-101060000D02*
X207540000Y-102060000D01*
X207540000Y-102060000D02*
X208540000Y-102060000D01*
X215360000Y-95940000D02*
X214360000Y-95940000D01*
X215360000Y-96860000D02*
X215360000Y-95940000D01*
X215360000Y-101140000D02*
X215360000Y-102060000D01*
X215360000Y-102060000D02*
X214360000Y-102060000D01*
D12*
X215900000Y-100000000D02*
X216900000Y-100000000D01*
X216400000Y-97500000D02*
X216400000Y-98500000D01*
X216400000Y-100500000D02*
X216400000Y-99500000D01*
D11*
X153500000Y-56062500D02*
X157500000Y-56062500D01*
X155500000Y-54062500D02*
X155500000Y-58062500D01*
X147500000Y-48062500D02*
X163500000Y-48062500D01*
X163500000Y-64062500D01*
X147500000Y-64062500D01*
X147500000Y-48062500D01*
X172000000Y-76875000D02*
X176000000Y-76875000D01*
X174000000Y-74875000D02*
X174000000Y-78875000D01*
X166000000Y-68875000D02*
X182000000Y-68875000D01*
X182000000Y-84875000D01*
X166000000Y-84875000D01*
X166000000Y-68875000D01*
X98000000Y-81500000D02*
X102000000Y-81500000D01*
X100000000Y-79500000D02*
X100000000Y-83500000D01*
X92000000Y-73500000D02*
X108000000Y-73500000D01*
X108000000Y-89500000D01*
X92000000Y-89500000D01*
X92000000Y-73500000D01*
X183318148Y-116794862D02*
X187181852Y-117830138D01*
X185767638Y-115380648D02*
X184732362Y-119244352D01*
X195047959Y-111655646D02*
X190906854Y-127110459D01*
X175452041Y-122969354D01*
X179593146Y-107514541D01*
X195047959Y-111655646D01*
D12*
X191250000Y-58187500D02*
X191650000Y-58187500D01*
X191650000Y-58187500D02*
X191650000Y-57637500D01*
X191650000Y-58187500D02*
X191650000Y-58737500D01*
X191650000Y-58187500D02*
X192250000Y-57787500D01*
X192250000Y-57787500D02*
X192250000Y-58587500D01*
X192250000Y-58187500D02*
X192750000Y-58187500D01*
X192250000Y-58587500D02*
X191650000Y-58187500D01*
D11*
X153500000Y-93062500D02*
X157500000Y-93062500D01*
X155500000Y-91062500D02*
X155500000Y-95062500D01*
X147500000Y-85062500D02*
X163500000Y-85062500D01*
X163500000Y-101062500D01*
X147500000Y-101062500D01*
X147500000Y-85062500D01*
X135000000Y-39875000D02*
X139000000Y-39875000D01*
X137000000Y-37875000D02*
X137000000Y-41875000D01*
X129000000Y-31875000D02*
X145000000Y-31875000D01*
X145000000Y-47875000D01*
X129000000Y-47875000D01*
X129000000Y-31875000D01*
X135000000Y-95375000D02*
X139000000Y-95375000D01*
X137000000Y-93375000D02*
X137000000Y-97375000D01*
X129000000Y-87375000D02*
X145000000Y-87375000D01*
X145000000Y-103375000D01*
X129000000Y-103375000D01*
X129000000Y-87375000D01*
D12*
X98750000Y-60500000D02*
X99150000Y-60500000D01*
X99150000Y-60500000D02*
X99150000Y-59950000D01*
X99150000Y-60500000D02*
X99150000Y-61050000D01*
X99150000Y-60500000D02*
X99750000Y-60100000D01*
X99750000Y-60100000D02*
X99750000Y-60900000D01*
X99750000Y-60500000D02*
X100250000Y-60500000D01*
X99750000Y-60900000D02*
X99150000Y-60500000D01*
X117250000Y-60500000D02*
X117650000Y-60500000D01*
X117650000Y-60500000D02*
X117650000Y-59950000D01*
X117650000Y-60500000D02*
X117650000Y-61050000D01*
X117650000Y-60500000D02*
X118250000Y-60100000D01*
X118250000Y-60100000D02*
X118250000Y-60900000D01*
X118250000Y-60500000D02*
X118750000Y-60500000D01*
X118250000Y-60900000D02*
X117650000Y-60500000D01*
D11*
X153500000Y-37562500D02*
X157500000Y-37562500D01*
X155500000Y-35562500D02*
X155500000Y-39562500D01*
X147500000Y-29562500D02*
X163500000Y-29562500D01*
X163500000Y-45562500D01*
X147500000Y-45562500D01*
X147500000Y-29562500D01*
D12*
X154250000Y-53562500D02*
X154650000Y-53562500D01*
X154650000Y-53562500D02*
X154650000Y-53012500D01*
X154650000Y-53562500D02*
X154650000Y-54112500D01*
X154650000Y-53562500D02*
X155250000Y-53162500D01*
X155250000Y-53162500D02*
X155250000Y-53962500D01*
X155250000Y-53562500D02*
X155750000Y-53562500D01*
X155250000Y-53962500D02*
X154650000Y-53562500D01*
D11*
X172000000Y-39875000D02*
X176000000Y-39875000D01*
X174000000Y-37875000D02*
X174000000Y-41875000D01*
X166000000Y-31875000D02*
X182000000Y-31875000D01*
X182000000Y-47875000D01*
X166000000Y-47875000D01*
X166000000Y-31875000D01*
X116500000Y-100000000D02*
X120500000Y-100000000D01*
X118500000Y-98000000D02*
X118500000Y-102000000D01*
X110500000Y-92000000D02*
X126500000Y-92000000D01*
X126500000Y-108000000D01*
X110500000Y-108000000D01*
X110500000Y-92000000D01*
D12*
X191250000Y-39687500D02*
X191650000Y-39687500D01*
X191650000Y-39687500D02*
X191650000Y-39137500D01*
X191650000Y-39687500D02*
X191650000Y-40237500D01*
X191650000Y-39687500D02*
X192250000Y-39287500D01*
X192250000Y-39287500D02*
X192250000Y-40087500D01*
X192250000Y-39687500D02*
X192750000Y-39687500D01*
X192250000Y-40087500D02*
X191650000Y-39687500D01*
X172750000Y-74375000D02*
X173150000Y-74375000D01*
X173150000Y-74375000D02*
X173150000Y-73825000D01*
X173150000Y-74375000D02*
X173150000Y-74925000D01*
X173150000Y-74375000D02*
X173750000Y-73975000D01*
X173750000Y-73975000D02*
X173750000Y-74775000D01*
X173750000Y-74375000D02*
X174250000Y-74375000D01*
X173750000Y-74775000D02*
X173150000Y-74375000D01*
X204223800Y-120779819D02*
X204423800Y-120433409D01*
X204377390Y-119713794D02*
X205070210Y-120113794D01*
X204423800Y-120433409D02*
X203947486Y-120158409D01*
X204423800Y-120433409D02*
X204377390Y-119713794D01*
X204423800Y-120433409D02*
X204900114Y-120708409D01*
X204723800Y-119913794D02*
X204973800Y-119480781D01*
X205070210Y-120113794D02*
X204423800Y-120433409D01*
D11*
X98000000Y-44500000D02*
X102000000Y-44500000D01*
X100000000Y-42500000D02*
X100000000Y-46500000D01*
X92000000Y-36500000D02*
X108000000Y-36500000D01*
X108000000Y-52500000D01*
X92000000Y-52500000D01*
X92000000Y-36500000D01*
D12*
X154250000Y-72062500D02*
X154650000Y-72062500D01*
X154650000Y-72062500D02*
X154650000Y-71512500D01*
X154650000Y-72062500D02*
X154650000Y-72612500D01*
X154650000Y-72062500D02*
X155250000Y-71662500D01*
X155250000Y-71662500D02*
X155250000Y-72462500D01*
X155250000Y-72062500D02*
X155750000Y-72062500D01*
X155250000Y-72462500D02*
X154650000Y-72062500D01*
X154250000Y-35062500D02*
X154650000Y-35062500D01*
X154650000Y-35062500D02*
X154650000Y-34512500D01*
X154650000Y-35062500D02*
X154650000Y-35612500D01*
X154650000Y-35062500D02*
X155250000Y-34662500D01*
X155250000Y-34662500D02*
X155250000Y-35462500D01*
X155250000Y-35062500D02*
X155750000Y-35062500D01*
X155250000Y-35462500D02*
X154650000Y-35062500D01*
D11*
X116500000Y-44500000D02*
X120500000Y-44500000D01*
X118500000Y-42500000D02*
X118500000Y-46500000D01*
X110500000Y-36500000D02*
X126500000Y-36500000D01*
X126500000Y-52500000D01*
X110500000Y-52500000D01*
X110500000Y-36500000D01*
D12*
X98750000Y-79000000D02*
X99150000Y-79000000D01*
X99150000Y-79000000D02*
X99150000Y-78450000D01*
X99150000Y-79000000D02*
X99150000Y-79550000D01*
X99150000Y-79000000D02*
X99750000Y-78600000D01*
X99750000Y-78600000D02*
X99750000Y-79400000D01*
X99750000Y-79000000D02*
X100250000Y-79000000D01*
X99750000Y-79400000D02*
X99150000Y-79000000D01*
D11*
X190500000Y-79187500D02*
X194500000Y-79187500D01*
X192500000Y-77187500D02*
X192500000Y-81187500D01*
X184500000Y-71187500D02*
X200500000Y-71187500D01*
X200500000Y-87187500D01*
X184500000Y-87187500D01*
X184500000Y-71187500D01*
X172000000Y-58375000D02*
X176000000Y-58375000D01*
X174000000Y-56375000D02*
X174000000Y-60375000D01*
X166000000Y-50375000D02*
X182000000Y-50375000D01*
X182000000Y-66375000D01*
X166000000Y-66375000D01*
X166000000Y-50375000D01*
X153500000Y-74562500D02*
X157500000Y-74562500D01*
X155500000Y-72562500D02*
X155500000Y-76562500D01*
X147500000Y-66562500D02*
X163500000Y-66562500D01*
X163500000Y-82562500D01*
X147500000Y-82562500D01*
X147500000Y-66562500D01*
X190500000Y-42187500D02*
X194500000Y-42187500D01*
X192500000Y-40187500D02*
X192500000Y-44187500D01*
X184500000Y-34187500D02*
X200500000Y-34187500D01*
X200500000Y-50187500D01*
X184500000Y-50187500D01*
X184500000Y-34187500D01*
X162750000Y-114562500D02*
X166750000Y-114562500D01*
X164750000Y-112562500D02*
X164750000Y-116562500D01*
X156750000Y-106562500D02*
X172750000Y-106562500D01*
X172750000Y-122562500D01*
X156750000Y-122562500D01*
X156750000Y-106562500D01*
D12*
X98750000Y-42000000D02*
X99150000Y-42000000D01*
X99150000Y-42000000D02*
X99150000Y-41450000D01*
X99150000Y-42000000D02*
X99150000Y-42550000D01*
X99150000Y-42000000D02*
X99750000Y-41600000D01*
X99750000Y-41600000D02*
X99750000Y-42400000D01*
X99750000Y-42000000D02*
X100250000Y-42000000D01*
X99750000Y-42400000D02*
X99150000Y-42000000D01*
X172750000Y-37375000D02*
X173150000Y-37375000D01*
X173150000Y-37375000D02*
X173150000Y-36825000D01*
X173150000Y-37375000D02*
X173150000Y-37925000D01*
X173150000Y-37375000D02*
X173750000Y-36975000D01*
X173750000Y-36975000D02*
X173750000Y-37775000D01*
X173750000Y-37375000D02*
X174250000Y-37375000D01*
X173750000Y-37775000D02*
X173150000Y-37375000D01*
D11*
X135000000Y-76875000D02*
X139000000Y-76875000D01*
X137000000Y-74875000D02*
X137000000Y-78875000D01*
X129000000Y-68875000D02*
X145000000Y-68875000D01*
X145000000Y-84875000D01*
X129000000Y-84875000D01*
X129000000Y-68875000D01*
D12*
X98750000Y-97500000D02*
X99150000Y-97500000D01*
X99150000Y-97500000D02*
X99150000Y-96950000D01*
X99150000Y-97500000D02*
X99150000Y-98050000D01*
X99150000Y-97500000D02*
X99750000Y-97100000D01*
X99750000Y-97100000D02*
X99750000Y-97900000D01*
X99750000Y-97500000D02*
X100250000Y-97500000D01*
X99750000Y-97900000D02*
X99150000Y-97500000D01*
D11*
X190500000Y-97687500D02*
X194500000Y-97687500D01*
X192500000Y-95687500D02*
X192500000Y-99687500D01*
X184500000Y-89687500D02*
X200500000Y-89687500D01*
X200500000Y-105687500D01*
X184500000Y-105687500D01*
X184500000Y-89687500D01*
X172000000Y-95375000D02*
X176000000Y-95375000D01*
X174000000Y-93375000D02*
X174000000Y-97375000D01*
X166000000Y-87375000D02*
X182000000Y-87375000D01*
X182000000Y-103375000D01*
X166000000Y-103375000D01*
X166000000Y-87375000D01*
X98000000Y-100000000D02*
X102000000Y-100000000D01*
X100000000Y-98000000D02*
X100000000Y-102000000D01*
X92000000Y-92000000D02*
X108000000Y-92000000D01*
X108000000Y-108000000D01*
X92000000Y-108000000D01*
X92000000Y-92000000D01*
D12*
X184689656Y-114574186D02*
X185076026Y-114677713D01*
X185076026Y-114677713D02*
X184933675Y-115208974D01*
X185076026Y-114677713D02*
X185218376Y-114146454D01*
X185076026Y-114677713D02*
X185759109Y-114446634D01*
X185552054Y-115219375D02*
X185076026Y-114677713D01*
X185655581Y-114833005D02*
X186138544Y-114962414D01*
X185759109Y-114446634D02*
X185552054Y-115219375D01*
X135750000Y-37375000D02*
X136150000Y-37375000D01*
X136150000Y-37375000D02*
X136150000Y-36825000D01*
X136150000Y-37375000D02*
X136150000Y-37925000D01*
X136150000Y-37375000D02*
X136750000Y-36975000D01*
X136750000Y-36975000D02*
X136750000Y-37775000D01*
X136750000Y-37375000D02*
X137250000Y-37375000D01*
X136750000Y-37775000D02*
X136150000Y-37375000D01*
X135750000Y-55875000D02*
X136150000Y-55875000D01*
X136150000Y-55875000D02*
X136150000Y-55325000D01*
X136150000Y-55875000D02*
X136150000Y-56425000D01*
X136150000Y-55875000D02*
X136750000Y-55475000D01*
X136750000Y-55475000D02*
X136750000Y-56275000D01*
X136750000Y-55875000D02*
X137250000Y-55875000D01*
X136750000Y-56275000D02*
X136150000Y-55875000D01*
X135750000Y-74375000D02*
X136150000Y-74375000D01*
X136150000Y-74375000D02*
X136150000Y-73825000D01*
X136150000Y-74375000D02*
X136150000Y-74925000D01*
X136150000Y-74375000D02*
X136750000Y-73975000D01*
X136750000Y-73975000D02*
X136750000Y-74775000D01*
X136750000Y-74375000D02*
X137250000Y-74375000D01*
X136750000Y-74775000D02*
X136150000Y-74375000D01*
X154250000Y-90562500D02*
X154650000Y-90562500D01*
X154650000Y-90562500D02*
X154650000Y-90012500D01*
X154650000Y-90562500D02*
X154650000Y-91112500D01*
X154650000Y-90562500D02*
X155250000Y-90162500D01*
X155250000Y-90162500D02*
X155250000Y-90962500D01*
X155250000Y-90562500D02*
X155750000Y-90562500D01*
X155250000Y-90962500D02*
X154650000Y-90562500D01*
X117250000Y-97500000D02*
X117650000Y-97500000D01*
X117650000Y-97500000D02*
X117650000Y-96950000D01*
X117650000Y-97500000D02*
X117650000Y-98050000D01*
X117650000Y-97500000D02*
X118250000Y-97100000D01*
X118250000Y-97100000D02*
X118250000Y-97900000D01*
X118250000Y-97500000D02*
X118750000Y-97500000D01*
X118250000Y-97900000D02*
X117650000Y-97500000D01*
X163500000Y-112062500D02*
X163900000Y-112062500D01*
X163900000Y-112062500D02*
X163900000Y-111512500D01*
X163900000Y-112062500D02*
X163900000Y-112612500D01*
X163900000Y-112062500D02*
X164500000Y-111662500D01*
X164500000Y-111662500D02*
X164500000Y-112462500D01*
X164500000Y-112062500D02*
X165000000Y-112062500D01*
X164500000Y-112462500D02*
X163900000Y-112062500D01*
X172750000Y-55875000D02*
X173150000Y-55875000D01*
X173150000Y-55875000D02*
X173150000Y-55325000D01*
X173150000Y-55875000D02*
X173150000Y-56425000D01*
X173150000Y-55875000D02*
X173750000Y-55475000D01*
X173750000Y-55475000D02*
X173750000Y-56275000D01*
X173750000Y-55875000D02*
X174250000Y-55875000D01*
X173750000Y-56275000D02*
X173150000Y-55875000D01*
X191250000Y-76687500D02*
X191650000Y-76687500D01*
X191650000Y-76687500D02*
X191650000Y-76137500D01*
X191650000Y-76687500D02*
X191650000Y-77237500D01*
X191650000Y-76687500D02*
X192250000Y-76287500D01*
X192250000Y-76287500D02*
X192250000Y-77087500D01*
X192250000Y-76687500D02*
X192750000Y-76687500D01*
X192250000Y-77087500D02*
X191650000Y-76687500D01*
X191250000Y-95187500D02*
X191650000Y-95187500D01*
X191650000Y-95187500D02*
X191650000Y-94637500D01*
X191650000Y-95187500D02*
X191650000Y-95737500D01*
X191650000Y-95187500D02*
X192250000Y-94787500D01*
X192250000Y-94787500D02*
X192250000Y-95587500D01*
X192250000Y-95187500D02*
X192750000Y-95187500D01*
X192250000Y-95587500D02*
X191650000Y-95187500D01*
D11*
X135000000Y-58375000D02*
X139000000Y-58375000D01*
X137000000Y-56375000D02*
X137000000Y-60375000D01*
X129000000Y-50375000D02*
X145000000Y-50375000D01*
X145000000Y-66375000D01*
X129000000Y-66375000D01*
X129000000Y-50375000D01*
D12*
X135750000Y-92875000D02*
X136150000Y-92875000D01*
X136150000Y-92875000D02*
X136150000Y-92325000D01*
X136150000Y-92875000D02*
X136150000Y-93425000D01*
X136150000Y-92875000D02*
X136750000Y-92475000D01*
X136750000Y-92475000D02*
X136750000Y-93275000D01*
X136750000Y-92875000D02*
X137250000Y-92875000D01*
X136750000Y-93275000D02*
X136150000Y-92875000D01*
D11*
X205281749Y-119947200D02*
X208745851Y-121947200D01*
X206013800Y-122679251D02*
X208013800Y-119215149D01*
X217942003Y-118018997D02*
X209942003Y-131875403D01*
X196085597Y-123875403D01*
X204085597Y-110018997D01*
X217942003Y-118018997D01*
D12*
X117250000Y-42000000D02*
X117650000Y-42000000D01*
X117650000Y-42000000D02*
X117650000Y-41450000D01*
X117650000Y-42000000D02*
X117650000Y-42550000D01*
X117650000Y-42000000D02*
X118250000Y-41600000D01*
X118250000Y-41600000D02*
X118250000Y-42400000D01*
X118250000Y-42000000D02*
X118750000Y-42000000D01*
X118250000Y-42400000D02*
X117650000Y-42000000D01*
X172750000Y-92875000D02*
X173150000Y-92875000D01*
X173150000Y-92875000D02*
X173150000Y-92325000D01*
X173150000Y-92875000D02*
X173150000Y-93425000D01*
X173150000Y-92875000D02*
X173750000Y-92475000D01*
X173750000Y-92475000D02*
X173750000Y-93275000D01*
X173750000Y-92875000D02*
X174250000Y-92875000D01*
X173750000Y-93275000D02*
X173150000Y-92875000D01*
D11*
X98000000Y-63000000D02*
X102000000Y-63000000D01*
X100000000Y-61000000D02*
X100000000Y-65000000D01*
X92000000Y-55000000D02*
X108000000Y-55000000D01*
X108000000Y-71000000D01*
X92000000Y-71000000D01*
X92000000Y-55000000D01*
X190500000Y-60687500D02*
X194500000Y-60687500D01*
X192500000Y-58687500D02*
X192500000Y-62687500D01*
X184500000Y-52687500D02*
X200500000Y-52687500D01*
X200500000Y-68687500D01*
X184500000Y-68687500D01*
X184500000Y-52687500D01*
X116500000Y-63000000D02*
X120500000Y-63000000D01*
X118500000Y-61000000D02*
X118500000Y-65000000D01*
X110500000Y-55000000D02*
X126500000Y-55000000D01*
X126500000Y-71000000D01*
X110500000Y-71000000D01*
X110500000Y-55000000D01*
X116500000Y-81500000D02*
X120500000Y-81500000D01*
X118500000Y-79500000D02*
X118500000Y-83500000D01*
X110500000Y-73500000D02*
X126500000Y-73500000D01*
X126500000Y-89500000D01*
X110500000Y-89500000D01*
X110500000Y-73500000D01*
D12*
X117250000Y-79000000D02*
X117650000Y-79000000D01*
X117650000Y-79000000D02*
X117650000Y-78450000D01*
X117650000Y-79000000D02*
X117650000Y-79550000D01*
X117650000Y-79000000D02*
X118250000Y-78600000D01*
X118250000Y-78600000D02*
X118250000Y-79400000D01*
X118250000Y-79000000D02*
X118750000Y-79000000D01*
X118250000Y-79400000D02*
X117650000Y-79000000D01*
%LPC*%
D13*
X168200000Y-61125000D03*
D14*
X168219000Y-55602000D03*
X179800000Y-55625000D03*
D13*
X179819000Y-61102000D03*
X186700000Y-81937500D03*
D14*
X186719000Y-76414500D03*
X198300000Y-76437500D03*
D13*
X198319000Y-81914500D03*
X131200000Y-98125000D03*
D14*
X131219000Y-92602000D03*
X142800000Y-92625000D03*
D13*
X142819000Y-98102000D03*
X168200000Y-42625000D03*
D14*
X168219000Y-37102000D03*
X179800000Y-37125000D03*
D13*
X179819000Y-42602000D03*
D15*
X206817000Y-91200000D03*
X209357000Y-91200000D03*
X211897000Y-91200000D03*
X214437000Y-91200000D03*
D16*
X216977000Y-91200000D03*
G36*
G01*
X216377000Y-93500000D02*
X217577000Y-93500000D01*
G75*
G02*
X217627000Y-93550000I0J-50000D01*
G01*
X217627000Y-94150000D01*
G75*
G02*
X217577000Y-94200000I-50000J0D01*
G01*
X216377000Y-94200000D01*
G75*
G02*
X216327000Y-94150000I0J50000D01*
G01*
X216327000Y-93550000D01*
G75*
G02*
X216377000Y-93500000I50000J0D01*
G01*
G37*
G36*
G01*
X213837000Y-93500000D02*
X215037000Y-93500000D01*
G75*
G02*
X215087000Y-93550000I0J-50000D01*
G01*
X215087000Y-94150000D01*
G75*
G02*
X215037000Y-94200000I-50000J0D01*
G01*
X213837000Y-94200000D01*
G75*
G02*
X213787000Y-94150000I0J50000D01*
G01*
X213787000Y-93550000D01*
G75*
G02*
X213837000Y-93500000I50000J0D01*
G01*
G37*
G36*
G01*
X208757000Y-93500000D02*
X209957000Y-93500000D01*
G75*
G02*
X210007000Y-93550000I0J-50000D01*
G01*
X210007000Y-94150000D01*
G75*
G02*
X209957000Y-94200000I-50000J0D01*
G01*
X208757000Y-94200000D01*
G75*
G02*
X208707000Y-94150000I0J50000D01*
G01*
X208707000Y-93550000D01*
G75*
G02*
X208757000Y-93500000I50000J0D01*
G01*
G37*
G36*
G01*
X206217000Y-93500000D02*
X207417000Y-93500000D01*
G75*
G02*
X207467000Y-93550000I0J-50000D01*
G01*
X207467000Y-94150000D01*
G75*
G02*
X207417000Y-94200000I-50000J0D01*
G01*
X206217000Y-94200000D01*
G75*
G02*
X206167000Y-94150000I0J50000D01*
G01*
X206167000Y-93550000D01*
G75*
G02*
X206217000Y-93500000I50000J0D01*
G01*
G37*
G36*
G01*
X216377000Y-92600000D02*
X217577000Y-92600000D01*
G75*
G02*
X217627000Y-92650000I0J-50000D01*
G01*
X217627000Y-93250000D01*
G75*
G02*
X217577000Y-93300000I-50000J0D01*
G01*
X216377000Y-93300000D01*
G75*
G02*
X216327000Y-93250000I0J50000D01*
G01*
X216327000Y-92650000D01*
G75*
G02*
X216377000Y-92600000I50000J0D01*
G01*
G37*
G36*
G01*
X213837000Y-92600000D02*
X215037000Y-92600000D01*
G75*
G02*
X215087000Y-92650000I0J-50000D01*
G01*
X215087000Y-93250000D01*
G75*
G02*
X215037000Y-93300000I-50000J0D01*
G01*
X213837000Y-93300000D01*
G75*
G02*
X213787000Y-93250000I0J50000D01*
G01*
X213787000Y-92650000D01*
G75*
G02*
X213837000Y-92600000I50000J0D01*
G01*
G37*
G36*
G01*
X208757000Y-92600000D02*
X209957000Y-92600000D01*
G75*
G02*
X210007000Y-92650000I0J-50000D01*
G01*
X210007000Y-93250000D01*
G75*
G02*
X209957000Y-93300000I-50000J0D01*
G01*
X208757000Y-93300000D01*
G75*
G02*
X208707000Y-93250000I0J50000D01*
G01*
X208707000Y-92650000D01*
G75*
G02*
X208757000Y-92600000I50000J0D01*
G01*
G37*
G36*
G01*
X206217000Y-92600000D02*
X207417000Y-92600000D01*
G75*
G02*
X207467000Y-92650000I0J-50000D01*
G01*
X207467000Y-93250000D01*
G75*
G02*
X207417000Y-93300000I-50000J0D01*
G01*
X206217000Y-93300000D01*
G75*
G02*
X206167000Y-93250000I0J50000D01*
G01*
X206167000Y-92650000D01*
G75*
G02*
X206217000Y-92600000I50000J0D01*
G01*
G37*
D17*
X183218000Y-50298500D03*
X196724600Y-115006700D03*
D13*
X131200000Y-79625000D03*
D14*
X131219000Y-74102000D03*
X142800000Y-74125000D03*
D13*
X142819000Y-79602000D03*
D18*
X212204000Y-54972500D03*
X212204000Y-57722500D03*
G36*
G01*
X210404000Y-54997500D02*
X210404000Y-55997500D01*
G75*
G02*
X210354000Y-56047500I-50000J0D01*
G01*
X208804000Y-56047500D01*
G75*
G02*
X208754000Y-55997500I0J50000D01*
G01*
X208754000Y-54997500D01*
G75*
G02*
X208804000Y-54947500I50000J0D01*
G01*
X210354000Y-54947500D01*
G75*
G02*
X210404000Y-54997500I0J-50000D01*
G01*
G37*
G36*
G01*
X210404000Y-56697500D02*
X210404000Y-57697500D01*
G75*
G02*
X210354000Y-57747500I-50000J0D01*
G01*
X208804000Y-57747500D01*
G75*
G02*
X208754000Y-57697500I0J50000D01*
G01*
X208754000Y-56697500D01*
G75*
G02*
X208804000Y-56647500I50000J0D01*
G01*
X210354000Y-56647500D01*
G75*
G02*
X210404000Y-56697500I0J-50000D01*
G01*
G37*
G36*
G01*
X215654000Y-54997500D02*
X215654000Y-55997500D01*
G75*
G02*
X215604000Y-56047500I-50000J0D01*
G01*
X214054000Y-56047500D01*
G75*
G02*
X214004000Y-55997500I0J50000D01*
G01*
X214004000Y-54997500D01*
G75*
G02*
X214054000Y-54947500I50000J0D01*
G01*
X215604000Y-54947500D01*
G75*
G02*
X215654000Y-54997500I0J-50000D01*
G01*
G37*
G36*
G01*
X215654000Y-56697500D02*
X215654000Y-57697500D01*
G75*
G02*
X215604000Y-57747500I-50000J0D01*
G01*
X214054000Y-57747500D01*
G75*
G02*
X214004000Y-57697500I0J50000D01*
G01*
X214004000Y-56697500D01*
G75*
G02*
X214054000Y-56647500I50000J0D01*
G01*
X215604000Y-56647500D01*
G75*
G02*
X215654000Y-56697500I0J-50000D01*
G01*
G37*
G36*
G01*
X218265000Y-96050000D02*
X219065000Y-96050000D01*
G75*
G02*
X219115000Y-96100000I0J-50000D01*
G01*
X219115000Y-97100000D01*
G75*
G02*
X219065000Y-97150000I-50000J0D01*
G01*
X218265000Y-97150000D01*
G75*
G02*
X218215000Y-97100000I0J50000D01*
G01*
X218215000Y-96100000D01*
G75*
G02*
X218265000Y-96050000I50000J0D01*
G01*
G37*
G36*
G01*
X218265000Y-103350000D02*
X219065000Y-103350000D01*
G75*
G02*
X219115000Y-103400000I0J-50000D01*
G01*
X219115000Y-104400000D01*
G75*
G02*
X219065000Y-104450000I-50000J0D01*
G01*
X218265000Y-104450000D01*
G75*
G02*
X218215000Y-104400000I0J50000D01*
G01*
X218215000Y-103400000D01*
G75*
G02*
X218265000Y-103350000I50000J0D01*
G01*
G37*
D19*
X219775000Y-98750000D03*
X219775000Y-101750000D03*
G36*
G01*
X220475000Y-96050000D02*
X221275000Y-96050000D01*
G75*
G02*
X221325000Y-96100000I0J-50000D01*
G01*
X221325000Y-97100000D01*
G75*
G02*
X221275000Y-97150000I-50000J0D01*
G01*
X220475000Y-97150000D01*
G75*
G02*
X220425000Y-97100000I0J50000D01*
G01*
X220425000Y-96100000D01*
G75*
G02*
X220475000Y-96050000I50000J0D01*
G01*
G37*
G36*
G01*
X220475000Y-103350000D02*
X221275000Y-103350000D01*
G75*
G02*
X221325000Y-103400000I0J-50000D01*
G01*
X221325000Y-104400000D01*
G75*
G02*
X221275000Y-104450000I-50000J0D01*
G01*
X220475000Y-104450000D01*
G75*
G02*
X220425000Y-104400000I0J50000D01*
G01*
X220425000Y-103400000D01*
G75*
G02*
X220475000Y-103350000I50000J0D01*
G01*
G37*
G36*
G01*
X217265000Y-97600000D02*
X218765000Y-97600000D01*
G75*
G02*
X218815000Y-97650000I0J-50000D01*
G01*
X218815000Y-98350000D01*
G75*
G02*
X218765000Y-98400000I-50000J0D01*
G01*
X217265000Y-98400000D01*
G75*
G02*
X217215000Y-98350000I0J50000D01*
G01*
X217215000Y-97650000D01*
G75*
G02*
X217265000Y-97600000I50000J0D01*
G01*
G37*
G36*
G01*
X217265000Y-100600000D02*
X218765000Y-100600000D01*
G75*
G02*
X218815000Y-100650000I0J-50000D01*
G01*
X218815000Y-101350000D01*
G75*
G02*
X218765000Y-101400000I-50000J0D01*
G01*
X217265000Y-101400000D01*
G75*
G02*
X217215000Y-101350000I0J50000D01*
G01*
X217215000Y-100650000D01*
G75*
G02*
X217265000Y-100600000I50000J0D01*
G01*
G37*
G36*
G01*
X217265000Y-102100000D02*
X218765000Y-102100000D01*
G75*
G02*
X218815000Y-102150000I0J-50000D01*
G01*
X218815000Y-102850000D01*
G75*
G02*
X218765000Y-102900000I-50000J0D01*
G01*
X217265000Y-102900000D01*
G75*
G02*
X217215000Y-102850000I0J50000D01*
G01*
X217215000Y-102150000D01*
G75*
G02*
X217265000Y-102100000I50000J0D01*
G01*
G37*
D13*
X168200000Y-98125000D03*
D14*
X168219000Y-92602000D03*
X179800000Y-92625000D03*
D13*
X179819000Y-98102000D03*
G36*
G01*
X217334000Y-60020000D02*
X217334000Y-58820000D01*
G75*
G02*
X217384000Y-58770000I50000J0D01*
G01*
X217984000Y-58770000D01*
G75*
G02*
X218034000Y-58820000I0J-50000D01*
G01*
X218034000Y-60020000D01*
G75*
G02*
X217984000Y-60070000I-50000J0D01*
G01*
X217384000Y-60070000D01*
G75*
G02*
X217334000Y-60020000I0J50000D01*
G01*
G37*
D16*
X219824000Y-59420000D03*
G36*
G01*
X217334000Y-62560000D02*
X217334000Y-61360000D01*
G75*
G02*
X217384000Y-61310000I50000J0D01*
G01*
X217984000Y-61310000D01*
G75*
G02*
X218034000Y-61360000I0J-50000D01*
G01*
X218034000Y-62560000D01*
G75*
G02*
X217984000Y-62610000I-50000J0D01*
G01*
X217384000Y-62610000D01*
G75*
G02*
X217334000Y-62560000I0J50000D01*
G01*
G37*
X219824000Y-61960000D03*
G36*
G01*
X217334000Y-65100000D02*
X217334000Y-63900000D01*
G75*
G02*
X217384000Y-63850000I50000J0D01*
G01*
X217984000Y-63850000D01*
G75*
G02*
X218034000Y-63900000I0J-50000D01*
G01*
X218034000Y-65100000D01*
G75*
G02*
X217984000Y-65150000I-50000J0D01*
G01*
X217384000Y-65150000D01*
G75*
G02*
X217334000Y-65100000I0J50000D01*
G01*
G37*
X219824000Y-64500000D03*
G36*
G01*
X217334000Y-67640000D02*
X217334000Y-66440000D01*
G75*
G02*
X217384000Y-66390000I50000J0D01*
G01*
X217984000Y-66390000D01*
G75*
G02*
X218034000Y-66440000I0J-50000D01*
G01*
X218034000Y-67640000D01*
G75*
G02*
X217984000Y-67690000I-50000J0D01*
G01*
X217384000Y-67690000D01*
G75*
G02*
X217334000Y-67640000I0J50000D01*
G01*
G37*
X219824000Y-67040000D03*
G36*
G01*
X217334000Y-70180000D02*
X217334000Y-68980000D01*
G75*
G02*
X217384000Y-68930000I50000J0D01*
G01*
X217984000Y-68930000D01*
G75*
G02*
X218034000Y-68980000I0J-50000D01*
G01*
X218034000Y-70180000D01*
G75*
G02*
X217984000Y-70230000I-50000J0D01*
G01*
X217384000Y-70230000D01*
G75*
G02*
X217334000Y-70180000I0J50000D01*
G01*
G37*
X219824000Y-69580000D03*
G36*
G01*
X217334000Y-72720000D02*
X217334000Y-71520000D01*
G75*
G02*
X217384000Y-71470000I50000J0D01*
G01*
X217984000Y-71470000D01*
G75*
G02*
X218034000Y-71520000I0J-50000D01*
G01*
X218034000Y-72720000D01*
G75*
G02*
X217984000Y-72770000I-50000J0D01*
G01*
X217384000Y-72770000D01*
G75*
G02*
X217334000Y-72720000I0J50000D01*
G01*
G37*
X219824000Y-72120000D03*
G36*
G01*
X217334000Y-75260000D02*
X217334000Y-74060000D01*
G75*
G02*
X217384000Y-74010000I50000J0D01*
G01*
X217984000Y-74010000D01*
G75*
G02*
X218034000Y-74060000I0J-50000D01*
G01*
X218034000Y-75260000D01*
G75*
G02*
X217984000Y-75310000I-50000J0D01*
G01*
X217384000Y-75310000D01*
G75*
G02*
X217334000Y-75260000I0J50000D01*
G01*
G37*
X219824000Y-74660000D03*
G36*
G01*
X217334000Y-77800000D02*
X217334000Y-76600000D01*
G75*
G02*
X217384000Y-76550000I50000J0D01*
G01*
X217984000Y-76550000D01*
G75*
G02*
X218034000Y-76600000I0J-50000D01*
G01*
X218034000Y-77800000D01*
G75*
G02*
X217984000Y-77850000I-50000J0D01*
G01*
X217384000Y-77850000D01*
G75*
G02*
X217334000Y-77800000I0J50000D01*
G01*
G37*
X219824000Y-77200000D03*
G36*
G01*
X217334000Y-80340000D02*
X217334000Y-79140000D01*
G75*
G02*
X217384000Y-79090000I50000J0D01*
G01*
X217984000Y-79090000D01*
G75*
G02*
X218034000Y-79140000I0J-50000D01*
G01*
X218034000Y-80340000D01*
G75*
G02*
X217984000Y-80390000I-50000J0D01*
G01*
X217384000Y-80390000D01*
G75*
G02*
X217334000Y-80340000I0J50000D01*
G01*
G37*
X219824000Y-79740000D03*
G36*
G01*
X217334000Y-82880000D02*
X217334000Y-81680000D01*
G75*
G02*
X217384000Y-81630000I50000J0D01*
G01*
X217984000Y-81630000D01*
G75*
G02*
X218034000Y-81680000I0J-50000D01*
G01*
X218034000Y-82880000D01*
G75*
G02*
X217984000Y-82930000I-50000J0D01*
G01*
X217384000Y-82930000D01*
G75*
G02*
X217334000Y-82880000I0J50000D01*
G01*
G37*
X219824000Y-82280000D03*
G36*
G01*
X217334000Y-85420000D02*
X217334000Y-84220000D01*
G75*
G02*
X217384000Y-84170000I50000J0D01*
G01*
X217984000Y-84170000D01*
G75*
G02*
X218034000Y-84220000I0J-50000D01*
G01*
X218034000Y-85420000D01*
G75*
G02*
X217984000Y-85470000I-50000J0D01*
G01*
X217384000Y-85470000D01*
G75*
G02*
X217334000Y-85420000I0J50000D01*
G01*
G37*
X219824000Y-84820000D03*
G36*
G01*
X217334000Y-87960000D02*
X217334000Y-86760000D01*
G75*
G02*
X217384000Y-86710000I50000J0D01*
G01*
X217984000Y-86710000D01*
G75*
G02*
X218034000Y-86760000I0J-50000D01*
G01*
X218034000Y-87960000D01*
G75*
G02*
X217984000Y-88010000I-50000J0D01*
G01*
X217384000Y-88010000D01*
G75*
G02*
X217334000Y-87960000I0J50000D01*
G01*
G37*
X219824000Y-87360000D03*
X204584000Y-87360000D03*
G36*
G01*
X206374000Y-87960000D02*
X206374000Y-86760000D01*
G75*
G02*
X206424000Y-86710000I50000J0D01*
G01*
X207024000Y-86710000D01*
G75*
G02*
X207074000Y-86760000I0J-50000D01*
G01*
X207074000Y-87960000D01*
G75*
G02*
X207024000Y-88010000I-50000J0D01*
G01*
X206424000Y-88010000D01*
G75*
G02*
X206374000Y-87960000I0J50000D01*
G01*
G37*
X204584000Y-84820000D03*
G36*
G01*
X206374000Y-85420000D02*
X206374000Y-84220000D01*
G75*
G02*
X206424000Y-84170000I50000J0D01*
G01*
X207024000Y-84170000D01*
G75*
G02*
X207074000Y-84220000I0J-50000D01*
G01*
X207074000Y-85420000D01*
G75*
G02*
X207024000Y-85470000I-50000J0D01*
G01*
X206424000Y-85470000D01*
G75*
G02*
X206374000Y-85420000I0J50000D01*
G01*
G37*
X204584000Y-82280000D03*
G36*
G01*
X206374000Y-82880000D02*
X206374000Y-81680000D01*
G75*
G02*
X206424000Y-81630000I50000J0D01*
G01*
X207024000Y-81630000D01*
G75*
G02*
X207074000Y-81680000I0J-50000D01*
G01*
X207074000Y-82880000D01*
G75*
G02*
X207024000Y-82930000I-50000J0D01*
G01*
X206424000Y-82930000D01*
G75*
G02*
X206374000Y-82880000I0J50000D01*
G01*
G37*
X204584000Y-79740000D03*
G36*
G01*
X206374000Y-80340000D02*
X206374000Y-79140000D01*
G75*
G02*
X206424000Y-79090000I50000J0D01*
G01*
X207024000Y-79090000D01*
G75*
G02*
X207074000Y-79140000I0J-50000D01*
G01*
X207074000Y-80340000D01*
G75*
G02*
X207024000Y-80390000I-50000J0D01*
G01*
X206424000Y-80390000D01*
G75*
G02*
X206374000Y-80340000I0J50000D01*
G01*
G37*
X204584000Y-77200000D03*
G36*
G01*
X206374000Y-77800000D02*
X206374000Y-76600000D01*
G75*
G02*
X206424000Y-76550000I50000J0D01*
G01*
X207024000Y-76550000D01*
G75*
G02*
X207074000Y-76600000I0J-50000D01*
G01*
X207074000Y-77800000D01*
G75*
G02*
X207024000Y-77850000I-50000J0D01*
G01*
X206424000Y-77850000D01*
G75*
G02*
X206374000Y-77800000I0J50000D01*
G01*
G37*
X204584000Y-74660000D03*
G36*
G01*
X206374000Y-75260000D02*
X206374000Y-74060000D01*
G75*
G02*
X206424000Y-74010000I50000J0D01*
G01*
X207024000Y-74010000D01*
G75*
G02*
X207074000Y-74060000I0J-50000D01*
G01*
X207074000Y-75260000D01*
G75*
G02*
X207024000Y-75310000I-50000J0D01*
G01*
X206424000Y-75310000D01*
G75*
G02*
X206374000Y-75260000I0J50000D01*
G01*
G37*
X204584000Y-72120000D03*
G36*
G01*
X206374000Y-72720000D02*
X206374000Y-71520000D01*
G75*
G02*
X206424000Y-71470000I50000J0D01*
G01*
X207024000Y-71470000D01*
G75*
G02*
X207074000Y-71520000I0J-50000D01*
G01*
X207074000Y-72720000D01*
G75*
G02*
X207024000Y-72770000I-50000J0D01*
G01*
X206424000Y-72770000D01*
G75*
G02*
X206374000Y-72720000I0J50000D01*
G01*
G37*
X204584000Y-69580000D03*
G36*
G01*
X206374000Y-70180000D02*
X206374000Y-68980000D01*
G75*
G02*
X206424000Y-68930000I50000J0D01*
G01*
X207024000Y-68930000D01*
G75*
G02*
X207074000Y-68980000I0J-50000D01*
G01*
X207074000Y-70180000D01*
G75*
G02*
X207024000Y-70230000I-50000J0D01*
G01*
X206424000Y-70230000D01*
G75*
G02*
X206374000Y-70180000I0J50000D01*
G01*
G37*
X204584000Y-67040000D03*
G36*
G01*
X206374000Y-67640000D02*
X206374000Y-66440000D01*
G75*
G02*
X206424000Y-66390000I50000J0D01*
G01*
X207024000Y-66390000D01*
G75*
G02*
X207074000Y-66440000I0J-50000D01*
G01*
X207074000Y-67640000D01*
G75*
G02*
X207024000Y-67690000I-50000J0D01*
G01*
X206424000Y-67690000D01*
G75*
G02*
X206374000Y-67640000I0J50000D01*
G01*
G37*
X204584000Y-64500000D03*
G36*
G01*
X206374000Y-65100000D02*
X206374000Y-63900000D01*
G75*
G02*
X206424000Y-63850000I50000J0D01*
G01*
X207024000Y-63850000D01*
G75*
G02*
X207074000Y-63900000I0J-50000D01*
G01*
X207074000Y-65100000D01*
G75*
G02*
X207024000Y-65150000I-50000J0D01*
G01*
X206424000Y-65150000D01*
G75*
G02*
X206374000Y-65100000I0J50000D01*
G01*
G37*
X204584000Y-61960000D03*
G36*
G01*
X206374000Y-62560000D02*
X206374000Y-61360000D01*
G75*
G02*
X206424000Y-61310000I50000J0D01*
G01*
X207024000Y-61310000D01*
G75*
G02*
X207074000Y-61360000I0J-50000D01*
G01*
X207074000Y-62560000D01*
G75*
G02*
X207024000Y-62610000I-50000J0D01*
G01*
X206424000Y-62610000D01*
G75*
G02*
X206374000Y-62560000I0J50000D01*
G01*
G37*
X204584000Y-59420000D03*
G36*
G01*
X206374000Y-60020000D02*
X206374000Y-58820000D01*
G75*
G02*
X206424000Y-58770000I50000J0D01*
G01*
X207024000Y-58770000D01*
G75*
G02*
X207074000Y-58820000I0J-50000D01*
G01*
X207074000Y-60020000D01*
G75*
G02*
X207024000Y-60070000I-50000J0D01*
G01*
X206424000Y-60070000D01*
G75*
G02*
X206374000Y-60020000I0J50000D01*
G01*
G37*
G36*
G01*
X207274000Y-60020000D02*
X207274000Y-58820000D01*
G75*
G02*
X207324000Y-58770000I50000J0D01*
G01*
X207924000Y-58770000D01*
G75*
G02*
X207974000Y-58820000I0J-50000D01*
G01*
X207974000Y-60020000D01*
G75*
G02*
X207924000Y-60070000I-50000J0D01*
G01*
X207324000Y-60070000D01*
G75*
G02*
X207274000Y-60020000I0J50000D01*
G01*
G37*
D20*
X215604000Y-59420000D03*
G36*
G01*
X207274000Y-62560000D02*
X207274000Y-61360000D01*
G75*
G02*
X207324000Y-61310000I50000J0D01*
G01*
X207924000Y-61310000D01*
G75*
G02*
X207974000Y-61360000I0J-50000D01*
G01*
X207974000Y-62560000D01*
G75*
G02*
X207924000Y-62610000I-50000J0D01*
G01*
X207324000Y-62610000D01*
G75*
G02*
X207274000Y-62560000I0J50000D01*
G01*
G37*
X215604000Y-61960000D03*
G36*
G01*
X207274000Y-65100000D02*
X207274000Y-63900000D01*
G75*
G02*
X207324000Y-63850000I50000J0D01*
G01*
X207924000Y-63850000D01*
G75*
G02*
X207974000Y-63900000I0J-50000D01*
G01*
X207974000Y-65100000D01*
G75*
G02*
X207924000Y-65150000I-50000J0D01*
G01*
X207324000Y-65150000D01*
G75*
G02*
X207274000Y-65100000I0J50000D01*
G01*
G37*
X215604000Y-64500000D03*
G36*
G01*
X207274000Y-67640000D02*
X207274000Y-66440000D01*
G75*
G02*
X207324000Y-66390000I50000J0D01*
G01*
X207924000Y-66390000D01*
G75*
G02*
X207974000Y-66440000I0J-50000D01*
G01*
X207974000Y-67640000D01*
G75*
G02*
X207924000Y-67690000I-50000J0D01*
G01*
X207324000Y-67690000D01*
G75*
G02*
X207274000Y-67640000I0J50000D01*
G01*
G37*
X215604000Y-67040000D03*
G36*
G01*
X207274000Y-70180000D02*
X207274000Y-68980000D01*
G75*
G02*
X207324000Y-68930000I50000J0D01*
G01*
X207924000Y-68930000D01*
G75*
G02*
X207974000Y-68980000I0J-50000D01*
G01*
X207974000Y-70180000D01*
G75*
G02*
X207924000Y-70230000I-50000J0D01*
G01*
X207324000Y-70230000D01*
G75*
G02*
X207274000Y-70180000I0J50000D01*
G01*
G37*
X215604000Y-69580000D03*
G36*
G01*
X207274000Y-72720000D02*
X207274000Y-71520000D01*
G75*
G02*
X207324000Y-71470000I50000J0D01*
G01*
X207924000Y-71470000D01*
G75*
G02*
X207974000Y-71520000I0J-50000D01*
G01*
X207974000Y-72720000D01*
G75*
G02*
X207924000Y-72770000I-50000J0D01*
G01*
X207324000Y-72770000D01*
G75*
G02*
X207274000Y-72720000I0J50000D01*
G01*
G37*
X215604000Y-72120000D03*
G36*
G01*
X207274000Y-75260000D02*
X207274000Y-74060000D01*
G75*
G02*
X207324000Y-74010000I50000J0D01*
G01*
X207924000Y-74010000D01*
G75*
G02*
X207974000Y-74060000I0J-50000D01*
G01*
X207974000Y-75260000D01*
G75*
G02*
X207924000Y-75310000I-50000J0D01*
G01*
X207324000Y-75310000D01*
G75*
G02*
X207274000Y-75260000I0J50000D01*
G01*
G37*
X215604000Y-74660000D03*
G36*
G01*
X207274000Y-77800000D02*
X207274000Y-76600000D01*
G75*
G02*
X207324000Y-76550000I50000J0D01*
G01*
X207924000Y-76550000D01*
G75*
G02*
X207974000Y-76600000I0J-50000D01*
G01*
X207974000Y-77800000D01*
G75*
G02*
X207924000Y-77850000I-50000J0D01*
G01*
X207324000Y-77850000D01*
G75*
G02*
X207274000Y-77800000I0J50000D01*
G01*
G37*
X215604000Y-77200000D03*
G36*
G01*
X207274000Y-80340000D02*
X207274000Y-79140000D01*
G75*
G02*
X207324000Y-79090000I50000J0D01*
G01*
X207924000Y-79090000D01*
G75*
G02*
X207974000Y-79140000I0J-50000D01*
G01*
X207974000Y-80340000D01*
G75*
G02*
X207924000Y-80390000I-50000J0D01*
G01*
X207324000Y-80390000D01*
G75*
G02*
X207274000Y-80340000I0J50000D01*
G01*
G37*
X215604000Y-79740000D03*
G36*
G01*
X207274000Y-82880000D02*
X207274000Y-81680000D01*
G75*
G02*
X207324000Y-81630000I50000J0D01*
G01*
X207924000Y-81630000D01*
G75*
G02*
X207974000Y-81680000I0J-50000D01*
G01*
X207974000Y-82880000D01*
G75*
G02*
X207924000Y-82930000I-50000J0D01*
G01*
X207324000Y-82930000D01*
G75*
G02*
X207274000Y-82880000I0J50000D01*
G01*
G37*
X215604000Y-82280000D03*
G36*
G01*
X207274000Y-85420000D02*
X207274000Y-84220000D01*
G75*
G02*
X207324000Y-84170000I50000J0D01*
G01*
X207924000Y-84170000D01*
G75*
G02*
X207974000Y-84220000I0J-50000D01*
G01*
X207974000Y-85420000D01*
G75*
G02*
X207924000Y-85470000I-50000J0D01*
G01*
X207324000Y-85470000D01*
G75*
G02*
X207274000Y-85420000I0J50000D01*
G01*
G37*
X215604000Y-84820000D03*
G36*
G01*
X207274000Y-87960000D02*
X207274000Y-86760000D01*
G75*
G02*
X207324000Y-86710000I50000J0D01*
G01*
X207924000Y-86710000D01*
G75*
G02*
X207974000Y-86760000I0J-50000D01*
G01*
X207974000Y-87960000D01*
G75*
G02*
X207924000Y-88010000I-50000J0D01*
G01*
X207324000Y-88010000D01*
G75*
G02*
X207274000Y-87960000I0J50000D01*
G01*
G37*
X215604000Y-87360000D03*
X208804000Y-87360000D03*
G36*
G01*
X216434000Y-87960000D02*
X216434000Y-86760000D01*
G75*
G02*
X216484000Y-86710000I50000J0D01*
G01*
X217084000Y-86710000D01*
G75*
G02*
X217134000Y-86760000I0J-50000D01*
G01*
X217134000Y-87960000D01*
G75*
G02*
X217084000Y-88010000I-50000J0D01*
G01*
X216484000Y-88010000D01*
G75*
G02*
X216434000Y-87960000I0J50000D01*
G01*
G37*
X208804000Y-84820000D03*
G36*
G01*
X216434000Y-85420000D02*
X216434000Y-84220000D01*
G75*
G02*
X216484000Y-84170000I50000J0D01*
G01*
X217084000Y-84170000D01*
G75*
G02*
X217134000Y-84220000I0J-50000D01*
G01*
X217134000Y-85420000D01*
G75*
G02*
X217084000Y-85470000I-50000J0D01*
G01*
X216484000Y-85470000D01*
G75*
G02*
X216434000Y-85420000I0J50000D01*
G01*
G37*
X208804000Y-82280000D03*
G36*
G01*
X216434000Y-82880000D02*
X216434000Y-81680000D01*
G75*
G02*
X216484000Y-81630000I50000J0D01*
G01*
X217084000Y-81630000D01*
G75*
G02*
X217134000Y-81680000I0J-50000D01*
G01*
X217134000Y-82880000D01*
G75*
G02*
X217084000Y-82930000I-50000J0D01*
G01*
X216484000Y-82930000D01*
G75*
G02*
X216434000Y-82880000I0J50000D01*
G01*
G37*
X208804000Y-79740000D03*
G36*
G01*
X216434000Y-80340000D02*
X216434000Y-79140000D01*
G75*
G02*
X216484000Y-79090000I50000J0D01*
G01*
X217084000Y-79090000D01*
G75*
G02*
X217134000Y-79140000I0J-50000D01*
G01*
X217134000Y-80340000D01*
G75*
G02*
X217084000Y-80390000I-50000J0D01*
G01*
X216484000Y-80390000D01*
G75*
G02*
X216434000Y-80340000I0J50000D01*
G01*
G37*
X208804000Y-77200000D03*
G36*
G01*
X216434000Y-77800000D02*
X216434000Y-76600000D01*
G75*
G02*
X216484000Y-76550000I50000J0D01*
G01*
X217084000Y-76550000D01*
G75*
G02*
X217134000Y-76600000I0J-50000D01*
G01*
X217134000Y-77800000D01*
G75*
G02*
X217084000Y-77850000I-50000J0D01*
G01*
X216484000Y-77850000D01*
G75*
G02*
X216434000Y-77800000I0J50000D01*
G01*
G37*
X208804000Y-74660000D03*
G36*
G01*
X216434000Y-75260000D02*
X216434000Y-74060000D01*
G75*
G02*
X216484000Y-74010000I50000J0D01*
G01*
X217084000Y-74010000D01*
G75*
G02*
X217134000Y-74060000I0J-50000D01*
G01*
X217134000Y-75260000D01*
G75*
G02*
X217084000Y-75310000I-50000J0D01*
G01*
X216484000Y-75310000D01*
G75*
G02*
X216434000Y-75260000I0J50000D01*
G01*
G37*
X208804000Y-72120000D03*
G36*
G01*
X216434000Y-72720000D02*
X216434000Y-71520000D01*
G75*
G02*
X216484000Y-71470000I50000J0D01*
G01*
X217084000Y-71470000D01*
G75*
G02*
X217134000Y-71520000I0J-50000D01*
G01*
X217134000Y-72720000D01*
G75*
G02*
X217084000Y-72770000I-50000J0D01*
G01*
X216484000Y-72770000D01*
G75*
G02*
X216434000Y-72720000I0J50000D01*
G01*
G37*
X208804000Y-69580000D03*
G36*
G01*
X216434000Y-70180000D02*
X216434000Y-68980000D01*
G75*
G02*
X216484000Y-68930000I50000J0D01*
G01*
X217084000Y-68930000D01*
G75*
G02*
X217134000Y-68980000I0J-50000D01*
G01*
X217134000Y-70180000D01*
G75*
G02*
X217084000Y-70230000I-50000J0D01*
G01*
X216484000Y-70230000D01*
G75*
G02*
X216434000Y-70180000I0J50000D01*
G01*
G37*
X208804000Y-67040000D03*
G36*
G01*
X216434000Y-67640000D02*
X216434000Y-66440000D01*
G75*
G02*
X216484000Y-66390000I50000J0D01*
G01*
X217084000Y-66390000D01*
G75*
G02*
X217134000Y-66440000I0J-50000D01*
G01*
X217134000Y-67640000D01*
G75*
G02*
X217084000Y-67690000I-50000J0D01*
G01*
X216484000Y-67690000D01*
G75*
G02*
X216434000Y-67640000I0J50000D01*
G01*
G37*
X208804000Y-64500000D03*
G36*
G01*
X216434000Y-65100000D02*
X216434000Y-63900000D01*
G75*
G02*
X216484000Y-63850000I50000J0D01*
G01*
X217084000Y-63850000D01*
G75*
G02*
X217134000Y-63900000I0J-50000D01*
G01*
X217134000Y-65100000D01*
G75*
G02*
X217084000Y-65150000I-50000J0D01*
G01*
X216484000Y-65150000D01*
G75*
G02*
X216434000Y-65100000I0J50000D01*
G01*
G37*
X208804000Y-61960000D03*
G36*
G01*
X216434000Y-62560000D02*
X216434000Y-61360000D01*
G75*
G02*
X216484000Y-61310000I50000J0D01*
G01*
X217084000Y-61310000D01*
G75*
G02*
X217134000Y-61360000I0J-50000D01*
G01*
X217134000Y-62560000D01*
G75*
G02*
X217084000Y-62610000I-50000J0D01*
G01*
X216484000Y-62610000D01*
G75*
G02*
X216434000Y-62560000I0J50000D01*
G01*
G37*
X208804000Y-59420000D03*
G36*
G01*
X216434000Y-60020000D02*
X216434000Y-58820000D01*
G75*
G02*
X216484000Y-58770000I50000J0D01*
G01*
X217084000Y-58770000D01*
G75*
G02*
X217134000Y-58820000I0J-50000D01*
G01*
X217134000Y-60020000D01*
G75*
G02*
X217084000Y-60070000I-50000J0D01*
G01*
X216484000Y-60070000D01*
G75*
G02*
X216434000Y-60020000I0J50000D01*
G01*
G37*
D13*
X158950000Y-117312500D03*
D14*
X158969000Y-111789500D03*
X170550000Y-111812500D03*
D13*
X170569000Y-117289500D03*
G36*
X212101355Y-98635355D02*
G01*
X212066000Y-98650000D01*
X210816000Y-98650000D01*
X210780645Y-98635355D01*
X210766000Y-98600000D01*
X210780645Y-98564645D01*
X211345290Y-98000000D01*
X210780645Y-97435355D01*
X210766000Y-97400000D01*
X210780645Y-97364645D01*
X210816000Y-97350000D01*
X212066000Y-97350000D01*
X212101355Y-97364645D01*
X212116000Y-97400000D01*
X212116000Y-98600000D01*
X212101355Y-98635355D01*
G37*
G36*
X212101355Y-100635355D02*
G01*
X212066000Y-100650000D01*
X210816000Y-100650000D01*
X210780645Y-100635355D01*
X210766000Y-100600000D01*
X210780645Y-100564645D01*
X211345290Y-100000000D01*
X210780645Y-99435355D01*
X210766000Y-99400000D01*
X210780645Y-99364645D01*
X210816000Y-99350000D01*
X212066000Y-99350000D01*
X212101355Y-99364645D01*
X212116000Y-99400000D01*
X212116000Y-100600000D01*
X212101355Y-100635355D01*
G37*
D21*
X209000000Y-100000000D03*
X209000000Y-98000000D03*
G36*
X211235355Y-100035355D02*
G01*
X210635355Y-100635355D01*
X210600000Y-100650000D01*
X210400000Y-100650000D01*
X210364645Y-100635355D01*
X210350000Y-100600000D01*
X210350000Y-99400000D01*
X210364645Y-99364645D01*
X210400000Y-99350000D01*
X210600000Y-99350000D01*
X210635355Y-99364645D01*
X211235355Y-99964645D01*
X211250000Y-100000000D01*
X211235355Y-100035355D01*
G37*
G36*
X211235355Y-98035355D02*
G01*
X210635355Y-98635355D01*
X210600000Y-98650000D01*
X210400000Y-98650000D01*
X210364645Y-98635355D01*
X210350000Y-98600000D01*
X210350000Y-97400000D01*
X210364645Y-97364645D01*
X210400000Y-97350000D01*
X210600000Y-97350000D01*
X210635355Y-97364645D01*
X211235355Y-97964645D01*
X211250000Y-98000000D01*
X211235355Y-98035355D01*
G37*
D13*
X94200000Y-84250000D03*
D14*
X94219000Y-78727000D03*
X105800000Y-78750000D03*
D13*
X105819000Y-84227000D03*
X186700000Y-44937500D03*
D14*
X186719000Y-39414500D03*
X198300000Y-39437500D03*
D13*
X198319000Y-44914500D03*
X168200000Y-79625000D03*
D14*
X168219000Y-74102000D03*
X179800000Y-74125000D03*
D13*
X179819000Y-79602000D03*
X149700000Y-40312500D03*
D14*
X149719000Y-34789500D03*
X161300000Y-34812500D03*
D13*
X161319000Y-40289500D03*
D17*
X109250000Y-90750000D03*
D13*
X149700000Y-58812500D03*
D14*
X149719000Y-53289500D03*
X161300000Y-53312500D03*
D13*
X161319000Y-58789500D03*
X206495370Y-127345147D03*
D14*
X201721812Y-124567193D03*
X207532230Y-114549253D03*
D13*
X212284951Y-117271298D03*
X178935878Y-118467646D03*
D14*
X180383688Y-113137755D03*
X191564122Y-116157354D03*
D13*
X190164923Y-121452648D03*
X94200000Y-47250000D03*
D14*
X94219000Y-41727000D03*
X105800000Y-41750000D03*
D13*
X105819000Y-47227000D03*
X94200000Y-65750000D03*
D14*
X94219000Y-60227000D03*
X105800000Y-60250000D03*
D13*
X105819000Y-65727000D03*
X186700000Y-63437500D03*
D14*
X186719000Y-57914500D03*
X198300000Y-57937500D03*
D13*
X198319000Y-63414500D03*
X112700000Y-65750000D03*
D14*
X112719000Y-60227000D03*
X124300000Y-60250000D03*
D13*
X124319000Y-65727000D03*
D17*
X109250000Y-53750000D03*
D13*
X149700000Y-77312500D03*
D14*
X149719000Y-71789500D03*
X161300000Y-71812500D03*
D13*
X161319000Y-77289500D03*
X131200000Y-42625000D03*
D14*
X131219000Y-37102000D03*
X142800000Y-37125000D03*
D13*
X142819000Y-42602000D03*
D22*
X218969000Y-108757500D03*
D13*
X112700000Y-47250000D03*
D14*
X112719000Y-41727000D03*
X124300000Y-41750000D03*
D13*
X124319000Y-47227000D03*
X112700000Y-102750000D03*
D14*
X112719000Y-97227000D03*
X124300000Y-97250000D03*
D13*
X124319000Y-102727000D03*
X94200000Y-102750000D03*
D14*
X94219000Y-97227000D03*
X105800000Y-97250000D03*
D13*
X105819000Y-102727000D03*
X149700000Y-95812500D03*
D14*
X149719000Y-90289500D03*
X161300000Y-90312500D03*
D13*
X161319000Y-95789500D03*
X131200000Y-61125000D03*
D14*
X131219000Y-55602000D03*
X142800000Y-55625000D03*
D13*
X142819000Y-61102000D03*
D17*
X151157000Y-107615000D03*
D22*
X204927000Y-100463500D03*
D13*
X186700000Y-100437500D03*
D14*
X186719000Y-94914500D03*
X198300000Y-94937500D03*
D13*
X198319000Y-100414500D03*
X112700000Y-84250000D03*
D14*
X112719000Y-78727000D03*
X124300000Y-78750000D03*
D13*
X124319000Y-84227000D03*
X149700000Y-58812500D03*
D14*
X149719000Y-53289500D03*
X161300000Y-53312500D03*
D13*
X161319000Y-58789500D03*
G36*
G01*
X157175000Y-59712500D02*
X157175000Y-57712500D01*
G75*
G02*
X157225000Y-57662500I50000J0D01*
G01*
X158775000Y-57662500D01*
G75*
G02*
X158825000Y-57712500I0J-50000D01*
G01*
X158825000Y-59712500D01*
G75*
G02*
X158775000Y-59762500I-50000J0D01*
G01*
X157225000Y-59762500D01*
G75*
G02*
X157175000Y-59712500I0J50000D01*
G01*
G37*
G36*
G01*
X152175000Y-59712500D02*
X152175000Y-57712500D01*
G75*
G02*
X152225000Y-57662500I50000J0D01*
G01*
X153775000Y-57662500D01*
G75*
G02*
X153825000Y-57712500I0J-50000D01*
G01*
X153825000Y-59712500D01*
G75*
G02*
X153775000Y-59762500I-50000J0D01*
G01*
X152225000Y-59762500D01*
G75*
G02*
X152175000Y-59712500I0J50000D01*
G01*
G37*
G36*
G01*
X148100000Y-51062500D02*
X148100000Y-49062500D01*
G75*
G02*
X148150000Y-49012500I50000J0D01*
G01*
X150150000Y-49012500D01*
G75*
G02*
X150200000Y-49062500I0J-50000D01*
G01*
X150200000Y-51062500D01*
G75*
G02*
X150150000Y-51112500I-50000J0D01*
G01*
X148150000Y-51112500D01*
G75*
G02*
X148100000Y-51062500I0J50000D01*
G01*
G37*
G36*
G01*
X148100000Y-63062500D02*
X148100000Y-61062500D01*
G75*
G02*
X148150000Y-61012500I50000J0D01*
G01*
X150150000Y-61012500D01*
G75*
G02*
X150200000Y-61062500I0J-50000D01*
G01*
X150200000Y-63062500D01*
G75*
G02*
X150150000Y-63112500I-50000J0D01*
G01*
X148150000Y-63112500D01*
G75*
G02*
X148100000Y-63062500I0J50000D01*
G01*
G37*
G36*
G01*
X160800000Y-51062500D02*
X160800000Y-49062500D01*
G75*
G02*
X160850000Y-49012500I50000J0D01*
G01*
X162850000Y-49012500D01*
G75*
G02*
X162900000Y-49062500I0J-50000D01*
G01*
X162900000Y-51062500D01*
G75*
G02*
X162850000Y-51112500I-50000J0D01*
G01*
X160850000Y-51112500D01*
G75*
G02*
X160800000Y-51062500I0J50000D01*
G01*
G37*
G36*
G01*
X160800000Y-63062500D02*
X160800000Y-61062500D01*
G75*
G02*
X160850000Y-61012500I50000J0D01*
G01*
X162850000Y-61012500D01*
G75*
G02*
X162900000Y-61062500I0J-50000D01*
G01*
X162900000Y-63062500D01*
G75*
G02*
X162850000Y-63112500I-50000J0D01*
G01*
X160850000Y-63112500D01*
G75*
G02*
X160800000Y-63062500I0J50000D01*
G01*
G37*
X168200000Y-79625000D03*
D14*
X168219000Y-74102000D03*
X179800000Y-74125000D03*
D13*
X179819000Y-79602000D03*
G36*
G01*
X175675000Y-80525000D02*
X175675000Y-78525000D01*
G75*
G02*
X175725000Y-78475000I50000J0D01*
G01*
X177275000Y-78475000D01*
G75*
G02*
X177325000Y-78525000I0J-50000D01*
G01*
X177325000Y-80525000D01*
G75*
G02*
X177275000Y-80575000I-50000J0D01*
G01*
X175725000Y-80575000D01*
G75*
G02*
X175675000Y-80525000I0J50000D01*
G01*
G37*
G36*
G01*
X170675000Y-80525000D02*
X170675000Y-78525000D01*
G75*
G02*
X170725000Y-78475000I50000J0D01*
G01*
X172275000Y-78475000D01*
G75*
G02*
X172325000Y-78525000I0J-50000D01*
G01*
X172325000Y-80525000D01*
G75*
G02*
X172275000Y-80575000I-50000J0D01*
G01*
X170725000Y-80575000D01*
G75*
G02*
X170675000Y-80525000I0J50000D01*
G01*
G37*
G36*
G01*
X166600000Y-71875000D02*
X166600000Y-69875000D01*
G75*
G02*
X166650000Y-69825000I50000J0D01*
G01*
X168650000Y-69825000D01*
G75*
G02*
X168700000Y-69875000I0J-50000D01*
G01*
X168700000Y-71875000D01*
G75*
G02*
X168650000Y-71925000I-50000J0D01*
G01*
X166650000Y-71925000D01*
G75*
G02*
X166600000Y-71875000I0J50000D01*
G01*
G37*
G36*
G01*
X166600000Y-83875000D02*
X166600000Y-81875000D01*
G75*
G02*
X166650000Y-81825000I50000J0D01*
G01*
X168650000Y-81825000D01*
G75*
G02*
X168700000Y-81875000I0J-50000D01*
G01*
X168700000Y-83875000D01*
G75*
G02*
X168650000Y-83925000I-50000J0D01*
G01*
X166650000Y-83925000D01*
G75*
G02*
X166600000Y-83875000I0J50000D01*
G01*
G37*
G36*
G01*
X179300000Y-71875000D02*
X179300000Y-69875000D01*
G75*
G02*
X179350000Y-69825000I50000J0D01*
G01*
X181350000Y-69825000D01*
G75*
G02*
X181400000Y-69875000I0J-50000D01*
G01*
X181400000Y-71875000D01*
G75*
G02*
X181350000Y-71925000I-50000J0D01*
G01*
X179350000Y-71925000D01*
G75*
G02*
X179300000Y-71875000I0J50000D01*
G01*
G37*
G36*
G01*
X179300000Y-83875000D02*
X179300000Y-81875000D01*
G75*
G02*
X179350000Y-81825000I50000J0D01*
G01*
X181350000Y-81825000D01*
G75*
G02*
X181400000Y-81875000I0J-50000D01*
G01*
X181400000Y-83875000D01*
G75*
G02*
X181350000Y-83925000I-50000J0D01*
G01*
X179350000Y-83925000D01*
G75*
G02*
X179300000Y-83875000I0J50000D01*
G01*
G37*
X94200000Y-84250000D03*
D14*
X94219000Y-78727000D03*
X105800000Y-78750000D03*
D13*
X105819000Y-84227000D03*
G36*
G01*
X101675000Y-85150000D02*
X101675000Y-83150000D01*
G75*
G02*
X101725000Y-83100000I50000J0D01*
G01*
X103275000Y-83100000D01*
G75*
G02*
X103325000Y-83150000I0J-50000D01*
G01*
X103325000Y-85150000D01*
G75*
G02*
X103275000Y-85200000I-50000J0D01*
G01*
X101725000Y-85200000D01*
G75*
G02*
X101675000Y-85150000I0J50000D01*
G01*
G37*
G36*
G01*
X96675000Y-85150000D02*
X96675000Y-83150000D01*
G75*
G02*
X96725000Y-83100000I50000J0D01*
G01*
X98275000Y-83100000D01*
G75*
G02*
X98325000Y-83150000I0J-50000D01*
G01*
X98325000Y-85150000D01*
G75*
G02*
X98275000Y-85200000I-50000J0D01*
G01*
X96725000Y-85200000D01*
G75*
G02*
X96675000Y-85150000I0J50000D01*
G01*
G37*
G36*
G01*
X92600000Y-76500000D02*
X92600000Y-74500000D01*
G75*
G02*
X92650000Y-74450000I50000J0D01*
G01*
X94650000Y-74450000D01*
G75*
G02*
X94700000Y-74500000I0J-50000D01*
G01*
X94700000Y-76500000D01*
G75*
G02*
X94650000Y-76550000I-50000J0D01*
G01*
X92650000Y-76550000D01*
G75*
G02*
X92600000Y-76500000I0J50000D01*
G01*
G37*
G36*
G01*
X92600000Y-88500000D02*
X92600000Y-86500000D01*
G75*
G02*
X92650000Y-86450000I50000J0D01*
G01*
X94650000Y-86450000D01*
G75*
G02*
X94700000Y-86500000I0J-50000D01*
G01*
X94700000Y-88500000D01*
G75*
G02*
X94650000Y-88550000I-50000J0D01*
G01*
X92650000Y-88550000D01*
G75*
G02*
X92600000Y-88500000I0J50000D01*
G01*
G37*
G36*
G01*
X105300000Y-76500000D02*
X105300000Y-74500000D01*
G75*
G02*
X105350000Y-74450000I50000J0D01*
G01*
X107350000Y-74450000D01*
G75*
G02*
X107400000Y-74500000I0J-50000D01*
G01*
X107400000Y-76500000D01*
G75*
G02*
X107350000Y-76550000I-50000J0D01*
G01*
X105350000Y-76550000D01*
G75*
G02*
X105300000Y-76500000I0J50000D01*
G01*
G37*
G36*
G01*
X105300000Y-88500000D02*
X105300000Y-86500000D01*
G75*
G02*
X105350000Y-86450000I50000J0D01*
G01*
X107350000Y-86450000D01*
G75*
G02*
X107400000Y-86500000I0J-50000D01*
G01*
X107400000Y-88500000D01*
G75*
G02*
X107350000Y-88550000I-50000J0D01*
G01*
X105350000Y-88550000D01*
G75*
G02*
X105300000Y-88500000I0J50000D01*
G01*
G37*
X178935878Y-118467646D03*
D14*
X180383688Y-113137755D03*
X191564122Y-116157354D03*
D13*
X190164923Y-121452648D03*
G36*
G01*
X185923236Y-121271651D02*
X186440875Y-119339799D01*
G75*
G02*
X186502112Y-119304444I48296J-12941D01*
G01*
X187999297Y-119705614D01*
G75*
G02*
X188034652Y-119766851I-12941J-48296D01*
G01*
X187517013Y-121698703D01*
G75*
G02*
X187455776Y-121734058I-48296J12941D01*
G01*
X185958591Y-121332888D01*
G75*
G02*
X185923236Y-121271651I12941J48296D01*
G01*
G37*
G36*
G01*
X181093607Y-119977556D02*
X181611246Y-118045704D01*
G75*
G02*
X181672483Y-118010349I48296J-12941D01*
G01*
X183169668Y-118411519D01*
G75*
G02*
X183205023Y-118472756I-12941J-48296D01*
G01*
X182687384Y-120404608D01*
G75*
G02*
X182626147Y-120439963I-48296J12941D01*
G01*
X181128962Y-120038793D01*
G75*
G02*
X181093607Y-119977556I12941J48296D01*
G01*
G37*
G36*
G01*
X179396244Y-110567610D02*
X179913882Y-108635758D01*
G75*
G02*
X179975119Y-108600403I48296J-12941D01*
G01*
X181906971Y-109118041D01*
G75*
G02*
X181942326Y-109179278I-12941J-48296D01*
G01*
X181424688Y-111111130D01*
G75*
G02*
X181363451Y-111146485I-48296J12941D01*
G01*
X179431599Y-110628847D01*
G75*
G02*
X179396244Y-110567610I12941J48296D01*
G01*
G37*
G36*
G01*
X176290416Y-122158720D02*
X176808054Y-120226868D01*
G75*
G02*
X176869291Y-120191513I48296J-12941D01*
G01*
X178801143Y-120709151D01*
G75*
G02*
X178836498Y-120770388I-12941J-48296D01*
G01*
X178318860Y-122702240D01*
G75*
G02*
X178257623Y-122737595I-48296J12941D01*
G01*
X176325771Y-122219957D01*
G75*
G02*
X176290416Y-122158720I12941J48296D01*
G01*
G37*
G36*
G01*
X191663502Y-113854612D02*
X192181140Y-111922760D01*
G75*
G02*
X192242377Y-111887405I48296J-12941D01*
G01*
X194174229Y-112405043D01*
G75*
G02*
X194209584Y-112466280I-12941J-48296D01*
G01*
X193691946Y-114398132D01*
G75*
G02*
X193630709Y-114433487I-48296J12941D01*
G01*
X191698857Y-113915849D01*
G75*
G02*
X191663502Y-113854612I12941J48296D01*
G01*
G37*
G36*
G01*
X188557674Y-125445722D02*
X189075312Y-123513870D01*
G75*
G02*
X189136549Y-123478515I48296J-12941D01*
G01*
X191068401Y-123996153D01*
G75*
G02*
X191103756Y-124057390I-12941J-48296D01*
G01*
X190586118Y-125989242D01*
G75*
G02*
X190524881Y-126024597I-48296J12941D01*
G01*
X188593029Y-125506959D01*
G75*
G02*
X188557674Y-125445722I12941J48296D01*
G01*
G37*
G36*
G01*
X189850000Y-58787500D02*
X189850000Y-57587500D01*
G75*
G02*
X189900000Y-57537500I50000J0D01*
G01*
X190800000Y-57537500D01*
G75*
G02*
X190850000Y-57587500I0J-50000D01*
G01*
X190850000Y-58787500D01*
G75*
G02*
X190800000Y-58837500I-50000J0D01*
G01*
X189900000Y-58837500D01*
G75*
G02*
X189850000Y-58787500I0J50000D01*
G01*
G37*
G36*
G01*
X193150000Y-58787500D02*
X193150000Y-57587500D01*
G75*
G02*
X193200000Y-57537500I50000J0D01*
G01*
X194100000Y-57537500D01*
G75*
G02*
X194150000Y-57587500I0J-50000D01*
G01*
X194150000Y-58787500D01*
G75*
G02*
X194100000Y-58837500I-50000J0D01*
G01*
X193200000Y-58837500D01*
G75*
G02*
X193150000Y-58787500I0J50000D01*
G01*
G37*
X149700000Y-95812500D03*
D14*
X149719000Y-90289500D03*
X161300000Y-90312500D03*
D13*
X161319000Y-95789500D03*
G36*
G01*
X157175000Y-96712500D02*
X157175000Y-94712500D01*
G75*
G02*
X157225000Y-94662500I50000J0D01*
G01*
X158775000Y-94662500D01*
G75*
G02*
X158825000Y-94712500I0J-50000D01*
G01*
X158825000Y-96712500D01*
G75*
G02*
X158775000Y-96762500I-50000J0D01*
G01*
X157225000Y-96762500D01*
G75*
G02*
X157175000Y-96712500I0J50000D01*
G01*
G37*
G36*
G01*
X152175000Y-96712500D02*
X152175000Y-94712500D01*
G75*
G02*
X152225000Y-94662500I50000J0D01*
G01*
X153775000Y-94662500D01*
G75*
G02*
X153825000Y-94712500I0J-50000D01*
G01*
X153825000Y-96712500D01*
G75*
G02*
X153775000Y-96762500I-50000J0D01*
G01*
X152225000Y-96762500D01*
G75*
G02*
X152175000Y-96712500I0J50000D01*
G01*
G37*
G36*
G01*
X148100000Y-88062500D02*
X148100000Y-86062500D01*
G75*
G02*
X148150000Y-86012500I50000J0D01*
G01*
X150150000Y-86012500D01*
G75*
G02*
X150200000Y-86062500I0J-50000D01*
G01*
X150200000Y-88062500D01*
G75*
G02*
X150150000Y-88112500I-50000J0D01*
G01*
X148150000Y-88112500D01*
G75*
G02*
X148100000Y-88062500I0J50000D01*
G01*
G37*
G36*
G01*
X148100000Y-100062500D02*
X148100000Y-98062500D01*
G75*
G02*
X148150000Y-98012500I50000J0D01*
G01*
X150150000Y-98012500D01*
G75*
G02*
X150200000Y-98062500I0J-50000D01*
G01*
X150200000Y-100062500D01*
G75*
G02*
X150150000Y-100112500I-50000J0D01*
G01*
X148150000Y-100112500D01*
G75*
G02*
X148100000Y-100062500I0J50000D01*
G01*
G37*
G36*
G01*
X160800000Y-88062500D02*
X160800000Y-86062500D01*
G75*
G02*
X160850000Y-86012500I50000J0D01*
G01*
X162850000Y-86012500D01*
G75*
G02*
X162900000Y-86062500I0J-50000D01*
G01*
X162900000Y-88062500D01*
G75*
G02*
X162850000Y-88112500I-50000J0D01*
G01*
X160850000Y-88112500D01*
G75*
G02*
X160800000Y-88062500I0J50000D01*
G01*
G37*
G36*
G01*
X160800000Y-100062500D02*
X160800000Y-98062500D01*
G75*
G02*
X160850000Y-98012500I50000J0D01*
G01*
X162850000Y-98012500D01*
G75*
G02*
X162900000Y-98062500I0J-50000D01*
G01*
X162900000Y-100062500D01*
G75*
G02*
X162850000Y-100112500I-50000J0D01*
G01*
X160850000Y-100112500D01*
G75*
G02*
X160800000Y-100062500I0J50000D01*
G01*
G37*
X131200000Y-42625000D03*
D14*
X131219000Y-37102000D03*
X142800000Y-37125000D03*
D13*
X142819000Y-42602000D03*
G36*
G01*
X138675000Y-43525000D02*
X138675000Y-41525000D01*
G75*
G02*
X138725000Y-41475000I50000J0D01*
G01*
X140275000Y-41475000D01*
G75*
G02*
X140325000Y-41525000I0J-50000D01*
G01*
X140325000Y-43525000D01*
G75*
G02*
X140275000Y-43575000I-50000J0D01*
G01*
X138725000Y-43575000D01*
G75*
G02*
X138675000Y-43525000I0J50000D01*
G01*
G37*
G36*
G01*
X133675000Y-43525000D02*
X133675000Y-41525000D01*
G75*
G02*
X133725000Y-41475000I50000J0D01*
G01*
X135275000Y-41475000D01*
G75*
G02*
X135325000Y-41525000I0J-50000D01*
G01*
X135325000Y-43525000D01*
G75*
G02*
X135275000Y-43575000I-50000J0D01*
G01*
X133725000Y-43575000D01*
G75*
G02*
X133675000Y-43525000I0J50000D01*
G01*
G37*
G36*
G01*
X129600000Y-34875000D02*
X129600000Y-32875000D01*
G75*
G02*
X129650000Y-32825000I50000J0D01*
G01*
X131650000Y-32825000D01*
G75*
G02*
X131700000Y-32875000I0J-50000D01*
G01*
X131700000Y-34875000D01*
G75*
G02*
X131650000Y-34925000I-50000J0D01*
G01*
X129650000Y-34925000D01*
G75*
G02*
X129600000Y-34875000I0J50000D01*
G01*
G37*
G36*
G01*
X129600000Y-46875000D02*
X129600000Y-44875000D01*
G75*
G02*
X129650000Y-44825000I50000J0D01*
G01*
X131650000Y-44825000D01*
G75*
G02*
X131700000Y-44875000I0J-50000D01*
G01*
X131700000Y-46875000D01*
G75*
G02*
X131650000Y-46925000I-50000J0D01*
G01*
X129650000Y-46925000D01*
G75*
G02*
X129600000Y-46875000I0J50000D01*
G01*
G37*
G36*
G01*
X142300000Y-34875000D02*
X142300000Y-32875000D01*
G75*
G02*
X142350000Y-32825000I50000J0D01*
G01*
X144350000Y-32825000D01*
G75*
G02*
X144400000Y-32875000I0J-50000D01*
G01*
X144400000Y-34875000D01*
G75*
G02*
X144350000Y-34925000I-50000J0D01*
G01*
X142350000Y-34925000D01*
G75*
G02*
X142300000Y-34875000I0J50000D01*
G01*
G37*
G36*
G01*
X142300000Y-46875000D02*
X142300000Y-44875000D01*
G75*
G02*
X142350000Y-44825000I50000J0D01*
G01*
X144350000Y-44825000D01*
G75*
G02*
X144400000Y-44875000I0J-50000D01*
G01*
X144400000Y-46875000D01*
G75*
G02*
X144350000Y-46925000I-50000J0D01*
G01*
X142350000Y-46925000D01*
G75*
G02*
X142300000Y-46875000I0J50000D01*
G01*
G37*
X131200000Y-98125000D03*
D14*
X131219000Y-92602000D03*
X142800000Y-92625000D03*
D13*
X142819000Y-98102000D03*
G36*
G01*
X138675000Y-99025000D02*
X138675000Y-97025000D01*
G75*
G02*
X138725000Y-96975000I50000J0D01*
G01*
X140275000Y-96975000D01*
G75*
G02*
X140325000Y-97025000I0J-50000D01*
G01*
X140325000Y-99025000D01*
G75*
G02*
X140275000Y-99075000I-50000J0D01*
G01*
X138725000Y-99075000D01*
G75*
G02*
X138675000Y-99025000I0J50000D01*
G01*
G37*
G36*
G01*
X133675000Y-99025000D02*
X133675000Y-97025000D01*
G75*
G02*
X133725000Y-96975000I50000J0D01*
G01*
X135275000Y-96975000D01*
G75*
G02*
X135325000Y-97025000I0J-50000D01*
G01*
X135325000Y-99025000D01*
G75*
G02*
X135275000Y-99075000I-50000J0D01*
G01*
X133725000Y-99075000D01*
G75*
G02*
X133675000Y-99025000I0J50000D01*
G01*
G37*
G36*
G01*
X129600000Y-90375000D02*
X129600000Y-88375000D01*
G75*
G02*
X129650000Y-88325000I50000J0D01*
G01*
X131650000Y-88325000D01*
G75*
G02*
X131700000Y-88375000I0J-50000D01*
G01*
X131700000Y-90375000D01*
G75*
G02*
X131650000Y-90425000I-50000J0D01*
G01*
X129650000Y-90425000D01*
G75*
G02*
X129600000Y-90375000I0J50000D01*
G01*
G37*
G36*
G01*
X129600000Y-102375000D02*
X129600000Y-100375000D01*
G75*
G02*
X129650000Y-100325000I50000J0D01*
G01*
X131650000Y-100325000D01*
G75*
G02*
X131700000Y-100375000I0J-50000D01*
G01*
X131700000Y-102375000D01*
G75*
G02*
X131650000Y-102425000I-50000J0D01*
G01*
X129650000Y-102425000D01*
G75*
G02*
X129600000Y-102375000I0J50000D01*
G01*
G37*
G36*
G01*
X142300000Y-90375000D02*
X142300000Y-88375000D01*
G75*
G02*
X142350000Y-88325000I50000J0D01*
G01*
X144350000Y-88325000D01*
G75*
G02*
X144400000Y-88375000I0J-50000D01*
G01*
X144400000Y-90375000D01*
G75*
G02*
X144350000Y-90425000I-50000J0D01*
G01*
X142350000Y-90425000D01*
G75*
G02*
X142300000Y-90375000I0J50000D01*
G01*
G37*
G36*
G01*
X142300000Y-102375000D02*
X142300000Y-100375000D01*
G75*
G02*
X142350000Y-100325000I50000J0D01*
G01*
X144350000Y-100325000D01*
G75*
G02*
X144400000Y-100375000I0J-50000D01*
G01*
X144400000Y-102375000D01*
G75*
G02*
X144350000Y-102425000I-50000J0D01*
G01*
X142350000Y-102425000D01*
G75*
G02*
X142300000Y-102375000I0J50000D01*
G01*
G37*
G36*
G01*
X97350000Y-61100000D02*
X97350000Y-59900000D01*
G75*
G02*
X97400000Y-59850000I50000J0D01*
G01*
X98300000Y-59850000D01*
G75*
G02*
X98350000Y-59900000I0J-50000D01*
G01*
X98350000Y-61100000D01*
G75*
G02*
X98300000Y-61150000I-50000J0D01*
G01*
X97400000Y-61150000D01*
G75*
G02*
X97350000Y-61100000I0J50000D01*
G01*
G37*
G36*
G01*
X100650000Y-61100000D02*
X100650000Y-59900000D01*
G75*
G02*
X100700000Y-59850000I50000J0D01*
G01*
X101600000Y-59850000D01*
G75*
G02*
X101650000Y-59900000I0J-50000D01*
G01*
X101650000Y-61100000D01*
G75*
G02*
X101600000Y-61150000I-50000J0D01*
G01*
X100700000Y-61150000D01*
G75*
G02*
X100650000Y-61100000I0J50000D01*
G01*
G37*
G36*
G01*
X115850000Y-61100000D02*
X115850000Y-59900000D01*
G75*
G02*
X115900000Y-59850000I50000J0D01*
G01*
X116800000Y-59850000D01*
G75*
G02*
X116850000Y-59900000I0J-50000D01*
G01*
X116850000Y-61100000D01*
G75*
G02*
X116800000Y-61150000I-50000J0D01*
G01*
X115900000Y-61150000D01*
G75*
G02*
X115850000Y-61100000I0J50000D01*
G01*
G37*
G36*
G01*
X119150000Y-61100000D02*
X119150000Y-59900000D01*
G75*
G02*
X119200000Y-59850000I50000J0D01*
G01*
X120100000Y-59850000D01*
G75*
G02*
X120150000Y-59900000I0J-50000D01*
G01*
X120150000Y-61100000D01*
G75*
G02*
X120100000Y-61150000I-50000J0D01*
G01*
X119200000Y-61150000D01*
G75*
G02*
X119150000Y-61100000I0J50000D01*
G01*
G37*
X149700000Y-40312500D03*
D14*
X149719000Y-34789500D03*
X161300000Y-34812500D03*
D13*
X161319000Y-40289500D03*
G36*
G01*
X157175000Y-41212500D02*
X157175000Y-39212500D01*
G75*
G02*
X157225000Y-39162500I50000J0D01*
G01*
X158775000Y-39162500D01*
G75*
G02*
X158825000Y-39212500I0J-50000D01*
G01*
X158825000Y-41212500D01*
G75*
G02*
X158775000Y-41262500I-50000J0D01*
G01*
X157225000Y-41262500D01*
G75*
G02*
X157175000Y-41212500I0J50000D01*
G01*
G37*
G36*
G01*
X152175000Y-41212500D02*
X152175000Y-39212500D01*
G75*
G02*
X152225000Y-39162500I50000J0D01*
G01*
X153775000Y-39162500D01*
G75*
G02*
X153825000Y-39212500I0J-50000D01*
G01*
X153825000Y-41212500D01*
G75*
G02*
X153775000Y-41262500I-50000J0D01*
G01*
X152225000Y-41262500D01*
G75*
G02*
X152175000Y-41212500I0J50000D01*
G01*
G37*
G36*
G01*
X148100000Y-32562500D02*
X148100000Y-30562500D01*
G75*
G02*
X148150000Y-30512500I50000J0D01*
G01*
X150150000Y-30512500D01*
G75*
G02*
X150200000Y-30562500I0J-50000D01*
G01*
X150200000Y-32562500D01*
G75*
G02*
X150150000Y-32612500I-50000J0D01*
G01*
X148150000Y-32612500D01*
G75*
G02*
X148100000Y-32562500I0J50000D01*
G01*
G37*
G36*
G01*
X148100000Y-44562500D02*
X148100000Y-42562500D01*
G75*
G02*
X148150000Y-42512500I50000J0D01*
G01*
X150150000Y-42512500D01*
G75*
G02*
X150200000Y-42562500I0J-50000D01*
G01*
X150200000Y-44562500D01*
G75*
G02*
X150150000Y-44612500I-50000J0D01*
G01*
X148150000Y-44612500D01*
G75*
G02*
X148100000Y-44562500I0J50000D01*
G01*
G37*
G36*
G01*
X160800000Y-32562500D02*
X160800000Y-30562500D01*
G75*
G02*
X160850000Y-30512500I50000J0D01*
G01*
X162850000Y-30512500D01*
G75*
G02*
X162900000Y-30562500I0J-50000D01*
G01*
X162900000Y-32562500D01*
G75*
G02*
X162850000Y-32612500I-50000J0D01*
G01*
X160850000Y-32612500D01*
G75*
G02*
X160800000Y-32562500I0J50000D01*
G01*
G37*
G36*
G01*
X160800000Y-44562500D02*
X160800000Y-42562500D01*
G75*
G02*
X160850000Y-42512500I50000J0D01*
G01*
X162850000Y-42512500D01*
G75*
G02*
X162900000Y-42562500I0J-50000D01*
G01*
X162900000Y-44562500D01*
G75*
G02*
X162850000Y-44612500I-50000J0D01*
G01*
X160850000Y-44612500D01*
G75*
G02*
X160800000Y-44562500I0J50000D01*
G01*
G37*
G36*
G01*
X152850000Y-54162500D02*
X152850000Y-52962500D01*
G75*
G02*
X152900000Y-52912500I50000J0D01*
G01*
X153800000Y-52912500D01*
G75*
G02*
X153850000Y-52962500I0J-50000D01*
G01*
X153850000Y-54162500D01*
G75*
G02*
X153800000Y-54212500I-50000J0D01*
G01*
X152900000Y-54212500D01*
G75*
G02*
X152850000Y-54162500I0J50000D01*
G01*
G37*
G36*
G01*
X156150000Y-54162500D02*
X156150000Y-52962500D01*
G75*
G02*
X156200000Y-52912500I50000J0D01*
G01*
X157100000Y-52912500D01*
G75*
G02*
X157150000Y-52962500I0J-50000D01*
G01*
X157150000Y-54162500D01*
G75*
G02*
X157100000Y-54212500I-50000J0D01*
G01*
X156200000Y-54212500D01*
G75*
G02*
X156150000Y-54162500I0J50000D01*
G01*
G37*
X168200000Y-42625000D03*
D14*
X168219000Y-37102000D03*
X179800000Y-37125000D03*
D13*
X179819000Y-42602000D03*
G36*
G01*
X175675000Y-43525000D02*
X175675000Y-41525000D01*
G75*
G02*
X175725000Y-41475000I50000J0D01*
G01*
X177275000Y-41475000D01*
G75*
G02*
X177325000Y-41525000I0J-50000D01*
G01*
X177325000Y-43525000D01*
G75*
G02*
X177275000Y-43575000I-50000J0D01*
G01*
X175725000Y-43575000D01*
G75*
G02*
X175675000Y-43525000I0J50000D01*
G01*
G37*
G36*
G01*
X170675000Y-43525000D02*
X170675000Y-41525000D01*
G75*
G02*
X170725000Y-41475000I50000J0D01*
G01*
X172275000Y-41475000D01*
G75*
G02*
X172325000Y-41525000I0J-50000D01*
G01*
X172325000Y-43525000D01*
G75*
G02*
X172275000Y-43575000I-50000J0D01*
G01*
X170725000Y-43575000D01*
G75*
G02*
X170675000Y-43525000I0J50000D01*
G01*
G37*
G36*
G01*
X166600000Y-34875000D02*
X166600000Y-32875000D01*
G75*
G02*
X166650000Y-32825000I50000J0D01*
G01*
X168650000Y-32825000D01*
G75*
G02*
X168700000Y-32875000I0J-50000D01*
G01*
X168700000Y-34875000D01*
G75*
G02*
X168650000Y-34925000I-50000J0D01*
G01*
X166650000Y-34925000D01*
G75*
G02*
X166600000Y-34875000I0J50000D01*
G01*
G37*
G36*
G01*
X166600000Y-46875000D02*
X166600000Y-44875000D01*
G75*
G02*
X166650000Y-44825000I50000J0D01*
G01*
X168650000Y-44825000D01*
G75*
G02*
X168700000Y-44875000I0J-50000D01*
G01*
X168700000Y-46875000D01*
G75*
G02*
X168650000Y-46925000I-50000J0D01*
G01*
X166650000Y-46925000D01*
G75*
G02*
X166600000Y-46875000I0J50000D01*
G01*
G37*
G36*
G01*
X179300000Y-34875000D02*
X179300000Y-32875000D01*
G75*
G02*
X179350000Y-32825000I50000J0D01*
G01*
X181350000Y-32825000D01*
G75*
G02*
X181400000Y-32875000I0J-50000D01*
G01*
X181400000Y-34875000D01*
G75*
G02*
X181350000Y-34925000I-50000J0D01*
G01*
X179350000Y-34925000D01*
G75*
G02*
X179300000Y-34875000I0J50000D01*
G01*
G37*
G36*
G01*
X179300000Y-46875000D02*
X179300000Y-44875000D01*
G75*
G02*
X179350000Y-44825000I50000J0D01*
G01*
X181350000Y-44825000D01*
G75*
G02*
X181400000Y-44875000I0J-50000D01*
G01*
X181400000Y-46875000D01*
G75*
G02*
X181350000Y-46925000I-50000J0D01*
G01*
X179350000Y-46925000D01*
G75*
G02*
X179300000Y-46875000I0J50000D01*
G01*
G37*
X112700000Y-102750000D03*
D14*
X112719000Y-97227000D03*
X124300000Y-97250000D03*
D13*
X124319000Y-102727000D03*
G36*
G01*
X120175000Y-103650000D02*
X120175000Y-101650000D01*
G75*
G02*
X120225000Y-101600000I50000J0D01*
G01*
X121775000Y-101600000D01*
G75*
G02*
X121825000Y-101650000I0J-50000D01*
G01*
X121825000Y-103650000D01*
G75*
G02*
X121775000Y-103700000I-50000J0D01*
G01*
X120225000Y-103700000D01*
G75*
G02*
X120175000Y-103650000I0J50000D01*
G01*
G37*
G36*
G01*
X115175000Y-103650000D02*
X115175000Y-101650000D01*
G75*
G02*
X115225000Y-101600000I50000J0D01*
G01*
X116775000Y-101600000D01*
G75*
G02*
X116825000Y-101650000I0J-50000D01*
G01*
X116825000Y-103650000D01*
G75*
G02*
X116775000Y-103700000I-50000J0D01*
G01*
X115225000Y-103700000D01*
G75*
G02*
X115175000Y-103650000I0J50000D01*
G01*
G37*
G36*
G01*
X111100000Y-95000000D02*
X111100000Y-93000000D01*
G75*
G02*
X111150000Y-92950000I50000J0D01*
G01*
X113150000Y-92950000D01*
G75*
G02*
X113200000Y-93000000I0J-50000D01*
G01*
X113200000Y-95000000D01*
G75*
G02*
X113150000Y-95050000I-50000J0D01*
G01*
X111150000Y-95050000D01*
G75*
G02*
X111100000Y-95000000I0J50000D01*
G01*
G37*
G36*
G01*
X111100000Y-107000000D02*
X111100000Y-105000000D01*
G75*
G02*
X111150000Y-104950000I50000J0D01*
G01*
X113150000Y-104950000D01*
G75*
G02*
X113200000Y-105000000I0J-50000D01*
G01*
X113200000Y-107000000D01*
G75*
G02*
X113150000Y-107050000I-50000J0D01*
G01*
X111150000Y-107050000D01*
G75*
G02*
X111100000Y-107000000I0J50000D01*
G01*
G37*
G36*
G01*
X123800000Y-95000000D02*
X123800000Y-93000000D01*
G75*
G02*
X123850000Y-92950000I50000J0D01*
G01*
X125850000Y-92950000D01*
G75*
G02*
X125900000Y-93000000I0J-50000D01*
G01*
X125900000Y-95000000D01*
G75*
G02*
X125850000Y-95050000I-50000J0D01*
G01*
X123850000Y-95050000D01*
G75*
G02*
X123800000Y-95000000I0J50000D01*
G01*
G37*
G36*
G01*
X123800000Y-107000000D02*
X123800000Y-105000000D01*
G75*
G02*
X123850000Y-104950000I50000J0D01*
G01*
X125850000Y-104950000D01*
G75*
G02*
X125900000Y-105000000I0J-50000D01*
G01*
X125900000Y-107000000D01*
G75*
G02*
X125850000Y-107050000I-50000J0D01*
G01*
X123850000Y-107050000D01*
G75*
G02*
X123800000Y-107000000I0J50000D01*
G01*
G37*
G36*
G01*
X189850000Y-40287500D02*
X189850000Y-39087500D01*
G75*
G02*
X189900000Y-39037500I50000J0D01*
G01*
X190800000Y-39037500D01*
G75*
G02*
X190850000Y-39087500I0J-50000D01*
G01*
X190850000Y-40287500D01*
G75*
G02*
X190800000Y-40337500I-50000J0D01*
G01*
X189900000Y-40337500D01*
G75*
G02*
X189850000Y-40287500I0J50000D01*
G01*
G37*
G36*
G01*
X193150000Y-40287500D02*
X193150000Y-39087500D01*
G75*
G02*
X193200000Y-39037500I50000J0D01*
G01*
X194100000Y-39037500D01*
G75*
G02*
X194150000Y-39087500I0J-50000D01*
G01*
X194150000Y-40287500D01*
G75*
G02*
X194100000Y-40337500I-50000J0D01*
G01*
X193200000Y-40337500D01*
G75*
G02*
X193150000Y-40287500I0J50000D01*
G01*
G37*
G36*
G01*
X171350000Y-74975000D02*
X171350000Y-73775000D01*
G75*
G02*
X171400000Y-73725000I50000J0D01*
G01*
X172300000Y-73725000D01*
G75*
G02*
X172350000Y-73775000I0J-50000D01*
G01*
X172350000Y-74975000D01*
G75*
G02*
X172300000Y-75025000I-50000J0D01*
G01*
X171400000Y-75025000D01*
G75*
G02*
X171350000Y-74975000I0J50000D01*
G01*
G37*
G36*
G01*
X174650000Y-74975000D02*
X174650000Y-73775000D01*
G75*
G02*
X174700000Y-73725000I50000J0D01*
G01*
X175600000Y-73725000D01*
G75*
G02*
X175650000Y-73775000I0J-50000D01*
G01*
X175650000Y-74975000D01*
G75*
G02*
X175600000Y-75025000I-50000J0D01*
G01*
X174700000Y-75025000D01*
G75*
G02*
X174650000Y-74975000I0J50000D01*
G01*
G37*
G36*
G01*
X204043415Y-122292254D02*
X203004185Y-121692254D01*
G75*
G02*
X202985884Y-121623953I25000J43301D01*
G01*
X203435884Y-120844531D01*
G75*
G02*
X203504185Y-120826230I43301J-25000D01*
G01*
X204543415Y-121426230D01*
G75*
G02*
X204561716Y-121494531I-25000J-43301D01*
G01*
X204111716Y-122273953D01*
G75*
G02*
X204043415Y-122292254I-43301J25000D01*
G01*
G37*
G36*
G01*
X205693415Y-119434370D02*
X204654185Y-118834370D01*
G75*
G02*
X204635884Y-118766069I25000J43301D01*
G01*
X205085884Y-117986647D01*
G75*
G02*
X205154185Y-117968346I43301J-25000D01*
G01*
X206193415Y-118568346D01*
G75*
G02*
X206211716Y-118636647I-25000J-43301D01*
G01*
X205761716Y-119416069D01*
G75*
G02*
X205693415Y-119434370I-43301J25000D01*
G01*
G37*
X94200000Y-47250000D03*
D14*
X94219000Y-41727000D03*
X105800000Y-41750000D03*
D13*
X105819000Y-47227000D03*
G36*
G01*
X101675000Y-48150000D02*
X101675000Y-46150000D01*
G75*
G02*
X101725000Y-46100000I50000J0D01*
G01*
X103275000Y-46100000D01*
G75*
G02*
X103325000Y-46150000I0J-50000D01*
G01*
X103325000Y-48150000D01*
G75*
G02*
X103275000Y-48200000I-50000J0D01*
G01*
X101725000Y-48200000D01*
G75*
G02*
X101675000Y-48150000I0J50000D01*
G01*
G37*
G36*
G01*
X96675000Y-48150000D02*
X96675000Y-46150000D01*
G75*
G02*
X96725000Y-46100000I50000J0D01*
G01*
X98275000Y-46100000D01*
G75*
G02*
X98325000Y-46150000I0J-50000D01*
G01*
X98325000Y-48150000D01*
G75*
G02*
X98275000Y-48200000I-50000J0D01*
G01*
X96725000Y-48200000D01*
G75*
G02*
X96675000Y-48150000I0J50000D01*
G01*
G37*
G36*
G01*
X92600000Y-39500000D02*
X92600000Y-37500000D01*
G75*
G02*
X92650000Y-37450000I50000J0D01*
G01*
X94650000Y-37450000D01*
G75*
G02*
X94700000Y-37500000I0J-50000D01*
G01*
X94700000Y-39500000D01*
G75*
G02*
X94650000Y-39550000I-50000J0D01*
G01*
X92650000Y-39550000D01*
G75*
G02*
X92600000Y-39500000I0J50000D01*
G01*
G37*
G36*
G01*
X92600000Y-51500000D02*
X92600000Y-49500000D01*
G75*
G02*
X92650000Y-49450000I50000J0D01*
G01*
X94650000Y-49450000D01*
G75*
G02*
X94700000Y-49500000I0J-50000D01*
G01*
X94700000Y-51500000D01*
G75*
G02*
X94650000Y-51550000I-50000J0D01*
G01*
X92650000Y-51550000D01*
G75*
G02*
X92600000Y-51500000I0J50000D01*
G01*
G37*
G36*
G01*
X105300000Y-39500000D02*
X105300000Y-37500000D01*
G75*
G02*
X105350000Y-37450000I50000J0D01*
G01*
X107350000Y-37450000D01*
G75*
G02*
X107400000Y-37500000I0J-50000D01*
G01*
X107400000Y-39500000D01*
G75*
G02*
X107350000Y-39550000I-50000J0D01*
G01*
X105350000Y-39550000D01*
G75*
G02*
X105300000Y-39500000I0J50000D01*
G01*
G37*
G36*
G01*
X105300000Y-51500000D02*
X105300000Y-49500000D01*
G75*
G02*
X105350000Y-49450000I50000J0D01*
G01*
X107350000Y-49450000D01*
G75*
G02*
X107400000Y-49500000I0J-50000D01*
G01*
X107400000Y-51500000D01*
G75*
G02*
X107350000Y-51550000I-50000J0D01*
G01*
X105350000Y-51550000D01*
G75*
G02*
X105300000Y-51500000I0J50000D01*
G01*
G37*
G36*
G01*
X152850000Y-72662500D02*
X152850000Y-71462500D01*
G75*
G02*
X152900000Y-71412500I50000J0D01*
G01*
X153800000Y-71412500D01*
G75*
G02*
X153850000Y-71462500I0J-50000D01*
G01*
X153850000Y-72662500D01*
G75*
G02*
X153800000Y-72712500I-50000J0D01*
G01*
X152900000Y-72712500D01*
G75*
G02*
X152850000Y-72662500I0J50000D01*
G01*
G37*
G36*
G01*
X156150000Y-72662500D02*
X156150000Y-71462500D01*
G75*
G02*
X156200000Y-71412500I50000J0D01*
G01*
X157100000Y-71412500D01*
G75*
G02*
X157150000Y-71462500I0J-50000D01*
G01*
X157150000Y-72662500D01*
G75*
G02*
X157100000Y-72712500I-50000J0D01*
G01*
X156200000Y-72712500D01*
G75*
G02*
X156150000Y-72662500I0J50000D01*
G01*
G37*
G36*
G01*
X152850000Y-35662500D02*
X152850000Y-34462500D01*
G75*
G02*
X152900000Y-34412500I50000J0D01*
G01*
X153800000Y-34412500D01*
G75*
G02*
X153850000Y-34462500I0J-50000D01*
G01*
X153850000Y-35662500D01*
G75*
G02*
X153800000Y-35712500I-50000J0D01*
G01*
X152900000Y-35712500D01*
G75*
G02*
X152850000Y-35662500I0J50000D01*
G01*
G37*
G36*
G01*
X156150000Y-35662500D02*
X156150000Y-34462500D01*
G75*
G02*
X156200000Y-34412500I50000J0D01*
G01*
X157100000Y-34412500D01*
G75*
G02*
X157150000Y-34462500I0J-50000D01*
G01*
X157150000Y-35662500D01*
G75*
G02*
X157100000Y-35712500I-50000J0D01*
G01*
X156200000Y-35712500D01*
G75*
G02*
X156150000Y-35662500I0J50000D01*
G01*
G37*
X112700000Y-47250000D03*
D14*
X112719000Y-41727000D03*
X124300000Y-41750000D03*
D13*
X124319000Y-47227000D03*
G36*
G01*
X120175000Y-48150000D02*
X120175000Y-46150000D01*
G75*
G02*
X120225000Y-46100000I50000J0D01*
G01*
X121775000Y-46100000D01*
G75*
G02*
X121825000Y-46150000I0J-50000D01*
G01*
X121825000Y-48150000D01*
G75*
G02*
X121775000Y-48200000I-50000J0D01*
G01*
X120225000Y-48200000D01*
G75*
G02*
X120175000Y-48150000I0J50000D01*
G01*
G37*
G36*
G01*
X115175000Y-48150000D02*
X115175000Y-46150000D01*
G75*
G02*
X115225000Y-46100000I50000J0D01*
G01*
X116775000Y-46100000D01*
G75*
G02*
X116825000Y-46150000I0J-50000D01*
G01*
X116825000Y-48150000D01*
G75*
G02*
X116775000Y-48200000I-50000J0D01*
G01*
X115225000Y-48200000D01*
G75*
G02*
X115175000Y-48150000I0J50000D01*
G01*
G37*
G36*
G01*
X111100000Y-39500000D02*
X111100000Y-37500000D01*
G75*
G02*
X111150000Y-37450000I50000J0D01*
G01*
X113150000Y-37450000D01*
G75*
G02*
X113200000Y-37500000I0J-50000D01*
G01*
X113200000Y-39500000D01*
G75*
G02*
X113150000Y-39550000I-50000J0D01*
G01*
X111150000Y-39550000D01*
G75*
G02*
X111100000Y-39500000I0J50000D01*
G01*
G37*
G36*
G01*
X111100000Y-51500000D02*
X111100000Y-49500000D01*
G75*
G02*
X111150000Y-49450000I50000J0D01*
G01*
X113150000Y-49450000D01*
G75*
G02*
X113200000Y-49500000I0J-50000D01*
G01*
X113200000Y-51500000D01*
G75*
G02*
X113150000Y-51550000I-50000J0D01*
G01*
X111150000Y-51550000D01*
G75*
G02*
X111100000Y-51500000I0J50000D01*
G01*
G37*
G36*
G01*
X123800000Y-39500000D02*
X123800000Y-37500000D01*
G75*
G02*
X123850000Y-37450000I50000J0D01*
G01*
X125850000Y-37450000D01*
G75*
G02*
X125900000Y-37500000I0J-50000D01*
G01*
X125900000Y-39500000D01*
G75*
G02*
X125850000Y-39550000I-50000J0D01*
G01*
X123850000Y-39550000D01*
G75*
G02*
X123800000Y-39500000I0J50000D01*
G01*
G37*
G36*
G01*
X123800000Y-51500000D02*
X123800000Y-49500000D01*
G75*
G02*
X123850000Y-49450000I50000J0D01*
G01*
X125850000Y-49450000D01*
G75*
G02*
X125900000Y-49500000I0J-50000D01*
G01*
X125900000Y-51500000D01*
G75*
G02*
X125850000Y-51550000I-50000J0D01*
G01*
X123850000Y-51550000D01*
G75*
G02*
X123800000Y-51500000I0J50000D01*
G01*
G37*
G36*
G01*
X97350000Y-79600000D02*
X97350000Y-78400000D01*
G75*
G02*
X97400000Y-78350000I50000J0D01*
G01*
X98300000Y-78350000D01*
G75*
G02*
X98350000Y-78400000I0J-50000D01*
G01*
X98350000Y-79600000D01*
G75*
G02*
X98300000Y-79650000I-50000J0D01*
G01*
X97400000Y-79650000D01*
G75*
G02*
X97350000Y-79600000I0J50000D01*
G01*
G37*
G36*
G01*
X100650000Y-79600000D02*
X100650000Y-78400000D01*
G75*
G02*
X100700000Y-78350000I50000J0D01*
G01*
X101600000Y-78350000D01*
G75*
G02*
X101650000Y-78400000I0J-50000D01*
G01*
X101650000Y-79600000D01*
G75*
G02*
X101600000Y-79650000I-50000J0D01*
G01*
X100700000Y-79650000D01*
G75*
G02*
X100650000Y-79600000I0J50000D01*
G01*
G37*
X186700000Y-81937500D03*
D14*
X186719000Y-76414500D03*
X198300000Y-76437500D03*
D13*
X198319000Y-81914500D03*
G36*
G01*
X194175000Y-82837500D02*
X194175000Y-80837500D01*
G75*
G02*
X194225000Y-80787500I50000J0D01*
G01*
X195775000Y-80787500D01*
G75*
G02*
X195825000Y-80837500I0J-50000D01*
G01*
X195825000Y-82837500D01*
G75*
G02*
X195775000Y-82887500I-50000J0D01*
G01*
X194225000Y-82887500D01*
G75*
G02*
X194175000Y-82837500I0J50000D01*
G01*
G37*
G36*
G01*
X189175000Y-82837500D02*
X189175000Y-80837500D01*
G75*
G02*
X189225000Y-80787500I50000J0D01*
G01*
X190775000Y-80787500D01*
G75*
G02*
X190825000Y-80837500I0J-50000D01*
G01*
X190825000Y-82837500D01*
G75*
G02*
X190775000Y-82887500I-50000J0D01*
G01*
X189225000Y-82887500D01*
G75*
G02*
X189175000Y-82837500I0J50000D01*
G01*
G37*
G36*
G01*
X185100000Y-74187500D02*
X185100000Y-72187500D01*
G75*
G02*
X185150000Y-72137500I50000J0D01*
G01*
X187150000Y-72137500D01*
G75*
G02*
X187200000Y-72187500I0J-50000D01*
G01*
X187200000Y-74187500D01*
G75*
G02*
X187150000Y-74237500I-50000J0D01*
G01*
X185150000Y-74237500D01*
G75*
G02*
X185100000Y-74187500I0J50000D01*
G01*
G37*
G36*
G01*
X185100000Y-86187500D02*
X185100000Y-84187500D01*
G75*
G02*
X185150000Y-84137500I50000J0D01*
G01*
X187150000Y-84137500D01*
G75*
G02*
X187200000Y-84187500I0J-50000D01*
G01*
X187200000Y-86187500D01*
G75*
G02*
X187150000Y-86237500I-50000J0D01*
G01*
X185150000Y-86237500D01*
G75*
G02*
X185100000Y-86187500I0J50000D01*
G01*
G37*
G36*
G01*
X197800000Y-74187500D02*
X197800000Y-72187500D01*
G75*
G02*
X197850000Y-72137500I50000J0D01*
G01*
X199850000Y-72137500D01*
G75*
G02*
X199900000Y-72187500I0J-50000D01*
G01*
X199900000Y-74187500D01*
G75*
G02*
X199850000Y-74237500I-50000J0D01*
G01*
X197850000Y-74237500D01*
G75*
G02*
X197800000Y-74187500I0J50000D01*
G01*
G37*
G36*
G01*
X197800000Y-86187500D02*
X197800000Y-84187500D01*
G75*
G02*
X197850000Y-84137500I50000J0D01*
G01*
X199850000Y-84137500D01*
G75*
G02*
X199900000Y-84187500I0J-50000D01*
G01*
X199900000Y-86187500D01*
G75*
G02*
X199850000Y-86237500I-50000J0D01*
G01*
X197850000Y-86237500D01*
G75*
G02*
X197800000Y-86187500I0J50000D01*
G01*
G37*
X168200000Y-61125000D03*
D14*
X168219000Y-55602000D03*
X179800000Y-55625000D03*
D13*
X179819000Y-61102000D03*
G36*
G01*
X175675000Y-62025000D02*
X175675000Y-60025000D01*
G75*
G02*
X175725000Y-59975000I50000J0D01*
G01*
X177275000Y-59975000D01*
G75*
G02*
X177325000Y-60025000I0J-50000D01*
G01*
X177325000Y-62025000D01*
G75*
G02*
X177275000Y-62075000I-50000J0D01*
G01*
X175725000Y-62075000D01*
G75*
G02*
X175675000Y-62025000I0J50000D01*
G01*
G37*
G36*
G01*
X170675000Y-62025000D02*
X170675000Y-60025000D01*
G75*
G02*
X170725000Y-59975000I50000J0D01*
G01*
X172275000Y-59975000D01*
G75*
G02*
X172325000Y-60025000I0J-50000D01*
G01*
X172325000Y-62025000D01*
G75*
G02*
X172275000Y-62075000I-50000J0D01*
G01*
X170725000Y-62075000D01*
G75*
G02*
X170675000Y-62025000I0J50000D01*
G01*
G37*
G36*
G01*
X166600000Y-53375000D02*
X166600000Y-51375000D01*
G75*
G02*
X166650000Y-51325000I50000J0D01*
G01*
X168650000Y-51325000D01*
G75*
G02*
X168700000Y-51375000I0J-50000D01*
G01*
X168700000Y-53375000D01*
G75*
G02*
X168650000Y-53425000I-50000J0D01*
G01*
X166650000Y-53425000D01*
G75*
G02*
X166600000Y-53375000I0J50000D01*
G01*
G37*
G36*
G01*
X166600000Y-65375000D02*
X166600000Y-63375000D01*
G75*
G02*
X166650000Y-63325000I50000J0D01*
G01*
X168650000Y-63325000D01*
G75*
G02*
X168700000Y-63375000I0J-50000D01*
G01*
X168700000Y-65375000D01*
G75*
G02*
X168650000Y-65425000I-50000J0D01*
G01*
X166650000Y-65425000D01*
G75*
G02*
X166600000Y-65375000I0J50000D01*
G01*
G37*
G36*
G01*
X179300000Y-53375000D02*
X179300000Y-51375000D01*
G75*
G02*
X179350000Y-51325000I50000J0D01*
G01*
X181350000Y-51325000D01*
G75*
G02*
X181400000Y-51375000I0J-50000D01*
G01*
X181400000Y-53375000D01*
G75*
G02*
X181350000Y-53425000I-50000J0D01*
G01*
X179350000Y-53425000D01*
G75*
G02*
X179300000Y-53375000I0J50000D01*
G01*
G37*
G36*
G01*
X179300000Y-65375000D02*
X179300000Y-63375000D01*
G75*
G02*
X179350000Y-63325000I50000J0D01*
G01*
X181350000Y-63325000D01*
G75*
G02*
X181400000Y-63375000I0J-50000D01*
G01*
X181400000Y-65375000D01*
G75*
G02*
X181350000Y-65425000I-50000J0D01*
G01*
X179350000Y-65425000D01*
G75*
G02*
X179300000Y-65375000I0J50000D01*
G01*
G37*
X149700000Y-77312500D03*
D14*
X149719000Y-71789500D03*
X161300000Y-71812500D03*
D13*
X161319000Y-77289500D03*
G36*
G01*
X157175000Y-78212500D02*
X157175000Y-76212500D01*
G75*
G02*
X157225000Y-76162500I50000J0D01*
G01*
X158775000Y-76162500D01*
G75*
G02*
X158825000Y-76212500I0J-50000D01*
G01*
X158825000Y-78212500D01*
G75*
G02*
X158775000Y-78262500I-50000J0D01*
G01*
X157225000Y-78262500D01*
G75*
G02*
X157175000Y-78212500I0J50000D01*
G01*
G37*
G36*
G01*
X152175000Y-78212500D02*
X152175000Y-76212500D01*
G75*
G02*
X152225000Y-76162500I50000J0D01*
G01*
X153775000Y-76162500D01*
G75*
G02*
X153825000Y-76212500I0J-50000D01*
G01*
X153825000Y-78212500D01*
G75*
G02*
X153775000Y-78262500I-50000J0D01*
G01*
X152225000Y-78262500D01*
G75*
G02*
X152175000Y-78212500I0J50000D01*
G01*
G37*
G36*
G01*
X148100000Y-69562500D02*
X148100000Y-67562500D01*
G75*
G02*
X148150000Y-67512500I50000J0D01*
G01*
X150150000Y-67512500D01*
G75*
G02*
X150200000Y-67562500I0J-50000D01*
G01*
X150200000Y-69562500D01*
G75*
G02*
X150150000Y-69612500I-50000J0D01*
G01*
X148150000Y-69612500D01*
G75*
G02*
X148100000Y-69562500I0J50000D01*
G01*
G37*
G36*
G01*
X148100000Y-81562500D02*
X148100000Y-79562500D01*
G75*
G02*
X148150000Y-79512500I50000J0D01*
G01*
X150150000Y-79512500D01*
G75*
G02*
X150200000Y-79562500I0J-50000D01*
G01*
X150200000Y-81562500D01*
G75*
G02*
X150150000Y-81612500I-50000J0D01*
G01*
X148150000Y-81612500D01*
G75*
G02*
X148100000Y-81562500I0J50000D01*
G01*
G37*
G36*
G01*
X160800000Y-69562500D02*
X160800000Y-67562500D01*
G75*
G02*
X160850000Y-67512500I50000J0D01*
G01*
X162850000Y-67512500D01*
G75*
G02*
X162900000Y-67562500I0J-50000D01*
G01*
X162900000Y-69562500D01*
G75*
G02*
X162850000Y-69612500I-50000J0D01*
G01*
X160850000Y-69612500D01*
G75*
G02*
X160800000Y-69562500I0J50000D01*
G01*
G37*
G36*
G01*
X160800000Y-81562500D02*
X160800000Y-79562500D01*
G75*
G02*
X160850000Y-79512500I50000J0D01*
G01*
X162850000Y-79512500D01*
G75*
G02*
X162900000Y-79562500I0J-50000D01*
G01*
X162900000Y-81562500D01*
G75*
G02*
X162850000Y-81612500I-50000J0D01*
G01*
X160850000Y-81612500D01*
G75*
G02*
X160800000Y-81562500I0J50000D01*
G01*
G37*
X186700000Y-44937500D03*
D14*
X186719000Y-39414500D03*
X198300000Y-39437500D03*
D13*
X198319000Y-44914500D03*
G36*
G01*
X194175000Y-45837500D02*
X194175000Y-43837500D01*
G75*
G02*
X194225000Y-43787500I50000J0D01*
G01*
X195775000Y-43787500D01*
G75*
G02*
X195825000Y-43837500I0J-50000D01*
G01*
X195825000Y-45837500D01*
G75*
G02*
X195775000Y-45887500I-50000J0D01*
G01*
X194225000Y-45887500D01*
G75*
G02*
X194175000Y-45837500I0J50000D01*
G01*
G37*
G36*
G01*
X189175000Y-45837500D02*
X189175000Y-43837500D01*
G75*
G02*
X189225000Y-43787500I50000J0D01*
G01*
X190775000Y-43787500D01*
G75*
G02*
X190825000Y-43837500I0J-50000D01*
G01*
X190825000Y-45837500D01*
G75*
G02*
X190775000Y-45887500I-50000J0D01*
G01*
X189225000Y-45887500D01*
G75*
G02*
X189175000Y-45837500I0J50000D01*
G01*
G37*
G36*
G01*
X185100000Y-37187500D02*
X185100000Y-35187500D01*
G75*
G02*
X185150000Y-35137500I50000J0D01*
G01*
X187150000Y-35137500D01*
G75*
G02*
X187200000Y-35187500I0J-50000D01*
G01*
X187200000Y-37187500D01*
G75*
G02*
X187150000Y-37237500I-50000J0D01*
G01*
X185150000Y-37237500D01*
G75*
G02*
X185100000Y-37187500I0J50000D01*
G01*
G37*
G36*
G01*
X185100000Y-49187500D02*
X185100000Y-47187500D01*
G75*
G02*
X185150000Y-47137500I50000J0D01*
G01*
X187150000Y-47137500D01*
G75*
G02*
X187200000Y-47187500I0J-50000D01*
G01*
X187200000Y-49187500D01*
G75*
G02*
X187150000Y-49237500I-50000J0D01*
G01*
X185150000Y-49237500D01*
G75*
G02*
X185100000Y-49187500I0J50000D01*
G01*
G37*
G36*
G01*
X197800000Y-37187500D02*
X197800000Y-35187500D01*
G75*
G02*
X197850000Y-35137500I50000J0D01*
G01*
X199850000Y-35137500D01*
G75*
G02*
X199900000Y-35187500I0J-50000D01*
G01*
X199900000Y-37187500D01*
G75*
G02*
X199850000Y-37237500I-50000J0D01*
G01*
X197850000Y-37237500D01*
G75*
G02*
X197800000Y-37187500I0J50000D01*
G01*
G37*
G36*
G01*
X197800000Y-49187500D02*
X197800000Y-47187500D01*
G75*
G02*
X197850000Y-47137500I50000J0D01*
G01*
X199850000Y-47137500D01*
G75*
G02*
X199900000Y-47187500I0J-50000D01*
G01*
X199900000Y-49187500D01*
G75*
G02*
X199850000Y-49237500I-50000J0D01*
G01*
X197850000Y-49237500D01*
G75*
G02*
X197800000Y-49187500I0J50000D01*
G01*
G37*
X158950000Y-117312500D03*
D14*
X158969000Y-111789500D03*
X170550000Y-111812500D03*
D13*
X170569000Y-117289500D03*
G36*
G01*
X166425000Y-118212500D02*
X166425000Y-116212500D01*
G75*
G02*
X166475000Y-116162500I50000J0D01*
G01*
X168025000Y-116162500D01*
G75*
G02*
X168075000Y-116212500I0J-50000D01*
G01*
X168075000Y-118212500D01*
G75*
G02*
X168025000Y-118262500I-50000J0D01*
G01*
X166475000Y-118262500D01*
G75*
G02*
X166425000Y-118212500I0J50000D01*
G01*
G37*
G36*
G01*
X161425000Y-118212500D02*
X161425000Y-116212500D01*
G75*
G02*
X161475000Y-116162500I50000J0D01*
G01*
X163025000Y-116162500D01*
G75*
G02*
X163075000Y-116212500I0J-50000D01*
G01*
X163075000Y-118212500D01*
G75*
G02*
X163025000Y-118262500I-50000J0D01*
G01*
X161475000Y-118262500D01*
G75*
G02*
X161425000Y-118212500I0J50000D01*
G01*
G37*
G36*
G01*
X157350000Y-109562500D02*
X157350000Y-107562500D01*
G75*
G02*
X157400000Y-107512500I50000J0D01*
G01*
X159400000Y-107512500D01*
G75*
G02*
X159450000Y-107562500I0J-50000D01*
G01*
X159450000Y-109562500D01*
G75*
G02*
X159400000Y-109612500I-50000J0D01*
G01*
X157400000Y-109612500D01*
G75*
G02*
X157350000Y-109562500I0J50000D01*
G01*
G37*
G36*
G01*
X157350000Y-121562500D02*
X157350000Y-119562500D01*
G75*
G02*
X157400000Y-119512500I50000J0D01*
G01*
X159400000Y-119512500D01*
G75*
G02*
X159450000Y-119562500I0J-50000D01*
G01*
X159450000Y-121562500D01*
G75*
G02*
X159400000Y-121612500I-50000J0D01*
G01*
X157400000Y-121612500D01*
G75*
G02*
X157350000Y-121562500I0J50000D01*
G01*
G37*
G36*
G01*
X170050000Y-109562500D02*
X170050000Y-107562500D01*
G75*
G02*
X170100000Y-107512500I50000J0D01*
G01*
X172100000Y-107512500D01*
G75*
G02*
X172150000Y-107562500I0J-50000D01*
G01*
X172150000Y-109562500D01*
G75*
G02*
X172100000Y-109612500I-50000J0D01*
G01*
X170100000Y-109612500D01*
G75*
G02*
X170050000Y-109562500I0J50000D01*
G01*
G37*
G36*
G01*
X170050000Y-121562500D02*
X170050000Y-119562500D01*
G75*
G02*
X170100000Y-119512500I50000J0D01*
G01*
X172100000Y-119512500D01*
G75*
G02*
X172150000Y-119562500I0J-50000D01*
G01*
X172150000Y-121562500D01*
G75*
G02*
X172100000Y-121612500I-50000J0D01*
G01*
X170100000Y-121612500D01*
G75*
G02*
X170050000Y-121562500I0J50000D01*
G01*
G37*
G36*
G01*
X97350000Y-42600000D02*
X97350000Y-41400000D01*
G75*
G02*
X97400000Y-41350000I50000J0D01*
G01*
X98300000Y-41350000D01*
G75*
G02*
X98350000Y-41400000I0J-50000D01*
G01*
X98350000Y-42600000D01*
G75*
G02*
X98300000Y-42650000I-50000J0D01*
G01*
X97400000Y-42650000D01*
G75*
G02*
X97350000Y-42600000I0J50000D01*
G01*
G37*
G36*
G01*
X100650000Y-42600000D02*
X100650000Y-41400000D01*
G75*
G02*
X100700000Y-41350000I50000J0D01*
G01*
X101600000Y-41350000D01*
G75*
G02*
X101650000Y-41400000I0J-50000D01*
G01*
X101650000Y-42600000D01*
G75*
G02*
X101600000Y-42650000I-50000J0D01*
G01*
X100700000Y-42650000D01*
G75*
G02*
X100650000Y-42600000I0J50000D01*
G01*
G37*
G36*
G01*
X171350000Y-37975000D02*
X171350000Y-36775000D01*
G75*
G02*
X171400000Y-36725000I50000J0D01*
G01*
X172300000Y-36725000D01*
G75*
G02*
X172350000Y-36775000I0J-50000D01*
G01*
X172350000Y-37975000D01*
G75*
G02*
X172300000Y-38025000I-50000J0D01*
G01*
X171400000Y-38025000D01*
G75*
G02*
X171350000Y-37975000I0J50000D01*
G01*
G37*
G36*
G01*
X174650000Y-37975000D02*
X174650000Y-36775000D01*
G75*
G02*
X174700000Y-36725000I50000J0D01*
G01*
X175600000Y-36725000D01*
G75*
G02*
X175650000Y-36775000I0J-50000D01*
G01*
X175650000Y-37975000D01*
G75*
G02*
X175600000Y-38025000I-50000J0D01*
G01*
X174700000Y-38025000D01*
G75*
G02*
X174650000Y-37975000I0J50000D01*
G01*
G37*
X131200000Y-79625000D03*
D14*
X131219000Y-74102000D03*
X142800000Y-74125000D03*
D13*
X142819000Y-79602000D03*
G36*
G01*
X138675000Y-80525000D02*
X138675000Y-78525000D01*
G75*
G02*
X138725000Y-78475000I50000J0D01*
G01*
X140275000Y-78475000D01*
G75*
G02*
X140325000Y-78525000I0J-50000D01*
G01*
X140325000Y-80525000D01*
G75*
G02*
X140275000Y-80575000I-50000J0D01*
G01*
X138725000Y-80575000D01*
G75*
G02*
X138675000Y-80525000I0J50000D01*
G01*
G37*
G36*
G01*
X133675000Y-80525000D02*
X133675000Y-78525000D01*
G75*
G02*
X133725000Y-78475000I50000J0D01*
G01*
X135275000Y-78475000D01*
G75*
G02*
X135325000Y-78525000I0J-50000D01*
G01*
X135325000Y-80525000D01*
G75*
G02*
X135275000Y-80575000I-50000J0D01*
G01*
X133725000Y-80575000D01*
G75*
G02*
X133675000Y-80525000I0J50000D01*
G01*
G37*
G36*
G01*
X129600000Y-71875000D02*
X129600000Y-69875000D01*
G75*
G02*
X129650000Y-69825000I50000J0D01*
G01*
X131650000Y-69825000D01*
G75*
G02*
X131700000Y-69875000I0J-50000D01*
G01*
X131700000Y-71875000D01*
G75*
G02*
X131650000Y-71925000I-50000J0D01*
G01*
X129650000Y-71925000D01*
G75*
G02*
X129600000Y-71875000I0J50000D01*
G01*
G37*
G36*
G01*
X129600000Y-83875000D02*
X129600000Y-81875000D01*
G75*
G02*
X129650000Y-81825000I50000J0D01*
G01*
X131650000Y-81825000D01*
G75*
G02*
X131700000Y-81875000I0J-50000D01*
G01*
X131700000Y-83875000D01*
G75*
G02*
X131650000Y-83925000I-50000J0D01*
G01*
X129650000Y-83925000D01*
G75*
G02*
X129600000Y-83875000I0J50000D01*
G01*
G37*
G36*
G01*
X142300000Y-71875000D02*
X142300000Y-69875000D01*
G75*
G02*
X142350000Y-69825000I50000J0D01*
G01*
X144350000Y-69825000D01*
G75*
G02*
X144400000Y-69875000I0J-50000D01*
G01*
X144400000Y-71875000D01*
G75*
G02*
X144350000Y-71925000I-50000J0D01*
G01*
X142350000Y-71925000D01*
G75*
G02*
X142300000Y-71875000I0J50000D01*
G01*
G37*
G36*
G01*
X142300000Y-83875000D02*
X142300000Y-81875000D01*
G75*
G02*
X142350000Y-81825000I50000J0D01*
G01*
X144350000Y-81825000D01*
G75*
G02*
X144400000Y-81875000I0J-50000D01*
G01*
X144400000Y-83875000D01*
G75*
G02*
X144350000Y-83925000I-50000J0D01*
G01*
X142350000Y-83925000D01*
G75*
G02*
X142300000Y-83875000I0J50000D01*
G01*
G37*
G36*
G01*
X97350000Y-98100000D02*
X97350000Y-96900000D01*
G75*
G02*
X97400000Y-96850000I50000J0D01*
G01*
X98300000Y-96850000D01*
G75*
G02*
X98350000Y-96900000I0J-50000D01*
G01*
X98350000Y-98100000D01*
G75*
G02*
X98300000Y-98150000I-50000J0D01*
G01*
X97400000Y-98150000D01*
G75*
G02*
X97350000Y-98100000I0J50000D01*
G01*
G37*
G36*
G01*
X100650000Y-98100000D02*
X100650000Y-96900000D01*
G75*
G02*
X100700000Y-96850000I50000J0D01*
G01*
X101600000Y-96850000D01*
G75*
G02*
X101650000Y-96900000I0J-50000D01*
G01*
X101650000Y-98100000D01*
G75*
G02*
X101600000Y-98150000I-50000J0D01*
G01*
X100700000Y-98150000D01*
G75*
G02*
X100650000Y-98100000I0J50000D01*
G01*
G37*
X186700000Y-100437500D03*
D14*
X186719000Y-94914500D03*
X198300000Y-94937500D03*
D13*
X198319000Y-100414500D03*
G36*
G01*
X194175000Y-101337500D02*
X194175000Y-99337500D01*
G75*
G02*
X194225000Y-99287500I50000J0D01*
G01*
X195775000Y-99287500D01*
G75*
G02*
X195825000Y-99337500I0J-50000D01*
G01*
X195825000Y-101337500D01*
G75*
G02*
X195775000Y-101387500I-50000J0D01*
G01*
X194225000Y-101387500D01*
G75*
G02*
X194175000Y-101337500I0J50000D01*
G01*
G37*
G36*
G01*
X189175000Y-101337500D02*
X189175000Y-99337500D01*
G75*
G02*
X189225000Y-99287500I50000J0D01*
G01*
X190775000Y-99287500D01*
G75*
G02*
X190825000Y-99337500I0J-50000D01*
G01*
X190825000Y-101337500D01*
G75*
G02*
X190775000Y-101387500I-50000J0D01*
G01*
X189225000Y-101387500D01*
G75*
G02*
X189175000Y-101337500I0J50000D01*
G01*
G37*
G36*
G01*
X185100000Y-92687500D02*
X185100000Y-90687500D01*
G75*
G02*
X185150000Y-90637500I50000J0D01*
G01*
X187150000Y-90637500D01*
G75*
G02*
X187200000Y-90687500I0J-50000D01*
G01*
X187200000Y-92687500D01*
G75*
G02*
X187150000Y-92737500I-50000J0D01*
G01*
X185150000Y-92737500D01*
G75*
G02*
X185100000Y-92687500I0J50000D01*
G01*
G37*
G36*
G01*
X185100000Y-104687500D02*
X185100000Y-102687500D01*
G75*
G02*
X185150000Y-102637500I50000J0D01*
G01*
X187150000Y-102637500D01*
G75*
G02*
X187200000Y-102687500I0J-50000D01*
G01*
X187200000Y-104687500D01*
G75*
G02*
X187150000Y-104737500I-50000J0D01*
G01*
X185150000Y-104737500D01*
G75*
G02*
X185100000Y-104687500I0J50000D01*
G01*
G37*
G36*
G01*
X197800000Y-92687500D02*
X197800000Y-90687500D01*
G75*
G02*
X197850000Y-90637500I50000J0D01*
G01*
X199850000Y-90637500D01*
G75*
G02*
X199900000Y-90687500I0J-50000D01*
G01*
X199900000Y-92687500D01*
G75*
G02*
X199850000Y-92737500I-50000J0D01*
G01*
X197850000Y-92737500D01*
G75*
G02*
X197800000Y-92687500I0J50000D01*
G01*
G37*
G36*
G01*
X197800000Y-104687500D02*
X197800000Y-102687500D01*
G75*
G02*
X197850000Y-102637500I50000J0D01*
G01*
X199850000Y-102637500D01*
G75*
G02*
X199900000Y-102687500I0J-50000D01*
G01*
X199900000Y-104687500D01*
G75*
G02*
X199850000Y-104737500I-50000J0D01*
G01*
X197850000Y-104737500D01*
G75*
G02*
X197800000Y-104687500I0J50000D01*
G01*
G37*
X168200000Y-98125000D03*
D14*
X168219000Y-92602000D03*
X179800000Y-92625000D03*
D13*
X179819000Y-98102000D03*
G36*
G01*
X175675000Y-99025000D02*
X175675000Y-97025000D01*
G75*
G02*
X175725000Y-96975000I50000J0D01*
G01*
X177275000Y-96975000D01*
G75*
G02*
X177325000Y-97025000I0J-50000D01*
G01*
X177325000Y-99025000D01*
G75*
G02*
X177275000Y-99075000I-50000J0D01*
G01*
X175725000Y-99075000D01*
G75*
G02*
X175675000Y-99025000I0J50000D01*
G01*
G37*
G36*
G01*
X170675000Y-99025000D02*
X170675000Y-97025000D01*
G75*
G02*
X170725000Y-96975000I50000J0D01*
G01*
X172275000Y-96975000D01*
G75*
G02*
X172325000Y-97025000I0J-50000D01*
G01*
X172325000Y-99025000D01*
G75*
G02*
X172275000Y-99075000I-50000J0D01*
G01*
X170725000Y-99075000D01*
G75*
G02*
X170675000Y-99025000I0J50000D01*
G01*
G37*
G36*
G01*
X166600000Y-90375000D02*
X166600000Y-88375000D01*
G75*
G02*
X166650000Y-88325000I50000J0D01*
G01*
X168650000Y-88325000D01*
G75*
G02*
X168700000Y-88375000I0J-50000D01*
G01*
X168700000Y-90375000D01*
G75*
G02*
X168650000Y-90425000I-50000J0D01*
G01*
X166650000Y-90425000D01*
G75*
G02*
X166600000Y-90375000I0J50000D01*
G01*
G37*
G36*
G01*
X166600000Y-102375000D02*
X166600000Y-100375000D01*
G75*
G02*
X166650000Y-100325000I50000J0D01*
G01*
X168650000Y-100325000D01*
G75*
G02*
X168700000Y-100375000I0J-50000D01*
G01*
X168700000Y-102375000D01*
G75*
G02*
X168650000Y-102425000I-50000J0D01*
G01*
X166650000Y-102425000D01*
G75*
G02*
X166600000Y-102375000I0J50000D01*
G01*
G37*
G36*
G01*
X179300000Y-90375000D02*
X179300000Y-88375000D01*
G75*
G02*
X179350000Y-88325000I50000J0D01*
G01*
X181350000Y-88325000D01*
G75*
G02*
X181400000Y-88375000I0J-50000D01*
G01*
X181400000Y-90375000D01*
G75*
G02*
X181350000Y-90425000I-50000J0D01*
G01*
X179350000Y-90425000D01*
G75*
G02*
X179300000Y-90375000I0J50000D01*
G01*
G37*
G36*
G01*
X179300000Y-102375000D02*
X179300000Y-100375000D01*
G75*
G02*
X179350000Y-100325000I50000J0D01*
G01*
X181350000Y-100325000D01*
G75*
G02*
X181400000Y-100375000I0J-50000D01*
G01*
X181400000Y-102375000D01*
G75*
G02*
X181350000Y-102425000I-50000J0D01*
G01*
X179350000Y-102425000D01*
G75*
G02*
X179300000Y-102375000I0J50000D01*
G01*
G37*
X94200000Y-102750000D03*
D14*
X94219000Y-97227000D03*
X105800000Y-97250000D03*
D13*
X105819000Y-102727000D03*
G36*
G01*
X101675000Y-103650000D02*
X101675000Y-101650000D01*
G75*
G02*
X101725000Y-101600000I50000J0D01*
G01*
X103275000Y-101600000D01*
G75*
G02*
X103325000Y-101650000I0J-50000D01*
G01*
X103325000Y-103650000D01*
G75*
G02*
X103275000Y-103700000I-50000J0D01*
G01*
X101725000Y-103700000D01*
G75*
G02*
X101675000Y-103650000I0J50000D01*
G01*
G37*
G36*
G01*
X96675000Y-103650000D02*
X96675000Y-101650000D01*
G75*
G02*
X96725000Y-101600000I50000J0D01*
G01*
X98275000Y-101600000D01*
G75*
G02*
X98325000Y-101650000I0J-50000D01*
G01*
X98325000Y-103650000D01*
G75*
G02*
X98275000Y-103700000I-50000J0D01*
G01*
X96725000Y-103700000D01*
G75*
G02*
X96675000Y-103650000I0J50000D01*
G01*
G37*
G36*
G01*
X92600000Y-95000000D02*
X92600000Y-93000000D01*
G75*
G02*
X92650000Y-92950000I50000J0D01*
G01*
X94650000Y-92950000D01*
G75*
G02*
X94700000Y-93000000I0J-50000D01*
G01*
X94700000Y-95000000D01*
G75*
G02*
X94650000Y-95050000I-50000J0D01*
G01*
X92650000Y-95050000D01*
G75*
G02*
X92600000Y-95000000I0J50000D01*
G01*
G37*
G36*
G01*
X92600000Y-107000000D02*
X92600000Y-105000000D01*
G75*
G02*
X92650000Y-104950000I50000J0D01*
G01*
X94650000Y-104950000D01*
G75*
G02*
X94700000Y-105000000I0J-50000D01*
G01*
X94700000Y-107000000D01*
G75*
G02*
X94650000Y-107050000I-50000J0D01*
G01*
X92650000Y-107050000D01*
G75*
G02*
X92600000Y-107000000I0J50000D01*
G01*
G37*
G36*
G01*
X105300000Y-95000000D02*
X105300000Y-93000000D01*
G75*
G02*
X105350000Y-92950000I50000J0D01*
G01*
X107350000Y-92950000D01*
G75*
G02*
X107400000Y-93000000I0J-50000D01*
G01*
X107400000Y-95000000D01*
G75*
G02*
X107350000Y-95050000I-50000J0D01*
G01*
X105350000Y-95050000D01*
G75*
G02*
X105300000Y-95000000I0J50000D01*
G01*
G37*
G36*
G01*
X105300000Y-107000000D02*
X105300000Y-105000000D01*
G75*
G02*
X105350000Y-104950000I50000J0D01*
G01*
X107350000Y-104950000D01*
G75*
G02*
X107400000Y-105000000I0J-50000D01*
G01*
X107400000Y-107000000D01*
G75*
G02*
X107350000Y-107050000I-50000J0D01*
G01*
X105350000Y-107050000D01*
G75*
G02*
X105300000Y-107000000I0J50000D01*
G01*
G37*
G36*
G01*
X183182068Y-114791396D02*
X183492651Y-113632285D01*
G75*
G02*
X183553888Y-113596930I48296J-12941D01*
G01*
X184423221Y-113829867D01*
G75*
G02*
X184458576Y-113891104I-12941J-48296D01*
G01*
X184147993Y-115050215D01*
G75*
G02*
X184086756Y-115085570I-48296J12941D01*
G01*
X183217423Y-114852633D01*
G75*
G02*
X183182068Y-114791396I12941J48296D01*
G01*
G37*
G36*
G01*
X186369624Y-115645496D02*
X186680207Y-114486385D01*
G75*
G02*
X186741444Y-114451030I48296J-12941D01*
G01*
X187610777Y-114683967D01*
G75*
G02*
X187646132Y-114745204I-12941J-48296D01*
G01*
X187335549Y-115904315D01*
G75*
G02*
X187274312Y-115939670I-48296J12941D01*
G01*
X186404979Y-115706733D01*
G75*
G02*
X186369624Y-115645496I12941J48296D01*
G01*
G37*
G36*
G01*
X134350000Y-37975000D02*
X134350000Y-36775000D01*
G75*
G02*
X134400000Y-36725000I50000J0D01*
G01*
X135300000Y-36725000D01*
G75*
G02*
X135350000Y-36775000I0J-50000D01*
G01*
X135350000Y-37975000D01*
G75*
G02*
X135300000Y-38025000I-50000J0D01*
G01*
X134400000Y-38025000D01*
G75*
G02*
X134350000Y-37975000I0J50000D01*
G01*
G37*
G36*
G01*
X137650000Y-37975000D02*
X137650000Y-36775000D01*
G75*
G02*
X137700000Y-36725000I50000J0D01*
G01*
X138600000Y-36725000D01*
G75*
G02*
X138650000Y-36775000I0J-50000D01*
G01*
X138650000Y-37975000D01*
G75*
G02*
X138600000Y-38025000I-50000J0D01*
G01*
X137700000Y-38025000D01*
G75*
G02*
X137650000Y-37975000I0J50000D01*
G01*
G37*
G36*
G01*
X134350000Y-56475000D02*
X134350000Y-55275000D01*
G75*
G02*
X134400000Y-55225000I50000J0D01*
G01*
X135300000Y-55225000D01*
G75*
G02*
X135350000Y-55275000I0J-50000D01*
G01*
X135350000Y-56475000D01*
G75*
G02*
X135300000Y-56525000I-50000J0D01*
G01*
X134400000Y-56525000D01*
G75*
G02*
X134350000Y-56475000I0J50000D01*
G01*
G37*
G36*
G01*
X137650000Y-56475000D02*
X137650000Y-55275000D01*
G75*
G02*
X137700000Y-55225000I50000J0D01*
G01*
X138600000Y-55225000D01*
G75*
G02*
X138650000Y-55275000I0J-50000D01*
G01*
X138650000Y-56475000D01*
G75*
G02*
X138600000Y-56525000I-50000J0D01*
G01*
X137700000Y-56525000D01*
G75*
G02*
X137650000Y-56475000I0J50000D01*
G01*
G37*
G36*
G01*
X134350000Y-74975000D02*
X134350000Y-73775000D01*
G75*
G02*
X134400000Y-73725000I50000J0D01*
G01*
X135300000Y-73725000D01*
G75*
G02*
X135350000Y-73775000I0J-50000D01*
G01*
X135350000Y-74975000D01*
G75*
G02*
X135300000Y-75025000I-50000J0D01*
G01*
X134400000Y-75025000D01*
G75*
G02*
X134350000Y-74975000I0J50000D01*
G01*
G37*
G36*
G01*
X137650000Y-74975000D02*
X137650000Y-73775000D01*
G75*
G02*
X137700000Y-73725000I50000J0D01*
G01*
X138600000Y-73725000D01*
G75*
G02*
X138650000Y-73775000I0J-50000D01*
G01*
X138650000Y-74975000D01*
G75*
G02*
X138600000Y-75025000I-50000J0D01*
G01*
X137700000Y-75025000D01*
G75*
G02*
X137650000Y-74975000I0J50000D01*
G01*
G37*
G36*
G01*
X152850000Y-91162500D02*
X152850000Y-89962500D01*
G75*
G02*
X152900000Y-89912500I50000J0D01*
G01*
X153800000Y-89912500D01*
G75*
G02*
X153850000Y-89962500I0J-50000D01*
G01*
X153850000Y-91162500D01*
G75*
G02*
X153800000Y-91212500I-50000J0D01*
G01*
X152900000Y-91212500D01*
G75*
G02*
X152850000Y-91162500I0J50000D01*
G01*
G37*
G36*
G01*
X156150000Y-91162500D02*
X156150000Y-89962500D01*
G75*
G02*
X156200000Y-89912500I50000J0D01*
G01*
X157100000Y-89912500D01*
G75*
G02*
X157150000Y-89962500I0J-50000D01*
G01*
X157150000Y-91162500D01*
G75*
G02*
X157100000Y-91212500I-50000J0D01*
G01*
X156200000Y-91212500D01*
G75*
G02*
X156150000Y-91162500I0J50000D01*
G01*
G37*
G36*
G01*
X115850000Y-98100000D02*
X115850000Y-96900000D01*
G75*
G02*
X115900000Y-96850000I50000J0D01*
G01*
X116800000Y-96850000D01*
G75*
G02*
X116850000Y-96900000I0J-50000D01*
G01*
X116850000Y-98100000D01*
G75*
G02*
X116800000Y-98150000I-50000J0D01*
G01*
X115900000Y-98150000D01*
G75*
G02*
X115850000Y-98100000I0J50000D01*
G01*
G37*
G36*
G01*
X119150000Y-98100000D02*
X119150000Y-96900000D01*
G75*
G02*
X119200000Y-96850000I50000J0D01*
G01*
X120100000Y-96850000D01*
G75*
G02*
X120150000Y-96900000I0J-50000D01*
G01*
X120150000Y-98100000D01*
G75*
G02*
X120100000Y-98150000I-50000J0D01*
G01*
X119200000Y-98150000D01*
G75*
G02*
X119150000Y-98100000I0J50000D01*
G01*
G37*
G36*
G01*
X162100000Y-112662500D02*
X162100000Y-111462500D01*
G75*
G02*
X162150000Y-111412500I50000J0D01*
G01*
X163050000Y-111412500D01*
G75*
G02*
X163100000Y-111462500I0J-50000D01*
G01*
X163100000Y-112662500D01*
G75*
G02*
X163050000Y-112712500I-50000J0D01*
G01*
X162150000Y-112712500D01*
G75*
G02*
X162100000Y-112662500I0J50000D01*
G01*
G37*
G36*
G01*
X165400000Y-112662500D02*
X165400000Y-111462500D01*
G75*
G02*
X165450000Y-111412500I50000J0D01*
G01*
X166350000Y-111412500D01*
G75*
G02*
X166400000Y-111462500I0J-50000D01*
G01*
X166400000Y-112662500D01*
G75*
G02*
X166350000Y-112712500I-50000J0D01*
G01*
X165450000Y-112712500D01*
G75*
G02*
X165400000Y-112662500I0J50000D01*
G01*
G37*
G36*
G01*
X171350000Y-56475000D02*
X171350000Y-55275000D01*
G75*
G02*
X171400000Y-55225000I50000J0D01*
G01*
X172300000Y-55225000D01*
G75*
G02*
X172350000Y-55275000I0J-50000D01*
G01*
X172350000Y-56475000D01*
G75*
G02*
X172300000Y-56525000I-50000J0D01*
G01*
X171400000Y-56525000D01*
G75*
G02*
X171350000Y-56475000I0J50000D01*
G01*
G37*
G36*
G01*
X174650000Y-56475000D02*
X174650000Y-55275000D01*
G75*
G02*
X174700000Y-55225000I50000J0D01*
G01*
X175600000Y-55225000D01*
G75*
G02*
X175650000Y-55275000I0J-50000D01*
G01*
X175650000Y-56475000D01*
G75*
G02*
X175600000Y-56525000I-50000J0D01*
G01*
X174700000Y-56525000D01*
G75*
G02*
X174650000Y-56475000I0J50000D01*
G01*
G37*
G36*
G01*
X189850000Y-77287500D02*
X189850000Y-76087500D01*
G75*
G02*
X189900000Y-76037500I50000J0D01*
G01*
X190800000Y-76037500D01*
G75*
G02*
X190850000Y-76087500I0J-50000D01*
G01*
X190850000Y-77287500D01*
G75*
G02*
X190800000Y-77337500I-50000J0D01*
G01*
X189900000Y-77337500D01*
G75*
G02*
X189850000Y-77287500I0J50000D01*
G01*
G37*
G36*
G01*
X193150000Y-77287500D02*
X193150000Y-76087500D01*
G75*
G02*
X193200000Y-76037500I50000J0D01*
G01*
X194100000Y-76037500D01*
G75*
G02*
X194150000Y-76087500I0J-50000D01*
G01*
X194150000Y-77287500D01*
G75*
G02*
X194100000Y-77337500I-50000J0D01*
G01*
X193200000Y-77337500D01*
G75*
G02*
X193150000Y-77287500I0J50000D01*
G01*
G37*
G36*
G01*
X189850000Y-95787500D02*
X189850000Y-94587500D01*
G75*
G02*
X189900000Y-94537500I50000J0D01*
G01*
X190800000Y-94537500D01*
G75*
G02*
X190850000Y-94587500I0J-50000D01*
G01*
X190850000Y-95787500D01*
G75*
G02*
X190800000Y-95837500I-50000J0D01*
G01*
X189900000Y-95837500D01*
G75*
G02*
X189850000Y-95787500I0J50000D01*
G01*
G37*
G36*
G01*
X193150000Y-95787500D02*
X193150000Y-94587500D01*
G75*
G02*
X193200000Y-94537500I50000J0D01*
G01*
X194100000Y-94537500D01*
G75*
G02*
X194150000Y-94587500I0J-50000D01*
G01*
X194150000Y-95787500D01*
G75*
G02*
X194100000Y-95837500I-50000J0D01*
G01*
X193200000Y-95837500D01*
G75*
G02*
X193150000Y-95787500I0J50000D01*
G01*
G37*
X131200000Y-61125000D03*
D14*
X131219000Y-55602000D03*
X142800000Y-55625000D03*
D13*
X142819000Y-61102000D03*
G36*
G01*
X138675000Y-62025000D02*
X138675000Y-60025000D01*
G75*
G02*
X138725000Y-59975000I50000J0D01*
G01*
X140275000Y-59975000D01*
G75*
G02*
X140325000Y-60025000I0J-50000D01*
G01*
X140325000Y-62025000D01*
G75*
G02*
X140275000Y-62075000I-50000J0D01*
G01*
X138725000Y-62075000D01*
G75*
G02*
X138675000Y-62025000I0J50000D01*
G01*
G37*
G36*
G01*
X133675000Y-62025000D02*
X133675000Y-60025000D01*
G75*
G02*
X133725000Y-59975000I50000J0D01*
G01*
X135275000Y-59975000D01*
G75*
G02*
X135325000Y-60025000I0J-50000D01*
G01*
X135325000Y-62025000D01*
G75*
G02*
X135275000Y-62075000I-50000J0D01*
G01*
X133725000Y-62075000D01*
G75*
G02*
X133675000Y-62025000I0J50000D01*
G01*
G37*
G36*
G01*
X129600000Y-53375000D02*
X129600000Y-51375000D01*
G75*
G02*
X129650000Y-51325000I50000J0D01*
G01*
X131650000Y-51325000D01*
G75*
G02*
X131700000Y-51375000I0J-50000D01*
G01*
X131700000Y-53375000D01*
G75*
G02*
X131650000Y-53425000I-50000J0D01*
G01*
X129650000Y-53425000D01*
G75*
G02*
X129600000Y-53375000I0J50000D01*
G01*
G37*
G36*
G01*
X129600000Y-65375000D02*
X129600000Y-63375000D01*
G75*
G02*
X129650000Y-63325000I50000J0D01*
G01*
X131650000Y-63325000D01*
G75*
G02*
X131700000Y-63375000I0J-50000D01*
G01*
X131700000Y-65375000D01*
G75*
G02*
X131650000Y-65425000I-50000J0D01*
G01*
X129650000Y-65425000D01*
G75*
G02*
X129600000Y-65375000I0J50000D01*
G01*
G37*
G36*
G01*
X142300000Y-53375000D02*
X142300000Y-51375000D01*
G75*
G02*
X142350000Y-51325000I50000J0D01*
G01*
X144350000Y-51325000D01*
G75*
G02*
X144400000Y-51375000I0J-50000D01*
G01*
X144400000Y-53375000D01*
G75*
G02*
X144350000Y-53425000I-50000J0D01*
G01*
X142350000Y-53425000D01*
G75*
G02*
X142300000Y-53375000I0J50000D01*
G01*
G37*
G36*
G01*
X142300000Y-65375000D02*
X142300000Y-63375000D01*
G75*
G02*
X142350000Y-63325000I50000J0D01*
G01*
X144350000Y-63325000D01*
G75*
G02*
X144400000Y-63375000I0J-50000D01*
G01*
X144400000Y-65375000D01*
G75*
G02*
X144350000Y-65425000I-50000J0D01*
G01*
X142350000Y-65425000D01*
G75*
G02*
X142300000Y-65375000I0J50000D01*
G01*
G37*
G36*
G01*
X134350000Y-93475000D02*
X134350000Y-92275000D01*
G75*
G02*
X134400000Y-92225000I50000J0D01*
G01*
X135300000Y-92225000D01*
G75*
G02*
X135350000Y-92275000I0J-50000D01*
G01*
X135350000Y-93475000D01*
G75*
G02*
X135300000Y-93525000I-50000J0D01*
G01*
X134400000Y-93525000D01*
G75*
G02*
X134350000Y-93475000I0J50000D01*
G01*
G37*
G36*
G01*
X137650000Y-93475000D02*
X137650000Y-92275000D01*
G75*
G02*
X137700000Y-92225000I50000J0D01*
G01*
X138600000Y-92225000D01*
G75*
G02*
X138650000Y-92275000I0J-50000D01*
G01*
X138650000Y-93475000D01*
G75*
G02*
X138600000Y-93525000I-50000J0D01*
G01*
X137700000Y-93525000D01*
G75*
G02*
X137650000Y-93475000I0J50000D01*
G01*
G37*
X206495370Y-127345147D03*
D14*
X201721812Y-124567193D03*
X207532230Y-114549253D03*
D13*
X212284951Y-117271298D03*
G36*
G01*
X211012291Y-121321607D02*
X209280241Y-120321607D01*
G75*
G02*
X209261940Y-120253306I25000J43301D01*
G01*
X210036940Y-118910966D01*
G75*
G02*
X210105241Y-118892665I43301J-25000D01*
G01*
X211837291Y-119892665D01*
G75*
G02*
X211855592Y-119960966I-25000J-43301D01*
G01*
X211080592Y-121303306D01*
G75*
G02*
X211012291Y-121321607I-43301J25000D01*
G01*
G37*
G36*
G01*
X208512292Y-125651735D02*
X206780242Y-124651735D01*
G75*
G02*
X206761941Y-124583434I25000J43301D01*
G01*
X207536941Y-123241094D01*
G75*
G02*
X207605242Y-123222793I43301J-25000D01*
G01*
X209337292Y-124222793D01*
G75*
G02*
X209355593Y-124291094I-25000J-43301D01*
G01*
X208580593Y-125633434D01*
G75*
G02*
X208512292Y-125651735I-43301J25000D01*
G01*
G37*
G36*
G01*
X198983673Y-124855787D02*
X197251623Y-123855787D01*
G75*
G02*
X197233322Y-123787486I25000J43301D01*
G01*
X198233322Y-122055436D01*
G75*
G02*
X198301623Y-122037135I43301J-25000D01*
G01*
X200033673Y-123037135D01*
G75*
G02*
X200051974Y-123105436I-25000J-43301D01*
G01*
X199051974Y-124837486D01*
G75*
G02*
X198983673Y-124855787I-43301J25000D01*
G01*
G37*
G36*
G01*
X209375977Y-130855787D02*
X207643927Y-129855787D01*
G75*
G02*
X207625626Y-129787486I25000J43301D01*
G01*
X208625626Y-128055436D01*
G75*
G02*
X208693927Y-128037135I43301J-25000D01*
G01*
X210425977Y-129037135D01*
G75*
G02*
X210444278Y-129105436I-25000J-43301D01*
G01*
X209444278Y-130837486D01*
G75*
G02*
X209375977Y-130855787I-43301J25000D01*
G01*
G37*
G36*
G01*
X205333673Y-113857265D02*
X203601623Y-112857265D01*
G75*
G02*
X203583322Y-112788964I25000J43301D01*
G01*
X204583322Y-111056914D01*
G75*
G02*
X204651623Y-111038613I43301J-25000D01*
G01*
X206383673Y-112038613D01*
G75*
G02*
X206401974Y-112106914I-25000J-43301D01*
G01*
X205401974Y-113838964D01*
G75*
G02*
X205333673Y-113857265I-43301J25000D01*
G01*
G37*
G36*
G01*
X215725977Y-119857265D02*
X213993927Y-118857265D01*
G75*
G02*
X213975626Y-118788964I25000J43301D01*
G01*
X214975626Y-117056914D01*
G75*
G02*
X215043927Y-117038613I43301J-25000D01*
G01*
X216775977Y-118038613D01*
G75*
G02*
X216794278Y-118106914I-25000J-43301D01*
G01*
X215794278Y-119838964D01*
G75*
G02*
X215725977Y-119857265I-43301J25000D01*
G01*
G37*
G36*
G01*
X115850000Y-42600000D02*
X115850000Y-41400000D01*
G75*
G02*
X115900000Y-41350000I50000J0D01*
G01*
X116800000Y-41350000D01*
G75*
G02*
X116850000Y-41400000I0J-50000D01*
G01*
X116850000Y-42600000D01*
G75*
G02*
X116800000Y-42650000I-50000J0D01*
G01*
X115900000Y-42650000D01*
G75*
G02*
X115850000Y-42600000I0J50000D01*
G01*
G37*
G36*
G01*
X119150000Y-42600000D02*
X119150000Y-41400000D01*
G75*
G02*
X119200000Y-41350000I50000J0D01*
G01*
X120100000Y-41350000D01*
G75*
G02*
X120150000Y-41400000I0J-50000D01*
G01*
X120150000Y-42600000D01*
G75*
G02*
X120100000Y-42650000I-50000J0D01*
G01*
X119200000Y-42650000D01*
G75*
G02*
X119150000Y-42600000I0J50000D01*
G01*
G37*
G36*
G01*
X171350000Y-93475000D02*
X171350000Y-92275000D01*
G75*
G02*
X171400000Y-92225000I50000J0D01*
G01*
X172300000Y-92225000D01*
G75*
G02*
X172350000Y-92275000I0J-50000D01*
G01*
X172350000Y-93475000D01*
G75*
G02*
X172300000Y-93525000I-50000J0D01*
G01*
X171400000Y-93525000D01*
G75*
G02*
X171350000Y-93475000I0J50000D01*
G01*
G37*
G36*
G01*
X174650000Y-93475000D02*
X174650000Y-92275000D01*
G75*
G02*
X174700000Y-92225000I50000J0D01*
G01*
X175600000Y-92225000D01*
G75*
G02*
X175650000Y-92275000I0J-50000D01*
G01*
X175650000Y-93475000D01*
G75*
G02*
X175600000Y-93525000I-50000J0D01*
G01*
X174700000Y-93525000D01*
G75*
G02*
X174650000Y-93475000I0J50000D01*
G01*
G37*
X94200000Y-65750000D03*
D14*
X94219000Y-60227000D03*
X105800000Y-60250000D03*
D13*
X105819000Y-65727000D03*
G36*
G01*
X101675000Y-66650000D02*
X101675000Y-64650000D01*
G75*
G02*
X101725000Y-64600000I50000J0D01*
G01*
X103275000Y-64600000D01*
G75*
G02*
X103325000Y-64650000I0J-50000D01*
G01*
X103325000Y-66650000D01*
G75*
G02*
X103275000Y-66700000I-50000J0D01*
G01*
X101725000Y-66700000D01*
G75*
G02*
X101675000Y-66650000I0J50000D01*
G01*
G37*
G36*
G01*
X96675000Y-66650000D02*
X96675000Y-64650000D01*
G75*
G02*
X96725000Y-64600000I50000J0D01*
G01*
X98275000Y-64600000D01*
G75*
G02*
X98325000Y-64650000I0J-50000D01*
G01*
X98325000Y-66650000D01*
G75*
G02*
X98275000Y-66700000I-50000J0D01*
G01*
X96725000Y-66700000D01*
G75*
G02*
X96675000Y-66650000I0J50000D01*
G01*
G37*
G36*
G01*
X92600000Y-58000000D02*
X92600000Y-56000000D01*
G75*
G02*
X92650000Y-55950000I50000J0D01*
G01*
X94650000Y-55950000D01*
G75*
G02*
X94700000Y-56000000I0J-50000D01*
G01*
X94700000Y-58000000D01*
G75*
G02*
X94650000Y-58050000I-50000J0D01*
G01*
X92650000Y-58050000D01*
G75*
G02*
X92600000Y-58000000I0J50000D01*
G01*
G37*
G36*
G01*
X92600000Y-70000000D02*
X92600000Y-68000000D01*
G75*
G02*
X92650000Y-67950000I50000J0D01*
G01*
X94650000Y-67950000D01*
G75*
G02*
X94700000Y-68000000I0J-50000D01*
G01*
X94700000Y-70000000D01*
G75*
G02*
X94650000Y-70050000I-50000J0D01*
G01*
X92650000Y-70050000D01*
G75*
G02*
X92600000Y-70000000I0J50000D01*
G01*
G37*
G36*
G01*
X105300000Y-58000000D02*
X105300000Y-56000000D01*
G75*
G02*
X105350000Y-55950000I50000J0D01*
G01*
X107350000Y-55950000D01*
G75*
G02*
X107400000Y-56000000I0J-50000D01*
G01*
X107400000Y-58000000D01*
G75*
G02*
X107350000Y-58050000I-50000J0D01*
G01*
X105350000Y-58050000D01*
G75*
G02*
X105300000Y-58000000I0J50000D01*
G01*
G37*
G36*
G01*
X105300000Y-70000000D02*
X105300000Y-68000000D01*
G75*
G02*
X105350000Y-67950000I50000J0D01*
G01*
X107350000Y-67950000D01*
G75*
G02*
X107400000Y-68000000I0J-50000D01*
G01*
X107400000Y-70000000D01*
G75*
G02*
X107350000Y-70050000I-50000J0D01*
G01*
X105350000Y-70050000D01*
G75*
G02*
X105300000Y-70000000I0J50000D01*
G01*
G37*
X186700000Y-63437500D03*
D14*
X186719000Y-57914500D03*
X198300000Y-57937500D03*
D13*
X198319000Y-63414500D03*
G36*
G01*
X194175000Y-64337500D02*
X194175000Y-62337500D01*
G75*
G02*
X194225000Y-62287500I50000J0D01*
G01*
X195775000Y-62287500D01*
G75*
G02*
X195825000Y-62337500I0J-50000D01*
G01*
X195825000Y-64337500D01*
G75*
G02*
X195775000Y-64387500I-50000J0D01*
G01*
X194225000Y-64387500D01*
G75*
G02*
X194175000Y-64337500I0J50000D01*
G01*
G37*
G36*
G01*
X189175000Y-64337500D02*
X189175000Y-62337500D01*
G75*
G02*
X189225000Y-62287500I50000J0D01*
G01*
X190775000Y-62287500D01*
G75*
G02*
X190825000Y-62337500I0J-50000D01*
G01*
X190825000Y-64337500D01*
G75*
G02*
X190775000Y-64387500I-50000J0D01*
G01*
X189225000Y-64387500D01*
G75*
G02*
X189175000Y-64337500I0J50000D01*
G01*
G37*
G36*
G01*
X185100000Y-55687500D02*
X185100000Y-53687500D01*
G75*
G02*
X185150000Y-53637500I50000J0D01*
G01*
X187150000Y-53637500D01*
G75*
G02*
X187200000Y-53687500I0J-50000D01*
G01*
X187200000Y-55687500D01*
G75*
G02*
X187150000Y-55737500I-50000J0D01*
G01*
X185150000Y-55737500D01*
G75*
G02*
X185100000Y-55687500I0J50000D01*
G01*
G37*
G36*
G01*
X185100000Y-67687500D02*
X185100000Y-65687500D01*
G75*
G02*
X185150000Y-65637500I50000J0D01*
G01*
X187150000Y-65637500D01*
G75*
G02*
X187200000Y-65687500I0J-50000D01*
G01*
X187200000Y-67687500D01*
G75*
G02*
X187150000Y-67737500I-50000J0D01*
G01*
X185150000Y-67737500D01*
G75*
G02*
X185100000Y-67687500I0J50000D01*
G01*
G37*
G36*
G01*
X197800000Y-55687500D02*
X197800000Y-53687500D01*
G75*
G02*
X197850000Y-53637500I50000J0D01*
G01*
X199850000Y-53637500D01*
G75*
G02*
X199900000Y-53687500I0J-50000D01*
G01*
X199900000Y-55687500D01*
G75*
G02*
X199850000Y-55737500I-50000J0D01*
G01*
X197850000Y-55737500D01*
G75*
G02*
X197800000Y-55687500I0J50000D01*
G01*
G37*
G36*
G01*
X197800000Y-67687500D02*
X197800000Y-65687500D01*
G75*
G02*
X197850000Y-65637500I50000J0D01*
G01*
X199850000Y-65637500D01*
G75*
G02*
X199900000Y-65687500I0J-50000D01*
G01*
X199900000Y-67687500D01*
G75*
G02*
X199850000Y-67737500I-50000J0D01*
G01*
X197850000Y-67737500D01*
G75*
G02*
X197800000Y-67687500I0J50000D01*
G01*
G37*
X112700000Y-65750000D03*
D14*
X112719000Y-60227000D03*
X124300000Y-60250000D03*
D13*
X124319000Y-65727000D03*
G36*
G01*
X120175000Y-66650000D02*
X120175000Y-64650000D01*
G75*
G02*
X120225000Y-64600000I50000J0D01*
G01*
X121775000Y-64600000D01*
G75*
G02*
X121825000Y-64650000I0J-50000D01*
G01*
X121825000Y-66650000D01*
G75*
G02*
X121775000Y-66700000I-50000J0D01*
G01*
X120225000Y-66700000D01*
G75*
G02*
X120175000Y-66650000I0J50000D01*
G01*
G37*
G36*
G01*
X115175000Y-66650000D02*
X115175000Y-64650000D01*
G75*
G02*
X115225000Y-64600000I50000J0D01*
G01*
X116775000Y-64600000D01*
G75*
G02*
X116825000Y-64650000I0J-50000D01*
G01*
X116825000Y-66650000D01*
G75*
G02*
X116775000Y-66700000I-50000J0D01*
G01*
X115225000Y-66700000D01*
G75*
G02*
X115175000Y-66650000I0J50000D01*
G01*
G37*
G36*
G01*
X111100000Y-58000000D02*
X111100000Y-56000000D01*
G75*
G02*
X111150000Y-55950000I50000J0D01*
G01*
X113150000Y-55950000D01*
G75*
G02*
X113200000Y-56000000I0J-50000D01*
G01*
X113200000Y-58000000D01*
G75*
G02*
X113150000Y-58050000I-50000J0D01*
G01*
X111150000Y-58050000D01*
G75*
G02*
X111100000Y-58000000I0J50000D01*
G01*
G37*
G36*
G01*
X111100000Y-70000000D02*
X111100000Y-68000000D01*
G75*
G02*
X111150000Y-67950000I50000J0D01*
G01*
X113150000Y-67950000D01*
G75*
G02*
X113200000Y-68000000I0J-50000D01*
G01*
X113200000Y-70000000D01*
G75*
G02*
X113150000Y-70050000I-50000J0D01*
G01*
X111150000Y-70050000D01*
G75*
G02*
X111100000Y-70000000I0J50000D01*
G01*
G37*
G36*
G01*
X123800000Y-58000000D02*
X123800000Y-56000000D01*
G75*
G02*
X123850000Y-55950000I50000J0D01*
G01*
X125850000Y-55950000D01*
G75*
G02*
X125900000Y-56000000I0J-50000D01*
G01*
X125900000Y-58000000D01*
G75*
G02*
X125850000Y-58050000I-50000J0D01*
G01*
X123850000Y-58050000D01*
G75*
G02*
X123800000Y-58000000I0J50000D01*
G01*
G37*
G36*
G01*
X123800000Y-70000000D02*
X123800000Y-68000000D01*
G75*
G02*
X123850000Y-67950000I50000J0D01*
G01*
X125850000Y-67950000D01*
G75*
G02*
X125900000Y-68000000I0J-50000D01*
G01*
X125900000Y-70000000D01*
G75*
G02*
X125850000Y-70050000I-50000J0D01*
G01*
X123850000Y-70050000D01*
G75*
G02*
X123800000Y-70000000I0J50000D01*
G01*
G37*
X112700000Y-84250000D03*
D14*
X112719000Y-78727000D03*
X124300000Y-78750000D03*
D13*
X124319000Y-84227000D03*
G36*
G01*
X120175000Y-85150000D02*
X120175000Y-83150000D01*
G75*
G02*
X120225000Y-83100000I50000J0D01*
G01*
X121775000Y-83100000D01*
G75*
G02*
X121825000Y-83150000I0J-50000D01*
G01*
X121825000Y-85150000D01*
G75*
G02*
X121775000Y-85200000I-50000J0D01*
G01*
X120225000Y-85200000D01*
G75*
G02*
X120175000Y-85150000I0J50000D01*
G01*
G37*
G36*
G01*
X115175000Y-85150000D02*
X115175000Y-83150000D01*
G75*
G02*
X115225000Y-83100000I50000J0D01*
G01*
X116775000Y-83100000D01*
G75*
G02*
X116825000Y-83150000I0J-50000D01*
G01*
X116825000Y-85150000D01*
G75*
G02*
X116775000Y-85200000I-50000J0D01*
G01*
X115225000Y-85200000D01*
G75*
G02*
X115175000Y-85150000I0J50000D01*
G01*
G37*
G36*
G01*
X111100000Y-76500000D02*
X111100000Y-74500000D01*
G75*
G02*
X111150000Y-74450000I50000J0D01*
G01*
X113150000Y-74450000D01*
G75*
G02*
X113200000Y-74500000I0J-50000D01*
G01*
X113200000Y-76500000D01*
G75*
G02*
X113150000Y-76550000I-50000J0D01*
G01*
X111150000Y-76550000D01*
G75*
G02*
X111100000Y-76500000I0J50000D01*
G01*
G37*
G36*
G01*
X111100000Y-88500000D02*
X111100000Y-86500000D01*
G75*
G02*
X111150000Y-86450000I50000J0D01*
G01*
X113150000Y-86450000D01*
G75*
G02*
X113200000Y-86500000I0J-50000D01*
G01*
X113200000Y-88500000D01*
G75*
G02*
X113150000Y-88550000I-50000J0D01*
G01*
X111150000Y-88550000D01*
G75*
G02*
X111100000Y-88500000I0J50000D01*
G01*
G37*
G36*
G01*
X123800000Y-76500000D02*
X123800000Y-74500000D01*
G75*
G02*
X123850000Y-74450000I50000J0D01*
G01*
X125850000Y-74450000D01*
G75*
G02*
X125900000Y-74500000I0J-50000D01*
G01*
X125900000Y-76500000D01*
G75*
G02*
X125850000Y-76550000I-50000J0D01*
G01*
X123850000Y-76550000D01*
G75*
G02*
X123800000Y-76500000I0J50000D01*
G01*
G37*
G36*
G01*
X123800000Y-88500000D02*
X123800000Y-86500000D01*
G75*
G02*
X123850000Y-86450000I50000J0D01*
G01*
X125850000Y-86450000D01*
G75*
G02*
X125900000Y-86500000I0J-50000D01*
G01*
X125900000Y-88500000D01*
G75*
G02*
X125850000Y-88550000I-50000J0D01*
G01*
X123850000Y-88550000D01*
G75*
G02*
X123800000Y-88500000I0J50000D01*
G01*
G37*
G36*
G01*
X115850000Y-79600000D02*
X115850000Y-78400000D01*
G75*
G02*
X115900000Y-78350000I50000J0D01*
G01*
X116800000Y-78350000D01*
G75*
G02*
X116850000Y-78400000I0J-50000D01*
G01*
X116850000Y-79600000D01*
G75*
G02*
X116800000Y-79650000I-50000J0D01*
G01*
X115900000Y-79650000D01*
G75*
G02*
X115850000Y-79600000I0J50000D01*
G01*
G37*
G36*
G01*
X119150000Y-79600000D02*
X119150000Y-78400000D01*
G75*
G02*
X119200000Y-78350000I50000J0D01*
G01*
X120100000Y-78350000D01*
G75*
G02*
X120150000Y-78400000I0J-50000D01*
G01*
X120150000Y-79600000D01*
G75*
G02*
X120100000Y-79650000I-50000J0D01*
G01*
X119200000Y-79650000D01*
G75*
G02*
X119150000Y-79600000I0J50000D01*
G01*
G37*
%LPD*%
M02*
