M48
; DRILL file {KiCad 8.0.8+1} date 2025-03-02T13:35:21+0000
; FORMAT={-:-/ absolute / metric / decimal}
; #@! TF.CreationDate,2025-03-02T13:35:21+00:00
; #@! TF.GenerationSoftware,Kicad,Pcbnew,8.0.8+1
; #@! TF.FileFunction,Plated,1,2,PTH
FMAT,2
METRIC
; #@! TA.AperFunction,Plated,PTH,ViaDrill
T1C0.300
; #@! TA.AperFunction,Plated,PTH,ComponentDrill
T2C0.400
; #@! TA.AperFunction,Plated,PTH,ComponentDrill
T3C0.750
; #@! TA.AperFunction,Plated,PTH,ComponentDrill
T4C1.000
%
G90
G05
T1
X96.274Y-85.452
X96.888Y-41.957
X96.898Y-97.479
X97.5Y-48.706
X98.85Y-59.377
X98.855Y-80.104
X98.877Y-65.335
X98.896Y-103.324
X116.242Y-59.392
X116.242Y-80.108
X117.305Y-83.74
X117.337Y-48.256
X117.337Y-66.273
X117.659Y-102.369
X118.309Y-41.957
X118.315Y-97.479
X134.448Y-63.416
X134.5Y-41.011
X134.604Y-36.255
X134.604Y-91.766
X135.098Y-56.977
X135.098Y-73.272
X136.131Y-80.08
X137.066Y-97.734
X151.72Y-78.514
X152.467Y-71.179
X153.0Y-38.393
X154.077Y-60.332
X154.35Y-91.679
X154.53Y-54.696
X155.31Y-35.389
X157.925Y-97.229
X162.25Y-118.804
X164.576Y-112.09
X170.002Y-80.827
X171.5Y-41.011
X172.615Y-62.413
X172.727Y-73.264
X172.727Y-91.765
X172.75Y-36.27
X172.916Y-54.618
X175.715Y-99.658
X182.932Y-120.857
X184.05Y-115.666
X190.0Y-61.634
X190.211Y-38.563
X191.278Y-45.639
X191.278Y-82.122
X191.398Y-101.15
X191.461Y-94.073
X191.726Y-59.319
X192.338Y-76.533
X196.53Y-70.953
X196.76Y-78.547
X197.24Y-65.01
X202.394Y-84.101
X205.049Y-94.557
X205.525Y-120.857
X208.087Y-94.753
X208.855Y-121.342
X209.075Y-68.375
X209.666Y-95.435
X210.802Y-75.385
X211.27Y-94.151
X213.32Y-93.549
X216.668Y-101.0
X216.708Y-98.803
T2
X208.804Y-59.42
X208.804Y-61.96
X208.804Y-64.5
X208.804Y-67.04
X208.804Y-69.58
X208.804Y-72.12
X208.804Y-74.66
X208.804Y-77.2
X208.804Y-79.74
X208.804Y-82.28
X208.804Y-84.82
X208.804Y-87.36
X215.604Y-59.42
X215.604Y-61.96
X215.604Y-64.5
X215.604Y-67.04
X215.604Y-69.58
X215.604Y-72.12
X215.604Y-74.66
X215.604Y-77.2
X215.604Y-79.74
X215.604Y-82.28
X215.604Y-84.82
X215.604Y-87.36
T3
X209.0Y-98.0
X209.0Y-100.0
T4
X204.584Y-59.42
X204.584Y-61.96
X204.584Y-64.5
X204.584Y-67.04
X204.584Y-69.58
X204.584Y-72.12
X204.584Y-74.66
X204.584Y-77.2
X204.584Y-79.74
X204.584Y-82.28
X204.584Y-84.82
X204.584Y-87.36
X206.817Y-91.2
X209.357Y-91.2
X211.897Y-91.2
X214.437Y-91.2
X216.977Y-91.2
X219.824Y-59.42
X219.824Y-61.96
X219.824Y-64.5
X219.824Y-67.04
X219.824Y-69.58
X219.824Y-72.12
X219.824Y-74.66
X219.824Y-77.2
X219.824Y-79.74
X219.824Y-82.28
X219.824Y-84.82
X219.824Y-87.36
M30
