M48
; DRILL file {KiCad 8.0.8+1} date 2025-03-02T13:35:21+0000
; FORMAT={-:-/ absolute / metric / decimal}
; #@! TF.CreationDate,2025-03-02T13:35:21+00:00
; #@! TF.GenerationSoftware,Kicad,Pcbnew,8.0.8+1
; #@! TF.FileFunction,NonPlated,1,2,NPTH
FMAT,2
METRIC
; #@! TA.AperFunction,NonPlated,NPTH,ComponentDrill
T1C0.750
; #@! TA.AperFunction,NonPlated,NPTH,ComponentDrill
T2C0.900
; #@! TA.AperFunction,NonPlated,NPTH,ComponentDrill
T3C1.000
; #@! TA.AperFunction,NonPlated,NPTH,ComponentDrill
T4C1.200
; #@! TA.AperFunction,NonPlated,NPTH,ComponentDrill
T5C2.200
; #@! TA.AperFunction,NonPlated,NPTH,ComponentDrill
T6C3.450
%
G90
G05
T1
X212.204Y-54.972
X212.204Y-57.722
T2
X219.775Y-98.75
X219.775Y-101.75
T3
X94.2Y-47.25
X94.2Y-47.25
X94.2Y-65.75
X94.2Y-65.75
X94.2Y-84.25
X94.2Y-84.25
X94.2Y-102.75
X94.2Y-102.75
X105.819Y-47.227
X105.819Y-47.227
X105.819Y-65.727
X105.819Y-65.727
X105.819Y-84.227
X105.819Y-84.227
X105.819Y-102.727
X105.819Y-102.727
X112.7Y-47.25
X112.7Y-47.25
X112.7Y-65.75
X112.7Y-65.75
X112.7Y-84.25
X112.7Y-84.25
X112.7Y-102.75
X112.7Y-102.75
X124.319Y-47.227
X124.319Y-47.227
X124.319Y-65.727
X124.319Y-65.727
X124.319Y-84.227
X124.319Y-84.227
X124.319Y-102.727
X124.319Y-102.727
X131.2Y-42.625
X131.2Y-42.625
X131.2Y-61.125
X131.2Y-61.125
X131.2Y-79.625
X131.2Y-79.625
X131.2Y-98.125
X131.2Y-98.125
X142.819Y-42.602
X142.819Y-42.602
X142.819Y-61.102
X142.819Y-61.102
X142.819Y-79.602
X142.819Y-79.602
X142.819Y-98.102
X142.819Y-98.102
X149.7Y-40.312
X149.7Y-40.312
X149.7Y-58.812
X149.7Y-58.812
X149.7Y-77.312
X149.7Y-77.312
X149.7Y-95.812
X149.7Y-95.812
X158.95Y-117.312
X158.95Y-117.312
X161.319Y-40.289
X161.319Y-40.289
X161.319Y-58.789
X161.319Y-58.789
X161.319Y-77.289
X161.319Y-77.289
X161.319Y-95.789
X161.319Y-95.789
X168.2Y-42.625
X168.2Y-42.625
X168.2Y-61.125
X168.2Y-61.125
X168.2Y-79.625
X168.2Y-79.625
X168.2Y-98.125
X168.2Y-98.125
X170.569Y-117.289
X170.569Y-117.289
X178.936Y-118.468
X178.936Y-118.468
X179.819Y-42.602
X179.819Y-42.602
X179.819Y-61.102
X179.819Y-61.102
X179.819Y-79.602
X179.819Y-79.602
X179.819Y-98.102
X179.819Y-98.102
X186.7Y-44.938
X186.7Y-44.938
X186.7Y-63.438
X186.7Y-63.438
X186.7Y-81.938
X186.7Y-81.938
X186.7Y-100.438
X186.7Y-100.438
X190.165Y-121.453
X190.165Y-121.453
X198.319Y-44.914
X198.319Y-44.914
X198.319Y-63.414
X198.319Y-63.414
X198.319Y-81.914
X198.319Y-81.914
X198.319Y-100.414
X198.319Y-100.414
X206.495Y-127.345
X206.495Y-127.345
X212.285Y-117.271
X212.285Y-117.271
T4
X94.219Y-41.727
X94.219Y-41.727
X94.219Y-60.227
X94.219Y-60.227
X94.219Y-78.727
X94.219Y-78.727
X94.219Y-97.227
X94.219Y-97.227
X105.8Y-41.75
X105.8Y-41.75
X105.8Y-60.25
X105.8Y-60.25
X105.8Y-78.75
X105.8Y-78.75
X105.8Y-97.25
X105.8Y-97.25
X112.719Y-41.727
X112.719Y-41.727
X112.719Y-60.227
X112.719Y-60.227
X112.719Y-78.727
X112.719Y-78.727
X112.719Y-97.227
X112.719Y-97.227
X124.3Y-41.75
X124.3Y-41.75
X124.3Y-60.25
X124.3Y-60.25
X124.3Y-78.75
X124.3Y-78.75
X124.3Y-97.25
X124.3Y-97.25
X131.219Y-37.102
X131.219Y-37.102
X131.219Y-55.602
X131.219Y-55.602
X131.219Y-74.102
X131.219Y-74.102
X131.219Y-92.602
X131.219Y-92.602
X142.8Y-37.125
X142.8Y-37.125
X142.8Y-55.625
X142.8Y-55.625
X142.8Y-74.125
X142.8Y-74.125
X142.8Y-92.625
X142.8Y-92.625
X149.719Y-34.789
X149.719Y-34.789
X149.719Y-53.289
X149.719Y-53.289
X149.719Y-71.789
X149.719Y-71.789
X149.719Y-90.289
X149.719Y-90.289
X158.969Y-111.789
X158.969Y-111.789
X161.3Y-34.812
X161.3Y-34.812
X161.3Y-53.312
X161.3Y-53.312
X161.3Y-71.812
X161.3Y-71.812
X161.3Y-90.312
X161.3Y-90.312
X168.219Y-37.102
X168.219Y-37.102
X168.219Y-55.602
X168.219Y-55.602
X168.219Y-74.102
X168.219Y-74.102
X168.219Y-92.602
X168.219Y-92.602
X170.55Y-111.812
X170.55Y-111.812
X179.8Y-37.125
X179.8Y-37.125
X179.8Y-55.625
X179.8Y-55.625
X179.8Y-74.125
X179.8Y-74.125
X179.8Y-92.625
X179.8Y-92.625
X180.384Y-113.138
X180.384Y-113.138
X186.719Y-39.414
X186.719Y-39.414
X186.719Y-57.914
X186.719Y-57.914
X186.719Y-76.414
X186.719Y-76.414
X186.719Y-94.914
X186.719Y-94.914
X191.564Y-116.157
X191.564Y-116.157
X198.3Y-39.438
X198.3Y-39.438
X198.3Y-57.938
X198.3Y-57.938
X198.3Y-76.438
X198.3Y-76.438
X198.3Y-94.938
X198.3Y-94.938
X201.722Y-124.567
X201.722Y-124.567
X207.532Y-114.549
X207.532Y-114.549
T5
X204.927Y-100.463
X218.969Y-108.757
T6
X109.25Y-53.75
X109.25Y-90.75
X151.157Y-107.615
X183.218Y-50.298
X196.725Y-115.007
M30
