%TF.GenerationSoftware,KiCad,Pcbnew,8.0.8+1*%
%TF.CreationDate,2025-03-02T13:34:38+00:00*%
%TF.ProjectId,frontplate,66726f6e-7470-46c6-9174-652e6b696361,0.2*%
%TF.SameCoordinates,Original*%
%TF.FileFunction,Drillmap*%
%TF.FilePolarity,Positive*%
%FSLAX45Y45*%
G04 Gerber Fmt 4.5, Leading zero omitted, Abs format (unit mm)*
G04 Created by KiCad (PCBNEW 8.0.8+1) date 2025-03-02 13:34:38*
%MOMM*%
%LPD*%
G01*
G04 APERTURE LIST*
%ADD10C,0.150000*%
%ADD11C,0.200000*%
%ADD12C,0.220000*%
G04 APERTURE END LIST*
D10*
X9131699Y-10849749D02*
X9131501Y-3622750D01*
X9181500Y-3572749D02*
X12781501Y-3572651D01*
X12831500Y-3522651D02*
X12831500Y-3160250D01*
X12881500Y-3110250D02*
X14631500Y-3110250D01*
X14681500Y-3060250D02*
X14681500Y-2940950D01*
X14731500Y-2890950D02*
X16384300Y-2890950D01*
X16434300Y-2940950D02*
X16434300Y-3060250D01*
X16484300Y-3110250D02*
X18234300Y-3110250D01*
X18284300Y-3160250D02*
X18284300Y-3303304D01*
X18334296Y-3353304D02*
X20084244Y-3353446D01*
X20134240Y-3403506D02*
X20131800Y-5422717D01*
X20131800Y-5422777D02*
X20131800Y-10183594D01*
X20156800Y-10226896D02*
X22082291Y-11338578D01*
X22100761Y-11406586D02*
X20821272Y-13657791D01*
X20752803Y-13676386D02*
X19277748Y-12824763D01*
X19259239Y-12818488D02*
X15625859Y-12342796D01*
X15591861Y-12322556D02*
X14575723Y-10920164D01*
X14535232Y-10899501D02*
X9181701Y-10899748D01*
X9131501Y-3622750D02*
G75*
G02*
X9181500Y-3572751I49999J0D01*
G01*
X12831500Y-3522651D02*
G75*
G02*
X12781501Y-3572650I-50000J1D01*
G01*
X12831500Y-3160250D02*
G75*
G02*
X12881500Y-3110250I50000J0D01*
G01*
X14681500Y-3060250D02*
G75*
G02*
X14631500Y-3110250I-50000J0D01*
G01*
X14681500Y-2940950D02*
G75*
G02*
X14731500Y-2890950I50000J0D01*
G01*
X16384300Y-2890950D02*
G75*
G02*
X16434300Y-2940950I0J-50000D01*
G01*
X16484300Y-3110250D02*
G75*
G02*
X16434300Y-3060250I0J50000D01*
G01*
X18234300Y-3110250D02*
G75*
G02*
X18284300Y-3160250I0J-50000D01*
G01*
X18334296Y-3353304D02*
G75*
G02*
X18284296Y-3303304I4J50004D01*
G01*
X20084244Y-3353446D02*
G75*
G02*
X20134244Y-3403506I-4J-50004D01*
G01*
X20131800Y-5422717D02*
X20131800Y-5422777D01*
X20156800Y-10226896D02*
G75*
G02*
X20131796Y-10183594I25000J43306D01*
G01*
X22082291Y-11338578D02*
G75*
G02*
X22100761Y-11406586I-25001J-43302D01*
G01*
X20821272Y-13657791D02*
G75*
G02*
X20752802Y-13676388I-43472J24711D01*
G01*
X19259239Y-12818488D02*
G75*
G02*
X19277749Y-12824762I-6489J-49582D01*
G01*
X15625859Y-12342796D02*
G75*
G02*
X15591861Y-12322556I6491J49576D01*
G01*
X14535232Y-10899501D02*
G75*
G02*
X14575720Y-10920166I-2J-49999D01*
G01*
X9181701Y-10899748D02*
G75*
G02*
X9131702Y-10849749I-1J49998D01*
G01*
X9310000Y-10690000D02*
X10690000Y-10690000D01*
X10690000Y-10690000D02*
X10690000Y-9310000D01*
X10690000Y-9310000D02*
X9310000Y-9310000D01*
X9310000Y-9310000D02*
X9310000Y-10690000D01*
X9310000Y-8840000D02*
X10690000Y-8840000D01*
X10690000Y-8840000D02*
X10690000Y-7460000D01*
X10690000Y-7460000D02*
X9310000Y-7460000D01*
X9310000Y-7460000D02*
X9310000Y-8840000D01*
X9310000Y-6990000D02*
X10690000Y-6990000D01*
X10690000Y-6990000D02*
X10690000Y-5610000D01*
X10690000Y-5610000D02*
X9310000Y-5610000D01*
X9310000Y-5610000D02*
X9310000Y-6990000D01*
X9310000Y-5140000D02*
X10690000Y-5140000D01*
X10690000Y-5140000D02*
X10690000Y-3760000D01*
X10690000Y-3760000D02*
X9310000Y-3760000D01*
X9310000Y-3760000D02*
X9310000Y-5140000D01*
X11160000Y-10690000D02*
X12540000Y-10690000D01*
X12540000Y-10690000D02*
X12540000Y-9310000D01*
X12540000Y-9310000D02*
X11160000Y-9310000D01*
X11160000Y-9310000D02*
X11160000Y-10690000D01*
X11160000Y-8840000D02*
X12540000Y-8840000D01*
X12540000Y-8840000D02*
X12540000Y-7460000D01*
X12540000Y-7460000D02*
X11160000Y-7460000D01*
X11160000Y-7460000D02*
X11160000Y-8840000D01*
X11160000Y-6990000D02*
X12540000Y-6990000D01*
X12540000Y-6990000D02*
X12540000Y-5610000D01*
X12540000Y-5610000D02*
X11160000Y-5610000D01*
X11160000Y-5610000D02*
X11160000Y-6990000D01*
X11160000Y-5140000D02*
X12540000Y-5140000D01*
X12540000Y-5140000D02*
X12540000Y-3760000D01*
X12540000Y-3760000D02*
X11160000Y-3760000D01*
X11160000Y-3760000D02*
X11160000Y-5140000D01*
X13010000Y-10227500D02*
X14390000Y-10227500D01*
X14390000Y-10227500D02*
X14390000Y-8847500D01*
X14390000Y-8847500D02*
X13010000Y-8847500D01*
X13010000Y-8847500D02*
X13010000Y-10227500D01*
X13010000Y-8377500D02*
X14390000Y-8377500D01*
X14390000Y-8377500D02*
X14390000Y-6997500D01*
X14390000Y-6997500D02*
X13010000Y-6997500D01*
X13010000Y-6997500D02*
X13010000Y-8377500D01*
X13010000Y-6527500D02*
X14390000Y-6527500D01*
X14390000Y-6527500D02*
X14390000Y-5147500D01*
X14390000Y-5147500D02*
X13010000Y-5147500D01*
X13010000Y-5147500D02*
X13010000Y-6527500D01*
X13010000Y-4677500D02*
X14390000Y-4677500D01*
X14390000Y-4677500D02*
X14390000Y-3297500D01*
X14390000Y-3297500D02*
X13010000Y-3297500D01*
X13010000Y-3297500D02*
X13010000Y-4677500D01*
X14860000Y-9996250D02*
X16240000Y-9996250D01*
X16240000Y-9996250D02*
X16240000Y-8616250D01*
X16240000Y-8616250D02*
X14860000Y-8616250D01*
X14860000Y-8616250D02*
X14860000Y-9996250D01*
X14860000Y-8146250D02*
X16240000Y-8146250D01*
X16240000Y-8146250D02*
X16240000Y-6766250D01*
X16240000Y-6766250D02*
X14860000Y-6766250D01*
X14860000Y-6766250D02*
X14860000Y-8146250D01*
X14860000Y-6296250D02*
X16240000Y-6296250D01*
X16240000Y-6296250D02*
X16240000Y-4916250D01*
X16240000Y-4916250D02*
X14860000Y-4916250D01*
X14860000Y-4916250D02*
X14860000Y-6296250D01*
X14860000Y-4446250D02*
X16240000Y-4446250D01*
X16240000Y-4446250D02*
X16240000Y-3066250D01*
X16240000Y-3066250D02*
X14860000Y-3066250D01*
X14860000Y-3066250D02*
X14860000Y-4446250D01*
X16710000Y-10227500D02*
X18090000Y-10227500D01*
X18090000Y-10227500D02*
X18090000Y-8847500D01*
X18090000Y-8847500D02*
X16710000Y-8847500D01*
X16710000Y-8847500D02*
X16710000Y-10227500D01*
X16710000Y-8377500D02*
X18090000Y-8377500D01*
X18090000Y-8377500D02*
X18090000Y-6997500D01*
X18090000Y-6997500D02*
X16710000Y-6997500D01*
X16710000Y-6997500D02*
X16710000Y-8377500D01*
X16710000Y-6527500D02*
X18090000Y-6527500D01*
X18090000Y-6527500D02*
X18090000Y-5147500D01*
X18090000Y-5147500D02*
X16710000Y-5147500D01*
X16710000Y-5147500D02*
X16710000Y-6527500D01*
X16710000Y-4677500D02*
X18090000Y-4677500D01*
X18090000Y-4677500D02*
X18090000Y-3297500D01*
X18090000Y-3297500D02*
X16710000Y-3297500D01*
X16710000Y-3297500D02*
X16710000Y-4677500D01*
X18560000Y-10458750D02*
X19940000Y-10458750D01*
X19940000Y-10458750D02*
X19940000Y-9078750D01*
X19940000Y-9078750D02*
X18560000Y-9078750D01*
X18560000Y-9078750D02*
X18560000Y-10458750D01*
X18560000Y-8608750D02*
X19940000Y-8608750D01*
X19940000Y-8608750D02*
X19940000Y-7228750D01*
X19940000Y-7228750D02*
X18560000Y-7228750D01*
X18560000Y-7228750D02*
X18560000Y-8608750D01*
X18560000Y-6758750D02*
X19940000Y-6758750D01*
X19940000Y-6758750D02*
X19940000Y-5378750D01*
X19940000Y-5378750D02*
X18560000Y-5378750D01*
X18560000Y-5378750D02*
X18560000Y-6758750D01*
X18560000Y-4908750D02*
X19940000Y-4908750D01*
X19940000Y-4908750D02*
X19940000Y-3528750D01*
X19940000Y-3528750D02*
X18560000Y-3528750D01*
X18560000Y-3528750D02*
X18560000Y-4908750D01*
X15785000Y-12146250D02*
X17165000Y-12146250D01*
X17165000Y-12146250D02*
X17165000Y-10766250D01*
X17165000Y-10766250D02*
X15785000Y-10766250D01*
X15785000Y-10766250D02*
X15785000Y-12146250D01*
X17679926Y-12219154D02*
X19012904Y-12576324D01*
X19012904Y-12576324D02*
X19370074Y-11243346D01*
X19370074Y-11243346D02*
X18037096Y-10886176D01*
X18037096Y-10886176D02*
X17679926Y-12219154D01*
X20953942Y-13037282D02*
X21643942Y-11842167D01*
X21643942Y-11842167D02*
X20448827Y-11152167D01*
X20448827Y-11152167D02*
X19758827Y-12347282D01*
X19758827Y-12347282D02*
X20953942Y-13037282D01*
X11035000Y-5375000D02*
G75*
G02*
X10815000Y-5375000I-110000J0D01*
G01*
X10815000Y-5375000D02*
G75*
G02*
X11035000Y-5375000I110000J0D01*
G01*
X11035000Y-9075000D02*
G75*
G02*
X10815000Y-9075000I-110000J0D01*
G01*
X10815000Y-9075000D02*
G75*
G02*
X11035000Y-9075000I110000J0D01*
G01*
X18431800Y-5029850D02*
G75*
G02*
X18211800Y-5029850I-110000J0D01*
G01*
X18211800Y-5029850D02*
G75*
G02*
X18431800Y-5029850I110000J0D01*
G01*
X15225700Y-10761500D02*
G75*
G02*
X15005700Y-10761500I-110000J0D01*
G01*
X15005700Y-10761500D02*
G75*
G02*
X15225700Y-10761500I110000J0D01*
G01*
X19782460Y-11500675D02*
G75*
G02*
X19562460Y-11500675I-110000J0D01*
G01*
X19562460Y-11500675D02*
G75*
G02*
X19782460Y-11500675I110000J0D01*
G01*
D11*
D12*
X10815000Y-5265000D02*
X11035000Y-5485000D01*
X11035000Y-5265000D02*
X10815000Y-5485000D01*
X10815000Y-8965000D02*
X11035000Y-9185000D01*
X11035000Y-8965000D02*
X10815000Y-9185000D01*
X15005700Y-10651500D02*
X15225700Y-10871500D01*
X15225700Y-10651500D02*
X15005700Y-10871500D01*
X18211800Y-4919850D02*
X18431800Y-5139850D01*
X18431800Y-4919850D02*
X18211800Y-5139850D01*
X19562460Y-11390675D02*
X19782460Y-11610675D01*
X19782460Y-11390675D02*
X19562460Y-11610675D01*
D11*
X9384778Y-14002069D02*
X9384778Y-13802069D01*
X9384778Y-13802069D02*
X9432397Y-13802069D01*
X9432397Y-13802069D02*
X9460969Y-13811592D01*
X9460969Y-13811592D02*
X9480016Y-13830640D01*
X9480016Y-13830640D02*
X9489540Y-13849688D01*
X9489540Y-13849688D02*
X9499064Y-13887783D01*
X9499064Y-13887783D02*
X9499064Y-13916354D01*
X9499064Y-13916354D02*
X9489540Y-13954449D01*
X9489540Y-13954449D02*
X9480016Y-13973497D01*
X9480016Y-13973497D02*
X9460969Y-13992545D01*
X9460969Y-13992545D02*
X9432397Y-14002069D01*
X9432397Y-14002069D02*
X9384778Y-14002069D01*
X9584778Y-14002069D02*
X9584778Y-13868735D01*
X9584778Y-13906830D02*
X9594302Y-13887783D01*
X9594302Y-13887783D02*
X9603826Y-13878259D01*
X9603826Y-13878259D02*
X9622873Y-13868735D01*
X9622873Y-13868735D02*
X9641921Y-13868735D01*
X9708588Y-14002069D02*
X9708588Y-13868735D01*
X9708588Y-13802069D02*
X9699064Y-13811592D01*
X9699064Y-13811592D02*
X9708588Y-13821116D01*
X9708588Y-13821116D02*
X9718112Y-13811592D01*
X9718112Y-13811592D02*
X9708588Y-13802069D01*
X9708588Y-13802069D02*
X9708588Y-13821116D01*
X9832397Y-14002069D02*
X9813350Y-13992545D01*
X9813350Y-13992545D02*
X9803826Y-13973497D01*
X9803826Y-13973497D02*
X9803826Y-13802069D01*
X9937159Y-14002069D02*
X9918112Y-13992545D01*
X9918112Y-13992545D02*
X9908588Y-13973497D01*
X9908588Y-13973497D02*
X9908588Y-13802069D01*
X10165731Y-14002069D02*
X10165731Y-13802069D01*
X10165731Y-13802069D02*
X10232397Y-13944926D01*
X10232397Y-13944926D02*
X10299064Y-13802069D01*
X10299064Y-13802069D02*
X10299064Y-14002069D01*
X10480016Y-14002069D02*
X10480016Y-13897307D01*
X10480016Y-13897307D02*
X10470493Y-13878259D01*
X10470493Y-13878259D02*
X10451445Y-13868735D01*
X10451445Y-13868735D02*
X10413350Y-13868735D01*
X10413350Y-13868735D02*
X10394302Y-13878259D01*
X10480016Y-13992545D02*
X10460969Y-14002069D01*
X10460969Y-14002069D02*
X10413350Y-14002069D01*
X10413350Y-14002069D02*
X10394302Y-13992545D01*
X10394302Y-13992545D02*
X10384778Y-13973497D01*
X10384778Y-13973497D02*
X10384778Y-13954449D01*
X10384778Y-13954449D02*
X10394302Y-13935402D01*
X10394302Y-13935402D02*
X10413350Y-13925878D01*
X10413350Y-13925878D02*
X10460969Y-13925878D01*
X10460969Y-13925878D02*
X10480016Y-13916354D01*
X10575254Y-13868735D02*
X10575254Y-14068735D01*
X10575254Y-13878259D02*
X10594302Y-13868735D01*
X10594302Y-13868735D02*
X10632397Y-13868735D01*
X10632397Y-13868735D02*
X10651445Y-13878259D01*
X10651445Y-13878259D02*
X10660969Y-13887783D01*
X10660969Y-13887783D02*
X10670493Y-13906830D01*
X10670493Y-13906830D02*
X10670493Y-13963973D01*
X10670493Y-13963973D02*
X10660969Y-13983021D01*
X10660969Y-13983021D02*
X10651445Y-13992545D01*
X10651445Y-13992545D02*
X10632397Y-14002069D01*
X10632397Y-14002069D02*
X10594302Y-14002069D01*
X10594302Y-14002069D02*
X10575254Y-13992545D01*
X10756207Y-13983021D02*
X10765731Y-13992545D01*
X10765731Y-13992545D02*
X10756207Y-14002069D01*
X10756207Y-14002069D02*
X10746683Y-13992545D01*
X10746683Y-13992545D02*
X10756207Y-13983021D01*
X10756207Y-13983021D02*
X10756207Y-14002069D01*
X10756207Y-13878259D02*
X10765731Y-13887783D01*
X10765731Y-13887783D02*
X10756207Y-13897307D01*
X10756207Y-13897307D02*
X10746683Y-13887783D01*
X10746683Y-13887783D02*
X10756207Y-13878259D01*
X10756207Y-13878259D02*
X10756207Y-13897307D01*
X8924001Y-14230585D02*
X9124001Y-14430585D01*
X9124001Y-14230585D02*
X8924001Y-14430585D01*
X9375254Y-14241116D02*
X9384778Y-14231592D01*
X9384778Y-14231592D02*
X9403826Y-14222069D01*
X9403826Y-14222069D02*
X9451445Y-14222069D01*
X9451445Y-14222069D02*
X9470493Y-14231592D01*
X9470493Y-14231592D02*
X9480016Y-14241116D01*
X9480016Y-14241116D02*
X9489540Y-14260164D01*
X9489540Y-14260164D02*
X9489540Y-14279211D01*
X9489540Y-14279211D02*
X9480016Y-14307783D01*
X9480016Y-14307783D02*
X9365731Y-14422069D01*
X9365731Y-14422069D02*
X9489540Y-14422069D01*
X9575254Y-14403021D02*
X9584778Y-14412545D01*
X9584778Y-14412545D02*
X9575254Y-14422069D01*
X9575254Y-14422069D02*
X9565731Y-14412545D01*
X9565731Y-14412545D02*
X9575254Y-14403021D01*
X9575254Y-14403021D02*
X9575254Y-14422069D01*
X9660969Y-14241116D02*
X9670493Y-14231592D01*
X9670493Y-14231592D02*
X9689540Y-14222069D01*
X9689540Y-14222069D02*
X9737159Y-14222069D01*
X9737159Y-14222069D02*
X9756207Y-14231592D01*
X9756207Y-14231592D02*
X9765731Y-14241116D01*
X9765731Y-14241116D02*
X9775254Y-14260164D01*
X9775254Y-14260164D02*
X9775254Y-14279211D01*
X9775254Y-14279211D02*
X9765731Y-14307783D01*
X9765731Y-14307783D02*
X9651445Y-14422069D01*
X9651445Y-14422069D02*
X9775254Y-14422069D01*
X9899064Y-14222069D02*
X9918112Y-14222069D01*
X9918112Y-14222069D02*
X9937159Y-14231592D01*
X9937159Y-14231592D02*
X9946683Y-14241116D01*
X9946683Y-14241116D02*
X9956207Y-14260164D01*
X9956207Y-14260164D02*
X9965731Y-14298259D01*
X9965731Y-14298259D02*
X9965731Y-14345878D01*
X9965731Y-14345878D02*
X9956207Y-14383973D01*
X9956207Y-14383973D02*
X9946683Y-14403021D01*
X9946683Y-14403021D02*
X9937159Y-14412545D01*
X9937159Y-14412545D02*
X9918112Y-14422069D01*
X9918112Y-14422069D02*
X9899064Y-14422069D01*
X9899064Y-14422069D02*
X9880016Y-14412545D01*
X9880016Y-14412545D02*
X9870493Y-14403021D01*
X9870493Y-14403021D02*
X9860969Y-14383973D01*
X9860969Y-14383973D02*
X9851445Y-14345878D01*
X9851445Y-14345878D02*
X9851445Y-14298259D01*
X9851445Y-14298259D02*
X9860969Y-14260164D01*
X9860969Y-14260164D02*
X9870493Y-14241116D01*
X9870493Y-14241116D02*
X9880016Y-14231592D01*
X9880016Y-14231592D02*
X9899064Y-14222069D01*
X10089540Y-14222069D02*
X10108588Y-14222069D01*
X10108588Y-14222069D02*
X10127635Y-14231592D01*
X10127635Y-14231592D02*
X10137159Y-14241116D01*
X10137159Y-14241116D02*
X10146683Y-14260164D01*
X10146683Y-14260164D02*
X10156207Y-14298259D01*
X10156207Y-14298259D02*
X10156207Y-14345878D01*
X10156207Y-14345878D02*
X10146683Y-14383973D01*
X10146683Y-14383973D02*
X10137159Y-14403021D01*
X10137159Y-14403021D02*
X10127635Y-14412545D01*
X10127635Y-14412545D02*
X10108588Y-14422069D01*
X10108588Y-14422069D02*
X10089540Y-14422069D01*
X10089540Y-14422069D02*
X10070493Y-14412545D01*
X10070493Y-14412545D02*
X10060969Y-14403021D01*
X10060969Y-14403021D02*
X10051445Y-14383973D01*
X10051445Y-14383973D02*
X10041921Y-14345878D01*
X10041921Y-14345878D02*
X10041921Y-14298259D01*
X10041921Y-14298259D02*
X10051445Y-14260164D01*
X10051445Y-14260164D02*
X10060969Y-14241116D01*
X10060969Y-14241116D02*
X10070493Y-14231592D01*
X10070493Y-14231592D02*
X10089540Y-14222069D01*
X10241921Y-14422069D02*
X10241921Y-14288735D01*
X10241921Y-14307783D02*
X10251445Y-14298259D01*
X10251445Y-14298259D02*
X10270493Y-14288735D01*
X10270493Y-14288735D02*
X10299064Y-14288735D01*
X10299064Y-14288735D02*
X10318112Y-14298259D01*
X10318112Y-14298259D02*
X10327635Y-14317307D01*
X10327635Y-14317307D02*
X10327635Y-14422069D01*
X10327635Y-14317307D02*
X10337159Y-14298259D01*
X10337159Y-14298259D02*
X10356207Y-14288735D01*
X10356207Y-14288735D02*
X10384778Y-14288735D01*
X10384778Y-14288735D02*
X10403826Y-14298259D01*
X10403826Y-14298259D02*
X10413350Y-14317307D01*
X10413350Y-14317307D02*
X10413350Y-14422069D01*
X10508588Y-14422069D02*
X10508588Y-14288735D01*
X10508588Y-14307783D02*
X10518112Y-14298259D01*
X10518112Y-14298259D02*
X10537159Y-14288735D01*
X10537159Y-14288735D02*
X10565731Y-14288735D01*
X10565731Y-14288735D02*
X10584778Y-14298259D01*
X10584778Y-14298259D02*
X10594302Y-14317307D01*
X10594302Y-14317307D02*
X10594302Y-14422069D01*
X10594302Y-14317307D02*
X10603826Y-14298259D01*
X10603826Y-14298259D02*
X10622874Y-14288735D01*
X10622874Y-14288735D02*
X10651445Y-14288735D01*
X10651445Y-14288735D02*
X10670493Y-14298259D01*
X10670493Y-14298259D02*
X10680016Y-14317307D01*
X10680016Y-14317307D02*
X10680016Y-14422069D01*
X11070493Y-14212545D02*
X10899064Y-14469688D01*
X11327635Y-14222069D02*
X11346683Y-14222069D01*
X11346683Y-14222069D02*
X11365731Y-14231592D01*
X11365731Y-14231592D02*
X11375255Y-14241116D01*
X11375255Y-14241116D02*
X11384778Y-14260164D01*
X11384778Y-14260164D02*
X11394302Y-14298259D01*
X11394302Y-14298259D02*
X11394302Y-14345878D01*
X11394302Y-14345878D02*
X11384778Y-14383973D01*
X11384778Y-14383973D02*
X11375255Y-14403021D01*
X11375255Y-14403021D02*
X11365731Y-14412545D01*
X11365731Y-14412545D02*
X11346683Y-14422069D01*
X11346683Y-14422069D02*
X11327635Y-14422069D01*
X11327635Y-14422069D02*
X11308588Y-14412545D01*
X11308588Y-14412545D02*
X11299064Y-14403021D01*
X11299064Y-14403021D02*
X11289540Y-14383973D01*
X11289540Y-14383973D02*
X11280016Y-14345878D01*
X11280016Y-14345878D02*
X11280016Y-14298259D01*
X11280016Y-14298259D02*
X11289540Y-14260164D01*
X11289540Y-14260164D02*
X11299064Y-14241116D01*
X11299064Y-14241116D02*
X11308588Y-14231592D01*
X11308588Y-14231592D02*
X11327635Y-14222069D01*
X11480016Y-14403021D02*
X11489540Y-14412545D01*
X11489540Y-14412545D02*
X11480016Y-14422069D01*
X11480016Y-14422069D02*
X11470493Y-14412545D01*
X11470493Y-14412545D02*
X11480016Y-14403021D01*
X11480016Y-14403021D02*
X11480016Y-14422069D01*
X11613350Y-14222069D02*
X11632397Y-14222069D01*
X11632397Y-14222069D02*
X11651445Y-14231592D01*
X11651445Y-14231592D02*
X11660969Y-14241116D01*
X11660969Y-14241116D02*
X11670493Y-14260164D01*
X11670493Y-14260164D02*
X11680016Y-14298259D01*
X11680016Y-14298259D02*
X11680016Y-14345878D01*
X11680016Y-14345878D02*
X11670493Y-14383973D01*
X11670493Y-14383973D02*
X11660969Y-14403021D01*
X11660969Y-14403021D02*
X11651445Y-14412545D01*
X11651445Y-14412545D02*
X11632397Y-14422069D01*
X11632397Y-14422069D02*
X11613350Y-14422069D01*
X11613350Y-14422069D02*
X11594302Y-14412545D01*
X11594302Y-14412545D02*
X11584778Y-14403021D01*
X11584778Y-14403021D02*
X11575255Y-14383973D01*
X11575255Y-14383973D02*
X11565731Y-14345878D01*
X11565731Y-14345878D02*
X11565731Y-14298259D01*
X11565731Y-14298259D02*
X11575255Y-14260164D01*
X11575255Y-14260164D02*
X11584778Y-14241116D01*
X11584778Y-14241116D02*
X11594302Y-14231592D01*
X11594302Y-14231592D02*
X11613350Y-14222069D01*
X11794302Y-14307783D02*
X11775255Y-14298259D01*
X11775255Y-14298259D02*
X11765731Y-14288735D01*
X11765731Y-14288735D02*
X11756207Y-14269688D01*
X11756207Y-14269688D02*
X11756207Y-14260164D01*
X11756207Y-14260164D02*
X11765731Y-14241116D01*
X11765731Y-14241116D02*
X11775255Y-14231592D01*
X11775255Y-14231592D02*
X11794302Y-14222069D01*
X11794302Y-14222069D02*
X11832397Y-14222069D01*
X11832397Y-14222069D02*
X11851445Y-14231592D01*
X11851445Y-14231592D02*
X11860969Y-14241116D01*
X11860969Y-14241116D02*
X11870493Y-14260164D01*
X11870493Y-14260164D02*
X11870493Y-14269688D01*
X11870493Y-14269688D02*
X11860969Y-14288735D01*
X11860969Y-14288735D02*
X11851445Y-14298259D01*
X11851445Y-14298259D02*
X11832397Y-14307783D01*
X11832397Y-14307783D02*
X11794302Y-14307783D01*
X11794302Y-14307783D02*
X11775255Y-14317307D01*
X11775255Y-14317307D02*
X11765731Y-14326830D01*
X11765731Y-14326830D02*
X11756207Y-14345878D01*
X11756207Y-14345878D02*
X11756207Y-14383973D01*
X11756207Y-14383973D02*
X11765731Y-14403021D01*
X11765731Y-14403021D02*
X11775255Y-14412545D01*
X11775255Y-14412545D02*
X11794302Y-14422069D01*
X11794302Y-14422069D02*
X11832397Y-14422069D01*
X11832397Y-14422069D02*
X11851445Y-14412545D01*
X11851445Y-14412545D02*
X11860969Y-14403021D01*
X11860969Y-14403021D02*
X11870493Y-14383973D01*
X11870493Y-14383973D02*
X11870493Y-14345878D01*
X11870493Y-14345878D02*
X11860969Y-14326830D01*
X11860969Y-14326830D02*
X11851445Y-14317307D01*
X11851445Y-14317307D02*
X11832397Y-14307783D01*
X12041921Y-14222069D02*
X12003826Y-14222069D01*
X12003826Y-14222069D02*
X11984778Y-14231592D01*
X11984778Y-14231592D02*
X11975255Y-14241116D01*
X11975255Y-14241116D02*
X11956207Y-14269688D01*
X11956207Y-14269688D02*
X11946683Y-14307783D01*
X11946683Y-14307783D02*
X11946683Y-14383973D01*
X11946683Y-14383973D02*
X11956207Y-14403021D01*
X11956207Y-14403021D02*
X11965731Y-14412545D01*
X11965731Y-14412545D02*
X11984778Y-14422069D01*
X11984778Y-14422069D02*
X12022874Y-14422069D01*
X12022874Y-14422069D02*
X12041921Y-14412545D01*
X12041921Y-14412545D02*
X12051445Y-14403021D01*
X12051445Y-14403021D02*
X12060969Y-14383973D01*
X12060969Y-14383973D02*
X12060969Y-14336354D01*
X12060969Y-14336354D02*
X12051445Y-14317307D01*
X12051445Y-14317307D02*
X12041921Y-14307783D01*
X12041921Y-14307783D02*
X12022874Y-14298259D01*
X12022874Y-14298259D02*
X11984778Y-14298259D01*
X11984778Y-14298259D02*
X11965731Y-14307783D01*
X11965731Y-14307783D02*
X11956207Y-14317307D01*
X11956207Y-14317307D02*
X11946683Y-14336354D01*
X12232397Y-14222069D02*
X12194302Y-14222069D01*
X12194302Y-14222069D02*
X12175255Y-14231592D01*
X12175255Y-14231592D02*
X12165731Y-14241116D01*
X12165731Y-14241116D02*
X12146683Y-14269688D01*
X12146683Y-14269688D02*
X12137159Y-14307783D01*
X12137159Y-14307783D02*
X12137159Y-14383973D01*
X12137159Y-14383973D02*
X12146683Y-14403021D01*
X12146683Y-14403021D02*
X12156207Y-14412545D01*
X12156207Y-14412545D02*
X12175255Y-14422069D01*
X12175255Y-14422069D02*
X12213350Y-14422069D01*
X12213350Y-14422069D02*
X12232397Y-14412545D01*
X12232397Y-14412545D02*
X12241921Y-14403021D01*
X12241921Y-14403021D02*
X12251445Y-14383973D01*
X12251445Y-14383973D02*
X12251445Y-14336354D01*
X12251445Y-14336354D02*
X12241921Y-14317307D01*
X12241921Y-14317307D02*
X12232397Y-14307783D01*
X12232397Y-14307783D02*
X12213350Y-14298259D01*
X12213350Y-14298259D02*
X12175255Y-14298259D01*
X12175255Y-14298259D02*
X12156207Y-14307783D01*
X12156207Y-14307783D02*
X12146683Y-14317307D01*
X12146683Y-14317307D02*
X12137159Y-14336354D01*
X12327636Y-14222069D02*
X12327636Y-14260164D01*
X12403826Y-14222069D02*
X12403826Y-14260164D01*
X12699064Y-14498259D02*
X12689540Y-14488735D01*
X12689540Y-14488735D02*
X12670493Y-14460164D01*
X12670493Y-14460164D02*
X12660969Y-14441116D01*
X12660969Y-14441116D02*
X12651445Y-14412545D01*
X12651445Y-14412545D02*
X12641921Y-14364926D01*
X12641921Y-14364926D02*
X12641921Y-14326830D01*
X12641921Y-14326830D02*
X12651445Y-14279211D01*
X12651445Y-14279211D02*
X12660969Y-14250640D01*
X12660969Y-14250640D02*
X12670493Y-14231592D01*
X12670493Y-14231592D02*
X12689540Y-14203021D01*
X12689540Y-14203021D02*
X12699064Y-14193497D01*
X12870493Y-14222069D02*
X12775255Y-14222069D01*
X12775255Y-14222069D02*
X12765731Y-14317307D01*
X12765731Y-14317307D02*
X12775255Y-14307783D01*
X12775255Y-14307783D02*
X12794302Y-14298259D01*
X12794302Y-14298259D02*
X12841921Y-14298259D01*
X12841921Y-14298259D02*
X12860969Y-14307783D01*
X12860969Y-14307783D02*
X12870493Y-14317307D01*
X12870493Y-14317307D02*
X12880017Y-14336354D01*
X12880017Y-14336354D02*
X12880017Y-14383973D01*
X12880017Y-14383973D02*
X12870493Y-14403021D01*
X12870493Y-14403021D02*
X12860969Y-14412545D01*
X12860969Y-14412545D02*
X12841921Y-14422069D01*
X12841921Y-14422069D02*
X12794302Y-14422069D01*
X12794302Y-14422069D02*
X12775255Y-14412545D01*
X12775255Y-14412545D02*
X12765731Y-14403021D01*
X13118112Y-14422069D02*
X13118112Y-14222069D01*
X13203826Y-14422069D02*
X13203826Y-14317307D01*
X13203826Y-14317307D02*
X13194302Y-14298259D01*
X13194302Y-14298259D02*
X13175255Y-14288735D01*
X13175255Y-14288735D02*
X13146683Y-14288735D01*
X13146683Y-14288735D02*
X13127636Y-14298259D01*
X13127636Y-14298259D02*
X13118112Y-14307783D01*
X13327636Y-14422069D02*
X13308588Y-14412545D01*
X13308588Y-14412545D02*
X13299064Y-14403021D01*
X13299064Y-14403021D02*
X13289540Y-14383973D01*
X13289540Y-14383973D02*
X13289540Y-14326830D01*
X13289540Y-14326830D02*
X13299064Y-14307783D01*
X13299064Y-14307783D02*
X13308588Y-14298259D01*
X13308588Y-14298259D02*
X13327636Y-14288735D01*
X13327636Y-14288735D02*
X13356207Y-14288735D01*
X13356207Y-14288735D02*
X13375255Y-14298259D01*
X13375255Y-14298259D02*
X13384779Y-14307783D01*
X13384779Y-14307783D02*
X13394302Y-14326830D01*
X13394302Y-14326830D02*
X13394302Y-14383973D01*
X13394302Y-14383973D02*
X13384779Y-14403021D01*
X13384779Y-14403021D02*
X13375255Y-14412545D01*
X13375255Y-14412545D02*
X13356207Y-14422069D01*
X13356207Y-14422069D02*
X13327636Y-14422069D01*
X13508588Y-14422069D02*
X13489540Y-14412545D01*
X13489540Y-14412545D02*
X13480017Y-14393497D01*
X13480017Y-14393497D02*
X13480017Y-14222069D01*
X13660969Y-14412545D02*
X13641921Y-14422069D01*
X13641921Y-14422069D02*
X13603826Y-14422069D01*
X13603826Y-14422069D02*
X13584779Y-14412545D01*
X13584779Y-14412545D02*
X13575255Y-14393497D01*
X13575255Y-14393497D02*
X13575255Y-14317307D01*
X13575255Y-14317307D02*
X13584779Y-14298259D01*
X13584779Y-14298259D02*
X13603826Y-14288735D01*
X13603826Y-14288735D02*
X13641921Y-14288735D01*
X13641921Y-14288735D02*
X13660969Y-14298259D01*
X13660969Y-14298259D02*
X13670493Y-14317307D01*
X13670493Y-14317307D02*
X13670493Y-14336354D01*
X13670493Y-14336354D02*
X13575255Y-14355402D01*
X13746683Y-14412545D02*
X13765731Y-14422069D01*
X13765731Y-14422069D02*
X13803826Y-14422069D01*
X13803826Y-14422069D02*
X13822874Y-14412545D01*
X13822874Y-14412545D02*
X13832398Y-14393497D01*
X13832398Y-14393497D02*
X13832398Y-14383973D01*
X13832398Y-14383973D02*
X13822874Y-14364926D01*
X13822874Y-14364926D02*
X13803826Y-14355402D01*
X13803826Y-14355402D02*
X13775255Y-14355402D01*
X13775255Y-14355402D02*
X13756207Y-14345878D01*
X13756207Y-14345878D02*
X13746683Y-14326830D01*
X13746683Y-14326830D02*
X13746683Y-14317307D01*
X13746683Y-14317307D02*
X13756207Y-14298259D01*
X13756207Y-14298259D02*
X13775255Y-14288735D01*
X13775255Y-14288735D02*
X13803826Y-14288735D01*
X13803826Y-14288735D02*
X13822874Y-14298259D01*
X13899064Y-14498259D02*
X13908588Y-14488735D01*
X13908588Y-14488735D02*
X13927636Y-14460164D01*
X13927636Y-14460164D02*
X13937160Y-14441116D01*
X13937160Y-14441116D02*
X13946683Y-14412545D01*
X13946683Y-14412545D02*
X13956207Y-14364926D01*
X13956207Y-14364926D02*
X13956207Y-14326830D01*
X13956207Y-14326830D02*
X13946683Y-14279211D01*
X13946683Y-14279211D02*
X13937160Y-14250640D01*
X13937160Y-14250640D02*
X13927636Y-14231592D01*
X13927636Y-14231592D02*
X13908588Y-14203021D01*
X13908588Y-14203021D02*
X13899064Y-14193497D01*
X14260969Y-14498259D02*
X14251445Y-14488735D01*
X14251445Y-14488735D02*
X14232398Y-14460164D01*
X14232398Y-14460164D02*
X14222874Y-14441116D01*
X14222874Y-14441116D02*
X14213350Y-14412545D01*
X14213350Y-14412545D02*
X14203826Y-14364926D01*
X14203826Y-14364926D02*
X14203826Y-14326830D01*
X14203826Y-14326830D02*
X14213350Y-14279211D01*
X14213350Y-14279211D02*
X14222874Y-14250640D01*
X14222874Y-14250640D02*
X14232398Y-14231592D01*
X14232398Y-14231592D02*
X14251445Y-14203021D01*
X14251445Y-14203021D02*
X14260969Y-14193497D01*
X14337160Y-14288735D02*
X14337160Y-14422069D01*
X14337160Y-14307783D02*
X14346683Y-14298259D01*
X14346683Y-14298259D02*
X14365731Y-14288735D01*
X14365731Y-14288735D02*
X14394302Y-14288735D01*
X14394302Y-14288735D02*
X14413350Y-14298259D01*
X14413350Y-14298259D02*
X14422874Y-14317307D01*
X14422874Y-14317307D02*
X14422874Y-14422069D01*
X14546683Y-14422069D02*
X14527636Y-14412545D01*
X14527636Y-14412545D02*
X14518112Y-14403021D01*
X14518112Y-14403021D02*
X14508588Y-14383973D01*
X14508588Y-14383973D02*
X14508588Y-14326830D01*
X14508588Y-14326830D02*
X14518112Y-14307783D01*
X14518112Y-14307783D02*
X14527636Y-14298259D01*
X14527636Y-14298259D02*
X14546683Y-14288735D01*
X14546683Y-14288735D02*
X14575255Y-14288735D01*
X14575255Y-14288735D02*
X14594302Y-14298259D01*
X14594302Y-14298259D02*
X14603826Y-14307783D01*
X14603826Y-14307783D02*
X14613350Y-14326830D01*
X14613350Y-14326830D02*
X14613350Y-14383973D01*
X14613350Y-14383973D02*
X14603826Y-14403021D01*
X14603826Y-14403021D02*
X14594302Y-14412545D01*
X14594302Y-14412545D02*
X14575255Y-14422069D01*
X14575255Y-14422069D02*
X14546683Y-14422069D01*
X14670493Y-14288735D02*
X14746683Y-14288735D01*
X14699064Y-14222069D02*
X14699064Y-14393497D01*
X14699064Y-14393497D02*
X14708588Y-14412545D01*
X14708588Y-14412545D02*
X14727636Y-14422069D01*
X14727636Y-14422069D02*
X14746683Y-14422069D01*
X14965731Y-14288735D02*
X14965731Y-14488735D01*
X14965731Y-14298259D02*
X14984779Y-14288735D01*
X14984779Y-14288735D02*
X15022874Y-14288735D01*
X15022874Y-14288735D02*
X15041922Y-14298259D01*
X15041922Y-14298259D02*
X15051445Y-14307783D01*
X15051445Y-14307783D02*
X15060969Y-14326830D01*
X15060969Y-14326830D02*
X15060969Y-14383973D01*
X15060969Y-14383973D02*
X15051445Y-14403021D01*
X15051445Y-14403021D02*
X15041922Y-14412545D01*
X15041922Y-14412545D02*
X15022874Y-14422069D01*
X15022874Y-14422069D02*
X14984779Y-14422069D01*
X14984779Y-14422069D02*
X14965731Y-14412545D01*
X15175255Y-14422069D02*
X15156207Y-14412545D01*
X15156207Y-14412545D02*
X15146683Y-14393497D01*
X15146683Y-14393497D02*
X15146683Y-14222069D01*
X15337160Y-14422069D02*
X15337160Y-14317307D01*
X15337160Y-14317307D02*
X15327636Y-14298259D01*
X15327636Y-14298259D02*
X15308588Y-14288735D01*
X15308588Y-14288735D02*
X15270493Y-14288735D01*
X15270493Y-14288735D02*
X15251445Y-14298259D01*
X15337160Y-14412545D02*
X15318112Y-14422069D01*
X15318112Y-14422069D02*
X15270493Y-14422069D01*
X15270493Y-14422069D02*
X15251445Y-14412545D01*
X15251445Y-14412545D02*
X15241922Y-14393497D01*
X15241922Y-14393497D02*
X15241922Y-14374449D01*
X15241922Y-14374449D02*
X15251445Y-14355402D01*
X15251445Y-14355402D02*
X15270493Y-14345878D01*
X15270493Y-14345878D02*
X15318112Y-14345878D01*
X15318112Y-14345878D02*
X15337160Y-14336354D01*
X15403826Y-14288735D02*
X15480017Y-14288735D01*
X15432398Y-14222069D02*
X15432398Y-14393497D01*
X15432398Y-14393497D02*
X15441922Y-14412545D01*
X15441922Y-14412545D02*
X15460969Y-14422069D01*
X15460969Y-14422069D02*
X15480017Y-14422069D01*
X15622874Y-14412545D02*
X15603826Y-14422069D01*
X15603826Y-14422069D02*
X15565731Y-14422069D01*
X15565731Y-14422069D02*
X15546683Y-14412545D01*
X15546683Y-14412545D02*
X15537160Y-14393497D01*
X15537160Y-14393497D02*
X15537160Y-14317307D01*
X15537160Y-14317307D02*
X15546683Y-14298259D01*
X15546683Y-14298259D02*
X15565731Y-14288735D01*
X15565731Y-14288735D02*
X15603826Y-14288735D01*
X15603826Y-14288735D02*
X15622874Y-14298259D01*
X15622874Y-14298259D02*
X15632398Y-14317307D01*
X15632398Y-14317307D02*
X15632398Y-14336354D01*
X15632398Y-14336354D02*
X15537160Y-14355402D01*
X15803826Y-14422069D02*
X15803826Y-14222069D01*
X15803826Y-14412545D02*
X15784779Y-14422069D01*
X15784779Y-14422069D02*
X15746683Y-14422069D01*
X15746683Y-14422069D02*
X15727636Y-14412545D01*
X15727636Y-14412545D02*
X15718112Y-14403021D01*
X15718112Y-14403021D02*
X15708588Y-14383973D01*
X15708588Y-14383973D02*
X15708588Y-14326830D01*
X15708588Y-14326830D02*
X15718112Y-14307783D01*
X15718112Y-14307783D02*
X15727636Y-14298259D01*
X15727636Y-14298259D02*
X15746683Y-14288735D01*
X15746683Y-14288735D02*
X15784779Y-14288735D01*
X15784779Y-14288735D02*
X15803826Y-14298259D01*
X15880017Y-14498259D02*
X15889541Y-14488735D01*
X15889541Y-14488735D02*
X15908588Y-14460164D01*
X15908588Y-14460164D02*
X15918112Y-14441116D01*
X15918112Y-14441116D02*
X15927636Y-14412545D01*
X15927636Y-14412545D02*
X15937160Y-14364926D01*
X15937160Y-14364926D02*
X15937160Y-14326830D01*
X15937160Y-14326830D02*
X15927636Y-14279211D01*
X15927636Y-14279211D02*
X15918112Y-14250640D01*
X15918112Y-14250640D02*
X15908588Y-14231592D01*
X15908588Y-14231592D02*
X15889541Y-14203021D01*
X15889541Y-14203021D02*
X15880017Y-14193497D01*
M02*
