<svg width="130.253mm" height="107.921mm" viewBox="0 0 130.253 107.921" xmlns="http://www.w3.org/2000/svg"><g id="svgGroup" stroke-linecap="round" fill-rule="evenodd" font-size="9pt" stroke="#000" stroke-width="0.25mm" fill="none" style="stroke:#000;stroke-width:0.25mm;fill:none"><path d="M 0.002 79.588 L 0 7.318 A 0.5 0.5 0 0 1 0.5 6.818 L 36.5 6.817 A 0.5 0.5 0 0 0 37 6.317 L 37 2.693 A 0.5 0.5 0 0 1 37.5 2.193 L 55 2.193 A 0.5 0.5 0 0 0 55.5 1.693 L 55.5 0.5 A 0.5 0.5 0 0 1 56 0 L 72.528 0 A 0.5 0.5 0 0 1 73.028 0.5 L 73.028 1.693 A 0.5 0.5 0 0 0 73.528 2.193 L 91.028 2.193 A 0.5 0.5 0 0 1 91.528 2.693 L 91.528 4.124 A 0.5 0.5 0 0 0 92.028 4.624 L 109.527 4.625 A 0.5 0.5 0 0 1 110.027 5.126 L 110.004 24.817 A 0.5 0.5 0 0 0 110.504 25.318 L 129.753 25.318 A 0.5 0.5 0 0 1 130.253 25.818 L 130.253 84.045 A 0.5 0.5 0 0 1 130.186 84.295 L 129.938 84.725 L 116.898 107.668 A 0.5 0.5 0 0 1 116.213 107.854 L 101.462 99.338 A 0.5 0.5 0 0 0 101.277 99.275 L 64.944 94.518 A 0.5 0.5 0 0 1 64.604 94.316 L 54.442 80.292 A 0.5 0.5 0 0 0 54.037 80.086 L 0.502 80.088 A 0.5 0.5 0 0 1 0.002 79.588 Z M 17.935 24.841 m -1.1 0 a 1.1 1.1 0 0 1 2.2 0 a 1.1 1.1 0 0 1 -2.2 0 z M 17.935 61.841 m -1.1 0 a 1.1 1.1 0 0 1 2.2 0 a 1.1 1.1 0 0 1 -2.2 0 z M 91.903 21.389 m -1.1 0 a 1.1 1.1 0 0 1 2.2 0 a 1.1 1.1 0 0 1 -2.2 0 z M 59.842 78.706 m -1.1 0 a 1.1 1.1 0 0 1 2.2 0 a 1.1 1.1 0 0 1 -2.2 0 z M 105.41 86.097 m -1.1 0 a 1.1 1.1 0 0 1 2.2 0 a 1.1 1.1 0 0 1 -2.2 0 z" vector-effect="non-scaling-stroke"/></g></svg>