<svg width="19.22mm" height="58.495mm" viewBox="0 0 19.22 58.495" xmlns="http://www.w3.org/2000/svg"><g id="svgGroup" stroke-linecap="round" fill-rule="evenodd" font-size="9pt" stroke="#000" stroke-width="0.25mm" fill="none" style="stroke:#000;stroke-width:0.25mm;fill:none"><path d="M 0 47.476 L 0 0.5 A 0.5 0.5 0 0 1 0.5 0 L 18.72 0 A 0.5 0.5 0 0 1 19.22 0.5 L 19.22 57.995 A 0.5 0.5 0 0 1 18.47 58.428 L 0.25 47.909 A 0.5 0.5 0 0 1 0 47.476 Z M 2.579 46.236 m -1.1 0 a 1.1 1.1 0 0 1 2.2 0 a 1.1 1.1 0 0 1 -2.2 0 z M 16.621 54.53 m -1.1 0 a 1.1 1.1 0 0 1 2.2 0 a 1.1 1.1 0 0 1 -2.2 0 z" vector-effect="non-scaling-stroke"/></g></svg>