<svg width="129.758mm" height="107.921mm" viewBox="0 0 129.758 107.921" xmlns="http://www.w3.org/2000/svg"><g id="svgGroup" stroke-linecap="round" fill-rule="evenodd" font-size="9pt" stroke="#000" stroke-width="0.25mm" fill="none" style="stroke:#000;stroke-width:0.25mm;fill:none"><path d="M 0.002 79.588 L 0 7.318 A 0.5 0.5 0 0 1 0.5 6.818 L 36.5 6.817 A 0.5 0.5 0 0 0 37 6.317 L 37 2.693 A 0.5 0.5 0 0 1 37.5 2.193 L 55 2.193 A 0.5 0.5 0 0 0 55.5 1.693 L 55.5 0.5 A 0.5 0.5 0 0 1 56 0 L 72.528 0 A 0.5 0.5 0 0 1 73.028 0.5 L 73.028 1.693 A 0.5 0.5 0 0 0 73.528 2.193 L 91.028 2.193 A 0.5 0.5 0 0 1 91.528 2.693 L 91.528 4.124 A 0.5 0.5 0 0 0 92.028 4.624 L 109.527 4.625 A 0.5 0.5 0 0 1 110.027 5.126 L 110.003 25.318 L 110.003 72.926 A 0.5 0.5 0 0 0 110.253 73.359 L 129.508 84.476 A 0.5 0.5 0 0 1 129.693 85.156 L 116.898 107.668 A 0.5 0.5 0 0 1 116.213 107.854 L 101.462 99.338 A 0.5 0.5 0 0 0 101.277 99.275 L 64.944 94.518 A 0.5 0.5 0 0 1 64.604 94.316 L 54.442 80.292 A 0.5 0.5 0 0 0 54.037 80.086 L 0.502 80.088 A 0.5 0.5 0 0 1 0.002 79.588 Z M 118.224 101.463 L 125.124 89.512 L 113.173 82.612 L 106.273 94.563 L 118.224 101.463 Z M 38.785 17.865 L 52.585 17.865 L 52.585 4.065 L 38.785 4.065 L 38.785 17.865 Z M 57.285 34.053 L 71.085 34.053 L 71.085 20.253 L 57.285 20.253 L 57.285 34.053 Z M 75.785 17.865 L 89.585 17.865 L 89.585 4.065 L 75.785 4.065 L 75.785 17.865 Z M 94.285 20.178 L 108.085 20.178 L 108.085 6.378 L 94.285 6.378 L 94.285 20.178 Z M 38.785 73.366 L 52.585 73.366 L 52.585 59.566 L 38.785 59.566 L 38.785 73.366 Z M 38.785 54.866 L 52.585 54.866 L 52.585 41.066 L 38.785 41.066 L 38.785 54.866 Z M 38.785 36.366 L 52.585 36.366 L 52.585 22.566 L 38.785 22.566 L 38.785 36.366 Z M 57.285 71.053 L 71.085 71.053 L 71.085 57.253 L 57.285 57.253 L 57.285 71.053 Z M 57.285 52.553 L 71.085 52.553 L 71.085 38.753 L 57.285 38.753 L 57.285 52.553 Z M 57.285 15.553 L 71.085 15.553 L 71.085 1.753 L 57.285 1.753 L 57.285 15.553 Z M 75.785 73.366 L 89.585 73.366 L 89.585 59.566 L 75.785 59.566 L 75.785 73.366 Z M 75.785 54.866 L 89.585 54.866 L 89.585 41.066 L 75.785 41.066 L 75.785 54.866 Z M 75.785 36.366 L 89.585 36.366 L 89.585 22.566 L 75.785 22.566 L 75.785 36.366 Z M 94.285 75.678 L 108.085 75.678 L 108.085 61.878 L 94.285 61.878 L 94.285 75.678 Z M 94.285 57.178 L 108.085 57.178 L 108.085 43.378 L 94.285 43.378 L 94.285 57.178 Z M 94.285 38.678 L 108.085 38.678 L 108.085 24.878 L 94.285 24.878 L 94.285 38.678 Z M 66.535 92.553 L 80.335 92.553 L 80.335 78.753 L 66.535 78.753 L 66.535 92.553 Z M 1.785 22.49 L 15.585 22.49 L 15.585 8.69 L 1.785 8.69 L 1.785 22.49 Z M 20.285 22.49 L 34.085 22.49 L 34.085 8.69 L 20.285 8.69 L 20.285 22.49 Z M 1.785 77.991 L 15.585 77.991 L 15.585 64.191 L 1.785 64.191 L 1.785 77.991 Z M 1.785 59.491 L 15.585 59.491 L 15.585 45.691 L 1.785 45.691 L 1.785 59.491 Z M 1.785 40.991 L 15.585 40.991 L 15.585 27.191 L 1.785 27.191 L 1.785 40.991 Z M 20.285 77.991 L 34.085 77.991 L 34.085 64.191 L 20.285 64.191 L 20.285 77.991 Z M 20.285 59.491 L 34.085 59.491 L 34.085 45.691 L 20.285 45.691 L 20.285 59.491 Z M 20.285 40.991 L 34.085 40.991 L 34.085 27.191 L 20.285 27.191 L 20.285 40.991 Z M 85.484 93.282 L 98.814 96.854 L 102.386 83.524 L 89.056 79.952 L 85.484 93.282 Z M 17.935 24.841 m -1.1 0 a 1.1 1.1 0 0 1 2.2 0 a 1.1 1.1 0 0 1 -2.2 0 z M 17.935 61.841 m -1.1 0 a 1.1 1.1 0 0 1 2.2 0 a 1.1 1.1 0 0 1 -2.2 0 z M 91.903 21.389 m -1.1 0 a 1.1 1.1 0 0 1 2.2 0 a 1.1 1.1 0 0 1 -2.2 0 z M 59.842 78.706 m -1.1 0 a 1.1 1.1 0 0 1 2.2 0 a 1.1 1.1 0 0 1 -2.2 0 z M 105.41 86.097 m -1.1 0 a 1.1 1.1 0 0 1 2.2 0 a 1.1 1.1 0 0 1 -2.2 0 z" vector-effect="non-scaling-stroke"/></g></svg>