<svg width="133.58mm" height="111.357mm" viewBox="0 0 133.58 111.357" xmlns="http://www.w3.org/2000/svg"><g id="svgGroup" stroke-linecap="round" fill-rule="evenodd" font-size="9pt" stroke="#000" stroke-width="0.25mm" fill="none" style="stroke:#000;stroke-width:0.25mm;fill:none"><path d="M 1.202 81.538 L 1.2 8.268 L 1.2 8.018 L 37.7 8.017 A 0.5 0.5 0 0 0 38.2 7.517 L 38.2 3.393 L 56.2 3.393 A 0.5 0.5 0 0 0 56.7 2.893 L 56.7 1.2 L 74.728 1.2 L 74.728 2.893 A 0.5 0.5 0 0 0 75.228 3.393 L 93.228 3.393 L 93.228 5.324 A 0.5 0.5 0 0 0 93.728 5.824 L 111.728 5.825 L 111.728 6.075 L 111.704 26.017 A 0.5 0.5 0 0 0 112.204 26.518 L 131.953 26.518 L 131.953 85.696 L 131.606 86.297 A 0.5 0.5 0 0 0 131.604 86.3 L 118.192 109.898 L 117.974 109.773 L 102.831 101.03 A 0.5 0.5 0 0 0 102.646 100.967 L 66.041 96.174 L 55.765 81.992 A 0.5 0.5 0 0 0 55.36 81.786 L 1.202 81.788 L 1.202 81.538 Z M 3.852 78.638 L 3.85 11.168 A 0.5 0.5 0 0 1 4.35 10.668 L 40.35 10.667 A 0.5 0.5 0 0 0 40.85 10.167 L 40.85 6.543 A 0.5 0.5 0 0 1 41.35 6.043 L 58.693 6.043 A 0.5 0.5 0 0 0 59.191 5.586 L 59.302 4.307 A 0.5 0.5 0 0 1 59.8 3.85 L 71.628 3.85 A 0.5 0.5 0 0 1 72.127 4.307 L 72.237 5.586 A 0.5 0.5 0 0 0 72.735 6.043 L 90.578 6.043 L 90.578 7.973 A 0.5 0.5 0 0 0 91.078 8.473 L 108.575 8.475 A 0.5 0.5 0 0 1 109.075 8.975 L 109.053 26.765 L 109.051 28.667 A 0.5 0.5 0 0 0 109.551 29.168 L 128.803 29.168 A 0.5 0.5 0 0 1 129.303 29.668 L 129.303 84.986 L 129.302 84.987 L 129.301 84.989 L 117.455 105.832 A 0.5 0.5 0 0 1 116.77 106.018 L 103.612 98.421 L 67.73 93.723 A 0.5 0.5 0 0 1 67.39 93.521 L 57.117 79.342 A 0.5 0.5 0 0 0 56.712 79.135 L 4.352 79.138 A 0.5 0.5 0 0 1 3.852 78.638 Z M 131.143 86.606 A 0.5 0.5 0 0 0 130.958 85.926 L 111.703 74.809 A 0.5 0.5 0 0 1 111.453 74.376 L 111.453 26.768 L 111.477 6.576 A 0.5 0.5 0 0 0 110.977 6.075 L 93.478 6.074 M 133.153 25.818 L 133.153 86.018 L 132.647 86.894 L 118.887 111.104 M 118.731 107.247 L 129.856 87.978 A 2 2 0 0 0 129.124 85.246 L 118.299 78.996 A 2 2 0 0 0 115.567 79.728 L 104.442 98.997 A 2 2 0 0 0 105.174 101.729 L 115.999 107.979 A 2 2 0 0 0 118.731 107.247 Z M 0.002 82.488 L 0.002 81.538 L 0 8.268 L 0 7.318 M 112.983 26.768 A 0.5 0.5 0 0 0 112.483 27.268 L 112.483 74.244 A 0.5 0.5 0 0 0 112.733 74.677 L 130.953 85.196 A 0.5 0.5 0 0 0 131.703 84.763 M 3.385 80.791 L 16.885 80.791 A 2 2 0 0 0 18.885 78.791 L 18.885 66.291 A 2 2 0 0 0 16.885 64.291 L 3.385 64.291 A 2 2 0 0 0 1.385 66.291 L 1.385 78.791 A 2 2 0 0 0 3.385 80.791 Z M 3.385 62.291 L 16.885 62.291 A 2 2 0 0 0 18.885 60.291 L 18.885 47.791 A 2 2 0 0 0 16.885 45.791 L 3.385 45.791 A 2 2 0 0 0 1.385 47.791 L 1.385 60.291 A 2 2 0 0 0 3.385 62.291 Z M 3.385 43.791 L 16.885 43.791 A 2 2 0 0 0 18.885 41.791 L 18.885 29.291 A 2 2 0 0 0 16.885 27.291 L 3.385 27.291 A 2 2 0 0 0 1.385 29.291 L 1.385 41.791 A 2 2 0 0 0 3.385 43.791 Z M 3.385 25.291 L 16.885 25.291 A 2 2 0 0 0 18.885 23.291 L 18.885 10.791 A 2 2 0 0 0 16.885 8.791 L 3.385 8.791 A 2 2 0 0 0 1.385 10.791 L 1.385 23.291 A 2 2 0 0 0 3.385 25.291 Z M 21.885 80.791 L 35.385 80.791 A 2 2 0 0 0 37.385 78.791 L 37.385 66.291 A 2 2 0 0 0 35.385 64.291 L 21.885 64.291 A 2 2 0 0 0 19.885 66.291 L 19.885 78.791 A 2 2 0 0 0 21.885 80.791 Z M 21.885 62.291 L 35.385 62.291 A 2 2 0 0 0 37.385 60.291 L 37.385 47.791 A 2 2 0 0 0 35.385 45.791 L 21.885 45.791 A 2 2 0 0 0 19.885 47.791 L 19.885 60.291 A 2 2 0 0 0 21.885 62.291 Z M 21.885 43.791 L 35.385 43.791 A 2 2 0 0 0 37.385 41.791 L 37.385 29.291 A 2 2 0 0 0 35.385 27.291 L 21.885 27.291 A 2 2 0 0 0 19.885 29.291 L 19.885 41.791 A 2 2 0 0 0 21.885 43.791 Z M 21.885 25.291 L 35.385 25.291 A 2 2 0 0 0 37.385 23.291 L 37.385 10.791 A 2 2 0 0 0 35.385 8.791 L 21.885 8.791 A 2 2 0 0 0 19.885 10.791 L 19.885 23.291 A 2 2 0 0 0 21.885 25.291 Z M 40.385 76.166 L 53.885 76.166 A 2 2 0 0 0 55.885 74.166 L 55.885 61.666 A 2 2 0 0 0 53.885 59.666 L 40.385 59.666 A 2 2 0 0 0 38.385 61.666 L 38.385 74.166 A 2 2 0 0 0 40.385 76.166 Z M 40.385 57.666 L 53.885 57.666 A 2 2 0 0 0 55.885 55.666 L 55.885 43.166 A 2 2 0 0 0 53.885 41.166 L 40.385 41.166 A 2 2 0 0 0 38.385 43.166 L 38.385 55.666 A 2 2 0 0 0 40.385 57.666 Z M 40.385 39.166 L 53.885 39.166 A 2 2 0 0 0 55.885 37.166 L 55.885 24.666 A 2 2 0 0 0 53.885 22.666 L 40.385 22.666 A 2 2 0 0 0 38.385 24.666 L 38.385 37.166 A 2 2 0 0 0 40.385 39.166 Z M 40.385 20.666 L 53.885 20.666 A 2 2 0 0 0 55.885 18.666 L 55.885 6.166 A 2 2 0 0 0 53.885 4.166 L 40.385 4.166 A 2 2 0 0 0 38.385 6.166 L 38.385 18.666 A 2 2 0 0 0 40.385 20.666 Z M 58.885 73.853 L 72.385 73.853 A 2 2 0 0 0 74.385 71.853 L 74.385 59.353 A 2 2 0 0 0 72.385 57.353 L 58.885 57.353 A 2 2 0 0 0 56.885 59.353 L 56.885 71.853 A 2 2 0 0 0 58.885 73.853 Z M 58.885 55.353 L 72.385 55.353 A 2 2 0 0 0 74.385 53.353 L 74.385 40.853 A 2 2 0 0 0 72.385 38.853 L 58.885 38.853 A 2 2 0 0 0 56.885 40.853 L 56.885 53.353 A 2 2 0 0 0 58.885 55.353 Z M 58.885 36.853 L 72.385 36.853 A 2 2 0 0 0 74.385 34.853 L 74.385 22.353 A 2 2 0 0 0 72.385 20.353 L 58.885 20.353 A 2 2 0 0 0 56.885 22.353 L 56.885 34.853 A 2 2 0 0 0 58.885 36.853 Z M 58.885 18.353 L 72.385 18.353 A 2 2 0 0 0 74.385 16.353 L 74.385 3.853 A 2 2 0 0 0 72.385 1.853 L 58.885 1.853 A 2 2 0 0 0 56.885 3.853 L 56.885 16.353 A 2 2 0 0 0 58.885 18.353 Z M 77.385 76.166 L 90.885 76.166 A 2 2 0 0 0 92.885 74.166 L 92.885 61.666 A 2 2 0 0 0 90.885 59.666 L 77.385 59.666 A 2 2 0 0 0 75.385 61.666 L 75.385 74.166 A 2 2 0 0 0 77.385 76.166 Z M 77.385 57.666 L 90.885 57.666 A 2 2 0 0 0 92.885 55.666 L 92.885 43.166 A 2 2 0 0 0 90.885 41.166 L 77.385 41.166 A 2 2 0 0 0 75.385 43.166 L 75.385 55.666 A 2 2 0 0 0 77.385 57.666 Z M 77.385 39.166 L 90.885 39.166 A 2 2 0 0 0 92.885 37.166 L 92.885 24.666 A 2 2 0 0 0 90.885 22.666 L 77.385 22.666 A 2 2 0 0 0 75.385 24.666 L 75.385 37.166 A 2 2 0 0 0 77.385 39.166 Z M 77.385 20.666 L 90.885 20.666 A 2 2 0 0 0 92.885 18.666 L 92.885 6.166 A 2 2 0 0 0 90.885 4.166 L 77.385 4.166 A 2 2 0 0 0 75.385 6.166 L 75.385 18.666 A 2 2 0 0 0 77.385 20.666 Z M 95.885 78.478 L 109.385 78.478 A 2 2 0 0 0 111.385 76.478 L 111.385 63.978 A 2 2 0 0 0 109.385 61.978 L 95.885 61.978 A 2 2 0 0 0 93.885 63.978 L 93.885 76.478 A 2 2 0 0 0 95.885 78.478 Z M 95.885 59.978 L 109.385 59.978 A 2 2 0 0 0 111.385 57.978 L 111.385 45.478 A 2 2 0 0 0 109.385 43.478 L 95.885 43.478 A 2 2 0 0 0 93.885 45.478 L 93.885 57.978 A 2 2 0 0 0 95.885 59.978 Z M 95.885 41.478 L 109.385 41.478 A 2 2 0 0 0 111.385 39.478 L 111.385 26.978 A 2 2 0 0 0 109.385 24.978 L 95.885 24.978 A 2 2 0 0 0 93.885 26.978 L 93.885 39.478 A 2 2 0 0 0 95.885 41.478 Z M 95.885 22.978 L 109.385 22.978 A 2 2 0 0 0 111.385 20.978 L 111.385 8.478 A 2 2 0 0 0 109.385 6.478 L 95.885 6.478 A 2 2 0 0 0 93.885 8.478 L 93.885 20.978 A 2 2 0 0 0 95.885 22.978 Z M 68.135 95.353 L 81.635 95.353 A 2 2 0 0 0 83.635 93.353 L 83.635 80.853 A 2 2 0 0 0 81.635 78.853 L 68.135 78.853 A 2 2 0 0 0 66.135 80.853 L 66.135 93.353 A 2 2 0 0 0 68.135 95.353 Z M 86.73 96.075 L 99.77 99.569 A 2 2 0 0 0 102.219 98.155 L 105.454 86.081 A 2 2 0 0 0 104.04 83.631 L 91 80.137 A 2 2 0 0 0 88.551 81.551 L 85.316 93.625 A 2 2 0 0 0 86.73 96.075 Z M 119.674 102.913 L 126.574 90.962 L 114.623 84.062 L 107.723 96.013 L 119.674 102.913 Z M 40.235 19.316 L 54.035 19.316 L 54.035 5.515 L 40.235 5.515 L 40.235 19.316 Z M 58.735 35.503 L 72.535 35.503 L 72.535 21.703 L 58.735 21.703 L 58.735 35.503 Z M 77.235 19.316 L 91.035 19.316 L 91.035 5.515 L 77.235 5.515 L 77.235 19.316 Z M 95.735 21.628 L 109.535 21.628 L 109.535 7.828 L 95.735 7.828 L 95.735 21.628 Z M 40.235 74.816 L 54.035 74.816 L 54.035 61.016 L 40.235 61.016 L 40.235 74.816 Z M 40.235 56.316 L 54.035 56.316 L 54.035 42.516 L 40.235 42.516 L 40.235 56.316 Z M 40.235 37.816 L 54.035 37.816 L 54.035 24.016 L 40.235 24.016 L 40.235 37.816 Z M 58.735 72.503 L 72.535 72.503 L 72.535 58.703 L 58.735 58.703 L 58.735 72.503 Z M 58.735 54.003 L 72.535 54.003 L 72.535 40.203 L 58.735 40.203 L 58.735 54.003 Z M 58.735 17.003 L 72.535 17.003 L 72.535 3.203 L 58.735 3.203 L 58.735 17.003 Z M 77.235 74.816 L 91.035 74.816 L 91.035 61.016 L 77.235 61.016 L 77.235 74.816 Z M 77.235 56.316 L 91.035 56.316 L 91.035 42.516 L 77.235 42.516 L 77.235 56.316 Z M 77.235 37.816 L 91.035 37.816 L 91.035 24.016 L 77.235 24.016 L 77.235 37.816 Z M 95.735 77.128 L 109.535 77.128 L 109.535 63.328 L 95.735 63.328 L 95.735 77.128 Z M 95.735 58.628 L 109.535 58.628 L 109.535 44.828 L 95.735 44.828 L 95.735 58.628 Z M 95.735 40.128 L 109.535 40.128 L 109.535 26.328 L 95.735 26.328 L 95.735 40.128 Z M 67.985 94.003 L 81.785 94.003 L 81.785 80.203 L 67.985 80.203 L 67.985 94.003 Z M 3.235 23.941 L 17.035 23.941 L 17.035 10.14 L 3.235 10.14 L 3.235 23.941 Z M 21.735 23.941 L 35.535 23.941 L 35.535 10.14 L 21.735 10.14 L 21.735 23.941 Z M 3.235 79.441 L 17.035 79.441 L 17.035 65.641 L 3.235 65.641 L 3.235 79.441 Z M 3.235 60.941 L 17.035 60.941 L 17.035 47.141 L 3.235 47.141 L 3.235 60.941 Z M 3.235 42.441 L 17.035 42.441 L 17.035 28.641 L 3.235 28.641 L 3.235 42.441 Z M 21.735 79.441 L 35.535 79.441 L 35.535 65.641 L 21.735 65.641 L 21.735 79.441 Z M 21.735 60.941 L 35.535 60.941 L 35.535 47.141 L 21.735 47.141 L 21.735 60.941 Z M 21.735 42.441 L 35.535 42.441 L 35.535 28.641 L 21.735 28.641 L 21.735 42.441 Z M 86.934 94.732 L 100.264 98.304 L 103.836 84.974 L 90.506 81.402 L 86.934 94.732 Z M 112.905 24.817 L 112.928 6.077 L 112.929 5.126 A 0.5 0.5 0 0 0 112.429 4.625 L 94.928 4.624 M 131.636 85.745 L 131.388 86.175 L 118.348 109.118 M 19.385 26.291 m -1.725 0 a 1.725 1.725 0 0 1 3.45 0 a 1.725 1.725 0 0 1 -3.45 0 z M 19.385 63.291 m -1.725 0 a 1.725 1.725 0 0 1 3.45 0 a 1.725 1.725 0 0 1 -3.45 0 z M 93.353 22.839 m -1.725 0 a 1.725 1.725 0 0 1 3.45 0 a 1.725 1.725 0 0 1 -3.45 0 z M 61.292 80.155 m -1.725 0 a 1.725 1.725 0 0 1 3.45 0 a 1.725 1.725 0 0 1 -3.45 0 z M 106.86 87.547 m -1.725 0 a 1.725 1.725 0 0 1 3.45 0 a 1.725 1.725 0 0 1 -3.45 0 z M 19.385 26.291 m -1.1 0 a 1.1 1.1 0 0 1 2.2 0 a 1.1 1.1 0 0 1 -2.2 0 z M 19.385 63.291 m -1.1 0 a 1.1 1.1 0 0 1 2.2 0 a 1.1 1.1 0 0 1 -2.2 0 z M 93.353 22.839 m -1.1 0 a 1.1 1.1 0 0 1 2.2 0 a 1.1 1.1 0 0 1 -2.2 0 z M 61.292 80.155 m -1.1 0 a 1.1 1.1 0 0 1 2.2 0 a 1.1 1.1 0 0 1 -2.2 0 z M 106.86 87.547 m -1.1 0 a 1.1 1.1 0 0 1 2.2 0 a 1.1 1.1 0 0 1 -2.2 0 z M 115.062 73.004 m -1.1 0 a 1.1 1.1 0 0 1 2.2 0 a 1.1 1.1 0 0 1 -2.2 0 z M 129.104 81.298 m -1.1 0 a 1.1 1.1 0 0 1 2.2 0 a 1.1 1.1 0 0 1 -2.2 0 z M 37.95 7.767 m -0.5 0 a 0.5 0.5 0 0 0 1 0 a 0.5 0.5 0 0 0 -1 0 z M 66.459 95.473 m -0.5 0 a 0.5 0.5 0 0 0 1 0 a 0.5 0.5 0 0 0 -1 0 z M 36.5 6.317 m -0.5 0 a 0.5 0.5 0 0 0 1 0 a 0.5 0.5 0 0 0 -1 0 z M 65.651 96.829 m -0.5 0 a 0.5 0.5 0 0 0 1 0 a 0.5 0.5 0 0 0 -1 0 z M 1.95 8.768 m -0.5 0 a 0.5 0.5 0 0 0 1 0 a 0.5 0.5 0 0 0 -1 0 z M 38.95 4.143 m -0.5 0 a 0.5 0.5 0 0 0 1 0 a 0.5 0.5 0 0 0 -1 0 z M 56.45 3.143 m -0.5 0 a 0.5 0.5 0 0 0 1 0 a 0.5 0.5 0 0 0 -1 0 z M 57.45 1.95 m -0.5 0 a 0.5 0.5 0 0 0 1 0 a 0.5 0.5 0 0 0 -1 0 z M 73.978 1.95 m -0.5 0 a 0.5 0.5 0 0 0 1 0 a 0.5 0.5 0 0 0 -1 0 z M 74.978 3.143 m -0.5 0 a 0.5 0.5 0 0 0 1 0 a 0.5 0.5 0 0 0 -1 0 z M 92.478 4.143 m -0.5 0 a 0.5 0.5 0 0 0 1 0 a 0.5 0.5 0 0 0 -1 0 z M 93.478 5.574 m -0.5 0 a 0.5 0.5 0 0 0 1 0 a 0.5 0.5 0 0 0 -1 0 z M 111.954 26.268 m -0.5 0 a 0.5 0.5 0 0 0 1 0 a 0.5 0.5 0 0 0 -1 0 z M 131.203 27.268 m -0.5 0 a 0.5 0.5 0 0 0 1 0 a 0.5 0.5 0 0 0 -1 0 z M 131.203 85.495 m -0.5 0 a 0.5 0.5 0 0 0 1 0 a 0.5 0.5 0 0 0 -1 0 z M 102.663 101.221 m -0.5 0 a 0.5 0.5 0 0 0 1 0 a 0.5 0.5 0 0 0 -1 0 z M 55.487 82.036 m -0.5 0 a 0.5 0.5 0 0 0 1 0 a 0.5 0.5 0 0 0 -1 0 z M 1.952 81.038 m -0.5 0 a 0.5 0.5 0 0 0 1 0 a 0.5 0.5 0 0 0 -1 0 z M 0.5 7.318 m -0.5 0 a 0.5 0.5 0 0 0 1 0 a 0.5 0.5 0 0 0 -1 0 z M 37.5 2.693 m -0.5 0 a 0.5 0.5 0 0 0 1 0 a 0.5 0.5 0 0 0 -1 0 z M 55 1.693 m -0.5 0 a 0.5 0.5 0 0 0 1 0 a 0.5 0.5 0 0 0 -1 0 z M 56 0.5 m -0.5 0 a 0.5 0.5 0 0 0 1 0 a 0.5 0.5 0 0 0 -1 0 z M 75.428 0.5 m -0.5 0 a 0.5 0.5 0 0 0 1 0 a 0.5 0.5 0 0 0 -1 0 z M 76.428 1.693 m -0.5 0 a 0.5 0.5 0 0 0 1 0 a 0.5 0.5 0 0 0 -1 0 z M 93.928 2.693 m -0.5 0 a 0.5 0.5 0 0 0 1 0 a 0.5 0.5 0 0 0 -1 0 z M 94.928 4.124 m -0.5 0 a 0.5 0.5 0 0 0 1 0 a 0.5 0.5 0 0 0 -1 0 z M 132.653 25.818 m -0.5 0 a 0.5 0.5 0 0 0 1 0 a 0.5 0.5 0 0 0 -1 0 z M 133.08 87.144 m -0.5 0 a 0.5 0.5 0 0 0 1 0 a 0.5 0.5 0 0 0 -1 0 z M 118.452 110.857 m -0.5 0 a 0.5 0.5 0 0 0 1 0 a 0.5 0.5 0 0 0 -1 0 z M 102.188 102.621 m -0.5 0 a 0.5 0.5 0 0 0 1 0 a 0.5 0.5 0 0 0 -1 0 z M 54.747 83.486 m -0.5 0 a 0.5 0.5 0 0 0 1 0 a 0.5 0.5 0 0 0 -1 0 z M 0.502 82.488 m -0.5 0 a 0.5 0.5 0 0 0 1 0 a 0.5 0.5 0 0 0 -1 0 z M 113.405 24.818 m -0.5 0 a 0.5 0.5 0 0 0 1 0 a 0.5 0.5 0 0 0 -1 0 z M 117.913 108.871 m -0.5 0 a 0.5 0.5 0 0 0 1 0 a 0.5 0.5 0 0 0 -1 0 z M 1.45 8.768 1.452 81.038 M 1.95 8.268 37.95 8.267 M 38.45 7.767 38.45 4.143 M 38.95 3.643 56.45 3.643 M 56.95 3.143 56.95 1.95 M 57.45 1.45 73.978 1.45 M 74.478 3.143 74.478 1.95 M 74.978 3.643 92.478 3.643 M 92.978 5.574 92.978 4.143 M 102.913 100.788 117.663 109.304 M 66.394 95.968 102.727 100.725 M 55.892 81.742 66.054 95.766 M 1.952 81.538 55.487 81.536 M 111.954 26.768 131.203 26.768 M 131.703 85.495 131.703 27.268 M 0.5 6.818 36.5 6.817 M 37 6.317 37 2.693 M 37.5 2.193 55 2.193 M 55.5 1.693 55.5 0.5 M 56 0 75.428 0 M 75.928 1.693 75.928 0.5 M 76.428 2.193 93.928 2.193 M 94.428 4.124 94.428 2.693 M 113.405 25.318 132.653 25.318 M 102.438 102.188 118.202 111.29 M 65.586 97.325 102.253 102.126 M 55.152 83.192 65.246 97.123 M 0.502 82.988 54.747 82.986" vector-effect="non-scaling-stroke"/></g></svg>