0
SECTION
2
HEADER
9
$INSUNITS
70
4
0
ENDSEC
0
SECTION
2
TABLES
0
TABLE
2
LTYPE
0
LTYPE
72
65
70
64
2
CONTINUOUS
3
______
73
0
40
0
0
ENDTAB
0
TABLE
2
LAYER
0
ENDTAB
0
ENDSEC
0
SECTION
2
ENTITIES
0
LINE
8
0
10
91.3150136
20
-36.2275001
11
91.3169864
21
-108.4974906
0
LINE
8
0
10
91.8150001
20
-35.7274865
11
127.8150135
21
-35.7265135
0
LINE
8
0
10
128.315
20
-35.2265135
11
128.315
21
-31.6025
0
LINE
8
0
10
128.815
20
-31.1025
11
146.315
21
-31.1025
0
LINE
8
0
10
146.815
20
-30.6025
11
146.815
21
-29.4095
0
LINE
8
0
10
147.315
20
-28.9095
11
163.843
21
-28.9095
0
LINE
8
0
10
164.343
20
-30.6025
11
164.343
21
-29.4095
0
LINE
8
0
10
164.843
20
-31.1025
11
182.343
21
-31.1025
0
LINE
8
0
10
182.843
20
-33.0330405
11
182.843
21
-31.6025
0
LINE
8
0
10
183.3429594
20
-33.5330405
11
200.8424362
21
-33.5344594
0
LINE
8
0
10
201.3180004
20
-54.227169
11
201.3423953
21
-34.0350635
0
LINE
8
0
10
208.2127208
20
-136.5779135
11
221.253
21
-113.634096
0
LINE
8
0
10
192.7774819
20
-128.2476338
11
207.5280252
21
-136.7638639
0
LINE
8
0
10
156.2585887
20
-123.4279636
11
192.5923893
21
-128.1848774
0
LINE
8
0
10
145.7572267
20
-109.2016408
11
155.9186091
21
-123.2255654
0
LINE
8
0
10
91.8170094
20
-108.997477
11
145.3523168
21
-108.9950118
0
LINE
8
0
10
201.8186044
20
-54.2275
11
221.068
21
-54.2275
0
LINE
8
0
10
221.568
20
-112.9545254
11
221.568
21
-54.7275
0
LINE
8
0
10
221.253
20
-113.634096
11
221.5010127
21
-113.2045254
0
ARC
8
0
10
91.8150136
20
-36.2274865
40
0.5
50
90.001547
51
450.001547
0
ARC
8
0
10
127.815
20
-35.2265135
40
0.5
50
270.001547
51
630.001547
0
ARC
8
0
10
128.815
20
-31.6025
40
0.5
50
90
51
450
0
ARC
8
0
10
146.315
20
-30.6025
40
0.5
50
270
51
630
0
ARC
8
0
10
147.315
20
-29.4095
40
0.5
50
90
51
450
0
ARC
8
0
10
163.843
20
-29.4095
40
0.5
50
0
51
360
0
ARC
8
0
10
164.843
20
-30.6025
40
0.5
50
180
51
540
0
ARC
8
0
10
182.343
20
-31.6025
40
0.5
50
0
51
360
0
ARC
8
0
10
183.343
20
-33.0330405
40
0.5
50
180
51
540
0
ARC
8
0
10
200.8423957
20
-34.0344594
40
0.5
50
359.930781
51
89.9953533
0
ARC
8
0
10
201.8186044
20
-53.7275
40
0.5
50
179.930781
51
539.930781
0
ARC
8
0
10
221.068
20
-54.7275
40
0.5
50
0
51
360
0
ARC
8
0
10
221.068
20
-112.9545254
40
0.5
50
329.9999999
51
689.9999999
0
ARC
8
0
10
207.7780252
20
-136.3308512
40
0.5
50
239.9999999
51
599.9999999
0
ARC
8
0
10
192.5274819
20
-128.6806465
40
0.5
50
59.9999999
51
419.9999999
0
ARC
8
0
10
156.3234961
20
-122.9321945
40
0.5
50
215.9261431
51
575.9261431
0
ARC
8
0
10
145.3523398
20
-109.4950118
40
0.5
50
35.9261431
51
395.9261431
0
ARC
8
0
10
91.8169864
20
-108.497477
40
0.5
50
180.0015642
51
540.0015642
0
CIRCLE
8
0
10
109.25
20
-53.75
40
1.1
0
CIRCLE
8
0
10
109.25
20
-90.75
40
1.1
0
CIRCLE
8
0
10
183.218
20
-50.2985
40
1.1
0
CIRCLE
8
0
10
151.157
20
-107.615
40
1.1
0
CIRCLE
8
0
10
196.7245951
20
-115.0067481
40
1.1
0
CIRCLE
8
0
10
109.25
20
-53.75
40
1.725
0
CIRCLE
8
0
10
109.25
20
-90.75
40
1.725
0
CIRCLE
8
0
10
183.218
20
-50.2985
40
1.725
0
CIRCLE
8
0
10
151.157
20
-107.615
40
1.725
0
CIRCLE
8
0
10
196.7245951
20
-115.0067481
40
1.725
0
CIRCLE
8
0
10
204.927
20
-100.4635
40
1.1
0
CIRCLE
8
0
10
218.969
20
-108.7575
40
1.1
0
LINE
8
0
10
201.318
20
-54.227773
11
201.318
21
-101.8359433
0
LINE
8
0
10
201.568
20
-102.268956
11
220.8229094
21
-113.3857831
0
ARC
8
0
10
201.818
20
-54.227773
40
0.5
50
179.930781
51
180
0
ARC
8
0
10
201.818
20
-101.8359433
40
0.5
50
180
51
239.9999999
0
ARC
8
0
10
220.5729094
20
-113.8187958
40
0.5
50
330.387963
51
59.9999999
0
LINE
8
0
10
93.1
20
-106.9
11
106.9
21
-106.9
0
LINE
8
0
10
106.9
20
-106.9
11
106.9
21
-93.1
0
LINE
8
0
10
106.9
20
-93.1
11
93.1
21
-93.1
0
LINE
8
0
10
93.1
20
-93.1
11
93.1
21
-106.9
0
LINE
8
0
10
93.1
20
-88.4
11
106.9
21
-88.4
0
LINE
8
0
10
106.9
20
-88.4
11
106.9
21
-74.6
0
LINE
8
0
10
106.9
20
-74.6
11
93.1
21
-74.6
0
LINE
8
0
10
93.1
20
-74.6
11
93.1
21
-88.4
0
LINE
8
0
10
93.1
20
-69.9
11
106.9
21
-69.9
0
LINE
8
0
10
106.9
20
-69.9
11
106.9
21
-56.1
0
LINE
8
0
10
106.9
20
-56.1
11
93.1
21
-56.1
0
LINE
8
0
10
93.1
20
-56.1
11
93.1
21
-69.9
0
LINE
8
0
10
93.1
20
-51.4
11
106.9
21
-51.4
0
LINE
8
0
10
106.9
20
-51.4
11
106.9
21
-37.6
0
LINE
8
0
10
106.9
20
-37.6
11
93.1
21
-37.6
0
LINE
8
0
10
93.1
20
-37.6
11
93.1
21
-51.4
0
LINE
8
0
10
111.6
20
-106.9
11
125.4
21
-106.9
0
LINE
8
0
10
125.4
20
-106.9
11
125.4
21
-93.1
0
LINE
8
0
10
125.4
20
-93.1
11
111.6
21
-93.1
0
LINE
8
0
10
111.6
20
-93.1
11
111.6
21
-106.9
0
LINE
8
0
10
111.6
20
-88.4
11
125.4
21
-88.4
0
LINE
8
0
10
125.4
20
-88.4
11
125.4
21
-74.6
0
LINE
8
0
10
125.4
20
-74.6
11
111.6
21
-74.6
0
LINE
8
0
10
111.6
20
-74.6
11
111.6
21
-88.4
0
LINE
8
0
10
111.6
20
-69.9
11
125.4
21
-69.9
0
LINE
8
0
10
125.4
20
-69.9
11
125.4
21
-56.1
0
LINE
8
0
10
125.4
20
-56.1
11
111.6
21
-56.1
0
LINE
8
0
10
111.6
20
-56.1
11
111.6
21
-69.9
0
LINE
8
0
10
111.6
20
-51.4
11
125.4
21
-51.4
0
LINE
8
0
10
125.4
20
-51.4
11
125.4
21
-37.6
0
LINE
8
0
10
125.4
20
-37.6
11
111.6
21
-37.6
0
LINE
8
0
10
111.6
20
-37.6
11
111.6
21
-51.4
0
LINE
8
0
10
130.1
20
-102.275
11
143.9
21
-102.275
0
LINE
8
0
10
143.9
20
-102.275
11
143.9
21
-88.475
0
LINE
8
0
10
143.9
20
-88.475
11
130.1
21
-88.475
0
LINE
8
0
10
130.1
20
-88.475
11
130.1
21
-102.275
0
LINE
8
0
10
130.1
20
-83.775
11
143.9
21
-83.775
0
LINE
8
0
10
143.9
20
-83.775
11
143.9
21
-69.975
0
LINE
8
0
10
143.9
20
-69.975
11
130.1
21
-69.975
0
LINE
8
0
10
130.1
20
-69.975
11
130.1
21
-83.775
0
LINE
8
0
10
130.1
20
-65.275
11
143.9
21
-65.275
0
LINE
8
0
10
143.9
20
-65.275
11
143.9
21
-51.475
0
LINE
8
0
10
143.9
20
-51.475
11
130.1
21
-51.475
0
LINE
8
0
10
130.1
20
-51.475
11
130.1
21
-65.275
0
LINE
8
0
10
130.1
20
-46.775
11
143.9
21
-46.775
0
LINE
8
0
10
143.9
20
-46.775
11
143.9
21
-32.975
0
LINE
8
0
10
143.9
20
-32.975
11
130.1
21
-32.975
0
LINE
8
0
10
130.1
20
-32.975
11
130.1
21
-46.775
0
LINE
8
0
10
148.6
20
-99.9625
11
162.4
21
-99.9625
0
LINE
8
0
10
162.4
20
-99.9625
11
162.4
21
-86.1625
0
LINE
8
0
10
162.4
20
-86.1625
11
148.6
21
-86.1625
0
LINE
8
0
10
148.6
20
-86.1625
11
148.6
21
-99.9625
0
LINE
8
0
10
148.6
20
-81.4625
11
162.4
21
-81.4625
0
LINE
8
0
10
162.4
20
-81.4625
11
162.4
21
-67.6625
0
LINE
8
0
10
162.4
20
-67.6625
11
148.6
21
-67.6625
0
LINE
8
0
10
148.6
20
-67.6625
11
148.6
21
-81.4625
0
LINE
8
0
10
148.6
20
-62.9625
11
162.4
21
-62.9625
0
LINE
8
0
10
162.4
20
-62.9625
11
162.4
21
-49.1625
0
LINE
8
0
10
162.4
20
-49.1625
11
148.6
21
-49.1625
0
LINE
8
0
10
148.6
20
-49.1625
11
148.6
21
-62.9625
0
LINE
8
0
10
148.6
20
-44.4625
11
162.4
21
-44.4625
0
LINE
8
0
10
162.4
20
-44.4625
11
162.4
21
-30.6625
0
LINE
8
0
10
162.4
20
-30.6625
11
148.6
21
-30.6625
0
LINE
8
0
10
148.6
20
-30.6625
11
148.6
21
-44.4625
0
LINE
8
0
10
167.1
20
-102.275
11
180.9
21
-102.275
0
LINE
8
0
10
180.9
20
-102.275
11
180.9
21
-88.475
0
LINE
8
0
10
180.9
20
-88.475
11
167.1
21
-88.475
0
LINE
8
0
10
167.1
20
-88.475
11
167.1
21
-102.275
0
LINE
8
0
10
167.1
20
-83.775
11
180.9
21
-83.775
0
LINE
8
0
10
180.9
20
-83.775
11
180.9
21
-69.975
0
LINE
8
0
10
180.9
20
-69.975
11
167.1
21
-69.975
0
LINE
8
0
10
167.1
20
-69.975
11
167.1
21
-83.775
0
LINE
8
0
10
167.1
20
-65.275
11
180.9
21
-65.275
0
LINE
8
0
10
180.9
20
-65.275
11
180.9
21
-51.475
0
LINE
8
0
10
180.9
20
-51.475
11
167.1
21
-51.475
0
LINE
8
0
10
167.1
20
-51.475
11
167.1
21
-65.275
0
LINE
8
0
10
167.1
20
-46.775
11
180.9
21
-46.775
0
LINE
8
0
10
180.9
20
-46.775
11
180.9
21
-32.975
0
LINE
8
0
10
180.9
20
-32.975
11
167.1
21
-32.975
0
LINE
8
0
10
167.1
20
-32.975
11
167.1
21
-46.775
0
LINE
8
0
10
185.6
20
-104.5875
11
199.4
21
-104.5875
0
LINE
8
0
10
199.4
20
-104.5875
11
199.4
21
-90.7875
0
LINE
8
0
10
199.4
20
-90.7875
11
185.6
21
-90.7875
0
LINE
8
0
10
185.6
20
-90.7875
11
185.6
21
-104.5875
0
LINE
8
0
10
185.6
20
-86.0875
11
199.4
21
-86.0875
0
LINE
8
0
10
199.4
20
-86.0875
11
199.4
21
-72.2875
0
LINE
8
0
10
199.4
20
-72.2875
11
185.6
21
-72.2875
0
LINE
8
0
10
185.6
20
-72.2875
11
185.6
21
-86.0875
0
LINE
8
0
10
185.6
20
-67.5875
11
199.4
21
-67.5875
0
LINE
8
0
10
199.4
20
-67.5875
11
199.4
21
-53.7875
0
LINE
8
0
10
199.4
20
-53.7875
11
185.6
21
-53.7875
0
LINE
8
0
10
185.6
20
-53.7875
11
185.6
21
-67.5875
0
LINE
8
0
10
185.6
20
-49.0875
11
199.4
21
-49.0875
0
LINE
8
0
10
199.4
20
-49.0875
11
199.4
21
-35.2875
0
LINE
8
0
10
199.4
20
-35.2875
11
185.6
21
-35.2875
0
LINE
8
0
10
185.6
20
-35.2875
11
185.6
21
-49.0875
0
LINE
8
0
10
157.85
20
-121.4625
11
171.65
21
-121.4625
0
LINE
8
0
10
171.65
20
-121.4625
11
171.65
21
-107.6625
0
LINE
8
0
10
171.65
20
-107.6625
11
157.85
21
-107.6625
0
LINE
8
0
10
157.85
20
-107.6625
11
157.85
21
-121.4625
0
LINE
8
0
10
176.7992604
20
-122.1915368
11
190.1290368
21
-125.7632396
0
LINE
8
0
10
190.1290368
20
-125.7632396
11
193.7007396
21
-112.4334632
0
LINE
8
0
10
193.7007396
20
-112.4334632
11
180.3709632
21
-108.8617604
0
LINE
8
0
10
180.3709632
20
-108.8617604
11
176.7992604
21
-122.1915368
0
LINE
8
0
10
209.5394182
20
-130.3728234
11
216.4394182
21
-118.4216728
0
LINE
8
0
10
216.4394182
20
-118.4216728
11
204.4882676
21
-111.5216728
0
LINE
8
0
10
204.4882676
20
-111.5216728
11
197.5882676
21
-123.4728234
0
LINE
8
0
10
197.5882676
20
-123.4728234
11
209.5394182
21
-130.3728234
0
LINE
8
0
10
202.348
20
-101.7031527
11
202.348
21
-54.7275
0
LINE
8
0
10
220.818
20
-112.6554873
11
202.598
21
-102.1361654
0
ARC
8
0
10
202.848
20
-54.7275
40
0.5
50
90
51
180
0
ARC
8
0
10
221.068
20
-112.2224746
40
0.5
50
239.9999999
51
0
0
ARC
8
0
10
202.848
20
-101.7031527
40
0.5
50
180
51
239.9999999
0
LINE
8
0
10
93.25
20
-108.25
11
106.75
21
-108.25
0
LINE
8
0
10
108.75
20
-106.25
11
108.75
21
-93.75
0
LINE
8
0
10
106.75
20
-91.75
11
93.25
21
-91.75
0
LINE
8
0
10
91.25
20
-93.75
11
91.25
21
-106.25
0
LINE
8
0
10
93.25
20
-89.75
11
106.75
21
-89.75
0
LINE
8
0
10
108.75
20
-87.75
11
108.75
21
-75.25
0
LINE
8
0
10
106.75
20
-73.25
11
93.25
21
-73.25
0
LINE
8
0
10
91.25
20
-75.25
11
91.25
21
-87.75
0
LINE
8
0
10
93.25
20
-71.25
11
106.75
21
-71.25
0
LINE
8
0
10
108.75
20
-69.25
11
108.75
21
-56.75
0
LINE
8
0
10
106.75
20
-54.75
11
93.25
21
-54.75
0
LINE
8
0
10
91.25
20
-56.75
11
91.25
21
-69.25
0
LINE
8
0
10
93.25
20
-52.75
11
106.75
21
-52.75
0
LINE
8
0
10
108.75
20
-50.75
11
108.75
21
-38.25
0
LINE
8
0
10
106.75
20
-36.25
11
93.25
21
-36.25
0
LINE
8
0
10
91.25
20
-38.25
11
91.25
21
-50.75
0
LINE
8
0
10
111.75
20
-108.25
11
125.25
21
-108.25
0
LINE
8
0
10
127.25
20
-106.25
11
127.25
21
-93.75
0
LINE
8
0
10
125.25
20
-91.75
11
111.75
21
-91.75
0
LINE
8
0
10
109.75
20
-93.75
11
109.75
21
-106.25
0
LINE
8
0
10
111.75
20
-89.75
11
125.25
21
-89.75
0
LINE
8
0
10
127.25
20
-87.75
11
127.25
21
-75.25
0
LINE
8
0
10
125.25
20
-73.25
11
111.75
21
-73.25
0
LINE
8
0
10
109.75
20
-75.25
11
109.75
21
-87.75
0
LINE
8
0
10
111.75
20
-71.25
11
125.25
21
-71.25
0
LINE
8
0
10
127.25
20
-69.25
11
127.25
21
-56.75
0
LINE
8
0
10
125.25
20
-54.75
11
111.75
21
-54.75
0
LINE
8
0
10
109.75
20
-56.75
11
109.75
21
-69.25
0
LINE
8
0
10
111.75
20
-52.75
11
125.25
21
-52.75
0
LINE
8
0
10
127.25
20
-50.75
11
127.25
21
-38.25
0
LINE
8
0
10
125.25
20
-36.25
11
111.75
21
-36.25
0
LINE
8
0
10
109.75
20
-38.25
11
109.75
21
-50.75
0
LINE
8
0
10
130.25
20
-103.625
11
143.75
21
-103.625
0
LINE
8
0
10
145.75
20
-101.625
11
145.75
21
-89.125
0
LINE
8
0
10
143.75
20
-87.125
11
130.25
21
-87.125
0
LINE
8
0
10
128.25
20
-89.125
11
128.25
21
-101.625
0
LINE
8
0
10
130.25
20
-85.125
11
143.75
21
-85.125
0
LINE
8
0
10
145.75
20
-83.125
11
145.75
21
-70.625
0
LINE
8
0
10
143.75
20
-68.625
11
130.25
21
-68.625
0
LINE
8
0
10
128.25
20
-70.625
11
128.25
21
-83.125
0
LINE
8
0
10
130.25
20
-66.625
11
143.75
21
-66.625
0
LINE
8
0
10
145.75
20
-64.625
11
145.75
21
-52.125
0
LINE
8
0
10
143.75
20
-50.125
11
130.25
21
-50.125
0
LINE
8
0
10
128.25
20
-52.125
11
128.25
21
-64.625
0
LINE
8
0
10
130.25
20
-48.125
11
143.75
21
-48.125
0
LINE
8
0
10
145.75
20
-46.125
11
145.75
21
-33.625
0
LINE
8
0
10
143.75
20
-31.625
11
130.25
21
-31.625
0
LINE
8
0
10
128.25
20
-33.625
11
128.25
21
-46.125
0
LINE
8
0
10
148.75
20
-101.3125
11
162.25
21
-101.3125
0
LINE
8
0
10
164.25
20
-99.3125
11
164.25
21
-86.8125
0
LINE
8
0
10
162.25
20
-84.8125
11
148.75
21
-84.8125
0
LINE
8
0
10
146.75
20
-86.8125
11
146.75
21
-99.3125
0
LINE
8
0
10
148.75
20
-82.8125
11
162.25
21
-82.8125
0
LINE
8
0
10
164.25
20
-80.8125
11
164.25
21
-68.3125
0
LINE
8
0
10
162.25
20
-66.3125
11
148.75
21
-66.3125
0
LINE
8
0
10
146.75
20
-68.3125
11
146.75
21
-80.8125
0
LINE
8
0
10
148.75
20
-64.3125
11
162.25
21
-64.3125
0
LINE
8
0
10
164.25
20
-62.3125
11
164.25
21
-49.8125
0
LINE
8
0
10
162.25
20
-47.8125
11
148.75
21
-47.8125
0
LINE
8
0
10
146.75
20
-49.8125
11
146.75
21
-62.3125
0
LINE
8
0
10
148.75
20
-45.8125
11
162.25
21
-45.8125
0
LINE
8
0
10
164.25
20
-43.8125
11
164.25
21
-31.3125
0
LINE
8
0
10
162.25
20
-29.3125
11
148.75
21
-29.3125
0
LINE
8
0
10
146.75
20
-31.3125
11
146.75
21
-43.8125
0
LINE
8
0
10
167.25
20
-103.625
11
180.75
21
-103.625
0
LINE
8
0
10
182.75
20
-101.625
11
182.75
21
-89.125
0
LINE
8
0
10
180.75
20
-87.125
11
167.25
21
-87.125
0
LINE
8
0
10
165.25
20
-89.125
11
165.25
21
-101.625
0
LINE
8
0
10
167.25
20
-85.125
11
180.75
21
-85.125
0
LINE
8
0
10
182.75
20
-83.125
11
182.75
21
-70.625
0
LINE
8
0
10
180.75
20
-68.625
11
167.25
21
-68.625
0
LINE
8
0
10
165.25
20
-70.625
11
165.25
21
-83.125
0
LINE
8
0
10
167.25
20
-66.625
11
180.75
21
-66.625
0
LINE
8
0
10
182.75
20
-64.625
11
182.75
21
-52.125
0
LINE
8
0
10
180.75
20
-50.125
11
167.25
21
-50.125
0
LINE
8
0
10
165.25
20
-52.125
11
165.25
21
-64.625
0
LINE
8
0
10
167.25
20
-48.125
11
180.75
21
-48.125
0
LINE
8
0
10
182.75
20
-46.125
11
182.75
21
-33.625
0
LINE
8
0
10
180.75
20
-31.625
11
167.25
21
-31.625
0
LINE
8
0
10
165.25
20
-33.625
11
165.25
21
-46.125
0
LINE
8
0
10
185.75
20
-105.9375
11
199.25
21
-105.9375
0
LINE
8
0
10
201.25
20
-103.9375
11
201.25
21
-91.4375
0
LINE
8
0
10
199.25
20
-89.4375
11
185.75
21
-89.4375
0
LINE
8
0
10
183.75
20
-91.4375
11
183.75
21
-103.9375
0
LINE
8
0
10
185.75
20
-87.4375
11
199.25
21
-87.4375
0
LINE
8
0
10
201.25
20
-85.4375
11
201.25
21
-72.9375
0
LINE
8
0
10
199.25
20
-70.9375
11
185.75
21
-70.9375
0
LINE
8
0
10
183.75
20
-72.9375
11
183.75
21
-85.4375
0
LINE
8
0
10
185.75
20
-68.9375
11
199.25
21
-68.9375
0
LINE
8
0
10
201.25
20
-66.9375
11
201.25
21
-54.4375
0
LINE
8
0
10
199.25
20
-52.4375
11
185.75
21
-52.4375
0
LINE
8
0
10
183.75
20
-54.4375
11
183.75
21
-66.9375
0
LINE
8
0
10
185.75
20
-50.4375
11
199.25
21
-50.4375
0
LINE
8
0
10
201.25
20
-48.4375
11
201.25
21
-35.9375
0
LINE
8
0
10
199.25
20
-33.9375
11
185.75
21
-33.9375
0
LINE
8
0
10
183.75
20
-35.9375
11
183.75
21
-48.4375
0
LINE
8
0
10
158
20
-122.8125
11
171.5
21
-122.8125
0
LINE
8
0
10
173.5
20
-120.8125
11
173.5
21
-108.3125
0
LINE
8
0
10
171.5
20
-106.3125
11
158
21
-106.3125
0
LINE
8
0
10
156
20
-108.3125
11
156
21
-120.8125
0
LINE
8
0
10
176.5947437
20
-123.5343595
11
189.6347423
21
-127.0284166
0
LINE
8
0
10
192.084232
20
-125.6142029
11
195.31947
21
-113.5401302
0
LINE
8
0
10
193.9052563
20
-111.0906405
11
180.8652577
21
-107.5965834
0
LINE
8
0
10
178.415768
20
-109.0107971
11
175.18053
21
-121.0848698
0
LINE
8
0
10
208.5960525
20
-134.7067807
11
219.7210525
21
-115.4377155
0
LINE
8
0
10
194.3066333
20
-126.4567807
11
205.4316333
21
-107.1877155
0
ARC
8
0
10
106.75
20
-106.25
40
2
50
270
51
0
0
ARC
8
0
10
106.75
20
-93.75
40
2
50
0
51
90
0
ARC
8
0
10
93.25
20
-93.75
40
2
50
90
51
180
0
ARC
8
0
10
93.25
20
-106.25
40
2
50
180
51
270
0
ARC
8
0
10
106.75
20
-87.75
40
2
50
270
51
0
0
ARC
8
0
10
106.75
20
-75.25
40
2
50
0
51
90
0
ARC
8
0
10
93.25
20
-75.25
40
2
50
90
51
180
0
ARC
8
0
10
93.25
20
-87.75
40
2
50
180
51
270
0
ARC
8
0
10
106.75
20
-69.25
40
2
50
270
51
0
0
ARC
8
0
10
106.75
20
-56.75
40
2
50
0
51
90
0
ARC
8
0
10
93.25
20
-56.75
40
2
50
90
51
180
0
ARC
8
0
10
93.25
20
-69.25
40
2
50
180
51
270
0
ARC
8
0
10
106.75
20
-50.75
40
2
50
270
51
0
0
ARC
8
0
10
106.75
20
-38.25
40
2
50
0
51
90
0
ARC
8
0
10
93.25
20
-38.25
40
2
50
90
51
180
0
ARC
8
0
10
93.25
20
-50.75
40
2
50
180
51
270
0
ARC
8
0
10
125.25
20
-106.25
40
2
50
270
51
0
0
ARC
8
0
10
125.25
20
-93.75
40
2
50
0
51
90
0
ARC
8
0
10
111.75
20
-93.75
40
2
50
90
51
180
0
ARC
8
0
10
111.75
20
-106.25
40
2
50
180
51
270
0
ARC
8
0
10
125.25
20
-87.75
40
2
50
270
51
0
0
ARC
8
0
10
125.25
20
-75.25
40
2
50
0
51
90
0
ARC
8
0
10
111.75
20
-75.25
40
2
50
90
51
180
0
ARC
8
0
10
111.75
20
-87.75
40
2
50
180
51
270
0
ARC
8
0
10
125.25
20
-69.25
40
2
50
270
51
0
0
ARC
8
0
10
125.25
20
-56.75
40
2
50
0
51
90
0
ARC
8
0
10
111.75
20
-56.75
40
2
50
90
51
180
0
ARC
8
0
10
111.75
20
-69.25
40
2
50
180
51
270
0
ARC
8
0
10
125.25
20
-50.75
40
2
50
270
51
0
0
ARC
8
0
10
125.25
20
-38.25
40
2
50
0
51
90
0
ARC
8
0
10
111.75
20
-38.25
40
2
50
90
51
180
0
ARC
8
0
10
111.75
20
-50.75
40
2
50
180
51
270
0
ARC
8
0
10
143.75
20
-101.625
40
2
50
270
51
0
0
ARC
8
0
10
143.75
20
-89.125
40
2
50
0
51
90
0
ARC
8
0
10
130.25
20
-89.125
40
2
50
90
51
180
0
ARC
8
0
10
130.25
20
-101.625
40
2
50
180
51
270
0
ARC
8
0
10
143.75
20
-83.125
40
2
50
270
51
0
0
ARC
8
0
10
143.75
20
-70.625
40
2
50
0
51
90
0
ARC
8
0
10
130.25
20
-70.625
40
2
50
90
51
180
0
ARC
8
0
10
130.25
20
-83.125
40
2
50
180
51
270
0
ARC
8
0
10
143.75
20
-64.625
40
2
50
270
51
0
0
ARC
8
0
10
143.75
20
-52.125
40
2
50
0
51
90
0
ARC
8
0
10
130.25
20
-52.125
40
2
50
90
51
180
0
ARC
8
0
10
130.25
20
-64.625
40
2
50
180
51
270
0
ARC
8
0
10
143.75
20
-46.125
40
2
50
270
51
0
0
ARC
8
0
10
143.75
20
-33.625
40
2
50
0
51
90
0
ARC
8
0
10
130.25
20
-33.625
40
2
50
90
51
180
0
ARC
8
0
10
130.25
20
-46.125
40
2
50
180
51
270
0
ARC
8
0
10
162.25
20
-99.3125
40
2
50
270
51
0
0
ARC
8
0
10
162.25
20
-86.8125
40
2
50
0
51
90
0
ARC
8
0
10
148.75
20
-86.8125
40
2
50
90
51
180
0
ARC
8
0
10
148.75
20
-99.3125
40
2
50
180
51
270
0
ARC
8
0
10
162.25
20
-80.8125
40
2
50
270
51
0
0
ARC
8
0
10
162.25
20
-68.3125
40
2
50
0
51
90
0
ARC
8
0
10
148.75
20
-68.3125
40
2
50
90
51
180
0
ARC
8
0
10
148.75
20
-80.8125
40
2
50
180
51
270
0
ARC
8
0
10
162.25
20
-62.3125
40
2
50
270
51
0
0
ARC
8
0
10
162.25
20
-49.8125
40
2
50
0
51
90
0
ARC
8
0
10
148.75
20
-49.8125
40
2
50
90
51
180
0
ARC
8
0
10
148.75
20
-62.3125
40
2
50
180
51
270
0
ARC
8
0
10
162.25
20
-43.8125
40
2
50
270
51
0
0
ARC
8
0
10
162.25
20
-31.3125
40
2
50
0
51
90
0
ARC
8
0
10
148.75
20
-31.3125
40
2
50
90
51
180
0
ARC
8
0
10
148.75
20
-43.8125
40
2
50
180
51
270
0
ARC
8
0
10
180.75
20
-101.625
40
2
50
270
51
0
0
ARC
8
0
10
180.75
20
-89.125
40
2
50
0
51
90
0
ARC
8
0
10
167.25
20
-89.125
40
2
50
90
51
180
0
ARC
8
0
10
167.25
20
-101.625
40
2
50
180
51
270
0
ARC
8
0
10
180.75
20
-83.125
40
2
50
270
51
0
0
ARC
8
0
10
180.75
20
-70.625
40
2
50
0
51
90
0
ARC
8
0
10
167.25
20
-70.625
40
2
50
90
51
180
0
ARC
8
0
10
167.25
20
-83.125
40
2
50
180
51
270
0
ARC
8
0
10
180.75
20
-64.625
40
2
50
270
51
0
0
ARC
8
0
10
180.75
20
-52.125
40
2
50
0
51
90
0
ARC
8
0
10
167.25
20
-52.125
40
2
50
90
51
180
0
ARC
8
0
10
167.25
20
-64.625
40
2
50
180
51
270
0
ARC
8
0
10
180.75
20
-46.125
40
2
50
270
51
0
0
ARC
8
0
10
180.75
20
-33.625
40
2
50
0
51
90
0
ARC
8
0
10
167.25
20
-33.625
40
2
50
90
51
180
0
ARC
8
0
10
167.25
20
-46.125
40
2
50
180
51
270
0
ARC
8
0
10
199.25
20
-103.9375
40
2
50
270
51
0
0
ARC
8
0
10
199.25
20
-91.4375
40
2
50
0
51
90
0
ARC
8
0
10
185.75
20
-91.4375
40
2
50
90
51
180
0
ARC
8
0
10
185.75
20
-103.9375
40
2
50
180
51
270
0
ARC
8
0
10
199.25
20
-85.4375
40
2
50
270
51
0
0
ARC
8
0
10
199.25
20
-72.9375
40
2
50
0
51
90
0
ARC
8
0
10
185.75
20
-72.9375
40
2
50
90
51
180
0
ARC
8
0
10
185.75
20
-85.4375
40
2
50
180
51
270
0
ARC
8
0
10
199.25
20
-66.9375
40
2
50
270
51
0
0
ARC
8
0
10
199.25
20
-54.4375
40
2
50
0
51
90
0
ARC
8
0
10
185.75
20
-54.4375
40
2
50
90
51
180
0
ARC
8
0
10
185.75
20
-66.9375
40
2
50
180
51
270
0
ARC
8
0
10
199.25
20
-48.4375
40
2
50
270
51
0
0
ARC
8
0
10
199.25
20
-35.9375
40
2
50
0
51
90
0
ARC
8
0
10
185.75
20
-35.9375
40
2
50
90
51
180
0
ARC
8
0
10
185.75
20
-48.4375
40
2
50
180
51
270
0
ARC
8
0
10
171.5
20
-120.8125
40
2
50
270
51
0
0
ARC
8
0
10
171.5
20
-108.3125
40
2
50
0
51
90
0
ARC
8
0
10
158
20
-108.3125
40
2
50
90
51
180
0
ARC
8
0
10
158
20
-120.8125
40
2
50
180
51
270
0
ARC
8
0
10
190.1523803
20
-125.0965649
40
2
50
255.0000021
51
345.0000021
0
ARC
8
0
10
193.3876183
20
-113.0224922
40
2
50
345.0000021
51
75.0000021
0
ARC
8
0
10
180.3476197
20
-109.5284351
40
2
50
75.0000021
51
165.0000021
0
ARC
8
0
10
177.1123817
20
-121.6025078
40
2
50
165.0000021
51
255.0000021
0
LINE
8
0
10
218.9890017
20
-112.7056647
11
208.1636841
21
-106.4556647
0
LINE
8
0
10
195.0386841
20
-129.1888315
11
205.8640017
21
-135.4388315
0
ARC
8
0
10
217.9890017
20
-114.4377155
40
2
50
329.9999999
51
59.9999999
0
ARC
8
0
10
207.1636841
20
-108.1877155
40
2
50
59.9999999
51
149.9999999
0
ARC
8
0
10
196.0386841
20
-127.4567807
40
2
50
149.9999999
51
239.9999999
0
ARC
8
0
10
206.8640017
20
-133.7067807
40
2
50
239.9999999
51
329.9999999
0
LINE
8
0
10
89.865
20
-35.7275396
11
89.867
21
-108.9975396
0
LINE
8
0
10
89.8649741
20
-34.7775393
11
89.865
21
-35.7275396
0
LINE
8
0
10
90.3649606
20
-34.2775257
11
126.3650135
21
-34.2765527
0
LINE
8
0
10
126.865
20
-33.7765527
11
126.865
21
-30.1525
0
LINE
8
0
10
127.365
20
-29.6525
11
144.865
21
-29.6525
0
LINE
8
0
10
145.365
20
-29.1525
11
145.365
21
-27.9595
0
LINE
8
0
10
145.865
20
-27.4595
11
165.293
21
-27.4595
0
LINE
8
0
10
165.793
20
-29.1525
11
165.793
21
-27.9595
0
LINE
8
0
10
166.293
20
-29.6525
11
183.793
21
-29.6525
0
LINE
8
0
10
184.293
20
-31.5831581
11
184.293
21
-30.1525
0
LINE
8
0
10
184.7929594
20
-32.0831581
11
202.2941889
21
-32.0845771
0
LINE
8
0
10
202.7929989
20
-33.5362518
11
202.7941479
21
-32.5851812
0
LINE
8
0
10
202.7703576
20
-52.276896
11
202.7929989
21
-33.5362518
0
LINE
8
0
10
203.2703572
20
-52.7775
11
222.518
21
-52.7775
0
LINE
8
0
10
223.018
20
-113.4770263
11
223.018
21
-53.2775
0
LINE
8
0
10
222.5120415
20
-114.3533721
11
223.018
21
-113.4770263
0
LINE
8
0
10
208.7519894
20
-138.5635762
11
222.5103586
21
-114.3563098
0
LINE
8
0
10
192.302732
20
-129.6478526
11
208.0672938
21
-138.7495266
0
LINE
8
0
10
155.45095
20
-124.7845997
11
192.1176394
21
-129.5850962
0
LINE
8
0
10
145.0172618
20
-110.6516749
11
155.1109704
21
-124.5822015
0
LINE
8
0
10
90.367049
20
-110.4475438
11
144.6123519
21
-110.4450458
0
LINE
8
0
10
89.867
20
-108.9975396
11
89.8670259
21
-109.9475574
0
ARC
8
0
10
90.3649741
20
-34.7775257
40
0.5
50
90.001547
51
450.001547
0
ARC
8
0
10
126.365
20
-33.7765527
40
0.5
50
270.001547
51
630.001547
0
ARC
8
0
10
127.365
20
-30.1525
40
0.5
50
90
51
450
0
ARC
8
0
10
144.865
20
-29.1525
40
0.5
50
270
51
630
0
ARC
8
0
10
145.865
20
-27.9595
40
0.5
50
90
51
450
0
ARC
8
0
10
165.293
20
-27.9595
40
0.5
50
0
51
360
0
ARC
8
0
10
166.293
20
-29.1525
40
0.5
50
180
51
540
0
ARC
8
0
10
183.793
20
-30.1525
40
0.5
50
0
51
360
0
ARC
8
0
10
184.793
20
-31.5831581
40
0.5
50
180
51
540
0
ARC
8
0
10
202.2941483
20
-32.5845771
40
0.5
50
359.9307752
51
89.9953533
0
ARC
8
0
10
203.2703572
20
-52.2775
40
0.5
50
179.930781
51
539.930781
0
ARC
8
0
10
222.518
20
-53.2775
40
0.5
50
0
51
360
0
ARC
8
0
10
222.9450542
20
-114.6033721
40
0.5
50
149.9999999
51
509.9999999
0
ARC
8
0
10
208.3172938
20
-138.3165139
40
0.5
50
239.9999999
51
599.9999999
0
ARC
8
0
10
192.052732
20
-130.0808653
40
0.5
50
59.9999999
51
419.9999999
0
ARC
8
0
10
155.5158574
20
-124.2888306
40
0.5
50
215.9261431
51
575.9261431
0
ARC
8
0
10
144.6123749
20
-110.9450458
40
0.5
50
35.9261431
51
395.9261431
0
ARC
8
0
10
90.3670259
20
-109.9475438
40
0.5
50
180.0015642
51
540.0015642
0
LINE
8
0
10
91.067
20
-108.9975068
11
91.065
21
-35.7275068
0
LINE
8
0
10
91.0649932
20
-35.4775068
11
91.065
21
-35.7275068
0
LINE
8
0
10
91.0649932
20
-35.4775068
11
127.5650135
21
-35.4765203
0
LINE
8
0
10
128.065
20
-34.9765203
11
128.065
21
-30.8525
0
LINE
8
0
10
128.065
20
-30.8525
11
146.065
21
-30.8525
0
LINE
8
0
10
146.565
20
-30.3525
11
146.565
21
-28.6595
0
LINE
8
0
10
146.565
20
-28.6595
11
164.593
21
-28.6595
0
LINE
8
0
10
164.593
20
-30.3525
11
164.593
21
-28.6595
0
LINE
8
0
10
165.093
20
-30.8525
11
183.093
21
-30.8525
0
LINE
8
0
10
183.093
20
-32.7830608
11
183.093
21
-30.8525
0
LINE
8
0
10
183.5929594
20
-33.2830608
11
201.5933022
21
-33.2845203
0
LINE
8
0
10
201.5929998
20
-33.534802
11
201.5933022
21
-33.2845203
0
LINE
8
0
10
201.5929998
20
-33.534802
11
201.568907
21
-53.476896
0
LINE
8
0
10
202.0689066
20
-53.9775
11
221.818
21
-53.9775
0
LINE
8
0
10
221.818
20
-113.1554873
11
221.818
21
-53.9775
0
LINE
8
0
10
221.4707761
20
-113.7568968
11
221.818
21
-113.1554873
0
LINE
8
0
10
208.0569573
20
-137.3579181
11
221.4690932
21
-113.7598345
0
LINE
8
0
10
207.8389799
20
-137.2320689
11
208.0569573
21
-137.3579181
0
LINE
8
0
10
207.8389799
20
-137.2320689
11
192.6956285
21
-128.4890509
0
LINE
8
0
10
155.905752
20
-123.6339028
11
192.5105358
21
-128.4262945
0
LINE
8
0
10
145.6296466
20
-109.4516467
11
155.905752
21
-123.6339028
0
LINE
8
0
10
91.0670068
20
-109.2475115
11
145.2247366
21
-109.2450176
0
LINE
8
0
10
91.067
20
-108.9975068
11
91.0670068
21
-109.2475115
0
ARC
8
0
10
127.565
20
-34.9765203
40
0.5
50
270.001547
51
0
0
ARC
8
0
10
146.065
20
-30.3525
40
0.5
50
270
51
0
0
ARC
8
0
10
165.093
20
-30.3525
40
0.5
50
180
51
270
0
ARC
8
0
10
183.593
20
-32.7830608
40
0.5
50
180
51
269.9953533
0
ARC
8
0
10
202.0689066
20
-53.4775
40
0.5
50
179.930781
51
270
0
ARC
8
0
10
221.9037888
20
-114.0068968
40
0.5
50
149.9999999
51
150.387963
0
ARC
8
0
10
192.4456285
20
-128.9220636
40
0.5
50
59.9999999
51
82.5411155
0
ARC
8
0
10
145.2247596
20
-109.7450176
40
0.5
50
35.9261431
51
90.0026356
0
LINE
8
0
10
93.7169208
20
-106.0973801
11
93.7150792
21
-38.6274353
0
LINE
8
0
10
94.2150657
20
-38.1274216
11
130.2150135
21
-38.1264486
0
LINE
8
0
10
130.715
20
-37.6264486
11
130.715
21
-34.0025
0
LINE
8
0
10
131.215
20
-33.5025
11
148.5576188
21
-33.5025
0
LINE
8
0
10
149.0557556
20
-33.045625
11
149.1665036
21
-31.766375
0
LINE
8
0
10
149.6646404
20
-31.3095
11
161.4933596
21
-31.3095
0
LINE
8
0
10
161.9914964
20
-31.766375
11
162.1022444
21
-33.045625
0
LINE
8
0
10
162.6003812
20
-33.5025
11
180.443
21
-33.5025
0
LINE
8
0
10
180.443
20
-35.4328459
11
180.443
21
-33.5025
0
LINE
8
0
10
180.9429595
20
-35.9328459
11
198.4395352
21
-35.9342646
0
LINE
8
0
10
198.9394943
20
-36.4348686
11
198.9180018
21
-54.2246005
0
LINE
8
0
10
198.9180018
20
-54.2246005
11
198.9157035
21
-56.1268959
0
LINE
8
0
10
199.4157031
20
-56.6275
11
218.668
21
-56.6275
0
LINE
8
0
10
219.168
20
-57.1275
11
219.168
21
-112.4454939
0
LINE
8
0
10
219.168
20
-112.4454939
11
219.1672298
21
-112.446845
0
LINE
8
0
10
219.1672298
20
-112.446845
11
219.1664613
21
-112.4481971
0
LINE
8
0
10
219.1664613
20
-112.4481971
11
207.3201382
21
-133.2912994
0
LINE
8
0
10
193.476982
20
-125.8802091
11
206.6354426
21
-133.4772498
0
LINE
8
0
10
157.59537
20
-121.182497
11
193.476982
21
-125.8802091
0
LINE
8
0
10
146.9819961
20
-106.8015844
11
157.2553904
21
-120.9800988
0
LINE
8
0
10
94.2169438
20
-106.5973665
11
146.5770862
21
-106.5949553
0
ARC
8
0
10
94.2150792
20
-38.6274216
40
0.5
50
90.001547
51
180.0015642
0
ARC
8
0
10
130.215
20
-37.6264486
40
0.5
50
270.001547
51
0
0
ARC
8
0
10
131.215
20
-34.0025
40
0.5
50
90
51
180
0
ARC
8
0
10
148.5576188
20
-33.0025
40
0.5
50
270
51
355.0520913
0
ARC
8
0
10
149.6646404
20
-31.8095
40
0.5
50
90
51
175.0520913
0
ARC
8
0
10
161.4933596
20
-31.8095
40
0.5
50
4.9479087
51
90
0
ARC
8
0
10
162.6003812
20
-33.0025
40
0.5
50
184.9479087
51
270
0
ARC
8
0
10
180.943
20
-35.4328459
40
0.5
50
180
51
269.9953533
0
ARC
8
0
10
198.4394947
20
-36.4342646
40
0.5
50
359.930781
51
89.9953533
0
ARC
8
0
10
199.4157031
20
-56.1275
40
0.5
50
179.9307752
51
270
0
ARC
8
0
10
218.668
20
-57.1275
40
0.5
50
0
51
90
0
ARC
8
0
10
206.8854426
20
-133.0442371
40
0.5
50
239.9999999
51
330.387963
0
ARC
8
0
10
157.6602774
20
-120.6867279
40
0.5
50
215.9261431
51
262.5411155
0
ARC
8
0
10
146.5771092
20
-107.0949553
40
0.5
50
35.9261431
51
90.0026356
0
ARC
8
0
10
94.2169208
20
-106.0973665
40
0.5
50
180.0015642
51
270.0026356
0
ENDSEC
0
EOF