G04 #@! TF.GenerationSoftware,KiCad,Pcbnew,8.0.8+1*
G04 #@! TF.CreationDate,2025-03-02T13:34:42+00:00*
G04 #@! TF.ProjectId,zeph_wireless,7a657068-5f77-4697-9265-6c6573732e6b,0.2*
G04 #@! TF.SameCoordinates,Original*
G04 #@! TF.FileFunction,Copper,L1,Top*
G04 #@! TF.FilePolarity,Positive*
%FSLAX46Y46*%
G04 Gerber Fmt 4.6, Leading zero omitted, Abs format (unit mm)*
G04 Created by KiCad (PCBNEW 8.0.8+1) date 2025-03-02 13:34:42*
%MOMM*%
%LPD*%
G01*
G04 APERTURE LIST*
G04 #@! TA.AperFunction,SMDPad,CuDef*
%ADD10R,1.550000X2.000000*%
G04 #@! TD*
G04 #@! TA.AperFunction,SMDPad,CuDef*
%ADD11R,2.000000X2.000000*%
G04 #@! TD*
G04 #@! TA.AperFunction,SMDPad,CuDef*
%ADD12R,0.900000X1.200000*%
G04 #@! TD*
G04 #@! TA.AperFunction,ComponentPad*
%ADD13C,1.700000*%
G04 #@! TD*
G04 #@! TA.AperFunction,ComponentPad*
%ADD14C,0.800000*%
G04 #@! TD*
G04 #@! TA.AperFunction,SMDPad,CuDef*
%ADD15R,0.600000X1.200000*%
G04 #@! TD*
G04 #@! TA.AperFunction,SMDPad,CuDef*
%ADD16R,1.200000X0.600000*%
G04 #@! TD*
G04 #@! TA.AperFunction,ComponentPad*
%ADD17O,1.700000X1.700000*%
G04 #@! TD*
G04 #@! TA.AperFunction,SMDPad,CuDef*
%ADD18R,0.800000X1.000000*%
G04 #@! TD*
G04 #@! TA.AperFunction,SMDPad,CuDef*
%ADD19R,1.500000X0.700000*%
G04 #@! TD*
G04 #@! TA.AperFunction,SMDPad,CuDef*
%ADD20R,1.550000X1.000000*%
G04 #@! TD*
G04 #@! TA.AperFunction,ComponentPad*
%ADD21O,1.750000X1.200000*%
G04 #@! TD*
G04 #@! TA.AperFunction,Conductor*
%ADD22C,0.250000*%
G04 #@! TD*
G04 APERTURE END LIST*
D10*
X97500000Y-102650000D03*
X102500000Y-102650000D03*
D11*
X93650000Y-94000000D03*
X93650000Y-106000000D03*
X106350000Y-94000000D03*
X106350000Y-106000000D03*
D10*
X97500000Y-84150000D03*
X102500000Y-84150000D03*
D11*
X93650000Y-75500000D03*
X93650000Y-87500000D03*
X106350000Y-75500000D03*
X106350000Y-87500000D03*
D10*
X97500000Y-65650000D03*
X102500000Y-65650000D03*
D11*
X93650000Y-57000000D03*
X93650000Y-69000000D03*
X106350000Y-57000000D03*
X106350000Y-69000000D03*
D10*
X97500000Y-47150000D03*
X102500000Y-47150000D03*
D11*
X93650000Y-38500000D03*
X93650000Y-50500000D03*
X106350000Y-38500000D03*
X106350000Y-50500000D03*
D10*
X116000000Y-102650000D03*
X121000000Y-102650000D03*
D11*
X112150000Y-94000000D03*
X112150000Y-106000000D03*
X124850000Y-94000000D03*
X124850000Y-106000000D03*
D10*
X116000000Y-84150000D03*
X121000000Y-84150000D03*
D11*
X112150000Y-75500000D03*
X112150000Y-87500000D03*
X124850000Y-75500000D03*
X124850000Y-87500000D03*
D10*
X116000000Y-65650000D03*
X121000000Y-65650000D03*
D11*
X112150000Y-57000000D03*
X112150000Y-69000000D03*
X124850000Y-57000000D03*
X124850000Y-69000000D03*
D10*
X116000000Y-47150000D03*
X121000000Y-47150000D03*
D11*
X112150000Y-38500000D03*
X112150000Y-50500000D03*
X124850000Y-38500000D03*
X124850000Y-50500000D03*
D10*
X134500000Y-98025000D03*
X139500000Y-98025000D03*
D11*
X130650000Y-89375000D03*
X130650000Y-101375000D03*
X143350000Y-89375000D03*
X143350000Y-101375000D03*
D10*
X134500000Y-79525000D03*
X139500000Y-79525000D03*
D11*
X130650000Y-70875000D03*
X130650000Y-82875000D03*
X143350000Y-70875000D03*
X143350000Y-82875000D03*
D10*
X134500000Y-61025000D03*
X139500000Y-61025000D03*
D11*
X130650000Y-52375000D03*
X130650000Y-64375000D03*
X143350000Y-52375000D03*
X143350000Y-64375000D03*
D10*
X134500000Y-42525000D03*
X139500000Y-42525000D03*
D11*
X130650000Y-33875000D03*
X130650000Y-45875000D03*
X143350000Y-33875000D03*
X143350000Y-45875000D03*
D10*
X153000000Y-95712500D03*
X158000000Y-95712500D03*
D11*
X149150000Y-87062500D03*
X149150000Y-99062500D03*
X161850000Y-87062500D03*
X161850000Y-99062500D03*
D10*
X153000000Y-77212500D03*
X158000000Y-77212500D03*
D11*
X149150000Y-68562500D03*
X149150000Y-80562500D03*
X161850000Y-68562500D03*
X161850000Y-80562500D03*
D10*
X153000000Y-58712500D03*
X158000000Y-58712500D03*
D11*
X149150000Y-50062500D03*
X149150000Y-62062500D03*
X161850000Y-50062500D03*
X161850000Y-62062500D03*
D10*
X153000000Y-40212500D03*
X158000000Y-40212500D03*
D11*
X149150000Y-31562500D03*
X149150000Y-43562500D03*
X161850000Y-31562500D03*
X161850000Y-43562500D03*
D10*
X171500000Y-98025000D03*
X176500000Y-98025000D03*
D11*
X167650000Y-89375000D03*
X167650000Y-101375000D03*
X180350000Y-89375000D03*
X180350000Y-101375000D03*
D10*
X171500000Y-79525000D03*
X176500000Y-79525000D03*
D11*
X167650000Y-70875000D03*
X167650000Y-82875000D03*
X180350000Y-70875000D03*
X180350000Y-82875000D03*
D10*
X171500000Y-61025000D03*
X176500000Y-61025000D03*
D11*
X167650000Y-52375000D03*
X167650000Y-64375000D03*
X180350000Y-52375000D03*
X180350000Y-64375000D03*
D10*
X171500000Y-42525000D03*
X176500000Y-42525000D03*
D11*
X167650000Y-33875000D03*
X167650000Y-45875000D03*
X180350000Y-33875000D03*
X180350000Y-45875000D03*
D10*
X190000000Y-100337500D03*
X195000000Y-100337500D03*
D11*
X186150000Y-91687500D03*
X186150000Y-103687500D03*
X198850000Y-91687500D03*
X198850000Y-103687500D03*
D10*
X190000000Y-81837500D03*
X195000000Y-81837500D03*
D11*
X186150000Y-73187500D03*
X186150000Y-85187500D03*
X198850000Y-73187500D03*
X198850000Y-85187500D03*
D10*
X190000000Y-63337500D03*
X195000000Y-63337500D03*
D11*
X186150000Y-54687500D03*
X186150000Y-66687500D03*
X198850000Y-54687500D03*
X198850000Y-66687500D03*
D10*
X190000000Y-44837500D03*
X195000000Y-44837500D03*
D11*
X186150000Y-36187500D03*
X186150000Y-48187500D03*
X198850000Y-36187500D03*
X198850000Y-48187500D03*
D10*
X162250000Y-117212500D03*
X167250000Y-117212500D03*
D11*
X158400000Y-108562500D03*
X158400000Y-120562500D03*
X171100000Y-108562500D03*
X171100000Y-120562500D03*
G04 #@! TA.AperFunction,SMDPad,CuDef*
G36*
X181141903Y-119990497D02*
G01*
X181659542Y-118058645D01*
X183156727Y-118459815D01*
X182639088Y-120391667D01*
X181141903Y-119990497D01*
G37*
G04 #@! TD.AperFunction*
G04 #@! TA.AperFunction,SMDPad,CuDef*
G36*
X185971532Y-121284592D02*
G01*
X186489171Y-119352740D01*
X187986356Y-119753910D01*
X187468717Y-121685762D01*
X185971532Y-121284592D01*
G37*
G04 #@! TD.AperFunction*
G04 #@! TA.AperFunction,SMDPad,CuDef*
G36*
X179444540Y-110580551D02*
G01*
X179962178Y-108648699D01*
X181894030Y-109166337D01*
X181376392Y-111098189D01*
X179444540Y-110580551D01*
G37*
G04 #@! TD.AperFunction*
G04 #@! TA.AperFunction,SMDPad,CuDef*
G36*
X176338712Y-122171661D02*
G01*
X176856350Y-120239809D01*
X178788202Y-120757447D01*
X178270564Y-122689299D01*
X176338712Y-122171661D01*
G37*
G04 #@! TD.AperFunction*
G04 #@! TA.AperFunction,SMDPad,CuDef*
G36*
X191711798Y-113867553D02*
G01*
X192229436Y-111935701D01*
X194161288Y-112453339D01*
X193643650Y-114385191D01*
X191711798Y-113867553D01*
G37*
G04 #@! TD.AperFunction*
G04 #@! TA.AperFunction,SMDPad,CuDef*
G36*
X188605970Y-125458663D02*
G01*
X189123608Y-123526811D01*
X191055460Y-124044449D01*
X190537822Y-125976301D01*
X188605970Y-125458663D01*
G37*
G04 #@! TD.AperFunction*
G04 #@! TA.AperFunction,SMDPad,CuDef*
G36*
X208537335Y-125608482D02*
G01*
X206805285Y-124608482D01*
X207580285Y-123266142D01*
X209312335Y-124266142D01*
X208537335Y-125608482D01*
G37*
G04 #@! TD.AperFunction*
G04 #@! TA.AperFunction,SMDPad,CuDef*
G36*
X211037335Y-121278354D02*
G01*
X209305285Y-120278354D01*
X210080285Y-118936014D01*
X211812335Y-119936014D01*
X211037335Y-121278354D01*
G37*
G04 #@! TD.AperFunction*
G04 #@! TA.AperFunction,SMDPad,CuDef*
G36*
X199008716Y-124812534D02*
G01*
X197276666Y-123812534D01*
X198276666Y-122080484D01*
X200008716Y-123080484D01*
X199008716Y-124812534D01*
G37*
G04 #@! TD.AperFunction*
G04 #@! TA.AperFunction,SMDPad,CuDef*
G36*
X209401020Y-130812534D02*
G01*
X207668970Y-129812534D01*
X208668970Y-128080484D01*
X210401020Y-129080484D01*
X209401020Y-130812534D01*
G37*
G04 #@! TD.AperFunction*
G04 #@! TA.AperFunction,SMDPad,CuDef*
G36*
X205358716Y-113814012D02*
G01*
X203626666Y-112814012D01*
X204626666Y-111081962D01*
X206358716Y-112081962D01*
X205358716Y-113814012D01*
G37*
G04 #@! TD.AperFunction*
G04 #@! TA.AperFunction,SMDPad,CuDef*
G36*
X215751020Y-119814012D02*
G01*
X214018970Y-118814012D01*
X215018970Y-117081962D01*
X216751020Y-118081962D01*
X215751020Y-119814012D01*
G37*
G04 #@! TD.AperFunction*
D12*
X98850000Y-97500000D03*
X102150000Y-97500000D03*
X98850000Y-79000000D03*
X102150000Y-79000000D03*
X98850000Y-60500000D03*
X102150000Y-60500000D03*
X98850000Y-42000000D03*
X102150000Y-42000000D03*
X117350000Y-97500000D03*
X120650000Y-97500000D03*
X117350000Y-79000000D03*
X120650000Y-79000000D03*
X117350000Y-60500000D03*
X120650000Y-60500000D03*
X117350000Y-42000000D03*
X120650000Y-42000000D03*
X135850000Y-92875000D03*
X139150000Y-92875000D03*
X135850000Y-74375000D03*
X139150000Y-74375000D03*
X135850000Y-55875000D03*
X139150000Y-55875000D03*
X135850000Y-37375000D03*
X139150000Y-37375000D03*
X154350000Y-90562500D03*
X157650000Y-90562500D03*
X154350000Y-72062500D03*
X157650000Y-72062500D03*
X154350000Y-53562500D03*
X157650000Y-53562500D03*
X154350000Y-35062500D03*
X157650000Y-35062500D03*
X172850000Y-92875000D03*
X176150000Y-92875000D03*
X172850000Y-74375000D03*
X176150000Y-74375000D03*
X172850000Y-55875000D03*
X176150000Y-55875000D03*
X172850000Y-37375000D03*
X176150000Y-37375000D03*
X191350000Y-95187500D03*
X194650000Y-95187500D03*
X191350000Y-76687500D03*
X194650000Y-76687500D03*
X191350000Y-58187500D03*
X194650000Y-58187500D03*
X191350000Y-39687500D03*
X194650000Y-39687500D03*
X163600000Y-112062500D03*
X166900000Y-112062500D03*
G04 #@! TA.AperFunction,SMDPad,CuDef*
G36*
X184196275Y-115063131D02*
G01*
X184506858Y-113904020D01*
X185376191Y-114136957D01*
X185065608Y-115296068D01*
X184196275Y-115063131D01*
G37*
G04 #@! TD.AperFunction*
G04 #@! TA.AperFunction,SMDPad,CuDef*
G36*
X187383831Y-115917233D02*
G01*
X187694414Y-114758122D01*
X188563747Y-114991059D01*
X188253164Y-116150170D01*
X187383831Y-115917233D01*
G37*
G04 #@! TD.AperFunction*
G04 #@! TA.AperFunction,SMDPad,CuDef*
G36*
X204568394Y-121382888D02*
G01*
X203529164Y-120782888D01*
X203979164Y-120003466D01*
X205018394Y-120603466D01*
X204568394Y-121382888D01*
G37*
G04 #@! TD.AperFunction*
G04 #@! TA.AperFunction,SMDPad,CuDef*
G36*
X206218394Y-118525004D02*
G01*
X205179164Y-117925004D01*
X205629164Y-117145582D01*
X206668394Y-117745582D01*
X206218394Y-118525004D01*
G37*
G04 #@! TD.AperFunction*
D13*
X204584000Y-59420000D03*
X219824000Y-59420000D03*
D14*
X208804000Y-59420000D03*
X215604000Y-59420000D03*
D15*
X206724000Y-59420000D03*
X207624000Y-59420000D03*
X216784000Y-59420000D03*
X217684000Y-59420000D03*
D13*
X204584000Y-61960000D03*
X219824000Y-61960000D03*
D14*
X208804000Y-61960000D03*
X215604000Y-61960000D03*
D15*
X206724000Y-61960000D03*
X207624000Y-61960000D03*
X216784000Y-61960000D03*
X217684000Y-61960000D03*
D13*
X204584000Y-64500000D03*
X219824000Y-64500000D03*
D14*
X208804000Y-64500000D03*
X215604000Y-64500000D03*
D15*
X206724000Y-64500000D03*
X207624000Y-64500000D03*
X216784000Y-64500000D03*
X217684000Y-64500000D03*
D13*
X204584000Y-67040000D03*
X219824000Y-67040000D03*
D14*
X208804000Y-67040000D03*
X215604000Y-67040000D03*
D15*
X206724000Y-67040000D03*
X207624000Y-67040000D03*
X216784000Y-67040000D03*
X217684000Y-67040000D03*
D13*
X204584000Y-69580000D03*
X219824000Y-69580000D03*
D14*
X208804000Y-69580000D03*
X215604000Y-69580000D03*
D15*
X206724000Y-69580000D03*
X207624000Y-69580000D03*
X216784000Y-69580000D03*
X217684000Y-69580000D03*
D13*
X204584000Y-72120000D03*
X219824000Y-72120000D03*
D14*
X208804000Y-72120000D03*
X215604000Y-72120000D03*
D15*
X206724000Y-72120000D03*
X207624000Y-72120000D03*
X216784000Y-72120000D03*
X217684000Y-72120000D03*
D13*
X204584000Y-74660000D03*
X219824000Y-74660000D03*
D14*
X208804000Y-74660000D03*
X215604000Y-74660000D03*
D15*
X206724000Y-74660000D03*
X207624000Y-74660000D03*
X216784000Y-74660000D03*
X217684000Y-74660000D03*
D13*
X204584000Y-77200000D03*
X219824000Y-77200000D03*
D14*
X208804000Y-77200000D03*
X215604000Y-77200000D03*
D15*
X206724000Y-77200000D03*
X207624000Y-77200000D03*
X216784000Y-77200000D03*
X217684000Y-77200000D03*
D13*
X204584000Y-79740000D03*
X219824000Y-79740000D03*
D14*
X208804000Y-79740000D03*
X215604000Y-79740000D03*
D15*
X206724000Y-79740000D03*
X207624000Y-79740000D03*
X216784000Y-79740000D03*
X217684000Y-79740000D03*
D13*
X204584000Y-82280000D03*
X219824000Y-82280000D03*
D14*
X208804000Y-82280000D03*
X215604000Y-82280000D03*
D15*
X206724000Y-82280000D03*
X207624000Y-82280000D03*
X216784000Y-82280000D03*
X217684000Y-82280000D03*
D13*
X204584000Y-84820000D03*
X219824000Y-84820000D03*
D14*
X208804000Y-84820000D03*
X215604000Y-84820000D03*
D15*
X206724000Y-84820000D03*
X207624000Y-84820000D03*
X216784000Y-84820000D03*
X217684000Y-84820000D03*
D13*
X204584000Y-87360000D03*
X219824000Y-87360000D03*
D14*
X208804000Y-87360000D03*
X215604000Y-87360000D03*
D15*
X206724000Y-87360000D03*
X207624000Y-87360000D03*
X216784000Y-87360000D03*
X217684000Y-87360000D03*
D16*
X206817000Y-92950000D03*
X209357000Y-92950000D03*
X214437000Y-92950000D03*
X216977000Y-92950000D03*
X206817000Y-93850000D03*
X209357000Y-93850000D03*
X214437000Y-93850000D03*
X216977000Y-93850000D03*
D17*
X206817000Y-91200000D03*
X209357000Y-91200000D03*
X211897000Y-91200000D03*
X214437000Y-91200000D03*
D13*
X216977000Y-91200000D03*
D18*
X220875000Y-96600000D03*
X218665000Y-96600000D03*
X218665000Y-103900000D03*
X220875000Y-103900000D03*
D19*
X218015000Y-102500000D03*
X218015000Y-99500000D03*
X218015000Y-98000000D03*
D20*
X214829000Y-55497500D03*
X214829000Y-57197500D03*
X209579000Y-55497500D03*
X209579000Y-57197500D03*
D21*
X209000000Y-100000000D03*
X209000000Y-98000000D03*
G04 #@! TA.AperFunction,SMDPad,CuDef*
G36*
X210600000Y-100600000D02*
G01*
X210400000Y-100600000D01*
X210400000Y-99400000D01*
X210600000Y-99400000D01*
X211200000Y-100000000D01*
X210600000Y-100600000D01*
G37*
G04 #@! TD.AperFunction*
G04 #@! TA.AperFunction,SMDPad,CuDef*
G36*
X210600000Y-98600000D02*
G01*
X210400000Y-98600000D01*
X210400000Y-97400000D01*
X210600000Y-97400000D01*
X211200000Y-98000000D01*
X210600000Y-98600000D01*
G37*
G04 #@! TD.AperFunction*
G04 #@! TA.AperFunction,SMDPad,CuDef*
G36*
X210816000Y-100600000D02*
G01*
X211416000Y-100000000D01*
X210816000Y-99400000D01*
X212066000Y-99400000D01*
X212066000Y-100600000D01*
X210816000Y-100600000D01*
G37*
G04 #@! TD.AperFunction*
G04 #@! TA.AperFunction,SMDPad,CuDef*
G36*
X210816000Y-98600000D02*
G01*
X211416000Y-98000000D01*
X210816000Y-97400000D01*
X212066000Y-97400000D01*
X212066000Y-98600000D01*
X210816000Y-98600000D01*
G37*
G04 #@! TD.AperFunction*
D22*
X216784000Y-59420000D02*
X215604000Y-59420000D01*
X207624000Y-59420000D02*
X208804000Y-59420000D01*
X204584000Y-59420000D02*
X206704000Y-59420000D01*
X217704000Y-59420000D02*
X219824000Y-59420000D01*
X216784000Y-61960000D02*
X215604000Y-61960000D01*
X207624000Y-61960000D02*
X208804000Y-61960000D01*
X204584000Y-61960000D02*
X206704000Y-61960000D01*
X217704000Y-61960000D02*
X219824000Y-61960000D01*
X216784000Y-64500000D02*
X215604000Y-64500000D01*
X207624000Y-64500000D02*
X208804000Y-64500000D01*
X204584000Y-64500000D02*
X206704000Y-64500000D01*
X217704000Y-64500000D02*
X219824000Y-64500000D01*
X216784000Y-67040000D02*
X215604000Y-67040000D01*
X207624000Y-67040000D02*
X208804000Y-67040000D01*
X204584000Y-67040000D02*
X206704000Y-67040000D01*
X217704000Y-67040000D02*
X219824000Y-67040000D01*
X216784000Y-69580000D02*
X215604000Y-69580000D01*
X207624000Y-69580000D02*
X208804000Y-69580000D01*
X204584000Y-69580000D02*
X206704000Y-69580000D01*
X217704000Y-69580000D02*
X219824000Y-69580000D01*
X216784000Y-72120000D02*
X215604000Y-72120000D01*
X207624000Y-72120000D02*
X208804000Y-72120000D01*
X204584000Y-72120000D02*
X206704000Y-72120000D01*
X217704000Y-72120000D02*
X219824000Y-72120000D01*
X216784000Y-74660000D02*
X215604000Y-74660000D01*
X207624000Y-74660000D02*
X208804000Y-74660000D01*
X204584000Y-74660000D02*
X206704000Y-74660000D01*
X217704000Y-74660000D02*
X219824000Y-74660000D01*
X216784000Y-77200000D02*
X215604000Y-77200000D01*
X207624000Y-77200000D02*
X208804000Y-77200000D01*
X204584000Y-77200000D02*
X206704000Y-77200000D01*
X217704000Y-77200000D02*
X219824000Y-77200000D01*
X216784000Y-79740000D02*
X215604000Y-79740000D01*
X207624000Y-79740000D02*
X208804000Y-79740000D01*
X204584000Y-79740000D02*
X206704000Y-79740000D01*
X217704000Y-79740000D02*
X219824000Y-79740000D01*
X216784000Y-82280000D02*
X215604000Y-82280000D01*
X207624000Y-82280000D02*
X208804000Y-82280000D01*
X204584000Y-82280000D02*
X206704000Y-82280000D01*
X217704000Y-82280000D02*
X219824000Y-82280000D01*
X216784000Y-84820000D02*
X215604000Y-84820000D01*
X207624000Y-84820000D02*
X208804000Y-84820000D01*
X204584000Y-84820000D02*
X206704000Y-84820000D01*
X217704000Y-84820000D02*
X219824000Y-84820000D01*
X216784000Y-87360000D02*
X215604000Y-87360000D01*
X207624000Y-87360000D02*
X208804000Y-87360000D01*
X204584000Y-87360000D02*
X206704000Y-87360000D01*
X217704000Y-87360000D02*
X219824000Y-87360000D01*
X206817000Y-91200000D02*
X206817000Y-92950000D01*
X209357000Y-91200000D02*
X209357000Y-92950000D01*
X214437000Y-91200000D02*
X214437000Y-92950000D01*
X216977000Y-91200000D02*
X216977000Y-92950000D01*
X210800000Y-100000000D02*
X209000000Y-100000000D01*
X210800000Y-98000000D02*
X209000000Y-98000000D01*
M02*
