G04 #@! TF.GenerationSoftware,KiCad,Pcbnew,8.0.8+1*
G04 #@! TF.CreationDate,2025-03-02T13:34:42+00:00*
G04 #@! TF.ProjectId,zeph_wireless,7a657068-5f77-4697-9265-6c6573732e6b,0.2*
G04 #@! TF.SameCoordinates,Original*
G04 #@! TF.FileFunction,Legend,Top*
G04 #@! TF.FilePolarity,Positive*
%FSLAX46Y46*%
G04 Gerber Fmt 4.6, Leading zero omitted, Abs format (unit mm)*
G04 Created by KiCad (PCBNEW 8.0.8+1) date 2025-03-02 13:34:42*
%MOMM*%
%LPD*%
G01*
G04 APERTURE LIST*
%ADD10C,0.150000*%
%ADD11C,0.120000*%
%ADD12C,0.100000*%
%ADD13C,2.300000*%
%ADD14C,3.550000*%
%ADD15C,1.100000*%
%ADD16C,1.300000*%
%ADD17C,1.800000*%
%ADD18C,0.900000*%
%ADD19O,1.800000X1.800000*%
%ADD20C,1.000000*%
%ADD21C,0.850000*%
%ADD22O,1.850000X1.300000*%
G04 APERTURE END LIST*
D10*
X133380952Y-106854819D02*
X134047618Y-106854819D01*
X134047618Y-106854819D02*
X133380952Y-107854819D01*
X133380952Y-107854819D02*
X134047618Y-107854819D01*
X134809523Y-107807200D02*
X134714285Y-107854819D01*
X134714285Y-107854819D02*
X134523809Y-107854819D01*
X134523809Y-107854819D02*
X134428571Y-107807200D01*
X134428571Y-107807200D02*
X134380952Y-107711961D01*
X134380952Y-107711961D02*
X134380952Y-107331009D01*
X134380952Y-107331009D02*
X134428571Y-107235771D01*
X134428571Y-107235771D02*
X134523809Y-107188152D01*
X134523809Y-107188152D02*
X134714285Y-107188152D01*
X134714285Y-107188152D02*
X134809523Y-107235771D01*
X134809523Y-107235771D02*
X134857142Y-107331009D01*
X134857142Y-107331009D02*
X134857142Y-107426247D01*
X134857142Y-107426247D02*
X134380952Y-107521485D01*
X135285714Y-107188152D02*
X135285714Y-108188152D01*
X135285714Y-107235771D02*
X135380952Y-107188152D01*
X135380952Y-107188152D02*
X135571428Y-107188152D01*
X135571428Y-107188152D02*
X135666666Y-107235771D01*
X135666666Y-107235771D02*
X135714285Y-107283390D01*
X135714285Y-107283390D02*
X135761904Y-107378628D01*
X135761904Y-107378628D02*
X135761904Y-107664342D01*
X135761904Y-107664342D02*
X135714285Y-107759580D01*
X135714285Y-107759580D02*
X135666666Y-107807200D01*
X135666666Y-107807200D02*
X135571428Y-107854819D01*
X135571428Y-107854819D02*
X135380952Y-107854819D01*
X135380952Y-107854819D02*
X135285714Y-107807200D01*
X136190476Y-107854819D02*
X136190476Y-106854819D01*
X136619047Y-107854819D02*
X136619047Y-107331009D01*
X136619047Y-107331009D02*
X136571428Y-107235771D01*
X136571428Y-107235771D02*
X136476190Y-107188152D01*
X136476190Y-107188152D02*
X136333333Y-107188152D01*
X136333333Y-107188152D02*
X136238095Y-107235771D01*
X136238095Y-107235771D02*
X136190476Y-107283390D01*
X137761905Y-107188152D02*
X138000000Y-107854819D01*
X138000000Y-107854819D02*
X138238095Y-107188152D01*
X139142857Y-107854819D02*
X138571429Y-107854819D01*
X138857143Y-107854819D02*
X138857143Y-106854819D01*
X138857143Y-106854819D02*
X138761905Y-106997676D01*
X138761905Y-106997676D02*
X138666667Y-107092914D01*
X138666667Y-107092914D02*
X138571429Y-107140533D01*
X139571429Y-107759580D02*
X139619048Y-107807200D01*
X139619048Y-107807200D02*
X139571429Y-107854819D01*
X139571429Y-107854819D02*
X139523810Y-107807200D01*
X139523810Y-107807200D02*
X139571429Y-107759580D01*
X139571429Y-107759580D02*
X139571429Y-107854819D01*
X140238095Y-106854819D02*
X140333333Y-106854819D01*
X140333333Y-106854819D02*
X140428571Y-106902438D01*
X140428571Y-106902438D02*
X140476190Y-106950057D01*
X140476190Y-106950057D02*
X140523809Y-107045295D01*
X140523809Y-107045295D02*
X140571428Y-107235771D01*
X140571428Y-107235771D02*
X140571428Y-107473866D01*
X140571428Y-107473866D02*
X140523809Y-107664342D01*
X140523809Y-107664342D02*
X140476190Y-107759580D01*
X140476190Y-107759580D02*
X140428571Y-107807200D01*
X140428571Y-107807200D02*
X140333333Y-107854819D01*
X140333333Y-107854819D02*
X140238095Y-107854819D01*
X140238095Y-107854819D02*
X140142857Y-107807200D01*
X140142857Y-107807200D02*
X140095238Y-107759580D01*
X140095238Y-107759580D02*
X140047619Y-107664342D01*
X140047619Y-107664342D02*
X140000000Y-107473866D01*
X140000000Y-107473866D02*
X140000000Y-107235771D01*
X140000000Y-107235771D02*
X140047619Y-107045295D01*
X140047619Y-107045295D02*
X140095238Y-106950057D01*
X140095238Y-106950057D02*
X140142857Y-106902438D01*
X140142857Y-106902438D02*
X140238095Y-106854819D01*
X210063523Y-59874819D02*
X209730190Y-59398628D01*
X209492095Y-59874819D02*
X209492095Y-58874819D01*
X209492095Y-58874819D02*
X209873047Y-58874819D01*
X209873047Y-58874819D02*
X209968285Y-58922438D01*
X209968285Y-58922438D02*
X210015904Y-58970057D01*
X210015904Y-58970057D02*
X210063523Y-59065295D01*
X210063523Y-59065295D02*
X210063523Y-59208152D01*
X210063523Y-59208152D02*
X210015904Y-59303390D01*
X210015904Y-59303390D02*
X209968285Y-59351009D01*
X209968285Y-59351009D02*
X209873047Y-59398628D01*
X209873047Y-59398628D02*
X209492095Y-59398628D01*
X210444476Y-59589104D02*
X210920666Y-59589104D01*
X210349238Y-59874819D02*
X210682571Y-58874819D01*
X210682571Y-58874819D02*
X211015904Y-59874819D01*
X211254000Y-58874819D02*
X211492095Y-59874819D01*
X211492095Y-59874819D02*
X211682571Y-59160533D01*
X211682571Y-59160533D02*
X211873047Y-59874819D01*
X211873047Y-59874819D02*
X212111143Y-58874819D01*
X213011142Y-59874819D02*
X212534952Y-59874819D01*
X212534952Y-59874819D02*
X212534952Y-58874819D01*
X213344476Y-59351009D02*
X213677809Y-59351009D01*
X213820666Y-59874819D02*
X213344476Y-59874819D01*
X213344476Y-59874819D02*
X213344476Y-58874819D01*
X213344476Y-58874819D02*
X213820666Y-58874819D01*
X214249238Y-59874819D02*
X214249238Y-58874819D01*
X214249238Y-58874819D02*
X214487333Y-58874819D01*
X214487333Y-58874819D02*
X214630190Y-58922438D01*
X214630190Y-58922438D02*
X214725428Y-59017676D01*
X214725428Y-59017676D02*
X214773047Y-59112914D01*
X214773047Y-59112914D02*
X214820666Y-59303390D01*
X214820666Y-59303390D02*
X214820666Y-59446247D01*
X214820666Y-59446247D02*
X214773047Y-59636723D01*
X214773047Y-59636723D02*
X214725428Y-59731961D01*
X214725428Y-59731961D02*
X214630190Y-59827200D01*
X214630190Y-59827200D02*
X214487333Y-59874819D01*
X214487333Y-59874819D02*
X214249238Y-59874819D01*
X209992095Y-61462438D02*
X209896857Y-61414819D01*
X209896857Y-61414819D02*
X209754000Y-61414819D01*
X209754000Y-61414819D02*
X209611143Y-61462438D01*
X209611143Y-61462438D02*
X209515905Y-61557676D01*
X209515905Y-61557676D02*
X209468286Y-61652914D01*
X209468286Y-61652914D02*
X209420667Y-61843390D01*
X209420667Y-61843390D02*
X209420667Y-61986247D01*
X209420667Y-61986247D02*
X209468286Y-62176723D01*
X209468286Y-62176723D02*
X209515905Y-62271961D01*
X209515905Y-62271961D02*
X209611143Y-62367200D01*
X209611143Y-62367200D02*
X209754000Y-62414819D01*
X209754000Y-62414819D02*
X209849238Y-62414819D01*
X209849238Y-62414819D02*
X209992095Y-62367200D01*
X209992095Y-62367200D02*
X210039714Y-62319580D01*
X210039714Y-62319580D02*
X210039714Y-61986247D01*
X210039714Y-61986247D02*
X209849238Y-61986247D01*
X210468286Y-62414819D02*
X210468286Y-61414819D01*
X210468286Y-61414819D02*
X211039714Y-62414819D01*
X211039714Y-62414819D02*
X211039714Y-61414819D01*
X211515905Y-62414819D02*
X211515905Y-61414819D01*
X211515905Y-61414819D02*
X211754000Y-61414819D01*
X211754000Y-61414819D02*
X211896857Y-61462438D01*
X211896857Y-61462438D02*
X211992095Y-61557676D01*
X211992095Y-61557676D02*
X212039714Y-61652914D01*
X212039714Y-61652914D02*
X212087333Y-61843390D01*
X212087333Y-61843390D02*
X212087333Y-61986247D01*
X212087333Y-61986247D02*
X212039714Y-62176723D01*
X212039714Y-62176723D02*
X211992095Y-62271961D01*
X211992095Y-62271961D02*
X211896857Y-62367200D01*
X211896857Y-62367200D02*
X211754000Y-62414819D01*
X211754000Y-62414819D02*
X211515905Y-62414819D01*
X212582571Y-62414819D02*
X212582571Y-61414819D01*
X212582571Y-61414819D02*
X212820666Y-61414819D01*
X212820666Y-61414819D02*
X212963523Y-61462438D01*
X212963523Y-61462438D02*
X213058761Y-61557676D01*
X213058761Y-61557676D02*
X213106380Y-61652914D01*
X213106380Y-61652914D02*
X213153999Y-61843390D01*
X213153999Y-61843390D02*
X213153999Y-61986247D01*
X213153999Y-61986247D02*
X213106380Y-62176723D01*
X213106380Y-62176723D02*
X213058761Y-62271961D01*
X213058761Y-62271961D02*
X212963523Y-62367200D01*
X212963523Y-62367200D02*
X212820666Y-62414819D01*
X212820666Y-62414819D02*
X212582571Y-62414819D01*
X213534952Y-62129104D02*
X214011142Y-62129104D01*
X213439714Y-62414819D02*
X213773047Y-61414819D01*
X213773047Y-61414819D02*
X214106380Y-62414819D01*
X214296857Y-61414819D02*
X214868285Y-61414819D01*
X214582571Y-62414819D02*
X214582571Y-61414819D01*
X210206380Y-64954819D02*
X209873047Y-64478628D01*
X209634952Y-64954819D02*
X209634952Y-63954819D01*
X209634952Y-63954819D02*
X210015904Y-63954819D01*
X210015904Y-63954819D02*
X210111142Y-64002438D01*
X210111142Y-64002438D02*
X210158761Y-64050057D01*
X210158761Y-64050057D02*
X210206380Y-64145295D01*
X210206380Y-64145295D02*
X210206380Y-64288152D01*
X210206380Y-64288152D02*
X210158761Y-64383390D01*
X210158761Y-64383390D02*
X210111142Y-64431009D01*
X210111142Y-64431009D02*
X210015904Y-64478628D01*
X210015904Y-64478628D02*
X209634952Y-64478628D01*
X210587333Y-64907200D02*
X210730190Y-64954819D01*
X210730190Y-64954819D02*
X210968285Y-64954819D01*
X210968285Y-64954819D02*
X211063523Y-64907200D01*
X211063523Y-64907200D02*
X211111142Y-64859580D01*
X211111142Y-64859580D02*
X211158761Y-64764342D01*
X211158761Y-64764342D02*
X211158761Y-64669104D01*
X211158761Y-64669104D02*
X211111142Y-64573866D01*
X211111142Y-64573866D02*
X211063523Y-64526247D01*
X211063523Y-64526247D02*
X210968285Y-64478628D01*
X210968285Y-64478628D02*
X210777809Y-64431009D01*
X210777809Y-64431009D02*
X210682571Y-64383390D01*
X210682571Y-64383390D02*
X210634952Y-64335771D01*
X210634952Y-64335771D02*
X210587333Y-64240533D01*
X210587333Y-64240533D02*
X210587333Y-64145295D01*
X210587333Y-64145295D02*
X210634952Y-64050057D01*
X210634952Y-64050057D02*
X210682571Y-64002438D01*
X210682571Y-64002438D02*
X210777809Y-63954819D01*
X210777809Y-63954819D02*
X211015904Y-63954819D01*
X211015904Y-63954819D02*
X211158761Y-64002438D01*
X211444476Y-63954819D02*
X212015904Y-63954819D01*
X211730190Y-64954819D02*
X211730190Y-63954819D01*
X212892095Y-64002438D02*
X212796857Y-63954819D01*
X212796857Y-63954819D02*
X212654000Y-63954819D01*
X212654000Y-63954819D02*
X212511143Y-64002438D01*
X212511143Y-64002438D02*
X212415905Y-64097676D01*
X212415905Y-64097676D02*
X212368286Y-64192914D01*
X212368286Y-64192914D02*
X212320667Y-64383390D01*
X212320667Y-64383390D02*
X212320667Y-64526247D01*
X212320667Y-64526247D02*
X212368286Y-64716723D01*
X212368286Y-64716723D02*
X212415905Y-64811961D01*
X212415905Y-64811961D02*
X212511143Y-64907200D01*
X212511143Y-64907200D02*
X212654000Y-64954819D01*
X212654000Y-64954819D02*
X212749238Y-64954819D01*
X212749238Y-64954819D02*
X212892095Y-64907200D01*
X212892095Y-64907200D02*
X212939714Y-64859580D01*
X212939714Y-64859580D02*
X212939714Y-64526247D01*
X212939714Y-64526247D02*
X212749238Y-64526247D01*
X213368286Y-64954819D02*
X213368286Y-63954819D01*
X213368286Y-63954819D02*
X213939714Y-64954819D01*
X213939714Y-64954819D02*
X213939714Y-63954819D01*
X214415905Y-64954819D02*
X214415905Y-63954819D01*
X214415905Y-63954819D02*
X214654000Y-63954819D01*
X214654000Y-63954819D02*
X214796857Y-64002438D01*
X214796857Y-64002438D02*
X214892095Y-64097676D01*
X214892095Y-64097676D02*
X214939714Y-64192914D01*
X214939714Y-64192914D02*
X214987333Y-64383390D01*
X214987333Y-64383390D02*
X214987333Y-64526247D01*
X214987333Y-64526247D02*
X214939714Y-64716723D01*
X214939714Y-64716723D02*
X214892095Y-64811961D01*
X214892095Y-64811961D02*
X214796857Y-64907200D01*
X214796857Y-64907200D02*
X214654000Y-64954819D01*
X214654000Y-64954819D02*
X214415905Y-64954819D01*
X209420667Y-66494819D02*
X209754000Y-67494819D01*
X209754000Y-67494819D02*
X210087333Y-66494819D01*
X210992095Y-67399580D02*
X210944476Y-67447200D01*
X210944476Y-67447200D02*
X210801619Y-67494819D01*
X210801619Y-67494819D02*
X210706381Y-67494819D01*
X210706381Y-67494819D02*
X210563524Y-67447200D01*
X210563524Y-67447200D02*
X210468286Y-67351961D01*
X210468286Y-67351961D02*
X210420667Y-67256723D01*
X210420667Y-67256723D02*
X210373048Y-67066247D01*
X210373048Y-67066247D02*
X210373048Y-66923390D01*
X210373048Y-66923390D02*
X210420667Y-66732914D01*
X210420667Y-66732914D02*
X210468286Y-66637676D01*
X210468286Y-66637676D02*
X210563524Y-66542438D01*
X210563524Y-66542438D02*
X210706381Y-66494819D01*
X210706381Y-66494819D02*
X210801619Y-66494819D01*
X210801619Y-66494819D02*
X210944476Y-66542438D01*
X210944476Y-66542438D02*
X210992095Y-66590057D01*
X211992095Y-67399580D02*
X211944476Y-67447200D01*
X211944476Y-67447200D02*
X211801619Y-67494819D01*
X211801619Y-67494819D02*
X211706381Y-67494819D01*
X211706381Y-67494819D02*
X211563524Y-67447200D01*
X211563524Y-67447200D02*
X211468286Y-67351961D01*
X211468286Y-67351961D02*
X211420667Y-67256723D01*
X211420667Y-67256723D02*
X211373048Y-67066247D01*
X211373048Y-67066247D02*
X211373048Y-66923390D01*
X211373048Y-66923390D02*
X211420667Y-66732914D01*
X211420667Y-66732914D02*
X211468286Y-66637676D01*
X211468286Y-66637676D02*
X211563524Y-66542438D01*
X211563524Y-66542438D02*
X211706381Y-66494819D01*
X211706381Y-66494819D02*
X211801619Y-66494819D01*
X211801619Y-66494819D02*
X211944476Y-66542438D01*
X211944476Y-66542438D02*
X211992095Y-66590057D01*
X212892095Y-66542438D02*
X212796857Y-66494819D01*
X212796857Y-66494819D02*
X212654000Y-66494819D01*
X212654000Y-66494819D02*
X212511143Y-66542438D01*
X212511143Y-66542438D02*
X212415905Y-66637676D01*
X212415905Y-66637676D02*
X212368286Y-66732914D01*
X212368286Y-66732914D02*
X212320667Y-66923390D01*
X212320667Y-66923390D02*
X212320667Y-67066247D01*
X212320667Y-67066247D02*
X212368286Y-67256723D01*
X212368286Y-67256723D02*
X212415905Y-67351961D01*
X212415905Y-67351961D02*
X212511143Y-67447200D01*
X212511143Y-67447200D02*
X212654000Y-67494819D01*
X212654000Y-67494819D02*
X212749238Y-67494819D01*
X212749238Y-67494819D02*
X212892095Y-67447200D01*
X212892095Y-67447200D02*
X212939714Y-67399580D01*
X212939714Y-67399580D02*
X212939714Y-67066247D01*
X212939714Y-67066247D02*
X212749238Y-67066247D01*
X213368286Y-67494819D02*
X213368286Y-66494819D01*
X213368286Y-66494819D02*
X213939714Y-67494819D01*
X213939714Y-67494819D02*
X213939714Y-66494819D01*
X214415905Y-67494819D02*
X214415905Y-66494819D01*
X214415905Y-66494819D02*
X214654000Y-66494819D01*
X214654000Y-66494819D02*
X214796857Y-66542438D01*
X214796857Y-66542438D02*
X214892095Y-66637676D01*
X214892095Y-66637676D02*
X214939714Y-66732914D01*
X214939714Y-66732914D02*
X214987333Y-66923390D01*
X214987333Y-66923390D02*
X214987333Y-67066247D01*
X214987333Y-67066247D02*
X214939714Y-67256723D01*
X214939714Y-67256723D02*
X214892095Y-67351961D01*
X214892095Y-67351961D02*
X214796857Y-67447200D01*
X214796857Y-67447200D02*
X214654000Y-67494819D01*
X214654000Y-67494819D02*
X214415905Y-67494819D01*
X209997333Y-69939580D02*
X209949714Y-69987200D01*
X209949714Y-69987200D02*
X209806857Y-70034819D01*
X209806857Y-70034819D02*
X209711619Y-70034819D01*
X209711619Y-70034819D02*
X209568762Y-69987200D01*
X209568762Y-69987200D02*
X209473524Y-69891961D01*
X209473524Y-69891961D02*
X209425905Y-69796723D01*
X209425905Y-69796723D02*
X209378286Y-69606247D01*
X209378286Y-69606247D02*
X209378286Y-69463390D01*
X209378286Y-69463390D02*
X209425905Y-69272914D01*
X209425905Y-69272914D02*
X209473524Y-69177676D01*
X209473524Y-69177676D02*
X209568762Y-69082438D01*
X209568762Y-69082438D02*
X209711619Y-69034819D01*
X209711619Y-69034819D02*
X209806857Y-69034819D01*
X209806857Y-69034819D02*
X209949714Y-69082438D01*
X209949714Y-69082438D02*
X209997333Y-69130057D01*
X210616381Y-69034819D02*
X210711619Y-69034819D01*
X210711619Y-69034819D02*
X210806857Y-69082438D01*
X210806857Y-69082438D02*
X210854476Y-69130057D01*
X210854476Y-69130057D02*
X210902095Y-69225295D01*
X210902095Y-69225295D02*
X210949714Y-69415771D01*
X210949714Y-69415771D02*
X210949714Y-69653866D01*
X210949714Y-69653866D02*
X210902095Y-69844342D01*
X210902095Y-69844342D02*
X210854476Y-69939580D01*
X210854476Y-69939580D02*
X210806857Y-69987200D01*
X210806857Y-69987200D02*
X210711619Y-70034819D01*
X210711619Y-70034819D02*
X210616381Y-70034819D01*
X210616381Y-70034819D02*
X210521143Y-69987200D01*
X210521143Y-69987200D02*
X210473524Y-69939580D01*
X210473524Y-69939580D02*
X210425905Y-69844342D01*
X210425905Y-69844342D02*
X210378286Y-69653866D01*
X210378286Y-69653866D02*
X210378286Y-69415771D01*
X210378286Y-69415771D02*
X210425905Y-69225295D01*
X210425905Y-69225295D02*
X210473524Y-69130057D01*
X210473524Y-69130057D02*
X210521143Y-69082438D01*
X210521143Y-69082438D02*
X210616381Y-69034819D01*
X212439714Y-69987200D02*
X212582571Y-70034819D01*
X212582571Y-70034819D02*
X212820666Y-70034819D01*
X212820666Y-70034819D02*
X212915904Y-69987200D01*
X212915904Y-69987200D02*
X212963523Y-69939580D01*
X212963523Y-69939580D02*
X213011142Y-69844342D01*
X213011142Y-69844342D02*
X213011142Y-69749104D01*
X213011142Y-69749104D02*
X212963523Y-69653866D01*
X212963523Y-69653866D02*
X212915904Y-69606247D01*
X212915904Y-69606247D02*
X212820666Y-69558628D01*
X212820666Y-69558628D02*
X212630190Y-69511009D01*
X212630190Y-69511009D02*
X212534952Y-69463390D01*
X212534952Y-69463390D02*
X212487333Y-69415771D01*
X212487333Y-69415771D02*
X212439714Y-69320533D01*
X212439714Y-69320533D02*
X212439714Y-69225295D01*
X212439714Y-69225295D02*
X212487333Y-69130057D01*
X212487333Y-69130057D02*
X212534952Y-69082438D01*
X212534952Y-69082438D02*
X212630190Y-69034819D01*
X212630190Y-69034819D02*
X212868285Y-69034819D01*
X212868285Y-69034819D02*
X213011142Y-69082438D01*
X213439714Y-70034819D02*
X213439714Y-69034819D01*
X213439714Y-69034819D02*
X213677809Y-69034819D01*
X213677809Y-69034819D02*
X213820666Y-69082438D01*
X213820666Y-69082438D02*
X213915904Y-69177676D01*
X213915904Y-69177676D02*
X213963523Y-69272914D01*
X213963523Y-69272914D02*
X214011142Y-69463390D01*
X214011142Y-69463390D02*
X214011142Y-69606247D01*
X214011142Y-69606247D02*
X213963523Y-69796723D01*
X213963523Y-69796723D02*
X213915904Y-69891961D01*
X213915904Y-69891961D02*
X213820666Y-69987200D01*
X213820666Y-69987200D02*
X213677809Y-70034819D01*
X213677809Y-70034819D02*
X213439714Y-70034819D01*
X214392095Y-69749104D02*
X214868285Y-69749104D01*
X214296857Y-70034819D02*
X214630190Y-69034819D01*
X214630190Y-69034819D02*
X214963523Y-70034819D01*
X209997333Y-72479580D02*
X209949714Y-72527200D01*
X209949714Y-72527200D02*
X209806857Y-72574819D01*
X209806857Y-72574819D02*
X209711619Y-72574819D01*
X209711619Y-72574819D02*
X209568762Y-72527200D01*
X209568762Y-72527200D02*
X209473524Y-72431961D01*
X209473524Y-72431961D02*
X209425905Y-72336723D01*
X209425905Y-72336723D02*
X209378286Y-72146247D01*
X209378286Y-72146247D02*
X209378286Y-72003390D01*
X209378286Y-72003390D02*
X209425905Y-71812914D01*
X209425905Y-71812914D02*
X209473524Y-71717676D01*
X209473524Y-71717676D02*
X209568762Y-71622438D01*
X209568762Y-71622438D02*
X209711619Y-71574819D01*
X209711619Y-71574819D02*
X209806857Y-71574819D01*
X209806857Y-71574819D02*
X209949714Y-71622438D01*
X209949714Y-71622438D02*
X209997333Y-71670057D01*
X210949714Y-72574819D02*
X210378286Y-72574819D01*
X210664000Y-72574819D02*
X210664000Y-71574819D01*
X210664000Y-71574819D02*
X210568762Y-71717676D01*
X210568762Y-71717676D02*
X210473524Y-71812914D01*
X210473524Y-71812914D02*
X210378286Y-71860533D01*
X212463524Y-72527200D02*
X212606381Y-72574819D01*
X212606381Y-72574819D02*
X212844476Y-72574819D01*
X212844476Y-72574819D02*
X212939714Y-72527200D01*
X212939714Y-72527200D02*
X212987333Y-72479580D01*
X212987333Y-72479580D02*
X213034952Y-72384342D01*
X213034952Y-72384342D02*
X213034952Y-72289104D01*
X213034952Y-72289104D02*
X212987333Y-72193866D01*
X212987333Y-72193866D02*
X212939714Y-72146247D01*
X212939714Y-72146247D02*
X212844476Y-72098628D01*
X212844476Y-72098628D02*
X212654000Y-72051009D01*
X212654000Y-72051009D02*
X212558762Y-72003390D01*
X212558762Y-72003390D02*
X212511143Y-71955771D01*
X212511143Y-71955771D02*
X212463524Y-71860533D01*
X212463524Y-71860533D02*
X212463524Y-71765295D01*
X212463524Y-71765295D02*
X212511143Y-71670057D01*
X212511143Y-71670057D02*
X212558762Y-71622438D01*
X212558762Y-71622438D02*
X212654000Y-71574819D01*
X212654000Y-71574819D02*
X212892095Y-71574819D01*
X212892095Y-71574819D02*
X213034952Y-71622438D01*
X214034952Y-72479580D02*
X213987333Y-72527200D01*
X213987333Y-72527200D02*
X213844476Y-72574819D01*
X213844476Y-72574819D02*
X213749238Y-72574819D01*
X213749238Y-72574819D02*
X213606381Y-72527200D01*
X213606381Y-72527200D02*
X213511143Y-72431961D01*
X213511143Y-72431961D02*
X213463524Y-72336723D01*
X213463524Y-72336723D02*
X213415905Y-72146247D01*
X213415905Y-72146247D02*
X213415905Y-72003390D01*
X213415905Y-72003390D02*
X213463524Y-71812914D01*
X213463524Y-71812914D02*
X213511143Y-71717676D01*
X213511143Y-71717676D02*
X213606381Y-71622438D01*
X213606381Y-71622438D02*
X213749238Y-71574819D01*
X213749238Y-71574819D02*
X213844476Y-71574819D01*
X213844476Y-71574819D02*
X213987333Y-71622438D01*
X213987333Y-71622438D02*
X214034952Y-71670057D01*
X214939714Y-72574819D02*
X214463524Y-72574819D01*
X214463524Y-72574819D02*
X214463524Y-71574819D01*
X209997333Y-75019580D02*
X209949714Y-75067200D01*
X209949714Y-75067200D02*
X209806857Y-75114819D01*
X209806857Y-75114819D02*
X209711619Y-75114819D01*
X209711619Y-75114819D02*
X209568762Y-75067200D01*
X209568762Y-75067200D02*
X209473524Y-74971961D01*
X209473524Y-74971961D02*
X209425905Y-74876723D01*
X209425905Y-74876723D02*
X209378286Y-74686247D01*
X209378286Y-74686247D02*
X209378286Y-74543390D01*
X209378286Y-74543390D02*
X209425905Y-74352914D01*
X209425905Y-74352914D02*
X209473524Y-74257676D01*
X209473524Y-74257676D02*
X209568762Y-74162438D01*
X209568762Y-74162438D02*
X209711619Y-74114819D01*
X209711619Y-74114819D02*
X209806857Y-74114819D01*
X209806857Y-74114819D02*
X209949714Y-74162438D01*
X209949714Y-74162438D02*
X209997333Y-74210057D01*
X210378286Y-74210057D02*
X210425905Y-74162438D01*
X210425905Y-74162438D02*
X210521143Y-74114819D01*
X210521143Y-74114819D02*
X210759238Y-74114819D01*
X210759238Y-74114819D02*
X210854476Y-74162438D01*
X210854476Y-74162438D02*
X210902095Y-74210057D01*
X210902095Y-74210057D02*
X210949714Y-74305295D01*
X210949714Y-74305295D02*
X210949714Y-74400533D01*
X210949714Y-74400533D02*
X210902095Y-74543390D01*
X210902095Y-74543390D02*
X210330667Y-75114819D01*
X210330667Y-75114819D02*
X210949714Y-75114819D01*
X214077333Y-75019580D02*
X214029714Y-75067200D01*
X214029714Y-75067200D02*
X213886857Y-75114819D01*
X213886857Y-75114819D02*
X213791619Y-75114819D01*
X213791619Y-75114819D02*
X213648762Y-75067200D01*
X213648762Y-75067200D02*
X213553524Y-74971961D01*
X213553524Y-74971961D02*
X213505905Y-74876723D01*
X213505905Y-74876723D02*
X213458286Y-74686247D01*
X213458286Y-74686247D02*
X213458286Y-74543390D01*
X213458286Y-74543390D02*
X213505905Y-74352914D01*
X213505905Y-74352914D02*
X213553524Y-74257676D01*
X213553524Y-74257676D02*
X213648762Y-74162438D01*
X213648762Y-74162438D02*
X213791619Y-74114819D01*
X213791619Y-74114819D02*
X213886857Y-74114819D01*
X213886857Y-74114819D02*
X214029714Y-74162438D01*
X214029714Y-74162438D02*
X214077333Y-74210057D01*
X214458286Y-75067200D02*
X214601143Y-75114819D01*
X214601143Y-75114819D02*
X214839238Y-75114819D01*
X214839238Y-75114819D02*
X214934476Y-75067200D01*
X214934476Y-75067200D02*
X214982095Y-75019580D01*
X214982095Y-75019580D02*
X215029714Y-74924342D01*
X215029714Y-74924342D02*
X215029714Y-74829104D01*
X215029714Y-74829104D02*
X214982095Y-74733866D01*
X214982095Y-74733866D02*
X214934476Y-74686247D01*
X214934476Y-74686247D02*
X214839238Y-74638628D01*
X214839238Y-74638628D02*
X214648762Y-74591009D01*
X214648762Y-74591009D02*
X214553524Y-74543390D01*
X214553524Y-74543390D02*
X214505905Y-74495771D01*
X214505905Y-74495771D02*
X214458286Y-74400533D01*
X214458286Y-74400533D02*
X214458286Y-74305295D01*
X214458286Y-74305295D02*
X214505905Y-74210057D01*
X214505905Y-74210057D02*
X214553524Y-74162438D01*
X214553524Y-74162438D02*
X214648762Y-74114819D01*
X214648762Y-74114819D02*
X214886857Y-74114819D01*
X214886857Y-74114819D02*
X215029714Y-74162438D01*
X209997333Y-77559580D02*
X209949714Y-77607200D01*
X209949714Y-77607200D02*
X209806857Y-77654819D01*
X209806857Y-77654819D02*
X209711619Y-77654819D01*
X209711619Y-77654819D02*
X209568762Y-77607200D01*
X209568762Y-77607200D02*
X209473524Y-77511961D01*
X209473524Y-77511961D02*
X209425905Y-77416723D01*
X209425905Y-77416723D02*
X209378286Y-77226247D01*
X209378286Y-77226247D02*
X209378286Y-77083390D01*
X209378286Y-77083390D02*
X209425905Y-76892914D01*
X209425905Y-76892914D02*
X209473524Y-76797676D01*
X209473524Y-76797676D02*
X209568762Y-76702438D01*
X209568762Y-76702438D02*
X209711619Y-76654819D01*
X209711619Y-76654819D02*
X209806857Y-76654819D01*
X209806857Y-76654819D02*
X209949714Y-76702438D01*
X209949714Y-76702438D02*
X209997333Y-76750057D01*
X210330667Y-76654819D02*
X210949714Y-76654819D01*
X210949714Y-76654819D02*
X210616381Y-77035771D01*
X210616381Y-77035771D02*
X210759238Y-77035771D01*
X210759238Y-77035771D02*
X210854476Y-77083390D01*
X210854476Y-77083390D02*
X210902095Y-77131009D01*
X210902095Y-77131009D02*
X210949714Y-77226247D01*
X210949714Y-77226247D02*
X210949714Y-77464342D01*
X210949714Y-77464342D02*
X210902095Y-77559580D01*
X210902095Y-77559580D02*
X210854476Y-77607200D01*
X210854476Y-77607200D02*
X210759238Y-77654819D01*
X210759238Y-77654819D02*
X210473524Y-77654819D01*
X210473524Y-77654819D02*
X210378286Y-77607200D01*
X210378286Y-77607200D02*
X210330667Y-77559580D01*
X214077333Y-77654819D02*
X213744000Y-77178628D01*
X213505905Y-77654819D02*
X213505905Y-76654819D01*
X213505905Y-76654819D02*
X213886857Y-76654819D01*
X213886857Y-76654819D02*
X213982095Y-76702438D01*
X213982095Y-76702438D02*
X214029714Y-76750057D01*
X214029714Y-76750057D02*
X214077333Y-76845295D01*
X214077333Y-76845295D02*
X214077333Y-76988152D01*
X214077333Y-76988152D02*
X214029714Y-77083390D01*
X214029714Y-77083390D02*
X213982095Y-77131009D01*
X213982095Y-77131009D02*
X213886857Y-77178628D01*
X213886857Y-77178628D02*
X213505905Y-77178628D01*
X214696381Y-76654819D02*
X214791619Y-76654819D01*
X214791619Y-76654819D02*
X214886857Y-76702438D01*
X214886857Y-76702438D02*
X214934476Y-76750057D01*
X214934476Y-76750057D02*
X214982095Y-76845295D01*
X214982095Y-76845295D02*
X215029714Y-77035771D01*
X215029714Y-77035771D02*
X215029714Y-77273866D01*
X215029714Y-77273866D02*
X214982095Y-77464342D01*
X214982095Y-77464342D02*
X214934476Y-77559580D01*
X214934476Y-77559580D02*
X214886857Y-77607200D01*
X214886857Y-77607200D02*
X214791619Y-77654819D01*
X214791619Y-77654819D02*
X214696381Y-77654819D01*
X214696381Y-77654819D02*
X214601143Y-77607200D01*
X214601143Y-77607200D02*
X214553524Y-77559580D01*
X214553524Y-77559580D02*
X214505905Y-77464342D01*
X214505905Y-77464342D02*
X214458286Y-77273866D01*
X214458286Y-77273866D02*
X214458286Y-77035771D01*
X214458286Y-77035771D02*
X214505905Y-76845295D01*
X214505905Y-76845295D02*
X214553524Y-76750057D01*
X214553524Y-76750057D02*
X214601143Y-76702438D01*
X214601143Y-76702438D02*
X214696381Y-76654819D01*
X209997333Y-80099580D02*
X209949714Y-80147200D01*
X209949714Y-80147200D02*
X209806857Y-80194819D01*
X209806857Y-80194819D02*
X209711619Y-80194819D01*
X209711619Y-80194819D02*
X209568762Y-80147200D01*
X209568762Y-80147200D02*
X209473524Y-80051961D01*
X209473524Y-80051961D02*
X209425905Y-79956723D01*
X209425905Y-79956723D02*
X209378286Y-79766247D01*
X209378286Y-79766247D02*
X209378286Y-79623390D01*
X209378286Y-79623390D02*
X209425905Y-79432914D01*
X209425905Y-79432914D02*
X209473524Y-79337676D01*
X209473524Y-79337676D02*
X209568762Y-79242438D01*
X209568762Y-79242438D02*
X209711619Y-79194819D01*
X209711619Y-79194819D02*
X209806857Y-79194819D01*
X209806857Y-79194819D02*
X209949714Y-79242438D01*
X209949714Y-79242438D02*
X209997333Y-79290057D01*
X210854476Y-79528152D02*
X210854476Y-80194819D01*
X210616381Y-79147200D02*
X210378286Y-79861485D01*
X210378286Y-79861485D02*
X210997333Y-79861485D01*
X214077333Y-80194819D02*
X213744000Y-79718628D01*
X213505905Y-80194819D02*
X213505905Y-79194819D01*
X213505905Y-79194819D02*
X213886857Y-79194819D01*
X213886857Y-79194819D02*
X213982095Y-79242438D01*
X213982095Y-79242438D02*
X214029714Y-79290057D01*
X214029714Y-79290057D02*
X214077333Y-79385295D01*
X214077333Y-79385295D02*
X214077333Y-79528152D01*
X214077333Y-79528152D02*
X214029714Y-79623390D01*
X214029714Y-79623390D02*
X213982095Y-79671009D01*
X213982095Y-79671009D02*
X213886857Y-79718628D01*
X213886857Y-79718628D02*
X213505905Y-79718628D01*
X215029714Y-80194819D02*
X214458286Y-80194819D01*
X214744000Y-80194819D02*
X214744000Y-79194819D01*
X214744000Y-79194819D02*
X214648762Y-79337676D01*
X214648762Y-79337676D02*
X214553524Y-79432914D01*
X214553524Y-79432914D02*
X214458286Y-79480533D01*
X209997333Y-82639580D02*
X209949714Y-82687200D01*
X209949714Y-82687200D02*
X209806857Y-82734819D01*
X209806857Y-82734819D02*
X209711619Y-82734819D01*
X209711619Y-82734819D02*
X209568762Y-82687200D01*
X209568762Y-82687200D02*
X209473524Y-82591961D01*
X209473524Y-82591961D02*
X209425905Y-82496723D01*
X209425905Y-82496723D02*
X209378286Y-82306247D01*
X209378286Y-82306247D02*
X209378286Y-82163390D01*
X209378286Y-82163390D02*
X209425905Y-81972914D01*
X209425905Y-81972914D02*
X209473524Y-81877676D01*
X209473524Y-81877676D02*
X209568762Y-81782438D01*
X209568762Y-81782438D02*
X209711619Y-81734819D01*
X209711619Y-81734819D02*
X209806857Y-81734819D01*
X209806857Y-81734819D02*
X209949714Y-81782438D01*
X209949714Y-81782438D02*
X209997333Y-81830057D01*
X210902095Y-81734819D02*
X210425905Y-81734819D01*
X210425905Y-81734819D02*
X210378286Y-82211009D01*
X210378286Y-82211009D02*
X210425905Y-82163390D01*
X210425905Y-82163390D02*
X210521143Y-82115771D01*
X210521143Y-82115771D02*
X210759238Y-82115771D01*
X210759238Y-82115771D02*
X210854476Y-82163390D01*
X210854476Y-82163390D02*
X210902095Y-82211009D01*
X210902095Y-82211009D02*
X210949714Y-82306247D01*
X210949714Y-82306247D02*
X210949714Y-82544342D01*
X210949714Y-82544342D02*
X210902095Y-82639580D01*
X210902095Y-82639580D02*
X210854476Y-82687200D01*
X210854476Y-82687200D02*
X210759238Y-82734819D01*
X210759238Y-82734819D02*
X210521143Y-82734819D01*
X210521143Y-82734819D02*
X210425905Y-82687200D01*
X210425905Y-82687200D02*
X210378286Y-82639580D01*
X214077333Y-82734819D02*
X213744000Y-82258628D01*
X213505905Y-82734819D02*
X213505905Y-81734819D01*
X213505905Y-81734819D02*
X213886857Y-81734819D01*
X213886857Y-81734819D02*
X213982095Y-81782438D01*
X213982095Y-81782438D02*
X214029714Y-81830057D01*
X214029714Y-81830057D02*
X214077333Y-81925295D01*
X214077333Y-81925295D02*
X214077333Y-82068152D01*
X214077333Y-82068152D02*
X214029714Y-82163390D01*
X214029714Y-82163390D02*
X213982095Y-82211009D01*
X213982095Y-82211009D02*
X213886857Y-82258628D01*
X213886857Y-82258628D02*
X213505905Y-82258628D01*
X214458286Y-81830057D02*
X214505905Y-81782438D01*
X214505905Y-81782438D02*
X214601143Y-81734819D01*
X214601143Y-81734819D02*
X214839238Y-81734819D01*
X214839238Y-81734819D02*
X214934476Y-81782438D01*
X214934476Y-81782438D02*
X214982095Y-81830057D01*
X214982095Y-81830057D02*
X215029714Y-81925295D01*
X215029714Y-81925295D02*
X215029714Y-82020533D01*
X215029714Y-82020533D02*
X214982095Y-82163390D01*
X214982095Y-82163390D02*
X214410667Y-82734819D01*
X214410667Y-82734819D02*
X215029714Y-82734819D01*
X209539714Y-85274819D02*
X209539714Y-84274819D01*
X209539714Y-84274819D02*
X209920666Y-84274819D01*
X209920666Y-84274819D02*
X210015904Y-84322438D01*
X210015904Y-84322438D02*
X210063523Y-84370057D01*
X210063523Y-84370057D02*
X210111142Y-84465295D01*
X210111142Y-84465295D02*
X210111142Y-84608152D01*
X210111142Y-84608152D02*
X210063523Y-84703390D01*
X210063523Y-84703390D02*
X210015904Y-84751009D01*
X210015904Y-84751009D02*
X209920666Y-84798628D01*
X209920666Y-84798628D02*
X209539714Y-84798628D01*
X211063523Y-85274819D02*
X210492095Y-85274819D01*
X210777809Y-85274819D02*
X210777809Y-84274819D01*
X210777809Y-84274819D02*
X210682571Y-84417676D01*
X210682571Y-84417676D02*
X210587333Y-84512914D01*
X210587333Y-84512914D02*
X210492095Y-84560533D01*
X211920666Y-84274819D02*
X211730190Y-84274819D01*
X211730190Y-84274819D02*
X211634952Y-84322438D01*
X211634952Y-84322438D02*
X211587333Y-84370057D01*
X211587333Y-84370057D02*
X211492095Y-84512914D01*
X211492095Y-84512914D02*
X211444476Y-84703390D01*
X211444476Y-84703390D02*
X211444476Y-85084342D01*
X211444476Y-85084342D02*
X211492095Y-85179580D01*
X211492095Y-85179580D02*
X211539714Y-85227200D01*
X211539714Y-85227200D02*
X211634952Y-85274819D01*
X211634952Y-85274819D02*
X211825428Y-85274819D01*
X211825428Y-85274819D02*
X211920666Y-85227200D01*
X211920666Y-85227200D02*
X211968285Y-85179580D01*
X211968285Y-85179580D02*
X212015904Y-85084342D01*
X212015904Y-85084342D02*
X212015904Y-84846247D01*
X212015904Y-84846247D02*
X211968285Y-84751009D01*
X211968285Y-84751009D02*
X211920666Y-84703390D01*
X211920666Y-84703390D02*
X211825428Y-84655771D01*
X211825428Y-84655771D02*
X211634952Y-84655771D01*
X211634952Y-84655771D02*
X211539714Y-84703390D01*
X211539714Y-84703390D02*
X211492095Y-84751009D01*
X211492095Y-84751009D02*
X211444476Y-84846247D01*
X214077333Y-85274819D02*
X213744000Y-84798628D01*
X213505905Y-85274819D02*
X213505905Y-84274819D01*
X213505905Y-84274819D02*
X213886857Y-84274819D01*
X213886857Y-84274819D02*
X213982095Y-84322438D01*
X213982095Y-84322438D02*
X214029714Y-84370057D01*
X214029714Y-84370057D02*
X214077333Y-84465295D01*
X214077333Y-84465295D02*
X214077333Y-84608152D01*
X214077333Y-84608152D02*
X214029714Y-84703390D01*
X214029714Y-84703390D02*
X213982095Y-84751009D01*
X213982095Y-84751009D02*
X213886857Y-84798628D01*
X213886857Y-84798628D02*
X213505905Y-84798628D01*
X214410667Y-84274819D02*
X215029714Y-84274819D01*
X215029714Y-84274819D02*
X214696381Y-84655771D01*
X214696381Y-84655771D02*
X214839238Y-84655771D01*
X214839238Y-84655771D02*
X214934476Y-84703390D01*
X214934476Y-84703390D02*
X214982095Y-84751009D01*
X214982095Y-84751009D02*
X215029714Y-84846247D01*
X215029714Y-84846247D02*
X215029714Y-85084342D01*
X215029714Y-85084342D02*
X214982095Y-85179580D01*
X214982095Y-85179580D02*
X214934476Y-85227200D01*
X214934476Y-85227200D02*
X214839238Y-85274819D01*
X214839238Y-85274819D02*
X214553524Y-85274819D01*
X214553524Y-85274819D02*
X214458286Y-85227200D01*
X214458286Y-85227200D02*
X214410667Y-85179580D01*
X209539714Y-87814819D02*
X209539714Y-86814819D01*
X209539714Y-86814819D02*
X209920666Y-86814819D01*
X209920666Y-86814819D02*
X210015904Y-86862438D01*
X210015904Y-86862438D02*
X210063523Y-86910057D01*
X210063523Y-86910057D02*
X210111142Y-87005295D01*
X210111142Y-87005295D02*
X210111142Y-87148152D01*
X210111142Y-87148152D02*
X210063523Y-87243390D01*
X210063523Y-87243390D02*
X210015904Y-87291009D01*
X210015904Y-87291009D02*
X209920666Y-87338628D01*
X209920666Y-87338628D02*
X209539714Y-87338628D01*
X211063523Y-87814819D02*
X210492095Y-87814819D01*
X210777809Y-87814819D02*
X210777809Y-86814819D01*
X210777809Y-86814819D02*
X210682571Y-86957676D01*
X210682571Y-86957676D02*
X210587333Y-87052914D01*
X210587333Y-87052914D02*
X210492095Y-87100533D01*
X211682571Y-86814819D02*
X211777809Y-86814819D01*
X211777809Y-86814819D02*
X211873047Y-86862438D01*
X211873047Y-86862438D02*
X211920666Y-86910057D01*
X211920666Y-86910057D02*
X211968285Y-87005295D01*
X211968285Y-87005295D02*
X212015904Y-87195771D01*
X212015904Y-87195771D02*
X212015904Y-87433866D01*
X212015904Y-87433866D02*
X211968285Y-87624342D01*
X211968285Y-87624342D02*
X211920666Y-87719580D01*
X211920666Y-87719580D02*
X211873047Y-87767200D01*
X211873047Y-87767200D02*
X211777809Y-87814819D01*
X211777809Y-87814819D02*
X211682571Y-87814819D01*
X211682571Y-87814819D02*
X211587333Y-87767200D01*
X211587333Y-87767200D02*
X211539714Y-87719580D01*
X211539714Y-87719580D02*
X211492095Y-87624342D01*
X211492095Y-87624342D02*
X211444476Y-87433866D01*
X211444476Y-87433866D02*
X211444476Y-87195771D01*
X211444476Y-87195771D02*
X211492095Y-87005295D01*
X211492095Y-87005295D02*
X211539714Y-86910057D01*
X211539714Y-86910057D02*
X211587333Y-86862438D01*
X211587333Y-86862438D02*
X211682571Y-86814819D01*
X214077333Y-87814819D02*
X213744000Y-87338628D01*
X213505905Y-87814819D02*
X213505905Y-86814819D01*
X213505905Y-86814819D02*
X213886857Y-86814819D01*
X213886857Y-86814819D02*
X213982095Y-86862438D01*
X213982095Y-86862438D02*
X214029714Y-86910057D01*
X214029714Y-86910057D02*
X214077333Y-87005295D01*
X214077333Y-87005295D02*
X214077333Y-87148152D01*
X214077333Y-87148152D02*
X214029714Y-87243390D01*
X214029714Y-87243390D02*
X213982095Y-87291009D01*
X213982095Y-87291009D02*
X213886857Y-87338628D01*
X213886857Y-87338628D02*
X213505905Y-87338628D01*
X214934476Y-87148152D02*
X214934476Y-87814819D01*
X214696381Y-86767200D02*
X214458286Y-87481485D01*
X214458286Y-87481485D02*
X215077333Y-87481485D01*
X219130952Y-94704819D02*
X219321428Y-94704819D01*
X219321428Y-94704819D02*
X219416666Y-94752438D01*
X219416666Y-94752438D02*
X219511904Y-94847676D01*
X219511904Y-94847676D02*
X219559523Y-95038152D01*
X219559523Y-95038152D02*
X219559523Y-95371485D01*
X219559523Y-95371485D02*
X219511904Y-95561961D01*
X219511904Y-95561961D02*
X219416666Y-95657200D01*
X219416666Y-95657200D02*
X219321428Y-95704819D01*
X219321428Y-95704819D02*
X219130952Y-95704819D01*
X219130952Y-95704819D02*
X219035714Y-95657200D01*
X219035714Y-95657200D02*
X218940476Y-95561961D01*
X218940476Y-95561961D02*
X218892857Y-95371485D01*
X218892857Y-95371485D02*
X218892857Y-95038152D01*
X218892857Y-95038152D02*
X218940476Y-94847676D01*
X218940476Y-94847676D02*
X219035714Y-94752438D01*
X219035714Y-94752438D02*
X219130952Y-94704819D01*
X219988095Y-95704819D02*
X219988095Y-94704819D01*
X219988095Y-94704819D02*
X220559523Y-95704819D01*
X220559523Y-95704819D02*
X220559523Y-94704819D01*
X218797619Y-104704819D02*
X218988095Y-104704819D01*
X218988095Y-104704819D02*
X219083333Y-104752438D01*
X219083333Y-104752438D02*
X219178571Y-104847676D01*
X219178571Y-104847676D02*
X219226190Y-105038152D01*
X219226190Y-105038152D02*
X219226190Y-105371485D01*
X219226190Y-105371485D02*
X219178571Y-105561961D01*
X219178571Y-105561961D02*
X219083333Y-105657200D01*
X219083333Y-105657200D02*
X218988095Y-105704819D01*
X218988095Y-105704819D02*
X218797619Y-105704819D01*
X218797619Y-105704819D02*
X218702381Y-105657200D01*
X218702381Y-105657200D02*
X218607143Y-105561961D01*
X218607143Y-105561961D02*
X218559524Y-105371485D01*
X218559524Y-105371485D02*
X218559524Y-105038152D01*
X218559524Y-105038152D02*
X218607143Y-104847676D01*
X218607143Y-104847676D02*
X218702381Y-104752438D01*
X218702381Y-104752438D02*
X218797619Y-104704819D01*
X219988095Y-105181009D02*
X219654762Y-105181009D01*
X219654762Y-105704819D02*
X219654762Y-104704819D01*
X219654762Y-104704819D02*
X220130952Y-104704819D01*
X220845238Y-105181009D02*
X220511905Y-105181009D01*
X220511905Y-105704819D02*
X220511905Y-104704819D01*
X220511905Y-104704819D02*
X220988095Y-104704819D01*
D11*
X92000000Y-92000000D02*
X108000000Y-92000000D01*
X108000000Y-108000000D01*
X92000000Y-108000000D01*
X92000000Y-92000000D01*
X98000000Y-100000000D02*
X102000000Y-100000000D01*
X100000000Y-98000000D02*
X100000000Y-102000000D01*
X92000000Y-73500000D02*
X108000000Y-73500000D01*
X108000000Y-89500000D01*
X92000000Y-89500000D01*
X92000000Y-73500000D01*
X98000000Y-81500000D02*
X102000000Y-81500000D01*
X100000000Y-79500000D02*
X100000000Y-83500000D01*
X92000000Y-55000000D02*
X108000000Y-55000000D01*
X108000000Y-71000000D01*
X92000000Y-71000000D01*
X92000000Y-55000000D01*
X98000000Y-63000000D02*
X102000000Y-63000000D01*
X100000000Y-61000000D02*
X100000000Y-65000000D01*
X92000000Y-36500000D02*
X108000000Y-36500000D01*
X108000000Y-52500000D01*
X92000000Y-52500000D01*
X92000000Y-36500000D01*
X98000000Y-44500000D02*
X102000000Y-44500000D01*
X100000000Y-42500000D02*
X100000000Y-46500000D01*
X110500000Y-92000000D02*
X126500000Y-92000000D01*
X126500000Y-108000000D01*
X110500000Y-108000000D01*
X110500000Y-92000000D01*
X116500000Y-100000000D02*
X120500000Y-100000000D01*
X118500000Y-98000000D02*
X118500000Y-102000000D01*
X110500000Y-73500000D02*
X126500000Y-73500000D01*
X126500000Y-89500000D01*
X110500000Y-89500000D01*
X110500000Y-73500000D01*
X116500000Y-81500000D02*
X120500000Y-81500000D01*
X118500000Y-79500000D02*
X118500000Y-83500000D01*
X110500000Y-55000000D02*
X126500000Y-55000000D01*
X126500000Y-71000000D01*
X110500000Y-71000000D01*
X110500000Y-55000000D01*
X116500000Y-63000000D02*
X120500000Y-63000000D01*
X118500000Y-61000000D02*
X118500000Y-65000000D01*
X110500000Y-36500000D02*
X126500000Y-36500000D01*
X126500000Y-52500000D01*
X110500000Y-52500000D01*
X110500000Y-36500000D01*
X116500000Y-44500000D02*
X120500000Y-44500000D01*
X118500000Y-42500000D02*
X118500000Y-46500000D01*
X129000000Y-87375000D02*
X145000000Y-87375000D01*
X145000000Y-103375000D01*
X129000000Y-103375000D01*
X129000000Y-87375000D01*
X135000000Y-95375000D02*
X139000000Y-95375000D01*
X137000000Y-93375000D02*
X137000000Y-97375000D01*
X129000000Y-68875000D02*
X145000000Y-68875000D01*
X145000000Y-84875000D01*
X129000000Y-84875000D01*
X129000000Y-68875000D01*
X135000000Y-76875000D02*
X139000000Y-76875000D01*
X137000000Y-74875000D02*
X137000000Y-78875000D01*
X129000000Y-50375000D02*
X145000000Y-50375000D01*
X145000000Y-66375000D01*
X129000000Y-66375000D01*
X129000000Y-50375000D01*
X135000000Y-58375000D02*
X139000000Y-58375000D01*
X137000000Y-56375000D02*
X137000000Y-60375000D01*
X129000000Y-31875000D02*
X145000000Y-31875000D01*
X145000000Y-47875000D01*
X129000000Y-47875000D01*
X129000000Y-31875000D01*
X135000000Y-39875000D02*
X139000000Y-39875000D01*
X137000000Y-37875000D02*
X137000000Y-41875000D01*
X147500000Y-85062500D02*
X163500000Y-85062500D01*
X163500000Y-101062500D01*
X147500000Y-101062500D01*
X147500000Y-85062500D01*
X153500000Y-93062500D02*
X157500000Y-93062500D01*
X155500000Y-91062500D02*
X155500000Y-95062500D01*
X147500000Y-66562500D02*
X163500000Y-66562500D01*
X163500000Y-82562500D01*
X147500000Y-82562500D01*
X147500000Y-66562500D01*
X153500000Y-74562500D02*
X157500000Y-74562500D01*
X155500000Y-72562500D02*
X155500000Y-76562500D01*
X147500000Y-48062500D02*
X163500000Y-48062500D01*
X163500000Y-64062500D01*
X147500000Y-64062500D01*
X147500000Y-48062500D01*
X153500000Y-56062500D02*
X157500000Y-56062500D01*
X155500000Y-54062500D02*
X155500000Y-58062500D01*
X147500000Y-29562500D02*
X163500000Y-29562500D01*
X163500000Y-45562500D01*
X147500000Y-45562500D01*
X147500000Y-29562500D01*
X153500000Y-37562500D02*
X157500000Y-37562500D01*
X155500000Y-35562500D02*
X155500000Y-39562500D01*
X166000000Y-87375000D02*
X182000000Y-87375000D01*
X182000000Y-103375000D01*
X166000000Y-103375000D01*
X166000000Y-87375000D01*
X172000000Y-95375000D02*
X176000000Y-95375000D01*
X174000000Y-93375000D02*
X174000000Y-97375000D01*
X166000000Y-68875000D02*
X182000000Y-68875000D01*
X182000000Y-84875000D01*
X166000000Y-84875000D01*
X166000000Y-68875000D01*
X172000000Y-76875000D02*
X176000000Y-76875000D01*
X174000000Y-74875000D02*
X174000000Y-78875000D01*
X166000000Y-50375000D02*
X182000000Y-50375000D01*
X182000000Y-66375000D01*
X166000000Y-66375000D01*
X166000000Y-50375000D01*
X172000000Y-58375000D02*
X176000000Y-58375000D01*
X174000000Y-56375000D02*
X174000000Y-60375000D01*
X166000000Y-31875000D02*
X182000000Y-31875000D01*
X182000000Y-47875000D01*
X166000000Y-47875000D01*
X166000000Y-31875000D01*
X172000000Y-39875000D02*
X176000000Y-39875000D01*
X174000000Y-37875000D02*
X174000000Y-41875000D01*
X184500000Y-89687500D02*
X200500000Y-89687500D01*
X200500000Y-105687500D01*
X184500000Y-105687500D01*
X184500000Y-89687500D01*
X190500000Y-97687500D02*
X194500000Y-97687500D01*
X192500000Y-95687500D02*
X192500000Y-99687500D01*
X184500000Y-71187500D02*
X200500000Y-71187500D01*
X200500000Y-87187500D01*
X184500000Y-87187500D01*
X184500000Y-71187500D01*
X190500000Y-79187500D02*
X194500000Y-79187500D01*
X192500000Y-77187500D02*
X192500000Y-81187500D01*
X184500000Y-52687500D02*
X200500000Y-52687500D01*
X200500000Y-68687500D01*
X184500000Y-68687500D01*
X184500000Y-52687500D01*
X190500000Y-60687500D02*
X194500000Y-60687500D01*
X192500000Y-58687500D02*
X192500000Y-62687500D01*
X184500000Y-34187500D02*
X200500000Y-34187500D01*
X200500000Y-50187500D01*
X184500000Y-50187500D01*
X184500000Y-34187500D01*
X190500000Y-42187500D02*
X194500000Y-42187500D01*
X192500000Y-40187500D02*
X192500000Y-44187500D01*
X156750000Y-106562500D02*
X172750000Y-106562500D01*
X172750000Y-122562500D01*
X156750000Y-122562500D01*
X156750000Y-106562500D01*
X162750000Y-114562500D02*
X166750000Y-114562500D01*
X164750000Y-112562500D02*
X164750000Y-116562500D01*
X195047959Y-111655646D02*
X190906854Y-127110459D01*
X175452041Y-122969354D01*
X179593146Y-107514541D01*
X195047959Y-111655646D01*
X183318148Y-116794862D02*
X187181852Y-117830138D01*
X185767638Y-115380648D02*
X184732362Y-119244352D01*
X217942046Y-118019045D02*
X209942046Y-131875451D01*
X196085640Y-123875451D01*
X204085640Y-110019045D01*
X217942046Y-118019045D01*
X206013843Y-122679299D02*
X208013843Y-119215197D01*
X205281792Y-119947248D02*
X208745894Y-121947248D01*
D12*
X100750000Y-97500000D02*
X101250000Y-97500000D01*
X100750000Y-97900000D02*
X100150000Y-97500000D01*
X100750000Y-97100000D02*
X100750000Y-97900000D01*
X100150000Y-97500000D02*
X100750000Y-97100000D01*
X100150000Y-97500000D02*
X100150000Y-98050000D01*
X100150000Y-97500000D02*
X100150000Y-96950000D01*
X99750000Y-97500000D02*
X100150000Y-97500000D01*
X100750000Y-79000000D02*
X101250000Y-79000000D01*
X100750000Y-79400000D02*
X100150000Y-79000000D01*
X100750000Y-78600000D02*
X100750000Y-79400000D01*
X100150000Y-79000000D02*
X100750000Y-78600000D01*
X100150000Y-79000000D02*
X100150000Y-79550000D01*
X100150000Y-79000000D02*
X100150000Y-78450000D01*
X99750000Y-79000000D02*
X100150000Y-79000000D01*
X100750000Y-60500000D02*
X101250000Y-60500000D01*
X100750000Y-60900000D02*
X100150000Y-60500000D01*
X100750000Y-60100000D02*
X100750000Y-60900000D01*
X100150000Y-60500000D02*
X100750000Y-60100000D01*
X100150000Y-60500000D02*
X100150000Y-61050000D01*
X100150000Y-60500000D02*
X100150000Y-59950000D01*
X99750000Y-60500000D02*
X100150000Y-60500000D01*
X100750000Y-42000000D02*
X101250000Y-42000000D01*
X100750000Y-42400000D02*
X100150000Y-42000000D01*
X100750000Y-41600000D02*
X100750000Y-42400000D01*
X100150000Y-42000000D02*
X100750000Y-41600000D01*
X100150000Y-42000000D02*
X100150000Y-42550000D01*
X100150000Y-42000000D02*
X100150000Y-41450000D01*
X99750000Y-42000000D02*
X100150000Y-42000000D01*
X119250000Y-97500000D02*
X119750000Y-97500000D01*
X119250000Y-97900000D02*
X118650000Y-97500000D01*
X119250000Y-97100000D02*
X119250000Y-97900000D01*
X118650000Y-97500000D02*
X119250000Y-97100000D01*
X118650000Y-97500000D02*
X118650000Y-98050000D01*
X118650000Y-97500000D02*
X118650000Y-96950000D01*
X118250000Y-97500000D02*
X118650000Y-97500000D01*
X119250000Y-79000000D02*
X119750000Y-79000000D01*
X119250000Y-79400000D02*
X118650000Y-79000000D01*
X119250000Y-78600000D02*
X119250000Y-79400000D01*
X118650000Y-79000000D02*
X119250000Y-78600000D01*
X118650000Y-79000000D02*
X118650000Y-79550000D01*
X118650000Y-79000000D02*
X118650000Y-78450000D01*
X118250000Y-79000000D02*
X118650000Y-79000000D01*
X119250000Y-60500000D02*
X119750000Y-60500000D01*
X119250000Y-60900000D02*
X118650000Y-60500000D01*
X119250000Y-60100000D02*
X119250000Y-60900000D01*
X118650000Y-60500000D02*
X119250000Y-60100000D01*
X118650000Y-60500000D02*
X118650000Y-61050000D01*
X118650000Y-60500000D02*
X118650000Y-59950000D01*
X118250000Y-60500000D02*
X118650000Y-60500000D01*
X119250000Y-42000000D02*
X119750000Y-42000000D01*
X119250000Y-42400000D02*
X118650000Y-42000000D01*
X119250000Y-41600000D02*
X119250000Y-42400000D01*
X118650000Y-42000000D02*
X119250000Y-41600000D01*
X118650000Y-42000000D02*
X118650000Y-42550000D01*
X118650000Y-42000000D02*
X118650000Y-41450000D01*
X118250000Y-42000000D02*
X118650000Y-42000000D01*
X137750000Y-92875000D02*
X138250000Y-92875000D01*
X137750000Y-93275000D02*
X137150000Y-92875000D01*
X137750000Y-92475000D02*
X137750000Y-93275000D01*
X137150000Y-92875000D02*
X137750000Y-92475000D01*
X137150000Y-92875000D02*
X137150000Y-93425000D01*
X137150000Y-92875000D02*
X137150000Y-92325000D01*
X136750000Y-92875000D02*
X137150000Y-92875000D01*
X137750000Y-74375000D02*
X138250000Y-74375000D01*
X137750000Y-74775000D02*
X137150000Y-74375000D01*
X137750000Y-73975000D02*
X137750000Y-74775000D01*
X137150000Y-74375000D02*
X137750000Y-73975000D01*
X137150000Y-74375000D02*
X137150000Y-74925000D01*
X137150000Y-74375000D02*
X137150000Y-73825000D01*
X136750000Y-74375000D02*
X137150000Y-74375000D01*
X137750000Y-55875000D02*
X138250000Y-55875000D01*
X137750000Y-56275000D02*
X137150000Y-55875000D01*
X137750000Y-55475000D02*
X137750000Y-56275000D01*
X137150000Y-55875000D02*
X137750000Y-55475000D01*
X137150000Y-55875000D02*
X137150000Y-56425000D01*
X137150000Y-55875000D02*
X137150000Y-55325000D01*
X136750000Y-55875000D02*
X137150000Y-55875000D01*
X137750000Y-37375000D02*
X138250000Y-37375000D01*
X137750000Y-37775000D02*
X137150000Y-37375000D01*
X137750000Y-36975000D02*
X137750000Y-37775000D01*
X137150000Y-37375000D02*
X137750000Y-36975000D01*
X137150000Y-37375000D02*
X137150000Y-37925000D01*
X137150000Y-37375000D02*
X137150000Y-36825000D01*
X136750000Y-37375000D02*
X137150000Y-37375000D01*
X156250000Y-90562500D02*
X156750000Y-90562500D01*
X156250000Y-90962500D02*
X155650000Y-90562500D01*
X156250000Y-90162500D02*
X156250000Y-90962500D01*
X155650000Y-90562500D02*
X156250000Y-90162500D01*
X155650000Y-90562500D02*
X155650000Y-91112500D01*
X155650000Y-90562500D02*
X155650000Y-90012500D01*
X155250000Y-90562500D02*
X155650000Y-90562500D01*
X156250000Y-72062500D02*
X156750000Y-72062500D01*
X156250000Y-72462500D02*
X155650000Y-72062500D01*
X156250000Y-71662500D02*
X156250000Y-72462500D01*
X155650000Y-72062500D02*
X156250000Y-71662500D01*
X155650000Y-72062500D02*
X155650000Y-72612500D01*
X155650000Y-72062500D02*
X155650000Y-71512500D01*
X155250000Y-72062500D02*
X155650000Y-72062500D01*
X156250000Y-53562500D02*
X156750000Y-53562500D01*
X156250000Y-53962500D02*
X155650000Y-53562500D01*
X156250000Y-53162500D02*
X156250000Y-53962500D01*
X155650000Y-53562500D02*
X156250000Y-53162500D01*
X155650000Y-53562500D02*
X155650000Y-54112500D01*
X155650000Y-53562500D02*
X155650000Y-53012500D01*
X155250000Y-53562500D02*
X155650000Y-53562500D01*
X156250000Y-35062500D02*
X156750000Y-35062500D01*
X156250000Y-35462500D02*
X155650000Y-35062500D01*
X156250000Y-34662500D02*
X156250000Y-35462500D01*
X155650000Y-35062500D02*
X156250000Y-34662500D01*
X155650000Y-35062500D02*
X155650000Y-35612500D01*
X155650000Y-35062500D02*
X155650000Y-34512500D01*
X155250000Y-35062500D02*
X155650000Y-35062500D01*
X174750000Y-92875000D02*
X175250000Y-92875000D01*
X174750000Y-93275000D02*
X174150000Y-92875000D01*
X174750000Y-92475000D02*
X174750000Y-93275000D01*
X174150000Y-92875000D02*
X174750000Y-92475000D01*
X174150000Y-92875000D02*
X174150000Y-93425000D01*
X174150000Y-92875000D02*
X174150000Y-92325000D01*
X173750000Y-92875000D02*
X174150000Y-92875000D01*
X174750000Y-74375000D02*
X175250000Y-74375000D01*
X174750000Y-74775000D02*
X174150000Y-74375000D01*
X174750000Y-73975000D02*
X174750000Y-74775000D01*
X174150000Y-74375000D02*
X174750000Y-73975000D01*
X174150000Y-74375000D02*
X174150000Y-74925000D01*
X174150000Y-74375000D02*
X174150000Y-73825000D01*
X173750000Y-74375000D02*
X174150000Y-74375000D01*
X174750000Y-55875000D02*
X175250000Y-55875000D01*
X174750000Y-56275000D02*
X174150000Y-55875000D01*
X174750000Y-55475000D02*
X174750000Y-56275000D01*
X174150000Y-55875000D02*
X174750000Y-55475000D01*
X174150000Y-55875000D02*
X174150000Y-56425000D01*
X174150000Y-55875000D02*
X174150000Y-55325000D01*
X173750000Y-55875000D02*
X174150000Y-55875000D01*
X174750000Y-37375000D02*
X175250000Y-37375000D01*
X174750000Y-37775000D02*
X174150000Y-37375000D01*
X174750000Y-36975000D02*
X174750000Y-37775000D01*
X174150000Y-37375000D02*
X174750000Y-36975000D01*
X174150000Y-37375000D02*
X174150000Y-37925000D01*
X174150000Y-37375000D02*
X174150000Y-36825000D01*
X173750000Y-37375000D02*
X174150000Y-37375000D01*
X193250000Y-95187500D02*
X193750000Y-95187500D01*
X193250000Y-95587500D02*
X192650000Y-95187500D01*
X193250000Y-94787500D02*
X193250000Y-95587500D01*
X192650000Y-95187500D02*
X193250000Y-94787500D01*
X192650000Y-95187500D02*
X192650000Y-95737500D01*
X192650000Y-95187500D02*
X192650000Y-94637500D01*
X192250000Y-95187500D02*
X192650000Y-95187500D01*
X193250000Y-76687500D02*
X193750000Y-76687500D01*
X193250000Y-77087500D02*
X192650000Y-76687500D01*
X193250000Y-76287500D02*
X193250000Y-77087500D01*
X192650000Y-76687500D02*
X193250000Y-76287500D01*
X192650000Y-76687500D02*
X192650000Y-77237500D01*
X192650000Y-76687500D02*
X192650000Y-76137500D01*
X192250000Y-76687500D02*
X192650000Y-76687500D01*
X193250000Y-58187500D02*
X193750000Y-58187500D01*
X193250000Y-58587500D02*
X192650000Y-58187500D01*
X193250000Y-57787500D02*
X193250000Y-58587500D01*
X192650000Y-58187500D02*
X193250000Y-57787500D01*
X192650000Y-58187500D02*
X192650000Y-58737500D01*
X192650000Y-58187500D02*
X192650000Y-57637500D01*
X192250000Y-58187500D02*
X192650000Y-58187500D01*
X193250000Y-39687500D02*
X193750000Y-39687500D01*
X193250000Y-40087500D02*
X192650000Y-39687500D01*
X193250000Y-39287500D02*
X193250000Y-40087500D01*
X192650000Y-39687500D02*
X193250000Y-39287500D01*
X192650000Y-39687500D02*
X192650000Y-40237500D01*
X192650000Y-39687500D02*
X192650000Y-39137500D01*
X192250000Y-39687500D02*
X192650000Y-39687500D01*
X165500000Y-112062500D02*
X166000000Y-112062500D01*
X165500000Y-112462500D02*
X164900000Y-112062500D01*
X165500000Y-111662500D02*
X165500000Y-112462500D01*
X164900000Y-112062500D02*
X165500000Y-111662500D01*
X164900000Y-112062500D02*
X164900000Y-112612500D01*
X164900000Y-112062500D02*
X164900000Y-111512500D01*
X164500000Y-112062500D02*
X164900000Y-112062500D01*
X186621492Y-115091800D02*
X187104455Y-115221209D01*
X186517965Y-115478170D02*
X186041937Y-114936508D01*
X186725020Y-114705429D02*
X186517965Y-115478170D01*
X186041937Y-114936508D02*
X186725020Y-114705429D01*
X186041937Y-114936508D02*
X185899586Y-115467768D01*
X186041937Y-114936508D02*
X186184287Y-114405249D01*
X185655567Y-114832981D02*
X186041937Y-114936508D01*
X205223779Y-119047729D02*
X205473779Y-118614716D01*
X205570189Y-119247729D02*
X204923779Y-119567344D01*
X204877369Y-118847729D02*
X205570189Y-119247729D01*
X204923779Y-119567344D02*
X204877369Y-118847729D01*
X204923779Y-119567344D02*
X205400093Y-119842344D01*
X204923779Y-119567344D02*
X204447465Y-119292344D01*
X204723779Y-119913754D02*
X204923779Y-119567344D01*
D11*
X218494000Y-58090000D02*
X221154000Y-58090000D01*
X218494000Y-58090000D02*
X218494000Y-88690000D01*
X218494000Y-88690000D02*
X221154000Y-88690000D01*
X205914000Y-58090000D02*
X205914000Y-88690000D01*
X221154000Y-58090000D02*
X221154000Y-88690000D01*
X203254000Y-58090000D02*
X205914000Y-58090000D01*
X203254000Y-58090000D02*
X203254000Y-88690000D01*
X203254000Y-88690000D02*
X205914000Y-88690000D01*
X218494000Y-60690000D02*
X221154000Y-60690000D01*
X205487000Y-89870000D02*
X205487000Y-92530000D01*
X218307000Y-92530000D02*
X205487000Y-92530000D01*
X218307000Y-89870000D02*
X218307000Y-92530000D01*
X218307000Y-89870000D02*
X205487000Y-89870000D01*
X220165000Y-96800000D02*
X219375000Y-96800000D01*
X219375000Y-103700000D02*
X220165000Y-103700000D01*
X218325000Y-101850000D02*
X218325000Y-100150000D01*
X221175000Y-103100000D02*
X221175000Y-97400000D01*
X218325000Y-98850000D02*
X218325000Y-98650000D01*
D12*
X209854000Y-54847500D02*
X209854000Y-54597500D01*
X209854000Y-57847500D02*
X209854000Y-58097500D01*
X210104000Y-54597500D02*
X209854000Y-54597500D01*
X210104000Y-58097500D02*
X209854000Y-58097500D01*
X214304000Y-54597500D02*
X214554000Y-54597500D01*
X214304000Y-58097500D02*
X214554000Y-58097500D01*
X214554000Y-54847500D02*
X214554000Y-54597500D01*
X214554000Y-57847500D02*
X214554000Y-58097500D01*
X216400000Y-100500000D02*
X216400000Y-99500000D01*
X216400000Y-97500000D02*
X216400000Y-98500000D01*
X215900000Y-98000000D02*
X216900000Y-98000000D01*
D11*
X207540000Y-101060000D02*
X207540000Y-102060000D01*
X207540000Y-102060000D02*
X208540000Y-102060000D01*
X207540000Y-96860000D02*
X207540000Y-95940000D01*
X207540000Y-95940000D02*
X208540000Y-95940000D01*
X215360000Y-101140000D02*
X215360000Y-102060000D01*
X215360000Y-102060000D02*
X214360000Y-102060000D01*
X215360000Y-96860000D02*
X215360000Y-95940000D01*
X215360000Y-95940000D02*
X214360000Y-95940000D01*
%LPC*%
D13*
X204927000Y-100463500D03*
X218969000Y-108757500D03*
D14*
X109250000Y-53750000D03*
X109250000Y-90750000D03*
X183218000Y-50298500D03*
X151157000Y-107615000D03*
X196724595Y-115006748D03*
D15*
X94200000Y-102750000D03*
D16*
X94219000Y-97227000D03*
X105800000Y-97250000D03*
D15*
X105819000Y-102727000D03*
X94200000Y-84250000D03*
D16*
X94219000Y-78727000D03*
X105800000Y-78750000D03*
D15*
X105819000Y-84227000D03*
X94200000Y-65750000D03*
D16*
X94219000Y-60227000D03*
X105800000Y-60250000D03*
D15*
X105819000Y-65727000D03*
X94200000Y-47250000D03*
D16*
X94219000Y-41727000D03*
X105800000Y-41750000D03*
D15*
X105819000Y-47227000D03*
X112700000Y-102750000D03*
D16*
X112719000Y-97227000D03*
X124300000Y-97250000D03*
D15*
X124319000Y-102727000D03*
X112700000Y-84250000D03*
D16*
X112719000Y-78727000D03*
X124300000Y-78750000D03*
D15*
X124319000Y-84227000D03*
X112700000Y-65750000D03*
D16*
X112719000Y-60227000D03*
X124300000Y-60250000D03*
D15*
X124319000Y-65727000D03*
X112700000Y-47250000D03*
D16*
X112719000Y-41727000D03*
X124300000Y-41750000D03*
D15*
X124319000Y-47227000D03*
X131200000Y-98125000D03*
D16*
X131219000Y-92602000D03*
X142800000Y-92625000D03*
D15*
X142819000Y-98102000D03*
X131200000Y-79625000D03*
D16*
X131219000Y-74102000D03*
X142800000Y-74125000D03*
D15*
X142819000Y-79602000D03*
X131200000Y-61125000D03*
D16*
X131219000Y-55602000D03*
X142800000Y-55625000D03*
D15*
X142819000Y-61102000D03*
X131200000Y-42625000D03*
D16*
X131219000Y-37102000D03*
X142800000Y-37125000D03*
D15*
X142819000Y-42602000D03*
X149700000Y-95812500D03*
D16*
X149719000Y-90289500D03*
X161300000Y-90312500D03*
D15*
X161319000Y-95789500D03*
X149700000Y-77312500D03*
D16*
X149719000Y-71789500D03*
X161300000Y-71812500D03*
D15*
X161319000Y-77289500D03*
X149700000Y-58812500D03*
D16*
X149719000Y-53289500D03*
X161300000Y-53312500D03*
D15*
X161319000Y-58789500D03*
X149700000Y-40312500D03*
D16*
X149719000Y-34789500D03*
X161300000Y-34812500D03*
D15*
X161319000Y-40289500D03*
X168200000Y-98125000D03*
D16*
X168219000Y-92602000D03*
X179800000Y-92625000D03*
D15*
X179819000Y-98102000D03*
X168200000Y-79625000D03*
D16*
X168219000Y-74102000D03*
X179800000Y-74125000D03*
D15*
X179819000Y-79602000D03*
X168200000Y-61125000D03*
D16*
X168219000Y-55602000D03*
X179800000Y-55625000D03*
D15*
X179819000Y-61102000D03*
X168200000Y-42625000D03*
D16*
X168219000Y-37102000D03*
X179800000Y-37125000D03*
D15*
X179819000Y-42602000D03*
X186700000Y-100437500D03*
D16*
X186719000Y-94914500D03*
X198300000Y-94937500D03*
D15*
X198319000Y-100414500D03*
X186700000Y-81937500D03*
D16*
X186719000Y-76414500D03*
X198300000Y-76437500D03*
D15*
X198319000Y-81914500D03*
X186700000Y-63437500D03*
D16*
X186719000Y-57914500D03*
X198300000Y-57937500D03*
D15*
X198319000Y-63414500D03*
X186700000Y-44937500D03*
D16*
X186719000Y-39414500D03*
X198300000Y-39437500D03*
D15*
X198319000Y-44914500D03*
X158950000Y-117312500D03*
D16*
X158969000Y-111789500D03*
X170550000Y-111812500D03*
D15*
X170569000Y-117289500D03*
X178935878Y-118467646D03*
D16*
X180383688Y-113137755D03*
X191564122Y-116157354D03*
D15*
X190164923Y-121452648D03*
X206495413Y-127345195D03*
D16*
X201721855Y-124567241D03*
X207532273Y-114549301D03*
D15*
X212284994Y-117271346D03*
G36*
G01*
X96675000Y-103650000D02*
X96675000Y-101650000D01*
G75*
G02*
X96725000Y-101600000I50000J0D01*
G01*
X98275000Y-101600000D01*
G75*
G02*
X98325000Y-101650000I0J-50000D01*
G01*
X98325000Y-103650000D01*
G75*
G02*
X98275000Y-103700000I-50000J0D01*
G01*
X96725000Y-103700000D01*
G75*
G02*
X96675000Y-103650000I0J50000D01*
G01*
G37*
G36*
G01*
X101675000Y-103650000D02*
X101675000Y-101650000D01*
G75*
G02*
X101725000Y-101600000I50000J0D01*
G01*
X103275000Y-101600000D01*
G75*
G02*
X103325000Y-101650000I0J-50000D01*
G01*
X103325000Y-103650000D01*
G75*
G02*
X103275000Y-103700000I-50000J0D01*
G01*
X101725000Y-103700000D01*
G75*
G02*
X101675000Y-103650000I0J50000D01*
G01*
G37*
G36*
G01*
X92600000Y-95000000D02*
X92600000Y-93000000D01*
G75*
G02*
X92650000Y-92950000I50000J0D01*
G01*
X94650000Y-92950000D01*
G75*
G02*
X94700000Y-93000000I0J-50000D01*
G01*
X94700000Y-95000000D01*
G75*
G02*
X94650000Y-95050000I-50000J0D01*
G01*
X92650000Y-95050000D01*
G75*
G02*
X92600000Y-95000000I0J50000D01*
G01*
G37*
G36*
G01*
X92600000Y-107000000D02*
X92600000Y-105000000D01*
G75*
G02*
X92650000Y-104950000I50000J0D01*
G01*
X94650000Y-104950000D01*
G75*
G02*
X94700000Y-105000000I0J-50000D01*
G01*
X94700000Y-107000000D01*
G75*
G02*
X94650000Y-107050000I-50000J0D01*
G01*
X92650000Y-107050000D01*
G75*
G02*
X92600000Y-107000000I0J50000D01*
G01*
G37*
G36*
G01*
X105300000Y-95000000D02*
X105300000Y-93000000D01*
G75*
G02*
X105350000Y-92950000I50000J0D01*
G01*
X107350000Y-92950000D01*
G75*
G02*
X107400000Y-93000000I0J-50000D01*
G01*
X107400000Y-95000000D01*
G75*
G02*
X107350000Y-95050000I-50000J0D01*
G01*
X105350000Y-95050000D01*
G75*
G02*
X105300000Y-95000000I0J50000D01*
G01*
G37*
G36*
G01*
X105300000Y-107000000D02*
X105300000Y-105000000D01*
G75*
G02*
X105350000Y-104950000I50000J0D01*
G01*
X107350000Y-104950000D01*
G75*
G02*
X107400000Y-105000000I0J-50000D01*
G01*
X107400000Y-107000000D01*
G75*
G02*
X107350000Y-107050000I-50000J0D01*
G01*
X105350000Y-107050000D01*
G75*
G02*
X105300000Y-107000000I0J50000D01*
G01*
G37*
X94200000Y-102750000D03*
D16*
X94219000Y-97227000D03*
X105800000Y-97250000D03*
D15*
X105819000Y-102727000D03*
G36*
G01*
X96675000Y-85150000D02*
X96675000Y-83150000D01*
G75*
G02*
X96725000Y-83100000I50000J0D01*
G01*
X98275000Y-83100000D01*
G75*
G02*
X98325000Y-83150000I0J-50000D01*
G01*
X98325000Y-85150000D01*
G75*
G02*
X98275000Y-85200000I-50000J0D01*
G01*
X96725000Y-85200000D01*
G75*
G02*
X96675000Y-85150000I0J50000D01*
G01*
G37*
G36*
G01*
X101675000Y-85150000D02*
X101675000Y-83150000D01*
G75*
G02*
X101725000Y-83100000I50000J0D01*
G01*
X103275000Y-83100000D01*
G75*
G02*
X103325000Y-83150000I0J-50000D01*
G01*
X103325000Y-85150000D01*
G75*
G02*
X103275000Y-85200000I-50000J0D01*
G01*
X101725000Y-85200000D01*
G75*
G02*
X101675000Y-85150000I0J50000D01*
G01*
G37*
G36*
G01*
X92600000Y-76500000D02*
X92600000Y-74500000D01*
G75*
G02*
X92650000Y-74450000I50000J0D01*
G01*
X94650000Y-74450000D01*
G75*
G02*
X94700000Y-74500000I0J-50000D01*
G01*
X94700000Y-76500000D01*
G75*
G02*
X94650000Y-76550000I-50000J0D01*
G01*
X92650000Y-76550000D01*
G75*
G02*
X92600000Y-76500000I0J50000D01*
G01*
G37*
G36*
G01*
X92600000Y-88500000D02*
X92600000Y-86500000D01*
G75*
G02*
X92650000Y-86450000I50000J0D01*
G01*
X94650000Y-86450000D01*
G75*
G02*
X94700000Y-86500000I0J-50000D01*
G01*
X94700000Y-88500000D01*
G75*
G02*
X94650000Y-88550000I-50000J0D01*
G01*
X92650000Y-88550000D01*
G75*
G02*
X92600000Y-88500000I0J50000D01*
G01*
G37*
G36*
G01*
X105300000Y-76500000D02*
X105300000Y-74500000D01*
G75*
G02*
X105350000Y-74450000I50000J0D01*
G01*
X107350000Y-74450000D01*
G75*
G02*
X107400000Y-74500000I0J-50000D01*
G01*
X107400000Y-76500000D01*
G75*
G02*
X107350000Y-76550000I-50000J0D01*
G01*
X105350000Y-76550000D01*
G75*
G02*
X105300000Y-76500000I0J50000D01*
G01*
G37*
G36*
G01*
X105300000Y-88500000D02*
X105300000Y-86500000D01*
G75*
G02*
X105350000Y-86450000I50000J0D01*
G01*
X107350000Y-86450000D01*
G75*
G02*
X107400000Y-86500000I0J-50000D01*
G01*
X107400000Y-88500000D01*
G75*
G02*
X107350000Y-88550000I-50000J0D01*
G01*
X105350000Y-88550000D01*
G75*
G02*
X105300000Y-88500000I0J50000D01*
G01*
G37*
X94200000Y-84250000D03*
D16*
X94219000Y-78727000D03*
X105800000Y-78750000D03*
D15*
X105819000Y-84227000D03*
G36*
G01*
X96675000Y-66650000D02*
X96675000Y-64650000D01*
G75*
G02*
X96725000Y-64600000I50000J0D01*
G01*
X98275000Y-64600000D01*
G75*
G02*
X98325000Y-64650000I0J-50000D01*
G01*
X98325000Y-66650000D01*
G75*
G02*
X98275000Y-66700000I-50000J0D01*
G01*
X96725000Y-66700000D01*
G75*
G02*
X96675000Y-66650000I0J50000D01*
G01*
G37*
G36*
G01*
X101675000Y-66650000D02*
X101675000Y-64650000D01*
G75*
G02*
X101725000Y-64600000I50000J0D01*
G01*
X103275000Y-64600000D01*
G75*
G02*
X103325000Y-64650000I0J-50000D01*
G01*
X103325000Y-66650000D01*
G75*
G02*
X103275000Y-66700000I-50000J0D01*
G01*
X101725000Y-66700000D01*
G75*
G02*
X101675000Y-66650000I0J50000D01*
G01*
G37*
G36*
G01*
X92600000Y-58000000D02*
X92600000Y-56000000D01*
G75*
G02*
X92650000Y-55950000I50000J0D01*
G01*
X94650000Y-55950000D01*
G75*
G02*
X94700000Y-56000000I0J-50000D01*
G01*
X94700000Y-58000000D01*
G75*
G02*
X94650000Y-58050000I-50000J0D01*
G01*
X92650000Y-58050000D01*
G75*
G02*
X92600000Y-58000000I0J50000D01*
G01*
G37*
G36*
G01*
X92600000Y-70000000D02*
X92600000Y-68000000D01*
G75*
G02*
X92650000Y-67950000I50000J0D01*
G01*
X94650000Y-67950000D01*
G75*
G02*
X94700000Y-68000000I0J-50000D01*
G01*
X94700000Y-70000000D01*
G75*
G02*
X94650000Y-70050000I-50000J0D01*
G01*
X92650000Y-70050000D01*
G75*
G02*
X92600000Y-70000000I0J50000D01*
G01*
G37*
G36*
G01*
X105300000Y-58000000D02*
X105300000Y-56000000D01*
G75*
G02*
X105350000Y-55950000I50000J0D01*
G01*
X107350000Y-55950000D01*
G75*
G02*
X107400000Y-56000000I0J-50000D01*
G01*
X107400000Y-58000000D01*
G75*
G02*
X107350000Y-58050000I-50000J0D01*
G01*
X105350000Y-58050000D01*
G75*
G02*
X105300000Y-58000000I0J50000D01*
G01*
G37*
G36*
G01*
X105300000Y-70000000D02*
X105300000Y-68000000D01*
G75*
G02*
X105350000Y-67950000I50000J0D01*
G01*
X107350000Y-67950000D01*
G75*
G02*
X107400000Y-68000000I0J-50000D01*
G01*
X107400000Y-70000000D01*
G75*
G02*
X107350000Y-70050000I-50000J0D01*
G01*
X105350000Y-70050000D01*
G75*
G02*
X105300000Y-70000000I0J50000D01*
G01*
G37*
X94200000Y-65750000D03*
D16*
X94219000Y-60227000D03*
X105800000Y-60250000D03*
D15*
X105819000Y-65727000D03*
G36*
G01*
X96675000Y-48150000D02*
X96675000Y-46150000D01*
G75*
G02*
X96725000Y-46100000I50000J0D01*
G01*
X98275000Y-46100000D01*
G75*
G02*
X98325000Y-46150000I0J-50000D01*
G01*
X98325000Y-48150000D01*
G75*
G02*
X98275000Y-48200000I-50000J0D01*
G01*
X96725000Y-48200000D01*
G75*
G02*
X96675000Y-48150000I0J50000D01*
G01*
G37*
G36*
G01*
X101675000Y-48150000D02*
X101675000Y-46150000D01*
G75*
G02*
X101725000Y-46100000I50000J0D01*
G01*
X103275000Y-46100000D01*
G75*
G02*
X103325000Y-46150000I0J-50000D01*
G01*
X103325000Y-48150000D01*
G75*
G02*
X103275000Y-48200000I-50000J0D01*
G01*
X101725000Y-48200000D01*
G75*
G02*
X101675000Y-48150000I0J50000D01*
G01*
G37*
G36*
G01*
X92600000Y-39500000D02*
X92600000Y-37500000D01*
G75*
G02*
X92650000Y-37450000I50000J0D01*
G01*
X94650000Y-37450000D01*
G75*
G02*
X94700000Y-37500000I0J-50000D01*
G01*
X94700000Y-39500000D01*
G75*
G02*
X94650000Y-39550000I-50000J0D01*
G01*
X92650000Y-39550000D01*
G75*
G02*
X92600000Y-39500000I0J50000D01*
G01*
G37*
G36*
G01*
X92600000Y-51500000D02*
X92600000Y-49500000D01*
G75*
G02*
X92650000Y-49450000I50000J0D01*
G01*
X94650000Y-49450000D01*
G75*
G02*
X94700000Y-49500000I0J-50000D01*
G01*
X94700000Y-51500000D01*
G75*
G02*
X94650000Y-51550000I-50000J0D01*
G01*
X92650000Y-51550000D01*
G75*
G02*
X92600000Y-51500000I0J50000D01*
G01*
G37*
G36*
G01*
X105300000Y-39500000D02*
X105300000Y-37500000D01*
G75*
G02*
X105350000Y-37450000I50000J0D01*
G01*
X107350000Y-37450000D01*
G75*
G02*
X107400000Y-37500000I0J-50000D01*
G01*
X107400000Y-39500000D01*
G75*
G02*
X107350000Y-39550000I-50000J0D01*
G01*
X105350000Y-39550000D01*
G75*
G02*
X105300000Y-39500000I0J50000D01*
G01*
G37*
G36*
G01*
X105300000Y-51500000D02*
X105300000Y-49500000D01*
G75*
G02*
X105350000Y-49450000I50000J0D01*
G01*
X107350000Y-49450000D01*
G75*
G02*
X107400000Y-49500000I0J-50000D01*
G01*
X107400000Y-51500000D01*
G75*
G02*
X107350000Y-51550000I-50000J0D01*
G01*
X105350000Y-51550000D01*
G75*
G02*
X105300000Y-51500000I0J50000D01*
G01*
G37*
X94200000Y-47250000D03*
D16*
X94219000Y-41727000D03*
X105800000Y-41750000D03*
D15*
X105819000Y-47227000D03*
G36*
G01*
X115175000Y-103650000D02*
X115175000Y-101650000D01*
G75*
G02*
X115225000Y-101600000I50000J0D01*
G01*
X116775000Y-101600000D01*
G75*
G02*
X116825000Y-101650000I0J-50000D01*
G01*
X116825000Y-103650000D01*
G75*
G02*
X116775000Y-103700000I-50000J0D01*
G01*
X115225000Y-103700000D01*
G75*
G02*
X115175000Y-103650000I0J50000D01*
G01*
G37*
G36*
G01*
X120175000Y-103650000D02*
X120175000Y-101650000D01*
G75*
G02*
X120225000Y-101600000I50000J0D01*
G01*
X121775000Y-101600000D01*
G75*
G02*
X121825000Y-101650000I0J-50000D01*
G01*
X121825000Y-103650000D01*
G75*
G02*
X121775000Y-103700000I-50000J0D01*
G01*
X120225000Y-103700000D01*
G75*
G02*
X120175000Y-103650000I0J50000D01*
G01*
G37*
G36*
G01*
X111100000Y-95000000D02*
X111100000Y-93000000D01*
G75*
G02*
X111150000Y-92950000I50000J0D01*
G01*
X113150000Y-92950000D01*
G75*
G02*
X113200000Y-93000000I0J-50000D01*
G01*
X113200000Y-95000000D01*
G75*
G02*
X113150000Y-95050000I-50000J0D01*
G01*
X111150000Y-95050000D01*
G75*
G02*
X111100000Y-95000000I0J50000D01*
G01*
G37*
G36*
G01*
X111100000Y-107000000D02*
X111100000Y-105000000D01*
G75*
G02*
X111150000Y-104950000I50000J0D01*
G01*
X113150000Y-104950000D01*
G75*
G02*
X113200000Y-105000000I0J-50000D01*
G01*
X113200000Y-107000000D01*
G75*
G02*
X113150000Y-107050000I-50000J0D01*
G01*
X111150000Y-107050000D01*
G75*
G02*
X111100000Y-107000000I0J50000D01*
G01*
G37*
G36*
G01*
X123800000Y-95000000D02*
X123800000Y-93000000D01*
G75*
G02*
X123850000Y-92950000I50000J0D01*
G01*
X125850000Y-92950000D01*
G75*
G02*
X125900000Y-93000000I0J-50000D01*
G01*
X125900000Y-95000000D01*
G75*
G02*
X125850000Y-95050000I-50000J0D01*
G01*
X123850000Y-95050000D01*
G75*
G02*
X123800000Y-95000000I0J50000D01*
G01*
G37*
G36*
G01*
X123800000Y-107000000D02*
X123800000Y-105000000D01*
G75*
G02*
X123850000Y-104950000I50000J0D01*
G01*
X125850000Y-104950000D01*
G75*
G02*
X125900000Y-105000000I0J-50000D01*
G01*
X125900000Y-107000000D01*
G75*
G02*
X125850000Y-107050000I-50000J0D01*
G01*
X123850000Y-107050000D01*
G75*
G02*
X123800000Y-107000000I0J50000D01*
G01*
G37*
X112700000Y-102750000D03*
D16*
X112719000Y-97227000D03*
X124300000Y-97250000D03*
D15*
X124319000Y-102727000D03*
G36*
G01*
X115175000Y-85150000D02*
X115175000Y-83150000D01*
G75*
G02*
X115225000Y-83100000I50000J0D01*
G01*
X116775000Y-83100000D01*
G75*
G02*
X116825000Y-83150000I0J-50000D01*
G01*
X116825000Y-85150000D01*
G75*
G02*
X116775000Y-85200000I-50000J0D01*
G01*
X115225000Y-85200000D01*
G75*
G02*
X115175000Y-85150000I0J50000D01*
G01*
G37*
G36*
G01*
X120175000Y-85150000D02*
X120175000Y-83150000D01*
G75*
G02*
X120225000Y-83100000I50000J0D01*
G01*
X121775000Y-83100000D01*
G75*
G02*
X121825000Y-83150000I0J-50000D01*
G01*
X121825000Y-85150000D01*
G75*
G02*
X121775000Y-85200000I-50000J0D01*
G01*
X120225000Y-85200000D01*
G75*
G02*
X120175000Y-85150000I0J50000D01*
G01*
G37*
G36*
G01*
X111100000Y-76500000D02*
X111100000Y-74500000D01*
G75*
G02*
X111150000Y-74450000I50000J0D01*
G01*
X113150000Y-74450000D01*
G75*
G02*
X113200000Y-74500000I0J-50000D01*
G01*
X113200000Y-76500000D01*
G75*
G02*
X113150000Y-76550000I-50000J0D01*
G01*
X111150000Y-76550000D01*
G75*
G02*
X111100000Y-76500000I0J50000D01*
G01*
G37*
G36*
G01*
X111100000Y-88500000D02*
X111100000Y-86500000D01*
G75*
G02*
X111150000Y-86450000I50000J0D01*
G01*
X113150000Y-86450000D01*
G75*
G02*
X113200000Y-86500000I0J-50000D01*
G01*
X113200000Y-88500000D01*
G75*
G02*
X113150000Y-88550000I-50000J0D01*
G01*
X111150000Y-88550000D01*
G75*
G02*
X111100000Y-88500000I0J50000D01*
G01*
G37*
G36*
G01*
X123800000Y-76500000D02*
X123800000Y-74500000D01*
G75*
G02*
X123850000Y-74450000I50000J0D01*
G01*
X125850000Y-74450000D01*
G75*
G02*
X125900000Y-74500000I0J-50000D01*
G01*
X125900000Y-76500000D01*
G75*
G02*
X125850000Y-76550000I-50000J0D01*
G01*
X123850000Y-76550000D01*
G75*
G02*
X123800000Y-76500000I0J50000D01*
G01*
G37*
G36*
G01*
X123800000Y-88500000D02*
X123800000Y-86500000D01*
G75*
G02*
X123850000Y-86450000I50000J0D01*
G01*
X125850000Y-86450000D01*
G75*
G02*
X125900000Y-86500000I0J-50000D01*
G01*
X125900000Y-88500000D01*
G75*
G02*
X125850000Y-88550000I-50000J0D01*
G01*
X123850000Y-88550000D01*
G75*
G02*
X123800000Y-88500000I0J50000D01*
G01*
G37*
X112700000Y-84250000D03*
D16*
X112719000Y-78727000D03*
X124300000Y-78750000D03*
D15*
X124319000Y-84227000D03*
G36*
G01*
X115175000Y-66650000D02*
X115175000Y-64650000D01*
G75*
G02*
X115225000Y-64600000I50000J0D01*
G01*
X116775000Y-64600000D01*
G75*
G02*
X116825000Y-64650000I0J-50000D01*
G01*
X116825000Y-66650000D01*
G75*
G02*
X116775000Y-66700000I-50000J0D01*
G01*
X115225000Y-66700000D01*
G75*
G02*
X115175000Y-66650000I0J50000D01*
G01*
G37*
G36*
G01*
X120175000Y-66650000D02*
X120175000Y-64650000D01*
G75*
G02*
X120225000Y-64600000I50000J0D01*
G01*
X121775000Y-64600000D01*
G75*
G02*
X121825000Y-64650000I0J-50000D01*
G01*
X121825000Y-66650000D01*
G75*
G02*
X121775000Y-66700000I-50000J0D01*
G01*
X120225000Y-66700000D01*
G75*
G02*
X120175000Y-66650000I0J50000D01*
G01*
G37*
G36*
G01*
X111100000Y-58000000D02*
X111100000Y-56000000D01*
G75*
G02*
X111150000Y-55950000I50000J0D01*
G01*
X113150000Y-55950000D01*
G75*
G02*
X113200000Y-56000000I0J-50000D01*
G01*
X113200000Y-58000000D01*
G75*
G02*
X113150000Y-58050000I-50000J0D01*
G01*
X111150000Y-58050000D01*
G75*
G02*
X111100000Y-58000000I0J50000D01*
G01*
G37*
G36*
G01*
X111100000Y-70000000D02*
X111100000Y-68000000D01*
G75*
G02*
X111150000Y-67950000I50000J0D01*
G01*
X113150000Y-67950000D01*
G75*
G02*
X113200000Y-68000000I0J-50000D01*
G01*
X113200000Y-70000000D01*
G75*
G02*
X113150000Y-70050000I-50000J0D01*
G01*
X111150000Y-70050000D01*
G75*
G02*
X111100000Y-70000000I0J50000D01*
G01*
G37*
G36*
G01*
X123800000Y-58000000D02*
X123800000Y-56000000D01*
G75*
G02*
X123850000Y-55950000I50000J0D01*
G01*
X125850000Y-55950000D01*
G75*
G02*
X125900000Y-56000000I0J-50000D01*
G01*
X125900000Y-58000000D01*
G75*
G02*
X125850000Y-58050000I-50000J0D01*
G01*
X123850000Y-58050000D01*
G75*
G02*
X123800000Y-58000000I0J50000D01*
G01*
G37*
G36*
G01*
X123800000Y-70000000D02*
X123800000Y-68000000D01*
G75*
G02*
X123850000Y-67950000I50000J0D01*
G01*
X125850000Y-67950000D01*
G75*
G02*
X125900000Y-68000000I0J-50000D01*
G01*
X125900000Y-70000000D01*
G75*
G02*
X125850000Y-70050000I-50000J0D01*
G01*
X123850000Y-70050000D01*
G75*
G02*
X123800000Y-70000000I0J50000D01*
G01*
G37*
X112700000Y-65750000D03*
D16*
X112719000Y-60227000D03*
X124300000Y-60250000D03*
D15*
X124319000Y-65727000D03*
G36*
G01*
X115175000Y-48150000D02*
X115175000Y-46150000D01*
G75*
G02*
X115225000Y-46100000I50000J0D01*
G01*
X116775000Y-46100000D01*
G75*
G02*
X116825000Y-46150000I0J-50000D01*
G01*
X116825000Y-48150000D01*
G75*
G02*
X116775000Y-48200000I-50000J0D01*
G01*
X115225000Y-48200000D01*
G75*
G02*
X115175000Y-48150000I0J50000D01*
G01*
G37*
G36*
G01*
X120175000Y-48150000D02*
X120175000Y-46150000D01*
G75*
G02*
X120225000Y-46100000I50000J0D01*
G01*
X121775000Y-46100000D01*
G75*
G02*
X121825000Y-46150000I0J-50000D01*
G01*
X121825000Y-48150000D01*
G75*
G02*
X121775000Y-48200000I-50000J0D01*
G01*
X120225000Y-48200000D01*
G75*
G02*
X120175000Y-48150000I0J50000D01*
G01*
G37*
G36*
G01*
X111100000Y-39500000D02*
X111100000Y-37500000D01*
G75*
G02*
X111150000Y-37450000I50000J0D01*
G01*
X113150000Y-37450000D01*
G75*
G02*
X113200000Y-37500000I0J-50000D01*
G01*
X113200000Y-39500000D01*
G75*
G02*
X113150000Y-39550000I-50000J0D01*
G01*
X111150000Y-39550000D01*
G75*
G02*
X111100000Y-39500000I0J50000D01*
G01*
G37*
G36*
G01*
X111100000Y-51500000D02*
X111100000Y-49500000D01*
G75*
G02*
X111150000Y-49450000I50000J0D01*
G01*
X113150000Y-49450000D01*
G75*
G02*
X113200000Y-49500000I0J-50000D01*
G01*
X113200000Y-51500000D01*
G75*
G02*
X113150000Y-51550000I-50000J0D01*
G01*
X111150000Y-51550000D01*
G75*
G02*
X111100000Y-51500000I0J50000D01*
G01*
G37*
G36*
G01*
X123800000Y-39500000D02*
X123800000Y-37500000D01*
G75*
G02*
X123850000Y-37450000I50000J0D01*
G01*
X125850000Y-37450000D01*
G75*
G02*
X125900000Y-37500000I0J-50000D01*
G01*
X125900000Y-39500000D01*
G75*
G02*
X125850000Y-39550000I-50000J0D01*
G01*
X123850000Y-39550000D01*
G75*
G02*
X123800000Y-39500000I0J50000D01*
G01*
G37*
G36*
G01*
X123800000Y-51500000D02*
X123800000Y-49500000D01*
G75*
G02*
X123850000Y-49450000I50000J0D01*
G01*
X125850000Y-49450000D01*
G75*
G02*
X125900000Y-49500000I0J-50000D01*
G01*
X125900000Y-51500000D01*
G75*
G02*
X125850000Y-51550000I-50000J0D01*
G01*
X123850000Y-51550000D01*
G75*
G02*
X123800000Y-51500000I0J50000D01*
G01*
G37*
X112700000Y-47250000D03*
D16*
X112719000Y-41727000D03*
X124300000Y-41750000D03*
D15*
X124319000Y-47227000D03*
G36*
G01*
X133675000Y-99025000D02*
X133675000Y-97025000D01*
G75*
G02*
X133725000Y-96975000I50000J0D01*
G01*
X135275000Y-96975000D01*
G75*
G02*
X135325000Y-97025000I0J-50000D01*
G01*
X135325000Y-99025000D01*
G75*
G02*
X135275000Y-99075000I-50000J0D01*
G01*
X133725000Y-99075000D01*
G75*
G02*
X133675000Y-99025000I0J50000D01*
G01*
G37*
G36*
G01*
X138675000Y-99025000D02*
X138675000Y-97025000D01*
G75*
G02*
X138725000Y-96975000I50000J0D01*
G01*
X140275000Y-96975000D01*
G75*
G02*
X140325000Y-97025000I0J-50000D01*
G01*
X140325000Y-99025000D01*
G75*
G02*
X140275000Y-99075000I-50000J0D01*
G01*
X138725000Y-99075000D01*
G75*
G02*
X138675000Y-99025000I0J50000D01*
G01*
G37*
G36*
G01*
X129600000Y-90375000D02*
X129600000Y-88375000D01*
G75*
G02*
X129650000Y-88325000I50000J0D01*
G01*
X131650000Y-88325000D01*
G75*
G02*
X131700000Y-88375000I0J-50000D01*
G01*
X131700000Y-90375000D01*
G75*
G02*
X131650000Y-90425000I-50000J0D01*
G01*
X129650000Y-90425000D01*
G75*
G02*
X129600000Y-90375000I0J50000D01*
G01*
G37*
G36*
G01*
X129600000Y-102375000D02*
X129600000Y-100375000D01*
G75*
G02*
X129650000Y-100325000I50000J0D01*
G01*
X131650000Y-100325000D01*
G75*
G02*
X131700000Y-100375000I0J-50000D01*
G01*
X131700000Y-102375000D01*
G75*
G02*
X131650000Y-102425000I-50000J0D01*
G01*
X129650000Y-102425000D01*
G75*
G02*
X129600000Y-102375000I0J50000D01*
G01*
G37*
G36*
G01*
X142300000Y-90375000D02*
X142300000Y-88375000D01*
G75*
G02*
X142350000Y-88325000I50000J0D01*
G01*
X144350000Y-88325000D01*
G75*
G02*
X144400000Y-88375000I0J-50000D01*
G01*
X144400000Y-90375000D01*
G75*
G02*
X144350000Y-90425000I-50000J0D01*
G01*
X142350000Y-90425000D01*
G75*
G02*
X142300000Y-90375000I0J50000D01*
G01*
G37*
G36*
G01*
X142300000Y-102375000D02*
X142300000Y-100375000D01*
G75*
G02*
X142350000Y-100325000I50000J0D01*
G01*
X144350000Y-100325000D01*
G75*
G02*
X144400000Y-100375000I0J-50000D01*
G01*
X144400000Y-102375000D01*
G75*
G02*
X144350000Y-102425000I-50000J0D01*
G01*
X142350000Y-102425000D01*
G75*
G02*
X142300000Y-102375000I0J50000D01*
G01*
G37*
X131200000Y-98125000D03*
D16*
X131219000Y-92602000D03*
X142800000Y-92625000D03*
D15*
X142819000Y-98102000D03*
G36*
G01*
X133675000Y-80525000D02*
X133675000Y-78525000D01*
G75*
G02*
X133725000Y-78475000I50000J0D01*
G01*
X135275000Y-78475000D01*
G75*
G02*
X135325000Y-78525000I0J-50000D01*
G01*
X135325000Y-80525000D01*
G75*
G02*
X135275000Y-80575000I-50000J0D01*
G01*
X133725000Y-80575000D01*
G75*
G02*
X133675000Y-80525000I0J50000D01*
G01*
G37*
G36*
G01*
X138675000Y-80525000D02*
X138675000Y-78525000D01*
G75*
G02*
X138725000Y-78475000I50000J0D01*
G01*
X140275000Y-78475000D01*
G75*
G02*
X140325000Y-78525000I0J-50000D01*
G01*
X140325000Y-80525000D01*
G75*
G02*
X140275000Y-80575000I-50000J0D01*
G01*
X138725000Y-80575000D01*
G75*
G02*
X138675000Y-80525000I0J50000D01*
G01*
G37*
G36*
G01*
X129600000Y-71875000D02*
X129600000Y-69875000D01*
G75*
G02*
X129650000Y-69825000I50000J0D01*
G01*
X131650000Y-69825000D01*
G75*
G02*
X131700000Y-69875000I0J-50000D01*
G01*
X131700000Y-71875000D01*
G75*
G02*
X131650000Y-71925000I-50000J0D01*
G01*
X129650000Y-71925000D01*
G75*
G02*
X129600000Y-71875000I0J50000D01*
G01*
G37*
G36*
G01*
X129600000Y-83875000D02*
X129600000Y-81875000D01*
G75*
G02*
X129650000Y-81825000I50000J0D01*
G01*
X131650000Y-81825000D01*
G75*
G02*
X131700000Y-81875000I0J-50000D01*
G01*
X131700000Y-83875000D01*
G75*
G02*
X131650000Y-83925000I-50000J0D01*
G01*
X129650000Y-83925000D01*
G75*
G02*
X129600000Y-83875000I0J50000D01*
G01*
G37*
G36*
G01*
X142300000Y-71875000D02*
X142300000Y-69875000D01*
G75*
G02*
X142350000Y-69825000I50000J0D01*
G01*
X144350000Y-69825000D01*
G75*
G02*
X144400000Y-69875000I0J-50000D01*
G01*
X144400000Y-71875000D01*
G75*
G02*
X144350000Y-71925000I-50000J0D01*
G01*
X142350000Y-71925000D01*
G75*
G02*
X142300000Y-71875000I0J50000D01*
G01*
G37*
G36*
G01*
X142300000Y-83875000D02*
X142300000Y-81875000D01*
G75*
G02*
X142350000Y-81825000I50000J0D01*
G01*
X144350000Y-81825000D01*
G75*
G02*
X144400000Y-81875000I0J-50000D01*
G01*
X144400000Y-83875000D01*
G75*
G02*
X144350000Y-83925000I-50000J0D01*
G01*
X142350000Y-83925000D01*
G75*
G02*
X142300000Y-83875000I0J50000D01*
G01*
G37*
X131200000Y-79625000D03*
D16*
X131219000Y-74102000D03*
X142800000Y-74125000D03*
D15*
X142819000Y-79602000D03*
G36*
G01*
X133675000Y-62025000D02*
X133675000Y-60025000D01*
G75*
G02*
X133725000Y-59975000I50000J0D01*
G01*
X135275000Y-59975000D01*
G75*
G02*
X135325000Y-60025000I0J-50000D01*
G01*
X135325000Y-62025000D01*
G75*
G02*
X135275000Y-62075000I-50000J0D01*
G01*
X133725000Y-62075000D01*
G75*
G02*
X133675000Y-62025000I0J50000D01*
G01*
G37*
G36*
G01*
X138675000Y-62025000D02*
X138675000Y-60025000D01*
G75*
G02*
X138725000Y-59975000I50000J0D01*
G01*
X140275000Y-59975000D01*
G75*
G02*
X140325000Y-60025000I0J-50000D01*
G01*
X140325000Y-62025000D01*
G75*
G02*
X140275000Y-62075000I-50000J0D01*
G01*
X138725000Y-62075000D01*
G75*
G02*
X138675000Y-62025000I0J50000D01*
G01*
G37*
G36*
G01*
X129600000Y-53375000D02*
X129600000Y-51375000D01*
G75*
G02*
X129650000Y-51325000I50000J0D01*
G01*
X131650000Y-51325000D01*
G75*
G02*
X131700000Y-51375000I0J-50000D01*
G01*
X131700000Y-53375000D01*
G75*
G02*
X131650000Y-53425000I-50000J0D01*
G01*
X129650000Y-53425000D01*
G75*
G02*
X129600000Y-53375000I0J50000D01*
G01*
G37*
G36*
G01*
X129600000Y-65375000D02*
X129600000Y-63375000D01*
G75*
G02*
X129650000Y-63325000I50000J0D01*
G01*
X131650000Y-63325000D01*
G75*
G02*
X131700000Y-63375000I0J-50000D01*
G01*
X131700000Y-65375000D01*
G75*
G02*
X131650000Y-65425000I-50000J0D01*
G01*
X129650000Y-65425000D01*
G75*
G02*
X129600000Y-65375000I0J50000D01*
G01*
G37*
G36*
G01*
X142300000Y-53375000D02*
X142300000Y-51375000D01*
G75*
G02*
X142350000Y-51325000I50000J0D01*
G01*
X144350000Y-51325000D01*
G75*
G02*
X144400000Y-51375000I0J-50000D01*
G01*
X144400000Y-53375000D01*
G75*
G02*
X144350000Y-53425000I-50000J0D01*
G01*
X142350000Y-53425000D01*
G75*
G02*
X142300000Y-53375000I0J50000D01*
G01*
G37*
G36*
G01*
X142300000Y-65375000D02*
X142300000Y-63375000D01*
G75*
G02*
X142350000Y-63325000I50000J0D01*
G01*
X144350000Y-63325000D01*
G75*
G02*
X144400000Y-63375000I0J-50000D01*
G01*
X144400000Y-65375000D01*
G75*
G02*
X144350000Y-65425000I-50000J0D01*
G01*
X142350000Y-65425000D01*
G75*
G02*
X142300000Y-65375000I0J50000D01*
G01*
G37*
X131200000Y-61125000D03*
D16*
X131219000Y-55602000D03*
X142800000Y-55625000D03*
D15*
X142819000Y-61102000D03*
G36*
G01*
X133675000Y-43525000D02*
X133675000Y-41525000D01*
G75*
G02*
X133725000Y-41475000I50000J0D01*
G01*
X135275000Y-41475000D01*
G75*
G02*
X135325000Y-41525000I0J-50000D01*
G01*
X135325000Y-43525000D01*
G75*
G02*
X135275000Y-43575000I-50000J0D01*
G01*
X133725000Y-43575000D01*
G75*
G02*
X133675000Y-43525000I0J50000D01*
G01*
G37*
G36*
G01*
X138675000Y-43525000D02*
X138675000Y-41525000D01*
G75*
G02*
X138725000Y-41475000I50000J0D01*
G01*
X140275000Y-41475000D01*
G75*
G02*
X140325000Y-41525000I0J-50000D01*
G01*
X140325000Y-43525000D01*
G75*
G02*
X140275000Y-43575000I-50000J0D01*
G01*
X138725000Y-43575000D01*
G75*
G02*
X138675000Y-43525000I0J50000D01*
G01*
G37*
G36*
G01*
X129600000Y-34875000D02*
X129600000Y-32875000D01*
G75*
G02*
X129650000Y-32825000I50000J0D01*
G01*
X131650000Y-32825000D01*
G75*
G02*
X131700000Y-32875000I0J-50000D01*
G01*
X131700000Y-34875000D01*
G75*
G02*
X131650000Y-34925000I-50000J0D01*
G01*
X129650000Y-34925000D01*
G75*
G02*
X129600000Y-34875000I0J50000D01*
G01*
G37*
G36*
G01*
X129600000Y-46875000D02*
X129600000Y-44875000D01*
G75*
G02*
X129650000Y-44825000I50000J0D01*
G01*
X131650000Y-44825000D01*
G75*
G02*
X131700000Y-44875000I0J-50000D01*
G01*
X131700000Y-46875000D01*
G75*
G02*
X131650000Y-46925000I-50000J0D01*
G01*
X129650000Y-46925000D01*
G75*
G02*
X129600000Y-46875000I0J50000D01*
G01*
G37*
G36*
G01*
X142300000Y-34875000D02*
X142300000Y-32875000D01*
G75*
G02*
X142350000Y-32825000I50000J0D01*
G01*
X144350000Y-32825000D01*
G75*
G02*
X144400000Y-32875000I0J-50000D01*
G01*
X144400000Y-34875000D01*
G75*
G02*
X144350000Y-34925000I-50000J0D01*
G01*
X142350000Y-34925000D01*
G75*
G02*
X142300000Y-34875000I0J50000D01*
G01*
G37*
G36*
G01*
X142300000Y-46875000D02*
X142300000Y-44875000D01*
G75*
G02*
X142350000Y-44825000I50000J0D01*
G01*
X144350000Y-44825000D01*
G75*
G02*
X144400000Y-44875000I0J-50000D01*
G01*
X144400000Y-46875000D01*
G75*
G02*
X144350000Y-46925000I-50000J0D01*
G01*
X142350000Y-46925000D01*
G75*
G02*
X142300000Y-46875000I0J50000D01*
G01*
G37*
X131200000Y-42625000D03*
D16*
X131219000Y-37102000D03*
X142800000Y-37125000D03*
D15*
X142819000Y-42602000D03*
G36*
G01*
X152175000Y-96712500D02*
X152175000Y-94712500D01*
G75*
G02*
X152225000Y-94662500I50000J0D01*
G01*
X153775000Y-94662500D01*
G75*
G02*
X153825000Y-94712500I0J-50000D01*
G01*
X153825000Y-96712500D01*
G75*
G02*
X153775000Y-96762500I-50000J0D01*
G01*
X152225000Y-96762500D01*
G75*
G02*
X152175000Y-96712500I0J50000D01*
G01*
G37*
G36*
G01*
X157175000Y-96712500D02*
X157175000Y-94712500D01*
G75*
G02*
X157225000Y-94662500I50000J0D01*
G01*
X158775000Y-94662500D01*
G75*
G02*
X158825000Y-94712500I0J-50000D01*
G01*
X158825000Y-96712500D01*
G75*
G02*
X158775000Y-96762500I-50000J0D01*
G01*
X157225000Y-96762500D01*
G75*
G02*
X157175000Y-96712500I0J50000D01*
G01*
G37*
G36*
G01*
X148100000Y-88062500D02*
X148100000Y-86062500D01*
G75*
G02*
X148150000Y-86012500I50000J0D01*
G01*
X150150000Y-86012500D01*
G75*
G02*
X150200000Y-86062500I0J-50000D01*
G01*
X150200000Y-88062500D01*
G75*
G02*
X150150000Y-88112500I-50000J0D01*
G01*
X148150000Y-88112500D01*
G75*
G02*
X148100000Y-88062500I0J50000D01*
G01*
G37*
G36*
G01*
X148100000Y-100062500D02*
X148100000Y-98062500D01*
G75*
G02*
X148150000Y-98012500I50000J0D01*
G01*
X150150000Y-98012500D01*
G75*
G02*
X150200000Y-98062500I0J-50000D01*
G01*
X150200000Y-100062500D01*
G75*
G02*
X150150000Y-100112500I-50000J0D01*
G01*
X148150000Y-100112500D01*
G75*
G02*
X148100000Y-100062500I0J50000D01*
G01*
G37*
G36*
G01*
X160800000Y-88062500D02*
X160800000Y-86062500D01*
G75*
G02*
X160850000Y-86012500I50000J0D01*
G01*
X162850000Y-86012500D01*
G75*
G02*
X162900000Y-86062500I0J-50000D01*
G01*
X162900000Y-88062500D01*
G75*
G02*
X162850000Y-88112500I-50000J0D01*
G01*
X160850000Y-88112500D01*
G75*
G02*
X160800000Y-88062500I0J50000D01*
G01*
G37*
G36*
G01*
X160800000Y-100062500D02*
X160800000Y-98062500D01*
G75*
G02*
X160850000Y-98012500I50000J0D01*
G01*
X162850000Y-98012500D01*
G75*
G02*
X162900000Y-98062500I0J-50000D01*
G01*
X162900000Y-100062500D01*
G75*
G02*
X162850000Y-100112500I-50000J0D01*
G01*
X160850000Y-100112500D01*
G75*
G02*
X160800000Y-100062500I0J50000D01*
G01*
G37*
X149700000Y-95812500D03*
D16*
X149719000Y-90289500D03*
X161300000Y-90312500D03*
D15*
X161319000Y-95789500D03*
G36*
G01*
X152175000Y-78212500D02*
X152175000Y-76212500D01*
G75*
G02*
X152225000Y-76162500I50000J0D01*
G01*
X153775000Y-76162500D01*
G75*
G02*
X153825000Y-76212500I0J-50000D01*
G01*
X153825000Y-78212500D01*
G75*
G02*
X153775000Y-78262500I-50000J0D01*
G01*
X152225000Y-78262500D01*
G75*
G02*
X152175000Y-78212500I0J50000D01*
G01*
G37*
G36*
G01*
X157175000Y-78212500D02*
X157175000Y-76212500D01*
G75*
G02*
X157225000Y-76162500I50000J0D01*
G01*
X158775000Y-76162500D01*
G75*
G02*
X158825000Y-76212500I0J-50000D01*
G01*
X158825000Y-78212500D01*
G75*
G02*
X158775000Y-78262500I-50000J0D01*
G01*
X157225000Y-78262500D01*
G75*
G02*
X157175000Y-78212500I0J50000D01*
G01*
G37*
G36*
G01*
X148100000Y-69562500D02*
X148100000Y-67562500D01*
G75*
G02*
X148150000Y-67512500I50000J0D01*
G01*
X150150000Y-67512500D01*
G75*
G02*
X150200000Y-67562500I0J-50000D01*
G01*
X150200000Y-69562500D01*
G75*
G02*
X150150000Y-69612500I-50000J0D01*
G01*
X148150000Y-69612500D01*
G75*
G02*
X148100000Y-69562500I0J50000D01*
G01*
G37*
G36*
G01*
X148100000Y-81562500D02*
X148100000Y-79562500D01*
G75*
G02*
X148150000Y-79512500I50000J0D01*
G01*
X150150000Y-79512500D01*
G75*
G02*
X150200000Y-79562500I0J-50000D01*
G01*
X150200000Y-81562500D01*
G75*
G02*
X150150000Y-81612500I-50000J0D01*
G01*
X148150000Y-81612500D01*
G75*
G02*
X148100000Y-81562500I0J50000D01*
G01*
G37*
G36*
G01*
X160800000Y-69562500D02*
X160800000Y-67562500D01*
G75*
G02*
X160850000Y-67512500I50000J0D01*
G01*
X162850000Y-67512500D01*
G75*
G02*
X162900000Y-67562500I0J-50000D01*
G01*
X162900000Y-69562500D01*
G75*
G02*
X162850000Y-69612500I-50000J0D01*
G01*
X160850000Y-69612500D01*
G75*
G02*
X160800000Y-69562500I0J50000D01*
G01*
G37*
G36*
G01*
X160800000Y-81562500D02*
X160800000Y-79562500D01*
G75*
G02*
X160850000Y-79512500I50000J0D01*
G01*
X162850000Y-79512500D01*
G75*
G02*
X162900000Y-79562500I0J-50000D01*
G01*
X162900000Y-81562500D01*
G75*
G02*
X162850000Y-81612500I-50000J0D01*
G01*
X160850000Y-81612500D01*
G75*
G02*
X160800000Y-81562500I0J50000D01*
G01*
G37*
X149700000Y-77312500D03*
D16*
X149719000Y-71789500D03*
X161300000Y-71812500D03*
D15*
X161319000Y-77289500D03*
G36*
G01*
X152175000Y-59712500D02*
X152175000Y-57712500D01*
G75*
G02*
X152225000Y-57662500I50000J0D01*
G01*
X153775000Y-57662500D01*
G75*
G02*
X153825000Y-57712500I0J-50000D01*
G01*
X153825000Y-59712500D01*
G75*
G02*
X153775000Y-59762500I-50000J0D01*
G01*
X152225000Y-59762500D01*
G75*
G02*
X152175000Y-59712500I0J50000D01*
G01*
G37*
G36*
G01*
X157175000Y-59712500D02*
X157175000Y-57712500D01*
G75*
G02*
X157225000Y-57662500I50000J0D01*
G01*
X158775000Y-57662500D01*
G75*
G02*
X158825000Y-57712500I0J-50000D01*
G01*
X158825000Y-59712500D01*
G75*
G02*
X158775000Y-59762500I-50000J0D01*
G01*
X157225000Y-59762500D01*
G75*
G02*
X157175000Y-59712500I0J50000D01*
G01*
G37*
G36*
G01*
X148100000Y-51062500D02*
X148100000Y-49062500D01*
G75*
G02*
X148150000Y-49012500I50000J0D01*
G01*
X150150000Y-49012500D01*
G75*
G02*
X150200000Y-49062500I0J-50000D01*
G01*
X150200000Y-51062500D01*
G75*
G02*
X150150000Y-51112500I-50000J0D01*
G01*
X148150000Y-51112500D01*
G75*
G02*
X148100000Y-51062500I0J50000D01*
G01*
G37*
G36*
G01*
X148100000Y-63062500D02*
X148100000Y-61062500D01*
G75*
G02*
X148150000Y-61012500I50000J0D01*
G01*
X150150000Y-61012500D01*
G75*
G02*
X150200000Y-61062500I0J-50000D01*
G01*
X150200000Y-63062500D01*
G75*
G02*
X150150000Y-63112500I-50000J0D01*
G01*
X148150000Y-63112500D01*
G75*
G02*
X148100000Y-63062500I0J50000D01*
G01*
G37*
G36*
G01*
X160800000Y-51062500D02*
X160800000Y-49062500D01*
G75*
G02*
X160850000Y-49012500I50000J0D01*
G01*
X162850000Y-49012500D01*
G75*
G02*
X162900000Y-49062500I0J-50000D01*
G01*
X162900000Y-51062500D01*
G75*
G02*
X162850000Y-51112500I-50000J0D01*
G01*
X160850000Y-51112500D01*
G75*
G02*
X160800000Y-51062500I0J50000D01*
G01*
G37*
G36*
G01*
X160800000Y-63062500D02*
X160800000Y-61062500D01*
G75*
G02*
X160850000Y-61012500I50000J0D01*
G01*
X162850000Y-61012500D01*
G75*
G02*
X162900000Y-61062500I0J-50000D01*
G01*
X162900000Y-63062500D01*
G75*
G02*
X162850000Y-63112500I-50000J0D01*
G01*
X160850000Y-63112500D01*
G75*
G02*
X160800000Y-63062500I0J50000D01*
G01*
G37*
X149700000Y-58812500D03*
D16*
X149719000Y-53289500D03*
X161300000Y-53312500D03*
D15*
X161319000Y-58789500D03*
G36*
G01*
X152175000Y-41212500D02*
X152175000Y-39212500D01*
G75*
G02*
X152225000Y-39162500I50000J0D01*
G01*
X153775000Y-39162500D01*
G75*
G02*
X153825000Y-39212500I0J-50000D01*
G01*
X153825000Y-41212500D01*
G75*
G02*
X153775000Y-41262500I-50000J0D01*
G01*
X152225000Y-41262500D01*
G75*
G02*
X152175000Y-41212500I0J50000D01*
G01*
G37*
G36*
G01*
X157175000Y-41212500D02*
X157175000Y-39212500D01*
G75*
G02*
X157225000Y-39162500I50000J0D01*
G01*
X158775000Y-39162500D01*
G75*
G02*
X158825000Y-39212500I0J-50000D01*
G01*
X158825000Y-41212500D01*
G75*
G02*
X158775000Y-41262500I-50000J0D01*
G01*
X157225000Y-41262500D01*
G75*
G02*
X157175000Y-41212500I0J50000D01*
G01*
G37*
G36*
G01*
X148100000Y-32562500D02*
X148100000Y-30562500D01*
G75*
G02*
X148150000Y-30512500I50000J0D01*
G01*
X150150000Y-30512500D01*
G75*
G02*
X150200000Y-30562500I0J-50000D01*
G01*
X150200000Y-32562500D01*
G75*
G02*
X150150000Y-32612500I-50000J0D01*
G01*
X148150000Y-32612500D01*
G75*
G02*
X148100000Y-32562500I0J50000D01*
G01*
G37*
G36*
G01*
X148100000Y-44562500D02*
X148100000Y-42562500D01*
G75*
G02*
X148150000Y-42512500I50000J0D01*
G01*
X150150000Y-42512500D01*
G75*
G02*
X150200000Y-42562500I0J-50000D01*
G01*
X150200000Y-44562500D01*
G75*
G02*
X150150000Y-44612500I-50000J0D01*
G01*
X148150000Y-44612500D01*
G75*
G02*
X148100000Y-44562500I0J50000D01*
G01*
G37*
G36*
G01*
X160800000Y-32562500D02*
X160800000Y-30562500D01*
G75*
G02*
X160850000Y-30512500I50000J0D01*
G01*
X162850000Y-30512500D01*
G75*
G02*
X162900000Y-30562500I0J-50000D01*
G01*
X162900000Y-32562500D01*
G75*
G02*
X162850000Y-32612500I-50000J0D01*
G01*
X160850000Y-32612500D01*
G75*
G02*
X160800000Y-32562500I0J50000D01*
G01*
G37*
G36*
G01*
X160800000Y-44562500D02*
X160800000Y-42562500D01*
G75*
G02*
X160850000Y-42512500I50000J0D01*
G01*
X162850000Y-42512500D01*
G75*
G02*
X162900000Y-42562500I0J-50000D01*
G01*
X162900000Y-44562500D01*
G75*
G02*
X162850000Y-44612500I-50000J0D01*
G01*
X160850000Y-44612500D01*
G75*
G02*
X160800000Y-44562500I0J50000D01*
G01*
G37*
X149700000Y-40312500D03*
D16*
X149719000Y-34789500D03*
X161300000Y-34812500D03*
D15*
X161319000Y-40289500D03*
G36*
G01*
X170675000Y-99025000D02*
X170675000Y-97025000D01*
G75*
G02*
X170725000Y-96975000I50000J0D01*
G01*
X172275000Y-96975000D01*
G75*
G02*
X172325000Y-97025000I0J-50000D01*
G01*
X172325000Y-99025000D01*
G75*
G02*
X172275000Y-99075000I-50000J0D01*
G01*
X170725000Y-99075000D01*
G75*
G02*
X170675000Y-99025000I0J50000D01*
G01*
G37*
G36*
G01*
X175675000Y-99025000D02*
X175675000Y-97025000D01*
G75*
G02*
X175725000Y-96975000I50000J0D01*
G01*
X177275000Y-96975000D01*
G75*
G02*
X177325000Y-97025000I0J-50000D01*
G01*
X177325000Y-99025000D01*
G75*
G02*
X177275000Y-99075000I-50000J0D01*
G01*
X175725000Y-99075000D01*
G75*
G02*
X175675000Y-99025000I0J50000D01*
G01*
G37*
G36*
G01*
X166600000Y-90375000D02*
X166600000Y-88375000D01*
G75*
G02*
X166650000Y-88325000I50000J0D01*
G01*
X168650000Y-88325000D01*
G75*
G02*
X168700000Y-88375000I0J-50000D01*
G01*
X168700000Y-90375000D01*
G75*
G02*
X168650000Y-90425000I-50000J0D01*
G01*
X166650000Y-90425000D01*
G75*
G02*
X166600000Y-90375000I0J50000D01*
G01*
G37*
G36*
G01*
X166600000Y-102375000D02*
X166600000Y-100375000D01*
G75*
G02*
X166650000Y-100325000I50000J0D01*
G01*
X168650000Y-100325000D01*
G75*
G02*
X168700000Y-100375000I0J-50000D01*
G01*
X168700000Y-102375000D01*
G75*
G02*
X168650000Y-102425000I-50000J0D01*
G01*
X166650000Y-102425000D01*
G75*
G02*
X166600000Y-102375000I0J50000D01*
G01*
G37*
G36*
G01*
X179300000Y-90375000D02*
X179300000Y-88375000D01*
G75*
G02*
X179350000Y-88325000I50000J0D01*
G01*
X181350000Y-88325000D01*
G75*
G02*
X181400000Y-88375000I0J-50000D01*
G01*
X181400000Y-90375000D01*
G75*
G02*
X181350000Y-90425000I-50000J0D01*
G01*
X179350000Y-90425000D01*
G75*
G02*
X179300000Y-90375000I0J50000D01*
G01*
G37*
G36*
G01*
X179300000Y-102375000D02*
X179300000Y-100375000D01*
G75*
G02*
X179350000Y-100325000I50000J0D01*
G01*
X181350000Y-100325000D01*
G75*
G02*
X181400000Y-100375000I0J-50000D01*
G01*
X181400000Y-102375000D01*
G75*
G02*
X181350000Y-102425000I-50000J0D01*
G01*
X179350000Y-102425000D01*
G75*
G02*
X179300000Y-102375000I0J50000D01*
G01*
G37*
X168200000Y-98125000D03*
D16*
X168219000Y-92602000D03*
X179800000Y-92625000D03*
D15*
X179819000Y-98102000D03*
G36*
G01*
X170675000Y-80525000D02*
X170675000Y-78525000D01*
G75*
G02*
X170725000Y-78475000I50000J0D01*
G01*
X172275000Y-78475000D01*
G75*
G02*
X172325000Y-78525000I0J-50000D01*
G01*
X172325000Y-80525000D01*
G75*
G02*
X172275000Y-80575000I-50000J0D01*
G01*
X170725000Y-80575000D01*
G75*
G02*
X170675000Y-80525000I0J50000D01*
G01*
G37*
G36*
G01*
X175675000Y-80525000D02*
X175675000Y-78525000D01*
G75*
G02*
X175725000Y-78475000I50000J0D01*
G01*
X177275000Y-78475000D01*
G75*
G02*
X177325000Y-78525000I0J-50000D01*
G01*
X177325000Y-80525000D01*
G75*
G02*
X177275000Y-80575000I-50000J0D01*
G01*
X175725000Y-80575000D01*
G75*
G02*
X175675000Y-80525000I0J50000D01*
G01*
G37*
G36*
G01*
X166600000Y-71875000D02*
X166600000Y-69875000D01*
G75*
G02*
X166650000Y-69825000I50000J0D01*
G01*
X168650000Y-69825000D01*
G75*
G02*
X168700000Y-69875000I0J-50000D01*
G01*
X168700000Y-71875000D01*
G75*
G02*
X168650000Y-71925000I-50000J0D01*
G01*
X166650000Y-71925000D01*
G75*
G02*
X166600000Y-71875000I0J50000D01*
G01*
G37*
G36*
G01*
X166600000Y-83875000D02*
X166600000Y-81875000D01*
G75*
G02*
X166650000Y-81825000I50000J0D01*
G01*
X168650000Y-81825000D01*
G75*
G02*
X168700000Y-81875000I0J-50000D01*
G01*
X168700000Y-83875000D01*
G75*
G02*
X168650000Y-83925000I-50000J0D01*
G01*
X166650000Y-83925000D01*
G75*
G02*
X166600000Y-83875000I0J50000D01*
G01*
G37*
G36*
G01*
X179300000Y-71875000D02*
X179300000Y-69875000D01*
G75*
G02*
X179350000Y-69825000I50000J0D01*
G01*
X181350000Y-69825000D01*
G75*
G02*
X181400000Y-69875000I0J-50000D01*
G01*
X181400000Y-71875000D01*
G75*
G02*
X181350000Y-71925000I-50000J0D01*
G01*
X179350000Y-71925000D01*
G75*
G02*
X179300000Y-71875000I0J50000D01*
G01*
G37*
G36*
G01*
X179300000Y-83875000D02*
X179300000Y-81875000D01*
G75*
G02*
X179350000Y-81825000I50000J0D01*
G01*
X181350000Y-81825000D01*
G75*
G02*
X181400000Y-81875000I0J-50000D01*
G01*
X181400000Y-83875000D01*
G75*
G02*
X181350000Y-83925000I-50000J0D01*
G01*
X179350000Y-83925000D01*
G75*
G02*
X179300000Y-83875000I0J50000D01*
G01*
G37*
X168200000Y-79625000D03*
D16*
X168219000Y-74102000D03*
X179800000Y-74125000D03*
D15*
X179819000Y-79602000D03*
G36*
G01*
X170675000Y-62025000D02*
X170675000Y-60025000D01*
G75*
G02*
X170725000Y-59975000I50000J0D01*
G01*
X172275000Y-59975000D01*
G75*
G02*
X172325000Y-60025000I0J-50000D01*
G01*
X172325000Y-62025000D01*
G75*
G02*
X172275000Y-62075000I-50000J0D01*
G01*
X170725000Y-62075000D01*
G75*
G02*
X170675000Y-62025000I0J50000D01*
G01*
G37*
G36*
G01*
X175675000Y-62025000D02*
X175675000Y-60025000D01*
G75*
G02*
X175725000Y-59975000I50000J0D01*
G01*
X177275000Y-59975000D01*
G75*
G02*
X177325000Y-60025000I0J-50000D01*
G01*
X177325000Y-62025000D01*
G75*
G02*
X177275000Y-62075000I-50000J0D01*
G01*
X175725000Y-62075000D01*
G75*
G02*
X175675000Y-62025000I0J50000D01*
G01*
G37*
G36*
G01*
X166600000Y-53375000D02*
X166600000Y-51375000D01*
G75*
G02*
X166650000Y-51325000I50000J0D01*
G01*
X168650000Y-51325000D01*
G75*
G02*
X168700000Y-51375000I0J-50000D01*
G01*
X168700000Y-53375000D01*
G75*
G02*
X168650000Y-53425000I-50000J0D01*
G01*
X166650000Y-53425000D01*
G75*
G02*
X166600000Y-53375000I0J50000D01*
G01*
G37*
G36*
G01*
X166600000Y-65375000D02*
X166600000Y-63375000D01*
G75*
G02*
X166650000Y-63325000I50000J0D01*
G01*
X168650000Y-63325000D01*
G75*
G02*
X168700000Y-63375000I0J-50000D01*
G01*
X168700000Y-65375000D01*
G75*
G02*
X168650000Y-65425000I-50000J0D01*
G01*
X166650000Y-65425000D01*
G75*
G02*
X166600000Y-65375000I0J50000D01*
G01*
G37*
G36*
G01*
X179300000Y-53375000D02*
X179300000Y-51375000D01*
G75*
G02*
X179350000Y-51325000I50000J0D01*
G01*
X181350000Y-51325000D01*
G75*
G02*
X181400000Y-51375000I0J-50000D01*
G01*
X181400000Y-53375000D01*
G75*
G02*
X181350000Y-53425000I-50000J0D01*
G01*
X179350000Y-53425000D01*
G75*
G02*
X179300000Y-53375000I0J50000D01*
G01*
G37*
G36*
G01*
X179300000Y-65375000D02*
X179300000Y-63375000D01*
G75*
G02*
X179350000Y-63325000I50000J0D01*
G01*
X181350000Y-63325000D01*
G75*
G02*
X181400000Y-63375000I0J-50000D01*
G01*
X181400000Y-65375000D01*
G75*
G02*
X181350000Y-65425000I-50000J0D01*
G01*
X179350000Y-65425000D01*
G75*
G02*
X179300000Y-65375000I0J50000D01*
G01*
G37*
X168200000Y-61125000D03*
D16*
X168219000Y-55602000D03*
X179800000Y-55625000D03*
D15*
X179819000Y-61102000D03*
G36*
G01*
X170675000Y-43525000D02*
X170675000Y-41525000D01*
G75*
G02*
X170725000Y-41475000I50000J0D01*
G01*
X172275000Y-41475000D01*
G75*
G02*
X172325000Y-41525000I0J-50000D01*
G01*
X172325000Y-43525000D01*
G75*
G02*
X172275000Y-43575000I-50000J0D01*
G01*
X170725000Y-43575000D01*
G75*
G02*
X170675000Y-43525000I0J50000D01*
G01*
G37*
G36*
G01*
X175675000Y-43525000D02*
X175675000Y-41525000D01*
G75*
G02*
X175725000Y-41475000I50000J0D01*
G01*
X177275000Y-41475000D01*
G75*
G02*
X177325000Y-41525000I0J-50000D01*
G01*
X177325000Y-43525000D01*
G75*
G02*
X177275000Y-43575000I-50000J0D01*
G01*
X175725000Y-43575000D01*
G75*
G02*
X175675000Y-43525000I0J50000D01*
G01*
G37*
G36*
G01*
X166600000Y-34875000D02*
X166600000Y-32875000D01*
G75*
G02*
X166650000Y-32825000I50000J0D01*
G01*
X168650000Y-32825000D01*
G75*
G02*
X168700000Y-32875000I0J-50000D01*
G01*
X168700000Y-34875000D01*
G75*
G02*
X168650000Y-34925000I-50000J0D01*
G01*
X166650000Y-34925000D01*
G75*
G02*
X166600000Y-34875000I0J50000D01*
G01*
G37*
G36*
G01*
X166600000Y-46875000D02*
X166600000Y-44875000D01*
G75*
G02*
X166650000Y-44825000I50000J0D01*
G01*
X168650000Y-44825000D01*
G75*
G02*
X168700000Y-44875000I0J-50000D01*
G01*
X168700000Y-46875000D01*
G75*
G02*
X168650000Y-46925000I-50000J0D01*
G01*
X166650000Y-46925000D01*
G75*
G02*
X166600000Y-46875000I0J50000D01*
G01*
G37*
G36*
G01*
X179300000Y-34875000D02*
X179300000Y-32875000D01*
G75*
G02*
X179350000Y-32825000I50000J0D01*
G01*
X181350000Y-32825000D01*
G75*
G02*
X181400000Y-32875000I0J-50000D01*
G01*
X181400000Y-34875000D01*
G75*
G02*
X181350000Y-34925000I-50000J0D01*
G01*
X179350000Y-34925000D01*
G75*
G02*
X179300000Y-34875000I0J50000D01*
G01*
G37*
G36*
G01*
X179300000Y-46875000D02*
X179300000Y-44875000D01*
G75*
G02*
X179350000Y-44825000I50000J0D01*
G01*
X181350000Y-44825000D01*
G75*
G02*
X181400000Y-44875000I0J-50000D01*
G01*
X181400000Y-46875000D01*
G75*
G02*
X181350000Y-46925000I-50000J0D01*
G01*
X179350000Y-46925000D01*
G75*
G02*
X179300000Y-46875000I0J50000D01*
G01*
G37*
X168200000Y-42625000D03*
D16*
X168219000Y-37102000D03*
X179800000Y-37125000D03*
D15*
X179819000Y-42602000D03*
G36*
G01*
X189175000Y-101337500D02*
X189175000Y-99337500D01*
G75*
G02*
X189225000Y-99287500I50000J0D01*
G01*
X190775000Y-99287500D01*
G75*
G02*
X190825000Y-99337500I0J-50000D01*
G01*
X190825000Y-101337500D01*
G75*
G02*
X190775000Y-101387500I-50000J0D01*
G01*
X189225000Y-101387500D01*
G75*
G02*
X189175000Y-101337500I0J50000D01*
G01*
G37*
G36*
G01*
X194175000Y-101337500D02*
X194175000Y-99337500D01*
G75*
G02*
X194225000Y-99287500I50000J0D01*
G01*
X195775000Y-99287500D01*
G75*
G02*
X195825000Y-99337500I0J-50000D01*
G01*
X195825000Y-101337500D01*
G75*
G02*
X195775000Y-101387500I-50000J0D01*
G01*
X194225000Y-101387500D01*
G75*
G02*
X194175000Y-101337500I0J50000D01*
G01*
G37*
G36*
G01*
X185100000Y-92687500D02*
X185100000Y-90687500D01*
G75*
G02*
X185150000Y-90637500I50000J0D01*
G01*
X187150000Y-90637500D01*
G75*
G02*
X187200000Y-90687500I0J-50000D01*
G01*
X187200000Y-92687500D01*
G75*
G02*
X187150000Y-92737500I-50000J0D01*
G01*
X185150000Y-92737500D01*
G75*
G02*
X185100000Y-92687500I0J50000D01*
G01*
G37*
G36*
G01*
X185100000Y-104687500D02*
X185100000Y-102687500D01*
G75*
G02*
X185150000Y-102637500I50000J0D01*
G01*
X187150000Y-102637500D01*
G75*
G02*
X187200000Y-102687500I0J-50000D01*
G01*
X187200000Y-104687500D01*
G75*
G02*
X187150000Y-104737500I-50000J0D01*
G01*
X185150000Y-104737500D01*
G75*
G02*
X185100000Y-104687500I0J50000D01*
G01*
G37*
G36*
G01*
X197800000Y-92687500D02*
X197800000Y-90687500D01*
G75*
G02*
X197850000Y-90637500I50000J0D01*
G01*
X199850000Y-90637500D01*
G75*
G02*
X199900000Y-90687500I0J-50000D01*
G01*
X199900000Y-92687500D01*
G75*
G02*
X199850000Y-92737500I-50000J0D01*
G01*
X197850000Y-92737500D01*
G75*
G02*
X197800000Y-92687500I0J50000D01*
G01*
G37*
G36*
G01*
X197800000Y-104687500D02*
X197800000Y-102687500D01*
G75*
G02*
X197850000Y-102637500I50000J0D01*
G01*
X199850000Y-102637500D01*
G75*
G02*
X199900000Y-102687500I0J-50000D01*
G01*
X199900000Y-104687500D01*
G75*
G02*
X199850000Y-104737500I-50000J0D01*
G01*
X197850000Y-104737500D01*
G75*
G02*
X197800000Y-104687500I0J50000D01*
G01*
G37*
X186700000Y-100437500D03*
D16*
X186719000Y-94914500D03*
X198300000Y-94937500D03*
D15*
X198319000Y-100414500D03*
G36*
G01*
X189175000Y-82837500D02*
X189175000Y-80837500D01*
G75*
G02*
X189225000Y-80787500I50000J0D01*
G01*
X190775000Y-80787500D01*
G75*
G02*
X190825000Y-80837500I0J-50000D01*
G01*
X190825000Y-82837500D01*
G75*
G02*
X190775000Y-82887500I-50000J0D01*
G01*
X189225000Y-82887500D01*
G75*
G02*
X189175000Y-82837500I0J50000D01*
G01*
G37*
G36*
G01*
X194175000Y-82837500D02*
X194175000Y-80837500D01*
G75*
G02*
X194225000Y-80787500I50000J0D01*
G01*
X195775000Y-80787500D01*
G75*
G02*
X195825000Y-80837500I0J-50000D01*
G01*
X195825000Y-82837500D01*
G75*
G02*
X195775000Y-82887500I-50000J0D01*
G01*
X194225000Y-82887500D01*
G75*
G02*
X194175000Y-82837500I0J50000D01*
G01*
G37*
G36*
G01*
X185100000Y-74187500D02*
X185100000Y-72187500D01*
G75*
G02*
X185150000Y-72137500I50000J0D01*
G01*
X187150000Y-72137500D01*
G75*
G02*
X187200000Y-72187500I0J-50000D01*
G01*
X187200000Y-74187500D01*
G75*
G02*
X187150000Y-74237500I-50000J0D01*
G01*
X185150000Y-74237500D01*
G75*
G02*
X185100000Y-74187500I0J50000D01*
G01*
G37*
G36*
G01*
X185100000Y-86187500D02*
X185100000Y-84187500D01*
G75*
G02*
X185150000Y-84137500I50000J0D01*
G01*
X187150000Y-84137500D01*
G75*
G02*
X187200000Y-84187500I0J-50000D01*
G01*
X187200000Y-86187500D01*
G75*
G02*
X187150000Y-86237500I-50000J0D01*
G01*
X185150000Y-86237500D01*
G75*
G02*
X185100000Y-86187500I0J50000D01*
G01*
G37*
G36*
G01*
X197800000Y-74187500D02*
X197800000Y-72187500D01*
G75*
G02*
X197850000Y-72137500I50000J0D01*
G01*
X199850000Y-72137500D01*
G75*
G02*
X199900000Y-72187500I0J-50000D01*
G01*
X199900000Y-74187500D01*
G75*
G02*
X199850000Y-74237500I-50000J0D01*
G01*
X197850000Y-74237500D01*
G75*
G02*
X197800000Y-74187500I0J50000D01*
G01*
G37*
G36*
G01*
X197800000Y-86187500D02*
X197800000Y-84187500D01*
G75*
G02*
X197850000Y-84137500I50000J0D01*
G01*
X199850000Y-84137500D01*
G75*
G02*
X199900000Y-84187500I0J-50000D01*
G01*
X199900000Y-86187500D01*
G75*
G02*
X199850000Y-86237500I-50000J0D01*
G01*
X197850000Y-86237500D01*
G75*
G02*
X197800000Y-86187500I0J50000D01*
G01*
G37*
X186700000Y-81937500D03*
D16*
X186719000Y-76414500D03*
X198300000Y-76437500D03*
D15*
X198319000Y-81914500D03*
G36*
G01*
X189175000Y-64337500D02*
X189175000Y-62337500D01*
G75*
G02*
X189225000Y-62287500I50000J0D01*
G01*
X190775000Y-62287500D01*
G75*
G02*
X190825000Y-62337500I0J-50000D01*
G01*
X190825000Y-64337500D01*
G75*
G02*
X190775000Y-64387500I-50000J0D01*
G01*
X189225000Y-64387500D01*
G75*
G02*
X189175000Y-64337500I0J50000D01*
G01*
G37*
G36*
G01*
X194175000Y-64337500D02*
X194175000Y-62337500D01*
G75*
G02*
X194225000Y-62287500I50000J0D01*
G01*
X195775000Y-62287500D01*
G75*
G02*
X195825000Y-62337500I0J-50000D01*
G01*
X195825000Y-64337500D01*
G75*
G02*
X195775000Y-64387500I-50000J0D01*
G01*
X194225000Y-64387500D01*
G75*
G02*
X194175000Y-64337500I0J50000D01*
G01*
G37*
G36*
G01*
X185100000Y-55687500D02*
X185100000Y-53687500D01*
G75*
G02*
X185150000Y-53637500I50000J0D01*
G01*
X187150000Y-53637500D01*
G75*
G02*
X187200000Y-53687500I0J-50000D01*
G01*
X187200000Y-55687500D01*
G75*
G02*
X187150000Y-55737500I-50000J0D01*
G01*
X185150000Y-55737500D01*
G75*
G02*
X185100000Y-55687500I0J50000D01*
G01*
G37*
G36*
G01*
X185100000Y-67687500D02*
X185100000Y-65687500D01*
G75*
G02*
X185150000Y-65637500I50000J0D01*
G01*
X187150000Y-65637500D01*
G75*
G02*
X187200000Y-65687500I0J-50000D01*
G01*
X187200000Y-67687500D01*
G75*
G02*
X187150000Y-67737500I-50000J0D01*
G01*
X185150000Y-67737500D01*
G75*
G02*
X185100000Y-67687500I0J50000D01*
G01*
G37*
G36*
G01*
X197800000Y-55687500D02*
X197800000Y-53687500D01*
G75*
G02*
X197850000Y-53637500I50000J0D01*
G01*
X199850000Y-53637500D01*
G75*
G02*
X199900000Y-53687500I0J-50000D01*
G01*
X199900000Y-55687500D01*
G75*
G02*
X199850000Y-55737500I-50000J0D01*
G01*
X197850000Y-55737500D01*
G75*
G02*
X197800000Y-55687500I0J50000D01*
G01*
G37*
G36*
G01*
X197800000Y-67687500D02*
X197800000Y-65687500D01*
G75*
G02*
X197850000Y-65637500I50000J0D01*
G01*
X199850000Y-65637500D01*
G75*
G02*
X199900000Y-65687500I0J-50000D01*
G01*
X199900000Y-67687500D01*
G75*
G02*
X199850000Y-67737500I-50000J0D01*
G01*
X197850000Y-67737500D01*
G75*
G02*
X197800000Y-67687500I0J50000D01*
G01*
G37*
X186700000Y-63437500D03*
D16*
X186719000Y-57914500D03*
X198300000Y-57937500D03*
D15*
X198319000Y-63414500D03*
G36*
G01*
X189175000Y-45837500D02*
X189175000Y-43837500D01*
G75*
G02*
X189225000Y-43787500I50000J0D01*
G01*
X190775000Y-43787500D01*
G75*
G02*
X190825000Y-43837500I0J-50000D01*
G01*
X190825000Y-45837500D01*
G75*
G02*
X190775000Y-45887500I-50000J0D01*
G01*
X189225000Y-45887500D01*
G75*
G02*
X189175000Y-45837500I0J50000D01*
G01*
G37*
G36*
G01*
X194175000Y-45837500D02*
X194175000Y-43837500D01*
G75*
G02*
X194225000Y-43787500I50000J0D01*
G01*
X195775000Y-43787500D01*
G75*
G02*
X195825000Y-43837500I0J-50000D01*
G01*
X195825000Y-45837500D01*
G75*
G02*
X195775000Y-45887500I-50000J0D01*
G01*
X194225000Y-45887500D01*
G75*
G02*
X194175000Y-45837500I0J50000D01*
G01*
G37*
G36*
G01*
X185100000Y-37187500D02*
X185100000Y-35187500D01*
G75*
G02*
X185150000Y-35137500I50000J0D01*
G01*
X187150000Y-35137500D01*
G75*
G02*
X187200000Y-35187500I0J-50000D01*
G01*
X187200000Y-37187500D01*
G75*
G02*
X187150000Y-37237500I-50000J0D01*
G01*
X185150000Y-37237500D01*
G75*
G02*
X185100000Y-37187500I0J50000D01*
G01*
G37*
G36*
G01*
X185100000Y-49187500D02*
X185100000Y-47187500D01*
G75*
G02*
X185150000Y-47137500I50000J0D01*
G01*
X187150000Y-47137500D01*
G75*
G02*
X187200000Y-47187500I0J-50000D01*
G01*
X187200000Y-49187500D01*
G75*
G02*
X187150000Y-49237500I-50000J0D01*
G01*
X185150000Y-49237500D01*
G75*
G02*
X185100000Y-49187500I0J50000D01*
G01*
G37*
G36*
G01*
X197800000Y-37187500D02*
X197800000Y-35187500D01*
G75*
G02*
X197850000Y-35137500I50000J0D01*
G01*
X199850000Y-35137500D01*
G75*
G02*
X199900000Y-35187500I0J-50000D01*
G01*
X199900000Y-37187500D01*
G75*
G02*
X199850000Y-37237500I-50000J0D01*
G01*
X197850000Y-37237500D01*
G75*
G02*
X197800000Y-37187500I0J50000D01*
G01*
G37*
G36*
G01*
X197800000Y-49187500D02*
X197800000Y-47187500D01*
G75*
G02*
X197850000Y-47137500I50000J0D01*
G01*
X199850000Y-47137500D01*
G75*
G02*
X199900000Y-47187500I0J-50000D01*
G01*
X199900000Y-49187500D01*
G75*
G02*
X199850000Y-49237500I-50000J0D01*
G01*
X197850000Y-49237500D01*
G75*
G02*
X197800000Y-49187500I0J50000D01*
G01*
G37*
X186700000Y-44937500D03*
D16*
X186719000Y-39414500D03*
X198300000Y-39437500D03*
D15*
X198319000Y-44914500D03*
G36*
G01*
X161425000Y-118212500D02*
X161425000Y-116212500D01*
G75*
G02*
X161475000Y-116162500I50000J0D01*
G01*
X163025000Y-116162500D01*
G75*
G02*
X163075000Y-116212500I0J-50000D01*
G01*
X163075000Y-118212500D01*
G75*
G02*
X163025000Y-118262500I-50000J0D01*
G01*
X161475000Y-118262500D01*
G75*
G02*
X161425000Y-118212500I0J50000D01*
G01*
G37*
G36*
G01*
X166425000Y-118212500D02*
X166425000Y-116212500D01*
G75*
G02*
X166475000Y-116162500I50000J0D01*
G01*
X168025000Y-116162500D01*
G75*
G02*
X168075000Y-116212500I0J-50000D01*
G01*
X168075000Y-118212500D01*
G75*
G02*
X168025000Y-118262500I-50000J0D01*
G01*
X166475000Y-118262500D01*
G75*
G02*
X166425000Y-118212500I0J50000D01*
G01*
G37*
G36*
G01*
X157350000Y-109562500D02*
X157350000Y-107562500D01*
G75*
G02*
X157400000Y-107512500I50000J0D01*
G01*
X159400000Y-107512500D01*
G75*
G02*
X159450000Y-107562500I0J-50000D01*
G01*
X159450000Y-109562500D01*
G75*
G02*
X159400000Y-109612500I-50000J0D01*
G01*
X157400000Y-109612500D01*
G75*
G02*
X157350000Y-109562500I0J50000D01*
G01*
G37*
G36*
G01*
X157350000Y-121562500D02*
X157350000Y-119562500D01*
G75*
G02*
X157400000Y-119512500I50000J0D01*
G01*
X159400000Y-119512500D01*
G75*
G02*
X159450000Y-119562500I0J-50000D01*
G01*
X159450000Y-121562500D01*
G75*
G02*
X159400000Y-121612500I-50000J0D01*
G01*
X157400000Y-121612500D01*
G75*
G02*
X157350000Y-121562500I0J50000D01*
G01*
G37*
G36*
G01*
X170050000Y-109562500D02*
X170050000Y-107562500D01*
G75*
G02*
X170100000Y-107512500I50000J0D01*
G01*
X172100000Y-107512500D01*
G75*
G02*
X172150000Y-107562500I0J-50000D01*
G01*
X172150000Y-109562500D01*
G75*
G02*
X172100000Y-109612500I-50000J0D01*
G01*
X170100000Y-109612500D01*
G75*
G02*
X170050000Y-109562500I0J50000D01*
G01*
G37*
G36*
G01*
X170050000Y-121562500D02*
X170050000Y-119562500D01*
G75*
G02*
X170100000Y-119512500I50000J0D01*
G01*
X172100000Y-119512500D01*
G75*
G02*
X172150000Y-119562500I0J-50000D01*
G01*
X172150000Y-121562500D01*
G75*
G02*
X172100000Y-121612500I-50000J0D01*
G01*
X170100000Y-121612500D01*
G75*
G02*
X170050000Y-121562500I0J50000D01*
G01*
G37*
X158950000Y-117312500D03*
D16*
X158969000Y-111789500D03*
X170550000Y-111812500D03*
D15*
X170569000Y-117289500D03*
G36*
G01*
X181093607Y-119977556D02*
X181611246Y-118045704D01*
G75*
G02*
X181672483Y-118010349I48296J-12941D01*
G01*
X183169668Y-118411519D01*
G75*
G02*
X183205023Y-118472756I-12941J-48296D01*
G01*
X182687384Y-120404608D01*
G75*
G02*
X182626147Y-120439963I-48296J12941D01*
G01*
X181128962Y-120038793D01*
G75*
G02*
X181093607Y-119977556I12941J48296D01*
G01*
G37*
G36*
G01*
X185923236Y-121271651D02*
X186440875Y-119339799D01*
G75*
G02*
X186502112Y-119304444I48296J-12941D01*
G01*
X187999297Y-119705614D01*
G75*
G02*
X188034652Y-119766851I-12941J-48296D01*
G01*
X187517013Y-121698703D01*
G75*
G02*
X187455776Y-121734058I-48296J12941D01*
G01*
X185958591Y-121332888D01*
G75*
G02*
X185923236Y-121271651I12941J48296D01*
G01*
G37*
G36*
G01*
X179396244Y-110567610D02*
X179913882Y-108635758D01*
G75*
G02*
X179975119Y-108600403I48296J-12941D01*
G01*
X181906971Y-109118041D01*
G75*
G02*
X181942326Y-109179278I-12941J-48296D01*
G01*
X181424688Y-111111130D01*
G75*
G02*
X181363451Y-111146485I-48296J12941D01*
G01*
X179431599Y-110628847D01*
G75*
G02*
X179396244Y-110567610I12941J48296D01*
G01*
G37*
G36*
G01*
X176290416Y-122158720D02*
X176808054Y-120226868D01*
G75*
G02*
X176869291Y-120191513I48296J-12941D01*
G01*
X178801143Y-120709151D01*
G75*
G02*
X178836498Y-120770388I-12941J-48296D01*
G01*
X178318860Y-122702240D01*
G75*
G02*
X178257623Y-122737595I-48296J12941D01*
G01*
X176325771Y-122219957D01*
G75*
G02*
X176290416Y-122158720I12941J48296D01*
G01*
G37*
G36*
G01*
X191663502Y-113854612D02*
X192181140Y-111922760D01*
G75*
G02*
X192242377Y-111887405I48296J-12941D01*
G01*
X194174229Y-112405043D01*
G75*
G02*
X194209584Y-112466280I-12941J-48296D01*
G01*
X193691946Y-114398132D01*
G75*
G02*
X193630709Y-114433487I-48296J12941D01*
G01*
X191698857Y-113915849D01*
G75*
G02*
X191663502Y-113854612I12941J48296D01*
G01*
G37*
G36*
G01*
X188557674Y-125445722D02*
X189075312Y-123513870D01*
G75*
G02*
X189136549Y-123478515I48296J-12941D01*
G01*
X191068401Y-123996153D01*
G75*
G02*
X191103756Y-124057390I-12941J-48296D01*
G01*
X190586118Y-125989242D01*
G75*
G02*
X190524881Y-126024597I-48296J12941D01*
G01*
X188593029Y-125506959D01*
G75*
G02*
X188557674Y-125445722I12941J48296D01*
G01*
G37*
X178935878Y-118467646D03*
D16*
X180383688Y-113137755D03*
X191564122Y-116157354D03*
D15*
X190164923Y-121452648D03*
G36*
G01*
X208512335Y-125651783D02*
X206780285Y-124651783D01*
G75*
G02*
X206761984Y-124583482I25000J43301D01*
G01*
X207536984Y-123241142D01*
G75*
G02*
X207605285Y-123222841I43301J-25000D01*
G01*
X209337335Y-124222841D01*
G75*
G02*
X209355636Y-124291142I-25000J-43301D01*
G01*
X208580636Y-125633482D01*
G75*
G02*
X208512335Y-125651783I-43301J25000D01*
G01*
G37*
G36*
G01*
X211012335Y-121321655D02*
X209280285Y-120321655D01*
G75*
G02*
X209261984Y-120253354I25000J43301D01*
G01*
X210036984Y-118911014D01*
G75*
G02*
X210105285Y-118892713I43301J-25000D01*
G01*
X211837335Y-119892713D01*
G75*
G02*
X211855636Y-119961014I-25000J-43301D01*
G01*
X211080636Y-121303354D01*
G75*
G02*
X211012335Y-121321655I-43301J25000D01*
G01*
G37*
G36*
G01*
X198983716Y-124855835D02*
X197251666Y-123855835D01*
G75*
G02*
X197233365Y-123787534I25000J43301D01*
G01*
X198233365Y-122055484D01*
G75*
G02*
X198301666Y-122037183I43301J-25000D01*
G01*
X200033716Y-123037183D01*
G75*
G02*
X200052017Y-123105484I-25000J-43301D01*
G01*
X199052017Y-124837534D01*
G75*
G02*
X198983716Y-124855835I-43301J25000D01*
G01*
G37*
G36*
G01*
X209376020Y-130855835D02*
X207643970Y-129855835D01*
G75*
G02*
X207625669Y-129787534I25000J43301D01*
G01*
X208625669Y-128055484D01*
G75*
G02*
X208693970Y-128037183I43301J-25000D01*
G01*
X210426020Y-129037183D01*
G75*
G02*
X210444321Y-129105484I-25000J-43301D01*
G01*
X209444321Y-130837534D01*
G75*
G02*
X209376020Y-130855835I-43301J25000D01*
G01*
G37*
G36*
G01*
X205333716Y-113857313D02*
X203601666Y-112857313D01*
G75*
G02*
X203583365Y-112789012I25000J43301D01*
G01*
X204583365Y-111056962D01*
G75*
G02*
X204651666Y-111038661I43301J-25000D01*
G01*
X206383716Y-112038661D01*
G75*
G02*
X206402017Y-112106962I-25000J-43301D01*
G01*
X205402017Y-113839012D01*
G75*
G02*
X205333716Y-113857313I-43301J25000D01*
G01*
G37*
G36*
G01*
X215726020Y-119857313D02*
X213993970Y-118857313D01*
G75*
G02*
X213975669Y-118789012I25000J43301D01*
G01*
X214975669Y-117056962D01*
G75*
G02*
X215043970Y-117038661I43301J-25000D01*
G01*
X216776020Y-118038661D01*
G75*
G02*
X216794321Y-118106962I-25000J-43301D01*
G01*
X215794321Y-119839012D01*
G75*
G02*
X215726020Y-119857313I-43301J25000D01*
G01*
G37*
X206495413Y-127345195D03*
D16*
X201721855Y-124567241D03*
X207532273Y-114549301D03*
D15*
X212284994Y-117271346D03*
G36*
G01*
X98350000Y-98100000D02*
X98350000Y-96900000D01*
G75*
G02*
X98400000Y-96850000I50000J0D01*
G01*
X99300000Y-96850000D01*
G75*
G02*
X99350000Y-96900000I0J-50000D01*
G01*
X99350000Y-98100000D01*
G75*
G02*
X99300000Y-98150000I-50000J0D01*
G01*
X98400000Y-98150000D01*
G75*
G02*
X98350000Y-98100000I0J50000D01*
G01*
G37*
G36*
G01*
X101650000Y-98100000D02*
X101650000Y-96900000D01*
G75*
G02*
X101700000Y-96850000I50000J0D01*
G01*
X102600000Y-96850000D01*
G75*
G02*
X102650000Y-96900000I0J-50000D01*
G01*
X102650000Y-98100000D01*
G75*
G02*
X102600000Y-98150000I-50000J0D01*
G01*
X101700000Y-98150000D01*
G75*
G02*
X101650000Y-98100000I0J50000D01*
G01*
G37*
G36*
G01*
X98350000Y-79600000D02*
X98350000Y-78400000D01*
G75*
G02*
X98400000Y-78350000I50000J0D01*
G01*
X99300000Y-78350000D01*
G75*
G02*
X99350000Y-78400000I0J-50000D01*
G01*
X99350000Y-79600000D01*
G75*
G02*
X99300000Y-79650000I-50000J0D01*
G01*
X98400000Y-79650000D01*
G75*
G02*
X98350000Y-79600000I0J50000D01*
G01*
G37*
G36*
G01*
X101650000Y-79600000D02*
X101650000Y-78400000D01*
G75*
G02*
X101700000Y-78350000I50000J0D01*
G01*
X102600000Y-78350000D01*
G75*
G02*
X102650000Y-78400000I0J-50000D01*
G01*
X102650000Y-79600000D01*
G75*
G02*
X102600000Y-79650000I-50000J0D01*
G01*
X101700000Y-79650000D01*
G75*
G02*
X101650000Y-79600000I0J50000D01*
G01*
G37*
G36*
G01*
X98350000Y-61100000D02*
X98350000Y-59900000D01*
G75*
G02*
X98400000Y-59850000I50000J0D01*
G01*
X99300000Y-59850000D01*
G75*
G02*
X99350000Y-59900000I0J-50000D01*
G01*
X99350000Y-61100000D01*
G75*
G02*
X99300000Y-61150000I-50000J0D01*
G01*
X98400000Y-61150000D01*
G75*
G02*
X98350000Y-61100000I0J50000D01*
G01*
G37*
G36*
G01*
X101650000Y-61100000D02*
X101650000Y-59900000D01*
G75*
G02*
X101700000Y-59850000I50000J0D01*
G01*
X102600000Y-59850000D01*
G75*
G02*
X102650000Y-59900000I0J-50000D01*
G01*
X102650000Y-61100000D01*
G75*
G02*
X102600000Y-61150000I-50000J0D01*
G01*
X101700000Y-61150000D01*
G75*
G02*
X101650000Y-61100000I0J50000D01*
G01*
G37*
G36*
G01*
X98350000Y-42600000D02*
X98350000Y-41400000D01*
G75*
G02*
X98400000Y-41350000I50000J0D01*
G01*
X99300000Y-41350000D01*
G75*
G02*
X99350000Y-41400000I0J-50000D01*
G01*
X99350000Y-42600000D01*
G75*
G02*
X99300000Y-42650000I-50000J0D01*
G01*
X98400000Y-42650000D01*
G75*
G02*
X98350000Y-42600000I0J50000D01*
G01*
G37*
G36*
G01*
X101650000Y-42600000D02*
X101650000Y-41400000D01*
G75*
G02*
X101700000Y-41350000I50000J0D01*
G01*
X102600000Y-41350000D01*
G75*
G02*
X102650000Y-41400000I0J-50000D01*
G01*
X102650000Y-42600000D01*
G75*
G02*
X102600000Y-42650000I-50000J0D01*
G01*
X101700000Y-42650000D01*
G75*
G02*
X101650000Y-42600000I0J50000D01*
G01*
G37*
G36*
G01*
X116850000Y-98100000D02*
X116850000Y-96900000D01*
G75*
G02*
X116900000Y-96850000I50000J0D01*
G01*
X117800000Y-96850000D01*
G75*
G02*
X117850000Y-96900000I0J-50000D01*
G01*
X117850000Y-98100000D01*
G75*
G02*
X117800000Y-98150000I-50000J0D01*
G01*
X116900000Y-98150000D01*
G75*
G02*
X116850000Y-98100000I0J50000D01*
G01*
G37*
G36*
G01*
X120150000Y-98100000D02*
X120150000Y-96900000D01*
G75*
G02*
X120200000Y-96850000I50000J0D01*
G01*
X121100000Y-96850000D01*
G75*
G02*
X121150000Y-96900000I0J-50000D01*
G01*
X121150000Y-98100000D01*
G75*
G02*
X121100000Y-98150000I-50000J0D01*
G01*
X120200000Y-98150000D01*
G75*
G02*
X120150000Y-98100000I0J50000D01*
G01*
G37*
G36*
G01*
X116850000Y-79600000D02*
X116850000Y-78400000D01*
G75*
G02*
X116900000Y-78350000I50000J0D01*
G01*
X117800000Y-78350000D01*
G75*
G02*
X117850000Y-78400000I0J-50000D01*
G01*
X117850000Y-79600000D01*
G75*
G02*
X117800000Y-79650000I-50000J0D01*
G01*
X116900000Y-79650000D01*
G75*
G02*
X116850000Y-79600000I0J50000D01*
G01*
G37*
G36*
G01*
X120150000Y-79600000D02*
X120150000Y-78400000D01*
G75*
G02*
X120200000Y-78350000I50000J0D01*
G01*
X121100000Y-78350000D01*
G75*
G02*
X121150000Y-78400000I0J-50000D01*
G01*
X121150000Y-79600000D01*
G75*
G02*
X121100000Y-79650000I-50000J0D01*
G01*
X120200000Y-79650000D01*
G75*
G02*
X120150000Y-79600000I0J50000D01*
G01*
G37*
G36*
G01*
X116850000Y-61100000D02*
X116850000Y-59900000D01*
G75*
G02*
X116900000Y-59850000I50000J0D01*
G01*
X117800000Y-59850000D01*
G75*
G02*
X117850000Y-59900000I0J-50000D01*
G01*
X117850000Y-61100000D01*
G75*
G02*
X117800000Y-61150000I-50000J0D01*
G01*
X116900000Y-61150000D01*
G75*
G02*
X116850000Y-61100000I0J50000D01*
G01*
G37*
G36*
G01*
X120150000Y-61100000D02*
X120150000Y-59900000D01*
G75*
G02*
X120200000Y-59850000I50000J0D01*
G01*
X121100000Y-59850000D01*
G75*
G02*
X121150000Y-59900000I0J-50000D01*
G01*
X121150000Y-61100000D01*
G75*
G02*
X121100000Y-61150000I-50000J0D01*
G01*
X120200000Y-61150000D01*
G75*
G02*
X120150000Y-61100000I0J50000D01*
G01*
G37*
G36*
G01*
X116850000Y-42600000D02*
X116850000Y-41400000D01*
G75*
G02*
X116900000Y-41350000I50000J0D01*
G01*
X117800000Y-41350000D01*
G75*
G02*
X117850000Y-41400000I0J-50000D01*
G01*
X117850000Y-42600000D01*
G75*
G02*
X117800000Y-42650000I-50000J0D01*
G01*
X116900000Y-42650000D01*
G75*
G02*
X116850000Y-42600000I0J50000D01*
G01*
G37*
G36*
G01*
X120150000Y-42600000D02*
X120150000Y-41400000D01*
G75*
G02*
X120200000Y-41350000I50000J0D01*
G01*
X121100000Y-41350000D01*
G75*
G02*
X121150000Y-41400000I0J-50000D01*
G01*
X121150000Y-42600000D01*
G75*
G02*
X121100000Y-42650000I-50000J0D01*
G01*
X120200000Y-42650000D01*
G75*
G02*
X120150000Y-42600000I0J50000D01*
G01*
G37*
G36*
G01*
X135350000Y-93475000D02*
X135350000Y-92275000D01*
G75*
G02*
X135400000Y-92225000I50000J0D01*
G01*
X136300000Y-92225000D01*
G75*
G02*
X136350000Y-92275000I0J-50000D01*
G01*
X136350000Y-93475000D01*
G75*
G02*
X136300000Y-93525000I-50000J0D01*
G01*
X135400000Y-93525000D01*
G75*
G02*
X135350000Y-93475000I0J50000D01*
G01*
G37*
G36*
G01*
X138650000Y-93475000D02*
X138650000Y-92275000D01*
G75*
G02*
X138700000Y-92225000I50000J0D01*
G01*
X139600000Y-92225000D01*
G75*
G02*
X139650000Y-92275000I0J-50000D01*
G01*
X139650000Y-93475000D01*
G75*
G02*
X139600000Y-93525000I-50000J0D01*
G01*
X138700000Y-93525000D01*
G75*
G02*
X138650000Y-93475000I0J50000D01*
G01*
G37*
G36*
G01*
X135350000Y-74975000D02*
X135350000Y-73775000D01*
G75*
G02*
X135400000Y-73725000I50000J0D01*
G01*
X136300000Y-73725000D01*
G75*
G02*
X136350000Y-73775000I0J-50000D01*
G01*
X136350000Y-74975000D01*
G75*
G02*
X136300000Y-75025000I-50000J0D01*
G01*
X135400000Y-75025000D01*
G75*
G02*
X135350000Y-74975000I0J50000D01*
G01*
G37*
G36*
G01*
X138650000Y-74975000D02*
X138650000Y-73775000D01*
G75*
G02*
X138700000Y-73725000I50000J0D01*
G01*
X139600000Y-73725000D01*
G75*
G02*
X139650000Y-73775000I0J-50000D01*
G01*
X139650000Y-74975000D01*
G75*
G02*
X139600000Y-75025000I-50000J0D01*
G01*
X138700000Y-75025000D01*
G75*
G02*
X138650000Y-74975000I0J50000D01*
G01*
G37*
G36*
G01*
X135350000Y-56475000D02*
X135350000Y-55275000D01*
G75*
G02*
X135400000Y-55225000I50000J0D01*
G01*
X136300000Y-55225000D01*
G75*
G02*
X136350000Y-55275000I0J-50000D01*
G01*
X136350000Y-56475000D01*
G75*
G02*
X136300000Y-56525000I-50000J0D01*
G01*
X135400000Y-56525000D01*
G75*
G02*
X135350000Y-56475000I0J50000D01*
G01*
G37*
G36*
G01*
X138650000Y-56475000D02*
X138650000Y-55275000D01*
G75*
G02*
X138700000Y-55225000I50000J0D01*
G01*
X139600000Y-55225000D01*
G75*
G02*
X139650000Y-55275000I0J-50000D01*
G01*
X139650000Y-56475000D01*
G75*
G02*
X139600000Y-56525000I-50000J0D01*
G01*
X138700000Y-56525000D01*
G75*
G02*
X138650000Y-56475000I0J50000D01*
G01*
G37*
G36*
G01*
X135350000Y-37975000D02*
X135350000Y-36775000D01*
G75*
G02*
X135400000Y-36725000I50000J0D01*
G01*
X136300000Y-36725000D01*
G75*
G02*
X136350000Y-36775000I0J-50000D01*
G01*
X136350000Y-37975000D01*
G75*
G02*
X136300000Y-38025000I-50000J0D01*
G01*
X135400000Y-38025000D01*
G75*
G02*
X135350000Y-37975000I0J50000D01*
G01*
G37*
G36*
G01*
X138650000Y-37975000D02*
X138650000Y-36775000D01*
G75*
G02*
X138700000Y-36725000I50000J0D01*
G01*
X139600000Y-36725000D01*
G75*
G02*
X139650000Y-36775000I0J-50000D01*
G01*
X139650000Y-37975000D01*
G75*
G02*
X139600000Y-38025000I-50000J0D01*
G01*
X138700000Y-38025000D01*
G75*
G02*
X138650000Y-37975000I0J50000D01*
G01*
G37*
G36*
G01*
X153850000Y-91162500D02*
X153850000Y-89962500D01*
G75*
G02*
X153900000Y-89912500I50000J0D01*
G01*
X154800000Y-89912500D01*
G75*
G02*
X154850000Y-89962500I0J-50000D01*
G01*
X154850000Y-91162500D01*
G75*
G02*
X154800000Y-91212500I-50000J0D01*
G01*
X153900000Y-91212500D01*
G75*
G02*
X153850000Y-91162500I0J50000D01*
G01*
G37*
G36*
G01*
X157150000Y-91162500D02*
X157150000Y-89962500D01*
G75*
G02*
X157200000Y-89912500I50000J0D01*
G01*
X158100000Y-89912500D01*
G75*
G02*
X158150000Y-89962500I0J-50000D01*
G01*
X158150000Y-91162500D01*
G75*
G02*
X158100000Y-91212500I-50000J0D01*
G01*
X157200000Y-91212500D01*
G75*
G02*
X157150000Y-91162500I0J50000D01*
G01*
G37*
G36*
G01*
X153850000Y-72662500D02*
X153850000Y-71462500D01*
G75*
G02*
X153900000Y-71412500I50000J0D01*
G01*
X154800000Y-71412500D01*
G75*
G02*
X154850000Y-71462500I0J-50000D01*
G01*
X154850000Y-72662500D01*
G75*
G02*
X154800000Y-72712500I-50000J0D01*
G01*
X153900000Y-72712500D01*
G75*
G02*
X153850000Y-72662500I0J50000D01*
G01*
G37*
G36*
G01*
X157150000Y-72662500D02*
X157150000Y-71462500D01*
G75*
G02*
X157200000Y-71412500I50000J0D01*
G01*
X158100000Y-71412500D01*
G75*
G02*
X158150000Y-71462500I0J-50000D01*
G01*
X158150000Y-72662500D01*
G75*
G02*
X158100000Y-72712500I-50000J0D01*
G01*
X157200000Y-72712500D01*
G75*
G02*
X157150000Y-72662500I0J50000D01*
G01*
G37*
G36*
G01*
X153850000Y-54162500D02*
X153850000Y-52962500D01*
G75*
G02*
X153900000Y-52912500I50000J0D01*
G01*
X154800000Y-52912500D01*
G75*
G02*
X154850000Y-52962500I0J-50000D01*
G01*
X154850000Y-54162500D01*
G75*
G02*
X154800000Y-54212500I-50000J0D01*
G01*
X153900000Y-54212500D01*
G75*
G02*
X153850000Y-54162500I0J50000D01*
G01*
G37*
G36*
G01*
X157150000Y-54162500D02*
X157150000Y-52962500D01*
G75*
G02*
X157200000Y-52912500I50000J0D01*
G01*
X158100000Y-52912500D01*
G75*
G02*
X158150000Y-52962500I0J-50000D01*
G01*
X158150000Y-54162500D01*
G75*
G02*
X158100000Y-54212500I-50000J0D01*
G01*
X157200000Y-54212500D01*
G75*
G02*
X157150000Y-54162500I0J50000D01*
G01*
G37*
G36*
G01*
X153850000Y-35662500D02*
X153850000Y-34462500D01*
G75*
G02*
X153900000Y-34412500I50000J0D01*
G01*
X154800000Y-34412500D01*
G75*
G02*
X154850000Y-34462500I0J-50000D01*
G01*
X154850000Y-35662500D01*
G75*
G02*
X154800000Y-35712500I-50000J0D01*
G01*
X153900000Y-35712500D01*
G75*
G02*
X153850000Y-35662500I0J50000D01*
G01*
G37*
G36*
G01*
X157150000Y-35662500D02*
X157150000Y-34462500D01*
G75*
G02*
X157200000Y-34412500I50000J0D01*
G01*
X158100000Y-34412500D01*
G75*
G02*
X158150000Y-34462500I0J-50000D01*
G01*
X158150000Y-35662500D01*
G75*
G02*
X158100000Y-35712500I-50000J0D01*
G01*
X157200000Y-35712500D01*
G75*
G02*
X157150000Y-35662500I0J50000D01*
G01*
G37*
G36*
G01*
X172350000Y-93475000D02*
X172350000Y-92275000D01*
G75*
G02*
X172400000Y-92225000I50000J0D01*
G01*
X173300000Y-92225000D01*
G75*
G02*
X173350000Y-92275000I0J-50000D01*
G01*
X173350000Y-93475000D01*
G75*
G02*
X173300000Y-93525000I-50000J0D01*
G01*
X172400000Y-93525000D01*
G75*
G02*
X172350000Y-93475000I0J50000D01*
G01*
G37*
G36*
G01*
X175650000Y-93475000D02*
X175650000Y-92275000D01*
G75*
G02*
X175700000Y-92225000I50000J0D01*
G01*
X176600000Y-92225000D01*
G75*
G02*
X176650000Y-92275000I0J-50000D01*
G01*
X176650000Y-93475000D01*
G75*
G02*
X176600000Y-93525000I-50000J0D01*
G01*
X175700000Y-93525000D01*
G75*
G02*
X175650000Y-93475000I0J50000D01*
G01*
G37*
G36*
G01*
X172350000Y-74975000D02*
X172350000Y-73775000D01*
G75*
G02*
X172400000Y-73725000I50000J0D01*
G01*
X173300000Y-73725000D01*
G75*
G02*
X173350000Y-73775000I0J-50000D01*
G01*
X173350000Y-74975000D01*
G75*
G02*
X173300000Y-75025000I-50000J0D01*
G01*
X172400000Y-75025000D01*
G75*
G02*
X172350000Y-74975000I0J50000D01*
G01*
G37*
G36*
G01*
X175650000Y-74975000D02*
X175650000Y-73775000D01*
G75*
G02*
X175700000Y-73725000I50000J0D01*
G01*
X176600000Y-73725000D01*
G75*
G02*
X176650000Y-73775000I0J-50000D01*
G01*
X176650000Y-74975000D01*
G75*
G02*
X176600000Y-75025000I-50000J0D01*
G01*
X175700000Y-75025000D01*
G75*
G02*
X175650000Y-74975000I0J50000D01*
G01*
G37*
G36*
G01*
X172350000Y-56475000D02*
X172350000Y-55275000D01*
G75*
G02*
X172400000Y-55225000I50000J0D01*
G01*
X173300000Y-55225000D01*
G75*
G02*
X173350000Y-55275000I0J-50000D01*
G01*
X173350000Y-56475000D01*
G75*
G02*
X173300000Y-56525000I-50000J0D01*
G01*
X172400000Y-56525000D01*
G75*
G02*
X172350000Y-56475000I0J50000D01*
G01*
G37*
G36*
G01*
X175650000Y-56475000D02*
X175650000Y-55275000D01*
G75*
G02*
X175700000Y-55225000I50000J0D01*
G01*
X176600000Y-55225000D01*
G75*
G02*
X176650000Y-55275000I0J-50000D01*
G01*
X176650000Y-56475000D01*
G75*
G02*
X176600000Y-56525000I-50000J0D01*
G01*
X175700000Y-56525000D01*
G75*
G02*
X175650000Y-56475000I0J50000D01*
G01*
G37*
G36*
G01*
X172350000Y-37975000D02*
X172350000Y-36775000D01*
G75*
G02*
X172400000Y-36725000I50000J0D01*
G01*
X173300000Y-36725000D01*
G75*
G02*
X173350000Y-36775000I0J-50000D01*
G01*
X173350000Y-37975000D01*
G75*
G02*
X173300000Y-38025000I-50000J0D01*
G01*
X172400000Y-38025000D01*
G75*
G02*
X172350000Y-37975000I0J50000D01*
G01*
G37*
G36*
G01*
X175650000Y-37975000D02*
X175650000Y-36775000D01*
G75*
G02*
X175700000Y-36725000I50000J0D01*
G01*
X176600000Y-36725000D01*
G75*
G02*
X176650000Y-36775000I0J-50000D01*
G01*
X176650000Y-37975000D01*
G75*
G02*
X176600000Y-38025000I-50000J0D01*
G01*
X175700000Y-38025000D01*
G75*
G02*
X175650000Y-37975000I0J50000D01*
G01*
G37*
G36*
G01*
X190850000Y-95787500D02*
X190850000Y-94587500D01*
G75*
G02*
X190900000Y-94537500I50000J0D01*
G01*
X191800000Y-94537500D01*
G75*
G02*
X191850000Y-94587500I0J-50000D01*
G01*
X191850000Y-95787500D01*
G75*
G02*
X191800000Y-95837500I-50000J0D01*
G01*
X190900000Y-95837500D01*
G75*
G02*
X190850000Y-95787500I0J50000D01*
G01*
G37*
G36*
G01*
X194150000Y-95787500D02*
X194150000Y-94587500D01*
G75*
G02*
X194200000Y-94537500I50000J0D01*
G01*
X195100000Y-94537500D01*
G75*
G02*
X195150000Y-94587500I0J-50000D01*
G01*
X195150000Y-95787500D01*
G75*
G02*
X195100000Y-95837500I-50000J0D01*
G01*
X194200000Y-95837500D01*
G75*
G02*
X194150000Y-95787500I0J50000D01*
G01*
G37*
G36*
G01*
X190850000Y-77287500D02*
X190850000Y-76087500D01*
G75*
G02*
X190900000Y-76037500I50000J0D01*
G01*
X191800000Y-76037500D01*
G75*
G02*
X191850000Y-76087500I0J-50000D01*
G01*
X191850000Y-77287500D01*
G75*
G02*
X191800000Y-77337500I-50000J0D01*
G01*
X190900000Y-77337500D01*
G75*
G02*
X190850000Y-77287500I0J50000D01*
G01*
G37*
G36*
G01*
X194150000Y-77287500D02*
X194150000Y-76087500D01*
G75*
G02*
X194200000Y-76037500I50000J0D01*
G01*
X195100000Y-76037500D01*
G75*
G02*
X195150000Y-76087500I0J-50000D01*
G01*
X195150000Y-77287500D01*
G75*
G02*
X195100000Y-77337500I-50000J0D01*
G01*
X194200000Y-77337500D01*
G75*
G02*
X194150000Y-77287500I0J50000D01*
G01*
G37*
G36*
G01*
X190850000Y-58787500D02*
X190850000Y-57587500D01*
G75*
G02*
X190900000Y-57537500I50000J0D01*
G01*
X191800000Y-57537500D01*
G75*
G02*
X191850000Y-57587500I0J-50000D01*
G01*
X191850000Y-58787500D01*
G75*
G02*
X191800000Y-58837500I-50000J0D01*
G01*
X190900000Y-58837500D01*
G75*
G02*
X190850000Y-58787500I0J50000D01*
G01*
G37*
G36*
G01*
X194150000Y-58787500D02*
X194150000Y-57587500D01*
G75*
G02*
X194200000Y-57537500I50000J0D01*
G01*
X195100000Y-57537500D01*
G75*
G02*
X195150000Y-57587500I0J-50000D01*
G01*
X195150000Y-58787500D01*
G75*
G02*
X195100000Y-58837500I-50000J0D01*
G01*
X194200000Y-58837500D01*
G75*
G02*
X194150000Y-58787500I0J50000D01*
G01*
G37*
G36*
G01*
X190850000Y-40287500D02*
X190850000Y-39087500D01*
G75*
G02*
X190900000Y-39037500I50000J0D01*
G01*
X191800000Y-39037500D01*
G75*
G02*
X191850000Y-39087500I0J-50000D01*
G01*
X191850000Y-40287500D01*
G75*
G02*
X191800000Y-40337500I-50000J0D01*
G01*
X190900000Y-40337500D01*
G75*
G02*
X190850000Y-40287500I0J50000D01*
G01*
G37*
G36*
G01*
X194150000Y-40287500D02*
X194150000Y-39087500D01*
G75*
G02*
X194200000Y-39037500I50000J0D01*
G01*
X195100000Y-39037500D01*
G75*
G02*
X195150000Y-39087500I0J-50000D01*
G01*
X195150000Y-40287500D01*
G75*
G02*
X195100000Y-40337500I-50000J0D01*
G01*
X194200000Y-40337500D01*
G75*
G02*
X194150000Y-40287500I0J50000D01*
G01*
G37*
G36*
G01*
X163100000Y-112662500D02*
X163100000Y-111462500D01*
G75*
G02*
X163150000Y-111412500I50000J0D01*
G01*
X164050000Y-111412500D01*
G75*
G02*
X164100000Y-111462500I0J-50000D01*
G01*
X164100000Y-112662500D01*
G75*
G02*
X164050000Y-112712500I-50000J0D01*
G01*
X163150000Y-112712500D01*
G75*
G02*
X163100000Y-112662500I0J50000D01*
G01*
G37*
G36*
G01*
X166400000Y-112662500D02*
X166400000Y-111462500D01*
G75*
G02*
X166450000Y-111412500I50000J0D01*
G01*
X167350000Y-111412500D01*
G75*
G02*
X167400000Y-111462500I0J-50000D01*
G01*
X167400000Y-112662500D01*
G75*
G02*
X167350000Y-112712500I-50000J0D01*
G01*
X166450000Y-112712500D01*
G75*
G02*
X166400000Y-112662500I0J50000D01*
G01*
G37*
G36*
G01*
X184147979Y-115050190D02*
X184458562Y-113891079D01*
G75*
G02*
X184519799Y-113855724I48296J-12941D01*
G01*
X185389132Y-114088661D01*
G75*
G02*
X185424487Y-114149898I-12941J-48296D01*
G01*
X185113904Y-115309009D01*
G75*
G02*
X185052667Y-115344364I-48296J12941D01*
G01*
X184183334Y-115111427D01*
G75*
G02*
X184147979Y-115050190I12941J48296D01*
G01*
G37*
G36*
G01*
X187335535Y-115904292D02*
X187646118Y-114745181D01*
G75*
G02*
X187707355Y-114709826I48296J-12941D01*
G01*
X188576688Y-114942763D01*
G75*
G02*
X188612043Y-115004000I-12941J-48296D01*
G01*
X188301460Y-116163111D01*
G75*
G02*
X188240223Y-116198466I-48296J12941D01*
G01*
X187370890Y-115965529D01*
G75*
G02*
X187335535Y-115904292I12941J48296D01*
G01*
G37*
G36*
G01*
X204543394Y-121426189D02*
X203504164Y-120826189D01*
G75*
G02*
X203485863Y-120757888I25000J43301D01*
G01*
X203935863Y-119978466D01*
G75*
G02*
X204004164Y-119960165I43301J-25000D01*
G01*
X205043394Y-120560165D01*
G75*
G02*
X205061695Y-120628466I-25000J-43301D01*
G01*
X204611695Y-121407888D01*
G75*
G02*
X204543394Y-121426189I-43301J25000D01*
G01*
G37*
G36*
G01*
X206193394Y-118568305D02*
X205154164Y-117968305D01*
G75*
G02*
X205135863Y-117900004I25000J43301D01*
G01*
X205585863Y-117120582D01*
G75*
G02*
X205654164Y-117102281I43301J-25000D01*
G01*
X206693394Y-117702281D01*
G75*
G02*
X206711695Y-117770582I-25000J-43301D01*
G01*
X206261695Y-118550004D01*
G75*
G02*
X206193394Y-118568305I-43301J25000D01*
G01*
G37*
D17*
X204584000Y-59420000D03*
X219824000Y-59420000D03*
D18*
X208804000Y-59420000D03*
X215604000Y-59420000D03*
G36*
G01*
X206374000Y-60020000D02*
X206374000Y-58820000D01*
G75*
G02*
X206424000Y-58770000I50000J0D01*
G01*
X207024000Y-58770000D01*
G75*
G02*
X207074000Y-58820000I0J-50000D01*
G01*
X207074000Y-60020000D01*
G75*
G02*
X207024000Y-60070000I-50000J0D01*
G01*
X206424000Y-60070000D01*
G75*
G02*
X206374000Y-60020000I0J50000D01*
G01*
G37*
G36*
G01*
X207274000Y-60020000D02*
X207274000Y-58820000D01*
G75*
G02*
X207324000Y-58770000I50000J0D01*
G01*
X207924000Y-58770000D01*
G75*
G02*
X207974000Y-58820000I0J-50000D01*
G01*
X207974000Y-60020000D01*
G75*
G02*
X207924000Y-60070000I-50000J0D01*
G01*
X207324000Y-60070000D01*
G75*
G02*
X207274000Y-60020000I0J50000D01*
G01*
G37*
G36*
G01*
X216434000Y-60020000D02*
X216434000Y-58820000D01*
G75*
G02*
X216484000Y-58770000I50000J0D01*
G01*
X217084000Y-58770000D01*
G75*
G02*
X217134000Y-58820000I0J-50000D01*
G01*
X217134000Y-60020000D01*
G75*
G02*
X217084000Y-60070000I-50000J0D01*
G01*
X216484000Y-60070000D01*
G75*
G02*
X216434000Y-60020000I0J50000D01*
G01*
G37*
G36*
G01*
X217334000Y-60020000D02*
X217334000Y-58820000D01*
G75*
G02*
X217384000Y-58770000I50000J0D01*
G01*
X217984000Y-58770000D01*
G75*
G02*
X218034000Y-58820000I0J-50000D01*
G01*
X218034000Y-60020000D01*
G75*
G02*
X217984000Y-60070000I-50000J0D01*
G01*
X217384000Y-60070000D01*
G75*
G02*
X217334000Y-60020000I0J50000D01*
G01*
G37*
D17*
X204584000Y-61960000D03*
X219824000Y-61960000D03*
D18*
X208804000Y-61960000D03*
X215604000Y-61960000D03*
G36*
G01*
X206374000Y-62560000D02*
X206374000Y-61360000D01*
G75*
G02*
X206424000Y-61310000I50000J0D01*
G01*
X207024000Y-61310000D01*
G75*
G02*
X207074000Y-61360000I0J-50000D01*
G01*
X207074000Y-62560000D01*
G75*
G02*
X207024000Y-62610000I-50000J0D01*
G01*
X206424000Y-62610000D01*
G75*
G02*
X206374000Y-62560000I0J50000D01*
G01*
G37*
G36*
G01*
X207274000Y-62560000D02*
X207274000Y-61360000D01*
G75*
G02*
X207324000Y-61310000I50000J0D01*
G01*
X207924000Y-61310000D01*
G75*
G02*
X207974000Y-61360000I0J-50000D01*
G01*
X207974000Y-62560000D01*
G75*
G02*
X207924000Y-62610000I-50000J0D01*
G01*
X207324000Y-62610000D01*
G75*
G02*
X207274000Y-62560000I0J50000D01*
G01*
G37*
G36*
G01*
X216434000Y-62560000D02*
X216434000Y-61360000D01*
G75*
G02*
X216484000Y-61310000I50000J0D01*
G01*
X217084000Y-61310000D01*
G75*
G02*
X217134000Y-61360000I0J-50000D01*
G01*
X217134000Y-62560000D01*
G75*
G02*
X217084000Y-62610000I-50000J0D01*
G01*
X216484000Y-62610000D01*
G75*
G02*
X216434000Y-62560000I0J50000D01*
G01*
G37*
G36*
G01*
X217334000Y-62560000D02*
X217334000Y-61360000D01*
G75*
G02*
X217384000Y-61310000I50000J0D01*
G01*
X217984000Y-61310000D01*
G75*
G02*
X218034000Y-61360000I0J-50000D01*
G01*
X218034000Y-62560000D01*
G75*
G02*
X217984000Y-62610000I-50000J0D01*
G01*
X217384000Y-62610000D01*
G75*
G02*
X217334000Y-62560000I0J50000D01*
G01*
G37*
D17*
X204584000Y-64500000D03*
X219824000Y-64500000D03*
D18*
X208804000Y-64500000D03*
X215604000Y-64500000D03*
G36*
G01*
X206374000Y-65100000D02*
X206374000Y-63900000D01*
G75*
G02*
X206424000Y-63850000I50000J0D01*
G01*
X207024000Y-63850000D01*
G75*
G02*
X207074000Y-63900000I0J-50000D01*
G01*
X207074000Y-65100000D01*
G75*
G02*
X207024000Y-65150000I-50000J0D01*
G01*
X206424000Y-65150000D01*
G75*
G02*
X206374000Y-65100000I0J50000D01*
G01*
G37*
G36*
G01*
X207274000Y-65100000D02*
X207274000Y-63900000D01*
G75*
G02*
X207324000Y-63850000I50000J0D01*
G01*
X207924000Y-63850000D01*
G75*
G02*
X207974000Y-63900000I0J-50000D01*
G01*
X207974000Y-65100000D01*
G75*
G02*
X207924000Y-65150000I-50000J0D01*
G01*
X207324000Y-65150000D01*
G75*
G02*
X207274000Y-65100000I0J50000D01*
G01*
G37*
G36*
G01*
X216434000Y-65100000D02*
X216434000Y-63900000D01*
G75*
G02*
X216484000Y-63850000I50000J0D01*
G01*
X217084000Y-63850000D01*
G75*
G02*
X217134000Y-63900000I0J-50000D01*
G01*
X217134000Y-65100000D01*
G75*
G02*
X217084000Y-65150000I-50000J0D01*
G01*
X216484000Y-65150000D01*
G75*
G02*
X216434000Y-65100000I0J50000D01*
G01*
G37*
G36*
G01*
X217334000Y-65100000D02*
X217334000Y-63900000D01*
G75*
G02*
X217384000Y-63850000I50000J0D01*
G01*
X217984000Y-63850000D01*
G75*
G02*
X218034000Y-63900000I0J-50000D01*
G01*
X218034000Y-65100000D01*
G75*
G02*
X217984000Y-65150000I-50000J0D01*
G01*
X217384000Y-65150000D01*
G75*
G02*
X217334000Y-65100000I0J50000D01*
G01*
G37*
D17*
X204584000Y-67040000D03*
X219824000Y-67040000D03*
D18*
X208804000Y-67040000D03*
X215604000Y-67040000D03*
G36*
G01*
X206374000Y-67640000D02*
X206374000Y-66440000D01*
G75*
G02*
X206424000Y-66390000I50000J0D01*
G01*
X207024000Y-66390000D01*
G75*
G02*
X207074000Y-66440000I0J-50000D01*
G01*
X207074000Y-67640000D01*
G75*
G02*
X207024000Y-67690000I-50000J0D01*
G01*
X206424000Y-67690000D01*
G75*
G02*
X206374000Y-67640000I0J50000D01*
G01*
G37*
G36*
G01*
X207274000Y-67640000D02*
X207274000Y-66440000D01*
G75*
G02*
X207324000Y-66390000I50000J0D01*
G01*
X207924000Y-66390000D01*
G75*
G02*
X207974000Y-66440000I0J-50000D01*
G01*
X207974000Y-67640000D01*
G75*
G02*
X207924000Y-67690000I-50000J0D01*
G01*
X207324000Y-67690000D01*
G75*
G02*
X207274000Y-67640000I0J50000D01*
G01*
G37*
G36*
G01*
X216434000Y-67640000D02*
X216434000Y-66440000D01*
G75*
G02*
X216484000Y-66390000I50000J0D01*
G01*
X217084000Y-66390000D01*
G75*
G02*
X217134000Y-66440000I0J-50000D01*
G01*
X217134000Y-67640000D01*
G75*
G02*
X217084000Y-67690000I-50000J0D01*
G01*
X216484000Y-67690000D01*
G75*
G02*
X216434000Y-67640000I0J50000D01*
G01*
G37*
G36*
G01*
X217334000Y-67640000D02*
X217334000Y-66440000D01*
G75*
G02*
X217384000Y-66390000I50000J0D01*
G01*
X217984000Y-66390000D01*
G75*
G02*
X218034000Y-66440000I0J-50000D01*
G01*
X218034000Y-67640000D01*
G75*
G02*
X217984000Y-67690000I-50000J0D01*
G01*
X217384000Y-67690000D01*
G75*
G02*
X217334000Y-67640000I0J50000D01*
G01*
G37*
D17*
X204584000Y-69580000D03*
X219824000Y-69580000D03*
D18*
X208804000Y-69580000D03*
X215604000Y-69580000D03*
G36*
G01*
X206374000Y-70180000D02*
X206374000Y-68980000D01*
G75*
G02*
X206424000Y-68930000I50000J0D01*
G01*
X207024000Y-68930000D01*
G75*
G02*
X207074000Y-68980000I0J-50000D01*
G01*
X207074000Y-70180000D01*
G75*
G02*
X207024000Y-70230000I-50000J0D01*
G01*
X206424000Y-70230000D01*
G75*
G02*
X206374000Y-70180000I0J50000D01*
G01*
G37*
G36*
G01*
X207274000Y-70180000D02*
X207274000Y-68980000D01*
G75*
G02*
X207324000Y-68930000I50000J0D01*
G01*
X207924000Y-68930000D01*
G75*
G02*
X207974000Y-68980000I0J-50000D01*
G01*
X207974000Y-70180000D01*
G75*
G02*
X207924000Y-70230000I-50000J0D01*
G01*
X207324000Y-70230000D01*
G75*
G02*
X207274000Y-70180000I0J50000D01*
G01*
G37*
G36*
G01*
X216434000Y-70180000D02*
X216434000Y-68980000D01*
G75*
G02*
X216484000Y-68930000I50000J0D01*
G01*
X217084000Y-68930000D01*
G75*
G02*
X217134000Y-68980000I0J-50000D01*
G01*
X217134000Y-70180000D01*
G75*
G02*
X217084000Y-70230000I-50000J0D01*
G01*
X216484000Y-70230000D01*
G75*
G02*
X216434000Y-70180000I0J50000D01*
G01*
G37*
G36*
G01*
X217334000Y-70180000D02*
X217334000Y-68980000D01*
G75*
G02*
X217384000Y-68930000I50000J0D01*
G01*
X217984000Y-68930000D01*
G75*
G02*
X218034000Y-68980000I0J-50000D01*
G01*
X218034000Y-70180000D01*
G75*
G02*
X217984000Y-70230000I-50000J0D01*
G01*
X217384000Y-70230000D01*
G75*
G02*
X217334000Y-70180000I0J50000D01*
G01*
G37*
D17*
X204584000Y-72120000D03*
X219824000Y-72120000D03*
D18*
X208804000Y-72120000D03*
X215604000Y-72120000D03*
G36*
G01*
X206374000Y-72720000D02*
X206374000Y-71520000D01*
G75*
G02*
X206424000Y-71470000I50000J0D01*
G01*
X207024000Y-71470000D01*
G75*
G02*
X207074000Y-71520000I0J-50000D01*
G01*
X207074000Y-72720000D01*
G75*
G02*
X207024000Y-72770000I-50000J0D01*
G01*
X206424000Y-72770000D01*
G75*
G02*
X206374000Y-72720000I0J50000D01*
G01*
G37*
G36*
G01*
X207274000Y-72720000D02*
X207274000Y-71520000D01*
G75*
G02*
X207324000Y-71470000I50000J0D01*
G01*
X207924000Y-71470000D01*
G75*
G02*
X207974000Y-71520000I0J-50000D01*
G01*
X207974000Y-72720000D01*
G75*
G02*
X207924000Y-72770000I-50000J0D01*
G01*
X207324000Y-72770000D01*
G75*
G02*
X207274000Y-72720000I0J50000D01*
G01*
G37*
G36*
G01*
X216434000Y-72720000D02*
X216434000Y-71520000D01*
G75*
G02*
X216484000Y-71470000I50000J0D01*
G01*
X217084000Y-71470000D01*
G75*
G02*
X217134000Y-71520000I0J-50000D01*
G01*
X217134000Y-72720000D01*
G75*
G02*
X217084000Y-72770000I-50000J0D01*
G01*
X216484000Y-72770000D01*
G75*
G02*
X216434000Y-72720000I0J50000D01*
G01*
G37*
G36*
G01*
X217334000Y-72720000D02*
X217334000Y-71520000D01*
G75*
G02*
X217384000Y-71470000I50000J0D01*
G01*
X217984000Y-71470000D01*
G75*
G02*
X218034000Y-71520000I0J-50000D01*
G01*
X218034000Y-72720000D01*
G75*
G02*
X217984000Y-72770000I-50000J0D01*
G01*
X217384000Y-72770000D01*
G75*
G02*
X217334000Y-72720000I0J50000D01*
G01*
G37*
D17*
X204584000Y-74660000D03*
X219824000Y-74660000D03*
D18*
X208804000Y-74660000D03*
X215604000Y-74660000D03*
G36*
G01*
X206374000Y-75260000D02*
X206374000Y-74060000D01*
G75*
G02*
X206424000Y-74010000I50000J0D01*
G01*
X207024000Y-74010000D01*
G75*
G02*
X207074000Y-74060000I0J-50000D01*
G01*
X207074000Y-75260000D01*
G75*
G02*
X207024000Y-75310000I-50000J0D01*
G01*
X206424000Y-75310000D01*
G75*
G02*
X206374000Y-75260000I0J50000D01*
G01*
G37*
G36*
G01*
X207274000Y-75260000D02*
X207274000Y-74060000D01*
G75*
G02*
X207324000Y-74010000I50000J0D01*
G01*
X207924000Y-74010000D01*
G75*
G02*
X207974000Y-74060000I0J-50000D01*
G01*
X207974000Y-75260000D01*
G75*
G02*
X207924000Y-75310000I-50000J0D01*
G01*
X207324000Y-75310000D01*
G75*
G02*
X207274000Y-75260000I0J50000D01*
G01*
G37*
G36*
G01*
X216434000Y-75260000D02*
X216434000Y-74060000D01*
G75*
G02*
X216484000Y-74010000I50000J0D01*
G01*
X217084000Y-74010000D01*
G75*
G02*
X217134000Y-74060000I0J-50000D01*
G01*
X217134000Y-75260000D01*
G75*
G02*
X217084000Y-75310000I-50000J0D01*
G01*
X216484000Y-75310000D01*
G75*
G02*
X216434000Y-75260000I0J50000D01*
G01*
G37*
G36*
G01*
X217334000Y-75260000D02*
X217334000Y-74060000D01*
G75*
G02*
X217384000Y-74010000I50000J0D01*
G01*
X217984000Y-74010000D01*
G75*
G02*
X218034000Y-74060000I0J-50000D01*
G01*
X218034000Y-75260000D01*
G75*
G02*
X217984000Y-75310000I-50000J0D01*
G01*
X217384000Y-75310000D01*
G75*
G02*
X217334000Y-75260000I0J50000D01*
G01*
G37*
D17*
X204584000Y-77200000D03*
X219824000Y-77200000D03*
D18*
X208804000Y-77200000D03*
X215604000Y-77200000D03*
G36*
G01*
X206374000Y-77800000D02*
X206374000Y-76600000D01*
G75*
G02*
X206424000Y-76550000I50000J0D01*
G01*
X207024000Y-76550000D01*
G75*
G02*
X207074000Y-76600000I0J-50000D01*
G01*
X207074000Y-77800000D01*
G75*
G02*
X207024000Y-77850000I-50000J0D01*
G01*
X206424000Y-77850000D01*
G75*
G02*
X206374000Y-77800000I0J50000D01*
G01*
G37*
G36*
G01*
X207274000Y-77800000D02*
X207274000Y-76600000D01*
G75*
G02*
X207324000Y-76550000I50000J0D01*
G01*
X207924000Y-76550000D01*
G75*
G02*
X207974000Y-76600000I0J-50000D01*
G01*
X207974000Y-77800000D01*
G75*
G02*
X207924000Y-77850000I-50000J0D01*
G01*
X207324000Y-77850000D01*
G75*
G02*
X207274000Y-77800000I0J50000D01*
G01*
G37*
G36*
G01*
X216434000Y-77800000D02*
X216434000Y-76600000D01*
G75*
G02*
X216484000Y-76550000I50000J0D01*
G01*
X217084000Y-76550000D01*
G75*
G02*
X217134000Y-76600000I0J-50000D01*
G01*
X217134000Y-77800000D01*
G75*
G02*
X217084000Y-77850000I-50000J0D01*
G01*
X216484000Y-77850000D01*
G75*
G02*
X216434000Y-77800000I0J50000D01*
G01*
G37*
G36*
G01*
X217334000Y-77800000D02*
X217334000Y-76600000D01*
G75*
G02*
X217384000Y-76550000I50000J0D01*
G01*
X217984000Y-76550000D01*
G75*
G02*
X218034000Y-76600000I0J-50000D01*
G01*
X218034000Y-77800000D01*
G75*
G02*
X217984000Y-77850000I-50000J0D01*
G01*
X217384000Y-77850000D01*
G75*
G02*
X217334000Y-77800000I0J50000D01*
G01*
G37*
D17*
X204584000Y-79740000D03*
X219824000Y-79740000D03*
D18*
X208804000Y-79740000D03*
X215604000Y-79740000D03*
G36*
G01*
X206374000Y-80340000D02*
X206374000Y-79140000D01*
G75*
G02*
X206424000Y-79090000I50000J0D01*
G01*
X207024000Y-79090000D01*
G75*
G02*
X207074000Y-79140000I0J-50000D01*
G01*
X207074000Y-80340000D01*
G75*
G02*
X207024000Y-80390000I-50000J0D01*
G01*
X206424000Y-80390000D01*
G75*
G02*
X206374000Y-80340000I0J50000D01*
G01*
G37*
G36*
G01*
X207274000Y-80340000D02*
X207274000Y-79140000D01*
G75*
G02*
X207324000Y-79090000I50000J0D01*
G01*
X207924000Y-79090000D01*
G75*
G02*
X207974000Y-79140000I0J-50000D01*
G01*
X207974000Y-80340000D01*
G75*
G02*
X207924000Y-80390000I-50000J0D01*
G01*
X207324000Y-80390000D01*
G75*
G02*
X207274000Y-80340000I0J50000D01*
G01*
G37*
G36*
G01*
X216434000Y-80340000D02*
X216434000Y-79140000D01*
G75*
G02*
X216484000Y-79090000I50000J0D01*
G01*
X217084000Y-79090000D01*
G75*
G02*
X217134000Y-79140000I0J-50000D01*
G01*
X217134000Y-80340000D01*
G75*
G02*
X217084000Y-80390000I-50000J0D01*
G01*
X216484000Y-80390000D01*
G75*
G02*
X216434000Y-80340000I0J50000D01*
G01*
G37*
G36*
G01*
X217334000Y-80340000D02*
X217334000Y-79140000D01*
G75*
G02*
X217384000Y-79090000I50000J0D01*
G01*
X217984000Y-79090000D01*
G75*
G02*
X218034000Y-79140000I0J-50000D01*
G01*
X218034000Y-80340000D01*
G75*
G02*
X217984000Y-80390000I-50000J0D01*
G01*
X217384000Y-80390000D01*
G75*
G02*
X217334000Y-80340000I0J50000D01*
G01*
G37*
D17*
X204584000Y-82280000D03*
X219824000Y-82280000D03*
D18*
X208804000Y-82280000D03*
X215604000Y-82280000D03*
G36*
G01*
X206374000Y-82880000D02*
X206374000Y-81680000D01*
G75*
G02*
X206424000Y-81630000I50000J0D01*
G01*
X207024000Y-81630000D01*
G75*
G02*
X207074000Y-81680000I0J-50000D01*
G01*
X207074000Y-82880000D01*
G75*
G02*
X207024000Y-82930000I-50000J0D01*
G01*
X206424000Y-82930000D01*
G75*
G02*
X206374000Y-82880000I0J50000D01*
G01*
G37*
G36*
G01*
X207274000Y-82880000D02*
X207274000Y-81680000D01*
G75*
G02*
X207324000Y-81630000I50000J0D01*
G01*
X207924000Y-81630000D01*
G75*
G02*
X207974000Y-81680000I0J-50000D01*
G01*
X207974000Y-82880000D01*
G75*
G02*
X207924000Y-82930000I-50000J0D01*
G01*
X207324000Y-82930000D01*
G75*
G02*
X207274000Y-82880000I0J50000D01*
G01*
G37*
G36*
G01*
X216434000Y-82880000D02*
X216434000Y-81680000D01*
G75*
G02*
X216484000Y-81630000I50000J0D01*
G01*
X217084000Y-81630000D01*
G75*
G02*
X217134000Y-81680000I0J-50000D01*
G01*
X217134000Y-82880000D01*
G75*
G02*
X217084000Y-82930000I-50000J0D01*
G01*
X216484000Y-82930000D01*
G75*
G02*
X216434000Y-82880000I0J50000D01*
G01*
G37*
G36*
G01*
X217334000Y-82880000D02*
X217334000Y-81680000D01*
G75*
G02*
X217384000Y-81630000I50000J0D01*
G01*
X217984000Y-81630000D01*
G75*
G02*
X218034000Y-81680000I0J-50000D01*
G01*
X218034000Y-82880000D01*
G75*
G02*
X217984000Y-82930000I-50000J0D01*
G01*
X217384000Y-82930000D01*
G75*
G02*
X217334000Y-82880000I0J50000D01*
G01*
G37*
D17*
X204584000Y-84820000D03*
X219824000Y-84820000D03*
D18*
X208804000Y-84820000D03*
X215604000Y-84820000D03*
G36*
G01*
X206374000Y-85420000D02*
X206374000Y-84220000D01*
G75*
G02*
X206424000Y-84170000I50000J0D01*
G01*
X207024000Y-84170000D01*
G75*
G02*
X207074000Y-84220000I0J-50000D01*
G01*
X207074000Y-85420000D01*
G75*
G02*
X207024000Y-85470000I-50000J0D01*
G01*
X206424000Y-85470000D01*
G75*
G02*
X206374000Y-85420000I0J50000D01*
G01*
G37*
G36*
G01*
X207274000Y-85420000D02*
X207274000Y-84220000D01*
G75*
G02*
X207324000Y-84170000I50000J0D01*
G01*
X207924000Y-84170000D01*
G75*
G02*
X207974000Y-84220000I0J-50000D01*
G01*
X207974000Y-85420000D01*
G75*
G02*
X207924000Y-85470000I-50000J0D01*
G01*
X207324000Y-85470000D01*
G75*
G02*
X207274000Y-85420000I0J50000D01*
G01*
G37*
G36*
G01*
X216434000Y-85420000D02*
X216434000Y-84220000D01*
G75*
G02*
X216484000Y-84170000I50000J0D01*
G01*
X217084000Y-84170000D01*
G75*
G02*
X217134000Y-84220000I0J-50000D01*
G01*
X217134000Y-85420000D01*
G75*
G02*
X217084000Y-85470000I-50000J0D01*
G01*
X216484000Y-85470000D01*
G75*
G02*
X216434000Y-85420000I0J50000D01*
G01*
G37*
G36*
G01*
X217334000Y-85420000D02*
X217334000Y-84220000D01*
G75*
G02*
X217384000Y-84170000I50000J0D01*
G01*
X217984000Y-84170000D01*
G75*
G02*
X218034000Y-84220000I0J-50000D01*
G01*
X218034000Y-85420000D01*
G75*
G02*
X217984000Y-85470000I-50000J0D01*
G01*
X217384000Y-85470000D01*
G75*
G02*
X217334000Y-85420000I0J50000D01*
G01*
G37*
D17*
X204584000Y-87360000D03*
X219824000Y-87360000D03*
D18*
X208804000Y-87360000D03*
X215604000Y-87360000D03*
G36*
G01*
X206374000Y-87960000D02*
X206374000Y-86760000D01*
G75*
G02*
X206424000Y-86710000I50000J0D01*
G01*
X207024000Y-86710000D01*
G75*
G02*
X207074000Y-86760000I0J-50000D01*
G01*
X207074000Y-87960000D01*
G75*
G02*
X207024000Y-88010000I-50000J0D01*
G01*
X206424000Y-88010000D01*
G75*
G02*
X206374000Y-87960000I0J50000D01*
G01*
G37*
G36*
G01*
X207274000Y-87960000D02*
X207274000Y-86760000D01*
G75*
G02*
X207324000Y-86710000I50000J0D01*
G01*
X207924000Y-86710000D01*
G75*
G02*
X207974000Y-86760000I0J-50000D01*
G01*
X207974000Y-87960000D01*
G75*
G02*
X207924000Y-88010000I-50000J0D01*
G01*
X207324000Y-88010000D01*
G75*
G02*
X207274000Y-87960000I0J50000D01*
G01*
G37*
G36*
G01*
X216434000Y-87960000D02*
X216434000Y-86760000D01*
G75*
G02*
X216484000Y-86710000I50000J0D01*
G01*
X217084000Y-86710000D01*
G75*
G02*
X217134000Y-86760000I0J-50000D01*
G01*
X217134000Y-87960000D01*
G75*
G02*
X217084000Y-88010000I-50000J0D01*
G01*
X216484000Y-88010000D01*
G75*
G02*
X216434000Y-87960000I0J50000D01*
G01*
G37*
G36*
G01*
X217334000Y-87960000D02*
X217334000Y-86760000D01*
G75*
G02*
X217384000Y-86710000I50000J0D01*
G01*
X217984000Y-86710000D01*
G75*
G02*
X218034000Y-86760000I0J-50000D01*
G01*
X218034000Y-87960000D01*
G75*
G02*
X217984000Y-88010000I-50000J0D01*
G01*
X217384000Y-88010000D01*
G75*
G02*
X217334000Y-87960000I0J50000D01*
G01*
G37*
G36*
G01*
X207417000Y-93300000D02*
X206217000Y-93300000D01*
G75*
G02*
X206167000Y-93250000I0J50000D01*
G01*
X206167000Y-92650000D01*
G75*
G02*
X206217000Y-92600000I50000J0D01*
G01*
X207417000Y-92600000D01*
G75*
G02*
X207467000Y-92650000I0J-50000D01*
G01*
X207467000Y-93250000D01*
G75*
G02*
X207417000Y-93300000I-50000J0D01*
G01*
G37*
G36*
G01*
X209957000Y-93300000D02*
X208757000Y-93300000D01*
G75*
G02*
X208707000Y-93250000I0J50000D01*
G01*
X208707000Y-92650000D01*
G75*
G02*
X208757000Y-92600000I50000J0D01*
G01*
X209957000Y-92600000D01*
G75*
G02*
X210007000Y-92650000I0J-50000D01*
G01*
X210007000Y-93250000D01*
G75*
G02*
X209957000Y-93300000I-50000J0D01*
G01*
G37*
G36*
G01*
X215037000Y-93300000D02*
X213837000Y-93300000D01*
G75*
G02*
X213787000Y-93250000I0J50000D01*
G01*
X213787000Y-92650000D01*
G75*
G02*
X213837000Y-92600000I50000J0D01*
G01*
X215037000Y-92600000D01*
G75*
G02*
X215087000Y-92650000I0J-50000D01*
G01*
X215087000Y-93250000D01*
G75*
G02*
X215037000Y-93300000I-50000J0D01*
G01*
G37*
G36*
G01*
X217577000Y-93300000D02*
X216377000Y-93300000D01*
G75*
G02*
X216327000Y-93250000I0J50000D01*
G01*
X216327000Y-92650000D01*
G75*
G02*
X216377000Y-92600000I50000J0D01*
G01*
X217577000Y-92600000D01*
G75*
G02*
X217627000Y-92650000I0J-50000D01*
G01*
X217627000Y-93250000D01*
G75*
G02*
X217577000Y-93300000I-50000J0D01*
G01*
G37*
G36*
G01*
X207417000Y-94200000D02*
X206217000Y-94200000D01*
G75*
G02*
X206167000Y-94150000I0J50000D01*
G01*
X206167000Y-93550000D01*
G75*
G02*
X206217000Y-93500000I50000J0D01*
G01*
X207417000Y-93500000D01*
G75*
G02*
X207467000Y-93550000I0J-50000D01*
G01*
X207467000Y-94150000D01*
G75*
G02*
X207417000Y-94200000I-50000J0D01*
G01*
G37*
G36*
G01*
X209957000Y-94200000D02*
X208757000Y-94200000D01*
G75*
G02*
X208707000Y-94150000I0J50000D01*
G01*
X208707000Y-93550000D01*
G75*
G02*
X208757000Y-93500000I50000J0D01*
G01*
X209957000Y-93500000D01*
G75*
G02*
X210007000Y-93550000I0J-50000D01*
G01*
X210007000Y-94150000D01*
G75*
G02*
X209957000Y-94200000I-50000J0D01*
G01*
G37*
G36*
G01*
X215037000Y-94200000D02*
X213837000Y-94200000D01*
G75*
G02*
X213787000Y-94150000I0J50000D01*
G01*
X213787000Y-93550000D01*
G75*
G02*
X213837000Y-93500000I50000J0D01*
G01*
X215037000Y-93500000D01*
G75*
G02*
X215087000Y-93550000I0J-50000D01*
G01*
X215087000Y-94150000D01*
G75*
G02*
X215037000Y-94200000I-50000J0D01*
G01*
G37*
G36*
G01*
X217577000Y-94200000D02*
X216377000Y-94200000D01*
G75*
G02*
X216327000Y-94150000I0J50000D01*
G01*
X216327000Y-93550000D01*
G75*
G02*
X216377000Y-93500000I50000J0D01*
G01*
X217577000Y-93500000D01*
G75*
G02*
X217627000Y-93550000I0J-50000D01*
G01*
X217627000Y-94150000D01*
G75*
G02*
X217577000Y-94200000I-50000J0D01*
G01*
G37*
D19*
X206817000Y-91200000D03*
X209357000Y-91200000D03*
X211897000Y-91200000D03*
X214437000Y-91200000D03*
D17*
X216977000Y-91200000D03*
G36*
G01*
X221275000Y-97150000D02*
X220475000Y-97150000D01*
G75*
G02*
X220425000Y-97100000I0J50000D01*
G01*
X220425000Y-96100000D01*
G75*
G02*
X220475000Y-96050000I50000J0D01*
G01*
X221275000Y-96050000D01*
G75*
G02*
X221325000Y-96100000I0J-50000D01*
G01*
X221325000Y-97100000D01*
G75*
G02*
X221275000Y-97150000I-50000J0D01*
G01*
G37*
G36*
G01*
X219065000Y-97150000D02*
X218265000Y-97150000D01*
G75*
G02*
X218215000Y-97100000I0J50000D01*
G01*
X218215000Y-96100000D01*
G75*
G02*
X218265000Y-96050000I50000J0D01*
G01*
X219065000Y-96050000D01*
G75*
G02*
X219115000Y-96100000I0J-50000D01*
G01*
X219115000Y-97100000D01*
G75*
G02*
X219065000Y-97150000I-50000J0D01*
G01*
G37*
G36*
G01*
X219065000Y-104450000D02*
X218265000Y-104450000D01*
G75*
G02*
X218215000Y-104400000I0J50000D01*
G01*
X218215000Y-103400000D01*
G75*
G02*
X218265000Y-103350000I50000J0D01*
G01*
X219065000Y-103350000D01*
G75*
G02*
X219115000Y-103400000I0J-50000D01*
G01*
X219115000Y-104400000D01*
G75*
G02*
X219065000Y-104450000I-50000J0D01*
G01*
G37*
G36*
G01*
X221275000Y-104450000D02*
X220475000Y-104450000D01*
G75*
G02*
X220425000Y-104400000I0J50000D01*
G01*
X220425000Y-103400000D01*
G75*
G02*
X220475000Y-103350000I50000J0D01*
G01*
X221275000Y-103350000D01*
G75*
G02*
X221325000Y-103400000I0J-50000D01*
G01*
X221325000Y-104400000D01*
G75*
G02*
X221275000Y-104450000I-50000J0D01*
G01*
G37*
G36*
G01*
X218765000Y-102900000D02*
X217265000Y-102900000D01*
G75*
G02*
X217215000Y-102850000I0J50000D01*
G01*
X217215000Y-102150000D01*
G75*
G02*
X217265000Y-102100000I50000J0D01*
G01*
X218765000Y-102100000D01*
G75*
G02*
X218815000Y-102150000I0J-50000D01*
G01*
X218815000Y-102850000D01*
G75*
G02*
X218765000Y-102900000I-50000J0D01*
G01*
G37*
G36*
G01*
X218765000Y-99900000D02*
X217265000Y-99900000D01*
G75*
G02*
X217215000Y-99850000I0J50000D01*
G01*
X217215000Y-99150000D01*
G75*
G02*
X217265000Y-99100000I50000J0D01*
G01*
X218765000Y-99100000D01*
G75*
G02*
X218815000Y-99150000I0J-50000D01*
G01*
X218815000Y-99850000D01*
G75*
G02*
X218765000Y-99900000I-50000J0D01*
G01*
G37*
G36*
G01*
X218765000Y-98400000D02*
X217265000Y-98400000D01*
G75*
G02*
X217215000Y-98350000I0J50000D01*
G01*
X217215000Y-97650000D01*
G75*
G02*
X217265000Y-97600000I50000J0D01*
G01*
X218765000Y-97600000D01*
G75*
G02*
X218815000Y-97650000I0J-50000D01*
G01*
X218815000Y-98350000D01*
G75*
G02*
X218765000Y-98400000I-50000J0D01*
G01*
G37*
D20*
X219775000Y-98750000D03*
X219775000Y-101750000D03*
D21*
X212204000Y-54972500D03*
X212204000Y-57722500D03*
G36*
G01*
X215654000Y-54997500D02*
X215654000Y-55997500D01*
G75*
G02*
X215604000Y-56047500I-50000J0D01*
G01*
X214054000Y-56047500D01*
G75*
G02*
X214004000Y-55997500I0J50000D01*
G01*
X214004000Y-54997500D01*
G75*
G02*
X214054000Y-54947500I50000J0D01*
G01*
X215604000Y-54947500D01*
G75*
G02*
X215654000Y-54997500I0J-50000D01*
G01*
G37*
G36*
G01*
X215654000Y-56697500D02*
X215654000Y-57697500D01*
G75*
G02*
X215604000Y-57747500I-50000J0D01*
G01*
X214054000Y-57747500D01*
G75*
G02*
X214004000Y-57697500I0J50000D01*
G01*
X214004000Y-56697500D01*
G75*
G02*
X214054000Y-56647500I50000J0D01*
G01*
X215604000Y-56647500D01*
G75*
G02*
X215654000Y-56697500I0J-50000D01*
G01*
G37*
G36*
G01*
X210404000Y-54997500D02*
X210404000Y-55997500D01*
G75*
G02*
X210354000Y-56047500I-50000J0D01*
G01*
X208804000Y-56047500D01*
G75*
G02*
X208754000Y-55997500I0J50000D01*
G01*
X208754000Y-54997500D01*
G75*
G02*
X208804000Y-54947500I50000J0D01*
G01*
X210354000Y-54947500D01*
G75*
G02*
X210404000Y-54997500I0J-50000D01*
G01*
G37*
G36*
G01*
X210404000Y-56697500D02*
X210404000Y-57697500D01*
G75*
G02*
X210354000Y-57747500I-50000J0D01*
G01*
X208804000Y-57747500D01*
G75*
G02*
X208754000Y-57697500I0J50000D01*
G01*
X208754000Y-56697500D01*
G75*
G02*
X208804000Y-56647500I50000J0D01*
G01*
X210354000Y-56647500D01*
G75*
G02*
X210404000Y-56697500I0J-50000D01*
G01*
G37*
D22*
X209000000Y-100000000D03*
X209000000Y-98000000D03*
G36*
X211235355Y-100035355D02*
G01*
X210635355Y-100635355D01*
X210600000Y-100650000D01*
X210400000Y-100650000D01*
X210364645Y-100635355D01*
X210350000Y-100600000D01*
X210350000Y-99400000D01*
X210364645Y-99364645D01*
X210400000Y-99350000D01*
X210600000Y-99350000D01*
X210635355Y-99364645D01*
X211235355Y-99964645D01*
X211250000Y-100000000D01*
X211235355Y-100035355D01*
G37*
G36*
X211235355Y-98035355D02*
G01*
X210635355Y-98635355D01*
X210600000Y-98650000D01*
X210400000Y-98650000D01*
X210364645Y-98635355D01*
X210350000Y-98600000D01*
X210350000Y-97400000D01*
X210364645Y-97364645D01*
X210400000Y-97350000D01*
X210600000Y-97350000D01*
X210635355Y-97364645D01*
X211235355Y-97964645D01*
X211250000Y-98000000D01*
X211235355Y-98035355D01*
G37*
G36*
X212101355Y-100635355D02*
G01*
X212066000Y-100650000D01*
X210816000Y-100650000D01*
X210780645Y-100635355D01*
X210766000Y-100600000D01*
X210780645Y-100564645D01*
X211345290Y-100000000D01*
X210780645Y-99435355D01*
X210766000Y-99400000D01*
X210780645Y-99364645D01*
X210816000Y-99350000D01*
X212066000Y-99350000D01*
X212101355Y-99364645D01*
X212116000Y-99400000D01*
X212116000Y-100600000D01*
X212101355Y-100635355D01*
G37*
G36*
X212101355Y-98635355D02*
G01*
X212066000Y-98650000D01*
X210816000Y-98650000D01*
X210780645Y-98635355D01*
X210766000Y-98600000D01*
X210780645Y-98564645D01*
X211345290Y-98000000D01*
X210780645Y-97435355D01*
X210766000Y-97400000D01*
X210780645Y-97364645D01*
X210816000Y-97350000D01*
X212066000Y-97350000D01*
X212101355Y-97364645D01*
X212116000Y-97400000D01*
X212116000Y-98600000D01*
X212101355Y-98635355D01*
G37*
%LPD*%
M02*
