%TF.GenerationSoftware,KiCad,Pcbnew,8.0.8+1*%
%TF.CreationDate,2025-03-02T13:34:42+00:00*%
%TF.ProjectId,zeph_wireless,7a657068-5f77-4697-9265-6c6573732e6b,0.2*%
%TF.SameCoordinates,Original*%
%TF.FileFunction,Drillmap*%
%TF.FilePolarity,Positive*%
%FSLAX45Y45*%
G04 Gerber Fmt 4.5, Leading zero omitted, Abs format (unit mm)*
G04 Created by KiCad (PCBNEW 8.0.8+1) date 2025-03-02 13:34:42*
%MOMM*%
%LPD*%
G01*
G04 APERTURE LIST*
%ADD10C,0.150000*%
%ADD11C,0.200000*%
%ADD12C,0.100000*%
G04 APERTURE END LIST*
D10*
X9131699Y-10849749D02*
X9131501Y-3622750D01*
X9181500Y-3572749D02*
X12781501Y-3572651D01*
X12831500Y-3522651D02*
X12831500Y-3160250D01*
X12881500Y-3110250D02*
X14631500Y-3110250D01*
X14681500Y-3060250D02*
X14681500Y-2940950D01*
X14731500Y-2890950D02*
X16384300Y-2890950D01*
X16434300Y-2940950D02*
X16434300Y-3060250D01*
X16484300Y-3110250D02*
X18234300Y-3110250D01*
X18284300Y-3160250D02*
X18284300Y-3303304D01*
X18334296Y-3353304D02*
X20084244Y-3353446D01*
X20134240Y-3403506D02*
X20131861Y-5372690D01*
X22125300Y-11363410D02*
X20821272Y-13657791D01*
X20752803Y-13676386D02*
X19277748Y-12824763D01*
X19259239Y-12818488D02*
X15625859Y-12342796D01*
X15591861Y-12322556D02*
X14575723Y-10920164D01*
X14535232Y-10899501D02*
X9181701Y-10899748D01*
X20181860Y-5422750D02*
X22106800Y-5422750D01*
X22156800Y-5472750D02*
X22156800Y-11295452D01*
X22150101Y-11320452D02*
X22125300Y-11363410D01*
X9131501Y-3622750D02*
G75*
G02*
X9181500Y-3572751I49999J0D01*
G01*
X12831500Y-3522651D02*
G75*
G02*
X12781501Y-3572650I-50000J1D01*
G01*
X12831500Y-3160250D02*
G75*
G02*
X12881500Y-3110250I50000J0D01*
G01*
X14681500Y-3060250D02*
G75*
G02*
X14631500Y-3110250I-50000J0D01*
G01*
X14681500Y-2940950D02*
G75*
G02*
X14731500Y-2890950I50000J0D01*
G01*
X16384300Y-2890950D02*
G75*
G02*
X16434300Y-2940950I0J-50000D01*
G01*
X16484300Y-3110250D02*
G75*
G02*
X16434300Y-3060250I0J50000D01*
G01*
X18234300Y-3110250D02*
G75*
G02*
X18284300Y-3160250I0J-50000D01*
G01*
X18334296Y-3353304D02*
G75*
G02*
X18284296Y-3303304I4J50004D01*
G01*
X20084244Y-3353446D02*
G75*
G02*
X20134244Y-3403506I-4J-50004D01*
G01*
X20181860Y-5422750D02*
G75*
G02*
X20131860Y-5372690I0J50000D01*
G01*
X22106800Y-5422750D02*
G75*
G02*
X22156800Y-5472750I0J-50000D01*
G01*
X22156800Y-11295452D02*
G75*
G02*
X22150100Y-11320452I-50000J3D01*
G01*
X20821272Y-13657791D02*
G75*
G02*
X20752802Y-13676388I-43472J24711D01*
G01*
X19259239Y-12818488D02*
G75*
G02*
X19277749Y-12824762I-6489J-49582D01*
G01*
X15625859Y-12342796D02*
G75*
G02*
X15591861Y-12322556I6491J49576D01*
G01*
X14535232Y-10899501D02*
G75*
G02*
X14575720Y-10920166I-2J-49999D01*
G01*
X9181701Y-10899748D02*
G75*
G02*
X9131702Y-10849749I-1J49998D01*
G01*
D11*
D12*
X20860400Y-5922000D02*
X20900400Y-5962000D01*
X20900400Y-5922000D02*
X20860400Y-5962000D01*
X20860400Y-6176000D02*
X20900400Y-6216000D01*
X20900400Y-6176000D02*
X20860400Y-6216000D01*
X20860400Y-6430000D02*
X20900400Y-6470000D01*
X20900400Y-6430000D02*
X20860400Y-6470000D01*
X20860400Y-6684000D02*
X20900400Y-6724000D01*
X20900400Y-6684000D02*
X20860400Y-6724000D01*
X20860400Y-6938000D02*
X20900400Y-6978000D01*
X20900400Y-6938000D02*
X20860400Y-6978000D01*
X20860400Y-7192000D02*
X20900400Y-7232000D01*
X20900400Y-7192000D02*
X20860400Y-7232000D01*
X20860400Y-7446000D02*
X20900400Y-7486000D01*
X20900400Y-7446000D02*
X20860400Y-7486000D01*
X20860400Y-7700000D02*
X20900400Y-7740000D01*
X20900400Y-7700000D02*
X20860400Y-7740000D01*
X20860400Y-7954000D02*
X20900400Y-7994000D01*
X20900400Y-7954000D02*
X20860400Y-7994000D01*
X20860400Y-8208000D02*
X20900400Y-8248000D01*
X20900400Y-8208000D02*
X20860400Y-8248000D01*
X20860400Y-8462000D02*
X20900400Y-8502000D01*
X20900400Y-8462000D02*
X20860400Y-8502000D01*
X20860400Y-8716000D02*
X20900400Y-8756000D01*
X20900400Y-8716000D02*
X20860400Y-8756000D01*
X21540400Y-5922000D02*
X21580400Y-5962000D01*
X21580400Y-5922000D02*
X21540400Y-5962000D01*
X21540400Y-6176000D02*
X21580400Y-6216000D01*
X21580400Y-6176000D02*
X21540400Y-6216000D01*
X21540400Y-6430000D02*
X21580400Y-6470000D01*
X21580400Y-6430000D02*
X21540400Y-6470000D01*
X21540400Y-6684000D02*
X21580400Y-6724000D01*
X21580400Y-6684000D02*
X21540400Y-6724000D01*
X21540400Y-6938000D02*
X21580400Y-6978000D01*
X21580400Y-6938000D02*
X21540400Y-6978000D01*
X21540400Y-7192000D02*
X21580400Y-7232000D01*
X21580400Y-7192000D02*
X21540400Y-7232000D01*
X21540400Y-7446000D02*
X21580400Y-7486000D01*
X21580400Y-7446000D02*
X21540400Y-7486000D01*
X21540400Y-7700000D02*
X21580400Y-7740000D01*
X21580400Y-7700000D02*
X21540400Y-7740000D01*
X21540400Y-7954000D02*
X21580400Y-7994000D01*
X21580400Y-7954000D02*
X21540400Y-7994000D01*
X21540400Y-8208000D02*
X21580400Y-8248000D01*
X21580400Y-8208000D02*
X21540400Y-8248000D01*
X21540400Y-8462000D02*
X21580400Y-8502000D01*
X21580400Y-8462000D02*
X21540400Y-8502000D01*
X21540400Y-8716000D02*
X21580400Y-8756000D01*
X21580400Y-8716000D02*
X21540400Y-8756000D01*
X20937500Y-9800000D02*
G75*
G02*
X20862500Y-9800000I-37500J0D01*
G01*
X20862500Y-9800000D02*
G75*
G02*
X20937500Y-9800000I37500J0D01*
G01*
X20937500Y-10000000D02*
G75*
G02*
X20862500Y-10000000I-37500J0D01*
G01*
X20862500Y-10000000D02*
G75*
G02*
X20937500Y-10000000I37500J0D01*
G01*
X20458400Y-5892000D02*
X20458400Y-5992000D01*
X20408400Y-5942000D02*
X20508400Y-5942000D01*
X20458400Y-6146000D02*
X20458400Y-6246000D01*
X20408400Y-6196000D02*
X20508400Y-6196000D01*
X20458400Y-6400000D02*
X20458400Y-6500000D01*
X20408400Y-6450000D02*
X20508400Y-6450000D01*
X20458400Y-6654000D02*
X20458400Y-6754000D01*
X20408400Y-6704000D02*
X20508400Y-6704000D01*
X20458400Y-6908000D02*
X20458400Y-7008000D01*
X20408400Y-6958000D02*
X20508400Y-6958000D01*
X20458400Y-7162000D02*
X20458400Y-7262000D01*
X20408400Y-7212000D02*
X20508400Y-7212000D01*
X20458400Y-7416000D02*
X20458400Y-7516000D01*
X20408400Y-7466000D02*
X20508400Y-7466000D01*
X20458400Y-7670000D02*
X20458400Y-7770000D01*
X20408400Y-7720000D02*
X20508400Y-7720000D01*
X20458400Y-7924000D02*
X20458400Y-8024000D01*
X20408400Y-7974000D02*
X20508400Y-7974000D01*
X20458400Y-8178000D02*
X20458400Y-8278000D01*
X20408400Y-8228000D02*
X20508400Y-8228000D01*
X20458400Y-8432000D02*
X20458400Y-8532000D01*
X20408400Y-8482000D02*
X20508400Y-8482000D01*
X20458400Y-8686000D02*
X20458400Y-8786000D01*
X20408400Y-8736000D02*
X20508400Y-8736000D01*
X20681700Y-9070000D02*
X20681700Y-9170000D01*
X20631700Y-9120000D02*
X20731700Y-9120000D01*
X20935700Y-9070000D02*
X20935700Y-9170000D01*
X20885700Y-9120000D02*
X20985700Y-9120000D01*
X21189700Y-9070000D02*
X21189700Y-9170000D01*
X21139700Y-9120000D02*
X21239700Y-9120000D01*
X21443700Y-9070000D02*
X21443700Y-9170000D01*
X21393700Y-9120000D02*
X21493700Y-9120000D01*
X21697700Y-9070000D02*
X21697700Y-9170000D01*
X21647700Y-9120000D02*
X21747700Y-9120000D01*
X21982400Y-5892000D02*
X21982400Y-5992000D01*
X21932400Y-5942000D02*
X22032400Y-5942000D01*
X21982400Y-6146000D02*
X21982400Y-6246000D01*
X21932400Y-6196000D02*
X22032400Y-6196000D01*
X21982400Y-6400000D02*
X21982400Y-6500000D01*
X21932400Y-6450000D02*
X22032400Y-6450000D01*
X21982400Y-6654000D02*
X21982400Y-6754000D01*
X21932400Y-6704000D02*
X22032400Y-6704000D01*
X21982400Y-6908000D02*
X21982400Y-7008000D01*
X21932400Y-6958000D02*
X22032400Y-6958000D01*
X21982400Y-7162000D02*
X21982400Y-7262000D01*
X21932400Y-7212000D02*
X22032400Y-7212000D01*
X21982400Y-7416000D02*
X21982400Y-7516000D01*
X21932400Y-7466000D02*
X22032400Y-7466000D01*
X21982400Y-7670000D02*
X21982400Y-7770000D01*
X21932400Y-7720000D02*
X22032400Y-7720000D01*
X21982400Y-7924000D02*
X21982400Y-8024000D01*
X21932400Y-7974000D02*
X22032400Y-7974000D01*
X21982400Y-8178000D02*
X21982400Y-8278000D01*
X21932400Y-8228000D02*
X22032400Y-8228000D01*
X21982400Y-8432000D02*
X21982400Y-8532000D01*
X21932400Y-8482000D02*
X22032400Y-8482000D01*
X21982400Y-8686000D02*
X21982400Y-8786000D01*
X21932400Y-8736000D02*
X22032400Y-8736000D01*
D11*
X9384778Y-14002069D02*
X9384778Y-13802069D01*
X9384778Y-13802069D02*
X9432397Y-13802069D01*
X9432397Y-13802069D02*
X9460969Y-13811592D01*
X9460969Y-13811592D02*
X9480016Y-13830640D01*
X9480016Y-13830640D02*
X9489540Y-13849688D01*
X9489540Y-13849688D02*
X9499064Y-13887783D01*
X9499064Y-13887783D02*
X9499064Y-13916354D01*
X9499064Y-13916354D02*
X9489540Y-13954449D01*
X9489540Y-13954449D02*
X9480016Y-13973497D01*
X9480016Y-13973497D02*
X9460969Y-13992545D01*
X9460969Y-13992545D02*
X9432397Y-14002069D01*
X9432397Y-14002069D02*
X9384778Y-14002069D01*
X9584778Y-14002069D02*
X9584778Y-13868735D01*
X9584778Y-13906830D02*
X9594302Y-13887783D01*
X9594302Y-13887783D02*
X9603826Y-13878259D01*
X9603826Y-13878259D02*
X9622873Y-13868735D01*
X9622873Y-13868735D02*
X9641921Y-13868735D01*
X9708588Y-14002069D02*
X9708588Y-13868735D01*
X9708588Y-13802069D02*
X9699064Y-13811592D01*
X9699064Y-13811592D02*
X9708588Y-13821116D01*
X9708588Y-13821116D02*
X9718112Y-13811592D01*
X9718112Y-13811592D02*
X9708588Y-13802069D01*
X9708588Y-13802069D02*
X9708588Y-13821116D01*
X9832397Y-14002069D02*
X9813350Y-13992545D01*
X9813350Y-13992545D02*
X9803826Y-13973497D01*
X9803826Y-13973497D02*
X9803826Y-13802069D01*
X9937159Y-14002069D02*
X9918112Y-13992545D01*
X9918112Y-13992545D02*
X9908588Y-13973497D01*
X9908588Y-13973497D02*
X9908588Y-13802069D01*
X10165731Y-14002069D02*
X10165731Y-13802069D01*
X10165731Y-13802069D02*
X10232397Y-13944926D01*
X10232397Y-13944926D02*
X10299064Y-13802069D01*
X10299064Y-13802069D02*
X10299064Y-14002069D01*
X10480016Y-14002069D02*
X10480016Y-13897307D01*
X10480016Y-13897307D02*
X10470493Y-13878259D01*
X10470493Y-13878259D02*
X10451445Y-13868735D01*
X10451445Y-13868735D02*
X10413350Y-13868735D01*
X10413350Y-13868735D02*
X10394302Y-13878259D01*
X10480016Y-13992545D02*
X10460969Y-14002069D01*
X10460969Y-14002069D02*
X10413350Y-14002069D01*
X10413350Y-14002069D02*
X10394302Y-13992545D01*
X10394302Y-13992545D02*
X10384778Y-13973497D01*
X10384778Y-13973497D02*
X10384778Y-13954449D01*
X10384778Y-13954449D02*
X10394302Y-13935402D01*
X10394302Y-13935402D02*
X10413350Y-13925878D01*
X10413350Y-13925878D02*
X10460969Y-13925878D01*
X10460969Y-13925878D02*
X10480016Y-13916354D01*
X10575254Y-13868735D02*
X10575254Y-14068735D01*
X10575254Y-13878259D02*
X10594302Y-13868735D01*
X10594302Y-13868735D02*
X10632397Y-13868735D01*
X10632397Y-13868735D02*
X10651445Y-13878259D01*
X10651445Y-13878259D02*
X10660969Y-13887783D01*
X10660969Y-13887783D02*
X10670493Y-13906830D01*
X10670493Y-13906830D02*
X10670493Y-13963973D01*
X10670493Y-13963973D02*
X10660969Y-13983021D01*
X10660969Y-13983021D02*
X10651445Y-13992545D01*
X10651445Y-13992545D02*
X10632397Y-14002069D01*
X10632397Y-14002069D02*
X10594302Y-14002069D01*
X10594302Y-14002069D02*
X10575254Y-13992545D01*
X10756207Y-13983021D02*
X10765731Y-13992545D01*
X10765731Y-13992545D02*
X10756207Y-14002069D01*
X10756207Y-14002069D02*
X10746683Y-13992545D01*
X10746683Y-13992545D02*
X10756207Y-13983021D01*
X10756207Y-13983021D02*
X10756207Y-14002069D01*
X10756207Y-13878259D02*
X10765731Y-13887783D01*
X10765731Y-13887783D02*
X10756207Y-13897307D01*
X10756207Y-13897307D02*
X10746683Y-13887783D01*
X10746683Y-13887783D02*
X10756207Y-13878259D01*
X10756207Y-13878259D02*
X10756207Y-13897307D01*
D12*
X9084001Y-14310585D02*
X9124001Y-14350585D01*
X9124001Y-14310585D02*
X9084001Y-14350585D01*
D11*
X9422873Y-14222069D02*
X9441921Y-14222069D01*
X9441921Y-14222069D02*
X9460969Y-14231592D01*
X9460969Y-14231592D02*
X9470493Y-14241116D01*
X9470493Y-14241116D02*
X9480016Y-14260164D01*
X9480016Y-14260164D02*
X9489540Y-14298259D01*
X9489540Y-14298259D02*
X9489540Y-14345878D01*
X9489540Y-14345878D02*
X9480016Y-14383973D01*
X9480016Y-14383973D02*
X9470493Y-14403021D01*
X9470493Y-14403021D02*
X9460969Y-14412545D01*
X9460969Y-14412545D02*
X9441921Y-14422069D01*
X9441921Y-14422069D02*
X9422873Y-14422069D01*
X9422873Y-14422069D02*
X9403826Y-14412545D01*
X9403826Y-14412545D02*
X9394302Y-14403021D01*
X9394302Y-14403021D02*
X9384778Y-14383973D01*
X9384778Y-14383973D02*
X9375254Y-14345878D01*
X9375254Y-14345878D02*
X9375254Y-14298259D01*
X9375254Y-14298259D02*
X9384778Y-14260164D01*
X9384778Y-14260164D02*
X9394302Y-14241116D01*
X9394302Y-14241116D02*
X9403826Y-14231592D01*
X9403826Y-14231592D02*
X9422873Y-14222069D01*
X9575254Y-14403021D02*
X9584778Y-14412545D01*
X9584778Y-14412545D02*
X9575254Y-14422069D01*
X9575254Y-14422069D02*
X9565731Y-14412545D01*
X9565731Y-14412545D02*
X9575254Y-14403021D01*
X9575254Y-14403021D02*
X9575254Y-14422069D01*
X9756207Y-14288735D02*
X9756207Y-14422069D01*
X9708588Y-14212545D02*
X9660969Y-14355402D01*
X9660969Y-14355402D02*
X9784778Y-14355402D01*
X9899064Y-14222069D02*
X9918112Y-14222069D01*
X9918112Y-14222069D02*
X9937159Y-14231592D01*
X9937159Y-14231592D02*
X9946683Y-14241116D01*
X9946683Y-14241116D02*
X9956207Y-14260164D01*
X9956207Y-14260164D02*
X9965731Y-14298259D01*
X9965731Y-14298259D02*
X9965731Y-14345878D01*
X9965731Y-14345878D02*
X9956207Y-14383973D01*
X9956207Y-14383973D02*
X9946683Y-14403021D01*
X9946683Y-14403021D02*
X9937159Y-14412545D01*
X9937159Y-14412545D02*
X9918112Y-14422069D01*
X9918112Y-14422069D02*
X9899064Y-14422069D01*
X9899064Y-14422069D02*
X9880016Y-14412545D01*
X9880016Y-14412545D02*
X9870493Y-14403021D01*
X9870493Y-14403021D02*
X9860969Y-14383973D01*
X9860969Y-14383973D02*
X9851445Y-14345878D01*
X9851445Y-14345878D02*
X9851445Y-14298259D01*
X9851445Y-14298259D02*
X9860969Y-14260164D01*
X9860969Y-14260164D02*
X9870493Y-14241116D01*
X9870493Y-14241116D02*
X9880016Y-14231592D01*
X9880016Y-14231592D02*
X9899064Y-14222069D01*
X10089540Y-14222069D02*
X10108588Y-14222069D01*
X10108588Y-14222069D02*
X10127635Y-14231592D01*
X10127635Y-14231592D02*
X10137159Y-14241116D01*
X10137159Y-14241116D02*
X10146683Y-14260164D01*
X10146683Y-14260164D02*
X10156207Y-14298259D01*
X10156207Y-14298259D02*
X10156207Y-14345878D01*
X10156207Y-14345878D02*
X10146683Y-14383973D01*
X10146683Y-14383973D02*
X10137159Y-14403021D01*
X10137159Y-14403021D02*
X10127635Y-14412545D01*
X10127635Y-14412545D02*
X10108588Y-14422069D01*
X10108588Y-14422069D02*
X10089540Y-14422069D01*
X10089540Y-14422069D02*
X10070493Y-14412545D01*
X10070493Y-14412545D02*
X10060969Y-14403021D01*
X10060969Y-14403021D02*
X10051445Y-14383973D01*
X10051445Y-14383973D02*
X10041921Y-14345878D01*
X10041921Y-14345878D02*
X10041921Y-14298259D01*
X10041921Y-14298259D02*
X10051445Y-14260164D01*
X10051445Y-14260164D02*
X10060969Y-14241116D01*
X10060969Y-14241116D02*
X10070493Y-14231592D01*
X10070493Y-14231592D02*
X10089540Y-14222069D01*
X10241921Y-14422069D02*
X10241921Y-14288735D01*
X10241921Y-14307783D02*
X10251445Y-14298259D01*
X10251445Y-14298259D02*
X10270493Y-14288735D01*
X10270493Y-14288735D02*
X10299064Y-14288735D01*
X10299064Y-14288735D02*
X10318112Y-14298259D01*
X10318112Y-14298259D02*
X10327635Y-14317307D01*
X10327635Y-14317307D02*
X10327635Y-14422069D01*
X10327635Y-14317307D02*
X10337159Y-14298259D01*
X10337159Y-14298259D02*
X10356207Y-14288735D01*
X10356207Y-14288735D02*
X10384778Y-14288735D01*
X10384778Y-14288735D02*
X10403826Y-14298259D01*
X10403826Y-14298259D02*
X10413350Y-14317307D01*
X10413350Y-14317307D02*
X10413350Y-14422069D01*
X10508588Y-14422069D02*
X10508588Y-14288735D01*
X10508588Y-14307783D02*
X10518112Y-14298259D01*
X10518112Y-14298259D02*
X10537159Y-14288735D01*
X10537159Y-14288735D02*
X10565731Y-14288735D01*
X10565731Y-14288735D02*
X10584778Y-14298259D01*
X10584778Y-14298259D02*
X10594302Y-14317307D01*
X10594302Y-14317307D02*
X10594302Y-14422069D01*
X10594302Y-14317307D02*
X10603826Y-14298259D01*
X10603826Y-14298259D02*
X10622874Y-14288735D01*
X10622874Y-14288735D02*
X10651445Y-14288735D01*
X10651445Y-14288735D02*
X10670493Y-14298259D01*
X10670493Y-14298259D02*
X10680016Y-14317307D01*
X10680016Y-14317307D02*
X10680016Y-14422069D01*
X11070493Y-14212545D02*
X10899064Y-14469688D01*
X11327635Y-14222069D02*
X11346683Y-14222069D01*
X11346683Y-14222069D02*
X11365731Y-14231592D01*
X11365731Y-14231592D02*
X11375255Y-14241116D01*
X11375255Y-14241116D02*
X11384778Y-14260164D01*
X11384778Y-14260164D02*
X11394302Y-14298259D01*
X11394302Y-14298259D02*
X11394302Y-14345878D01*
X11394302Y-14345878D02*
X11384778Y-14383973D01*
X11384778Y-14383973D02*
X11375255Y-14403021D01*
X11375255Y-14403021D02*
X11365731Y-14412545D01*
X11365731Y-14412545D02*
X11346683Y-14422069D01*
X11346683Y-14422069D02*
X11327635Y-14422069D01*
X11327635Y-14422069D02*
X11308588Y-14412545D01*
X11308588Y-14412545D02*
X11299064Y-14403021D01*
X11299064Y-14403021D02*
X11289540Y-14383973D01*
X11289540Y-14383973D02*
X11280016Y-14345878D01*
X11280016Y-14345878D02*
X11280016Y-14298259D01*
X11280016Y-14298259D02*
X11289540Y-14260164D01*
X11289540Y-14260164D02*
X11299064Y-14241116D01*
X11299064Y-14241116D02*
X11308588Y-14231592D01*
X11308588Y-14231592D02*
X11327635Y-14222069D01*
X11480016Y-14403021D02*
X11489540Y-14412545D01*
X11489540Y-14412545D02*
X11480016Y-14422069D01*
X11480016Y-14422069D02*
X11470493Y-14412545D01*
X11470493Y-14412545D02*
X11480016Y-14403021D01*
X11480016Y-14403021D02*
X11480016Y-14422069D01*
X11613350Y-14222069D02*
X11632397Y-14222069D01*
X11632397Y-14222069D02*
X11651445Y-14231592D01*
X11651445Y-14231592D02*
X11660969Y-14241116D01*
X11660969Y-14241116D02*
X11670493Y-14260164D01*
X11670493Y-14260164D02*
X11680016Y-14298259D01*
X11680016Y-14298259D02*
X11680016Y-14345878D01*
X11680016Y-14345878D02*
X11670493Y-14383973D01*
X11670493Y-14383973D02*
X11660969Y-14403021D01*
X11660969Y-14403021D02*
X11651445Y-14412545D01*
X11651445Y-14412545D02*
X11632397Y-14422069D01*
X11632397Y-14422069D02*
X11613350Y-14422069D01*
X11613350Y-14422069D02*
X11594302Y-14412545D01*
X11594302Y-14412545D02*
X11584778Y-14403021D01*
X11584778Y-14403021D02*
X11575255Y-14383973D01*
X11575255Y-14383973D02*
X11565731Y-14345878D01*
X11565731Y-14345878D02*
X11565731Y-14298259D01*
X11565731Y-14298259D02*
X11575255Y-14260164D01*
X11575255Y-14260164D02*
X11584778Y-14241116D01*
X11584778Y-14241116D02*
X11594302Y-14231592D01*
X11594302Y-14231592D02*
X11613350Y-14222069D01*
X11870493Y-14422069D02*
X11756207Y-14422069D01*
X11813350Y-14422069D02*
X11813350Y-14222069D01*
X11813350Y-14222069D02*
X11794302Y-14250640D01*
X11794302Y-14250640D02*
X11775255Y-14269688D01*
X11775255Y-14269688D02*
X11756207Y-14279211D01*
X12051445Y-14222069D02*
X11956207Y-14222069D01*
X11956207Y-14222069D02*
X11946683Y-14317307D01*
X11946683Y-14317307D02*
X11956207Y-14307783D01*
X11956207Y-14307783D02*
X11975255Y-14298259D01*
X11975255Y-14298259D02*
X12022874Y-14298259D01*
X12022874Y-14298259D02*
X12041921Y-14307783D01*
X12041921Y-14307783D02*
X12051445Y-14317307D01*
X12051445Y-14317307D02*
X12060969Y-14336354D01*
X12060969Y-14336354D02*
X12060969Y-14383973D01*
X12060969Y-14383973D02*
X12051445Y-14403021D01*
X12051445Y-14403021D02*
X12041921Y-14412545D01*
X12041921Y-14412545D02*
X12022874Y-14422069D01*
X12022874Y-14422069D02*
X11975255Y-14422069D01*
X11975255Y-14422069D02*
X11956207Y-14412545D01*
X11956207Y-14412545D02*
X11946683Y-14403021D01*
X12127636Y-14222069D02*
X12260969Y-14222069D01*
X12260969Y-14222069D02*
X12175255Y-14422069D01*
X12327636Y-14222069D02*
X12327636Y-14260164D01*
X12403826Y-14222069D02*
X12403826Y-14260164D01*
X12699064Y-14498259D02*
X12689540Y-14488735D01*
X12689540Y-14488735D02*
X12670493Y-14460164D01*
X12670493Y-14460164D02*
X12660969Y-14441116D01*
X12660969Y-14441116D02*
X12651445Y-14412545D01*
X12651445Y-14412545D02*
X12641921Y-14364926D01*
X12641921Y-14364926D02*
X12641921Y-14326830D01*
X12641921Y-14326830D02*
X12651445Y-14279211D01*
X12651445Y-14279211D02*
X12660969Y-14250640D01*
X12660969Y-14250640D02*
X12670493Y-14231592D01*
X12670493Y-14231592D02*
X12689540Y-14203021D01*
X12689540Y-14203021D02*
X12699064Y-14193497D01*
X12765731Y-14241116D02*
X12775255Y-14231592D01*
X12775255Y-14231592D02*
X12794302Y-14222069D01*
X12794302Y-14222069D02*
X12841921Y-14222069D01*
X12841921Y-14222069D02*
X12860969Y-14231592D01*
X12860969Y-14231592D02*
X12870493Y-14241116D01*
X12870493Y-14241116D02*
X12880017Y-14260164D01*
X12880017Y-14260164D02*
X12880017Y-14279211D01*
X12880017Y-14279211D02*
X12870493Y-14307783D01*
X12870493Y-14307783D02*
X12756207Y-14422069D01*
X12756207Y-14422069D02*
X12880017Y-14422069D01*
X13051445Y-14288735D02*
X13051445Y-14422069D01*
X13003826Y-14212545D02*
X12956207Y-14355402D01*
X12956207Y-14355402D02*
X13080017Y-14355402D01*
X13308588Y-14422069D02*
X13308588Y-14222069D01*
X13394302Y-14422069D02*
X13394302Y-14317307D01*
X13394302Y-14317307D02*
X13384779Y-14298259D01*
X13384779Y-14298259D02*
X13365731Y-14288735D01*
X13365731Y-14288735D02*
X13337159Y-14288735D01*
X13337159Y-14288735D02*
X13318112Y-14298259D01*
X13318112Y-14298259D02*
X13308588Y-14307783D01*
X13518112Y-14422069D02*
X13499064Y-14412545D01*
X13499064Y-14412545D02*
X13489540Y-14403021D01*
X13489540Y-14403021D02*
X13480017Y-14383973D01*
X13480017Y-14383973D02*
X13480017Y-14326830D01*
X13480017Y-14326830D02*
X13489540Y-14307783D01*
X13489540Y-14307783D02*
X13499064Y-14298259D01*
X13499064Y-14298259D02*
X13518112Y-14288735D01*
X13518112Y-14288735D02*
X13546683Y-14288735D01*
X13546683Y-14288735D02*
X13565731Y-14298259D01*
X13565731Y-14298259D02*
X13575255Y-14307783D01*
X13575255Y-14307783D02*
X13584779Y-14326830D01*
X13584779Y-14326830D02*
X13584779Y-14383973D01*
X13584779Y-14383973D02*
X13575255Y-14403021D01*
X13575255Y-14403021D02*
X13565731Y-14412545D01*
X13565731Y-14412545D02*
X13546683Y-14422069D01*
X13546683Y-14422069D02*
X13518112Y-14422069D01*
X13699064Y-14422069D02*
X13680017Y-14412545D01*
X13680017Y-14412545D02*
X13670493Y-14393497D01*
X13670493Y-14393497D02*
X13670493Y-14222069D01*
X13851445Y-14412545D02*
X13832398Y-14422069D01*
X13832398Y-14422069D02*
X13794302Y-14422069D01*
X13794302Y-14422069D02*
X13775255Y-14412545D01*
X13775255Y-14412545D02*
X13765731Y-14393497D01*
X13765731Y-14393497D02*
X13765731Y-14317307D01*
X13765731Y-14317307D02*
X13775255Y-14298259D01*
X13775255Y-14298259D02*
X13794302Y-14288735D01*
X13794302Y-14288735D02*
X13832398Y-14288735D01*
X13832398Y-14288735D02*
X13851445Y-14298259D01*
X13851445Y-14298259D02*
X13860969Y-14317307D01*
X13860969Y-14317307D02*
X13860969Y-14336354D01*
X13860969Y-14336354D02*
X13765731Y-14355402D01*
X13937160Y-14412545D02*
X13956207Y-14422069D01*
X13956207Y-14422069D02*
X13994302Y-14422069D01*
X13994302Y-14422069D02*
X14013350Y-14412545D01*
X14013350Y-14412545D02*
X14022874Y-14393497D01*
X14022874Y-14393497D02*
X14022874Y-14383973D01*
X14022874Y-14383973D02*
X14013350Y-14364926D01*
X14013350Y-14364926D02*
X13994302Y-14355402D01*
X13994302Y-14355402D02*
X13965731Y-14355402D01*
X13965731Y-14355402D02*
X13946683Y-14345878D01*
X13946683Y-14345878D02*
X13937160Y-14326830D01*
X13937160Y-14326830D02*
X13937160Y-14317307D01*
X13937160Y-14317307D02*
X13946683Y-14298259D01*
X13946683Y-14298259D02*
X13965731Y-14288735D01*
X13965731Y-14288735D02*
X13994302Y-14288735D01*
X13994302Y-14288735D02*
X14013350Y-14298259D01*
X14089541Y-14498259D02*
X14099064Y-14488735D01*
X14099064Y-14488735D02*
X14118112Y-14460164D01*
X14118112Y-14460164D02*
X14127636Y-14441116D01*
X14127636Y-14441116D02*
X14137160Y-14412545D01*
X14137160Y-14412545D02*
X14146683Y-14364926D01*
X14146683Y-14364926D02*
X14146683Y-14326830D01*
X14146683Y-14326830D02*
X14137160Y-14279211D01*
X14137160Y-14279211D02*
X14127636Y-14250640D01*
X14127636Y-14250640D02*
X14118112Y-14231592D01*
X14118112Y-14231592D02*
X14099064Y-14203021D01*
X14099064Y-14203021D02*
X14089541Y-14193497D01*
D12*
X9124001Y-14594585D02*
G75*
G02*
X9049001Y-14594585I-37500J0D01*
G01*
X9049001Y-14594585D02*
G75*
G02*
X9124001Y-14594585I37500J0D01*
G01*
D11*
X9422873Y-14486069D02*
X9441921Y-14486069D01*
X9441921Y-14486069D02*
X9460969Y-14495592D01*
X9460969Y-14495592D02*
X9470493Y-14505116D01*
X9470493Y-14505116D02*
X9480016Y-14524164D01*
X9480016Y-14524164D02*
X9489540Y-14562259D01*
X9489540Y-14562259D02*
X9489540Y-14609878D01*
X9489540Y-14609878D02*
X9480016Y-14647973D01*
X9480016Y-14647973D02*
X9470493Y-14667021D01*
X9470493Y-14667021D02*
X9460969Y-14676545D01*
X9460969Y-14676545D02*
X9441921Y-14686069D01*
X9441921Y-14686069D02*
X9422873Y-14686069D01*
X9422873Y-14686069D02*
X9403826Y-14676545D01*
X9403826Y-14676545D02*
X9394302Y-14667021D01*
X9394302Y-14667021D02*
X9384778Y-14647973D01*
X9384778Y-14647973D02*
X9375254Y-14609878D01*
X9375254Y-14609878D02*
X9375254Y-14562259D01*
X9375254Y-14562259D02*
X9384778Y-14524164D01*
X9384778Y-14524164D02*
X9394302Y-14505116D01*
X9394302Y-14505116D02*
X9403826Y-14495592D01*
X9403826Y-14495592D02*
X9422873Y-14486069D01*
X9575254Y-14667021D02*
X9584778Y-14676545D01*
X9584778Y-14676545D02*
X9575254Y-14686069D01*
X9575254Y-14686069D02*
X9565731Y-14676545D01*
X9565731Y-14676545D02*
X9575254Y-14667021D01*
X9575254Y-14667021D02*
X9575254Y-14686069D01*
X9651445Y-14486069D02*
X9784778Y-14486069D01*
X9784778Y-14486069D02*
X9699064Y-14686069D01*
X9956207Y-14486069D02*
X9860969Y-14486069D01*
X9860969Y-14486069D02*
X9851445Y-14581307D01*
X9851445Y-14581307D02*
X9860969Y-14571783D01*
X9860969Y-14571783D02*
X9880016Y-14562259D01*
X9880016Y-14562259D02*
X9927635Y-14562259D01*
X9927635Y-14562259D02*
X9946683Y-14571783D01*
X9946683Y-14571783D02*
X9956207Y-14581307D01*
X9956207Y-14581307D02*
X9965731Y-14600354D01*
X9965731Y-14600354D02*
X9965731Y-14647973D01*
X9965731Y-14647973D02*
X9956207Y-14667021D01*
X9956207Y-14667021D02*
X9946683Y-14676545D01*
X9946683Y-14676545D02*
X9927635Y-14686069D01*
X9927635Y-14686069D02*
X9880016Y-14686069D01*
X9880016Y-14686069D02*
X9860969Y-14676545D01*
X9860969Y-14676545D02*
X9851445Y-14667021D01*
X10089540Y-14486069D02*
X10108588Y-14486069D01*
X10108588Y-14486069D02*
X10127635Y-14495592D01*
X10127635Y-14495592D02*
X10137159Y-14505116D01*
X10137159Y-14505116D02*
X10146683Y-14524164D01*
X10146683Y-14524164D02*
X10156207Y-14562259D01*
X10156207Y-14562259D02*
X10156207Y-14609878D01*
X10156207Y-14609878D02*
X10146683Y-14647973D01*
X10146683Y-14647973D02*
X10137159Y-14667021D01*
X10137159Y-14667021D02*
X10127635Y-14676545D01*
X10127635Y-14676545D02*
X10108588Y-14686069D01*
X10108588Y-14686069D02*
X10089540Y-14686069D01*
X10089540Y-14686069D02*
X10070493Y-14676545D01*
X10070493Y-14676545D02*
X10060969Y-14667021D01*
X10060969Y-14667021D02*
X10051445Y-14647973D01*
X10051445Y-14647973D02*
X10041921Y-14609878D01*
X10041921Y-14609878D02*
X10041921Y-14562259D01*
X10041921Y-14562259D02*
X10051445Y-14524164D01*
X10051445Y-14524164D02*
X10060969Y-14505116D01*
X10060969Y-14505116D02*
X10070493Y-14495592D01*
X10070493Y-14495592D02*
X10089540Y-14486069D01*
X10241921Y-14686069D02*
X10241921Y-14552735D01*
X10241921Y-14571783D02*
X10251445Y-14562259D01*
X10251445Y-14562259D02*
X10270493Y-14552735D01*
X10270493Y-14552735D02*
X10299064Y-14552735D01*
X10299064Y-14552735D02*
X10318112Y-14562259D01*
X10318112Y-14562259D02*
X10327635Y-14581307D01*
X10327635Y-14581307D02*
X10327635Y-14686069D01*
X10327635Y-14581307D02*
X10337159Y-14562259D01*
X10337159Y-14562259D02*
X10356207Y-14552735D01*
X10356207Y-14552735D02*
X10384778Y-14552735D01*
X10384778Y-14552735D02*
X10403826Y-14562259D01*
X10403826Y-14562259D02*
X10413350Y-14581307D01*
X10413350Y-14581307D02*
X10413350Y-14686069D01*
X10508588Y-14686069D02*
X10508588Y-14552735D01*
X10508588Y-14571783D02*
X10518112Y-14562259D01*
X10518112Y-14562259D02*
X10537159Y-14552735D01*
X10537159Y-14552735D02*
X10565731Y-14552735D01*
X10565731Y-14552735D02*
X10584778Y-14562259D01*
X10584778Y-14562259D02*
X10594302Y-14581307D01*
X10594302Y-14581307D02*
X10594302Y-14686069D01*
X10594302Y-14581307D02*
X10603826Y-14562259D01*
X10603826Y-14562259D02*
X10622874Y-14552735D01*
X10622874Y-14552735D02*
X10651445Y-14552735D01*
X10651445Y-14552735D02*
X10670493Y-14562259D01*
X10670493Y-14562259D02*
X10680016Y-14581307D01*
X10680016Y-14581307D02*
X10680016Y-14686069D01*
X11070493Y-14476545D02*
X10899064Y-14733688D01*
X11327635Y-14486069D02*
X11346683Y-14486069D01*
X11346683Y-14486069D02*
X11365731Y-14495592D01*
X11365731Y-14495592D02*
X11375255Y-14505116D01*
X11375255Y-14505116D02*
X11384778Y-14524164D01*
X11384778Y-14524164D02*
X11394302Y-14562259D01*
X11394302Y-14562259D02*
X11394302Y-14609878D01*
X11394302Y-14609878D02*
X11384778Y-14647973D01*
X11384778Y-14647973D02*
X11375255Y-14667021D01*
X11375255Y-14667021D02*
X11365731Y-14676545D01*
X11365731Y-14676545D02*
X11346683Y-14686069D01*
X11346683Y-14686069D02*
X11327635Y-14686069D01*
X11327635Y-14686069D02*
X11308588Y-14676545D01*
X11308588Y-14676545D02*
X11299064Y-14667021D01*
X11299064Y-14667021D02*
X11289540Y-14647973D01*
X11289540Y-14647973D02*
X11280016Y-14609878D01*
X11280016Y-14609878D02*
X11280016Y-14562259D01*
X11280016Y-14562259D02*
X11289540Y-14524164D01*
X11289540Y-14524164D02*
X11299064Y-14505116D01*
X11299064Y-14505116D02*
X11308588Y-14495592D01*
X11308588Y-14495592D02*
X11327635Y-14486069D01*
X11480016Y-14667021D02*
X11489540Y-14676545D01*
X11489540Y-14676545D02*
X11480016Y-14686069D01*
X11480016Y-14686069D02*
X11470493Y-14676545D01*
X11470493Y-14676545D02*
X11480016Y-14667021D01*
X11480016Y-14667021D02*
X11480016Y-14686069D01*
X11613350Y-14486069D02*
X11632397Y-14486069D01*
X11632397Y-14486069D02*
X11651445Y-14495592D01*
X11651445Y-14495592D02*
X11660969Y-14505116D01*
X11660969Y-14505116D02*
X11670493Y-14524164D01*
X11670493Y-14524164D02*
X11680016Y-14562259D01*
X11680016Y-14562259D02*
X11680016Y-14609878D01*
X11680016Y-14609878D02*
X11670493Y-14647973D01*
X11670493Y-14647973D02*
X11660969Y-14667021D01*
X11660969Y-14667021D02*
X11651445Y-14676545D01*
X11651445Y-14676545D02*
X11632397Y-14686069D01*
X11632397Y-14686069D02*
X11613350Y-14686069D01*
X11613350Y-14686069D02*
X11594302Y-14676545D01*
X11594302Y-14676545D02*
X11584778Y-14667021D01*
X11584778Y-14667021D02*
X11575255Y-14647973D01*
X11575255Y-14647973D02*
X11565731Y-14609878D01*
X11565731Y-14609878D02*
X11565731Y-14562259D01*
X11565731Y-14562259D02*
X11575255Y-14524164D01*
X11575255Y-14524164D02*
X11584778Y-14505116D01*
X11584778Y-14505116D02*
X11594302Y-14495592D01*
X11594302Y-14495592D02*
X11613350Y-14486069D01*
X11756207Y-14505116D02*
X11765731Y-14495592D01*
X11765731Y-14495592D02*
X11784778Y-14486069D01*
X11784778Y-14486069D02*
X11832397Y-14486069D01*
X11832397Y-14486069D02*
X11851445Y-14495592D01*
X11851445Y-14495592D02*
X11860969Y-14505116D01*
X11860969Y-14505116D02*
X11870493Y-14524164D01*
X11870493Y-14524164D02*
X11870493Y-14543211D01*
X11870493Y-14543211D02*
X11860969Y-14571783D01*
X11860969Y-14571783D02*
X11746683Y-14686069D01*
X11746683Y-14686069D02*
X11870493Y-14686069D01*
X11965731Y-14686069D02*
X12003826Y-14686069D01*
X12003826Y-14686069D02*
X12022874Y-14676545D01*
X12022874Y-14676545D02*
X12032397Y-14667021D01*
X12032397Y-14667021D02*
X12051445Y-14638449D01*
X12051445Y-14638449D02*
X12060969Y-14600354D01*
X12060969Y-14600354D02*
X12060969Y-14524164D01*
X12060969Y-14524164D02*
X12051445Y-14505116D01*
X12051445Y-14505116D02*
X12041921Y-14495592D01*
X12041921Y-14495592D02*
X12022874Y-14486069D01*
X12022874Y-14486069D02*
X11984778Y-14486069D01*
X11984778Y-14486069D02*
X11965731Y-14495592D01*
X11965731Y-14495592D02*
X11956207Y-14505116D01*
X11956207Y-14505116D02*
X11946683Y-14524164D01*
X11946683Y-14524164D02*
X11946683Y-14571783D01*
X11946683Y-14571783D02*
X11956207Y-14590830D01*
X11956207Y-14590830D02*
X11965731Y-14600354D01*
X11965731Y-14600354D02*
X11984778Y-14609878D01*
X11984778Y-14609878D02*
X12022874Y-14609878D01*
X12022874Y-14609878D02*
X12041921Y-14600354D01*
X12041921Y-14600354D02*
X12051445Y-14590830D01*
X12051445Y-14590830D02*
X12060969Y-14571783D01*
X12241921Y-14486069D02*
X12146683Y-14486069D01*
X12146683Y-14486069D02*
X12137159Y-14581307D01*
X12137159Y-14581307D02*
X12146683Y-14571783D01*
X12146683Y-14571783D02*
X12165731Y-14562259D01*
X12165731Y-14562259D02*
X12213350Y-14562259D01*
X12213350Y-14562259D02*
X12232397Y-14571783D01*
X12232397Y-14571783D02*
X12241921Y-14581307D01*
X12241921Y-14581307D02*
X12251445Y-14600354D01*
X12251445Y-14600354D02*
X12251445Y-14647973D01*
X12251445Y-14647973D02*
X12241921Y-14667021D01*
X12241921Y-14667021D02*
X12232397Y-14676545D01*
X12232397Y-14676545D02*
X12213350Y-14686069D01*
X12213350Y-14686069D02*
X12165731Y-14686069D01*
X12165731Y-14686069D02*
X12146683Y-14676545D01*
X12146683Y-14676545D02*
X12137159Y-14667021D01*
X12327636Y-14486069D02*
X12327636Y-14524164D01*
X12403826Y-14486069D02*
X12403826Y-14524164D01*
X12699064Y-14762259D02*
X12689540Y-14752735D01*
X12689540Y-14752735D02*
X12670493Y-14724164D01*
X12670493Y-14724164D02*
X12660969Y-14705116D01*
X12660969Y-14705116D02*
X12651445Y-14676545D01*
X12651445Y-14676545D02*
X12641921Y-14628926D01*
X12641921Y-14628926D02*
X12641921Y-14590830D01*
X12641921Y-14590830D02*
X12651445Y-14543211D01*
X12651445Y-14543211D02*
X12660969Y-14514640D01*
X12660969Y-14514640D02*
X12670493Y-14495592D01*
X12670493Y-14495592D02*
X12689540Y-14467021D01*
X12689540Y-14467021D02*
X12699064Y-14457497D01*
X12765731Y-14505116D02*
X12775255Y-14495592D01*
X12775255Y-14495592D02*
X12794302Y-14486069D01*
X12794302Y-14486069D02*
X12841921Y-14486069D01*
X12841921Y-14486069D02*
X12860969Y-14495592D01*
X12860969Y-14495592D02*
X12870493Y-14505116D01*
X12870493Y-14505116D02*
X12880017Y-14524164D01*
X12880017Y-14524164D02*
X12880017Y-14543211D01*
X12880017Y-14543211D02*
X12870493Y-14571783D01*
X12870493Y-14571783D02*
X12756207Y-14686069D01*
X12756207Y-14686069D02*
X12880017Y-14686069D01*
X13118112Y-14686069D02*
X13118112Y-14486069D01*
X13203826Y-14686069D02*
X13203826Y-14581307D01*
X13203826Y-14581307D02*
X13194302Y-14562259D01*
X13194302Y-14562259D02*
X13175255Y-14552735D01*
X13175255Y-14552735D02*
X13146683Y-14552735D01*
X13146683Y-14552735D02*
X13127636Y-14562259D01*
X13127636Y-14562259D02*
X13118112Y-14571783D01*
X13327636Y-14686069D02*
X13308588Y-14676545D01*
X13308588Y-14676545D02*
X13299064Y-14667021D01*
X13299064Y-14667021D02*
X13289540Y-14647973D01*
X13289540Y-14647973D02*
X13289540Y-14590830D01*
X13289540Y-14590830D02*
X13299064Y-14571783D01*
X13299064Y-14571783D02*
X13308588Y-14562259D01*
X13308588Y-14562259D02*
X13327636Y-14552735D01*
X13327636Y-14552735D02*
X13356207Y-14552735D01*
X13356207Y-14552735D02*
X13375255Y-14562259D01*
X13375255Y-14562259D02*
X13384779Y-14571783D01*
X13384779Y-14571783D02*
X13394302Y-14590830D01*
X13394302Y-14590830D02*
X13394302Y-14647973D01*
X13394302Y-14647973D02*
X13384779Y-14667021D01*
X13384779Y-14667021D02*
X13375255Y-14676545D01*
X13375255Y-14676545D02*
X13356207Y-14686069D01*
X13356207Y-14686069D02*
X13327636Y-14686069D01*
X13508588Y-14686069D02*
X13489540Y-14676545D01*
X13489540Y-14676545D02*
X13480017Y-14657497D01*
X13480017Y-14657497D02*
X13480017Y-14486069D01*
X13660969Y-14676545D02*
X13641921Y-14686069D01*
X13641921Y-14686069D02*
X13603826Y-14686069D01*
X13603826Y-14686069D02*
X13584779Y-14676545D01*
X13584779Y-14676545D02*
X13575255Y-14657497D01*
X13575255Y-14657497D02*
X13575255Y-14581307D01*
X13575255Y-14581307D02*
X13584779Y-14562259D01*
X13584779Y-14562259D02*
X13603826Y-14552735D01*
X13603826Y-14552735D02*
X13641921Y-14552735D01*
X13641921Y-14552735D02*
X13660969Y-14562259D01*
X13660969Y-14562259D02*
X13670493Y-14581307D01*
X13670493Y-14581307D02*
X13670493Y-14600354D01*
X13670493Y-14600354D02*
X13575255Y-14619402D01*
X13746683Y-14676545D02*
X13765731Y-14686069D01*
X13765731Y-14686069D02*
X13803826Y-14686069D01*
X13803826Y-14686069D02*
X13822874Y-14676545D01*
X13822874Y-14676545D02*
X13832398Y-14657497D01*
X13832398Y-14657497D02*
X13832398Y-14647973D01*
X13832398Y-14647973D02*
X13822874Y-14628926D01*
X13822874Y-14628926D02*
X13803826Y-14619402D01*
X13803826Y-14619402D02*
X13775255Y-14619402D01*
X13775255Y-14619402D02*
X13756207Y-14609878D01*
X13756207Y-14609878D02*
X13746683Y-14590830D01*
X13746683Y-14590830D02*
X13746683Y-14581307D01*
X13746683Y-14581307D02*
X13756207Y-14562259D01*
X13756207Y-14562259D02*
X13775255Y-14552735D01*
X13775255Y-14552735D02*
X13803826Y-14552735D01*
X13803826Y-14552735D02*
X13822874Y-14562259D01*
X13899064Y-14762259D02*
X13908588Y-14752735D01*
X13908588Y-14752735D02*
X13927636Y-14724164D01*
X13927636Y-14724164D02*
X13937160Y-14705116D01*
X13937160Y-14705116D02*
X13946683Y-14676545D01*
X13946683Y-14676545D02*
X13956207Y-14628926D01*
X13956207Y-14628926D02*
X13956207Y-14590830D01*
X13956207Y-14590830D02*
X13946683Y-14543211D01*
X13946683Y-14543211D02*
X13937160Y-14514640D01*
X13937160Y-14514640D02*
X13927636Y-14495592D01*
X13927636Y-14495592D02*
X13908588Y-14467021D01*
X13908588Y-14467021D02*
X13899064Y-14457497D01*
D12*
X9074001Y-14808585D02*
X9074001Y-14908585D01*
X9024001Y-14858585D02*
X9124001Y-14858585D01*
D11*
X9489540Y-14950069D02*
X9375254Y-14950069D01*
X9432397Y-14950069D02*
X9432397Y-14750069D01*
X9432397Y-14750069D02*
X9413350Y-14778640D01*
X9413350Y-14778640D02*
X9394302Y-14797688D01*
X9394302Y-14797688D02*
X9375254Y-14807211D01*
X9575254Y-14931021D02*
X9584778Y-14940545D01*
X9584778Y-14940545D02*
X9575254Y-14950069D01*
X9575254Y-14950069D02*
X9565731Y-14940545D01*
X9565731Y-14940545D02*
X9575254Y-14931021D01*
X9575254Y-14931021D02*
X9575254Y-14950069D01*
X9708588Y-14750069D02*
X9727635Y-14750069D01*
X9727635Y-14750069D02*
X9746683Y-14759592D01*
X9746683Y-14759592D02*
X9756207Y-14769116D01*
X9756207Y-14769116D02*
X9765731Y-14788164D01*
X9765731Y-14788164D02*
X9775254Y-14826259D01*
X9775254Y-14826259D02*
X9775254Y-14873878D01*
X9775254Y-14873878D02*
X9765731Y-14911973D01*
X9765731Y-14911973D02*
X9756207Y-14931021D01*
X9756207Y-14931021D02*
X9746683Y-14940545D01*
X9746683Y-14940545D02*
X9727635Y-14950069D01*
X9727635Y-14950069D02*
X9708588Y-14950069D01*
X9708588Y-14950069D02*
X9689540Y-14940545D01*
X9689540Y-14940545D02*
X9680016Y-14931021D01*
X9680016Y-14931021D02*
X9670493Y-14911973D01*
X9670493Y-14911973D02*
X9660969Y-14873878D01*
X9660969Y-14873878D02*
X9660969Y-14826259D01*
X9660969Y-14826259D02*
X9670493Y-14788164D01*
X9670493Y-14788164D02*
X9680016Y-14769116D01*
X9680016Y-14769116D02*
X9689540Y-14759592D01*
X9689540Y-14759592D02*
X9708588Y-14750069D01*
X9899064Y-14750069D02*
X9918112Y-14750069D01*
X9918112Y-14750069D02*
X9937159Y-14759592D01*
X9937159Y-14759592D02*
X9946683Y-14769116D01*
X9946683Y-14769116D02*
X9956207Y-14788164D01*
X9956207Y-14788164D02*
X9965731Y-14826259D01*
X9965731Y-14826259D02*
X9965731Y-14873878D01*
X9965731Y-14873878D02*
X9956207Y-14911973D01*
X9956207Y-14911973D02*
X9946683Y-14931021D01*
X9946683Y-14931021D02*
X9937159Y-14940545D01*
X9937159Y-14940545D02*
X9918112Y-14950069D01*
X9918112Y-14950069D02*
X9899064Y-14950069D01*
X9899064Y-14950069D02*
X9880016Y-14940545D01*
X9880016Y-14940545D02*
X9870493Y-14931021D01*
X9870493Y-14931021D02*
X9860969Y-14911973D01*
X9860969Y-14911973D02*
X9851445Y-14873878D01*
X9851445Y-14873878D02*
X9851445Y-14826259D01*
X9851445Y-14826259D02*
X9860969Y-14788164D01*
X9860969Y-14788164D02*
X9870493Y-14769116D01*
X9870493Y-14769116D02*
X9880016Y-14759592D01*
X9880016Y-14759592D02*
X9899064Y-14750069D01*
X10089540Y-14750069D02*
X10108588Y-14750069D01*
X10108588Y-14750069D02*
X10127635Y-14759592D01*
X10127635Y-14759592D02*
X10137159Y-14769116D01*
X10137159Y-14769116D02*
X10146683Y-14788164D01*
X10146683Y-14788164D02*
X10156207Y-14826259D01*
X10156207Y-14826259D02*
X10156207Y-14873878D01*
X10156207Y-14873878D02*
X10146683Y-14911973D01*
X10146683Y-14911973D02*
X10137159Y-14931021D01*
X10137159Y-14931021D02*
X10127635Y-14940545D01*
X10127635Y-14940545D02*
X10108588Y-14950069D01*
X10108588Y-14950069D02*
X10089540Y-14950069D01*
X10089540Y-14950069D02*
X10070493Y-14940545D01*
X10070493Y-14940545D02*
X10060969Y-14931021D01*
X10060969Y-14931021D02*
X10051445Y-14911973D01*
X10051445Y-14911973D02*
X10041921Y-14873878D01*
X10041921Y-14873878D02*
X10041921Y-14826259D01*
X10041921Y-14826259D02*
X10051445Y-14788164D01*
X10051445Y-14788164D02*
X10060969Y-14769116D01*
X10060969Y-14769116D02*
X10070493Y-14759592D01*
X10070493Y-14759592D02*
X10089540Y-14750069D01*
X10241921Y-14950069D02*
X10241921Y-14816735D01*
X10241921Y-14835783D02*
X10251445Y-14826259D01*
X10251445Y-14826259D02*
X10270493Y-14816735D01*
X10270493Y-14816735D02*
X10299064Y-14816735D01*
X10299064Y-14816735D02*
X10318112Y-14826259D01*
X10318112Y-14826259D02*
X10327635Y-14845307D01*
X10327635Y-14845307D02*
X10327635Y-14950069D01*
X10327635Y-14845307D02*
X10337159Y-14826259D01*
X10337159Y-14826259D02*
X10356207Y-14816735D01*
X10356207Y-14816735D02*
X10384778Y-14816735D01*
X10384778Y-14816735D02*
X10403826Y-14826259D01*
X10403826Y-14826259D02*
X10413350Y-14845307D01*
X10413350Y-14845307D02*
X10413350Y-14950069D01*
X10508588Y-14950069D02*
X10508588Y-14816735D01*
X10508588Y-14835783D02*
X10518112Y-14826259D01*
X10518112Y-14826259D02*
X10537159Y-14816735D01*
X10537159Y-14816735D02*
X10565731Y-14816735D01*
X10565731Y-14816735D02*
X10584778Y-14826259D01*
X10584778Y-14826259D02*
X10594302Y-14845307D01*
X10594302Y-14845307D02*
X10594302Y-14950069D01*
X10594302Y-14845307D02*
X10603826Y-14826259D01*
X10603826Y-14826259D02*
X10622874Y-14816735D01*
X10622874Y-14816735D02*
X10651445Y-14816735D01*
X10651445Y-14816735D02*
X10670493Y-14826259D01*
X10670493Y-14826259D02*
X10680016Y-14845307D01*
X10680016Y-14845307D02*
X10680016Y-14950069D01*
X11070493Y-14740545D02*
X10899064Y-14997688D01*
X11327635Y-14750069D02*
X11346683Y-14750069D01*
X11346683Y-14750069D02*
X11365731Y-14759592D01*
X11365731Y-14759592D02*
X11375255Y-14769116D01*
X11375255Y-14769116D02*
X11384778Y-14788164D01*
X11384778Y-14788164D02*
X11394302Y-14826259D01*
X11394302Y-14826259D02*
X11394302Y-14873878D01*
X11394302Y-14873878D02*
X11384778Y-14911973D01*
X11384778Y-14911973D02*
X11375255Y-14931021D01*
X11375255Y-14931021D02*
X11365731Y-14940545D01*
X11365731Y-14940545D02*
X11346683Y-14950069D01*
X11346683Y-14950069D02*
X11327635Y-14950069D01*
X11327635Y-14950069D02*
X11308588Y-14940545D01*
X11308588Y-14940545D02*
X11299064Y-14931021D01*
X11299064Y-14931021D02*
X11289540Y-14911973D01*
X11289540Y-14911973D02*
X11280016Y-14873878D01*
X11280016Y-14873878D02*
X11280016Y-14826259D01*
X11280016Y-14826259D02*
X11289540Y-14788164D01*
X11289540Y-14788164D02*
X11299064Y-14769116D01*
X11299064Y-14769116D02*
X11308588Y-14759592D01*
X11308588Y-14759592D02*
X11327635Y-14750069D01*
X11480016Y-14931021D02*
X11489540Y-14940545D01*
X11489540Y-14940545D02*
X11480016Y-14950069D01*
X11480016Y-14950069D02*
X11470493Y-14940545D01*
X11470493Y-14940545D02*
X11480016Y-14931021D01*
X11480016Y-14931021D02*
X11480016Y-14950069D01*
X11613350Y-14750069D02*
X11632397Y-14750069D01*
X11632397Y-14750069D02*
X11651445Y-14759592D01*
X11651445Y-14759592D02*
X11660969Y-14769116D01*
X11660969Y-14769116D02*
X11670493Y-14788164D01*
X11670493Y-14788164D02*
X11680016Y-14826259D01*
X11680016Y-14826259D02*
X11680016Y-14873878D01*
X11680016Y-14873878D02*
X11670493Y-14911973D01*
X11670493Y-14911973D02*
X11660969Y-14931021D01*
X11660969Y-14931021D02*
X11651445Y-14940545D01*
X11651445Y-14940545D02*
X11632397Y-14950069D01*
X11632397Y-14950069D02*
X11613350Y-14950069D01*
X11613350Y-14950069D02*
X11594302Y-14940545D01*
X11594302Y-14940545D02*
X11584778Y-14931021D01*
X11584778Y-14931021D02*
X11575255Y-14911973D01*
X11575255Y-14911973D02*
X11565731Y-14873878D01*
X11565731Y-14873878D02*
X11565731Y-14826259D01*
X11565731Y-14826259D02*
X11575255Y-14788164D01*
X11575255Y-14788164D02*
X11584778Y-14769116D01*
X11584778Y-14769116D02*
X11594302Y-14759592D01*
X11594302Y-14759592D02*
X11613350Y-14750069D01*
X11746683Y-14750069D02*
X11870493Y-14750069D01*
X11870493Y-14750069D02*
X11803826Y-14826259D01*
X11803826Y-14826259D02*
X11832397Y-14826259D01*
X11832397Y-14826259D02*
X11851445Y-14835783D01*
X11851445Y-14835783D02*
X11860969Y-14845307D01*
X11860969Y-14845307D02*
X11870493Y-14864354D01*
X11870493Y-14864354D02*
X11870493Y-14911973D01*
X11870493Y-14911973D02*
X11860969Y-14931021D01*
X11860969Y-14931021D02*
X11851445Y-14940545D01*
X11851445Y-14940545D02*
X11832397Y-14950069D01*
X11832397Y-14950069D02*
X11775255Y-14950069D01*
X11775255Y-14950069D02*
X11756207Y-14940545D01*
X11756207Y-14940545D02*
X11746683Y-14931021D01*
X11965731Y-14950069D02*
X12003826Y-14950069D01*
X12003826Y-14950069D02*
X12022874Y-14940545D01*
X12022874Y-14940545D02*
X12032397Y-14931021D01*
X12032397Y-14931021D02*
X12051445Y-14902449D01*
X12051445Y-14902449D02*
X12060969Y-14864354D01*
X12060969Y-14864354D02*
X12060969Y-14788164D01*
X12060969Y-14788164D02*
X12051445Y-14769116D01*
X12051445Y-14769116D02*
X12041921Y-14759592D01*
X12041921Y-14759592D02*
X12022874Y-14750069D01*
X12022874Y-14750069D02*
X11984778Y-14750069D01*
X11984778Y-14750069D02*
X11965731Y-14759592D01*
X11965731Y-14759592D02*
X11956207Y-14769116D01*
X11956207Y-14769116D02*
X11946683Y-14788164D01*
X11946683Y-14788164D02*
X11946683Y-14835783D01*
X11946683Y-14835783D02*
X11956207Y-14854830D01*
X11956207Y-14854830D02*
X11965731Y-14864354D01*
X11965731Y-14864354D02*
X11984778Y-14873878D01*
X11984778Y-14873878D02*
X12022874Y-14873878D01*
X12022874Y-14873878D02*
X12041921Y-14864354D01*
X12041921Y-14864354D02*
X12051445Y-14854830D01*
X12051445Y-14854830D02*
X12060969Y-14835783D01*
X12232397Y-14816735D02*
X12232397Y-14950069D01*
X12184778Y-14740545D02*
X12137159Y-14883402D01*
X12137159Y-14883402D02*
X12260969Y-14883402D01*
X12327636Y-14750069D02*
X12327636Y-14788164D01*
X12403826Y-14750069D02*
X12403826Y-14788164D01*
X12699064Y-15026259D02*
X12689540Y-15016735D01*
X12689540Y-15016735D02*
X12670493Y-14988164D01*
X12670493Y-14988164D02*
X12660969Y-14969116D01*
X12660969Y-14969116D02*
X12651445Y-14940545D01*
X12651445Y-14940545D02*
X12641921Y-14892926D01*
X12641921Y-14892926D02*
X12641921Y-14854830D01*
X12641921Y-14854830D02*
X12651445Y-14807211D01*
X12651445Y-14807211D02*
X12660969Y-14778640D01*
X12660969Y-14778640D02*
X12670493Y-14759592D01*
X12670493Y-14759592D02*
X12689540Y-14731021D01*
X12689540Y-14731021D02*
X12699064Y-14721497D01*
X12765731Y-14769116D02*
X12775255Y-14759592D01*
X12775255Y-14759592D02*
X12794302Y-14750069D01*
X12794302Y-14750069D02*
X12841921Y-14750069D01*
X12841921Y-14750069D02*
X12860969Y-14759592D01*
X12860969Y-14759592D02*
X12870493Y-14769116D01*
X12870493Y-14769116D02*
X12880017Y-14788164D01*
X12880017Y-14788164D02*
X12880017Y-14807211D01*
X12880017Y-14807211D02*
X12870493Y-14835783D01*
X12870493Y-14835783D02*
X12756207Y-14950069D01*
X12756207Y-14950069D02*
X12880017Y-14950069D01*
X12975255Y-14950069D02*
X13013350Y-14950069D01*
X13013350Y-14950069D02*
X13032398Y-14940545D01*
X13032398Y-14940545D02*
X13041921Y-14931021D01*
X13041921Y-14931021D02*
X13060969Y-14902449D01*
X13060969Y-14902449D02*
X13070493Y-14864354D01*
X13070493Y-14864354D02*
X13070493Y-14788164D01*
X13070493Y-14788164D02*
X13060969Y-14769116D01*
X13060969Y-14769116D02*
X13051445Y-14759592D01*
X13051445Y-14759592D02*
X13032398Y-14750069D01*
X13032398Y-14750069D02*
X12994302Y-14750069D01*
X12994302Y-14750069D02*
X12975255Y-14759592D01*
X12975255Y-14759592D02*
X12965731Y-14769116D01*
X12965731Y-14769116D02*
X12956207Y-14788164D01*
X12956207Y-14788164D02*
X12956207Y-14835783D01*
X12956207Y-14835783D02*
X12965731Y-14854830D01*
X12965731Y-14854830D02*
X12975255Y-14864354D01*
X12975255Y-14864354D02*
X12994302Y-14873878D01*
X12994302Y-14873878D02*
X13032398Y-14873878D01*
X13032398Y-14873878D02*
X13051445Y-14864354D01*
X13051445Y-14864354D02*
X13060969Y-14854830D01*
X13060969Y-14854830D02*
X13070493Y-14835783D01*
X13308588Y-14950069D02*
X13308588Y-14750069D01*
X13394302Y-14950069D02*
X13394302Y-14845307D01*
X13394302Y-14845307D02*
X13384779Y-14826259D01*
X13384779Y-14826259D02*
X13365731Y-14816735D01*
X13365731Y-14816735D02*
X13337159Y-14816735D01*
X13337159Y-14816735D02*
X13318112Y-14826259D01*
X13318112Y-14826259D02*
X13308588Y-14835783D01*
X13518112Y-14950069D02*
X13499064Y-14940545D01*
X13499064Y-14940545D02*
X13489540Y-14931021D01*
X13489540Y-14931021D02*
X13480017Y-14911973D01*
X13480017Y-14911973D02*
X13480017Y-14854830D01*
X13480017Y-14854830D02*
X13489540Y-14835783D01*
X13489540Y-14835783D02*
X13499064Y-14826259D01*
X13499064Y-14826259D02*
X13518112Y-14816735D01*
X13518112Y-14816735D02*
X13546683Y-14816735D01*
X13546683Y-14816735D02*
X13565731Y-14826259D01*
X13565731Y-14826259D02*
X13575255Y-14835783D01*
X13575255Y-14835783D02*
X13584779Y-14854830D01*
X13584779Y-14854830D02*
X13584779Y-14911973D01*
X13584779Y-14911973D02*
X13575255Y-14931021D01*
X13575255Y-14931021D02*
X13565731Y-14940545D01*
X13565731Y-14940545D02*
X13546683Y-14950069D01*
X13546683Y-14950069D02*
X13518112Y-14950069D01*
X13699064Y-14950069D02*
X13680017Y-14940545D01*
X13680017Y-14940545D02*
X13670493Y-14921497D01*
X13670493Y-14921497D02*
X13670493Y-14750069D01*
X13851445Y-14940545D02*
X13832398Y-14950069D01*
X13832398Y-14950069D02*
X13794302Y-14950069D01*
X13794302Y-14950069D02*
X13775255Y-14940545D01*
X13775255Y-14940545D02*
X13765731Y-14921497D01*
X13765731Y-14921497D02*
X13765731Y-14845307D01*
X13765731Y-14845307D02*
X13775255Y-14826259D01*
X13775255Y-14826259D02*
X13794302Y-14816735D01*
X13794302Y-14816735D02*
X13832398Y-14816735D01*
X13832398Y-14816735D02*
X13851445Y-14826259D01*
X13851445Y-14826259D02*
X13860969Y-14845307D01*
X13860969Y-14845307D02*
X13860969Y-14864354D01*
X13860969Y-14864354D02*
X13765731Y-14883402D01*
X13937160Y-14940545D02*
X13956207Y-14950069D01*
X13956207Y-14950069D02*
X13994302Y-14950069D01*
X13994302Y-14950069D02*
X14013350Y-14940545D01*
X14013350Y-14940545D02*
X14022874Y-14921497D01*
X14022874Y-14921497D02*
X14022874Y-14911973D01*
X14022874Y-14911973D02*
X14013350Y-14892926D01*
X14013350Y-14892926D02*
X13994302Y-14883402D01*
X13994302Y-14883402D02*
X13965731Y-14883402D01*
X13965731Y-14883402D02*
X13946683Y-14873878D01*
X13946683Y-14873878D02*
X13937160Y-14854830D01*
X13937160Y-14854830D02*
X13937160Y-14845307D01*
X13937160Y-14845307D02*
X13946683Y-14826259D01*
X13946683Y-14826259D02*
X13965731Y-14816735D01*
X13965731Y-14816735D02*
X13994302Y-14816735D01*
X13994302Y-14816735D02*
X14013350Y-14826259D01*
X14089541Y-15026259D02*
X14099064Y-15016735D01*
X14099064Y-15016735D02*
X14118112Y-14988164D01*
X14118112Y-14988164D02*
X14127636Y-14969116D01*
X14127636Y-14969116D02*
X14137160Y-14940545D01*
X14137160Y-14940545D02*
X14146683Y-14892926D01*
X14146683Y-14892926D02*
X14146683Y-14854830D01*
X14146683Y-14854830D02*
X14137160Y-14807211D01*
X14137160Y-14807211D02*
X14127636Y-14778640D01*
X14127636Y-14778640D02*
X14118112Y-14759592D01*
X14118112Y-14759592D02*
X14099064Y-14731021D01*
X14099064Y-14731021D02*
X14089541Y-14721497D01*
M02*
