M48
; DRILL file {KiCad 8.0.8+1} date 2025-03-02T13:34:42+0000
; FORMAT={-:-/ absolute / metric / decimal}
; #@! TF.CreationDate,2025-03-02T13:34:42+00:00
; #@! TF.GenerationSoftware,Kicad,Pcbnew,8.0.8+1
; #@! TF.FileFunction,Plated,1,2,PTH
FMAT,2
METRIC
; #@! TA.AperFunction,Plated,PTH,ComponentDrill
T1C0.400
; #@! TA.AperFunction,Plated,PTH,ComponentDrill
T2C0.750
; #@! TA.AperFunction,Plated,PTH,ComponentDrill
T3C1.000
%
G90
G05
T1
X208.804Y-59.42
X208.804Y-61.96
X208.804Y-64.5
X208.804Y-67.04
X208.804Y-69.58
X208.804Y-72.12
X208.804Y-74.66
X208.804Y-77.2
X208.804Y-79.74
X208.804Y-82.28
X208.804Y-84.82
X208.804Y-87.36
X215.604Y-59.42
X215.604Y-61.96
X215.604Y-64.5
X215.604Y-67.04
X215.604Y-69.58
X215.604Y-72.12
X215.604Y-74.66
X215.604Y-77.2
X215.604Y-79.74
X215.604Y-82.28
X215.604Y-84.82
X215.604Y-87.36
T2
X209.0Y-98.0
X209.0Y-100.0
T3
X204.584Y-59.42
X204.584Y-61.96
X204.584Y-64.5
X204.584Y-67.04
X204.584Y-69.58
X204.584Y-72.12
X204.584Y-74.66
X204.584Y-77.2
X204.584Y-79.74
X204.584Y-82.28
X204.584Y-84.82
X204.584Y-87.36
X206.817Y-91.2
X209.357Y-91.2
X211.897Y-91.2
X214.437Y-91.2
X216.977Y-91.2
X219.824Y-59.42
X219.824Y-61.96
X219.824Y-64.5
X219.824Y-67.04
X219.824Y-69.58
X219.824Y-72.12
X219.824Y-74.66
X219.824Y-77.2
X219.824Y-79.74
X219.824Y-82.28
X219.824Y-84.82
X219.824Y-87.36
M30
