%TF.GenerationSoftware,KiCad,Pcbnew,8.0.8+1*%
%TF.CreationDate,2025-03-02T13:34:37+00:00*%
%TF.ProjectId,backplate,6261636b-706c-4617-9465-2e6b69636164,0.2*%
%TF.SameCoordinates,Original*%
%TF.FileFunction,Drillmap*%
%TF.FilePolarity,Positive*%
%FSLAX45Y45*%
G04 Gerber Fmt 4.5, Leading zero omitted, Abs format (unit mm)*
G04 Created by KiCad (PCBNEW 8.0.8+1) date 2025-03-02 13:34:37*
%MOMM*%
%LPD*%
G01*
G04 APERTURE LIST*
%ADD10C,0.150000*%
%ADD11C,0.200000*%
G04 APERTURE END LIST*
D10*
X9131699Y-10849749D02*
X9131501Y-3622750D01*
X9181500Y-3572749D02*
X12781501Y-3572651D01*
X12831500Y-3522651D02*
X12831500Y-3160250D01*
X12881500Y-3110250D02*
X14631500Y-3110250D01*
X14681500Y-3060250D02*
X14681500Y-2940950D01*
X14731500Y-2890950D02*
X16384300Y-2890950D01*
X16434300Y-2940950D02*
X16434300Y-3060250D01*
X16484300Y-3110250D02*
X18234300Y-3110250D01*
X18284300Y-3160250D02*
X18284300Y-3303304D01*
X18334296Y-3353304D02*
X20084244Y-3353446D01*
X20134240Y-3403506D02*
X20131861Y-5372690D01*
X22125300Y-11363410D02*
X20821272Y-13657791D01*
X20752803Y-13676386D02*
X19277748Y-12824763D01*
X19259239Y-12818488D02*
X15625859Y-12342796D01*
X15591861Y-12322556D02*
X14575723Y-10920164D01*
X14535232Y-10899501D02*
X9181701Y-10899748D01*
X20181860Y-5422750D02*
X22106800Y-5422750D01*
X22156800Y-5472750D02*
X22156800Y-11295452D01*
X22150101Y-11320452D02*
X22125300Y-11363410D01*
X9131501Y-3622750D02*
G75*
G02*
X9181500Y-3572751I49999J0D01*
G01*
X12831500Y-3522651D02*
G75*
G02*
X12781501Y-3572650I-50000J1D01*
G01*
X12831500Y-3160250D02*
G75*
G02*
X12881500Y-3110250I50000J0D01*
G01*
X14681500Y-3060250D02*
G75*
G02*
X14631500Y-3110250I-50000J0D01*
G01*
X14681500Y-2940950D02*
G75*
G02*
X14731500Y-2890950I50000J0D01*
G01*
X16384300Y-2890950D02*
G75*
G02*
X16434300Y-2940950I0J-50000D01*
G01*
X16484300Y-3110250D02*
G75*
G02*
X16434300Y-3060250I0J50000D01*
G01*
X18234300Y-3110250D02*
G75*
G02*
X18284300Y-3160250I0J-50000D01*
G01*
X18334296Y-3353304D02*
G75*
G02*
X18284296Y-3303304I4J50004D01*
G01*
X20084244Y-3353446D02*
G75*
G02*
X20134244Y-3403506I-4J-50004D01*
G01*
X20181860Y-5422750D02*
G75*
G02*
X20131860Y-5372690I0J50000D01*
G01*
X22106800Y-5422750D02*
G75*
G02*
X22156800Y-5472750I0J-50000D01*
G01*
X22156800Y-11295452D02*
G75*
G02*
X22150100Y-11320452I-50000J3D01*
G01*
X20821272Y-13657791D02*
G75*
G02*
X20752802Y-13676388I-43472J24711D01*
G01*
X19259239Y-12818488D02*
G75*
G02*
X19277749Y-12824762I-6489J-49582D01*
G01*
X15625859Y-12342796D02*
G75*
G02*
X15591861Y-12322556I6491J49576D01*
G01*
X14535232Y-10899501D02*
G75*
G02*
X14575720Y-10920166I-2J-49999D01*
G01*
X9181701Y-10899748D02*
G75*
G02*
X9131702Y-10849749I-1J49998D01*
G01*
X11035000Y-5375000D02*
G75*
G02*
X10815000Y-5375000I-110000J0D01*
G01*
X10815000Y-5375000D02*
G75*
G02*
X11035000Y-5375000I110000J0D01*
G01*
X11035000Y-9075000D02*
G75*
G02*
X10815000Y-9075000I-110000J0D01*
G01*
X10815000Y-9075000D02*
G75*
G02*
X11035000Y-9075000I110000J0D01*
G01*
X18431800Y-5029850D02*
G75*
G02*
X18211800Y-5029850I-110000J0D01*
G01*
X18211800Y-5029850D02*
G75*
G02*
X18431800Y-5029850I110000J0D01*
G01*
X15225700Y-10761500D02*
G75*
G02*
X15005700Y-10761500I-110000J0D01*
G01*
X15005700Y-10761500D02*
G75*
G02*
X15225700Y-10761500I110000J0D01*
G01*
X19782460Y-11500675D02*
G75*
G02*
X19562460Y-11500675I-110000J0D01*
G01*
X19562460Y-11500675D02*
G75*
G02*
X19782460Y-11500675I110000J0D01*
G01*
D11*
X9384778Y-14002069D02*
X9384778Y-13802069D01*
X9384778Y-13802069D02*
X9432397Y-13802069D01*
X9432397Y-13802069D02*
X9460969Y-13811592D01*
X9460969Y-13811592D02*
X9480016Y-13830640D01*
X9480016Y-13830640D02*
X9489540Y-13849688D01*
X9489540Y-13849688D02*
X9499064Y-13887783D01*
X9499064Y-13887783D02*
X9499064Y-13916354D01*
X9499064Y-13916354D02*
X9489540Y-13954449D01*
X9489540Y-13954449D02*
X9480016Y-13973497D01*
X9480016Y-13973497D02*
X9460969Y-13992545D01*
X9460969Y-13992545D02*
X9432397Y-14002069D01*
X9432397Y-14002069D02*
X9384778Y-14002069D01*
X9584778Y-14002069D02*
X9584778Y-13868735D01*
X9584778Y-13906830D02*
X9594302Y-13887783D01*
X9594302Y-13887783D02*
X9603826Y-13878259D01*
X9603826Y-13878259D02*
X9622873Y-13868735D01*
X9622873Y-13868735D02*
X9641921Y-13868735D01*
X9708588Y-14002069D02*
X9708588Y-13868735D01*
X9708588Y-13802069D02*
X9699064Y-13811592D01*
X9699064Y-13811592D02*
X9708588Y-13821116D01*
X9708588Y-13821116D02*
X9718112Y-13811592D01*
X9718112Y-13811592D02*
X9708588Y-13802069D01*
X9708588Y-13802069D02*
X9708588Y-13821116D01*
X9832397Y-14002069D02*
X9813350Y-13992545D01*
X9813350Y-13992545D02*
X9803826Y-13973497D01*
X9803826Y-13973497D02*
X9803826Y-13802069D01*
X9937159Y-14002069D02*
X9918112Y-13992545D01*
X9918112Y-13992545D02*
X9908588Y-13973497D01*
X9908588Y-13973497D02*
X9908588Y-13802069D01*
X10165731Y-14002069D02*
X10165731Y-13802069D01*
X10165731Y-13802069D02*
X10232397Y-13944926D01*
X10232397Y-13944926D02*
X10299064Y-13802069D01*
X10299064Y-13802069D02*
X10299064Y-14002069D01*
X10480016Y-14002069D02*
X10480016Y-13897307D01*
X10480016Y-13897307D02*
X10470493Y-13878259D01*
X10470493Y-13878259D02*
X10451445Y-13868735D01*
X10451445Y-13868735D02*
X10413350Y-13868735D01*
X10413350Y-13868735D02*
X10394302Y-13878259D01*
X10480016Y-13992545D02*
X10460969Y-14002069D01*
X10460969Y-14002069D02*
X10413350Y-14002069D01*
X10413350Y-14002069D02*
X10394302Y-13992545D01*
X10394302Y-13992545D02*
X10384778Y-13973497D01*
X10384778Y-13973497D02*
X10384778Y-13954449D01*
X10384778Y-13954449D02*
X10394302Y-13935402D01*
X10394302Y-13935402D02*
X10413350Y-13925878D01*
X10413350Y-13925878D02*
X10460969Y-13925878D01*
X10460969Y-13925878D02*
X10480016Y-13916354D01*
X10575254Y-13868735D02*
X10575254Y-14068735D01*
X10575254Y-13878259D02*
X10594302Y-13868735D01*
X10594302Y-13868735D02*
X10632397Y-13868735D01*
X10632397Y-13868735D02*
X10651445Y-13878259D01*
X10651445Y-13878259D02*
X10660969Y-13887783D01*
X10660969Y-13887783D02*
X10670493Y-13906830D01*
X10670493Y-13906830D02*
X10670493Y-13963973D01*
X10670493Y-13963973D02*
X10660969Y-13983021D01*
X10660969Y-13983021D02*
X10651445Y-13992545D01*
X10651445Y-13992545D02*
X10632397Y-14002069D01*
X10632397Y-14002069D02*
X10594302Y-14002069D01*
X10594302Y-14002069D02*
X10575254Y-13992545D01*
X10756207Y-13983021D02*
X10765731Y-13992545D01*
X10765731Y-13992545D02*
X10756207Y-14002069D01*
X10756207Y-14002069D02*
X10746683Y-13992545D01*
X10746683Y-13992545D02*
X10756207Y-13983021D01*
X10756207Y-13983021D02*
X10756207Y-14002069D01*
X10756207Y-13878259D02*
X10765731Y-13887783D01*
X10765731Y-13887783D02*
X10756207Y-13897307D01*
X10756207Y-13897307D02*
X10746683Y-13887783D01*
X10746683Y-13887783D02*
X10756207Y-13878259D01*
X10756207Y-13878259D02*
X10756207Y-13897307D01*
M02*
