0
SECTION
2
HEADER
9
$INSUNITS
70
4
0
ENDSEC
0
SECTION
2
TABLES
0
TABLE
2
LTYPE
0
LTYPE
72
65
70
64
2
CONTINUOUS
3
______
73
0
40
0
0
ENDTAB
0
TABLE
2
LAYER
0
ENDTAB
0
ENDSEC
0
SECTION
2
ENTITIES
0
LINE
8
0
10
91.3169864
20
-108.4974906
11
91.3150136
21
-36.2275001
0
LINE
8
0
10
91.8150001
20
-35.7274865
11
127.8150135
21
-35.7265135
0
LINE
8
0
10
128.315
20
-35.2265135
11
128.315
21
-31.6025
0
LINE
8
0
10
128.815
20
-31.1025
11
146.315
21
-31.1025
0
LINE
8
0
10
146.815
20
-30.6025
11
146.815
21
-29.4095
0
LINE
8
0
10
147.315
20
-28.9095
11
163.843
21
-28.9095
0
LINE
8
0
10
164.343
20
-29.4095
11
164.343
21
-30.6025
0
LINE
8
0
10
164.843
20
-31.1025
11
182.343
21
-31.1025
0
LINE
8
0
10
182.843
20
-31.6025
11
182.843
21
-33.0330405
0
LINE
8
0
10
183.3429594
20
-33.5330405
11
200.8424362
21
-33.5344594
0
LINE
8
0
10
201.3423953
20
-34.0350635
11
201.3186048
21
-53.726896
0
LINE
8
0
10
221.253
20
-113.634096
11
208.2127208
21
-136.5779135
0
LINE
8
0
10
207.5280252
20
-136.7638639
11
192.7774819
21
-128.2476338
0
LINE
8
0
10
192.5923893
20
-128.1848774
11
156.2585887
21
-123.4279636
0
LINE
8
0
10
155.9186091
20
-123.2255654
11
145.7572267
21
-109.2016408
0
LINE
8
0
10
145.3523168
20
-108.9950118
11
91.8170094
21
-108.997477
0
LINE
8
0
10
201.8186044
20
-54.2275
11
221.068
21
-54.2275
0
LINE
8
0
10
221.568
20
-54.7275
11
221.568
21
-112.9545254
0
LINE
8
0
10
221.5010127
20
-113.2045254
11
221.253
21
-113.634096
0
ARC
8
0
10
91.8150136
20
-36.2274865
40
0.5
50
90.001547
51
180.0015642
0
ARC
8
0
10
127.815
20
-35.2265135
40
0.5
50
270.001547
51
0
0
ARC
8
0
10
128.815
20
-31.6025
40
0.5
50
90
51
180
0
ARC
8
0
10
146.315
20
-30.6025
40
0.5
50
270
51
0
0
ARC
8
0
10
147.315
20
-29.4095
40
0.5
50
90
51
180
0
ARC
8
0
10
163.843
20
-29.4095
40
0.5
50
0
51
90
0
ARC
8
0
10
164.843
20
-30.6025
40
0.5
50
180
51
270
0
ARC
8
0
10
182.343
20
-31.6025
40
0.5
50
0
51
90
0
ARC
8
0
10
183.343
20
-33.0330405
40
0.5
50
180
51
269.9953533
0
ARC
8
0
10
200.8423957
20
-34.0344594
40
0.5
50
359.930781
51
89.9953533
0
ARC
8
0
10
201.8186044
20
-53.7275
40
0.5
50
179.930781
51
270
0
ARC
8
0
10
221.068
20
-54.7275
40
0.5
50
0
51
90
0
ARC
8
0
10
221.068
20
-112.9545254
40
0.5
50
329.9999999
51
0
0
ARC
8
0
10
207.7780252
20
-136.3308512
40
0.5
50
239.9999999
51
330.387963
0
ARC
8
0
10
192.5274819
20
-128.6806465
40
0.5
50
59.9999999
51
82.5411155
0
ARC
8
0
10
156.3234961
20
-122.9321945
40
0.5
50
215.9261431
51
262.5411155
0
ARC
8
0
10
145.3523398
20
-109.4950118
40
0.5
50
35.9261431
51
90.0026356
0
ARC
8
0
10
91.8169864
20
-108.497477
40
0.5
50
180.0015642
51
270.0026356
0
CIRCLE
8
0
10
109.25
20
-72.25
40
1.1
0
CIRCLE
8
0
10
109.25
20
-90.75
40
1.1
0
CIRCLE
8
0
10
183.218
20
-68.7985
40
1.1
0
CIRCLE
8
0
10
151.157
20
-107.615
40
1.1
0
CIRCLE
8
0
10
196.7245951
20
-115.0067481
40
1.1
0
ENDSEC
0
EOF