0
SECTION
2
HEADER
9
$INSUNITS
70
4
0
ENDSEC
0
SECTION
2
TABLES
0
TABLE
2
LTYPE
0
LTYPE
72
65
70
64
2
CONTINUOUS
3
______
73
0
40
0
0
ENDTAB
0
TABLE
2
LAYER
0
ENDTAB
0
ENDSEC
0
SECTION
2
ENTITIES
0
LINE
8
0
10
91.3169864
20
-108.4974906
11
91.3150136
21
-36.2275001
0
LINE
8
0
10
91.8150001
20
-35.7274865
11
127.8150135
21
-35.7265135
0
LINE
8
0
10
128.315
20
-35.2265135
11
128.315
21
-31.6025
0
LINE
8
0
10
128.815
20
-31.1025
11
146.315
21
-31.1025
0
LINE
8
0
10
146.815
20
-30.6025
11
146.815
21
-29.4095
0
LINE
8
0
10
147.315
20
-28.9095
11
163.843
21
-28.9095
0
LINE
8
0
10
164.343
20
-29.4095
11
164.343
21
-30.6025
0
LINE
8
0
10
164.843
20
-31.1025
11
182.343
21
-31.1025
0
LINE
8
0
10
182.843
20
-31.6025
11
182.843
21
-33.0330405
0
LINE
8
0
10
183.3429594
20
-33.5330405
11
200.8424362
21
-33.5344594
0
LINE
8
0
10
201.3423953
20
-34.0350635
11
201.3180004
21
-54.227169
0
LINE
8
0
10
201.318
20
-54.227773
11
201.318
21
-101.8359433
0
LINE
8
0
10
201.568
20
-102.268956
11
220.8229094
21
-113.3857831
0
LINE
8
0
10
221.007605
20
-114.0658581
11
208.2127208
21
-136.5779135
0
LINE
8
0
10
207.5280252
20
-136.7638639
11
192.7774819
21
-128.2476338
0
LINE
8
0
10
192.5923893
20
-128.1848774
11
156.2585887
21
-123.4279636
0
LINE
8
0
10
155.9186091
20
-123.2255654
11
145.7572267
21
-109.2016408
0
LINE
8
0
10
145.3523168
20
-108.9950118
11
91.8170094
21
-108.997477
0
ARC
8
0
10
91.8150136
20
-36.2274865
40
0.5
50
90.001547
51
180.0015642
0
ARC
8
0
10
127.815
20
-35.2265135
40
0.5
50
270.001547
51
0
0
ARC
8
0
10
128.815
20
-31.6025
40
0.5
50
90
51
180
0
ARC
8
0
10
146.315
20
-30.6025
40
0.5
50
270
51
0
0
ARC
8
0
10
147.315
20
-29.4095
40
0.5
50
90
51
180
0
ARC
8
0
10
163.843
20
-29.4095
40
0.5
50
0
51
90
0
ARC
8
0
10
164.843
20
-30.6025
40
0.5
50
180
51
270
0
ARC
8
0
10
182.343
20
-31.6025
40
0.5
50
0
51
90
0
ARC
8
0
10
183.343
20
-33.0330405
40
0.5
50
180
51
269.9953533
0
ARC
8
0
10
200.8423957
20
-34.0344594
40
0.5
50
359.930781
51
89.9953533
0
ARC
8
0
10
201.818
20
-54.227773
40
0.5
50
179.930781
51
180
0
ARC
8
0
10
201.818
20
-101.8359433
40
0.5
50
180
51
239.9999999
0
ARC
8
0
10
220.5729094
20
-113.8187958
40
0.5
50
330.387963
51
59.9999999
0
ARC
8
0
10
207.7780252
20
-136.3308512
40
0.5
50
239.9999999
51
330.387963
0
ARC
8
0
10
192.5274819
20
-128.6806465
40
0.5
50
59.9999999
51
82.5411155
0
ARC
8
0
10
156.3234961
20
-122.9321945
40
0.5
50
215.9261431
51
262.5411155
0
ARC
8
0
10
145.3523398
20
-109.4950118
40
0.5
50
35.9261431
51
90.0026356
0
ARC
8
0
10
91.8169864
20
-108.497477
40
0.5
50
180.0015642
51
270.0026356
0
LINE
8
0
10
93.1
20
-106.9
11
106.9
21
-106.9
0
LINE
8
0
10
106.9
20
-106.9
11
106.9
21
-93.1
0
LINE
8
0
10
106.9
20
-93.1
11
93.1
21
-93.1
0
LINE
8
0
10
93.1
20
-93.1
11
93.1
21
-106.9
0
LINE
8
0
10
93.1
20
-88.4
11
106.9
21
-88.4
0
LINE
8
0
10
106.9
20
-88.4
11
106.9
21
-74.6
0
LINE
8
0
10
106.9
20
-74.6
11
93.1
21
-74.6
0
LINE
8
0
10
93.1
20
-74.6
11
93.1
21
-88.4
0
LINE
8
0
10
93.1
20
-69.9
11
106.9
21
-69.9
0
LINE
8
0
10
106.9
20
-69.9
11
106.9
21
-56.1
0
LINE
8
0
10
106.9
20
-56.1
11
93.1
21
-56.1
0
LINE
8
0
10
93.1
20
-56.1
11
93.1
21
-69.9
0
LINE
8
0
10
93.1
20
-51.4
11
106.9
21
-51.4
0
LINE
8
0
10
106.9
20
-51.4
11
106.9
21
-37.6
0
LINE
8
0
10
106.9
20
-37.6
11
93.1
21
-37.6
0
LINE
8
0
10
93.1
20
-37.6
11
93.1
21
-51.4
0
LINE
8
0
10
111.6
20
-106.9
11
125.4
21
-106.9
0
LINE
8
0
10
125.4
20
-106.9
11
125.4
21
-93.1
0
LINE
8
0
10
125.4
20
-93.1
11
111.6
21
-93.1
0
LINE
8
0
10
111.6
20
-93.1
11
111.6
21
-106.9
0
LINE
8
0
10
111.6
20
-88.4
11
125.4
21
-88.4
0
LINE
8
0
10
125.4
20
-88.4
11
125.4
21
-74.6
0
LINE
8
0
10
125.4
20
-74.6
11
111.6
21
-74.6
0
LINE
8
0
10
111.6
20
-74.6
11
111.6
21
-88.4
0
LINE
8
0
10
111.6
20
-69.9
11
125.4
21
-69.9
0
LINE
8
0
10
125.4
20
-69.9
11
125.4
21
-56.1
0
LINE
8
0
10
125.4
20
-56.1
11
111.6
21
-56.1
0
LINE
8
0
10
111.6
20
-56.1
11
111.6
21
-69.9
0
LINE
8
0
10
111.6
20
-51.4
11
125.4
21
-51.4
0
LINE
8
0
10
125.4
20
-51.4
11
125.4
21
-37.6
0
LINE
8
0
10
125.4
20
-37.6
11
111.6
21
-37.6
0
LINE
8
0
10
111.6
20
-37.6
11
111.6
21
-51.4
0
LINE
8
0
10
130.1
20
-102.275
11
143.9
21
-102.275
0
LINE
8
0
10
143.9
20
-102.275
11
143.9
21
-88.475
0
LINE
8
0
10
143.9
20
-88.475
11
130.1
21
-88.475
0
LINE
8
0
10
130.1
20
-88.475
11
130.1
21
-102.275
0
LINE
8
0
10
130.1
20
-83.775
11
143.9
21
-83.775
0
LINE
8
0
10
143.9
20
-83.775
11
143.9
21
-69.975
0
LINE
8
0
10
143.9
20
-69.975
11
130.1
21
-69.975
0
LINE
8
0
10
130.1
20
-69.975
11
130.1
21
-83.775
0
LINE
8
0
10
130.1
20
-65.275
11
143.9
21
-65.275
0
LINE
8
0
10
143.9
20
-65.275
11
143.9
21
-51.475
0
LINE
8
0
10
143.9
20
-51.475
11
130.1
21
-51.475
0
LINE
8
0
10
130.1
20
-51.475
11
130.1
21
-65.275
0
LINE
8
0
10
130.1
20
-46.775
11
143.9
21
-46.775
0
LINE
8
0
10
143.9
20
-46.775
11
143.9
21
-32.975
0
LINE
8
0
10
143.9
20
-32.975
11
130.1
21
-32.975
0
LINE
8
0
10
130.1
20
-32.975
11
130.1
21
-46.775
0
LINE
8
0
10
148.6
20
-99.9625
11
162.4
21
-99.9625
0
LINE
8
0
10
162.4
20
-99.9625
11
162.4
21
-86.1625
0
LINE
8
0
10
162.4
20
-86.1625
11
148.6
21
-86.1625
0
LINE
8
0
10
148.6
20
-86.1625
11
148.6
21
-99.9625
0
LINE
8
0
10
148.6
20
-81.4625
11
162.4
21
-81.4625
0
LINE
8
0
10
162.4
20
-81.4625
11
162.4
21
-67.6625
0
LINE
8
0
10
162.4
20
-67.6625
11
148.6
21
-67.6625
0
LINE
8
0
10
148.6
20
-67.6625
11
148.6
21
-81.4625
0
LINE
8
0
10
148.6
20
-62.9625
11
162.4
21
-62.9625
0
LINE
8
0
10
162.4
20
-62.9625
11
162.4
21
-49.1625
0
LINE
8
0
10
162.4
20
-49.1625
11
148.6
21
-49.1625
0
LINE
8
0
10
148.6
20
-49.1625
11
148.6
21
-62.9625
0
LINE
8
0
10
148.6
20
-44.4625
11
162.4
21
-44.4625
0
LINE
8
0
10
162.4
20
-44.4625
11
162.4
21
-30.6625
0
LINE
8
0
10
162.4
20
-30.6625
11
148.6
21
-30.6625
0
LINE
8
0
10
148.6
20
-30.6625
11
148.6
21
-44.4625
0
LINE
8
0
10
167.1
20
-102.275
11
180.9
21
-102.275
0
LINE
8
0
10
180.9
20
-102.275
11
180.9
21
-88.475
0
LINE
8
0
10
180.9
20
-88.475
11
167.1
21
-88.475
0
LINE
8
0
10
167.1
20
-88.475
11
167.1
21
-102.275
0
LINE
8
0
10
167.1
20
-83.775
11
180.9
21
-83.775
0
LINE
8
0
10
180.9
20
-83.775
11
180.9
21
-69.975
0
LINE
8
0
10
180.9
20
-69.975
11
167.1
21
-69.975
0
LINE
8
0
10
167.1
20
-69.975
11
167.1
21
-83.775
0
LINE
8
0
10
167.1
20
-65.275
11
180.9
21
-65.275
0
LINE
8
0
10
180.9
20
-65.275
11
180.9
21
-51.475
0
LINE
8
0
10
180.9
20
-51.475
11
167.1
21
-51.475
0
LINE
8
0
10
167.1
20
-51.475
11
167.1
21
-65.275
0
LINE
8
0
10
167.1
20
-46.775
11
180.9
21
-46.775
0
LINE
8
0
10
180.9
20
-46.775
11
180.9
21
-32.975
0
LINE
8
0
10
180.9
20
-32.975
11
167.1
21
-32.975
0
LINE
8
0
10
167.1
20
-32.975
11
167.1
21
-46.775
0
LINE
8
0
10
185.6
20
-104.5875
11
199.4
21
-104.5875
0
LINE
8
0
10
199.4
20
-104.5875
11
199.4
21
-90.7875
0
LINE
8
0
10
199.4
20
-90.7875
11
185.6
21
-90.7875
0
LINE
8
0
10
185.6
20
-90.7875
11
185.6
21
-104.5875
0
LINE
8
0
10
185.6
20
-86.0875
11
199.4
21
-86.0875
0
LINE
8
0
10
199.4
20
-86.0875
11
199.4
21
-72.2875
0
LINE
8
0
10
199.4
20
-72.2875
11
185.6
21
-72.2875
0
LINE
8
0
10
185.6
20
-72.2875
11
185.6
21
-86.0875
0
LINE
8
0
10
185.6
20
-67.5875
11
199.4
21
-67.5875
0
LINE
8
0
10
199.4
20
-67.5875
11
199.4
21
-53.7875
0
LINE
8
0
10
199.4
20
-53.7875
11
185.6
21
-53.7875
0
LINE
8
0
10
185.6
20
-53.7875
11
185.6
21
-67.5875
0
LINE
8
0
10
185.6
20
-49.0875
11
199.4
21
-49.0875
0
LINE
8
0
10
199.4
20
-49.0875
11
199.4
21
-35.2875
0
LINE
8
0
10
199.4
20
-35.2875
11
185.6
21
-35.2875
0
LINE
8
0
10
185.6
20
-35.2875
11
185.6
21
-49.0875
0
LINE
8
0
10
157.85
20
-121.4625
11
171.65
21
-121.4625
0
LINE
8
0
10
171.65
20
-121.4625
11
171.65
21
-107.6625
0
LINE
8
0
10
171.65
20
-107.6625
11
157.85
21
-107.6625
0
LINE
8
0
10
157.85
20
-107.6625
11
157.85
21
-121.4625
0
LINE
8
0
10
176.7992604
20
-122.1915368
11
190.1290368
21
-125.7632396
0
LINE
8
0
10
190.1290368
20
-125.7632396
11
193.7007396
21
-112.4334632
0
LINE
8
0
10
193.7007396
20
-112.4334632
11
180.3709632
21
-108.8617604
0
LINE
8
0
10
180.3709632
20
-108.8617604
11
176.7992604
21
-122.1915368
0
LINE
8
0
10
209.5394182
20
-130.3728234
11
216.4394182
21
-118.4216728
0
LINE
8
0
10
216.4394182
20
-118.4216728
11
204.4882676
21
-111.5216728
0
LINE
8
0
10
204.4882676
20
-111.5216728
11
197.5882676
21
-123.4728234
0
LINE
8
0
10
197.5882676
20
-123.4728234
11
209.5394182
21
-130.3728234
0
CIRCLE
8
0
10
109.25
20
-72.25
40
1.1
0
CIRCLE
8
0
10
109.25
20
-90.75
40
1.1
0
CIRCLE
8
0
10
183.218
20
-68.7985
40
1.1
0
CIRCLE
8
0
10
151.157
20
-107.615
40
1.1
0
CIRCLE
8
0
10
196.7245951
20
-115.0067481
40
1.1
0
ENDSEC
0
EOF